<svg width="40" height="40" viewBox="0 0 40 40" fill="none" xmlns="http://www.w3.org/2000/svg">
<circle cx="20" cy="20" r="19" fill="#CDE2F2" stroke="#4F4F4F" stroke-width="2"/>
<path d="M8.52331 17.432L7.54731 15.912L10.4113 13.768H11.7393V25H9.89931V16.392L8.52331 17.432ZM17.8461 13.672C19.0941 13.672 20.0274 14.184 20.6461 15.208C21.2754 16.2427 21.5901 17.64 21.5901 19.4C21.5901 21.2133 21.2754 22.6213 20.6461 23.624C20.0167 24.6267 19.0941 25.128 17.8781 25.128C16.6514 25.128 15.7127 24.6213 15.0621 23.608C14.4114 22.5947 14.0861 21.192 14.0861 19.4C14.0861 17.5973 14.4061 16.1947 15.0461 15.192C15.6861 14.1787 16.6194 13.672 17.8461 13.672ZM16.0541 19.4C16.0541 22.0773 16.6621 23.416 17.8781 23.416C18.5074 23.416 18.9554 23.1013 19.2221 22.472C19.4994 21.8427 19.6381 20.8187 19.6381 19.4C19.6381 17.992 19.4994 16.9733 19.2221 16.344C18.9447 15.7147 18.4861 15.4 17.8461 15.4C17.2167 15.4 16.7581 15.7253 16.4701 16.376C16.1927 17.016 16.0541 18.024 16.0541 19.4ZM26.1614 20.04H23.3294V18.44H26.1614V15.544H27.8894V18.44H30.7534V20.04H27.8894V22.968H26.1614V20.04Z" fill="#4F4F4F"/>
</svg>
