<svg width="41" height="40" viewBox="0 0 41 40" fill="none" xmlns="http://www.w3.org/2000/svg">
<circle cx="20" cy="20" r="19" stroke="#FFB50D" stroke-width="2"/>
<path d="M12.7188 26H10.5234V17.7266C9.72135 18.4766 8.77604 19.0312 7.6875 19.3906V17.3984C8.26042 17.2109 8.88281 16.8568 9.55469 16.3359C10.2266 15.8099 10.6875 15.1979 10.9375 14.5H12.7188V26ZM19.7188 14.5C20.8281 14.5 21.6953 14.8958 22.3203 15.6875C23.0651 16.625 23.4375 18.1797 23.4375 20.3516C23.4375 22.5182 23.0625 24.0755 22.3125 25.0234C21.6927 25.8047 20.8281 26.1953 19.7188 26.1953C18.6042 26.1953 17.7057 25.7682 17.0234 24.9141C16.3411 24.0547 16 22.526 16 20.3281C16 18.1719 16.375 16.6198 17.125 15.6719C17.7448 14.8906 18.6094 14.5 19.7188 14.5ZM19.7188 16.3203C19.4531 16.3203 19.2161 16.4062 19.0078 16.5781C18.7995 16.7448 18.638 17.0469 18.5234 17.4844C18.3724 18.0521 18.2969 19.0078 18.2969 20.3516C18.2969 21.6953 18.3646 22.6198 18.5 23.125C18.6354 23.625 18.8047 23.9583 19.0078 24.125C19.2161 24.2917 19.4531 24.375 19.7188 24.375C19.9844 24.375 20.2214 24.2917 20.4297 24.125C20.638 23.9531 20.7995 23.6484 20.9141 23.2109C21.0651 22.6484 21.1406 21.6953 21.1406 20.3516C21.1406 19.0078 21.0729 18.0859 20.9375 17.5859C20.8021 17.0807 20.6302 16.7448 20.4219 16.5781C20.2188 16.4062 19.9844 16.3203 19.7188 16.3203ZM27.8984 24.3516V21.375H24.8984V19.3203H27.8984V16.3438H29.8984V19.3203H32.9062V21.375H29.8984V24.3516H27.8984Z" fill="#FFB50D"/>
</svg>
