<svg width="50" height="48" viewBox="0 0 50 48" fill="none" xmlns="http://www.w3.org/2000/svg">
<circle cx="24.5" cy="24" r="23" stroke="#FFB50D" stroke-width="2"/>
<path d="M22.0645 30H19.5947V20.6924C18.6924 21.5361 17.6289 22.1602 16.4043 22.5645V20.3232C17.0488 20.1123 17.749 19.7139 18.5049 19.1279C19.2607 18.5361 19.7793 17.8477 20.0605 17.0625H22.0645V30ZM25.7998 26.6865L28.2607 26.4316C28.3311 26.9883 28.5391 27.4307 28.8848 27.7588C29.2305 28.0811 29.6289 28.2422 30.0801 28.2422C30.5957 28.2422 31.0322 28.0342 31.3896 27.6182C31.7471 27.1963 31.9258 26.5635 31.9258 25.7197C31.9258 24.9287 31.7471 24.3369 31.3896 23.9443C31.0381 23.5459 30.5781 23.3467 30.0098 23.3467C29.3008 23.3467 28.665 23.6602 28.1025 24.2871L26.0986 23.9971L27.3643 17.291H33.8945V19.6025H29.2363L28.8496 21.791C29.4004 21.5156 29.9629 21.3779 30.5371 21.3779C31.6328 21.3779 32.5615 21.7764 33.3232 22.5732C34.085 23.3701 34.4658 24.4043 34.4658 25.6758C34.4658 26.7363 34.1582 27.6826 33.543 28.5146C32.7051 29.6514 31.542 30.2197 30.0537 30.2197C28.8643 30.2197 27.8945 29.9004 27.1445 29.2617C26.3945 28.623 25.9463 27.7646 25.7998 26.6865Z" fill="#FFB50D"/>
</svg>
