<svg width="50" height="48" viewBox="0 0 50 48" fill="none" xmlns="http://www.w3.org/2000/svg">
<circle cx="24.084" cy="24" r="23" stroke="url(#paint0_linear_83_5206)" stroke-width="2"/>
<path d="M17.9569 20.486L16.8589 18.776L20.0809 16.364H21.5749V29H19.5049V19.316L17.9569 20.486ZM24.917 23.096L25.745 16.4H31.703V18.47H27.563L27.203 20.972C27.443 20.924 27.683 20.9 27.923 20.9C29.075 20.9 30.017 21.266 30.749 21.998C31.505 22.73 31.883 23.702 31.883 24.914C31.883 26.222 31.469 27.266 30.641 28.046C29.825 28.814 28.793 29.198 27.545 29.198C26.861 29.198 26.159 29.042 25.439 28.73C24.767 28.418 24.239 27.974 23.855 27.398L25.043 25.832C25.295 26.216 25.661 26.528 26.141 26.768C26.633 27.008 27.119 27.128 27.599 27.128C28.199 27.128 28.691 26.93 29.075 26.534C29.471 26.138 29.669 25.628 29.669 25.004C29.669 24.344 29.423 23.81 28.931 23.402C28.451 22.982 27.803 22.772 26.987 22.772C26.111 22.772 25.421 22.88 24.917 23.096Z" fill="url(#paint1_linear_83_5206)"/>
<defs>
<linearGradient id="paint0_linear_83_5206" x1="0.0839844" y1="0" x2="39.0843" y2="54.4465" gradientUnits="userSpaceOnUse">
<stop stop-color="#E9277C"/>
<stop offset="0.0001" stop-color="#F03482"/>
<stop offset="1" stop-color="#FF783E"/>
</linearGradient>
<linearGradient id="paint1_linear_83_5206" x1="16.084" y1="10" x2="39.0627" y2="30.1982" gradientUnits="userSpaceOnUse">
<stop stop-color="#E9277C"/>
<stop offset="0.0001" stop-color="#F03482"/>
<stop offset="1" stop-color="#FF783E"/>
</linearGradient>
</defs>
</svg>
