<svg width="50" height="48" viewBox="0 0 50 48" fill="none" xmlns="http://www.w3.org/2000/svg">
<circle cx="24.25" cy="24" r="23" stroke="url(#paint0_linear_83_5201)" stroke-width="2"/>
<path d="M22.6381 29H20.5681V26.084H14.8081V24.554L19.6681 16.4H22.0441L17.4901 24.014H20.5681V20.9H22.6381V24.014H24.2581V26.084H22.6381V29ZM26.1738 23.096L27.0018 16.4H32.9598V18.47H28.8198L28.4598 20.972C28.6998 20.924 28.9398 20.9 29.1798 20.9C30.3318 20.9 31.2738 21.266 32.0058 21.998C32.7618 22.73 33.1398 23.702 33.1398 24.914C33.1398 26.222 32.7258 27.266 31.8978 28.046C31.0818 28.814 30.0498 29.198 28.8018 29.198C28.1178 29.198 27.4158 29.042 26.6958 28.73C26.0238 28.418 25.4958 27.974 25.1118 27.398L26.2998 25.832C26.5518 26.216 26.9178 26.528 27.3978 26.768C27.8898 27.008 28.3758 27.128 28.8558 27.128C29.4558 27.128 29.9478 26.93 30.3318 26.534C30.7278 26.138 30.9258 25.628 30.9258 25.004C30.9258 24.344 30.6798 23.81 30.1878 23.402C29.7078 22.982 29.0598 22.772 28.2438 22.772C27.3678 22.772 26.6778 22.88 26.1738 23.096Z" fill="url(#paint1_linear_83_5201)"/>
<defs>
<linearGradient id="paint0_linear_83_5201" x1="0.25" y1="0" x2="39.2503" y2="54.4465" gradientUnits="userSpaceOnUse">
<stop stop-color="#E9277C"/>
<stop offset="0.0001" stop-color="#F03482"/>
<stop offset="1" stop-color="#FF783E"/>
</linearGradient>
<linearGradient id="paint1_linear_83_5201" x1="14.25" y1="10" x2="37.4071" y2="33.9471" gradientUnits="userSpaceOnUse">
<stop stop-color="#E9277C"/>
<stop offset="0.0001" stop-color="#F03482"/>
<stop offset="1" stop-color="#FF783E"/>
</linearGradient>
</defs>
</svg>
