<svg width="36" height="24" viewBox="0 0 36 24" fill="none" xmlns="http://www.w3.org/2000/svg">
<path d="M10.1718 13.7216C10.1718 14.1648 10.0287 14.5426 9.74215 14.8551C9.45572 15.1676 9.11458 15.3239 8.71875 15.3239C8.3125 15.3239 7.96615 15.1676 7.67969 14.8551C7.39323 14.5426 7.25 14.1648 7.25 13.7216C7.25 13.2898 7.39323 12.9176 7.67969 12.6051C7.96615 12.2926 8.3125 12.1364 8.71875 12.1364C9.11458 12.1364 9.45572 12.2926 9.74215 12.6051C10.0287 12.9176 10.1718 13.2898 10.1718 13.7216ZM28.2031 13.7046C28.2031 14.1477 28.0599 14.5256 27.7734 14.8381C27.487 15.1506 27.1406 15.3068 26.7343 15.3068C26.3281 15.3068 25.9818 15.1506 25.6953 14.8381C25.4089 14.5256 25.2656 14.1477 25.2656 13.7046C25.2656 13.2614 25.4089 12.8864 25.6953 12.5796C25.9818 12.2727 26.3281 12.1193 26.7343 12.1193C27.1406 12.1193 27.487 12.2727 27.7734 12.5796C28.0599 12.8864 28.2031 13.2614 28.2031 13.7046ZM11.9531 13.7216C11.9531 12.8239 11.6588 12.0512 11.0703 11.4034C10.4818 10.7557 9.77086 10.4318 8.9375 10.4318C8.10416 10.4318 7.39323 10.7529 6.80469 11.3949C6.21615 12.037 5.92187 12.8125 5.92187 13.7216C5.92187 14.6307 6.21615 15.4063 6.80469 16.0483C7.39323 16.6904 8.10416 17.0114 8.9375 17.0114C9.77086 17.0114 10.4818 16.6904 11.0703 16.0483C11.6588 15.4063 11.9531 14.6307 11.9531 13.7216ZM29.9687 13.7046C29.9687 12.7955 29.6745 12.0199 29.086 11.3779C28.4974 10.7358 27.7865 10.4148 26.9531 10.4148C26.1302 10.4148 25.4219 10.7358 24.8281 11.3779C24.2344 12.0199 23.9375 12.7955 23.9375 13.7046C23.9375 14.6137 24.2318 15.3892 24.8203 16.0313C25.4089 16.6733 26.1198 16.9943 26.9531 16.9943C27.7865 16.9943 28.4974 16.6733 29.086 16.0313C29.6745 15.3892 29.9687 14.6137 29.9687 13.7046ZM13.2812 13.7216C13.2812 15.0398 12.8568 16.162 12.0078 17.0881C11.1589 18.0142 10.1354 18.4773 8.9375 18.4773C7.72916 18.4773 6.70052 18.0114 5.85156 17.0796C5.00261 16.1477 4.57813 15.0284 4.57813 13.7216C4.57813 12.4148 5.00521 11.2983 5.85938 10.3722C6.71354 9.44605 7.73958 8.98298 8.9375 8.98298C10.1354 8.98298 11.1589 9.44605 12.0078 10.3722C12.8568 11.2983 13.2812 12.4148 13.2812 13.7216ZM31.3125 13.7046C31.3125 15.0114 30.888 16.1279 30.039 17.054C29.1901 17.9801 28.1614 18.4432 26.9531 18.4432C25.7552 18.4432 24.7318 17.9801 23.8828 17.054C23.0338 16.1279 22.6094 15.0114 22.6094 13.7046C22.6094 12.3977 23.0338 11.2813 23.8828 10.3551C24.7318 9.429 25.7552 8.96593 26.9531 8.96593C28.1614 8.96593 29.1901 9.429 30.039 10.3551C30.888 11.2813 31.3125 12.3977 31.3125 13.7046ZM16.25 13.7557C16.25 11.5852 15.5442 9.73014 14.1328 8.19036C12.7214 6.65059 11.0208 5.8807 9.03125 5.8807C7.72916 5.8807 6.52604 6.23298 5.42188 6.93752C4.31771 7.64207 3.44271 8.59945 2.79688 9.80968C2.15105 11.0199 1.82813 12.3352 1.82813 13.7557C1.82813 15.1762 2.15105 16.4915 2.79688 17.7017C3.44271 18.912 4.31771 19.8693 5.42188 20.5739C6.52604 21.2784 7.72916 21.6307 9.03125 21.6307C11.0208 21.6307 12.7214 20.8608 14.1328 19.321C15.5442 17.7813 16.25 15.9262 16.25 13.7557ZM26.6875 3.98866C24.0416 2.72729 21.1458 2.09661 18 2.09661C14.6771 2.09661 11.6927 2.72161 9.04687 3.97161C10.2656 3.97161 11.427 4.23014 12.5312 4.74718C13.6354 5.26423 14.5859 5.96025 15.3828 6.83525C16.1797 7.71025 16.8151 8.75002 17.289 9.95457C17.763 11.1591 18 12.4262 18 13.7557C18 12.4489 18.2265 11.2017 18.6797 10.0142C19.1328 8.82673 19.7474 7.80116 20.5234 6.93752C21.2994 6.07389 22.224 5.37502 23.2969 4.84093C24.3698 4.30684 25.5 4.02275 26.6875 3.98866ZM34.1718 13.7557C34.1718 11.5852 33.4687 9.73014 32.0625 8.19036C30.6562 6.65059 28.9583 5.8807 26.9687 5.8807C24.9792 5.8807 23.2786 6.65059 21.8672 8.19036C20.4558 9.73014 19.75 11.5852 19.75 13.7557C19.75 15.9262 20.4558 17.7813 21.8672 19.321C23.2786 20.8608 24.9792 21.6307 26.9687 21.6307C28.9583 21.6307 30.6562 20.8608 32.0625 19.321C33.4687 17.7813 34.1718 15.9262 34.1718 13.7557ZM30.0156 4.10798H36C35.5417 4.68752 35.151 5.33809 34.8282 6.05968C34.5052 6.78127 34.2968 7.43184 34.2031 8.01139C35.349 9.7273 35.9219 11.6421 35.9219 13.7557C35.9219 15.5284 35.5208 17.1648 34.7188 18.6648C33.9167 20.1648 32.8281 21.3495 31.4531 22.2188C30.0781 23.0881 28.5834 23.5228 26.9687 23.5228C25.5834 23.5228 24.2864 23.2046 23.0781 22.5682C21.8698 21.9318 20.849 21.0512 20.0156 19.9262C19.526 20.5625 18.8541 21.5796 18 22.9773C17.8854 22.7273 17.6068 22.2585 17.1641 21.571C16.7214 20.8835 16.3333 20.3296 16 19.9091C15.1667 21.0341 14.1432 21.9176 12.9297 22.5597C11.7162 23.2017 10.4166 23.5228 9.03125 23.5228C7.41666 23.5228 5.92187 23.0881 4.54687 22.2188C3.17188 21.3495 2.08333 20.1648 1.28125 18.6648C0.479166 17.1648 0.078125 15.5284 0.078125 13.7557C0.078125 11.6421 0.651042 9.7273 1.79687 8.01139C1.70312 7.43184 1.49479 6.78127 1.17187 6.05968C0.848959 5.33809 0.458334 4.68752 0 4.10798H5.70313C7.25521 2.97161 9.10417 2.08241 11.25 1.44036C13.3959 0.798318 15.6459 0.477295 18 0.477295C20.3334 0.477295 22.526 0.795477 24.5781 1.43184C26.6302 2.0682 28.4427 2.96025 30.0156 4.10798Z" fill="#A8A8A8"/>
</svg>
