<svg width="40" height="41" viewBox="0 0 40 41" fill="none" xmlns="http://www.w3.org/2000/svg">
<path d="M29.9203 25.5527C33.0141 25.4094 32.7156 22.4778 32.7156 20.233C32.7156 17.2348 32.862 14.1976 32.7156 11.2031C32.5792 8.4167 30.156 8.43806 28.0715 8.43806C21.8337 8.43806 15.5966 8.43806 9.3588 8.43806C9.3035 8.43178 9.2438 8.43178 9.18033 8.43806C9.07853 8.43806 8.99055 8.45754 8.90885 8.48582C5.84778 9.0093 6.50951 12.6523 6.50951 15.0164C6.50951 16.7993 6.50951 18.5822 6.50951 20.365C6.50951 21.3064 6.39828 22.3251 6.54785 23.2608C6.99089 26.0246 10.0545 25.5527 12.0962 25.5527C15.5809 25.5527 19.0649 25.5527 22.5495 25.5527C24.9966 25.5527 27.4745 25.6658 29.9203 25.5527ZM9.76414 23.9816C8.7951 23.937 8.19244 23.5826 8.07995 22.518C7.94358 21.2197 8.07995 19.8327 8.07995 18.5281C8.07995 16.8087 8.07995 15.09 8.07995 13.3706C8.07995 12.3513 7.67713 10.1612 9.1797 10.0085C13.9828 10.0085 18.7859 10.0085 23.5889 10.0085C25.603 10.0085 27.8283 9.73702 29.828 10.0085C30.8598 10.1486 31.1439 10.8229 31.1439 11.7392C31.1439 12.9803 31.1439 14.2215 31.1439 15.4626C31.1439 17.0526 31.1439 18.6431 31.1439 20.233C31.1439 21.0544 31.2878 22.0266 31.1439 22.8398C30.8291 24.6176 27.4626 23.9822 26.1774 23.9822C20.7258 23.9816 15.2101 24.2342 9.76414 23.9816Z" fill="#FFB50D"/>
<path d="M13.0722 30.4336C12.8655 28.5251 11.4013 26.9534 9.38337 26.9534C7.36675 26.9534 5.67188 28.6489 5.67188 30.6649C5.67188 32.6237 7.26934 34.2852 9.22375 34.3676C11.3026 34.4549 12.8561 32.8688 13.071 30.8986C13.088 30.827 13.0986 30.751 13.0942 30.6649C13.0993 30.58 13.0892 30.5046 13.0722 30.4336ZM7.24357 30.6649C7.24357 27.8979 11.3761 27.9224 11.5238 30.6649C11.3761 33.4067 7.24357 33.4306 7.24357 30.6649Z" fill="#FFB50D"/>
<path d="M33.5169 30.8986C33.5339 30.827 33.5446 30.751 33.5402 30.6649C33.5446 30.5794 33.5345 30.5046 33.5176 30.4336C33.3108 28.5251 31.8466 26.9534 29.8287 26.9534C27.8121 26.9534 26.1172 28.6489 26.1172 30.6649C26.1172 32.6237 27.7147 34.2852 29.6691 34.3676C31.7479 34.4549 33.302 32.8688 33.5169 30.8986ZM27.6883 30.6649C27.6883 27.8979 31.8208 27.9224 31.9685 30.6649C31.8214 33.4067 27.6883 33.4306 27.6883 30.6649Z" fill="#FFB50D"/>
<path d="M38.8607 12.6505C38.4 11.493 37.6 11.2642 36.5958 11.2183C36.5958 11.1423 36.5958 11.0656 36.5958 10.9896C36.5958 8.73793 36.5958 6.4869 36.5958 4.23524C36.5958 2.6736 36.6631 0.932223 34.8657 0.256034C33.6874 -0.187008 32.0441 0.0794457 30.8262 0.0794457C28.0228 0.0794457 25.2194 0.0794457 22.416 0.0794457C17.0492 0.0794457 11.6818 0.0794457 6.315 0.0794457C6.03535 0.0794457 5.7557 0.0794457 5.47605 0.0794457C5.42074 0.0731614 5.36104 0.0731614 5.29757 0.0794457C5.21336 0.0794457 5.13921 0.0938995 5.06945 0.113381C3.05848 0.42948 2.62675 2.0458 2.62675 3.8387C2.62675 5.99421 2.62675 8.15035 2.62675 10.3059C2.62675 10.6088 2.62675 10.9117 2.62675 11.2146C1.57351 11.2504 0.725756 11.454 0.250664 12.6512C-0.0893152 13.5071 0.0156323 14.5012 0.0156323 15.4049C0.0156323 16.3099 -0.090572 17.3015 0.250664 18.1587C0.72827 19.359 1.57036 19.5607 2.62675 19.5959C2.62675 22.6124 2.62675 25.6288 2.62675 28.6453C2.62675 30.5412 2.60161 32.4391 2.62675 34.3351C2.64183 35.46 3.00255 36.4309 3.76421 37.0071C3.75038 38.1433 3.67183 39.2456 4.66914 40.0236C5.52255 40.6897 6.55191 40.6137 7.56683 40.6137C8.54843 40.6137 9.5382 40.6872 10.3847 40.0846C11.2645 39.458 11.372 38.5851 11.3745 37.6463C13.9674 37.6255 16.5628 37.5602 19.1412 37.5602C21.9641 37.5602 24.7952 37.606 27.6256 37.6192C27.6256 38.5317 27.7199 39.3864 28.5362 40.0236C29.3896 40.6897 30.419 40.6137 31.4339 40.6137C32.4155 40.6137 33.4053 40.6872 34.2518 40.0846C35.2994 39.3386 35.2535 38.2426 35.2371 37.1027C37.3235 35.7415 36.5958 31.6259 36.5958 29.39C36.5958 26.1234 36.5958 22.8575 36.5958 19.5909C37.5975 19.5438 38.4025 19.3137 38.8607 18.1587C39.2006 17.3028 39.0957 16.3086 39.0957 15.4049C39.0957 14.4994 39.2019 13.5077 38.8607 12.6505ZM1.75512 17.715C1.61875 17.5491 1.60618 17.0413 1.5867 16.817C1.54711 16.3526 1.5867 15.8693 1.5867 15.4043C1.5867 14.9399 1.54711 14.4547 1.5867 13.9916C1.60556 13.7672 1.61875 13.2601 1.75512 13.0936C1.96125 12.8422 2.2918 12.7775 2.62675 12.7655C2.62675 14.5245 2.62675 16.2835 2.62675 18.0424C2.29243 18.0311 1.96125 17.9664 1.75512 17.715ZM9.14355 38.9741C8.67663 39.1312 8.04506 39.042 7.56683 39.042C7.12755 39.042 6.64743 39.0979 6.21382 39.0081C5.40378 38.8403 5.30888 38.2181 5.31705 37.547C5.3491 37.5495 5.37612 37.5583 5.4088 37.5595C6.87618 37.6274 8.34985 37.6494 9.8254 37.6507C9.82854 38.2225 9.73176 38.7762 9.14355 38.9741ZM8.6031 35.9885C7.56431 35.9885 6.32505 36.1764 5.2982 35.9885C3.76044 35.7069 4.19845 33.4961 4.19845 32.3605C4.19845 27.1182 4.19845 21.8758 4.19845 16.6341C4.19845 12.2244 3.98918 7.75758 4.19845 3.35167C4.2349 2.58939 4.16452 1.76552 5.2982 1.65052C14.1817 1.65052 23.0645 1.65052 31.948 1.65052C33.0967 1.65052 34.7985 1.29294 35.0254 2.84956C35.207 4.09447 35.0254 5.50404 35.0254 6.75838C35.0254 12.2741 35.0254 17.7898 35.0254 23.3049C35.0254 25.8305 35.0254 28.3556 35.0254 30.8812C35.0254 32.1349 35.2076 33.5451 35.0254 34.79C34.7998 36.3284 33.1677 35.9891 32.0309 35.9891C29.7283 35.9891 27.4258 35.9891 25.1238 35.9891C19.6163 35.9885 14.1094 35.9885 8.6031 35.9885ZM33.01 38.9741C32.5431 39.1312 31.9115 39.042 31.4333 39.042C30.994 39.042 30.5139 39.0979 30.0803 39.0081C29.3004 38.8459 29.1841 38.2634 29.1841 37.6217C30.6829 37.6192 32.1805 37.6067 33.6755 37.5602C33.6812 37.5602 33.6849 37.5583 33.6906 37.5583C33.7044 38.1609 33.6309 38.7655 33.01 38.9741ZM37.5246 16.817C37.5058 17.0413 37.4926 17.5485 37.3562 17.715C37.1733 17.9381 36.8912 18.0148 36.5958 18.0374C36.5958 16.2822 36.5958 14.527 36.5958 12.7718C36.8912 12.7944 37.1733 12.8705 37.3562 13.0942C37.4926 13.2601 37.5051 13.7679 37.5246 13.9922C37.5642 14.4566 37.5246 14.9399 37.5246 15.4049C37.5246 15.8687 37.5642 16.3538 37.5246 16.817Z" fill="#FFB50D"/>
</svg>
