<svg width="20" height="21" viewBox="0 0 20 21" fill="none" xmlns="http://www.w3.org/2000/svg">
<path d="M17.0311 1.94205H14.8748V1.10908C14.8748 0.968098 14.8188 0.832893 14.7191 0.733206C14.6194 0.633518 14.4842 0.577515 14.3432 0.577515C14.2023 0.577515 14.0671 0.633518 13.9674 0.733206C13.8677 0.832893 13.8117 0.968098 13.8117 1.10908V1.94205H6.24371V1.10908C6.24371 0.968098 6.18771 0.832893 6.08802 0.733206C5.98833 0.633518 5.85313 0.577515 5.71215 0.577515C5.57117 0.577515 5.43596 0.633518 5.33628 0.733206C5.23659 0.832893 5.18059 0.968098 5.18059 1.10908V1.94205H3.02762C2.43624 1.94267 1.86924 2.17773 1.4509 2.59572C1.03256 3.01371 0.797015 3.58052 0.795898 4.17189V18.1753C0.796643 18.7669 1.03202 19.3341 1.4504 19.7524C1.86878 20.1707 2.436 20.406 3.02762 20.4066H17.0311C17.6226 20.4058 18.1897 20.1705 18.608 19.7522C19.0262 19.334 19.2616 18.7669 19.2623 18.1753V4.17189C19.2612 3.5806 19.0257 3.01386 18.6075 2.59589C18.1892 2.17791 17.6223 1.94279 17.0311 1.94205V1.94205ZM3.02762 3.00517H5.18059V3.83814C5.18059 3.97912 5.23659 4.11432 5.33628 4.21401C5.43596 4.3137 5.57117 4.3697 5.71215 4.3697C5.85313 4.3697 5.98833 4.3137 6.08802 4.21401C6.18771 4.11432 6.24371 3.97912 6.24371 3.83814V3.00517H13.8126V3.83814C13.8126 3.97912 13.8686 4.11432 13.9683 4.21401C14.068 4.3137 14.2032 4.3697 14.3442 4.3697C14.4852 4.3697 14.6204 4.3137 14.7201 4.21401C14.8197 4.11432 14.8757 3.97912 14.8757 3.83814V3.00517H17.0311C17.34 3.00665 17.6358 3.13006 17.8542 3.34856C18.0727 3.56705 18.196 3.86296 18.1973 4.17189V5.67189H1.85902V4.17189C1.86038 3.86255 1.984 3.5663 2.20291 3.34774C2.42183 3.12917 2.71828 3.00603 3.02762 3.00517V3.00517ZM17.0311 19.3435H3.02762C2.71803 19.3426 2.42137 19.2193 2.20242 19.0004C1.98346 18.7815 1.86001 18.4849 1.85902 18.1753V6.73501H18.1973V18.1753C18.1963 18.4845 18.0732 18.7808 17.8547 18.9996C17.6363 19.2184 17.3402 19.342 17.0311 19.3435V19.3435Z" fill="url(#paint0_linear_64_1397)"/>
<defs>
<linearGradient id="paint0_linear_64_1397" x1="0.795898" y1="0.577515" x2="17.2425" y2="21.9601" gradientUnits="userSpaceOnUse">
<stop stop-color="#E9277C"/>
<stop offset="0.0001" stop-color="#F03482"/>
<stop offset="1" stop-color="#FF783E"/>
</linearGradient>
</defs>
</svg>
