<svg width="32" height="32" viewBox="0 0 32 32" fill="none" xmlns="http://www.w3.org/2000/svg">
<path d="M9.33398 14.6667H12.0007V17.3334H9.33398V14.6667ZM9.33398 20.0001H12.0007V22.6667H9.33398V20.0001ZM14.6673 14.6667H17.334V17.3334H14.6673V14.6667ZM14.6673 20.0001H17.334V22.6667H14.6673V20.0001ZM20.0007 14.6667H22.6673V17.3334H20.0007V14.6667ZM20.0007 20.0001H22.6673V22.6667H20.0007V20.0001Z" fill="#FFB50D"/>
<path d="M6.66667 29.3334H25.3333C26.804 29.3334 28 28.1374 28 26.6667V8.00008C28 6.52941 26.804 5.33341 25.3333 5.33341H22.6667V2.66675H20V5.33341H12V2.66675H9.33333V5.33341H6.66667C5.196 5.33341 4 6.52941 4 8.00008V26.6667C4 28.1374 5.196 29.3334 6.66667 29.3334ZM25.3333 10.6667L25.3347 26.6667H6.66667V10.6667H25.3333Z" fill="#FFB50D"/>
</svg>
