<svg width="48" height="36" viewBox="0 0 48 36" fill="none" xmlns="http://www.w3.org/2000/svg">
<path d="M9.25231 17.8707C7.27082 17.8707 5.6589 19.4883 5.6589 21.4753C5.6589 23.4632 7.27082 25.0799 9.25231 25.0799C11.2338 25.0799 12.8457 23.4624 12.8457 21.4753C12.8457 19.4882 11.2338 17.8707 9.25231 17.8707ZM9.25231 23.4775C8.15239 23.4775 7.25718 22.5792 7.25718 21.476C7.25718 20.3721 8.15231 19.4738 9.25231 19.4738C10.3531 19.4738 11.2482 20.3721 11.2482 21.476C11.2482 22.5792 10.3531 23.4775 9.25231 23.4775ZM38.0125 17.8707C36.031 17.8707 34.4191 19.4883 34.4191 21.4753C34.4191 23.4632 36.0311 25.0799 38.0125 25.0799C39.994 25.0799 41.6059 23.4624 41.6059 21.4753C41.606 19.4882 39.994 17.8707 38.0125 17.8707ZM38.0125 23.4775C36.9126 23.4775 36.0173 22.5792 36.0173 21.476C36.0173 20.3721 36.9125 19.4738 38.0125 19.4738C39.1133 19.4738 40.0084 20.3721 40.0084 21.476C40.0084 22.5792 39.1133 23.4775 38.0125 23.4775ZM42.2811 16.7931L40.2028 11.4255H7.88204L5.6949 16.5299C4.54212 17.2667 3.77098 18.553 3.77098 20.0226V25.911C3.77098 27.3669 4.52533 28.6437 5.65969 29.3844V31.9403C5.65969 33.7362 7.11639 35.1978 8.90667 35.1978H10.6098C12.4002 35.1978 13.8569 33.737 13.8569 31.9403V30.0588H34.4198V31.9403C34.4198 33.7362 35.8766 35.1978 37.6668 35.1978H39.37C41.1602 35.1978 42.6169 33.737 42.6169 31.9403V28.9229H42.5458C43.3466 28.1661 43.8537 27.0997 43.8537 25.9117V20.0233C43.8538 18.7106 43.2315 17.5531 42.2811 16.7931ZM8.93475 13.0277H39.1093L40.2317 15.9268C40.062 15.9052 39.8949 15.8748 39.7197 15.8748H7.90526C7.83726 15.8748 7.77325 15.8916 7.70604 15.8948L8.93475 13.0277ZM12.2586 31.9404C12.2586 32.8524 11.5186 33.5947 10.6099 33.5947H8.90674C7.99718 33.5947 7.25804 32.8524 7.25804 31.9404V29.9933C7.47082 30.0269 7.68447 30.0589 7.90604 30.0589H12.2594V31.9404H12.2586ZM41.0187 31.9404C41.0187 32.8524 40.2787 33.5947 39.37 33.5947H37.6669C36.7573 33.5947 36.0182 32.8524 36.0182 31.9404V30.0589H39.7204C40.1771 30.0589 40.6083 29.9661 41.0195 29.8285V31.9404H41.0187ZM42.2555 25.9111C42.2555 27.3142 41.118 28.4557 39.7188 28.4557H7.90526C6.5069 28.4557 5.36855 27.3142 5.36855 25.9111V20.0226C5.36855 18.6194 6.5069 17.4779 7.90526 17.4779H39.7196C41.118 17.4779 42.2563 18.6194 42.2563 20.0226V25.9111H42.2555ZM14.8921 25.0807H33.3176V18.4723H14.8921V25.0807ZM16.4896 20.0753H31.72V23.4775H16.4896V20.0753ZM10.6722 3.53541C10.7402 2.89063 11.2778 2.40506 11.9234 2.40506H36.5998C37.2453 2.40506 37.7837 2.89063 37.8508 3.53463L38.5213 9.90553L40.1108 9.73753L39.4404 3.36663C39.2868 1.90428 38.0653 0.802002 36.5998 0.802002H11.9234C10.4578 0.802002 9.2371 1.90436 9.08275 3.36663L8.41239 9.73753L10.002 9.90553L10.6722 3.53541ZM46.1482 7.58239H42.8027C41.7812 7.58239 40.9508 8.41596 40.9508 9.43989V10.827C40.9508 11.8517 41.782 12.6853 42.8027 12.6853H46.1482C47.1696 12.6853 48 11.8517 48 10.827V9.43989C48 8.41596 47.1696 7.58239 46.1482 7.58239ZM46.4016 10.827C46.4016 10.9678 46.2881 11.0822 46.1482 11.0822H42.8027C42.6619 11.0822 42.5483 10.9679 42.5483 10.827V9.43989C42.5483 9.2991 42.6619 9.18553 42.8027 9.18553H46.1482C46.2881 9.18553 46.4016 9.29988 46.4016 9.43989V10.827ZM7.04925 10.827V9.43989C7.04925 8.41596 6.2189 7.58239 5.19733 7.58239H1.85192C0.831137 7.58239 0 8.41596 0 9.43989V10.827C0 11.8517 0.831137 12.6853 1.85192 12.6853H5.19733C6.2189 12.6853 7.04925 11.8517 7.04925 10.827ZM1.59749 10.827V9.43989C1.59749 9.2991 1.71114 9.18553 1.85192 9.18553H5.19733C5.33733 9.18553 5.45177 9.29988 5.45177 9.43989V10.827C5.45177 10.9678 5.33812 11.0822 5.19733 11.0822H1.85192C1.71192 11.0822 1.59749 10.9678 1.59749 10.827Z" fill="#FFB50D"/>
</svg>
