<svg width="12" height="10" viewBox="0 0 12 10" fill="none" xmlns="http://www.w3.org/2000/svg">
<path d="M4.35648 9.49196C4.33941 9.49196 4.32238 9.4903 4.30563 9.48701C4.25413 9.47715 4.20679 9.45202 4.16977 9.41488L0.0770884 5.32221C0.0526486 5.29777 0.0332617 5.26876 0.0200348 5.23683C0.00680784 5.2049 0 5.17068 0 5.13612C0 5.10156 0.00680784 5.06733 0.0200348 5.0354C0.0332617 5.00347 0.0526486 4.97446 0.0770884 4.95002L1.66238 3.36474C1.71173 3.31539 1.77866 3.28766 1.84845 3.28766C1.91825 3.28766 1.98518 3.31539 2.03453 3.36474L4.35619 5.68639L9.96544 0.0770884C9.98988 0.0526486 10.0189 0.0332616 10.0508 0.0200347C10.0827 0.00680784 10.117 0 10.1515 0C10.1861 0 10.2203 0.00680784 10.2522 0.0200347C10.2842 0.0332616 10.3132 0.0526486 10.3376 0.0770884L11.9229 1.66237C11.9474 1.68681 11.9667 1.71582 11.98 1.74775C11.9932 1.77968 12 1.8139 12 1.84847C12 1.88303 11.9932 1.91725 11.98 1.94918C11.9667 1.98111 11.9474 2.01012 11.9229 2.03456L4.54258 9.41488C4.51816 9.43935 4.48915 9.45876 4.45722 9.47198C4.42528 9.48521 4.39104 9.492 4.35648 9.49196Z" fill="black"/>
</svg>
