<svg width="57" height="56" viewBox="0 0 57 56" fill="none" xmlns="http://www.w3.org/2000/svg">
<path d="M28.5074 54.6191C21.1693 55.0492 15.2557 52.4613 9.64724 46.8557C-0.770435 36.4407 -0.770435 19.5571 9.64724 9.14352C14.6723 4.11978 21.924 1.52007 28.5074 1.34302" fill="#CDE2F2"/>
<path d="M28.5081 56C21.028 56 13.9943 53.0863 8.70431 47.7992C3.41364 42.5091 0.5 35.4779 0.5 27.9989C0.5 20.5198 3.41364 13.4886 8.70431 8.20078C13.9936 2.91215 21.0265 0 28.5074 0C35.9884 0 43.0213 2.91215 48.3128 8.20078C59.2291 19.1173 59.2291 36.8812 48.3128 47.7977C43.0213 53.0863 35.9884 56 28.5081 56ZM28.5074 2.66664C21.7395 2.66664 15.3763 5.30201 10.5902 10.0862C5.8041 14.8711 3.16731 21.2326 3.16731 27.9989C3.16731 34.7652 5.8041 41.1282 10.5902 45.9123C15.3771 50.698 21.7402 53.3334 28.5081 53.3334C35.2769 53.3334 41.6401 50.698 46.4254 45.9123C56.3043 36.0345 56.3043 19.9633 46.4254 10.0862C41.64 5.30201 35.2754 2.66664 28.5074 2.66664Z" fill="#4F4F4F"/>
<path d="M28.5402 30.4795C27.8034 30.4795 27.2065 29.8828 27.2065 29.1462V14.5154C27.2065 13.7788 27.8034 13.1821 28.5402 13.1821C29.2769 13.1821 29.8738 13.7788 29.8738 14.5154V29.1462C29.8738 29.8828 29.2769 30.4795 28.5402 30.4795Z" fill="#4F4F4F"/>
<path d="M20.7453 38.8439C20.4037 38.8439 20.0628 38.7146 19.8023 38.4541C19.2814 37.9333 19.2814 37.0881 19.8023 36.5673L27.5974 28.7749C28.1183 28.2541 28.9622 28.2541 29.4832 28.7749C30.0042 29.2957 30.0042 30.1402 29.4832 30.6611L21.6882 38.4541C21.4277 38.7146 21.0868 38.8439 20.7453 38.8439Z" fill="#4F4F4F"/>
</svg>
