<svg width="32" height="32" viewBox="0 0 32 32" fill="none" xmlns="http://www.w3.org/2000/svg">
<path d="M12.0003 13.3333L16.5918 16.7769C17.0102 17.0908 17.5999 17.0291 17.9443 16.6354L26.667 6.66666" stroke="url(#paint0_linear_18_3252)" stroke-width="2" stroke-linecap="round"/>
<path d="M28 16C28 18.5073 27.2146 20.9517 25.7542 22.9897C24.2937 25.0278 22.2315 26.5572 19.8573 27.3632C17.483 28.1691 14.9159 28.2111 12.5166 27.4833C10.1172 26.7554 8.00612 25.2943 6.47976 23.3051C4.9534 21.3159 4.08846 18.8986 4.00642 16.3926C3.92439 13.8867 4.62937 11.4179 6.02236 9.33316C7.41536 7.2484 9.42638 5.65233 11.773 4.76913C14.1196 3.88592 16.6839 3.75995 19.1058 4.40889" stroke="url(#paint1_linear_18_3252)" stroke-width="2" stroke-linecap="round"/>
<defs>
<linearGradient id="paint0_linear_18_3252" x1="26.667" y1="6.66666" x2="13.8895" y2="19.2514" gradientUnits="userSpaceOnUse">
<stop stop-color="#E9277C"/>
<stop offset="0.0001" stop-color="#F03482"/>
<stop offset="1" stop-color="#FF783E"/>
</linearGradient>
<linearGradient id="paint1_linear_18_3252" x1="4" y1="4" x2="23.5001" y2="31.2233" gradientUnits="userSpaceOnUse">
<stop stop-color="#E9277C"/>
<stop offset="0.0001" stop-color="#F03482"/>
<stop offset="1" stop-color="#FF783E"/>
</linearGradient>
</defs>
</svg>
