<svg width="34" height="43" viewBox="0 0 34 43" fill="none" xmlns="http://www.w3.org/2000/svg">
<path d="M26.8438 2.36213C23.9448 2.36213 21.4712 4.14199 20.4305 6.66105L22.3797 7.18138C23.1767 5.50889 24.8699 4.34847 26.8438 4.34847C29.5817 4.34847 31.7993 6.56607 31.7993 9.29986C31.7993 12.0378 29.5817 14.2554 26.8438 14.2554C26.6745 14.2554 26.5134 14.2223 26.3482 14.2058L25.8321 16.1344C26.1665 16.1839 26.4969 16.2376 26.8438 16.2376C30.6761 16.2376 33.7815 13.128 33.7815 9.29573C33.7815 5.46759 30.6761 2.36213 26.8438 2.36213ZM21.1367 40.9533L14.9505 39.2643V24.5298L27.5376 10.0019C27.5458 10.0019 27.55 9.99777 27.5541 9.99364L27.6986 9.7789C27.7771 9.63436 27.839 9.47744 27.839 9.29986C27.839 8.75063 27.3972 8.31289 26.8479 8.31289H9.91657L3.08207 0.371664L3.0573 0.392312C2.87559 0.156925 2.60717 0 2.28919 0C1.74408 0 1.29809 0.441867 1.29809 0.986975C1.29809 1.27605 1.4261 1.53208 1.6202 1.71378L7.2984 8.31289H1.07509C0.529981 8.31289 0.0839844 8.75063 0.0839844 9.29986C0.0839844 9.60132 0.22439 9.86562 0.435 10.0473L12.9683 24.5298V39.2601L6.7822 40.9533C6.23709 41.1019 5.91498 41.6718 6.05952 42.2293C6.20818 42.7827 6.76568 43.113 7.30666 42.9644L13.9594 41.1473L20.6122 42.9644C21.1532 43.113 21.7148 42.7827 21.8594 42.2293C22.0039 41.6718 21.6818 41.1019 21.1367 40.9533ZM24.7005 10.291L18.1923 17.9225L11.6221 10.291H24.7005ZM3.21835 10.291H9.00805L16.8915 19.4504L13.9594 22.8863L3.21835 10.291Z" fill="url(#paint0_linear_83_5229)"/>
<defs>
<linearGradient id="paint0_linear_83_5229" x1="0.0839844" y1="0" x2="36.836" y2="40.2081" gradientUnits="userSpaceOnUse">
<stop stop-color="#E9277C"/>
<stop offset="0.0001" stop-color="#F03482"/>
<stop offset="1" stop-color="#FF783E"/>
</linearGradient>
</defs>
</svg>
