<svg width="34" height="43" viewBox="0 0 34 43" fill="none" xmlns="http://www.w3.org/2000/svg">
<path d="M26.7598 2.36213C23.8608 2.36213 21.3872 4.14199 20.3465 6.66105L22.2957 7.18138C23.0927 5.50889 24.7859 4.34847 26.7598 4.34847C29.4977 4.34847 31.7153 6.56607 31.7153 9.29986C31.7153 12.0378 29.4977 14.2554 26.7598 14.2554C26.5905 14.2554 26.4294 14.2223 26.2643 14.2058L25.7481 16.1344C26.0826 16.1839 26.4129 16.2376 26.7598 16.2376C30.5921 16.2376 33.6975 13.128 33.6975 9.29573C33.6975 5.46759 30.5921 2.36213 26.7598 2.36213ZM21.0527 40.9533L14.8666 39.2643V24.5298L27.4536 10.0019C27.4619 10.0019 27.466 9.99777 27.4701 9.99364L27.6146 9.7789C27.6931 9.63436 27.7551 9.47744 27.7551 9.29986C27.7551 8.75063 27.3132 8.31289 26.7639 8.31289H9.83258L2.99809 0.371664L2.97331 0.392312C2.79161 0.156925 2.52319 0 2.20521 0C1.6601 0 1.2141 0.441867 1.2141 0.986975C1.2141 1.27605 1.34212 1.53208 1.53621 1.71378L7.21441 8.31289H0.991104C0.445997 8.31289 0 8.75063 0 9.29986C0 9.60132 0.140406 9.86562 0.351016 10.0473L12.8844 24.5298V39.2601L6.69821 40.9533C6.15311 41.1019 5.831 41.6718 5.97553 42.2293C6.1242 42.7827 6.68169 43.113 7.22267 42.9644L13.8755 41.1473L20.5282 42.9644C21.0692 43.113 21.6309 42.7827 21.7754 42.2293C21.9199 41.6718 21.5978 41.1019 21.0527 40.9533ZM24.6166 10.291L18.1083 17.9225L11.5381 10.291H24.6166ZM3.13437 10.291H8.92407L16.8075 19.4504L13.8755 22.8863L3.13437 10.291Z" fill="#FFB50D"/>
</svg>
