<svg width="56" height="56" viewBox="0 0 56 56" fill="none" xmlns="http://www.w3.org/2000/svg">
<path d="M44.4064 8.03144H39.3752V6.08785C39.3752 5.7589 39.2445 5.44342 39.0119 5.21081C38.7793 4.97821 38.4638 4.84753 38.1349 4.84753C37.8059 4.84753 37.4905 4.97821 37.2579 5.21081C37.0252 5.44342 36.8946 5.7589 36.8946 6.08785V8.03144H19.236V6.08785C19.236 5.7589 19.1053 5.44342 18.8727 5.21081C18.6401 4.97821 18.3246 4.84753 17.9957 4.84753C17.6667 4.84753 17.3512 4.97821 17.1186 5.21081C16.886 5.44342 16.7554 5.7589 16.7554 6.08785V8.03144H11.7318C10.3519 8.03289 9.02888 8.58138 8.05275 9.55669C7.07662 10.532 6.52702 11.8545 6.52441 13.2344V45.9091C6.52615 47.2895 7.07537 48.6129 8.05159 49.5889C9.02782 50.565 10.3513 51.1139 11.7318 51.1153H44.4064C45.7867 51.1136 47.1099 50.5645 48.0859 49.5886C49.0619 48.6126 49.611 47.2893 49.6127 45.9091V13.2344C49.6101 11.8547 49.0606 10.5323 48.0847 9.55707C47.1089 8.5818 45.7861 8.03317 44.4064 8.03144ZM11.7318 10.5121H16.7554V12.4557C16.7554 12.7846 16.886 13.1001 17.1186 13.3327C17.3512 13.5653 17.6667 13.696 17.9957 13.696C18.3246 13.696 18.6401 13.5653 18.8727 13.3327C19.1053 13.1001 19.236 12.7846 19.236 12.4557V10.5121H36.8968V12.4557C36.8968 12.7846 37.0274 13.1001 37.26 13.3327C37.4926 13.5653 37.8081 13.696 38.1371 13.696C38.466 13.696 38.7815 13.5653 39.0141 13.3327C39.2467 13.1001 39.3774 12.7846 39.3774 12.4557V10.5121H44.4064C45.1273 10.5155 45.8176 10.8035 46.3272 11.3133C46.8368 11.8231 47.1245 12.5136 47.1277 13.2344V16.7344H9.00504V13.2344C9.00821 12.5126 9.29665 11.8214 9.80745 11.3114C10.3182 10.8014 11.01 10.5141 11.7318 10.5121ZM44.4064 48.6347H11.7318C11.0094 48.6327 10.3172 48.3449 9.80629 47.8342C9.2954 47.3236 9.00735 46.6315 9.00504 45.9091V19.215H47.1277V45.9091C47.1254 46.6305 46.8381 47.3218 46.3284 47.8323C45.8187 48.3428 45.1279 48.6313 44.4064 48.6347Z" fill="#FFB50D"/>
<path d="M19.633 23.0508H13.17C13.0072 23.0506 12.8459 23.0826 12.6954 23.1448C12.545 23.207 12.4082 23.2983 12.293 23.4134C12.1778 23.5284 12.0865 23.6651 12.0241 23.8155C11.9618 23.9659 11.9297 24.1272 11.9297 24.29V30.7541C11.9297 31.083 12.0604 31.3985 12.293 31.6311C12.5256 31.8637 12.841 31.9944 13.17 31.9944H19.633C19.9619 31.9944 20.2774 31.8637 20.51 31.6311C20.7426 31.3985 20.8733 31.083 20.8733 30.7541V24.29C20.873 23.9612 20.7422 23.646 20.5096 23.4137C20.277 23.1813 19.9617 23.0508 19.633 23.0508ZM18.3927 29.5137H14.4103V25.5303H18.3927V29.5137Z" fill="#FFB50D"/>
<path d="M31.1886 23.0508H24.7257C24.3969 23.0508 24.0816 23.1813 23.849 23.4137C23.6164 23.646 23.4856 23.9612 23.4854 24.29V30.7541C23.4854 31.083 23.616 31.3985 23.8486 31.6311C24.0812 31.8637 24.3967 31.9944 24.7257 31.9944H31.1886C31.5176 31.9944 31.8331 31.8637 32.0657 31.6311C32.2983 31.3985 32.4289 31.083 32.4289 30.7541V24.29C32.4289 24.1272 32.3969 23.9659 32.3345 23.8155C32.2722 23.6651 32.1808 23.5284 32.0656 23.4134C31.9504 23.2983 31.8137 23.207 31.6632 23.1448C31.5127 23.0826 31.3515 23.0506 31.1886 23.0508ZM29.9494 29.5137H25.966V25.5303H29.9494V29.5137Z" fill="#FFB50D"/>
<path d="M42.8302 23.0508H36.3673C36.0385 23.0508 35.7232 23.1813 35.4906 23.4137C35.258 23.646 35.1272 23.9612 35.127 24.29V30.7541C35.127 31.083 35.2576 31.3985 35.4902 31.6311C35.7228 31.8637 36.0383 31.9944 36.3673 31.9944H42.8302C43.1592 31.9944 43.4747 31.8637 43.7073 31.6311C43.9399 31.3985 44.0705 31.083 44.0705 30.7541V24.29C44.0705 24.1272 44.0385 23.9659 43.9761 23.8155C43.9138 23.6651 43.8224 23.5284 43.7072 23.4134C43.592 23.2983 43.4553 23.207 43.3048 23.1448C43.1543 23.0826 42.9931 23.0506 42.8302 23.0508ZM41.591 29.5137H37.6076V25.5303H41.591V29.5137Z" fill="#FFB50D"/>
<path d="M19.633 35.7339H13.17C12.841 35.7339 12.5256 35.8646 12.293 36.0972C12.0604 36.3298 11.9297 36.6452 11.9297 36.9742V43.4372C11.9297 43.7661 12.0604 44.0816 12.293 44.3142C12.5256 44.5468 12.841 44.6775 13.17 44.6775H19.633C19.9619 44.6775 20.2774 44.5468 20.51 44.3142C20.7426 44.0816 20.8733 43.7661 20.8733 43.4372V36.9742C20.8733 36.8113 20.8412 36.65 20.7789 36.4996C20.7165 36.3491 20.6252 36.2123 20.51 36.0972C20.3948 35.982 20.2581 35.8906 20.1076 35.8283C19.9571 35.766 19.7958 35.7339 19.633 35.7339ZM18.3927 42.1969H14.4103V38.2145H18.3927V42.1969Z" fill="#FFB50D"/>
<path d="M31.1886 35.7339H24.7257C24.3967 35.7339 24.0812 35.8646 23.8486 36.0972C23.616 36.3298 23.4854 36.6452 23.4854 36.9742V43.4372C23.4854 43.7661 23.616 44.0816 23.8486 44.3142C24.0812 44.5468 24.3967 44.6775 24.7257 44.6775H31.1886C31.5176 44.6775 31.8331 44.5468 32.0657 44.3142C32.2983 44.0816 32.4289 43.7661 32.4289 43.4372V36.9742C32.4289 36.6452 32.2983 36.3298 32.0657 36.0972C31.8331 35.8646 31.5176 35.7339 31.1886 35.7339ZM29.9494 42.1969H25.966V38.2145H29.9494V42.1969Z" fill="#FFB50D"/>
<path d="M42.8302 35.7339H36.3673C36.0383 35.7339 35.7228 35.8646 35.4902 36.0972C35.2576 36.3298 35.127 36.6452 35.127 36.9742V43.4372C35.127 43.7661 35.2576 44.0816 35.4902 44.3142C35.7228 44.5468 36.0383 44.6775 36.3673 44.6775H42.8302C43.1592 44.6775 43.4747 44.5468 43.7073 44.3142C43.9399 44.0816 44.0705 43.7661 44.0705 43.4372V36.9742C44.0705 36.8113 44.0385 36.65 43.9761 36.4996C43.9138 36.3491 43.8224 36.2123 43.7073 36.0972C43.5921 35.982 43.4554 35.8906 43.3049 35.8283C43.1544 35.766 42.9931 35.7339 42.8302 35.7339ZM41.591 42.1969H37.6076V38.2145H41.591V42.1969Z" fill="#FFB50D"/>
</svg>
