<svg width="44" height="48" viewBox="0 0 44 48" fill="none" xmlns="http://www.w3.org/2000/svg">
<path d="M38.4064 4.03144H33.3752V2.08785C33.3752 1.7589 33.2445 1.44342 33.0119 1.21081C32.7793 0.97821 32.4638 0.847534 32.1349 0.847534C31.8059 0.847534 31.4905 0.97821 31.2579 1.21081C31.0252 1.44342 30.8946 1.7589 30.8946 2.08785V4.03144H13.236V2.08785C13.236 1.7589 13.1053 1.44342 12.8727 1.21081C12.6401 0.97821 12.3246 0.847534 11.9957 0.847534C11.6667 0.847534 11.3512 0.97821 11.1186 1.21081C10.886 1.44342 10.7554 1.7589 10.7554 2.08785V4.03144H5.73176C4.35189 4.03289 3.02888 4.58138 2.05275 5.55669C1.07662 6.53199 0.527019 7.85454 0.524414 9.23441V41.9091C0.526151 43.2895 1.07537 44.6129 2.05159 45.5889C3.02782 46.565 4.35132 47.1139 5.73176 47.1153H38.4064C39.7867 47.1136 41.1099 46.5645 42.0859 45.5886C43.0619 44.6126 43.611 43.2893 43.6127 41.9091V9.23441C43.6101 7.85473 43.0606 6.53235 42.0847 5.55707C41.1089 4.5818 39.7861 4.03317 38.4064 4.03144ZM5.73176 6.51207H10.7554V8.45566C10.7554 8.78461 10.886 9.10009 11.1186 9.33269C11.3512 9.5653 11.6667 9.69597 11.9957 9.69597C12.3246 9.69597 12.6401 9.5653 12.8727 9.33269C13.1053 9.10009 13.236 8.78461 13.236 8.45566V6.51207H30.8968V8.45566C30.8968 8.78461 31.0274 9.10009 31.26 9.33269C31.4926 9.5653 31.8081 9.69597 32.1371 9.69597C32.466 9.69597 32.7815 9.5653 33.0141 9.33269C33.2467 9.10009 33.3774 8.78461 33.3774 8.45566V6.51207H38.4064C39.1273 6.51552 39.8176 6.80348 40.3272 7.3133C40.8368 7.82313 41.1245 8.51356 41.1277 9.23441V12.7344H3.00504V9.23441C3.00821 8.51262 3.29665 7.82136 3.80745 7.31138C4.31824 6.8014 5.00996 6.51408 5.73176 6.51207ZM38.4064 44.6347H5.73176C5.0094 44.6327 4.31718 44.3449 3.80629 43.8342C3.2954 43.3236 3.00735 42.6315 3.00504 41.9091V15.215H41.1277V41.9091C41.1254 42.6305 40.8381 43.3218 40.3284 43.8323C39.8187 44.3428 39.1279 44.6313 38.4064 44.6347Z" fill="url(#paint0_linear_4_8538)"/>
<path d="M13.633 19.0508H7.17C7.00717 19.0506 6.84591 19.0826 6.69544 19.1448C6.54496 19.207 6.40822 19.2983 6.29303 19.4134C6.17784 19.5284 6.08647 19.6651 6.02412 19.8155C5.96178 19.9659 5.92969 20.1272 5.92969 20.29V26.7541C5.92969 27.083 6.06036 27.3985 6.29297 27.6311C6.52557 27.8637 6.84105 27.9944 7.17 27.9944H13.633C13.9619 27.9944 14.2774 27.8637 14.51 27.6311C14.7426 27.3985 14.8733 27.083 14.8733 26.7541V20.29C14.873 19.9612 14.7422 19.646 14.5096 19.4137C14.277 19.1813 13.9617 19.0508 13.633 19.0508ZM12.3927 25.5137H8.41031V21.5303H12.3927V25.5137Z" fill="url(#paint1_linear_4_8538)"/>
<path d="M25.1881 19.0508H18.7252C18.3964 19.0508 18.0811 19.1813 17.8485 19.4137C17.616 19.646 17.4852 19.9612 17.4849 20.29V26.7541C17.4849 27.083 17.6155 27.3985 17.8481 27.6311C18.0807 27.8637 18.3962 27.9944 18.7252 27.9944H25.1881C25.5171 27.9944 25.8326 27.8637 26.0652 27.6311C26.2978 27.3985 26.4285 27.083 26.4285 26.7541V20.29C26.4285 20.1272 26.3964 19.9659 26.334 19.8155C26.2717 19.6651 26.1803 19.5284 26.0651 19.4134C25.9499 19.2983 25.8132 19.207 25.6627 19.1448C25.5122 19.0826 25.351 19.0506 25.1881 19.0508ZM23.9489 25.5137H19.9655V21.5303H23.9489V25.5137Z" fill="url(#paint2_linear_4_8538)"/>
<path d="M36.8302 19.0508H30.3673C30.0385 19.0508 29.7232 19.1813 29.4906 19.4137C29.258 19.646 29.1272 19.9612 29.127 20.29V26.7541C29.127 27.083 29.2576 27.3985 29.4902 27.6311C29.7228 27.8637 30.0383 27.9944 30.3673 27.9944H36.8302C37.1592 27.9944 37.4747 27.8637 37.7073 27.6311C37.9399 27.3985 38.0705 27.083 38.0705 26.7541V20.29C38.0705 20.1272 38.0385 19.9659 37.9761 19.8155C37.9138 19.6651 37.8224 19.5284 37.7072 19.4134C37.592 19.2983 37.4553 19.207 37.3048 19.1448C37.1543 19.0826 36.9931 19.0506 36.8302 19.0508ZM35.591 25.5137H31.6076V21.5303H35.591V25.5137Z" fill="url(#paint3_linear_4_8538)"/>
<path d="M13.633 31.7339H7.17C6.84105 31.7339 6.52557 31.8646 6.29297 32.0972C6.06036 32.3298 5.92969 32.6452 5.92969 32.9742V39.4372C5.92969 39.7661 6.06036 40.0816 6.29297 40.3142C6.52557 40.5468 6.84105 40.6775 7.17 40.6775H13.633C13.9619 40.6775 14.2774 40.5468 14.51 40.3142C14.7426 40.0816 14.8733 39.7661 14.8733 39.4372V32.9742C14.8733 32.8113 14.8412 32.65 14.7789 32.4996C14.7165 32.3491 14.6252 32.2123 14.51 32.0972C14.3948 31.982 14.2581 31.8906 14.1076 31.8283C13.9571 31.766 13.7958 31.7339 13.633 31.7339ZM12.3927 38.1969H8.41031V34.2145H12.3927V38.1969Z" fill="url(#paint4_linear_4_8538)"/>
<path d="M25.1881 31.7339H18.7252C18.3962 31.7339 18.0807 31.8646 17.8481 32.0972C17.6155 32.3298 17.4849 32.6452 17.4849 32.9742V39.4372C17.4849 39.7661 17.6155 40.0816 17.8481 40.3142C18.0807 40.5468 18.3962 40.6775 18.7252 40.6775H25.1881C25.5171 40.6775 25.8326 40.5468 26.0652 40.3142C26.2978 40.0816 26.4285 39.7661 26.4285 39.4372V32.9742C26.4285 32.6452 26.2978 32.3298 26.0652 32.0972C25.8326 31.8646 25.5171 31.7339 25.1881 31.7339ZM23.9489 38.1969H19.9655V34.2145H23.9489V38.1969Z" fill="url(#paint5_linear_4_8538)"/>
<path d="M36.8302 31.7339H30.3673C30.0383 31.7339 29.7228 31.8646 29.4902 32.0972C29.2576 32.3298 29.127 32.6452 29.127 32.9742V39.4372C29.127 39.7661 29.2576 40.0816 29.4902 40.3142C29.7228 40.5468 30.0383 40.6775 30.3673 40.6775H36.8302C37.1592 40.6775 37.4747 40.5468 37.7073 40.3142C37.9399 40.0816 38.0705 39.7661 38.0705 39.4372V32.9742C38.0705 32.8113 38.0385 32.65 37.9761 32.4996C37.9138 32.3491 37.8224 32.2123 37.7073 32.0972C37.5921 31.982 37.4554 31.8906 37.3049 31.8283C37.1544 31.766 36.9931 31.7339 36.8302 31.7339ZM35.591 38.1969H31.6076V34.2145H35.591V38.1969Z" fill="url(#paint6_linear_4_8538)"/>
<defs>
<linearGradient id="paint0_linear_4_8538" x1="0.524414" y1="0.847534" x2="38.8999" y2="50.7402" gradientUnits="userSpaceOnUse">
<stop stop-color="#E9277C"/>
<stop offset="0.0001" stop-color="#F03482"/>
<stop offset="1" stop-color="#FF783E"/>
</linearGradient>
<linearGradient id="paint1_linear_4_8538" x1="5.92969" y1="19.0508" x2="13.1964" y2="29.1955" gradientUnits="userSpaceOnUse">
<stop stop-color="#E9277C"/>
<stop offset="0.0001" stop-color="#F03482"/>
<stop offset="1" stop-color="#FF783E"/>
</linearGradient>
<linearGradient id="paint2_linear_4_8538" x1="17.4849" y1="19.0508" x2="24.7516" y2="29.1955" gradientUnits="userSpaceOnUse">
<stop stop-color="#E9277C"/>
<stop offset="0.0001" stop-color="#F03482"/>
<stop offset="1" stop-color="#FF783E"/>
</linearGradient>
<linearGradient id="paint3_linear_4_8538" x1="29.127" y1="19.0508" x2="36.3937" y2="29.1955" gradientUnits="userSpaceOnUse">
<stop stop-color="#E9277C"/>
<stop offset="0.0001" stop-color="#F03482"/>
<stop offset="1" stop-color="#FF783E"/>
</linearGradient>
<linearGradient id="paint4_linear_4_8538" x1="5.92969" y1="31.7339" x2="13.1964" y2="41.8786" gradientUnits="userSpaceOnUse">
<stop stop-color="#E9277C"/>
<stop offset="0.0001" stop-color="#F03482"/>
<stop offset="1" stop-color="#FF783E"/>
</linearGradient>
<linearGradient id="paint5_linear_4_8538" x1="17.4849" y1="31.7339" x2="24.7516" y2="41.8786" gradientUnits="userSpaceOnUse">
<stop stop-color="#E9277C"/>
<stop offset="0.0001" stop-color="#F03482"/>
<stop offset="1" stop-color="#FF783E"/>
</linearGradient>
<linearGradient id="paint6_linear_4_8538" x1="29.127" y1="31.7339" x2="36.3937" y2="41.8786" gradientUnits="userSpaceOnUse">
<stop stop-color="#E9277C"/>
<stop offset="0.0001" stop-color="#F03482"/>
<stop offset="1" stop-color="#FF783E"/>
</linearGradient>
</defs>
</svg>
