<svg width="49" height="34" viewBox="0 0 49 34" fill="none" xmlns="http://www.w3.org/2000/svg">
<path d="M10.3268 26.0441C3.86956 22.1638 0.916016 17 0.916016 17C0.916016 17 8.29987 4.07579 24.9111 4.07579C27.3145 4.07579 29.5248 4.25918 31.5518 4.80935L30.0749 6.28612C28.4149 6.10273 26.7546 5.91934 24.911 5.91934C10.1433 5.91934 3.12625 17 3.12625 17C3.12625 17 5.8964 21.4303 11.6201 24.7506L10.3268 26.0441ZM17.5273 17C17.5273 17.5501 17.5273 18.1099 17.7107 18.6601L19.3708 17C19.3708 15.5232 19.921 14.2298 21.031 13.1198C22.141 12.0098 23.6178 11.4596 24.9111 11.4596L26.5714 9.79948C26.0211 9.61609 25.4614 9.61609 24.9111 9.61609C20.8476 9.61609 17.5273 12.9364 17.5273 17ZM39.4954 7.95593L38.2022 9.24931C43.9258 12.5696 46.696 17 46.696 17C46.696 17 39.6789 28.0806 24.9111 28.0806C23.0676 28.0806 21.4074 27.8973 19.7473 27.7138L18.2705 29.1906C20.2974 29.7407 22.5174 29.9242 24.9208 29.9242C41.5322 29.9242 48.916 17 48.916 17C48.916 17 45.9527 11.8361 39.4954 7.95593ZM39.6596 0.427292L8.33848 31.7484L10.1627 33.5726L41.4935 2.24189L39.6596 0.427292ZM28.7914 20.8802C27.6814 21.9902 26.388 22.5404 24.9111 22.5404L23.251 24.2004C23.8011 24.3838 24.361 24.3838 24.9111 24.3838C28.9746 24.3838 32.295 21.0635 32.295 17C32.295 16.4498 32.295 15.89 32.1116 15.3398L30.4514 17C30.4514 18.4767 29.8915 19.7702 28.7914 20.8802Z" fill="url(#paint0_linear_83_5213)"/>
<defs>
<linearGradient id="paint0_linear_83_5213" x1="0.916016" y1="0.427292" x2="23.5231" y2="46.1326" gradientUnits="userSpaceOnUse">
<stop stop-color="#E9277C"/>
<stop offset="0.0001" stop-color="#F03482"/>
<stop offset="1" stop-color="#FF783E"/>
</linearGradient>
</defs>
</svg>
