<svg width="61" height="56" viewBox="0 0 61 56" fill="none" xmlns="http://www.w3.org/2000/svg">
<path d="M35.0022 42.5046C35.0022 49.2821 40.5464 54.7785 47.3844 54.7785C54.2248 54.7785 59.7677 49.2821 59.7677 42.5046C59.7677 35.7246 54.2248 30.2306 47.3844 30.2306C40.5464 30.2306 35.0022 35.7246 35.0022 42.5046Z" fill="#CDE2F2"/>
<path d="M1.23242 42.5046C1.23242 49.2821 6.77606 54.7785 13.6152 54.7785C20.4538 54.7785 25.9986 49.2821 25.9986 42.5046C25.9986 35.7246 20.4538 30.2306 13.6152 30.2306C6.77606 30.2306 1.23242 35.7246 1.23242 42.5046Z" fill="#CDE2F2"/>
<path d="M56.3896 0V2.44288C57.5727 2.44288 58.5353 3.39711 58.5353 4.56966V34.7835C56.0707 31.2981 51.9959 29.0091 47.3843 29.0091C41.9279 29.0091 37.2224 32.2154 35.0538 36.8209H25.9474C23.7776 32.2154 19.0727 29.0091 13.6151 29.0091C9.00414 29.0091 4.9287 31.2981 2.46465 34.7835V4.56966C2.46465 3.39711 3.4268 2.44288 4.60918 2.44288V0C2.0675 0 0 2.05044 0 4.56966V42.5046C0 49.9465 6.10746 56 13.6151 56C21.1228 56 27.2309 49.9465 27.2309 42.5046C27.2309 41.3857 27.0774 40.3039 26.8175 39.2638H34.1825C33.9226 40.3039 33.7698 41.3857 33.7698 42.5046C33.7698 49.9465 39.8772 56 47.3843 56C54.8926 56 61 49.9465 61 42.5046V4.56966C61 2.05044 58.9325 0 56.3896 0ZM13.6151 53.5572C7.46676 53.5572 2.46465 48.5987 2.46465 42.5046C2.46465 36.4105 7.46676 31.452 13.6151 31.452C19.7641 31.452 24.7662 36.4105 24.7662 42.5046C24.7662 48.5987 19.7641 53.5572 13.6151 53.5572ZM47.3843 53.5572C41.2371 53.5572 36.2344 48.5987 36.2344 42.5046C36.2344 36.4105 41.2371 31.452 47.3843 31.452C53.5339 31.452 58.5353 36.4105 58.5353 42.5046C58.5353 48.5987 53.5339 53.5572 47.3843 53.5572Z" fill="#4F4F4F"/>
<path d="M47.3843 34.5891V37.032C50.4302 37.032 52.9081 39.4868 52.9081 42.5046H55.3727C55.3727 38.1401 51.7889 34.5891 47.3843 34.5891Z" fill="#4F4F4F"/>
<path d="M13.6152 34.5891V37.032C16.6593 37.032 19.1354 39.4868 19.1354 42.5046H21.6001C21.6001 38.1401 18.018 34.5891 13.6152 34.5891Z" fill="#4F4F4F"/>
</svg>
