<svg width="79" height="50" viewBox="0 0 79 50" fill="none" xmlns="http://www.w3.org/2000/svg">
<path d="M77.1562 48.641H65.703C65.703 40.0257 61.4661 32.0354 54.6917 27.1481C57.048 23.9316 58.3734 19.999 58.3734 15.8391C58.3734 14.2922 58.1808 12.7805 57.8297 11.3382C58.498 11.212 59.1891 11.145 59.9028 11.145C66.2241 11.145 71.3446 16.2812 71.3446 22.6347C71.3446 26.7617 69.1695 30.376 65.9182 32.3992C72.4775 34.853 77.1562 41.1952 77.1562 48.641Z" fill="#CDE2F2"/>
<path d="M61.1149 48.641H17.5793C17.5793 39.2516 23.4815 31.2501 31.7627 28.1585C27.6504 25.6126 24.9089 21.0446 24.9089 15.8391C24.9089 7.8375 31.3775 1.35781 39.3528 1.35781C47.3168 1.35781 53.7854 7.8375 53.7854 15.8391C53.7854 21.0446 51.0439 25.6126 46.9316 28.1585C55.2128 31.2501 61.1149 39.2516 61.1149 48.641Z" fill="#CDE2F2"/>
<path d="M20.3322 15.8386C20.3322 19.9985 21.6463 23.9311 24.014 27.1476C17.2395 32.035 12.9913 40.0252 12.9913 48.6405H1.84399C1.84399 41.1959 6.52268 34.8526 13.0932 32.3987C9.83062 30.3755 7.65554 26.7612 7.65554 22.6342C7.65554 16.2819 12.7874 11.1445 19.1087 11.1445C19.7091 11.1445 20.3095 11.1899 20.8873 11.2809C20.5248 12.7471 20.3322 14.2701 20.3322 15.8386Z" fill="#CDE2F2"/>
<path d="M12.9913 48.6409H1.84399C1.84399 41.1951 6.52268 34.8529 13.0932 32.399C9.83062 30.3759 7.65554 26.7616 7.65554 22.6346C7.65554 16.2811 12.7874 11.1448 19.1087 11.1448C19.7091 11.1448 20.3095 11.1903 20.8873 11.2812C20.5248 12.7474 20.3322 14.2705 20.3322 15.839C20.3322 19.9989 21.6463 23.9315 24.014 27.148C17.2395 32.0353 12.9913 40.0255 12.9913 48.6409Z" stroke="#4F4F4F" stroke-width="2" stroke-miterlimit="10" stroke-linecap="round" stroke-linejoin="round"/>
<path d="M65.918 32.3992C69.1693 30.376 71.3444 26.7617 71.3444 22.6347C71.3444 16.2812 66.2239 11.145 59.9025 11.145C59.1888 11.145 58.4978 11.212 57.8294 11.3382C58.1806 12.7805 58.3732 14.2922 58.3732 15.8391C58.3732 19.999 57.0477 23.9316 54.6914 27.1481C61.4659 32.0354 65.7028 40.0257 65.7028 48.641H77.1559C77.1559 41.1952 72.4772 34.853 65.918 32.3992Z" stroke="#4F4F4F" stroke-width="2" stroke-miterlimit="10" stroke-linecap="round" stroke-linejoin="round"/>
<path d="M46.9316 28.1592C51.0439 25.6132 53.7854 21.0441 53.7854 15.8385C53.7854 7.83697 47.3168 1.35843 39.3528 1.35843C31.3775 1.35843 24.9089 7.83697 24.9089 15.8385C24.9089 21.0441 27.6504 25.6132 31.7627 28.1592C23.4815 31.2507 17.5793 39.2523 17.5793 48.6416H61.1149C61.1149 39.2523 55.2128 31.2507 46.9316 28.1592Z" stroke="#4F4F4F" stroke-width="2" stroke-miterlimit="10" stroke-linecap="round" stroke-linejoin="round"/>
</svg>
