<svg width="56" height="43" viewBox="0 0 56 43" fill="none" xmlns="http://www.w3.org/2000/svg">
<path d="M8.96048 20.0667C11.4347 20.0667 13.4405 18.0702 13.4405 15.6075C13.4405 13.1447 11.4347 11.1482 8.96048 11.1482C6.48624 11.1482 4.48047 13.1447 4.48047 15.6075C4.48047 18.0702 6.48624 20.0667 8.96048 20.0667Z" stroke="#FFB50D" stroke-width="2" stroke-miterlimit="10"/>
<path d="M13.2798 37.5852H4.15977C2.71977 37.5852 1.75977 36.4704 1.75977 35.0371V30.5778C1.75977 27.0741 4.47975 24.3667 7.99975 24.3667H13.5997" stroke="#FFB50D" stroke-width="2" stroke-miterlimit="10"/>
<path d="M28.1591 15.9259C32.0473 15.9259 35.1991 12.7886 35.1991 8.91854C35.1991 5.04846 32.0473 1.91113 28.1591 1.91113C24.2711 1.91113 21.1191 5.04846 21.1191 8.91854C21.1191 12.7886 24.2711 15.9259 28.1591 15.9259Z" stroke="#FFB50D" stroke-width="2" stroke-miterlimit="10"/>
<path d="M38.5591 40.1334H17.1191C14.8791 40.1334 13.1191 38.3815 13.1191 36.1519V29.3038C13.1191 23.8889 17.7591 19.4297 23.3591 19.4297H32.4791C38.0791 19.4297 42.7191 23.8889 42.7191 29.3038V36.1519C42.5591 38.3815 40.7991 40.1334 38.5591 40.1334Z" stroke="#FFB50D" stroke-width="2" stroke-miterlimit="10"/>
<path d="M46.3999 20.0667C48.8742 20.0667 50.8799 18.0702 50.8799 15.6075C50.8799 13.1447 48.8742 11.1482 46.3999 11.1482C43.9257 11.1482 41.9199 13.1447 41.9199 15.6075C41.9199 18.0702 43.9257 20.0667 46.3999 20.0667Z" stroke="#FFB50D" stroke-width="2" stroke-miterlimit="10"/>
<path d="M42.0798 37.5852H51.1998C52.6398 37.5852 53.5998 36.4704 53.5998 35.0371V30.5778C53.5998 27.0741 50.8798 24.3667 47.3598 24.3667H41.7598" stroke="#FFB50D" stroke-width="2" stroke-miterlimit="10"/>
</svg>
