<svg width="54" height="36" viewBox="0 0 54 36" fill="none" xmlns="http://www.w3.org/2000/svg">
<path d="M53.2006 12.3976L47.8209 2.09529C47.5001 1.48749 46.9547 1.02896 46.3008 0.817342C45.6469 0.605728 44.9362 0.657753 44.3201 0.962337L39.0427 3.6009H35.0633L27.6731 0.25706C27.1022 -0.000847897 26.458 -0.0464159 25.8564 0.128564L14.8801 3.32852L9.67855 0.727885C9.06243 0.423409 8.35181 0.37143 7.69795 0.583013C7.04409 0.794596 6.49863 1.25303 6.17769 1.86073L0.798024 12.1632C0.636707 12.4722 0.538548 12.8103 0.509274 13.1576C0.48 13.505 0.520196 13.8547 0.627519 14.1864C0.734841 14.518 0.90714 14.825 1.13436 15.0893C1.36158 15.3537 1.63918 15.5701 1.95095 15.726L7.27966 18.3904L19.1675 27.686C19.4568 27.9131 19.7909 28.0763 20.1478 28.165L32.8259 31.3345C33.0321 31.3859 33.2439 31.4119 33.4565 31.4118C34.1543 31.4121 34.8238 31.1361 35.3186 30.6441L43.368 22.5947C43.3842 22.5785 43.3996 22.5618 43.4145 22.5445L46.7994 18.5846L52.0477 15.9605C52.3594 15.8046 52.637 15.5881 52.8643 15.3237C53.0915 15.0594 53.2638 14.7524 53.3711 14.4208C53.4784 14.0891 53.5186 13.7394 53.4894 13.392C53.4601 13.0447 53.3619 12.7066 53.2006 12.3976L53.2006 12.3976ZM42.6098 20.7925L33.6389 14.2683C33.4876 14.1582 33.305 14.0996 33.1178 14.101C32.9307 14.1023 32.749 14.1636 32.5992 14.2759L29.7993 16.3759C28.737 17.1662 27.4483 17.5931 26.1243 17.5931C24.8003 17.5931 23.5116 17.1662 22.4494 16.3759L21.2635 15.4866C21.1633 15.4114 21.0803 15.3155 21.0203 15.2054C20.9603 15.0954 20.9247 14.9737 20.9158 14.8487C20.9069 14.7236 20.9249 14.5982 20.9688 14.4807C21.0126 14.3633 21.0811 14.2566 21.1698 14.168L29.7305 5.60725C29.8949 5.44372 30.1172 5.35161 30.3491 5.3509H34.8719L34.8739 5.35112L34.8769 5.3509H38.7191L45.2 17.7623L42.6098 20.7925ZM2.29253 13.6476C2.25637 13.5371 2.24277 13.4205 2.25253 13.3046C2.26229 13.1888 2.29522 13.0761 2.34935 12.9732L7.72902 2.67068C7.80377 2.52889 7.91587 2.41025 8.05319 2.32759C8.19051 2.24492 8.34782 2.20138 8.50811 2.20168C8.6427 2.20156 8.77547 2.23287 8.89583 2.29312L13.5616 4.62588L7.37163 16.4798L2.73366 14.1608C2.62952 14.1092 2.53681 14.0371 2.46103 13.949C2.38526 13.8608 2.32796 13.7583 2.29253 13.6476ZM34.0813 29.4066C33.9743 29.5132 33.8415 29.5903 33.6959 29.6306C33.5503 29.6709 33.3968 29.673 33.2501 29.6366L20.572 26.4671C20.4531 26.4376 20.3418 26.3832 20.2454 26.3075L8.86209 17.4064L15.3297 5.0203L26.3461 1.80872C26.5466 1.75023 26.7614 1.76539 26.9517 1.85144L30.8179 3.60091H30.3491C30.0043 3.59996 29.6627 3.66743 29.3441 3.7994C29.0256 3.93137 28.7363 4.12522 28.4932 4.36974L19.9325 12.9305C19.6665 13.1964 19.4608 13.5163 19.3292 13.8687C19.1977 14.221 19.1434 14.5975 19.17 14.9727C19.1967 15.3478 19.3036 15.7129 19.4836 16.0431C19.6636 16.3733 19.9125 16.661 20.2134 16.8867L21.3992 17.776C22.765 18.7921 24.422 19.3408 26.1243 19.3408C27.8266 19.3408 29.4836 18.7921 30.8494 17.776L33.1322 16.0637L41.4066 22.0813L34.0813 29.4066ZM51.7061 13.882C51.6707 13.9928 51.6134 14.0952 51.5376 14.1834C51.4618 14.2716 51.3691 14.3436 51.265 14.3953L46.627 16.7143L40.4371 4.86032L45.1028 2.52755C45.3081 2.42596 45.545 2.40859 45.763 2.47914C45.981 2.5497 46.1628 2.70259 46.2696 2.90524L51.6493 13.2075C51.7034 13.3104 51.7363 13.4232 51.7461 13.539C51.7559 13.6549 51.7423 13.7715 51.7061 13.882V13.882ZM24.3483 35.313C24.3205 35.4246 24.271 35.5295 24.2026 35.6219C24.1343 35.7143 24.0483 35.7923 23.9498 35.8515C23.8512 35.9106 23.742 35.9498 23.6283 35.9666C23.5146 35.9835 23.3987 35.9778 23.2872 35.9498L16.6941 34.3017C16.2929 34.2009 15.921 34.0071 15.6085 33.7361L10.6753 29.4478C10.5883 29.3725 10.5169 29.2808 10.4654 29.1779C10.4139 29.075 10.3831 28.963 10.375 28.8482C10.3668 28.7334 10.3813 28.6181 10.4178 28.509C10.4542 28.3998 10.5119 28.2989 10.5874 28.212C10.6629 28.1252 10.7547 28.0541 10.8578 28.0028C10.9608 27.9515 11.0729 27.9211 11.1877 27.9132C11.3025 27.9053 11.4178 27.9201 11.5268 27.9569C11.6359 27.9936 11.7367 28.0515 11.8233 28.1272L16.7567 32.4155C16.8611 32.5058 16.9852 32.5704 17.119 32.6041L23.7114 34.252C23.9366 34.3083 24.1301 34.4517 24.2495 34.6507C24.369 34.8496 24.4045 35.0879 24.3483 35.313Z" fill="#FFB50D"/>
</svg>
