<svg width="34" height="44" viewBox="0 0 34 44" fill="none" xmlns="http://www.w3.org/2000/svg">
<path d="M17 44C17 44 33.5 28.3635 33.5 16.5C33.5 12.1239 31.7616 7.92709 28.6673 4.83274C25.5729 1.73839 21.3761 0 17 0C12.6239 0 8.42709 1.73839 5.33274 4.83274C2.23839 7.92709 0.5 12.1239 0.5 16.5C0.5 28.3635 17 44 17 44ZM17 24.75C14.812 24.75 12.7135 23.8808 11.1664 22.3336C9.61919 20.7865 8.75 18.688 8.75 16.5C8.75 14.312 9.61919 12.2135 11.1664 10.6664C12.7135 9.11919 14.812 8.25 17 8.25C19.188 8.25 21.2865 9.11919 22.8336 10.6664C24.3808 12.2135 25.25 14.312 25.25 16.5C25.25 18.688 24.3808 20.7865 22.8336 22.3336C21.2865 23.8808 19.188 24.75 17 24.75Z" fill="#FFB50D"/>
</svg>
