<svg width="120" height="42" viewBox="0 0 120 42" fill="none" xmlns="http://www.w3.org/2000/svg">
<path d="M45.8988 10.4015C45.8988 16.1539 41.2378 20.803 35.4709 20.803C29.7039 20.803 25.043 16.1539 25.043 10.4015C25.043 4.64916 29.7039 0 35.4709 0C41.2378 0 45.8988 4.64916 45.8988 10.4015Z" fill="#FFB50D"/>
<path d="M38.8674 18.7541C38.7094 18.6753 38.6304 18.5177 38.6304 18.3601C38.6304 18.2025 38.6304 18.0449 38.6304 17.9661C38.6304 17.6509 38.7094 17.2569 38.7094 16.9417C38.7094 16.7053 38.8674 16.5477 38.9464 16.3901C39.2624 15.9173 39.4204 15.3657 39.4204 14.8141C39.4204 14.0261 39.4204 13.2381 39.4204 12.4502V12.135C39.4204 11.741 39.4994 11.347 39.6574 11.0318C39.9734 10.3226 40.2894 9.61337 40.6054 8.90418L41.2374 7.56459C41.3164 7.40699 41.3164 7.24939 41.3164 7.0918C41.2374 6.8554 41.0794 6.7766 40.9214 6.7766H40.8424C40.6844 6.7766 40.5264 6.8554 40.3684 7.0918L38.4724 10.4802C38.3934 10.6378 38.3144 10.7166 38.1564 10.7166H38.0774C37.9194 10.6378 37.8404 10.4802 37.9194 10.2438L38.7884 6.1462C38.8674 5.6734 39.0254 5.20061 39.1044 4.72781C39.1834 4.41261 39.0254 4.17621 38.7094 4.09741C38.6304 4.09741 38.6304 4.09741 38.5514 4.09741C38.3144 4.09741 38.1564 4.25501 38.0774 4.49141C37.7614 5.831 36.6554 10.4014 36.6554 10.4014C36.5764 10.6378 36.4975 10.7166 36.3395 10.7166C36.3395 10.7166 36.3394 10.7166 36.2604 10.7166C36.1024 10.7166 36.0234 10.559 36.0234 10.3226V3.62462C36.0234 3.54582 36.0234 3.46702 36.0234 3.38822C36.0234 3.15182 35.7865 2.91542 35.5495 2.91542C35.3125 2.91542 35.0754 3.15182 35.0754 3.38822C35.0754 3.46702 35.0754 3.54582 35.0754 3.62462V10.2438C35.0754 10.3226 35.0754 10.3226 35.0754 10.4014C35.0754 10.559 34.9175 10.7166 34.7595 10.7166C34.6015 10.7166 34.4435 10.6378 34.4435 10.4802C34.3645 10.3226 34.3644 10.0862 34.2854 9.92857L32.9424 4.49141C32.8634 4.25501 32.7055 4.09741 32.4685 4.09741H32.3895C32.0735 4.17621 31.9155 4.41261 31.9945 4.72781C32.0735 5.27941 32.1525 5.831 32.3105 6.3826C32.3105 6.3826 32.5475 7.64339 32.6265 8.03739C32.7845 8.82538 32.9425 9.61337 33.0215 10.4802C33.1005 11.0318 33.0215 11.5834 32.7845 12.2138C32.7055 12.4502 32.4685 12.6078 32.2315 12.6078C32.0735 12.6078 31.9945 12.529 31.8365 12.529C31.2835 12.2138 30.8095 11.9774 30.1775 11.8198C29.8615 11.741 29.4665 11.6622 29.0715 11.6622C28.9925 11.6622 28.9135 11.6622 28.7555 11.6622C28.5185 11.6622 28.2815 11.8986 28.2815 12.135C28.2815 12.3714 28.4395 12.6078 28.6765 12.6866C29.1505 12.7654 29.5455 12.8442 29.9405 13.0806C30.4935 13.3958 30.8885 13.7897 31.1255 14.3413C31.4415 15.0505 31.9155 15.6021 32.5475 16.0749C33.1794 16.5477 33.5744 17.1781 33.7324 18.1237C33.7324 18.2813 33.7325 18.3601 33.8115 18.5177C33.8115 18.5965 33.8115 18.6753 33.8115 18.7541C33.8115 18.9117 33.8115 19.0693 33.6535 19.2269H33.4165C33.2585 19.1481 33.1795 18.9905 33.1795 18.8329C33.1005 18.0449 32.9425 17.4933 32.6265 17.0205C32.5475 16.9417 32.3895 16.7841 32.3105 16.7053C31.5205 16.0749 30.8885 15.3657 30.5725 14.4989C30.4145 14.1837 30.2565 14.0261 29.9405 13.8685C29.5455 13.6321 29.1505 13.4746 28.7555 13.4746C28.2025 13.3958 27.7285 13.0018 27.7285 12.4502C27.7285 11.8986 28.0445 11.347 28.5975 11.2682C28.7555 11.2682 28.9135 11.1894 29.1505 11.1894C29.2295 11.1894 29.3875 11.1894 29.4665 11.1894C30.4145 11.2682 31.2835 11.5834 32.1525 12.0562C32.3105 11.5834 32.3895 11.1106 32.3105 10.7166C32.1525 9.84978 31.9945 9.06178 31.8365 8.19498L31.5205 6.4614C31.4415 5.9098 31.3625 5.437 31.2045 4.88541C31.1255 4.33381 31.5205 3.78222 32.0735 3.62462C32.1525 3.62462 32.2315 3.62462 32.3105 3.62462C32.7845 3.62462 33.2585 3.93982 33.4165 4.41261C33.5745 4.88541 33.6534 5.3582 33.7324 5.831L33.8904 6.4614C33.9694 6.93419 34.1275 7.32819 34.2065 7.80099C34.2065 7.80099 34.2065 4.72781 34.2065 3.70342C34.2065 3.15182 34.5224 2.67902 35.0754 2.52143C35.1544 2.52143 35.3125 2.44263 35.3915 2.44263C36.0234 2.44263 36.4974 2.99422 36.4974 3.62462C36.4974 4.57021 36.4974 5.5946 36.4974 6.5402V7.80099L36.8924 6.1462C37.0504 5.5946 37.1294 5.04301 37.2874 4.49141C37.4454 3.93982 37.8404 3.62462 38.3934 3.62462C38.4724 3.62462 38.5514 3.62462 38.6304 3.62462C39.2624 3.78222 39.6574 4.41261 39.4994 5.04301L38.7094 8.51018L39.5784 6.93419C39.8154 6.5402 40.1314 6.3038 40.6054 6.3038C40.6844 6.3038 40.7634 6.3038 40.8424 6.3038C41.3164 6.3826 41.7114 6.85539 41.7114 7.32819C41.7114 7.48579 41.6324 7.72219 41.5534 7.95859C41.0794 9.06178 40.5264 10.165 39.9734 11.347C39.8154 11.6622 39.7364 12.0562 39.7364 12.4502V13.2381C39.7364 13.7897 39.7364 14.4201 39.7364 14.9717C39.7364 15.6809 39.5784 16.3113 39.1834 16.9417C39.0254 17.1781 38.9464 17.5721 38.9464 17.8873V17.9661C38.9464 18.2025 38.9464 18.4389 38.9464 18.7541C38.9464 18.9117 38.8674 19.0693 38.7094 19.1481H38.8674V18.7541Z" fill="black"/>
<path d="M30.81 6.61892C30.573 6.61892 30.494 6.61892 30.415 6.54012C30.336 6.46132 30.3359 6.38252 30.3359 6.30372C30.3359 6.06733 30.494 5.98853 30.81 5.98853H30.8889C31.1259 5.98853 31.205 6.14613 31.205 6.30372C31.205 6.46132 31.126 6.61892 30.81 6.61892Z" fill="black"/>
<path d="M30.0992 6.06766C29.9412 6.06766 29.7832 5.98886 29.7832 5.59487V5.51607C29.7832 5.27967 29.8622 5.12207 30.0992 5.12207C30.3362 5.12207 30.4152 5.27967 30.4152 5.51607V5.59487C30.4152 5.91006 30.3362 6.06766 30.0992 6.06766Z" fill="black"/>
<path d="M30.0992 7.40702C30.0202 7.40702 30.0202 7.40702 30.0992 7.40702C29.9412 7.32822 29.8622 7.24942 29.7832 7.17062C29.7832 7.09182 29.7832 7.09182 29.7832 7.01302V6.93422C29.7832 6.61902 29.8622 6.46143 30.0992 6.46143C30.1782 6.46143 30.2572 6.46142 30.3362 6.54022C30.4152 6.61902 30.4152 6.77662 30.4152 6.93422C30.4152 7.01302 30.4152 7.17062 30.3362 7.24942C30.2572 7.40702 30.1782 7.40702 30.0992 7.40702Z" fill="black"/>
<path d="M29.3091 6.61892C29.2301 6.61892 29.23 6.61892 29.1511 6.61892C28.9931 6.54012 28.9141 6.46132 28.9141 6.30372C28.9141 6.14613 28.9931 6.06732 29.1511 5.98853C29.23 5.98853 29.309 5.98853 29.388 5.98853C29.467 5.98853 29.467 5.98853 29.546 5.98853C29.704 5.98853 29.8621 6.14613 29.8621 6.30372C29.8621 6.46132 29.783 6.61892 29.546 6.61892C29.546 6.61892 29.5461 6.61892 29.4671 6.61892H29.388H29.3091Z" fill="black"/>
<path d="M41.7115 13.5533C41.5535 13.5533 41.3955 13.3957 41.3955 13.2381C41.3955 13.1593 41.3955 13.0805 41.3955 13.0017C41.3955 12.8441 41.5535 12.6865 41.7115 12.6865C41.8695 12.6865 42.0275 12.8441 42.0275 13.0017V13.0805V13.2381C42.0275 13.3957 41.9485 13.5533 41.7115 13.5533Z" fill="black"/>
<path d="M42.2643 14.105C42.1063 14.105 41.9482 13.9474 41.9482 13.7898C41.9482 13.6322 42.0273 13.4746 42.2643 13.4746H42.4222C42.7382 13.4746 42.8962 13.5534 42.8962 13.7898C42.8962 13.8686 42.8962 13.9474 42.8172 14.0262C42.7382 14.105 42.6592 14.105 42.4222 14.105H42.2643Z" fill="black"/>
<path d="M41.7115 14.8931C41.5535 14.8931 41.3955 14.7355 41.3955 14.5779C41.3955 14.4991 41.3955 14.4203 41.3955 14.2627C41.3955 14.0263 41.5535 13.9475 41.7115 13.9475C41.8695 13.9475 42.0275 14.1051 42.0275 14.2627V14.3415V14.4203C42.0275 14.4991 42.0275 14.4991 42.0275 14.5779C42.0275 14.8143 41.8695 14.8931 41.7115 14.8931Z" fill="black"/>
<path d="M40.9215 14.105C40.7635 14.105 40.6055 13.9474 40.6055 13.7898C40.6055 13.6322 40.7635 13.4746 40.9215 13.4746H41.0795C41.3955 13.4746 41.5535 13.5534 41.5535 13.7898C41.5535 13.8686 41.5535 13.9474 41.4745 14.0262C41.3955 14.105 41.3165 14.105 41.0795 14.105H40.9215Z" fill="black"/>
<path d="M35.5493 14.3416C35.4703 14.3416 35.3913 14.2628 35.3913 14.184C35.0753 13.5536 34.6013 13.1596 33.8903 13.002C33.7323 12.9232 33.6533 12.7656 33.6533 12.608C33.7323 12.4504 33.8113 12.3716 33.9693 12.3716H34.0483C34.8383 12.608 35.4703 13.1596 35.8653 13.8688C35.9443 13.9476 35.9443 14.1052 35.8653 14.184C35.8653 14.2628 35.7073 14.3416 35.5493 14.3416Z" fill="black"/>
<path d="M70.5463 10.4015C70.5463 16.1539 65.8853 20.803 60.1183 20.803C54.3514 20.803 49.6904 16.1539 49.6904 10.4015C49.6904 4.64916 54.3514 0 60.1183 0C65.8853 0 70.5463 4.64916 70.5463 10.4015Z" fill="#FFB50D"/>
<path d="M60.4347 18.9907C60.2767 18.9907 60.1977 18.9119 60.1187 18.7543C60.1187 18.6755 60.0397 18.5967 60.0397 18.5179V18.4391L60.1187 18.1239C60.1977 17.8875 60.2767 17.7299 60.3557 17.5723C60.4347 17.4147 60.5137 17.2571 60.6717 17.0995C60.7507 16.9419 60.9086 16.7843 60.9876 16.6267C61.2246 16.2327 61.2246 15.9963 61.1456 15.8387C61.0666 15.6811 60.8297 15.4447 60.4347 15.2871C59.8027 15.0507 59.0917 14.8931 58.4597 14.8931C57.8277 14.8931 57.4327 14.5779 57.0377 14.0264C56.6427 13.396 56.4847 12.6868 56.5637 11.7412C56.5637 11.5836 56.6427 11.426 56.7217 11.2684C56.8007 11.1108 56.9587 10.9532 57.0377 10.7956C58.9337 8.74679 60.7507 6.61921 62.6466 4.57042C62.8836 4.25522 63.1996 3.94003 63.5156 3.70363L63.6736 3.54603C63.7526 3.46723 63.9106 3.38843 63.9896 3.38843C64.0686 3.38843 64.1476 3.38843 64.2266 3.46723C64.3846 3.62482 64.3846 3.78243 64.2266 4.01883L62.6466 5.75241C61.4617 7.092 60.1976 8.5104 59.0127 9.84999C58.5387 10.3228 58.1437 10.7956 57.8277 11.1108C57.4327 11.5048 57.2747 11.8988 57.3537 12.3716V12.4504C57.4327 12.9232 57.5117 13.3172 57.7487 13.79C57.9067 14.1052 58.2227 14.2628 58.6177 14.2628C59.4077 14.2628 60.1187 14.4204 60.8297 14.7355C60.9877 14.8143 61.1457 14.8932 61.3037 14.972C61.8566 15.3659 62.0937 15.8387 61.8567 16.4691C61.7777 16.7843 61.6197 17.0207 61.4617 17.3359L61.3037 17.6511C61.2247 17.7299 61.2246 17.8087 61.1456 17.8875C61.0666 18.0451 60.9877 18.1239 60.9087 18.2815C60.8297 18.3603 60.8297 18.5179 60.8297 18.7543C60.8297 18.9119 60.8296 19.0695 60.5926 19.1483C60.5926 18.9907 60.5137 18.9907 60.4347 18.9907Z" fill="black"/>
<path d="M63.2783 16.5478C63.1203 16.5478 62.9623 16.5478 62.8833 16.469C62.6463 16.469 62.4883 16.3114 62.4883 16.075C62.4883 15.9174 62.6463 15.7598 62.8833 15.7598H63.1203C63.2783 15.7598 63.4363 15.7598 63.5943 15.7598C63.7523 15.7598 63.8313 15.7598 63.9893 15.7598C64.5423 15.681 64.9373 15.287 65.0163 14.6566C65.0953 13.9474 64.9373 13.3958 64.7793 12.6866L64.7003 12.529C64.6213 12.2926 64.7792 12.135 64.9372 12.135H65.0163C65.1743 12.135 65.2532 12.2138 65.3322 12.3714L65.4113 12.6866C65.4903 13.0806 65.5693 13.4746 65.6483 13.8686C65.7273 14.3414 65.6483 14.7354 65.5693 15.1294C65.3323 15.9962 64.6213 16.469 63.5153 16.469L63.2783 16.5478Z" fill="black"/>
<path d="M62.5672 14.7354C62.4092 14.7354 62.3302 14.6566 62.2512 14.6566C62.1722 14.5778 62.1722 14.499 62.1722 14.4202C62.1722 14.1838 62.3302 14.105 62.5672 14.105H62.8832L62.7252 14.0262C62.4092 13.711 62.0932 13.3958 61.6982 13.2382H61.6192C61.6192 13.2382 61.5402 13.2383 61.5402 13.3959C61.5402 13.6322 61.5402 13.7898 61.5402 14.0262C61.5402 14.2626 61.4612 14.4202 61.3032 14.499C61.0662 14.499 60.9082 14.3414 60.9082 14.105C60.9082 13.7898 60.9082 13.3959 60.9872 13.0807C61.0662 12.7655 61.3032 12.5291 61.6192 12.5291C61.6982 12.5291 61.8562 12.5291 61.9352 12.6079C62.2512 12.7655 62.5672 12.9231 62.8042 13.1595C63.1992 13.4746 63.5152 13.8686 63.8312 14.1838C63.9102 14.2626 63.9892 14.499 63.9102 14.5778C63.8312 14.6566 63.6732 14.8142 63.5942 14.8142C63.4362 14.8142 63.2782 14.8142 63.1202 14.8142C62.9622 14.7354 62.5672 14.7354 62.5672 14.7354Z" fill="black"/>
<path d="M55.616 8.58913C55.063 8.58913 54.668 8.11633 54.668 7.64354C54.668 7.40714 54.747 7.17074 54.984 6.93434C55.142 6.77674 55.458 6.61914 55.695 6.61914C56.248 6.61914 56.643 7.01314 56.643 7.56474C56.643 7.80114 56.564 8.03754 56.327 8.27393C56.169 8.43153 55.932 8.58913 55.616 8.58913ZM55.616 7.32834C55.537 7.32834 55.458 7.32834 55.379 7.40714C55.3 7.48593 55.3 7.56474 55.3 7.64354C55.3 7.80113 55.458 7.95873 55.616 7.95873C55.695 7.95873 55.774 7.95874 55.853 7.87994C55.932 7.80114 55.932 7.72234 55.932 7.64354C55.932 7.40714 55.774 7.32834 55.616 7.32834Z" fill="black"/>
<path d="M55.9317 3.8611H55.6947C55.6157 3.8611 55.6157 3.8611 55.5367 3.8611C55.2997 3.8611 55.2207 3.70351 55.2207 3.54591C55.2207 3.30951 55.3787 3.23071 55.5367 3.23071C55.6157 3.23071 55.7737 3.23071 55.8527 3.23071C55.9317 3.23071 56.0897 3.23071 56.1687 3.23071C56.4057 3.23071 56.4847 3.38831 56.4847 3.54591C56.4847 3.70351 56.4057 3.8611 56.1687 3.8611C56.0897 3.8611 56.0897 3.8611 56.0107 3.8611H55.9317Z" fill="black"/>
<path d="M57.7482 3.8611H57.5902C57.5112 3.8611 57.5112 3.8611 57.4322 3.8611C57.1952 3.8611 57.1162 3.70351 57.1162 3.54591C57.1162 3.38831 57.2742 3.23071 57.4322 3.23071C57.5112 3.23071 57.6692 3.23071 57.7482 3.23071C57.8272 3.23071 57.9852 3.23071 58.0642 3.23071C58.2222 3.23071 58.3802 3.38831 58.3802 3.54591C58.3802 3.70351 58.3012 3.86111 58.0642 3.93991C57.9852 3.93991 57.9852 3.93991 57.9062 3.93991L57.7482 3.8611Z" fill="black"/>
<path d="M56.8003 3.23076C56.6423 3.23076 56.4844 3.07316 56.4844 2.91556C56.4844 2.67916 56.4844 2.52156 56.4844 2.28516C56.4844 2.04877 56.5633 1.96997 56.8003 1.96997C57.0373 1.96997 57.1163 2.12756 57.1953 2.28516C57.1953 2.36396 57.1953 2.44276 57.1953 2.52156V2.75797C57.1953 2.83676 57.1953 2.91556 57.1953 2.99436C57.1163 3.15196 56.9583 3.23076 56.8003 3.23076Z" fill="black"/>
<path d="M56.8003 5.04326C56.5633 5.04326 56.4844 4.88567 56.4844 4.72807C56.4844 4.49167 56.4844 4.33407 56.4844 4.09767C56.4844 3.94007 56.5633 3.78247 56.8003 3.78247C57.0373 3.78247 57.1163 3.86127 57.1953 4.09767C57.1953 4.17647 57.1953 4.25527 57.1953 4.33407V4.41287V4.49167C57.1953 4.57047 57.1953 4.64927 57.1953 4.72807C57.1163 4.96447 57.0373 5.04326 56.8003 5.04326Z" fill="black"/>
<path d="M59.1705 5.67337C59.0125 5.67337 58.8545 5.51577 58.8545 5.35817C58.8545 5.27937 58.8545 5.20057 58.9335 5.12177C59.0125 5.04297 59.0915 5.04297 59.1705 5.04297C59.2495 5.04297 59.3284 5.04297 59.4074 5.12177C59.4864 5.20057 59.4865 5.27937 59.4865 5.35817C59.5655 5.51577 59.4075 5.67337 59.1705 5.67337Z" fill="black"/>
<path d="M95.2728 10.4015C95.2728 16.1539 90.6118 20.803 84.8449 20.803C79.078 20.803 74.417 16.1539 74.417 10.4015C74.417 4.64916 79.078 0 84.8449 0C90.6118 0 95.2728 4.64916 95.2728 10.4015Z" fill="#FFB50D"/>
<path d="M84.2927 18.2814C84.2927 18.2814 84.0558 18.2026 83.9768 18.2026C82.8708 17.8874 82.0808 17.0206 81.9228 15.8386C81.9228 15.7598 81.9228 15.6022 81.9228 15.5234C81.9228 15.287 82.0808 15.1294 82.3178 15.1294C82.5548 15.1294 82.7128 15.287 82.7128 15.5234C82.7128 15.9174 82.7918 16.2326 83.0288 16.5478C83.3448 17.0994 83.9767 17.4146 84.6877 17.4146C84.8457 17.4146 85.0038 17.4146 85.1618 17.3358C85.9518 17.0994 86.5837 16.469 86.6627 15.6022V15.287C86.6627 14.8142 86.7417 14.4202 86.8207 13.9474C87.0577 13.0806 87.4527 12.3714 88.0847 11.6622C88.3217 11.4258 88.5587 11.1894 88.7167 10.953C88.8747 10.7954 89.0327 10.559 89.2697 10.4014C89.8227 9.84983 90.0597 9.29824 90.2177 8.66784C90.4547 7.32825 90.1387 6.14626 89.4277 5.12187C88.7167 4.17628 87.8477 3.54588 86.6627 3.30948C86.3467 3.23068 86.0307 3.23068 85.6357 3.23068C84.8457 3.23068 84.1347 3.38828 83.5027 3.78227C82.2388 4.49147 81.4488 5.51586 81.2118 6.93425C81.1328 7.17065 81.1328 7.32825 81.1328 7.56465V7.80104C81.1328 8.03744 80.9748 8.19504 80.8168 8.19504H80.7378C80.5798 8.19504 80.4218 8.11625 80.3428 7.95865C80.3428 7.87985 80.3428 7.87984 80.3428 7.80104C80.3428 6.46145 80.8168 5.20066 81.6858 4.25507C82.4758 3.38828 83.4238 2.83668 84.6088 2.60028C85.0037 2.52148 85.3988 2.52148 85.7148 2.52148C86.6628 2.52148 87.5317 2.75788 88.3217 3.23068C89.5067 3.93988 90.3757 4.96426 90.7707 6.22506C91.2447 7.64345 91.1657 8.90424 90.5337 10.0862C90.2967 10.559 89.9017 10.953 89.5067 11.347L89.2697 11.5834C88.9537 11.8986 88.6377 12.2138 88.3217 12.6078C87.7687 13.2382 87.5317 14.0262 87.4527 14.893C87.4527 15.0506 87.4527 15.2082 87.4527 15.287C87.4527 15.6022 87.4527 15.9174 87.3737 16.2326C86.9787 17.3358 86.2677 17.9662 85.0827 18.2026H85.0037H84.2927V18.2814Z" fill="black"/>
<path d="M83.5025 13.396C83.1075 13.396 82.7915 13.3172 82.3965 13.0808C82.1595 12.9232 82.0805 12.7656 82.1595 12.5292C82.2385 12.3716 82.3965 12.2928 82.4755 12.2928C82.5545 12.2928 82.6335 12.2928 82.7125 12.3716C82.9495 12.5292 83.2655 12.608 83.5025 12.608C83.6605 12.608 83.8185 12.608 83.9765 12.5292C84.6085 12.2928 85.0035 11.5836 84.8455 10.9532C84.6875 10.244 84.1345 9.77123 83.4235 9.77123H83.3445C82.9495 9.77123 82.7915 9.61364 82.7915 9.29844V9.06204C82.7915 8.74685 82.7915 8.51044 82.7915 8.19524C82.7915 7.32845 83.1075 6.61926 83.7395 5.98886C84.2925 5.43727 85.0035 5.12207 85.7935 5.12207C87.0574 5.12207 88.2424 5.98886 88.6374 7.17085C88.7164 7.40725 88.7954 7.72245 88.7954 8.03765C88.7954 8.11645 88.7954 8.27405 88.7164 8.27405C88.6374 8.35285 88.5584 8.43164 88.4004 8.43164C88.1634 8.43164 88.0054 8.27405 88.0054 8.03765V7.88005C88.0054 7.72245 88.0054 7.64365 87.9264 7.48605C87.6894 6.46166 86.8204 5.83126 85.7935 5.83126C85.7145 5.83126 85.7144 5.83126 85.6354 5.83126C84.6085 5.91006 83.8185 6.69806 83.6605 7.72245C83.6605 7.95885 83.6605 8.19525 83.6605 8.43164C83.6605 8.51044 83.6605 8.66804 83.6605 8.74684V8.82564H83.7395C84.4505 8.98324 85.0035 9.29844 85.3195 9.85004C85.7145 10.4804 85.7934 11.2684 85.4774 11.9776C85.1614 12.6868 84.5295 13.1596 83.8185 13.3172C83.8185 13.396 83.6605 13.396 83.5025 13.396Z" fill="black"/>
<path d="M120 10.4015C120 16.1539 115.339 20.803 109.572 20.803C103.805 20.803 99.1445 16.1539 99.1445 10.4015C99.1445 4.64916 103.805 0 109.572 0C115.339 0 120 4.64916 120 10.4015Z" fill="#FFB50D"/>
<path d="M109.494 17.0995C108.309 17.0995 107.203 16.7055 106.255 15.9175C105.228 15.0507 104.596 13.9475 104.359 12.608C104.359 12.3716 104.28 12.1352 104.28 11.8988C104.28 11.82 104.201 11.7412 104.122 11.6624C103.174 10.9532 102.305 10.1652 101.515 9.29837C101.278 8.98318 101.278 8.82558 101.515 8.58918C101.673 8.43158 101.752 8.27398 101.831 8.11638C101.91 7.95878 102.068 7.80118 102.147 7.72238C103.253 6.30399 104.28 5.3584 105.465 4.6492C106.255 4.17641 106.966 3.86121 107.756 3.70361C107.835 3.70361 107.914 3.70361 107.993 3.70361C108.309 3.70361 108.546 3.78241 108.704 4.01881C108.862 4.09761 109.336 4.6492 109.336 4.6492C109.415 4.728 109.494 4.80681 109.573 4.80681C109.652 4.80681 109.731 4.728 109.81 4.6492L110.047 4.41281C110.205 4.25521 110.363 4.09761 110.521 3.94001C110.679 3.78242 110.916 3.70361 111.153 3.70361C111.232 3.70361 111.311 3.70361 111.39 3.70361C112.338 3.86121 113.286 4.33401 114.313 5.0432C115.497 5.8312 116.445 6.93439 117.472 8.35278C117.551 8.51038 117.631 8.58918 117.71 8.74678L117.867 8.90438V9.21957C117.156 10.0864 116.208 10.9532 115.102 11.7412C115.023 11.82 114.945 11.8988 114.945 12.0564C114.866 14.2627 113.523 16.1539 111.469 16.9419C110.758 16.9419 110.126 17.0995 109.494 17.0995ZM107.519 8.19518C107.44 8.19518 107.361 8.19518 107.361 8.19518C106.808 8.27398 106.255 8.35278 105.781 8.43158L105.07 8.51038V8.58918V8.66798V9.45598C105.07 10.244 105.07 10.9532 105.07 11.7412C105.07 11.9776 105.07 12.2928 105.149 12.5291C105.386 13.7111 106.018 14.7355 106.966 15.3659C107.835 15.9175 108.704 16.2327 109.573 16.2327C110.205 16.2327 110.837 16.0751 111.39 15.8387C113.207 15.0507 114.076 13.6323 114.155 11.5836C114.155 10.8744 114.155 10.244 114.155 9.53477C114.155 9.21958 114.155 8.43158 114.155 8.43158H113.444C112.97 8.35278 112.496 8.27398 112.022 8.19518C111.943 8.19518 111.785 8.19518 111.706 8.19518C111.232 8.19518 110.837 8.35278 110.521 8.66798C110.442 8.74678 110.284 8.82558 110.126 8.90438C109.968 8.98318 109.968 9.06198 109.968 9.14078C109.968 9.77117 109.968 10.4016 109.968 10.9532C109.968 11.032 109.968 11.1108 109.968 11.1896C109.968 11.3472 109.81 11.426 109.652 11.5048C109.652 11.5048 109.652 11.5048 109.573 11.5048C109.415 11.5048 109.336 11.426 109.257 11.3472C109.178 11.2684 109.178 11.1896 109.178 11.032C109.178 10.7168 109.178 10.4016 109.178 10.0864C109.178 9.77117 109.178 9.45597 109.178 9.14078C109.178 9.06198 109.178 8.98317 109.099 8.98317C109.02 8.90437 108.941 8.82558 108.862 8.82558C108.783 8.74678 108.625 8.66798 108.546 8.58918C108.23 8.27398 107.914 8.19518 107.519 8.19518ZM102.384 9.06198C103.016 9.69237 103.648 10.244 104.28 10.7168L104.359 10.7956V8.66798L102.384 9.06198ZM114.866 10.7168L114.945 10.7956L116.762 9.21957L116.682 9.14078L114.866 8.74678V10.7168ZM107.519 7.40719C108.151 7.40719 108.625 7.64359 109.099 8.03758C109.257 8.19518 109.415 8.27398 109.573 8.27398C109.731 8.27398 109.889 8.19518 110.047 8.03758C110.521 7.64359 110.995 7.40719 111.548 7.40719C111.627 7.40719 111.785 7.40719 111.864 7.40719C112.733 7.56478 113.602 7.64358 114.471 7.80118L114.866 7.87999C115.182 7.95879 115.497 8.03758 115.892 8.11638L116.445 8.19518L116.367 8.11638C116.367 8.03758 116.287 8.03758 116.287 8.03758C115.497 7.01319 114.708 6.2252 113.918 5.6736C113.049 4.9644 112.101 4.57041 111.232 4.33401C111.153 4.33401 111.153 4.33401 111.074 4.33401C110.916 4.33401 110.837 4.41281 110.758 4.49161C110.6 4.64921 110.363 4.8856 110.205 5.0432C109.968 5.2796 109.731 5.3584 109.494 5.3584C109.257 5.3584 109.02 5.2796 108.783 5.0432C108.546 4.8856 108.388 4.64921 108.151 4.41281C108.072 4.33401 107.993 4.25521 107.835 4.25521H107.756C107.203 4.41281 106.65 4.57041 106.097 4.88561C105.149 5.3584 104.359 6.0676 103.49 7.09199C103.253 7.32839 103.095 7.56478 102.937 7.80118L102.621 8.19518H102.7C102.937 8.19518 103.095 8.11638 103.332 8.11638C103.411 8.11638 103.569 8.11638 103.648 8.03758C104.754 7.87998 105.86 7.64359 106.966 7.48599C107.203 7.40719 107.361 7.40719 107.519 7.40719Z" fill="black"/>
<path d="M107.597 14.8142C107.518 14.8142 107.439 14.8142 107.36 14.7354C106.807 14.2626 106.491 13.7898 106.175 13.2382C106.017 12.923 105.938 12.6078 105.859 12.3714V12.2926C105.859 12.2138 105.859 12.0562 105.859 11.9774C105.938 11.8986 106.017 11.8198 106.096 11.8198H106.175C106.333 11.8198 106.491 11.8986 106.57 12.135C106.728 12.7654 107.044 13.2382 107.36 13.711C107.439 13.7898 107.518 13.8686 107.597 14.0262C107.676 14.105 107.755 14.1838 107.834 14.2626C107.913 14.3414 107.913 14.4202 107.992 14.499C107.992 14.499 107.992 14.5778 108.071 14.5778C107.992 14.7354 107.913 14.8142 107.834 14.893C107.755 14.8142 107.676 14.8142 107.597 14.8142Z" fill="black"/>
<path d="M108.544 15.4445C108.465 15.4445 108.386 15.3657 108.307 15.3657C108.228 15.287 108.229 15.2081 108.229 15.1293C108.229 14.9717 108.387 14.7354 108.624 14.7354C108.703 14.7354 108.782 14.8141 108.861 14.8929C108.939 14.9717 108.939 15.0505 108.939 15.1293C108.939 15.2869 108.781 15.4445 108.544 15.4445Z" fill="black"/>
<path d="M10.507 20.8817C4.74007 20.8817 0.0791016 16.2325 0.0791016 10.4801C0.0791016 4.72778 4.74007 0.0786133 10.507 0.0786133C16.274 0.0786133 20.9349 4.72778 20.9349 10.4801C20.8559 16.1537 16.195 20.8817 10.507 20.8817ZM10.507 0.709005C5.13506 0.709005 0.711086 5.12178 0.711086 10.4801C0.711086 15.8385 5.13506 20.2513 10.507 20.2513C15.879 20.2513 20.3029 15.8385 20.3029 10.4801C20.3029 5.04298 15.879 0.709005 10.507 0.709005Z" fill="#FFB50D"/>
<path d="M18.0906 10.3227C17.9326 10.5591 17.7746 10.5591 17.5376 10.4015C16.2736 9.53469 15.0096 8.6679 13.7456 7.7223C13.2716 7.40711 12.7977 7.32831 12.2447 7.48591C9.63771 8.3527 7.10969 9.21949 4.50271 10.0863C3.94972 10.2439 3.39673 10.1651 3.08074 9.69229C2.68574 9.14069 2.84377 8.1951 3.55476 7.87991C4.02876 7.64351 4.58175 7.48591 5.13475 7.24951C5.52974 7.09191 5.92474 6.93431 6.31974 6.77671C6.39874 6.77671 6.4777 6.69791 6.4777 6.69791C6.63569 6.69791 6.71471 6.77671 6.79371 6.85551C6.87271 7.01311 6.79373 7.09191 6.71473 7.17071C6.63573 7.17071 6.63572 7.24951 6.55672 7.24951C5.68773 7.56471 4.81873 7.8799 4.02874 8.1951C3.63374 8.3527 3.47576 8.6679 3.55476 8.98309C3.63376 9.29829 3.87075 9.45589 4.18675 9.37709C4.73974 9.21949 5.29272 8.9831 5.84571 8.8255C7.89969 8.1163 10.0327 7.40711 12.0867 6.69791C12.8767 6.46152 13.5087 6.54031 14.2197 7.01311C15.0097 7.5647 15.7996 8.1163 16.5896 8.6679C16.5896 8.6679 16.6686 8.7467 16.7476 8.7467C16.7476 8.6679 16.7476 8.6679 16.7476 8.6679C16.2736 7.95871 15.7996 7.24951 15.3256 6.61911C14.3776 5.35832 12.8766 4.88552 11.3757 5.43712C10.6647 5.67352 9.95369 5.98871 9.3217 6.22511C9.0847 6.30391 8.84767 6.22512 8.84767 5.98872C8.84767 5.83112 8.92668 5.75232 9.00568 5.75232C9.95367 5.43712 10.8227 4.96433 11.7707 4.80673C13.1926 4.49153 14.5356 4.88553 15.4836 5.98872C15.9576 6.54031 16.3526 7.17071 16.7476 7.7223C17.3006 8.4315 17.7746 9.21949 18.2486 10.0075V10.3227H18.0906Z" fill="#FFB50D"/>
<path d="M9.5586 14.0263C9.4796 14.0263 9.32158 14.0263 9.24258 14.0263C9.16358 14.4203 9.00561 14.7355 8.92661 15.1295C8.84761 15.2871 8.76863 15.4447 8.68963 15.6023C8.61063 15.7599 8.45263 15.8387 8.29463 15.7599C8.13663 15.6811 8.1366 15.5235 8.2156 15.2871C8.3736 14.9719 8.4526 14.6567 8.6106 14.3415C8.6896 13.9475 8.68961 13.9475 8.37361 13.8687C8.29461 13.8687 8.2946 13.8687 8.2156 13.8687C8.1366 14.1839 8.05763 14.4991 7.89963 14.8143C7.82063 14.9719 7.66262 15.2083 7.58362 15.3659C7.42562 15.5235 7.26764 15.5235 7.10964 15.4447C6.95164 15.3659 6.95164 15.1295 7.10964 14.9719C7.34664 14.6567 7.50462 14.3415 7.58362 13.9475C7.58362 13.7899 7.58361 13.7111 7.42561 13.7111C7.34661 13.7111 7.2676 13.7111 7.2676 13.6323C7.1886 13.8687 7.03063 14.1051 6.95163 14.3415C6.79363 14.6567 6.55662 14.8931 6.24062 15.0507C6.08262 15.1295 5.84564 15.1295 5.76664 14.9719C5.68764 14.8143 5.76665 14.6567 5.92465 14.4991C6.16165 14.3415 6.39861 14.1839 6.47761 13.9475C6.55661 13.7899 6.55662 13.6323 6.63562 13.4747C6.63562 13.3959 6.63564 13.3171 6.55664 13.3171C6.47764 13.3171 6.39865 13.2383 6.31965 13.2383C6.16165 13.5535 6.00364 13.8687 5.76664 14.0263C5.52965 14.1839 5.29263 14.3415 5.05563 14.4991C4.89763 14.5779 4.73963 14.4991 4.66063 14.3415C4.58163 14.1839 4.66062 14.0263 4.89762 13.9475C5.29262 13.7899 5.60864 13.5535 5.76664 13.1595C5.84564 12.9231 5.84561 12.9231 5.68761 12.8443L5.60863 12.7655C5.45064 12.9231 5.37164 13.0807 5.21364 13.1595C4.97664 13.3171 4.73962 13.4747 4.50263 13.5535C4.26563 13.6323 4.10765 13.5535 4.02865 13.3959C3.94965 13.2383 4.02864 13.0807 4.26564 13.0019C4.58163 12.8443 4.89763 12.6867 5.05563 12.3715C4.89763 12.2139 4.66062 12.0563 4.50263 11.8199C4.42363 11.7411 4.42367 11.6623 4.34467 11.5835C4.34467 11.5047 4.34463 11.3471 4.50263 11.3471C4.58163 11.3471 4.73964 11.3471 4.81864 11.3471C4.97664 11.4259 5.05566 11.5047 5.13466 11.6623C6.08265 12.5291 7.26763 13.1595 8.53162 13.3959C10.3486 13.7899 12.0866 13.4747 13.7456 12.5291C14.2195 12.2139 14.6935 11.8987 15.1675 11.4259C15.2465 11.3471 15.3255 11.3471 15.3255 11.2683C15.4835 11.2683 15.5626 11.2683 15.6416 11.4259C15.7206 11.5835 15.7206 11.6623 15.6416 11.7411C15.4836 11.8987 15.4046 11.9775 15.2466 12.1351C15.1676 12.2139 15.0886 12.2927 15.0096 12.3715C15.1676 12.6079 15.4045 12.7655 15.7205 12.9231C15.7995 12.9231 15.8785 13.0019 15.9575 13.0019C16.1155 13.0807 16.1945 13.2383 16.1155 13.3959C16.0365 13.5535 15.9576 13.6323 15.7996 13.5535C15.6416 13.4747 15.4836 13.4747 15.4046 13.3959C15.0886 13.2383 14.8516 13.0019 14.6146 12.7655C14.5356 12.7655 14.4565 12.8443 14.3775 12.9231C14.5355 13.3171 14.7725 13.6323 15.1675 13.8687C15.2465 13.8687 15.3255 13.9475 15.3255 13.9475C15.4835 14.0263 15.5625 14.1839 15.4835 14.3415C15.4045 14.4991 15.2465 14.5779 15.0885 14.4991C14.8516 14.3415 14.6145 14.2627 14.3775 14.1051C14.0615 13.8687 13.9035 13.6323 13.7456 13.2383C13.6666 13.3171 13.5086 13.3171 13.4296 13.3959C13.4296 13.3959 13.3506 13.4747 13.4296 13.5535C13.5086 13.9475 13.7456 14.3415 14.0616 14.5779C14.1406 14.5779 14.1406 14.6567 14.2196 14.6567C14.3776 14.7355 14.3776 14.8931 14.2986 15.0507C14.2196 15.2083 14.0616 15.2083 13.9036 15.1295C13.4296 14.8931 13.1136 14.4991 12.9556 14.0263C12.8766 13.8687 12.8766 13.7899 12.8766 13.6323C12.8766 13.6323 12.8765 13.6323 12.7975 13.6323C12.4816 13.7111 12.4816 13.7111 12.5606 14.1051C12.6396 14.4203 12.7976 14.7355 12.9556 14.9719C13.0346 15.0507 13.0346 15.1295 13.0346 15.2871C13.0346 15.3659 12.9555 15.5235 12.7975 15.5235C12.6396 15.5235 12.5606 15.5235 12.4816 15.4447C12.1656 15.1295 12.0076 14.7355 11.9286 14.3415C11.9286 14.1839 11.8496 14.1051 11.8496 13.9475C11.6916 13.9475 11.5336 14.0263 11.4546 14.0263C11.4546 14.0263 11.3756 14.1051 11.3756 14.1839C11.4546 14.4991 11.5336 14.8931 11.6916 15.1295C11.7706 15.2083 11.7706 15.2871 11.8496 15.3659C11.9286 15.5235 11.8496 15.6811 11.6916 15.7599C11.5336 15.8387 11.3756 15.7599 11.2966 15.6023C11.1386 15.2871 10.9806 15.0507 10.9016 14.7355C10.8226 14.4991 10.8226 14.2627 10.7436 14.0263C10.6646 14.0263 10.5066 14.0263 10.4276 14.0263V14.1839C10.4276 14.6567 10.4276 15.2083 10.4276 15.6811C10.4276 15.9175 10.3486 15.9963 10.1906 16.0751C9.95359 16.0751 9.87461 15.9963 9.87461 15.6811C9.87461 15.2083 9.87461 14.6567 9.87461 14.1839V14.0263H9.5586Z" fill="#FFB50D"/>
<path d="M8.05777 6.61915C8.05777 6.77675 7.8998 6.93435 7.7418 6.93435C7.5838 6.93435 7.42578 6.77675 7.42578 6.61915C7.42578 6.46155 7.5838 6.30396 7.7418 6.30396C7.8998 6.38275 8.05777 6.46155 8.05777 6.61915Z" fill="#FFB50D"/>
<path d="M5.84592 34.4353H4.58195V28.2889H1.26397V34.4353H0V27.1069H5.84592V34.4353Z" fill="#FFB50D"/>
<path d="M9.32163 31.7561V34.4353H8.05762V27.1069C8.37361 27.1069 8.68965 27.1069 9.08465 27.1069C9.47964 27.1069 9.79561 27.1069 10.1906 27.1069C10.7436 27.1069 11.1386 27.1857 11.5336 27.2645C11.9286 27.4221 12.2446 27.5797 12.4026 27.8161C12.6396 28.0525 12.7976 28.2889 12.8766 28.5253C12.9556 28.7617 13.0346 29.0769 13.0346 29.3921C13.0346 30.0225 12.7976 30.6529 12.3236 31.0469C11.8496 31.5197 11.2176 31.7561 10.3486 31.7561C9.87462 31.8349 9.55863 31.8349 9.32163 31.7561ZM10.2696 28.2889H9.32163V30.5741C9.71663 30.5741 10.0326 30.6529 10.2696 30.6529C10.6646 30.6529 10.9806 30.5741 11.2966 30.3377C11.5336 30.1013 11.6916 29.8649 11.6916 29.4709C11.6126 28.6829 11.1386 28.2889 10.2696 28.2889Z" fill="#FFB50D"/>
<path d="M14.0615 30.7318C14.0615 29.6286 14.4565 28.7619 15.1675 28.0527C15.8785 27.3435 16.8265 26.9495 17.9325 26.9495C19.0384 26.9495 19.9864 27.2647 20.6974 27.9739C21.4084 28.6831 21.8034 29.5498 21.8034 30.7318C21.8034 31.835 21.4084 32.7018 20.6974 33.411C19.9864 34.1202 19.0384 34.5142 17.9325 34.5142C16.8265 34.5142 15.8785 34.199 15.1675 33.4898C14.4565 32.7806 14.0615 31.9138 14.0615 30.7318ZM15.4045 30.7318C15.4045 31.441 15.6415 32.0714 16.1155 32.5442C16.5895 33.017 17.1425 33.2534 17.8535 33.2534C18.6435 33.2534 19.1965 33.017 19.6705 32.5442C20.1444 32.0714 20.3024 31.441 20.3024 30.7318C20.3024 30.0226 20.0655 29.3922 19.5915 28.9194C19.1175 28.4467 18.5645 28.2103 17.8535 28.2103C17.1425 28.2103 16.5895 28.4467 16.1155 28.9194C15.6415 29.3922 15.4045 30.0226 15.4045 30.7318Z" fill="#FFB50D"/>
<path d="M24.6478 34.4353H23.3838V27.1069H27.4918V28.2889H24.6478V34.4353Z" fill="#FFB50D"/>
<path d="M33.5747 27.1071H34.8386L32.3107 32.7019C32.0737 33.2535 31.7577 33.7263 31.4417 33.9627C31.1257 34.1991 30.7307 34.3567 30.3357 34.3567C29.9407 34.3567 29.5457 34.2779 29.3087 34.0415L29.7827 32.9383C29.9407 33.0171 30.1777 33.0959 30.3357 33.0959C30.6517 33.0959 30.8887 32.9383 31.0467 32.6231L31.1257 32.3867L27.8867 27.0283H29.3087L31.6787 31.1259L33.5747 27.1071Z" fill="#FFB50D"/>
<path d="M41.7905 34.4355H40.5266V28.2891H38.3936L38.2356 29.7075C38.1566 30.5743 38.0776 31.2835 37.9196 31.8351C37.7616 32.4655 37.6036 32.9383 37.4456 33.2535C37.2876 33.6475 37.1296 33.8839 36.8926 34.0415C36.6556 34.1991 36.4186 34.3567 36.1816 34.3567C35.9446 34.4355 35.7076 34.4355 35.3916 34.3567V33.0959C35.5496 33.0959 35.7076 33.0959 35.7866 33.0959C35.8656 33.0959 36.0236 32.9383 36.1026 32.7807C36.2606 32.6231 36.3396 32.3867 36.4976 32.0715C36.7346 31.3623 36.9716 30.1803 37.0506 28.5255L37.1296 27.0283H41.7905V34.4355Z" fill="#FFB50D"/>
<path d="M45.2668 34.4353H43.9238V27.1069H45.2668V30.5741L48.1108 27.1069H49.6908L46.6888 30.4953L49.8488 34.4353H48.2688L45.2668 30.6529V34.4353Z" fill="#FFB50D"/>
<path d="M51.5071 34.4353H50.2432L53.3242 27.1069H54.4301L57.5111 34.4353H56.1681L55.3781 32.5441H52.2181L51.5071 34.4353ZM54.9041 31.3621L53.7981 28.7617L52.6921 31.3621H54.9041Z" fill="#FFB50D"/>
<path d="M61.1455 34.4353V27.1857C61.9355 27.1857 62.5675 27.1069 63.2785 27.1069C64.0685 27.1069 64.7005 27.2645 65.0955 27.5797C65.4905 27.8949 65.7275 28.3677 65.7275 28.9193C65.7275 29.7073 65.4115 30.2589 64.7005 30.5741C65.0955 30.6529 65.4115 30.8893 65.6485 31.1257C65.8855 31.4409 65.9645 31.7561 65.9645 32.2289C65.9645 32.9381 65.7275 33.4897 65.2535 33.8837C64.7795 34.2777 64.0685 34.4353 63.2785 34.4353C62.4885 34.4353 61.6985 34.4353 61.1455 34.4353ZM63.2785 28.2889C62.9625 28.2889 62.7255 28.2889 62.4885 28.2889V30.1013H63.3575C63.6735 30.1013 63.9895 30.0225 64.1475 29.8649C64.3845 29.7073 64.4635 29.4709 64.4635 29.1557C64.4635 28.8405 64.3845 28.6041 64.1475 28.4465C63.9105 28.3677 63.6735 28.2889 63.2785 28.2889ZM63.3575 31.2833H62.4095V33.2533C62.7255 33.2533 63.0415 33.3321 63.2785 33.3321C64.1475 33.3321 64.6215 33.0169 64.6215 32.3077C64.6215 31.9925 64.5425 31.7561 64.3055 31.5985C64.0685 31.3621 63.7525 31.2833 63.3575 31.2833Z" fill="#FFB50D"/>
<path d="M71.6522 28.2889H69.2822V27.1069H75.2862V28.2889H72.9162V34.4353H71.6522V28.2889Z" fill="#FFB50D"/>
<path d="M80.9739 34.4353H76.6289V27.1069H80.8159V28.2889H77.8929V30.1013H80.4998V31.3621H77.8929V33.2533H80.9739V34.4353Z" fill="#FFB50D"/>
<path d="M84.055 34.4353H82.791V27.1069H84.055L86.583 30.4953L88.9529 27.1069H90.2169V34.4353H88.874V29.1557L86.583 32.3865H86.425L84.055 29.1557V34.4353Z" fill="#FFB50D"/>
<path d="M98.2755 34.4353H97.0116V31.2833H93.6936V34.4353H92.3506V27.1069H93.6936V30.1013H97.0116V27.1069H98.2755V34.4353Z" fill="#FFB50D"/>
<path d="M99.9336 30.7318C99.9336 29.6286 100.329 28.7619 101.04 28.0527C101.751 27.3435 102.699 26.9495 103.805 26.9495C104.911 26.9495 105.859 27.2647 106.57 27.9739C107.28 28.6831 107.676 29.5498 107.676 30.7318C107.676 31.835 107.28 32.7018 106.57 33.411C105.859 34.1202 104.911 34.5142 103.805 34.5142C102.699 34.5142 101.751 34.199 101.04 33.4898C100.329 32.7806 99.9336 31.9138 99.9336 30.7318ZM101.277 30.7318C101.277 31.441 101.514 32.0714 101.988 32.5442C102.462 33.017 103.015 33.2534 103.726 33.2534C104.516 33.2534 105.069 33.017 105.543 32.5442C106.017 32.0714 106.175 31.441 106.175 30.7318C106.175 30.0226 105.938 29.3922 105.464 28.9194C104.99 28.4467 104.437 28.2103 103.726 28.2103C103.015 28.2103 102.462 28.4467 101.988 28.9194C101.514 29.3922 101.277 30.0226 101.277 30.7318Z" fill="#FFB50D"/>
<path d="M110.678 28.2889H108.308V27.1069H114.391V28.2889H112.021V34.4353H110.678V28.2889Z" fill="#FFB50D"/>
<path d="M120 34.4353H115.655V27.1069H119.921V28.2889H116.919V30.1013H119.605V31.3621H116.919V33.2533H120V34.4353Z" fill="#FFB50D"/>
<path d="M61.8568 39.242C61.6988 39.242 61.6198 39.1632 61.5408 39.0844C61.4618 39.0056 61.3828 38.9268 61.3828 38.7692C61.3828 38.6116 61.4618 38.5328 61.5408 38.454C61.6198 38.3752 61.6988 38.2964 61.8568 38.2964C62.0148 38.2964 62.0938 38.3752 62.1728 38.454C62.2518 38.5328 62.3308 38.6116 62.3308 38.7692C62.3308 38.9268 62.2518 39.0056 62.1728 39.0844C62.0938 39.242 61.9358 39.242 61.8568 39.242ZM61.8568 40.6604C61.6988 40.6604 61.6198 40.5816 61.5408 40.5028C61.4618 40.424 61.3828 40.3452 61.3828 40.1876C61.3828 40.03 61.4618 39.9512 61.5408 39.8724C61.6198 39.7936 61.6988 39.7148 61.8568 39.7148C62.0148 39.7148 62.0938 39.7936 62.1728 39.8724C62.2518 39.9512 62.3308 40.03 62.3308 40.1876C62.3308 40.3452 62.2518 40.424 62.1728 40.5028C62.0938 40.5816 61.9358 40.6604 61.8568 40.6604ZM61.8568 42C61.6988 42 61.6198 41.9212 61.5408 41.8424C61.4618 41.7636 61.3828 41.6848 61.3828 41.5272C61.3828 41.3696 61.4618 41.2908 61.5408 41.212C61.6198 41.1332 61.6988 41.0544 61.8568 41.0544C62.0148 41.0544 62.0938 41.1332 62.1728 41.212C62.2518 41.2908 62.3308 41.3696 62.3308 41.5272C62.3308 41.6848 62.2518 41.7636 62.1728 41.8424C62.0938 42 61.9358 42 61.8568 42ZM63.1998 39.242C63.0418 39.242 62.9628 39.1632 62.8838 39.0844C62.8048 39.0056 62.7258 38.9268 62.7258 38.7692C62.7258 38.6116 62.8048 38.5328 62.8838 38.454C62.9628 38.3752 63.0418 38.2964 63.1998 38.2964C63.3578 38.2964 63.4368 38.3752 63.5158 38.454C63.5948 38.5328 63.6738 38.6116 63.6738 38.7692C63.6738 38.9268 63.5948 39.0056 63.5158 39.0844C63.4368 39.242 63.3578 39.242 63.1998 39.242Z" fill="#FFB50D"/>
<path d="M65.3324 39.242C65.1744 39.242 65.0954 39.1632 65.0164 39.0844C64.9374 39.0056 64.8584 38.9268 64.8584 38.7692C64.8584 38.6116 64.9374 38.5328 65.0164 38.454C65.0954 38.3752 65.1744 38.2964 65.3324 38.2964C65.4904 38.2964 65.5694 38.3752 65.6484 38.454C65.7274 38.5328 65.8064 38.6116 65.8064 38.7692C65.8064 38.9268 65.7274 39.0056 65.6484 39.0844C65.5694 39.242 65.4904 39.242 65.3324 39.242ZM65.3324 40.6604C65.1744 40.6604 65.0954 40.5816 65.0164 40.5028C64.9374 40.424 64.8584 40.3452 64.8584 40.1876C64.8584 40.03 64.9374 39.9512 65.0164 39.8724C65.0954 39.7936 65.1744 39.7148 65.3324 39.7148C65.4904 39.7148 65.5694 39.7936 65.6484 39.8724C65.7274 39.9512 65.8064 40.03 65.8064 40.1876C65.8064 40.3452 65.7274 40.424 65.6484 40.5028C65.5694 40.5816 65.4904 40.6604 65.3324 40.6604ZM65.3324 42C65.1744 42 65.0954 41.9212 65.0164 41.8424C64.9374 41.7636 64.8584 41.6848 64.8584 41.5272C64.8584 41.3696 64.9374 41.2908 65.0164 41.212C65.0954 41.1332 65.1744 41.0544 65.3324 41.0544C65.4904 41.0544 65.5694 41.1332 65.6484 41.212C65.7274 41.2908 65.8064 41.3696 65.8064 41.5272C65.8064 41.6848 65.7274 41.7636 65.6484 41.8424C65.5694 42 65.4904 42 65.3324 42ZM66.7544 40.6604C66.5964 40.6604 66.5174 40.5816 66.4384 40.5028C66.3594 40.424 66.2804 40.3452 66.2804 40.1876C66.2804 40.03 66.3594 39.9512 66.4384 39.8724C66.5174 39.7936 66.5964 39.7148 66.7544 39.7148C66.9124 39.7148 66.9914 39.7936 67.0704 39.8724C67.1494 39.9512 67.2284 40.03 67.2284 40.1876C67.2284 40.3452 67.1494 40.424 67.0704 40.5028C66.9914 40.5816 66.9124 40.6604 66.7544 40.6604Z" fill="#FFB50D"/>
<path d="M68.8871 39.242C68.7291 39.242 68.6501 39.1632 68.5711 39.0844C68.4921 39.0056 68.4131 38.9268 68.4131 38.7692C68.4131 38.6116 68.4921 38.5328 68.5711 38.454C68.6501 38.3752 68.7291 38.2964 68.8871 38.2964C69.0451 38.2964 69.1241 38.3752 69.2031 38.454C69.2821 38.5328 69.3611 38.6116 69.3611 38.7692C69.3611 38.9268 69.2821 39.0056 69.2031 39.0844C69.1241 39.242 68.9661 39.242 68.8871 39.242ZM68.8871 42C68.7291 42 68.6501 41.9212 68.5711 41.8424C68.4921 41.7636 68.4131 41.6848 68.4131 41.5272C68.4131 41.3696 68.4921 41.2908 68.5711 41.212C68.6501 41.1332 68.7291 41.0544 68.8871 41.0544C69.0451 41.0544 69.1241 41.1332 69.2031 41.212C69.2821 41.2908 69.3611 41.3696 69.3611 41.5272C69.3611 41.6848 69.2821 41.7636 69.2031 41.8424C69.1241 42 68.9661 42 68.8871 42ZM70.3091 40.6604C70.1511 40.6604 70.0721 40.5816 69.9931 40.5028C69.9141 40.424 69.8351 40.3452 69.8351 40.1876C69.8351 40.03 69.9141 39.9512 69.9931 39.8724C70.0721 39.7936 70.1511 39.7148 70.3091 39.7148C70.4671 39.7148 70.5461 39.7936 70.6251 39.8724C70.7041 39.9512 70.7831 40.03 70.7831 40.1876C70.7831 40.3452 70.7041 40.424 70.6251 40.5028C70.4671 40.5816 70.3881 40.6604 70.3091 40.6604Z" fill="#FFB50D"/>
<path d="M72.3636 39.242C72.2056 39.242 72.1266 39.1632 72.0476 39.0844C71.9686 39.0056 71.8896 38.9268 71.8896 38.7692C71.8896 38.6116 71.9686 38.5328 72.0476 38.454C72.1266 38.3752 72.2056 38.2964 72.3636 38.2964C72.5216 38.2964 72.6006 38.3752 72.6796 38.454C72.7586 38.5328 72.8376 38.6116 72.8376 38.7692C72.8376 38.9268 72.7586 39.0056 72.6796 39.0844C72.6006 39.242 72.5216 39.242 72.3636 39.242ZM72.3636 40.6604C72.2056 40.6604 72.1266 40.5816 72.0476 40.5028C71.9686 40.424 71.8896 40.3452 71.8896 40.1876C71.8896 40.03 71.9686 39.9512 72.0476 39.8724C72.1266 39.7936 72.2056 39.7148 72.3636 39.7148C72.5216 39.7148 72.6006 39.7936 72.6796 39.8724C72.7586 39.9512 72.8376 40.03 72.8376 40.1876C72.8376 40.3452 72.7586 40.424 72.6796 40.5028C72.6006 40.5816 72.5216 40.6604 72.3636 40.6604ZM73.7856 39.242C73.6276 39.242 73.5486 39.1632 73.4696 39.0844C73.3906 39.0056 73.3116 38.9268 73.3116 38.7692C73.3116 38.6116 73.3906 38.5328 73.4696 38.454C73.5486 38.3752 73.6276 38.2964 73.7856 38.2964C73.9436 38.2964 74.0226 38.3752 74.1016 38.454C74.1806 38.5328 74.2596 38.6116 74.2596 38.7692C74.2596 38.9268 74.1806 39.0056 74.1016 39.0844C74.0226 39.242 73.9436 39.242 73.7856 39.242ZM73.7856 40.6604C73.6276 40.6604 73.5486 40.5816 73.4696 40.5028C73.3906 40.424 73.3116 40.3452 73.3116 40.1876C73.3116 40.03 73.3906 39.9512 73.4696 39.8724C73.5486 39.7936 73.6276 39.7148 73.7856 39.7148C73.9436 39.7148 74.0226 39.7936 74.1016 39.8724C74.1806 39.9512 74.2596 40.03 74.2596 40.1876C74.2596 40.3452 74.1806 40.424 74.1016 40.5028C74.0226 40.5816 73.9436 40.6604 73.7856 40.6604Z" fill="#FFB50D"/>
<path d="M75.9183 39.242C75.7603 39.242 75.6813 39.1632 75.6023 39.0844C75.5233 39.0056 75.4443 38.9268 75.4443 38.7692C75.4443 38.6116 75.5233 38.5328 75.6023 38.454C75.6813 38.3752 75.7603 38.2964 75.9183 38.2964C76.0763 38.2964 76.1553 38.3752 76.2343 38.454C76.3133 38.5328 76.3923 38.6116 76.3923 38.7692C76.3923 38.9268 76.3133 39.0056 76.2343 39.0844C76.1553 39.242 76.0763 39.242 75.9183 39.242ZM75.9183 42C75.7603 42 75.6813 41.9212 75.6023 41.8424C75.5233 41.7636 75.4443 41.6848 75.4443 41.5272C75.4443 41.3696 75.5233 41.2908 75.6023 41.212C75.6813 41.1332 75.7603 41.0544 75.9183 41.0544C76.0763 41.0544 76.1553 41.1332 76.2343 41.212C76.3133 41.2908 76.3923 41.3696 76.3923 41.5272C76.3923 41.6848 76.3133 41.7636 76.2343 41.8424C76.1553 42 76.0763 42 75.9183 42ZM77.3403 42C77.1823 42 77.1033 41.9212 77.0243 41.8424C76.9453 41.7636 76.8663 41.6848 76.8663 41.5272C76.8663 41.3696 76.9453 41.2908 77.0243 41.212C77.1033 41.1332 77.1823 41.0544 77.3403 41.0544C77.4983 41.0544 77.5773 41.1332 77.6563 41.212C77.7353 41.2908 77.8143 41.3696 77.8143 41.5272C77.8143 41.6848 77.7353 41.7636 77.6563 41.8424C77.5773 42 77.4193 42 77.3403 42Z" fill="#FFB50D"/>
<path d="M79.473 39.242C79.315 39.242 79.236 39.1632 79.157 39.0844C79.078 39.0056 78.999 38.9268 78.999 38.7692C78.999 38.6116 79.078 38.5328 79.157 38.454C79.236 38.3752 79.315 38.2964 79.473 38.2964C79.631 38.2964 79.71 38.3752 79.789 38.454C79.868 38.5328 79.947 38.6116 79.947 38.7692C79.947 38.9268 79.868 39.0056 79.789 39.0844C79.71 39.242 79.552 39.242 79.473 39.242ZM79.473 40.6604C79.315 40.6604 79.236 40.5816 79.157 40.5028C79.078 40.424 78.999 40.3452 78.999 40.1876C78.999 40.03 79.078 39.9512 79.157 39.8724C79.236 39.7936 79.315 39.7148 79.473 39.7148C79.631 39.7148 79.71 39.7936 79.789 39.8724C79.868 39.9512 79.947 40.03 79.947 40.1876C79.947 40.3452 79.868 40.424 79.789 40.5028C79.71 40.5816 79.552 40.6604 79.473 40.6604ZM79.473 42C79.315 42 79.236 41.9212 79.157 41.8424C79.078 41.7636 78.999 41.6848 78.999 41.5272C78.999 41.3696 79.078 41.2908 79.157 41.212C79.236 41.1332 79.315 41.0544 79.473 41.0544C79.631 41.0544 79.71 41.1332 79.789 41.212C79.868 41.2908 79.947 41.3696 79.947 41.5272C79.947 41.6848 79.868 41.7636 79.789 41.8424C79.71 42 79.552 42 79.473 42Z" fill="#FFB50D"/>
<path d="M82.9496 39.242C82.7916 39.242 82.7126 39.1632 82.6336 39.0844C82.5546 39.0056 82.4756 38.9268 82.4756 38.7692C82.4756 38.6116 82.5546 38.5328 82.6336 38.454C82.7126 38.3752 82.7916 38.2964 82.9496 38.2964C83.1076 38.2964 83.1866 38.3752 83.2656 38.454C83.3446 38.5328 83.4236 38.6116 83.4236 38.7692C83.4236 38.9268 83.3446 39.0056 83.2656 39.0844C83.1866 39.242 83.1076 39.242 82.9496 39.242ZM82.9496 42C82.7916 42 82.7126 41.9212 82.6336 41.8424C82.5546 41.7636 82.4756 41.6848 82.4756 41.5272C82.4756 41.3696 82.5546 41.2908 82.6336 41.212C82.7126 41.1332 82.7916 41.0544 82.9496 41.0544C83.1076 41.0544 83.1866 41.1332 83.2656 41.212C83.3446 41.2908 83.4236 41.3696 83.4236 41.5272C83.4236 41.6848 83.3446 41.7636 83.2656 41.8424C83.1866 42 83.1076 42 82.9496 42Z" fill="#FFB50D"/>
<path d="M86.5043 39.242C86.3463 39.242 86.2673 39.1632 86.1883 39.0844C86.1093 39.0056 86.0303 38.9268 86.0303 38.7692C86.0303 38.6116 86.1093 38.5328 86.1883 38.454C86.2673 38.3752 86.3463 38.2964 86.5043 38.2964C86.6623 38.2964 86.7413 38.3752 86.8203 38.454C86.8993 38.5328 86.9783 38.6116 86.9783 38.7692C86.9783 38.9268 86.8993 39.0056 86.8203 39.0844C86.7413 39.242 86.5833 39.242 86.5043 39.242Z" fill="#FFB50D"/>
<path d="M91.7181 40.6604C91.5601 40.6604 91.4811 40.5816 91.4021 40.5028C91.3231 40.424 91.2441 40.3452 91.2441 40.1876C91.2441 40.03 91.3231 39.9512 91.4021 39.8724C91.4811 39.7936 91.5601 39.7148 91.7181 39.7148C91.8761 39.7148 91.9551 39.7936 92.0341 39.8724C92.1131 39.9512 92.1921 40.03 92.1921 40.1876C92.1921 40.3452 92.1131 40.424 92.0341 40.5028C91.9551 40.5816 91.8761 40.6604 91.7181 40.6604ZM93.1401 39.242C92.9821 39.242 92.9031 39.1632 92.8241 39.0844C92.7451 39.0056 92.6661 38.9268 92.6661 38.7692C92.6661 38.6116 92.7451 38.5328 92.8241 38.454C92.9031 38.3752 92.9821 38.2964 93.1401 38.2964C93.2981 38.2964 93.3771 38.3752 93.4561 38.454C93.5351 38.5328 93.6141 38.6116 93.6141 38.7692C93.6141 38.9268 93.5351 39.0056 93.4561 39.0844C93.3771 39.242 93.2981 39.242 93.1401 39.242ZM93.1401 40.6604C92.9821 40.6604 92.9031 40.5816 92.8241 40.5028C92.7451 40.424 92.6661 40.3452 92.6661 40.1876C92.6661 40.03 92.7451 39.9512 92.8241 39.8724C92.9031 39.7936 92.9821 39.7148 93.1401 39.7148C93.2981 39.7148 93.3771 39.7936 93.4561 39.8724C93.5351 39.9512 93.6141 40.03 93.6141 40.1876C93.6141 40.3452 93.5351 40.424 93.4561 40.5028C93.3771 40.5816 93.2981 40.6604 93.1401 40.6604ZM93.1401 42C92.9821 42 92.9031 41.9212 92.8241 41.8424C92.7451 41.7636 92.6661 41.6848 92.6661 41.5272C92.6661 41.3696 92.7451 41.2908 92.8241 41.212C92.9031 41.1332 92.9821 41.0544 93.1401 41.0544C93.2981 41.0544 93.3771 41.1332 93.4561 41.212C93.5351 41.2908 93.6141 41.3696 93.6141 41.5272C93.6141 41.6848 93.5351 41.7636 93.4561 41.8424C93.3771 42 93.2981 42 93.1401 42Z" fill="#FFB50D"/>
<path d="M97.0111 40.6604C96.8531 40.6604 96.7741 40.5816 96.6951 40.5028C96.6161 40.424 96.5371 40.3452 96.5371 40.1876C96.5371 40.03 96.6161 39.9512 96.6951 39.8724C96.7741 39.7936 96.8531 39.7148 97.0111 39.7148C97.1691 39.7148 97.2481 39.7936 97.3271 39.8724C97.4061 39.9512 97.4851 40.03 97.4851 40.1876C97.4851 40.3452 97.4061 40.424 97.3271 40.5028C97.2481 40.5816 97.1691 40.6604 97.0111 40.6604ZM97.0111 42C96.8531 42 96.7741 41.9212 96.6951 41.8424C96.6161 41.7636 96.5371 41.6848 96.5371 41.5272C96.5371 41.3696 96.6161 41.2908 96.6951 41.212C96.7741 41.1332 96.8531 41.0544 97.0111 41.0544C97.1691 41.0544 97.2481 41.1332 97.3271 41.212C97.4061 41.2908 97.4851 41.3696 97.4851 41.5272C97.4851 41.6848 97.4061 41.7636 97.3271 41.8424C97.2481 42 97.1691 42 97.0111 42ZM98.4331 39.242C98.2751 39.242 98.1961 39.1632 98.1171 39.0844C98.0381 39.0056 97.9591 38.9268 97.9591 38.7692C97.9591 38.6116 98.0381 38.5328 98.1171 38.454C98.1961 38.3752 98.2751 38.2964 98.4331 38.2964C98.5911 38.2964 98.6701 38.3752 98.7491 38.454C98.8281 38.5328 98.9071 38.6116 98.9071 38.7692C98.9071 38.9268 98.8281 39.0056 98.7491 39.0844C98.6701 39.242 98.5121 39.242 98.4331 39.242ZM98.4331 40.6604C98.2751 40.6604 98.1961 40.5816 98.1171 40.5028C98.0381 40.424 97.9591 40.3452 97.9591 40.1876C97.9591 40.03 98.0381 39.9512 98.1171 39.8724C98.1961 39.7936 98.2751 39.7148 98.4331 39.7148C98.5911 39.7148 98.6701 39.7936 98.7491 39.8724C98.8281 39.9512 98.9071 40.03 98.9071 40.1876C98.9071 40.3452 98.8281 40.424 98.7491 40.5028C98.6701 40.5816 98.5121 40.6604 98.4331 40.6604Z" fill="#FFB50D"/>
<path d="M100.566 39.242C100.408 39.242 100.329 39.1632 100.25 39.0844C100.171 39.0056 100.092 38.9268 100.092 38.7692C100.092 38.6116 100.171 38.5328 100.25 38.454C100.329 38.3752 100.408 38.2964 100.566 38.2964C100.724 38.2964 100.803 38.3752 100.882 38.454C100.961 38.5328 101.04 38.6116 101.04 38.7692C101.04 38.9268 100.961 39.0056 100.882 39.0844C100.803 39.242 100.645 39.242 100.566 39.242ZM101.909 40.6604C101.751 40.6604 101.672 40.5816 101.593 40.5028C101.514 40.424 101.435 40.3452 101.435 40.1876C101.435 40.03 101.514 39.9512 101.593 39.8724C101.672 39.7936 101.751 39.7148 101.909 39.7148C102.067 39.7148 102.146 39.7936 102.225 39.8724C102.304 39.9512 102.383 40.03 102.383 40.1876C102.383 40.3452 102.304 40.424 102.225 40.5028C102.146 40.5816 102.067 40.6604 101.909 40.6604Z" fill="#FFB50D"/>
<path d="M104.042 39.242C103.884 39.242 103.805 39.1632 103.726 39.0844C103.647 39.0056 103.568 38.9268 103.568 38.7692C103.568 38.6116 103.647 38.5328 103.726 38.454C103.805 38.3752 103.884 38.2964 104.042 38.2964C104.2 38.2964 104.279 38.3752 104.358 38.454C104.437 38.5328 104.516 38.6116 104.516 38.7692C104.516 38.9268 104.437 39.0056 104.358 39.0844C104.279 39.242 104.2 39.242 104.042 39.242ZM104.042 42C103.884 42 103.805 41.9212 103.726 41.8424C103.647 41.7636 103.568 41.6848 103.568 41.5272C103.568 41.3696 103.647 41.2908 103.726 41.212C103.805 41.1332 103.884 41.0544 104.042 41.0544C104.2 41.0544 104.279 41.1332 104.358 41.212C104.437 41.2908 104.516 41.3696 104.516 41.5272C104.516 41.6848 104.437 41.7636 104.358 41.8424C104.279 42 104.2 42 104.042 42ZM105.464 39.242C105.306 39.242 105.227 39.1632 105.148 39.0844C105.069 39.0056 104.99 38.9268 104.99 38.7692C104.99 38.6116 105.069 38.5328 105.148 38.454C105.227 38.3752 105.306 38.2964 105.464 38.2964C105.622 38.2964 105.701 38.3752 105.78 38.454C105.859 38.5328 105.938 38.6116 105.938 38.7692C105.938 38.9268 105.859 39.0056 105.78 39.0844C105.701 39.242 105.622 39.242 105.464 39.242Z" fill="#FFB50D"/>
<path d="M107.597 39.242C107.439 39.242 107.36 39.1632 107.281 39.0844C107.202 39.0056 107.123 38.9268 107.123 38.7692C107.123 38.6116 107.202 38.5328 107.281 38.454C107.36 38.3752 107.439 38.2964 107.597 38.2964C107.755 38.2964 107.834 38.3752 107.913 38.454C107.992 38.5328 108.071 38.6116 108.071 38.7692C108.071 38.9268 107.992 39.0056 107.913 39.0844C107.834 39.242 107.676 39.242 107.597 39.242ZM107.597 42C107.439 42 107.36 41.9212 107.281 41.8424C107.202 41.7636 107.123 41.6848 107.123 41.5272C107.123 41.3696 107.202 41.2908 107.281 41.212C107.36 41.1332 107.439 41.0544 107.597 41.0544C107.755 41.0544 107.834 41.1332 107.913 41.212C107.992 41.2908 108.071 41.3696 108.071 41.5272C108.071 41.6848 107.992 41.7636 107.913 41.8424C107.834 42 107.676 42 107.597 42ZM109.019 39.242C108.861 39.242 108.782 39.1632 108.703 39.0844C108.624 39.0056 108.545 38.9268 108.545 38.7692C108.545 38.6116 108.624 38.5328 108.703 38.454C108.782 38.3752 108.861 38.2964 109.019 38.2964C109.177 38.2964 109.256 38.3752 109.335 38.454C109.414 38.5328 109.493 38.6116 109.493 38.7692C109.493 38.9268 109.414 39.0056 109.335 39.0844C109.177 39.242 109.098 39.242 109.019 39.242ZM109.019 40.6604C108.861 40.6604 108.782 40.5816 108.703 40.5028C108.624 40.424 108.545 40.3452 108.545 40.1876C108.545 40.03 108.624 39.9512 108.703 39.8724C108.782 39.7936 108.861 39.7148 109.019 39.7148C109.177 39.7148 109.256 39.7936 109.335 39.8724C109.414 39.9512 109.493 40.03 109.493 40.1876C109.493 40.3452 109.414 40.424 109.335 40.5028C109.177 40.5816 109.098 40.6604 109.019 40.6604Z" fill="#FFB50D"/>
<path d="M111.073 39.242C110.915 39.242 110.836 39.1632 110.757 39.0844C110.678 39.0056 110.599 38.9268 110.599 38.7692C110.599 38.6116 110.678 38.5328 110.757 38.454C110.836 38.3752 110.915 38.2964 111.073 38.2964C111.231 38.2964 111.31 38.3752 111.389 38.454C111.468 38.5328 111.547 38.6116 111.547 38.7692C111.547 38.9268 111.468 39.0056 111.389 39.0844C111.31 39.242 111.231 39.242 111.073 39.242ZM111.073 42C110.915 42 110.836 41.9212 110.757 41.8424C110.678 41.7636 110.599 41.6848 110.599 41.5272C110.599 41.3696 110.678 41.2908 110.757 41.212C110.836 41.1332 110.915 41.0544 111.073 41.0544C111.231 41.0544 111.31 41.1332 111.389 41.212C111.468 41.2908 111.547 41.3696 111.547 41.5272C111.547 41.6848 111.468 41.7636 111.389 41.8424C111.31 42 111.231 42 111.073 42ZM112.495 40.6604C112.337 40.6604 112.258 40.5816 112.179 40.5028C112.1 40.424 112.021 40.3452 112.021 40.1876C112.021 40.03 112.1 39.9512 112.179 39.8724C112.258 39.7936 112.337 39.7148 112.495 39.7148C112.653 39.7148 112.732 39.7936 112.811 39.8724C112.89 39.9512 112.969 40.03 112.969 40.1876C112.969 40.3452 112.89 40.424 112.811 40.5028C112.732 40.5816 112.653 40.6604 112.495 40.6604Z" fill="#FFB50D"/>
<path d="M114.628 40.6604C114.47 40.6604 114.391 40.5816 114.312 40.5028C114.233 40.424 114.154 40.3452 114.154 40.1876C114.154 40.03 114.233 39.9512 114.312 39.8724C114.391 39.7936 114.47 39.7148 114.628 39.7148C114.786 39.7148 114.865 39.7936 114.944 39.8724C115.023 39.9512 115.102 40.03 115.102 40.1876C115.102 40.3452 115.023 40.424 114.944 40.5028C114.865 40.5816 114.786 40.6604 114.628 40.6604ZM114.628 42C114.47 42 114.391 41.9212 114.312 41.8424C114.233 41.7636 114.154 41.6848 114.154 41.5272C114.154 41.3696 114.233 41.2908 114.312 41.212C114.391 41.1332 114.47 41.0544 114.628 41.0544C114.786 41.0544 114.865 41.1332 114.944 41.212C115.023 41.2908 115.102 41.3696 115.102 41.5272C115.102 41.6848 115.023 41.7636 114.944 41.8424C114.865 42 114.786 42 114.628 42ZM116.05 39.242C115.892 39.242 115.813 39.1632 115.734 39.0844C115.655 39.0056 115.576 38.9268 115.576 38.7692C115.576 38.6116 115.655 38.5328 115.734 38.454C115.813 38.3752 115.892 38.2964 116.05 38.2964C116.208 38.2964 116.287 38.3752 116.366 38.454C116.445 38.5328 116.524 38.6116 116.524 38.7692C116.524 38.9268 116.445 39.0056 116.366 39.0844C116.287 39.242 116.129 39.242 116.05 39.242ZM116.05 40.6604C115.892 40.6604 115.813 40.5816 115.734 40.5028C115.655 40.424 115.576 40.3452 115.576 40.1876C115.576 40.03 115.655 39.9512 115.734 39.8724C115.813 39.7936 115.892 39.7148 116.05 39.7148C116.208 39.7148 116.287 39.7936 116.366 39.8724C116.445 39.9512 116.524 40.03 116.524 40.1876C116.524 40.3452 116.445 40.424 116.366 40.5028C116.287 40.5816 116.129 40.6604 116.05 40.6604Z" fill="#FFB50D"/>
<path d="M118.183 39.242C118.025 39.242 117.946 39.1632 117.867 39.0844C117.788 39.0056 117.709 38.9268 117.709 38.7692C117.709 38.6116 117.788 38.5328 117.867 38.454C117.946 38.3752 118.025 38.2964 118.183 38.2964C118.341 38.2964 118.42 38.3752 118.499 38.454C118.578 38.5328 118.657 38.6116 118.657 38.7692C118.657 38.9268 118.578 39.0056 118.499 39.0844C118.42 39.242 118.262 39.242 118.183 39.242ZM119.526 40.6604C119.368 40.6604 119.289 40.5816 119.21 40.5028C119.131 40.424 119.052 40.3452 119.052 40.1876C119.052 40.03 119.131 39.9512 119.21 39.8724C119.289 39.7936 119.368 39.7148 119.526 39.7148C119.684 39.7148 119.763 39.7936 119.842 39.8724C119.921 39.9512 120 40.03 120 40.1876C120 40.3452 119.921 40.424 119.842 40.5028C119.763 40.5816 119.684 40.6604 119.526 40.6604Z" fill="#FFB50D"/>
</svg>
