<svg width="45" height="36" viewBox="0 0 45 36" fill="none" xmlns="http://www.w3.org/2000/svg">
<path d="M21.0818 14.5481C23.6993 16.7765 26.2763 18.2981 26.3847 18.3618C26.5171 18.4394 26.6691 18.4805 26.8226 18.4805C26.9762 18.4805 27.1271 18.4394 27.2596 18.3618C27.368 18.2981 29.9449 16.7766 32.5625 14.5481C36.2015 11.4502 38.0466 8.5953 38.0466 6.06255C38.0466 2.71958 35.3269 0 31.9841 0C29.8202 0 27.896 1.14108 26.8221 2.88131C25.7483 1.14108 23.824 0 21.6602 0C18.3172 0 15.5977 2.71967 15.5977 6.06255C15.5977 8.59521 17.4427 11.4501 21.0818 14.5481ZM21.6602 1.72528C23.8559 1.72528 25.7067 3.36738 25.9654 5.54486C26.0169 5.97893 26.385 6.30575 26.8221 6.30575C27.2593 6.30575 27.6273 5.97885 27.6788 5.54486C27.9376 3.36738 29.7884 1.72528 31.9841 1.72528C34.3756 1.72528 36.3211 3.67099 36.3211 6.06238C36.3211 9.93928 29.8346 14.7508 26.8221 16.6105C23.8095 14.7507 17.3231 9.93928 17.3231 6.06238C17.3231 3.67082 19.2687 1.72528 21.6602 1.72528Z" fill="url(#paint0_linear_83_5219)"/>
<path d="M26.8225 14.371C26.9913 14.371 27.1617 14.3217 27.3111 14.2187C28.4336 13.4454 29.4708 12.6523 30.3942 11.8616C30.7243 11.5788 31.0425 11.2936 31.34 11.014C31.687 10.6876 31.7038 10.1416 31.3774 9.79451C31.051 9.4475 30.5051 9.43066 30.1578 9.75705C29.8799 10.0185 29.5818 10.2856 29.2719 10.5509C28.3941 11.3027 27.4052 12.0587 26.3323 12.7977C25.9399 13.068 25.8411 13.6052 26.1113 13.9975C26.2787 14.2406 26.5483 14.371 26.8225 14.371Z" fill="url(#paint1_linear_83_5219)"/>
<path d="M32.4014 8.68422C32.5516 8.78863 32.7233 8.83873 32.8933 8.83873C33.1661 8.83873 33.4346 8.70957 33.6023 8.46851C33.6241 8.43732 33.6454 8.40612 33.6663 8.37527C33.9334 7.98064 33.8299 7.44431 33.4353 7.17722C33.0407 6.91029 32.5045 7.01368 32.2373 7.40822C32.2205 7.43305 32.2032 7.45806 32.1857 7.48324C31.9137 7.87451 32.0103 8.41214 32.4014 8.68422Z" fill="url(#paint2_linear_83_5219)"/>
<path d="M44.2673 22.869C43.289 21.1743 41.176 20.5763 39.4548 21.5062L33.3728 24.7143C33.3699 24.7159 33.3671 24.7173 33.3642 24.7189C32.5935 25.1367 31.7342 25.3799 30.8601 25.43C31.1163 24.9598 31.2619 24.4209 31.2619 23.8489C31.2619 22.0204 29.7742 20.5327 27.9457 20.5327H23.0054C19.6628 20.5327 16.8097 21.6473 14.8385 23.66V22.5851C14.8385 21.5736 14.0157 20.7507 13.0042 20.7507H1.61273C1.13629 20.7506 0.75 21.1369 0.75 21.6133V34.6877C0.75 35.1641 1.13629 35.5505 1.61273 35.5505L13.0042 35.5616C14.0157 35.5616 14.8385 34.7388 14.8385 33.7273V32.8712L18.3434 33.7855C19.2548 34.0233 20.1948 34.1439 21.1372 34.1439H29.0678C30.3421 34.1439 31.6081 33.8232 32.7235 33.2195L42.8697 27.8172C43.7284 27.3518 44.3475 26.5779 44.613 25.6381C44.8784 24.6983 44.7556 23.7148 44.2673 22.869ZM8.04825 33.8249H2.47545V22.4759H8.04825V33.8249ZM13.1131 26.2367C13.1097 26.2824 13.1091 26.3284 13.1131 26.374V31.7545V33.7272C13.1131 33.7872 13.0642 33.8361 13.0042 33.8361H9.77361V22.4759H13.0042C13.0642 22.4759 13.1131 22.5247 13.1131 22.5849V26.2367ZM42.9525 25.1691C42.8146 25.657 42.4933 26.0587 42.0531 26.2972L31.9073 31.6993C31.0382 32.1698 30.0562 32.4185 29.0678 32.4185H21.1372C20.3418 32.4185 19.5484 32.3166 18.779 32.1159L14.8385 31.088V26.5138C16.3604 23.8058 19.3232 22.2577 23.0054 22.2577H27.9457C28.823 22.2577 29.5365 22.9713 29.5365 23.8485C29.5365 24.7258 28.823 25.4394 27.9457 25.4394H22.0543C21.578 25.4394 21.1916 25.8257 21.1916 26.3021C21.1916 26.7785 21.5779 27.1648 22.0543 27.1648H27.9457H30.5218C31.796 27.1648 33.0614 26.8444 34.182 26.2379L40.264 23.0298C40.2669 23.0282 40.2698 23.0268 40.2726 23.0252C41.1667 22.5406 42.2649 22.8509 42.7731 23.7315C43.0265 24.1707 43.0902 24.6812 42.9525 25.1691Z" fill="url(#paint3_linear_83_5219)"/>
<defs>
<linearGradient id="paint0_linear_83_5219" x1="15.5977" y1="0" x2="29.4756" y2="23.5347" gradientUnits="userSpaceOnUse">
<stop stop-color="#E9277C"/>
<stop offset="0.0001" stop-color="#F03482"/>
<stop offset="1" stop-color="#FF783E"/>
</linearGradient>
<linearGradient id="paint1_linear_83_5219" x1="25.959" y1="9.52284" x2="29.6703" y2="15.5637" gradientUnits="userSpaceOnUse">
<stop stop-color="#E9277C"/>
<stop offset="0.0001" stop-color="#F03482"/>
<stop offset="1" stop-color="#FF783E"/>
</linearGradient>
<linearGradient id="paint2_linear_83_5219" x1="32.0312" y1="7.02898" x2="33.5085" y2="9.06125" gradientUnits="userSpaceOnUse">
<stop stop-color="#E9277C"/>
<stop offset="0.0001" stop-color="#F03482"/>
<stop offset="1" stop-color="#FF783E"/>
</linearGradient>
<linearGradient id="paint3_linear_83_5219" x1="0.75" y1="20.5327" x2="6.70451" y2="44.8701" gradientUnits="userSpaceOnUse">
<stop stop-color="#E9277C"/>
<stop offset="0.0001" stop-color="#F03482"/>
<stop offset="1" stop-color="#FF783E"/>
</linearGradient>
</defs>
</svg>
