<svg width="45" height="36" viewBox="0 0 45 36" fill="none" xmlns="http://www.w3.org/2000/svg">
<path d="M20.9997 14.5481C23.6173 16.7765 26.1942 18.2981 26.3027 18.3618C26.4351 18.4394 26.587 18.4805 26.7406 18.4805C26.8942 18.4805 27.0451 18.4394 27.1775 18.3618C27.286 18.2981 29.8629 16.7766 32.4805 14.5481C36.1195 11.4502 37.9646 8.5953 37.9646 6.06255C37.9646 2.71958 35.2449 0 31.902 0C29.7382 0 27.814 1.14108 26.7401 2.88131C25.6663 1.14108 23.742 0 21.5782 0C18.2352 0 15.5156 2.71967 15.5156 6.06255C15.5156 8.59521 17.3607 11.4501 20.9997 14.5481ZM21.5782 1.72528C23.7739 1.72528 25.6246 3.36738 25.8834 5.54486C25.9349 5.97893 26.3029 6.30575 26.7401 6.30575C27.1773 6.30575 27.5452 5.97885 27.5968 5.54486C27.8556 3.36738 29.7063 1.72528 31.902 1.72528C34.2936 1.72528 36.2391 3.67099 36.2391 6.06238C36.2391 9.93928 29.7526 14.7508 26.7401 16.6105C23.7275 14.7507 17.2411 9.93928 17.2411 6.06238C17.2411 3.67082 19.1867 1.72528 21.5782 1.72528Z" fill="#FFB50D"/>
<path d="M26.7405 14.371C26.9093 14.371 27.0797 14.3217 27.2291 14.2187C28.3515 13.4454 29.3887 12.6523 30.3122 11.8616C30.6423 11.5788 30.9604 11.2936 31.2579 11.014C31.605 10.6876 31.6217 10.1416 31.2953 9.7945C30.9689 9.44748 30.4231 9.43064 30.0758 9.75703C29.7979 10.0185 29.4998 10.2856 29.1899 10.5509C28.3121 11.3027 27.3231 12.0587 26.2503 12.7977C25.8579 13.068 25.7591 13.6051 26.0292 13.9975C26.1967 14.2406 26.4662 14.371 26.7405 14.371Z" fill="#FFB50D"/>
<path d="M32.3194 8.68423C32.4695 8.78865 32.6412 8.83875 32.8112 8.83875C33.0841 8.83875 33.3525 8.70958 33.5203 8.46853C33.542 8.43733 33.5633 8.40614 33.5843 8.37529C33.8513 7.98066 33.7479 7.44432 33.3533 7.17723C32.9587 6.91031 32.4224 7.01369 32.1553 7.40823C32.1385 7.43307 32.1211 7.45807 32.1037 7.48325C31.8317 7.87453 31.9283 8.41215 32.3194 8.68423Z" fill="#FFB50D"/>
<path d="M44.1853 22.869C43.207 21.1743 41.0939 20.5763 39.3728 21.5062L33.2908 24.7143C33.2879 24.7159 33.285 24.7174 33.2821 24.7189C32.5114 25.1367 31.6521 25.3799 30.7781 25.43C31.0343 24.9598 31.1798 24.421 31.1798 23.8489C31.1798 22.0204 29.6922 20.5327 27.8637 20.5327H22.9234C19.5808 20.5327 16.7277 21.6473 14.7565 23.66V22.5852C14.7565 21.5736 13.9336 20.7507 12.9221 20.7507H1.5307C1.05426 20.7506 0.667969 21.1369 0.667969 21.6133V34.6877C0.667969 35.1641 1.05426 35.5505 1.5307 35.5505L12.9221 35.5616C13.9336 35.5616 14.7565 34.7388 14.7565 33.7273V32.8712L18.2614 33.7855C19.1728 34.0234 20.1128 34.1439 21.0552 34.1439H28.9858C30.26 34.1439 31.5261 33.8232 32.6415 33.2195L42.7877 27.8172C43.6464 27.3518 44.2655 26.5779 44.5309 25.6381C44.7964 24.6983 44.6736 23.7148 44.1853 22.869ZM7.96622 33.8249H2.39342V22.4759H7.96622V33.8249ZM13.031 26.2367C13.0277 26.2825 13.0271 26.3284 13.031 26.3741V31.7545V33.7272C13.031 33.7872 12.9822 33.8361 12.9221 33.8361H9.69158V22.4759H12.9221C12.9821 22.4759 13.031 22.5247 13.031 22.5849V26.2367ZM42.8704 25.1691C42.7326 25.657 42.4113 26.0588 41.9711 26.2972L31.8252 31.6994C30.9561 32.1698 29.9742 32.4185 28.9858 32.4185H21.0552C20.2598 32.4185 19.4664 32.3166 18.697 32.1159L14.7565 31.088V26.5138C16.2784 23.8058 19.2411 22.2577 22.9234 22.2577H27.8637C28.7409 22.2577 29.4545 22.9713 29.4545 23.8485C29.4545 24.7258 28.7409 25.4394 27.8637 25.4394H21.9723C21.496 25.4394 21.1096 25.8257 21.1096 26.3021C21.1096 26.7785 21.4959 27.1649 21.9723 27.1649H27.8637H30.4397C31.7139 27.1649 32.9794 26.8444 34.1 26.2379L40.182 23.0298C40.1849 23.0283 40.1877 23.0268 40.1906 23.0252C41.0847 22.5406 42.1828 22.851 42.6911 23.7315C42.9444 24.1707 43.0082 24.6813 42.8704 25.1691Z" fill="#FFB50D"/>
</svg>
