<svg width="22" height="17" viewBox="0 0 22 17" fill="none" xmlns="http://www.w3.org/2000/svg">
<path d="M20.5533 0.229191C20.4625 0.219827 20.3709 0.219827 20.28 0.229191H1.61334C1.49371 0.231034 1.37486 0.248973 1.26001 0.282524L10.8933 9.87586L20.5533 0.229191Z" fill="url(#paint0_linear_35_916)"/>
<path d="M21.54 1.15601L11.8333 10.8227C11.5835 11.071 11.2455 11.2104 10.8933 11.2104C10.541 11.2104 10.2031 11.071 9.95329 10.8227L0.333288 1.22934C0.303714 1.33803 0.288034 1.45004 0.286621 1.56267V14.896C0.286621 15.2496 0.427097 15.5888 0.677145 15.8388C0.927194 16.0889 1.26633 16.2293 1.61995 16.2293H20.2866C20.6402 16.2293 20.9794 16.0889 21.2294 15.8388C21.4795 15.5888 21.62 15.2496 21.62 14.896V1.56267C21.6146 1.42378 21.5877 1.28656 21.54 1.15601ZM2.53329 14.896H1.60662V13.9427L6.45329 9.13601L7.39329 10.076L2.53329 14.896ZM20.2733 14.896H19.34L14.48 10.076L15.42 9.13601L20.2666 13.9427L20.2733 14.896Z" fill="url(#paint1_linear_35_916)"/>
<defs>
<linearGradient id="paint0_linear_35_916" x1="1.26001" y1="0.222168" x2="6.52242" y2="14.9047" gradientUnits="userSpaceOnUse">
<stop stop-color="#E9277C"/>
<stop offset="0.0001" stop-color="#F03482"/>
<stop offset="1" stop-color="#FF783E"/>
</linearGradient>
<linearGradient id="paint1_linear_35_916" x1="0.286621" y1="1.15601" x2="10.71" y2="21.751" gradientUnits="userSpaceOnUse">
<stop stop-color="#E9277C"/>
<stop offset="0.0001" stop-color="#F03482"/>
<stop offset="1" stop-color="#FF783E"/>
</linearGradient>
</defs>
</svg>
