<svg width="20" height="21" viewBox="0 0 20 21" fill="none" xmlns="http://www.w3.org/2000/svg">
<path d="M5.8335 9.66675H7.50016V11.3334H5.8335V9.66675ZM5.8335 13.0001H7.50016V14.6667H5.8335V13.0001ZM9.16683 9.66675H10.8335V11.3334H9.16683V9.66675ZM9.16683 13.0001H10.8335V14.6667H9.16683V13.0001ZM12.5002 9.66675H14.1668V11.3334H12.5002V9.66675ZM12.5002 13.0001H14.1668V14.6667H12.5002V13.0001Z" fill="url(#paint0_linear_184_11561)"/>
<path d="M4.16667 18.8334H15.8333C16.7525 18.8334 17.5 18.0859 17.5 17.1667V5.50008C17.5 4.58091 16.7525 3.83341 15.8333 3.83341H14.1667V2.16675H12.5V3.83341H7.5V2.16675H5.83333V3.83341H4.16667C3.2475 3.83341 2.5 4.58091 2.5 5.50008V17.1667C2.5 18.0859 3.2475 18.8334 4.16667 18.8334ZM15.8333 7.16675L15.8342 17.1667H4.16667V7.16675H15.8333Z" fill="url(#paint1_linear_184_11561)"/>
<defs>
<linearGradient id="paint0_linear_184_11561" x1="5.8335" y1="9.66675" x2="8.94665" y2="16.9103" gradientUnits="userSpaceOnUse">
<stop stop-color="#E9277C"/>
<stop offset="0.0001" stop-color="#F03482"/>
<stop offset="1" stop-color="#FF783E"/>
</linearGradient>
<linearGradient id="paint1_linear_184_11561" x1="2.5" y1="2.16675" x2="16.4378" y2="19.6788" gradientUnits="userSpaceOnUse">
<stop stop-color="#E9277C"/>
<stop offset="0.0001" stop-color="#F03482"/>
<stop offset="1" stop-color="#FF783E"/>
</linearGradient>
</defs>
</svg>
