<svg width="32" height="32" viewBox="0 0 32 32" fill="none" xmlns="http://www.w3.org/2000/svg">
<path d="M9.3335 14.6667H12.0002V17.3334H9.3335V14.6667ZM9.3335 20.0001H12.0002V22.6667H9.3335V20.0001ZM14.6668 14.6667H17.3335V17.3334H14.6668V14.6667ZM14.6668 20.0001H17.3335V22.6667H14.6668V20.0001ZM20.0002 14.6667H22.6668V17.3334H20.0002V14.6667ZM20.0002 20.0001H22.6668V22.6667H20.0002V20.0001Z" fill="url(#paint0_linear_184_12050)"/>
<path d="M6.66667 29.3334H25.3333C26.804 29.3334 28 28.1374 28 26.6667V8.00008C28 6.52941 26.804 5.33341 25.3333 5.33341H22.6667V2.66675H20V5.33341H12V2.66675H9.33333V5.33341H6.66667C5.196 5.33341 4 6.52941 4 8.00008V26.6667C4 28.1374 5.196 29.3334 6.66667 29.3334ZM25.3333 10.6667L25.3347 26.6667H6.66667V10.6667H25.3333Z" fill="url(#paint1_linear_184_12050)"/>
<defs>
<linearGradient id="paint0_linear_184_12050" x1="9.3335" y1="14.6667" x2="14.3145" y2="26.2564" gradientUnits="userSpaceOnUse">
<stop stop-color="#E9277C"/>
<stop offset="0.0001" stop-color="#F03482"/>
<stop offset="1" stop-color="#FF783E"/>
</linearGradient>
<linearGradient id="paint1_linear_184_12050" x1="4" y1="2.66675" x2="26.3004" y2="30.6861" gradientUnits="userSpaceOnUse">
<stop stop-color="#E9277C"/>
<stop offset="0.0001" stop-color="#F03482"/>
<stop offset="1" stop-color="#FF783E"/>
</linearGradient>
</defs>
</svg>
