<svg width="14" height="24" viewBox="0 0 14 24" fill="none" xmlns="http://www.w3.org/2000/svg">
<path d="M6.99808 12.691C3.77889 12.691 1.14502 10.0571 1.14502 6.83792C1.14502 3.61874 3.77889 0.984863 6.99808 0.984863C10.2173 0.984863 12.8511 3.61874 12.8511 6.83792C12.8511 10.0571 10.2173 12.691 6.99808 12.691ZM6.99808 3.76506C5.31532 3.76506 3.92522 5.15517 3.92522 6.83792C3.92522 8.52067 5.31532 9.91077 6.99808 9.91077C8.68083 9.91077 10.0709 8.52067 10.0709 6.83792C10.0709 5.15517 8.68083 3.76506 6.99808 3.76506Z" fill="#A8A8A8"/>
<path d="M13.29 13.2762C12.7778 12.6177 11.8999 12.5445 11.2414 12.9835C11.2414 12.9835 9.63183 14.1541 6.99795 14.1541C4.36408 14.1541 2.75449 12.9835 2.75449 12.9835C2.09602 12.4714 1.21806 12.6177 0.705916 13.2762C0.193774 13.9346 0.3401 14.8126 0.998569 15.3247C1.07173 15.3979 2.60816 16.5685 5.16887 16.9343L1.29122 20.8851C0.705917 21.4704 0.705917 22.4216 1.29122 22.9337C1.58388 23.2264 1.94969 23.3727 2.31551 23.3727C2.68132 23.3727 3.04714 23.2264 3.33979 22.9337L6.99795 19.2024L10.6561 22.9337C10.9488 23.2264 11.3146 23.3727 11.6804 23.3727C12.0462 23.3727 12.412 23.2264 12.7047 22.9337C13.29 22.3484 13.29 21.4704 12.7047 20.8851L8.82703 16.9343C11.3877 16.4953 12.9242 15.3247 12.9973 15.3247C13.6558 14.8126 13.8021 13.8615 13.29 13.2762V13.2762Z" fill="#A8A8A8"/>
</svg>
