<svg width="48" height="48" viewBox="0 0 48 48" fill="none" xmlns="http://www.w3.org/2000/svg">
<g clip-path="url(#clip0_942_18243)">
<path d="M9.69466 13.643C11.8297 13.643 14.2627 10.486 14.2627 7.71701C14.3032 7.09822 14.2142 6.47778 14.0015 5.89533C13.7887 5.31287 13.4567 4.7812 13.0268 4.33428C12.597 3.88736 12.0786 3.53502 11.5048 3.29977C10.9311 3.06451 10.3146 2.95152 9.69466 2.96801C9.07481 2.95167 8.45837 3.06477 7.88468 3.30008C7.311 3.53538 6.79269 3.88773 6.36283 4.33461C5.93298 4.7815 5.60103 5.31311 5.38818 5.8955C5.17534 6.47789 5.08627 7.09826 5.12666 7.71701C5.12666 10.486 7.56066 13.643 9.69466 13.643ZM9.69466 4.46801C10.1178 4.45099 10.5396 4.52487 10.9318 4.68466C11.3239 4.84445 11.6773 5.08644 11.968 5.39432C12.2588 5.70221 12.4801 6.06884 12.6172 6.4695C12.7543 6.87016 12.8039 7.29556 12.7627 7.71701C12.7627 9.86701 10.7627 12.143 9.69466 12.143C8.62666 12.143 6.62666 9.86701 6.62666 7.71701C6.58545 7.29556 6.63505 6.87016 6.77212 6.4695C6.90919 6.06884 7.13055 5.70221 7.42129 5.39432C7.71202 5.08644 8.06537 4.84445 8.45753 4.68466C8.84969 4.52487 9.27154 4.45099 9.69466 4.46801Z" fill="#FFB50D"/>
<path d="M9.69922 29.546C9.50031 29.546 9.30954 29.625 9.16889 29.7657C9.02824 29.9063 8.94922 30.0971 8.94922 30.296V42.529C8.94922 42.7279 9.02824 42.9187 9.16889 43.0594C9.30954 43.2 9.50031 43.279 9.69922 43.279C9.89813 43.279 10.0889 43.2 10.2295 43.0594C10.3702 42.9187 10.4492 42.7279 10.4492 42.529V30.3C10.4497 30.2012 10.4307 30.1032 10.3933 30.0118C10.3558 29.9203 10.3007 29.8372 10.231 29.7671C10.1613 29.697 10.0784 29.6414 9.98716 29.6035C9.8959 29.5655 9.79805 29.546 9.69922 29.546Z" fill="#FFB50D"/>
<path d="M17.867 31.166C18.3293 30.9215 18.716 30.5554 18.9856 30.1073C19.2553 29.6592 19.3975 29.146 19.397 28.623V16.507C19.3973 16.3638 19.3565 16.2235 19.2794 16.1027C19.2023 15.982 19.0921 15.886 18.962 15.826L13.209 13.172C13.1059 13.124 12.9932 13.1002 12.8795 13.1024C12.7658 13.1047 12.6541 13.1329 12.553 13.185L9.694 14.648L6.846 13.186C6.74484 13.1331 6.6328 13.1043 6.51864 13.1019C6.40449 13.0994 6.29133 13.1234 6.188 13.172L0.436002 15.826C0.305786 15.8859 0.195491 15.9819 0.118208 16.1026C0.0409247 16.2233 -0.000100494 16.3637 1.95525e-06 16.507V28.623C-0.000607916 29.1458 0.141465 29.6588 0.410905 30.1067C0.680345 30.5547 1.06693 30.9206 1.529 31.165L3.521 32.222C3.56815 32.2395 3.61713 32.2516 3.667 32.258V42.529C3.667 42.7279 3.74602 42.9187 3.88667 43.0594C4.02732 43.2 4.21809 43.279 4.417 43.279C4.61591 43.279 4.80668 43.2 4.94733 43.0594C5.08798 42.9187 5.167 42.7279 5.167 42.529V20.03C5.167 19.8311 5.08798 19.6404 4.94733 19.4997C4.80668 19.359 4.61591 19.28 4.417 19.28C4.21809 19.28 4.02732 19.359 3.88667 19.4997C3.74602 19.6404 3.667 19.8311 3.667 20.03V30.6L2.232 29.839C2.01101 29.722 1.82609 29.5469 1.69712 29.3327C1.56815 29.1184 1.5 28.8731 1.5 28.623V16.986L6.181 14.827L9.036 20.037C9.10081 20.1548 9.19606 20.2531 9.31181 20.3215C9.42755 20.3899 9.55954 20.426 9.694 20.426C9.82846 20.426 9.96045 20.3899 10.0762 20.3215C10.1919 20.2531 10.2872 20.1548 10.352 20.037L13.215 14.825L17.897 16.985V28.623C17.8972 28.8735 17.829 29.1193 17.6998 29.3339C17.5707 29.5486 17.3854 29.7239 17.164 29.841L15.729 30.602V20.03C15.729 19.8311 15.65 19.6404 15.5093 19.4997C15.3687 19.359 15.1779 19.28 14.979 19.28C14.7801 19.28 14.5893 19.359 14.4487 19.4997C14.308 19.6404 14.229 19.8311 14.229 20.03V42.53C14.229 42.7289 14.308 42.9197 14.4487 43.0604C14.5893 43.201 14.7801 43.28 14.979 43.28C15.1779 43.28 15.3687 43.201 15.5093 43.0604C15.65 42.9197 15.729 42.7289 15.729 42.53V32.265C15.7798 32.2562 15.8294 32.2418 15.877 32.222L17.867 31.166ZM9.7 18.117L8.341 15.637L9.357 16.158C9.4627 16.2127 9.57998 16.2413 9.699 16.2413C9.81802 16.2413 9.9353 16.2127 10.041 16.158L11.064 15.634L9.7 18.117Z" fill="#FFB50D"/>
<path d="M38.2995 13.643C40.4345 13.643 42.8675 10.486 42.8675 7.71699C42.8898 7.10318 42.7881 6.49118 42.5685 5.91755C42.349 5.34392 42.0161 4.82041 41.5897 4.3783C41.1634 3.9362 40.6522 3.58455 40.0869 3.34437C39.5216 3.10419 38.9137 2.98041 38.2995 2.98041C37.6853 2.98041 37.0774 3.10419 36.5121 3.34437C35.9468 3.58455 35.4357 3.9362 35.0093 4.3783C34.5829 4.82041 34.25 5.34392 34.0305 5.91755C33.811 6.49118 33.7093 7.10318 33.7315 7.71699C33.7285 10.486 36.1615 13.643 38.2995 13.643ZM38.2995 4.46799C38.7226 4.45097 39.1445 4.52485 39.5366 4.68464C39.9288 4.84443 40.2822 5.08642 40.5729 5.3943C40.8636 5.70219 41.085 6.06882 41.2221 6.46948C41.3591 6.87015 41.4087 7.29554 41.3675 7.71699C41.3675 9.86699 39.3675 12.143 38.2995 12.143C37.2315 12.143 35.2315 9.86699 35.2315 7.71699C35.1903 7.29554 35.2399 6.87015 35.377 6.46948C35.514 6.06882 35.7354 5.70219 36.0261 5.3943C36.3169 5.08642 36.6702 4.84443 37.0624 4.68464C37.4545 4.52485 37.8764 4.45097 38.2995 4.46799Z" fill="#FFB50D"/>
<path d="M38.3008 29.546C38.1019 29.546 37.9111 29.625 37.7705 29.7657C37.6298 29.9063 37.5508 30.0971 37.5508 30.296V42.529C37.5508 42.7279 37.6298 42.9187 37.7705 43.0594C37.9111 43.2 38.1019 43.279 38.3008 43.279C38.4997 43.279 38.6905 43.2 38.8311 43.0594C38.9718 42.9187 39.0508 42.7279 39.0508 42.529V30.3C39.0513 30.2012 39.0323 30.1032 38.9948 30.0118C38.9574 29.9203 38.9022 29.8372 38.8325 29.7671C38.7628 29.697 38.68 29.6414 38.5887 29.6035C38.4975 29.5655 38.3996 29.546 38.3008 29.546Z" fill="#FFB50D"/>
<path d="M47.5635 15.826L41.8115 13.172C41.7082 13.1239 41.5953 13.1001 41.4815 13.1024C41.3676 13.1046 41.2557 13.1329 41.1545 13.185L38.2995 14.648L35.4505 13.186C35.3495 13.133 35.2376 13.1042 35.1236 13.1017C35.0096 13.0993 34.8966 13.1234 34.7935 13.172L29.0405 15.826C28.9104 15.886 28.8002 15.982 28.7231 16.1027C28.646 16.2234 28.6052 16.3638 28.6055 16.507V28.623C28.6048 29.1459 28.747 29.659 29.0167 30.107C29.2863 30.5549 29.6731 30.9208 30.1355 31.165L32.1255 32.222C32.1732 32.2416 32.2228 32.2564 32.2735 32.266V42.529C32.2735 42.7279 32.3525 42.9187 32.4931 43.0593C32.6338 43.2 32.8246 43.279 33.0235 43.279C33.2224 43.279 33.4131 43.2 33.5538 43.0593C33.6945 42.9187 33.7735 42.7279 33.7735 42.529V20.03C33.7735 19.8311 33.6945 19.6403 33.5538 19.4997C33.4131 19.359 33.2224 19.28 33.0235 19.28C32.8246 19.28 32.6338 19.359 32.4931 19.4997C32.3525 19.6403 32.2735 19.8311 32.2735 20.03V30.6L30.8385 29.838C30.617 29.7212 30.4317 29.5461 30.3025 29.3316C30.1733 29.1171 30.1052 28.8714 30.1055 28.621V16.986L34.7865 14.827L37.6415 20.037C37.7061 20.1548 37.8013 20.2531 37.9169 20.3216C38.0326 20.3901 38.1646 20.4262 38.299 20.4262C38.4334 20.4262 38.5653 20.3901 38.681 20.3216C38.7967 20.2531 38.8918 20.1548 38.9565 20.037L41.8205 14.826L46.4995 16.986V28.623C46.4998 28.8734 46.4319 29.1192 46.3029 29.3338C46.1739 29.5484 45.9888 29.7238 45.7675 29.841L44.3325 30.602V20.03C44.3325 19.8311 44.2535 19.6403 44.1128 19.4997C43.9721 19.359 43.7814 19.28 43.5825 19.28C43.3836 19.28 43.1928 19.359 43.0521 19.4997C42.9115 19.6403 42.8325 19.8311 42.8325 20.03V42.53C42.8325 42.7289 42.9115 42.9197 43.0521 43.0603C43.1928 43.201 43.3836 43.28 43.5825 43.28C43.7814 43.28 43.9721 43.201 44.1128 43.0603C44.2535 42.9197 44.3325 42.7289 44.3325 42.53V32.258C44.3823 32.2516 44.4313 32.2395 44.4785 32.222L46.4705 31.165C46.9325 30.9206 47.3191 30.5546 47.5886 30.1067C47.858 29.6587 48.0001 29.1458 47.9995 28.623V16.507C47.9996 16.3637 47.9585 16.2233 47.8813 16.1026C47.804 15.9819 47.6937 15.8859 47.5635 15.826ZM38.2995 18.117L36.9405 15.637L37.9555 16.158C38.0613 16.2127 38.1788 16.2413 38.298 16.2413C38.4171 16.2413 38.5346 16.2127 38.6405 16.158L39.6635 15.634L38.2995 18.117Z" fill="#FFB50D"/>
<path d="M29.1928 40.245C29.1236 40.1734 29.0408 40.1163 28.9493 40.077C28.8577 40.0378 28.7593 40.0171 28.6597 40.0163C28.5601 40.0155 28.4614 40.0345 28.3692 40.0723C28.2771 40.11 28.1934 40.1658 28.123 40.2362C28.0526 40.3067 27.9969 40.3904 27.9593 40.4826C27.9216 40.5748 27.9027 40.6736 27.9036 40.7732C27.9045 40.8727 27.9252 40.9712 27.9646 41.0626C28.0039 41.1541 28.0611 41.2369 28.1328 41.306L28.6058 41.779H19.4008L19.8738 41.306C19.9454 41.2369 20.0026 41.1541 20.042 41.0626C20.0813 40.9712 20.1021 40.8727 20.103 40.7732C20.1039 40.6736 20.0849 40.5748 20.0473 40.4826C20.0096 40.3904 19.954 40.3067 19.8836 40.2362C19.8132 40.1658 19.7295 40.11 19.6373 40.0723C19.5452 40.0345 19.4464 40.0155 19.3468 40.0163C19.2472 40.0171 19.1488 40.0378 19.0573 40.077C18.9658 40.1163 18.883 40.1734 18.8138 40.245L17.0558 42C16.9861 42.0697 16.9308 42.1524 16.8931 42.2434C16.8554 42.3344 16.8359 42.432 16.8359 42.5305C16.8359 42.629 16.8554 42.7266 16.8931 42.8176C16.9308 42.9087 16.9861 42.9914 17.0558 43.061L18.8088 44.813C18.951 44.9455 19.139 45.0176 19.3333 45.0142C19.5276 45.0108 19.713 44.932 19.8504 44.7946C19.9878 44.6572 20.0665 44.4718 20.07 44.2775C20.0734 44.0832 20.0013 43.8952 19.8688 43.753L19.3968 43.28H28.6008L28.1288 43.753C28.0551 43.8217 27.996 43.9045 27.955 43.9965C27.914 44.0885 27.892 44.1878 27.8902 44.2885C27.8884 44.3892 27.9069 44.4892 27.9447 44.5826C27.9824 44.676 28.0385 44.7608 28.1097 44.832C28.181 44.9033 28.2658 44.9594 28.3592 44.9971C28.4526 45.0349 28.5526 45.0534 28.6533 45.0516C28.754 45.0498 28.8533 45.0278 28.9453 44.9868C29.0373 44.9458 29.1201 44.8867 29.1888 44.813L30.9418 43.061C31.0115 42.9914 31.0668 42.9087 31.1045 42.8176C31.1422 42.7266 31.1616 42.629 31.1616 42.5305C31.1616 42.432 31.1422 42.3344 31.1045 42.2434C31.0668 42.1524 31.0115 42.0697 30.9418 42L29.1928 40.245Z" fill="#FFB50D"/>
</g>
<defs>
<clipPath id="clip0_942_18243">
<rect width="48" height="48" fill="white"/>
</clipPath>
</defs>
</svg>
