<svg width="32" height="32" viewBox="0 0 32 32" fill="none" xmlns="http://www.w3.org/2000/svg">
<path d="M26.6665 5.33325H5.33317C3.85317 5.33325 2.67984 6.51992 2.67984 7.99992L2.6665 23.9999C2.6665 25.4799 3.85317 26.6666 5.33317 26.6666H26.6665C28.1465 26.6666 29.3332 25.4799 29.3332 23.9999V7.99992C29.3332 6.51992 28.1465 5.33325 26.6665 5.33325ZM25.3332 23.9999H6.6665C5.93317 23.9999 5.33317 23.3999 5.33317 22.6666V15.9999H26.6665V22.6666C26.6665 23.3999 26.0665 23.9999 25.3332 23.9999ZM26.6665 10.6666H5.33317V7.99992H26.6665V10.6666Z" fill="url(#paint0_linear_184_12060)"/>
<defs>
<linearGradient id="paint0_linear_184_12060" x1="2.6665" y1="5.33325" x2="18.4615" y2="32.8965" gradientUnits="userSpaceOnUse">
<stop stop-color="#E9277C"/>
<stop offset="0.0001" stop-color="#F03482"/>
<stop offset="1" stop-color="#FF783E"/>
</linearGradient>
</defs>
</svg>
