<svg width="33" height="44" viewBox="0 0 33 44" fill="none" xmlns="http://www.w3.org/2000/svg">
<path d="M16.9775 12.25C18.1642 12.25 19.3242 11.8981 20.3109 11.2388C21.2976 10.5795 22.0667 9.64246 22.5208 8.5461C22.9749 7.44975 23.0937 6.24335 22.8622 5.07946C22.6307 3.91558 22.0593 2.84648 21.2202 2.00736C20.381 1.16825 19.3119 0.596802 18.1481 0.365291C16.9842 0.13378 15.7778 0.2526 14.6814 0.706726C13.5851 1.16085 12.648 1.92989 11.9887 2.91658C11.3294 3.90328 10.9775 5.06332 10.9775 6.25C10.9793 7.84075 11.612 9.36582 12.7369 10.4907C13.8617 11.6155 15.3868 12.2482 16.9775 12.25ZM16.9775 1.75C17.8675 1.75 18.7376 2.01392 19.4776 2.50839C20.2176 3.00286 20.7944 3.70566 21.135 4.52793C21.4756 5.3502 21.5647 6.255 21.3911 7.12791C21.2174 8.00082 20.7888 8.80265 20.1595 9.43198C19.5302 10.0613 18.7283 10.4899 17.8554 10.6635C16.9825 10.8372 16.0777 10.7481 15.2554 10.4075C14.4332 10.0669 13.7304 9.49009 13.2359 8.75007C12.7414 8.01005 12.4775 7.14002 12.4775 6.25C12.4789 5.05694 12.9534 3.91313 13.797 3.06951C14.6406 2.22589 15.7845 1.75135 16.9775 1.75ZM32.1192 24.6495L24.7212 15.1379C24.7021 15.1134 24.6815 15.09 24.6595 15.068C24.2426 14.6488 23.7467 14.3165 23.2005 14.0903C22.6543 13.8641 22.0687 13.7484 21.4775 13.75H12.4775C11.8863 13.7484 11.3007 13.864 10.7545 14.0903C10.2083 14.3165 9.71241 14.6488 9.29551 15.068C9.2735 15.09 9.25289 15.1134 9.2338 15.1379L1.8358 24.6495C1.28866 25.2152 0.985725 25.9733 0.992292 26.7603C0.998859 27.5472 1.31441 28.3001 1.87091 28.8566C2.42741 29.4131 3.1803 29.7286 3.96728 29.7352C4.75426 29.7417 5.5123 29.4388 6.07799 28.8916L10.6553 25.3314L6.19682 39.4134C5.87692 40.132 5.85204 40.9475 6.12754 41.6842C6.40303 42.421 6.95685 43.0201 7.66974 43.3525C8.38263 43.6849 9.19755 43.724 9.93901 43.4614C10.6805 43.1989 11.2891 42.6556 11.6339 41.9486L16.9775 33.5386L22.3211 41.9486C22.6658 42.6557 23.2745 43.1991 24.016 43.4617C24.7575 43.7243 25.5725 43.6852 26.2854 43.3528C26.9984 43.0204 27.5522 42.4212 27.8277 41.6844C28.1032 40.9476 28.0782 40.132 27.7582 39.4134L23.2998 25.3314L27.877 28.8916C28.4427 29.4388 29.2008 29.7417 29.9877 29.7351C30.7747 29.7286 31.5275 29.413 32.084 28.8565C32.6405 28.3001 32.9561 27.5472 32.9627 26.7602C32.9692 25.9733 32.6663 25.2152 32.1192 24.6495H32.1192ZM31.0235 27.7959C30.742 28.0768 30.3605 28.2346 29.9628 28.2346C29.5651 28.2346 29.1836 28.0768 28.9021 27.7959C28.8801 27.774 28.8568 27.7534 28.8323 27.7343L22.3174 22.6671C22.1911 22.5688 22.0367 22.5136 21.8768 22.5093C21.7168 22.5051 21.5597 22.5521 21.4284 22.6435C21.2971 22.735 21.1985 22.866 21.1469 23.0175C21.0954 23.1689 21.0936 23.3329 21.1419 23.4854L26.3419 39.9094C26.3517 39.9403 26.3636 39.9705 26.3772 39.9999C26.5454 40.3605 26.5634 40.7731 26.4273 41.1469C26.2912 41.5208 26.0122 41.8253 25.6516 41.9934C25.291 42.1615 24.8784 42.1795 24.5046 42.0434C24.1307 41.9073 23.8262 41.6283 23.6581 41.2677C23.6444 41.2383 23.6288 41.2099 23.6114 41.1825L17.6105 31.7379C17.5428 31.6313 17.4493 31.5436 17.3386 31.4828C17.228 31.422 17.1038 31.3901 16.9775 31.3901C16.8513 31.3901 16.727 31.422 16.6164 31.4828C16.5057 31.5436 16.4122 31.6313 16.3445 31.7379L10.3436 41.1825C10.3262 41.2099 10.3106 41.2383 10.2969 41.2677C10.2137 41.4463 10.0961 41.6067 9.95084 41.7398C9.80561 41.8729 9.63558 41.976 9.45047 42.0434C9.26536 42.1108 9.06879 42.1411 8.87198 42.1325C8.67517 42.1239 8.48199 42.0766 8.30344 41.9934C8.1249 41.9101 7.96451 41.7925 7.83142 41.6473C7.69832 41.5021 7.59514 41.3321 7.52776 41.1469C7.46037 40.9618 7.43011 40.7653 7.4387 40.5685C7.44728 40.3716 7.49455 40.1785 7.57779 39.9999C7.59148 39.9705 7.60328 39.9403 7.61313 39.9094L12.8131 23.4854C12.8614 23.3329 12.8597 23.1689 12.8081 23.0175C12.7566 22.866 12.6579 22.735 12.5266 22.6435C12.3953 22.5521 12.2382 22.5051 12.0783 22.5093C11.9183 22.5136 11.7639 22.5688 11.6376 22.6671L5.12272 27.7343C5.0982 27.7534 5.0749 27.774 5.05296 27.7959C4.77166 28.0773 4.39012 28.2353 3.99229 28.2353C3.59446 28.2353 3.21291 28.0773 2.93159 27.796C2.65026 27.5147 2.49221 27.1332 2.49219 26.7354C2.49218 26.3375 2.6502 25.956 2.9315 25.6747C2.95348 25.6526 2.97409 25.6293 2.9932 25.6047L10.3876 16.0977C10.9462 15.5522 11.6967 15.2478 12.4775 15.25H21.4775C22.2583 15.2478 23.0088 15.5522 23.5675 16.0977L30.9618 25.6047C30.9809 25.6293 31.0016 25.6526 31.0235 25.6746C31.3048 25.956 31.4628 26.3375 31.4628 26.7353C31.4628 27.1331 31.3048 27.5146 31.0235 27.7959V27.7959Z" fill="#FFB50D"/>
</svg>
