<svg width="16" height="16" viewBox="0 0 16 16" fill="none" xmlns="http://www.w3.org/2000/svg">
<path d="M15.0727 12.2835L11.6852 9.20345C11.5251 9.05791 11.3147 8.98029 11.0984 8.98698C10.8821 8.99366 10.6769 9.08413 10.5261 9.23928L8.5319 11.2901C8.0519 11.1985 7.0869 10.8976 6.09357 9.90679C5.10024 8.91262 4.7994 7.94512 4.71024 7.46845L6.7594 5.47345C6.91475 5.32272 7.00535 5.11747 7.01204 4.90112C7.01872 4.68478 6.94097 4.47432 6.79524 4.31428L3.71607 0.927618C3.57027 0.767082 3.36763 0.669705 3.1512 0.656168C2.93476 0.64263 2.72157 0.714 2.5569 0.855118L0.748568 2.40595C0.604494 2.55055 0.518501 2.74299 0.506902 2.94678C0.494402 3.15512 0.256068 8.09012 4.08274 11.9185C7.42107 15.256 11.6027 15.5001 12.7544 15.5001C12.9227 15.5001 13.0261 15.4951 13.0536 15.4935C13.2573 15.482 13.4497 15.3957 13.5936 15.251L15.1436 13.4418C15.2852 13.2776 15.3571 13.0646 15.3439 12.8482C15.3307 12.6318 15.2334 12.4291 15.0727 12.2835Z" fill="url(#paint0_linear_32_636)"/>
<defs>
<linearGradient id="paint0_linear_32_636" x1="0.5" y1="0.654541" x2="12.5622" y2="17.4938" gradientUnits="userSpaceOnUse">
<stop stop-color="#E9277C"/>
<stop offset="0.0001" stop-color="#F03482"/>
<stop offset="1" stop-color="#FF783E"/>
</linearGradient>
</defs>
</svg>
