<svg width="48" height="36" viewBox="0 0 48 36" fill="none" xmlns="http://www.w3.org/2000/svg">
<path d="M21.8447 0.5V2.45101C18.0388 4.81588 15.5534 7.04279 14.3883 9.13176C13.2233 11.1813 12.5243 13.3885 12.2913 15.7534C15.4369 16.1475 17.6699 17.3891 18.9903 19.478C20.3495 21.567 21.0291 23.5968 21.0291 25.5676C21.0291 28.1689 20.0777 30.4747 18.1748 32.4848C16.3107 34.4949 13.8835 35.5 10.8932 35.5C7.78641 35.5 5.18447 34.2979 3.08738 31.8936C1.02913 29.4499 0 26.612 0 23.3801C0 19.8328 1.00971 16.4234 3.02913 13.152C5.04854 9.88063 7.72816 7.14133 11.068 4.93412C14.4466 2.6875 18.0388 1.20946 21.8447 0.5ZM48 0.5V2.45101C44.233 4.77646 41.7476 6.98367 40.5437 9.07263C39.3786 11.1616 38.6796 13.3885 38.4466 15.7534C41.5534 16.1475 43.767 17.3891 45.0874 19.478C46.4466 21.567 47.1262 23.5968 47.1262 25.5676C47.1262 28.1689 46.1748 30.4747 44.2718 32.4848C42.4078 34.4949 39.9806 35.5 36.9903 35.5C33.9223 35.5 31.3398 34.2979 29.2427 31.8936C27.1845 29.4499 26.1553 26.612 26.1553 23.3801C26.1553 19.7539 27.1456 16.3446 29.1262 13.152C31.1068 9.92004 33.767 7.18074 37.1068 4.93412C40.4466 2.6875 44.0777 1.20946 48 0.5Z" fill="url(#paint0_linear_21_1553)"/>
<defs>
<linearGradient id="paint0_linear_21_1553" x1="0" y1="0.5" x2="24.6505" y2="47.6956" gradientUnits="userSpaceOnUse">
<stop stop-color="#E9277C"/>
<stop offset="0.0001" stop-color="#F03482"/>
<stop offset="1" stop-color="#FF783E"/>
</linearGradient>
</defs>
</svg>
