<svg width="48" height="35" viewBox="0 0 48 35" fill="none" xmlns="http://www.w3.org/2000/svg">
<path d="M21.8447 0V1.95101C18.0388 4.31588 15.5534 6.54279 14.3883 8.63176C13.2233 10.6813 12.5243 12.8885 12.2913 15.2534C15.4369 15.6475 17.6699 16.8891 18.9903 18.978C20.3495 21.067 21.0291 23.0968 21.0291 25.0676C21.0291 27.6689 20.0777 29.9747 18.1748 31.9848C16.3107 33.9949 13.8835 35 10.8932 35C7.78641 35 5.18447 33.7979 3.08738 31.3936C1.02913 28.9499 0 26.112 0 22.8801C0 19.3328 1.00971 15.9234 3.02913 12.652C5.04854 9.38063 7.72816 6.64133 11.068 4.43412C14.4466 2.1875 18.0388 0.709459 21.8447 0ZM48 0V1.95101C44.233 4.27646 41.7476 6.48367 40.5437 8.57263C39.3786 10.6616 38.6796 12.8885 38.4466 15.2534C41.5534 15.6475 43.767 16.8891 45.0874 18.978C46.4466 21.067 47.1262 23.0968 47.1262 25.0676C47.1262 27.6689 46.1748 29.9747 44.2718 31.9848C42.4078 33.9949 39.9806 35 36.9903 35C33.9223 35 31.3398 33.7979 29.2427 31.3936C27.1845 28.9499 26.1553 26.112 26.1553 22.8801C26.1553 19.2539 27.1456 15.8446 29.1262 12.652C31.1068 9.42004 33.767 6.68074 37.1068 4.43412C40.4466 2.1875 44.0777 0.709459 48 0Z" fill="#FFB50D"/>
</svg>
