<svg width="19" height="18" viewBox="0 0 19 18" fill="none" xmlns="http://www.w3.org/2000/svg">
<path d="M14.4049 11.1775C14.302 11.2779 14.225 11.4018 14.1806 11.5386C14.1362 11.6753 14.1256 11.8208 14.1499 11.9625L14.9339 16.5315C14.9793 16.685 14.9747 16.8489 14.9208 16.9995C14.8669 17.1502 14.7664 17.2798 14.6339 17.3695C14.4696 17.4887 14.2719 17.5531 14.0689 17.5535C13.9111 17.5542 13.7556 17.5161 13.6159 17.4425L9.42895 15.1835C9.30172 15.1167 9.16016 15.0818 9.01645 15.0818C8.87273 15.0818 8.73117 15.1167 8.60395 15.1835L4.58795 17.4425C4.42849 17.5264 4.24875 17.5641 4.06903 17.5512C3.88931 17.5383 3.71679 17.4753 3.57095 17.3695C3.41877 17.2915 3.29289 17.1705 3.20897 17.0215C3.12504 16.8725 3.08678 16.7021 3.09895 16.5315L4.05895 11.8675C4.08325 11.7258 4.07274 11.5803 4.02832 11.4436C3.98389 11.3068 3.90689 11.1829 3.80395 11.0825L0.303946 8.33255C0.174722 8.20688 0.083279 8.04753 0.0399774 7.87256C-0.00332434 7.69758 0.00324658 7.51398 0.0589456 7.34255C0.11473 7.17118 0.217342 7.01883 0.355181 6.90273C0.493019 6.78663 0.660589 6.7114 0.838946 6.68555L5.38595 5.88555C5.52827 5.86491 5.66343 5.80998 5.7798 5.72549C5.89618 5.641 5.99026 5.52948 6.05395 5.40055L8.14694 0.982549C8.22708 0.820807 8.35103 0.684815 8.50466 0.590054C8.65829 0.495294 8.83544 0.445571 9.01595 0.446547C9.19613 0.446433 9.37274 0.496767 9.52579 0.591849C9.67884 0.686932 9.80222 0.822965 9.88195 0.984547L11.8929 5.40255C11.9566 5.53148 12.0507 5.643 12.1671 5.72749C12.2835 5.81198 12.4186 5.86691 12.5609 5.88755L17.1899 6.68755C17.3682 6.71335 17.5357 6.78858 17.6734 6.9047C17.811 7.02082 17.9134 7.1732 17.9689 7.34455C18.0244 7.516 18.0309 7.69955 17.9876 7.87447C17.9443 8.0494 17.853 8.20875 17.7239 8.33455L14.4049 11.1775Z" fill="#FADB14"/>
</svg>
