<svg width="56" height="56" viewBox="0 0 56 56" fill="none" xmlns="http://www.w3.org/2000/svg">
<path fill-rule="evenodd" clip-rule="evenodd" d="M3.5 28C3.5 34.4978 6.08124 40.7295 10.6759 45.3241C15.2705 49.9188 21.5022 52.5 28 52.5C34.4978 52.5 40.7295 49.9188 45.3241 45.3241C49.9188 40.7295 52.5 34.4978 52.5 28C52.5 21.5022 49.9188 15.2705 45.3241 10.6759C40.7295 6.08124 34.4978 3.5 28 3.5C21.5022 3.5 15.2705 6.08124 10.6759 10.6759C6.08124 15.2705 3.5 21.5022 3.5 28ZM56 28C56 35.4261 53.05 42.548 47.799 47.799C42.548 53.05 35.4261 56 28 56C20.5739 56 13.452 53.05 8.20101 47.799C2.94999 42.548 0 35.4261 0 28C0 20.5739 2.94999 13.452 8.20101 8.20101C13.452 2.94999 20.5739 0 28 0C35.4261 0 42.548 2.94999 47.799 8.20101C53.05 13.452 56 20.5739 56 28ZM15.75 26.25C15.2859 26.25 14.8408 26.4344 14.5126 26.7626C14.1844 27.0908 14 27.5359 14 28C14 28.4641 14.1844 28.9093 14.5126 29.2374C14.8408 29.5656 15.2859 29.75 15.75 29.75H36.0255L28.511 37.261C28.3483 37.4237 28.2192 37.6169 28.1312 37.8295C28.0431 38.042 27.9978 38.2699 27.9978 38.5C27.9978 38.7301 28.0431 38.958 28.1312 39.1705C28.2192 39.3831 28.3483 39.5763 28.511 39.739C28.6737 39.9017 28.8669 40.0308 29.0795 40.1188C29.292 40.2069 29.5199 40.2522 29.75 40.2522C29.9801 40.2522 30.208 40.2069 30.4205 40.1188C30.6331 40.0308 30.8263 39.9017 30.989 39.739L41.489 29.239C41.652 29.0764 41.7813 28.8833 41.8695 28.6707C41.9577 28.4581 42.0031 28.2302 42.0031 28C42.0031 27.7698 41.9577 27.5419 41.8695 27.3293C41.7813 27.1167 41.652 26.9236 41.489 26.761L30.989 16.261C30.8263 16.0983 30.6331 15.9692 30.4205 15.8812C30.208 15.7931 29.9801 15.7478 29.75 15.7478C29.5199 15.7478 29.292 15.7931 29.0795 15.8812C28.8669 15.9692 28.6737 16.0983 28.511 16.261C28.3483 16.4237 28.2192 16.6169 28.1312 16.8295C28.0431 17.042 27.9978 17.2699 27.9978 17.5C27.9978 17.7301 28.0431 17.958 28.1312 18.1705C28.2192 18.3831 28.3483 18.5763 28.511 18.739L36.0255 26.25H15.75Z" fill="#363535"/>
</svg>
