<svg width="16" height="16" viewBox="0 0 16 16" fill="none" xmlns="http://www.w3.org/2000/svg">
<path d="M13.3344 8C13.3344 5.78125 11.9781 3.88125 10.0531 3.07812L9.54062 4.30937C10.9844 4.9125 12 6.3375 12 8C12 9.66562 10.9844 11.0875 9.5375 11.6906L10.05 12.9219C11.9781 12.1187 13.3344 10.2188 13.3344 8ZM10.6656 8C10.6656 6.89062 9.9875 5.94063 9.025 5.54063L8.5125 6.77187C8.99375 6.97187 9.33125 7.44688 9.33125 8.00313C9.33125 8.55625 8.99375 9.03125 8.5125 9.23438L9.025 10.4656C9.9875 10.0594 10.6656 9.10938 10.6656 8ZM11.0781 0.615625L10.5625 1.84687C12.9719 2.85 14.6656 5.225 14.6656 8C14.6656 10.7719 12.9719 13.15 10.5625 14.1531L11.075 15.3844C13.9688 14.1781 16 11.3281 16 8C16 4.67188 13.9688 1.82187 11.0781 0.615625ZM0 4.66563V11.3313H2.66563L7.33437 16V0L2.66563 4.66563H0Z" fill="black"/>
</svg>
