<svg width="21" height="21" viewBox="0 0 21 21" fill="none" xmlns="http://www.w3.org/2000/svg">
<path d="M17.3179 10.5063C17.3179 7.73291 15.6226 5.35791 13.2163 4.354L12.5757 5.89307C14.3804 6.64697 15.6499 8.42822 15.6499 10.5063C15.6499 12.5884 14.3804 14.3657 12.5718 15.1196L13.2124 16.6587C15.6226 15.6548 17.3179 13.2798 17.3179 10.5063ZM13.9819 10.5063C13.9819 9.11963 13.1343 7.93213 11.9312 7.43213L11.2905 8.97119C11.8921 9.22119 12.314 9.81494 12.314 10.5103C12.314 11.2017 11.8921 11.7954 11.2905 12.0493L11.9312 13.5884C13.1343 13.0806 13.9819 11.8931 13.9819 10.5063ZM14.4976 1.27588L13.853 2.81494C16.8647 4.06885 18.9819 7.0376 18.9819 10.5063C18.9819 13.9712 16.8647 16.9438 13.853 18.1978L14.4937 19.7368C18.1108 18.229 20.6499 14.6665 20.6499 10.5063C20.6499 6.34619 18.1108 2.78369 14.4976 1.27588ZM0.649902 6.33838V14.6704H3.98193L9.81787 20.5063V0.506348L3.98193 6.33838H0.649902Z" fill="url(#paint0_linear_8_1439)"/>
<defs>
<linearGradient id="paint0_linear_8_1439" x1="0.649902" y1="0.506348" x2="16.9" y2="23.1924" gradientUnits="userSpaceOnUse">
<stop stop-color="#E9277C"/>
<stop offset="0.0001" stop-color="#F03482"/>
<stop offset="1" stop-color="#FF783E"/>
</linearGradient>
</defs>
</svg>
