<svg width="18" height="16" viewBox="0 0 18 16" fill="none" xmlns="http://www.w3.org/2000/svg">
<path d="M14.3344 8C14.3344 5.78125 12.9781 3.88125 11.0531 3.07812L10.5406 4.30937C11.9844 4.9125 13 6.3375 13 8C13 9.66562 11.9844 11.0875 10.5375 11.6906L11.05 12.9219C12.9781 12.1187 14.3344 10.2188 14.3344 8ZM11.6656 8C11.6656 6.89062 10.9875 5.94063 10.025 5.54063L9.5125 6.77187C9.99375 6.97187 10.3313 7.44688 10.3313 8.00313C10.3313 8.55625 9.99375 9.03125 9.5125 9.23438L10.025 10.4656C10.9875 10.0594 11.6656 9.10938 11.6656 8ZM12.0781 0.615625L11.5625 1.84687C13.9719 2.85 15.6656 5.225 15.6656 8C15.6656 10.7719 13.9719 13.15 11.5625 14.1531L12.075 15.3844C14.9688 14.1781 17 11.3281 17 8C17 4.67188 14.9688 1.82187 12.0781 0.615625ZM1 4.66563V11.3313H3.66563L8.33437 16V0L3.66563 4.66563H1Z" fill="black"/>
<rect x="1.08203" width="22.1077" height="2" rx="1" transform="rotate(39.0164 1.08203 0)" fill="black"/>
</svg>
