<svg width="30" height="30" viewBox="0 0 30 30" fill="none" xmlns="http://www.w3.org/2000/svg">
<path fill-rule="evenodd" clip-rule="evenodd" d="M14.9997 0.333252C6.89967 0.333252 0.333008 6.89992 0.333008 14.9999C0.333008 23.0999 6.89967 29.6666 14.9997 29.6666C23.0997 29.6666 29.6663 23.0999 29.6663 14.9999C29.6663 6.89992 23.0997 0.333252 14.9997 0.333252ZM9.66634 13.6666C9.31272 13.6666 8.97358 13.8071 8.72353 14.0571C8.47348 14.3072 8.33301 14.6463 8.33301 14.9999C8.33301 15.3535 8.47348 15.6927 8.72353 15.9427C8.97358 16.1928 9.31272 16.3333 9.66634 16.3333H20.333C20.6866 16.3333 21.0258 16.1928 21.2758 15.9427C21.5259 15.6927 21.6663 15.3535 21.6663 14.9999C21.6663 14.6463 21.5259 14.3072 21.2758 14.0571C21.0258 13.8071 20.6866 13.6666 20.333 13.6666H9.66634Z" fill="#4F4F4F"/>
</svg>
