<svg width="26" height="26" viewBox="0 0 26 26" fill="none" xmlns="http://www.w3.org/2000/svg">
<path d="M24.5 0.5H1.5C0.946875 0.5 0.5 0.946875 0.5 1.5V24.5C0.5 25.0531 0.946875 25.5 1.5 25.5H24.5C25.0531 25.5 25.5 25.0531 25.5 24.5V1.5C25.5 0.946875 25.0531 0.5 24.5 0.5ZM19 13.75C19 13.8875 18.8875 14 18.75 14H14V18.75C14 18.8875 13.8875 19 13.75 19H12.25C12.1125 19 12 18.8875 12 18.75V14H7.25C7.1125 14 7 13.8875 7 13.75V12.25C7 12.1125 7.1125 12 7.25 12H12V7.25C12 7.1125 12.1125 7 12.25 7H13.75C13.8875 7 14 7.1125 14 7.25V12H18.75C18.8875 12 19 12.1125 19 12.25V13.75Z" fill="url(#paint0_linear_71_4045)"/>
<defs>
<linearGradient id="paint0_linear_71_4045" x1="0.5" y1="0.5" x2="20.8126" y2="28.8576" gradientUnits="userSpaceOnUse">
<stop stop-color="#E9277C"/>
<stop offset="0.0001" stop-color="#F03482"/>
<stop offset="1" stop-color="#FF783E"/>
</linearGradient>
</defs>
</svg>
