<svg width="30" height="30" viewBox="0 0 30 30" fill="none" xmlns="http://www.w3.org/2000/svg">
<path fill-rule="evenodd" clip-rule="evenodd" d="M14.9997 0.333252C6.89967 0.333252 0.333008 6.89992 0.333008 14.9999C0.333008 23.0999 6.89967 29.6666 14.9997 29.6666C23.0997 29.6666 29.6663 23.0999 29.6663 14.9999C29.6663 6.89992 23.0997 0.333252 14.9997 0.333252ZM16.333 20.3333C16.333 20.6869 16.1925 21.026 15.9425 21.2761C15.6924 21.5261 15.3533 21.6666 14.9997 21.6666C14.6461 21.6666 14.3069 21.5261 14.0569 21.2761C13.8068 21.026 13.6663 20.6869 13.6663 20.3333V16.3333H9.66634C9.31272 16.3333 8.97358 16.1928 8.72353 15.9427C8.47348 15.6927 8.33301 15.3535 8.33301 14.9999C8.33301 14.6463 8.47348 14.3072 8.72353 14.0571C8.97358 13.8071 9.31272 13.6666 9.66634 13.6666H13.6663V9.66659C13.6663 9.31296 13.8068 8.97383 14.0569 8.72378C14.3069 8.47373 14.6461 8.33325 14.9997 8.33325C15.3533 8.33325 15.6924 8.47373 15.9425 8.72378C16.1925 8.97383 16.333 9.31296 16.333 9.66659V13.6666H20.333C20.6866 13.6666 21.0258 13.8071 21.2758 14.0571C21.5259 14.3072 21.6663 14.6463 21.6663 14.9999C21.6663 15.3535 21.5259 15.6927 21.2758 15.9427C21.0258 16.1928 20.6866 16.3333 20.333 16.3333H16.333V20.3333Z" fill="#FFB50D"/>
</svg>
