<svg width="43" height="52" viewBox="0 0 43 52" fill="none" xmlns="http://www.w3.org/2000/svg">
<path d="M37.7545 16.9504L40.5545 13.5232C40.7149 13.341 40.8356 13.1274 40.9089 12.896C40.9822 12.6646 41.0064 12.4205 40.9801 12.1792C40.9597 11.9353 40.8896 11.6982 40.774 11.4824C40.6584 11.2667 40.4999 11.0769 40.3081 10.9248L38.0681 9.0208C37.8852 8.86155 37.6716 8.74159 37.4404 8.66838C37.2092 8.59517 36.9654 8.57026 36.7241 8.5952C36.4802 8.61561 36.2431 8.68577 36.0274 8.80134C35.8116 8.91692 35.6219 9.07546 35.4697 9.2672L32.7817 12.5152C30.3255 10.9566 27.5716 9.92668 24.6953 9.4912V6.96H27.3161C27.8092 6.96 28.2821 6.76412 28.6308 6.41545C28.9795 6.06678 29.1753 5.59389 29.1753 5.1008V2.0992C29.1753 1.60611 28.9795 1.13321 28.6308 0.784545C28.2821 0.435877 27.8092 0.239998 27.3161 0.239998H15.3545C14.8614 0.239998 14.3886 0.435877 14.0399 0.784545C13.6912 1.13321 13.4953 1.60611 13.4953 2.0992V5.1008C13.4953 5.59389 13.6912 6.06678 14.0399 6.41545C14.3886 6.76412 14.8614 6.96 15.3545 6.96H17.9753V9.4912C14.9461 9.96986 12.0571 11.101 9.50814 12.8064L6.61854 9.2C6.30066 8.8244 5.8483 8.58827 5.3584 8.54221C4.8685 8.49615 4.38005 8.64383 3.99774 8.9536L1.75774 10.8352C1.3788 11.1499 1.13839 11.6007 1.08813 12.0907C1.03787 12.5807 1.18177 13.0709 1.48894 13.456L4.53534 17.2416V17.3536C2.06145 20.508 0.529907 24.2975 0.117462 28.285C-0.294984 32.2725 0.42848 36.2953 2.20436 39.8893C3.98024 43.4832 6.73615 46.5017 10.154 48.5965C13.5719 50.6913 17.5125 51.7769 21.5209 51.7282C25.5294 51.6794 29.4424 50.4982 32.8083 48.3208C36.1742 46.1435 38.8558 43.0587 40.5437 39.4227C42.2316 35.7866 42.8569 31.7473 42.3475 27.7711C41.8382 23.7948 40.2149 20.0436 37.6649 16.9504H37.7545ZM36.8585 10.992L38.5833 12.4032L36.2089 15.2928C35.6751 14.7711 35.1143 14.2776 34.5289 13.8144L36.8585 10.992ZM15.7353 2.48H26.9353V4.72H15.7353V2.48ZM20.2153 6.96H22.4553V9.2C22.0745 9.2 21.7161 9.2 21.3353 9.2C20.9545 9.2 20.5961 9.2 20.2153 9.2V6.96ZM3.39294 12.4032L5.14014 10.992L7.71614 14.1504C7.1443 14.6286 6.59845 15.1371 6.08094 15.6736L3.39294 12.4032ZM21.3353 49.52C17.5696 49.52 13.8884 48.4033 10.7573 46.3112C7.62617 44.219 5.18577 41.2454 3.74467 37.7663C2.30358 34.2872 1.92652 30.4589 2.66119 26.7655C3.39585 23.0721 5.20923 19.6795 7.87203 17.0167C10.5348 14.3539 13.9274 12.5405 17.6208 11.8058C21.3142 11.0712 25.1425 11.4482 28.6216 12.8893C32.1007 14.3304 35.0744 16.7708 37.1665 19.9019C39.2587 23.0331 40.3753 26.7142 40.3753 30.48C40.3694 35.5279 38.3615 40.3674 34.7921 43.9368C31.2227 47.5062 26.3832 49.5141 21.3353 49.52Z" fill="url(#paint0_linear_6_649)"/>
<path d="M22.4554 30.0096V19.28C22.4554 18.983 22.3374 18.6981 22.1274 18.488C21.9173 18.278 21.6325 18.16 21.3354 18.16C21.0384 18.16 20.7535 18.278 20.5434 18.488C20.3334 18.6981 20.2154 18.983 20.2154 19.28V30.48C20.2136 30.6269 20.2426 30.7725 20.3005 30.9075C20.3583 31.0426 20.4438 31.164 20.5514 31.264L29.5114 40.224C29.612 40.3311 29.7334 40.4165 29.8683 40.4749C30.0031 40.5333 30.1485 40.5634 30.2954 40.5634C30.4423 40.5634 30.5877 40.5333 30.7226 40.4749C30.8574 40.4165 30.9789 40.3311 31.0794 40.224C31.1866 40.1234 31.2719 40.002 31.3303 39.8672C31.3887 39.7323 31.4188 39.5869 31.4188 39.44C31.4188 39.2931 31.3887 39.1477 31.3303 39.0128C31.2719 38.878 31.1866 38.7565 31.0794 38.656L22.4554 30.0096Z" fill="url(#paint1_linear_6_649)"/>
<defs>
<linearGradient id="paint0_linear_6_649" x1="0.00463867" y1="0.239998" x2="43.7481" y2="50.6642" gradientUnits="userSpaceOnUse">
<stop stop-color="#E9277C"/>
<stop offset="0.0001" stop-color="#F03482"/>
<stop offset="1" stop-color="#FF783E"/>
</linearGradient>
<linearGradient id="paint1_linear_6_649" x1="20.2153" y1="18.16" x2="38.2631" y2="30.7598" gradientUnits="userSpaceOnUse">
<stop stop-color="#E9277C"/>
<stop offset="0.0001" stop-color="#F03482"/>
<stop offset="1" stop-color="#FF783E"/>
</linearGradient>
</defs>
</svg>
