<svg width="37" height="46" viewBox="0 0 37 46" fill="none" xmlns="http://www.w3.org/2000/svg">
<path d="M32.4899 15.2432L34.8899 12.3056C35.0274 12.1495 35.1308 11.9664 35.1936 11.768C35.2564 11.5697 35.2772 11.3604 35.2547 11.1536C35.2372 10.9445 35.177 10.7413 35.078 10.5564C34.9789 10.3715 34.843 10.2088 34.6787 10.0784L32.7587 8.4464C32.6019 8.3099 32.4187 8.20708 32.2206 8.14433C32.0224 8.08157 31.8134 8.06022 31.6067 8.0816C31.3976 8.09909 31.1944 8.15923 31.0094 8.25829C30.8245 8.35736 30.6619 8.49325 30.5315 8.6576L28.2275 11.4416C26.1222 10.1056 23.7616 9.22287 21.2963 8.8496V6.68H23.5427C23.9653 6.68 24.3707 6.5121 24.6695 6.21324C24.9684 5.91439 25.1363 5.50905 25.1363 5.0864V2.5136C25.1363 2.09095 24.9684 1.68561 24.6695 1.38675C24.3707 1.08789 23.9653 0.919998 23.5427 0.919998H13.2899C12.8672 0.919998 12.4619 1.08789 12.163 1.38675C11.8642 1.68561 11.6963 2.09095 11.6963 2.5136V5.0864C11.6963 5.50905 11.8642 5.91439 12.163 6.21324C12.4619 6.5121 12.8672 6.68 13.2899 6.68H15.5363V8.8496C12.9398 9.25988 10.4635 10.2294 8.27867 11.6912L5.80187 8.6C5.5294 8.27806 5.14166 8.07566 4.72175 8.03618C4.30184 7.9967 3.88317 8.12328 3.55547 8.3888L1.63547 10.0016C1.31066 10.2714 1.1046 10.6577 1.06152 11.0777C1.01844 11.4978 1.14179 11.9179 1.40507 12.248L4.01627 15.4928V15.5888C1.89579 18.2925 0.583042 21.5407 0.229518 24.9586C-0.124007 28.3764 0.496105 31.8246 2.01829 34.9051C3.54047 37.9856 5.90268 40.5729 8.8323 42.3684C11.7619 44.164 15.1395 45.0945 18.5754 45.0527C22.0112 45.0109 25.3652 43.9984 28.2502 42.1321C31.1353 40.2658 33.4338 37.6218 34.8806 34.5051C36.3273 31.3885 36.8633 27.9263 36.4267 24.5181C35.9901 21.1098 34.5987 17.8945 32.4131 15.2432H32.4899ZM31.7219 10.136L33.2003 11.3456L31.1651 13.8224C30.7075 13.3752 30.2268 12.9522 29.7251 12.5552L31.7219 10.136ZM13.6163 2.84H23.2163V4.76H13.6163V2.84ZM17.4563 6.68H19.3763V8.6C19.0499 8.6 18.7427 8.6 18.4163 8.6C18.0899 8.6 17.7827 8.6 17.4563 8.6V6.68ZM3.03707 11.3456L4.53467 10.136L6.74267 12.8432C6.25252 13.2531 5.78465 13.6889 5.34107 14.1488L3.03707 11.3456ZM18.4163 43.16C15.1885 43.16 12.0332 42.2028 9.34936 40.4096C6.66555 38.6163 4.57378 36.0675 3.33856 33.0854C2.10333 30.1033 1.78014 26.8219 2.40985 23.6561C3.03957 20.4904 4.59389 17.5824 6.87629 15.3C9.15868 13.0176 12.0666 11.4633 15.2324 10.8336C18.3982 10.2039 21.6796 10.5271 24.6617 11.7623C27.6438 12.9975 30.1926 15.0893 31.9859 17.7731C33.7791 20.4569 34.7363 23.6122 34.7363 26.84C34.7312 31.1668 33.0101 35.3149 29.9506 38.3744C26.8911 41.4339 22.743 43.1549 18.4163 43.16V43.16Z" fill="#F13780"/>
<path d="M19.3771 26.4368V17.24C19.3771 16.9854 19.276 16.7412 19.0959 16.5612C18.9159 16.3811 18.6717 16.28 18.4171 16.28C18.1625 16.28 17.9183 16.3811 17.7383 16.5612C17.5582 16.7412 17.4571 16.9854 17.4571 17.24V26.84C17.4556 26.9659 17.4804 27.0907 17.53 27.2065C17.5796 27.3222 17.6529 27.4263 17.7451 27.512L25.4251 35.192C25.5113 35.2838 25.6154 35.357 25.731 35.4071C25.8465 35.4571 25.9712 35.4829 26.0971 35.4829C26.223 35.4829 26.3477 35.4571 26.4632 35.4071C26.5788 35.357 26.6829 35.2838 26.7691 35.192C26.8609 35.1058 26.9341 35.0017 26.9842 34.8861C27.0342 34.7706 27.06 34.6459 27.06 34.52C27.06 34.3941 27.0342 34.2694 26.9842 34.1539C26.9341 34.0383 26.8609 33.9342 26.7691 33.848L19.3771 26.4368Z" fill="#F13780"/>
</svg>
