<svg width="24" height="14" viewBox="0 0 24 14" fill="none" xmlns="http://www.w3.org/2000/svg">
<path fill-rule="evenodd" clip-rule="evenodd" d="M21.3625 9.7576C21.3625 9.7576 23.3029 11.674 23.7829 12.5608C23.7922 12.5736 23.7995 12.5878 23.8045 12.6028C24.0001 12.9304 24.0481 13.1872 23.9521 13.3768C23.7901 13.69 23.2417 13.8472 23.0557 13.8604H19.6261C19.3873 13.8604 18.8905 13.798 18.2857 13.3804C17.8237 13.0576 17.3641 12.526 16.9189 12.0064C16.2541 11.2348 15.6793 10.5652 15.0973 10.5652C15.0238 10.5651 14.9508 10.5773 14.8813 10.6012C14.4409 10.7404 13.8817 11.368 13.8817 13.0396C13.8817 13.5628 13.4689 13.8604 13.1797 13.8604H11.6089C11.0737 13.8604 8.28731 13.6732 5.81651 11.068C2.78891 7.8784 0.0697081 1.48005 0.0433081 1.42365C-0.125892 1.00965 0.229308 0.784049 0.613308 0.784049H4.07651C4.54091 0.784049 4.69211 1.06485 4.79771 1.31685C4.92011 1.60605 5.37371 2.76285 6.11771 4.06245C7.32251 6.1768 8.06291 7.0372 8.65451 7.0372C8.76566 7.0376 8.87492 7.0086 8.97131 6.9532C9.74411 6.5284 9.60011 3.76845 9.56411 3.19965C9.56411 3.08925 9.56291 1.96725 9.16691 1.42485C8.88371 1.03605 8.40131 0.884848 8.10971 0.829648C8.18771 0.716848 8.35331 0.544049 8.56571 0.442049C9.09491 0.178049 10.0513 0.139648 11.0005 0.139648H11.5273C12.5569 0.154048 12.8233 0.220048 13.1977 0.314848C13.9513 0.494848 13.9657 0.983249 13.8997 2.64645C13.8805 3.12165 13.8601 3.65685 13.8601 4.28685C13.8601 4.42125 13.8541 4.57125 13.8541 4.72365C13.8313 5.5768 13.8013 6.538 14.4037 6.9328C14.4818 6.9815 14.5721 7.0073 14.6641 7.0072C14.8729 7.0072 15.4981 7.0072 17.1937 4.09725C17.9377 2.81205 18.5137 1.29645 18.5533 1.18245C18.5869 1.11885 18.6877 0.940049 18.8101 0.868049C18.8972 0.821719 18.9947 0.798579 19.0933 0.800848H23.1673C23.6113 0.800848 23.9125 0.868048 23.9713 1.03605C24.0697 1.30845 23.9521 2.14005 22.0921 4.65525C21.7789 5.074 21.5041 5.4364 21.2629 5.7532C19.5769 7.966 19.5769 8.0776 21.3625 9.7576Z" fill="#A8A8A8"/>
</svg>
