<svg width="47" height="46" viewBox="0 0 47 46" fill="none" xmlns="http://www.w3.org/2000/svg">
<path d="M45.4897 23.582H42.1858V15.0849C42.1858 15.0459 42.182 15.0079 42.18 14.9695V8.42614C42.18 7.98121 41.8193 7.62056 41.3744 7.62056H32.8327L25.4482 0.235913C25.297 0.0848795 25.0921 0 24.8785 0C24.6648 0 24.4599 0.0848539 24.3088 0.235913L18.7405 5.80417L16.1229 3.18643C15.8082 2.87186 15.2982 2.87186 14.9835 3.18643L10.5442 7.62572C10.5149 7.62248 10.4851 7.62056 10.4549 7.62056H1.30559C0.860648 7.62056 0.5 7.98121 0.5 8.42614V17C0.5 17.0263 0.501458 17.0522 0.50394 17.0778V43.7409C0.50394 44.9466 1.48486 45.9275 2.69055 45.9275H39.9992C41.2049 45.9275 42.1858 44.9466 42.1858 43.7409V35.244H45.4897C45.9347 35.244 46.2953 34.8833 46.2953 34.4384V24.3876C46.2953 23.9426 45.9346 23.582 45.4897 23.582ZM40.5688 9.23176V12.9762C40.3868 12.9269 40.1964 12.8983 39.9992 12.8983H38.1103L34.4438 9.23176H40.5688ZM24.8785 1.94486L35.8318 12.8983H33.3867L23.6559 3.16743L24.8785 1.94486ZM22.5165 4.30683L31.1079 12.8983H25.8348L19.8799 6.94344L22.5165 4.30683ZM15.5532 4.89538L17.6012 6.94341L18.7405 8.08269L23.5561 12.8983H21.3603L14.4553 5.99329L15.5532 4.89538ZM19.0815 12.8983H7.55032L13.3159 7.13269L19.0815 12.8983ZM5.27165 12.8983H2.69055C2.48971 12.8983 2.29608 12.9277 2.1112 12.9786V9.23176H8.93819L5.27165 12.8983ZM40.5746 43.741C40.5746 44.0582 40.3165 44.3164 39.9992 44.3164H2.69055C2.37328 44.3164 2.11514 44.0582 2.11514 43.741V15.0849C2.11514 14.7677 2.37328 14.5095 2.69055 14.5095H39.9992C40.2967 14.5095 40.5393 14.7373 40.5688 15.027V17C40.5688 17.0316 40.5712 17.0627 40.5747 17.0934V23.582H33.2524C30.0372 23.582 27.4214 26.1977 27.4214 29.4129C27.4214 32.6282 30.0372 35.244 33.2524 35.244H40.5747V43.741H40.5746ZM44.6841 33.6328H42.1858H40.5747H33.2524C30.9256 33.6328 29.0326 31.7397 29.0326 29.4129C29.0326 27.0861 30.9256 25.1932 33.2524 25.1932H40.5747H42.1858H44.6841V33.6328Z" fill="#FFB50D"/>
<path d="M33.2908 26.6509C31.7679 26.6509 30.5288 27.89 30.5288 29.4129C30.5288 30.9359 31.7679 32.175 33.2908 32.175C34.8138 32.175 36.0529 30.9359 36.0529 29.4129C36.0529 27.8899 34.8138 26.6509 33.2908 26.6509ZM33.2908 30.5638C32.6563 30.5638 32.14 30.0474 32.14 29.4129C32.14 28.7784 32.6563 28.2621 33.2908 28.2621C33.9254 28.2621 34.4417 28.7784 34.4417 29.4129C34.4417 30.0474 33.9254 30.5638 33.2908 30.5638Z" fill="#FFB50D"/>
</svg>
