<svg width="40" height="32" viewBox="0 0 40 32" fill="none" xmlns="http://www.w3.org/2000/svg">
<path d="M1.42871 30.6426V0.928589H37.3733" fill="white"/>
<path d="M37.3733 0.928589V30.6426H1.42871" fill="#CDE2F2"/>
<path d="M38.3017 31.5712H0.5V0H38.3017V10.1614H36.4445V1.85714H2.3571V29.7141H36.4445V21.4088H38.3017V31.5712Z" fill="#4F4F4F"/>
<path d="M26.6635 10.3945C23.685 10.3945 21.2725 12.8072 21.2725 15.7856C21.2725 18.762 23.685 21.1767 26.6635 21.1767H38.5711V10.3945H26.6635Z" fill="white"/>
<path d="M39.4995 22.1052H26.6634C23.1791 22.1052 20.3438 19.2697 20.3438 15.7856C20.3438 12.3008 23.1791 9.46594 26.6634 9.46594H39.4995V22.1052ZM26.6634 11.323C24.2031 11.323 22.2009 13.3248 22.2009 15.7856C22.2009 18.2458 24.2031 20.248 26.6634 20.248H37.6424V11.323H26.6634Z" fill="#4F4F4F"/>
<path d="M27.1886 13.9885C28.1814 13.9885 28.9856 14.7928 28.9856 15.7856C28.9856 16.7784 28.1814 17.5826 27.1886 17.5826C26.1968 17.5826 25.3916 16.7784 25.3916 15.7856C25.3916 14.7928 26.1968 13.9885 27.1886 13.9885Z" fill="#CDE2F2"/>
<path d="M27.1885 18.5112C25.6857 18.5112 24.4629 17.2883 24.4629 15.7856C24.4629 14.2829 25.6857 13.0601 27.1885 13.0601C28.6911 13.0601 29.914 14.2829 29.914 15.7856C29.914 17.2883 28.6911 18.5112 27.1885 18.5112ZM27.1885 14.9172C26.7097 14.9172 26.32 15.3068 26.32 15.7856C26.32 16.2644 26.7097 16.6541 27.1885 16.6541C27.6672 16.6541 28.0569 16.2644 28.0569 15.7856C28.0569 15.3068 27.6672 14.9172 27.1885 14.9172Z" fill="#4F4F4F"/>
</svg>
