<svg width="22" height="21" viewBox="0 0 22 21" fill="none" xmlns="http://www.w3.org/2000/svg">
<path d="M11 21C8.9233 21 6.89323 20.3842 5.16652 19.2304C3.4398 18.0767 2.09399 16.4368 1.29927 14.5182C0.504549 12.5996 0.296614 10.4884 0.701759 8.45156C1.1069 6.41476 2.10693 4.54383 3.57538 3.07538C5.04383 1.60693 6.91476 0.606904 8.95156 0.201759C10.9884 -0.203386 13.0996 0.00454947 15.0182 0.79927C16.9368 1.59399 18.5767 2.9398 19.7304 4.66652C20.8842 6.39323 21.5 8.4233 21.5 10.5C21.5 13.2848 20.3938 15.9555 18.4246 17.9246C16.4555 19.8938 13.7848 21 11 21ZM11 1.5C9.21997 1.5 7.47992 2.02785 5.99987 3.01678C4.51983 4.00571 3.36628 5.41132 2.68509 7.05585C2.0039 8.70039 1.82567 10.51 2.17294 12.2558C2.5202 14.0016 3.37737 15.6053 4.63604 16.864C5.89472 18.1226 7.49836 18.9798 9.24419 19.3271C10.99 19.6743 12.7996 19.4961 14.4442 18.8149C16.0887 18.1337 17.4943 16.9802 18.4832 15.5001C19.4722 14.0201 20 12.28 20 10.5C20 8.11306 19.0518 5.82387 17.364 4.13604C15.6761 2.44822 13.387 1.5 11 1.5Z" fill="#FFB50D"/>
<path d="M14.4425 15L10.25 10.8075V3.75H11.75V10.185L15.5 13.9425L14.4425 15Z" fill="#FFB50D"/>
</svg>
