<svg width="0" height="0" class="hidden">
  <symbol xmlns="http://www.w3.org/2000/svg" viewBox="0 0 8 14" id="angle-right">
    <path d="M7 7L7.35355 6.64645L7.70711 7L7.35355 7.35355L7 7ZM1.35355 0.646447L7.35355 6.64645L6.64645 7.35355L0.646447 1.35355L1.35355 0.646447ZM7.35355 7.35355L1.35355 13.3536L0.646447 12.6464L6.64645 6.64645L7.35355 7.35355Z" fill="#ffffff"></path>
  </symbol>
	<symbol xmlns="http://www.w3.org/2000/svg" viewBox="0 0 19 18" id="rating-star">
    <path d="M14.4049 11.1775C14.302 11.2779 14.225 11.4018 14.1806 11.5386C14.1362 11.6753 14.1256 11.8208 14.1499 11.9625L14.9339 16.5315C14.9793 16.685 14.9747 16.8489 14.9208 16.9995C14.8669 17.1502 14.7664 17.2798 14.6339 17.3695C14.4696 17.4887 14.2719 17.5531 14.0689 17.5535C13.9111 17.5542 13.7556 17.5161 13.6159 17.4425L9.42895 15.1835C9.30172 15.1167 9.16016 15.0818 9.01645 15.0818C8.87273 15.0818 8.73117 15.1167 8.60395 15.1835L4.58795 17.4425C4.42849 17.5264 4.24875 17.5641 4.06903 17.5512C3.88931 17.5383 3.71679 17.4753 3.57095 17.3695C3.41877 17.2915 3.29289 17.1705 3.20897 17.0215C3.12504 16.8725 3.08678 16.7021 3.09895 16.5315L4.05895 11.8675C4.08325 11.7258 4.07274 11.5803 4.02832 11.4436C3.98389 11.3068 3.90689 11.1829 3.80395 11.0825L0.303946 8.33255C0.174722 8.20688 0.083279 8.04753 0.0399774 7.87256C-0.00332434 7.69758 0.00324658 7.51398 0.0589456 7.34255C0.11473 7.17118 0.217342 7.01883 0.355181 6.90273C0.493019 6.78663 0.660589 6.7114 0.838946 6.68555L5.38595 5.88555C5.52827 5.86491 5.66343 5.80998 5.7798 5.72549C5.89618 5.641 5.99026 5.52948 6.05395 5.40055L8.14694 0.982549C8.22708 0.820807 8.35103 0.684815 8.50466 0.590054C8.65829 0.495294 8.83544 0.445571 9.01595 0.446547C9.19613 0.446433 9.37274 0.496767 9.52579 0.591849C9.67884 0.686932 9.80222 0.822965 9.88195 0.984547L11.8929 5.40255C11.9566 5.53148 12.0507 5.643 12.1671 5.72749C12.2835 5.81198 12.4186 5.86691 12.5609 5.88755L17.1899 6.68755C17.3682 6.71335 17.5357 6.78858 17.6734 6.9047C17.811 7.02082 17.9134 7.1732 17.9689 7.34455C18.0244 7.516 18.0309 7.69955 17.9876 7.87447C17.9443 8.0494 17.853 8.20875 17.7239 8.33455L14.4049 11.1775Z"></path>
  </symbol>
	<symbol xmlns="http://www.w3.org/2000/svg" viewBox="0 0 10 18" id="facebook">
    <path d="M6.39703 17.9969V9.80092H9.16203L9.57303 6.59193H6.39703V4.54792C6.39703 3.62192 6.65503 2.98793 7.98403 2.98793H9.66803V0.126925C8.84867 0.0391161 8.02508 -0.00328216 7.20103 -7.49744e-05C4.75703 -7.49744e-05 3.07903 1.49193 3.07903 4.23093V6.58593H0.332031V9.79492H3.08503V17.9969H6.39703Z"></path>
  </symbol>
	<symbol xmlns="http://www.w3.org/2000/svg" viewBox="0 0 24 14" id="vk">
    <path fill-rule="evenodd" clip-rule="evenodd" d="M21.3625 9.7576C21.3625 9.7576 23.3029 11.674 23.7829 12.5608C23.7922 12.5736 23.7995 12.5878 23.8045 12.6028C24.0001 12.9304 24.0481 13.1872 23.9521 13.3768C23.7901 13.69 23.2417 13.8472 23.0557 13.8604H19.6261C19.3873 13.8604 18.8905 13.798 18.2857 13.3804C17.8237 13.0576 17.3641 12.526 16.9189 12.0064C16.2541 11.2348 15.6793 10.5652 15.0973 10.5652C15.0238 10.5651 14.9508 10.5773 14.8813 10.6012C14.4409 10.7404 13.8817 11.368 13.8817 13.0396C13.8817 13.5628 13.4689 13.8604 13.1797 13.8604H11.6089C11.0737 13.8604 8.28731 13.6732 5.81651 11.068C2.78891 7.8784 0.0697081 1.48005 0.0433081 1.42365C-0.125892 1.00965 0.229308 0.784049 0.613308 0.784049H4.07651C4.54091 0.784049 4.69211 1.06485 4.79771 1.31685C4.92011 1.60605 5.37371 2.76285 6.11771 4.06245C7.32251 6.1768 8.06291 7.0372 8.65451 7.0372C8.76566 7.0376 8.87492 7.0086 8.97131 6.9532C9.74411 6.5284 9.60011 3.76845 9.56411 3.19965C9.56411 3.08925 9.56291 1.96725 9.16691 1.42485C8.88371 1.03605 8.40131 0.884848 8.10971 0.829648C8.18771 0.716848 8.35331 0.544049 8.56571 0.442049C9.09491 0.178049 10.0513 0.139648 11.0005 0.139648H11.5273C12.5569 0.154048 12.8233 0.220048 13.1977 0.314848C13.9513 0.494848 13.9657 0.983249 13.8997 2.64645C13.8805 3.12165 13.8601 3.65685 13.8601 4.28685C13.8601 4.42125 13.8541 4.57125 13.8541 4.72365C13.8313 5.5768 13.8013 6.538 14.4037 6.9328C14.4818 6.9815 14.5721 7.0073 14.6641 7.0072C14.8729 7.0072 15.4981 7.0072 17.1937 4.09725C17.9377 2.81205 18.5137 1.29645 18.5533 1.18245C18.5869 1.11885 18.6877 0.940049 18.8101 0.868049C18.8972 0.821719 18.9947 0.798579 19.0933 0.800848H23.1673C23.6113 0.800848 23.9125 0.868048 23.9713 1.03605C24.0697 1.30845 23.9521 2.14005 22.0921 4.65525C21.7789 5.074 21.5041 5.4364 21.2629 5.7532C19.5769 7.966 19.5769 8.0776 21.3625 9.7576Z"></path>
  </symbol>
	<symbol xmlns="http://www.w3.org/2000/svg" viewBox="0 0 36 24" id="advisor">
    <path d="M10.1718 13.7216C10.1718 14.1648 10.0287 14.5426 9.74215 14.8551C9.45572 15.1676 9.11458 15.3239 8.71875 15.3239C8.3125 15.3239 7.96615 15.1676 7.67969 14.8551C7.39323 14.5426 7.25 14.1648 7.25 13.7216C7.25 13.2898 7.39323 12.9176 7.67969 12.6051C7.96615 12.2926 8.3125 12.1364 8.71875 12.1364C9.11458 12.1364 9.45572 12.2926 9.74215 12.6051C10.0287 12.9176 10.1718 13.2898 10.1718 13.7216ZM28.2031 13.7046C28.2031 14.1477 28.0599 14.5256 27.7734 14.8381C27.487 15.1506 27.1406 15.3068 26.7343 15.3068C26.3281 15.3068 25.9818 15.1506 25.6953 14.8381C25.4089 14.5256 25.2656 14.1477 25.2656 13.7046C25.2656 13.2614 25.4089 12.8864 25.6953 12.5796C25.9818 12.2727 26.3281 12.1193 26.7343 12.1193C27.1406 12.1193 27.487 12.2727 27.7734 12.5796C28.0599 12.8864 28.2031 13.2614 28.2031 13.7046ZM11.9531 13.7216C11.9531 12.8239 11.6588 12.0512 11.0703 11.4034C10.4818 10.7557 9.77086 10.4318 8.9375 10.4318C8.10416 10.4318 7.39323 10.7529 6.80469 11.3949C6.21615 12.037 5.92187 12.8125 5.92187 13.7216C5.92187 14.6307 6.21615 15.4063 6.80469 16.0483C7.39323 16.6904 8.10416 17.0114 8.9375 17.0114C9.77086 17.0114 10.4818 16.6904 11.0703 16.0483C11.6588 15.4063 11.9531 14.6307 11.9531 13.7216ZM29.9687 13.7046C29.9687 12.7955 29.6745 12.0199 29.086 11.3779C28.4974 10.7358 27.7865 10.4148 26.9531 10.4148C26.1302 10.4148 25.4219 10.7358 24.8281 11.3779C24.2344 12.0199 23.9375 12.7955 23.9375 13.7046C23.9375 14.6137 24.2318 15.3892 24.8203 16.0313C25.4089 16.6733 26.1198 16.9943 26.9531 16.9943C27.7865 16.9943 28.4974 16.6733 29.086 16.0313C29.6745 15.3892 29.9687 14.6137 29.9687 13.7046ZM13.2812 13.7216C13.2812 15.0398 12.8568 16.162 12.0078 17.0881C11.1589 18.0142 10.1354 18.4773 8.9375 18.4773C7.72916 18.4773 6.70052 18.0114 5.85156 17.0796C5.00261 16.1477 4.57813 15.0284 4.57813 13.7216C4.57813 12.4148 5.00521 11.2983 5.85938 10.3722C6.71354 9.44605 7.73958 8.98298 8.9375 8.98298C10.1354 8.98298 11.1589 9.44605 12.0078 10.3722C12.8568 11.2983 13.2812 12.4148 13.2812 13.7216ZM31.3125 13.7046C31.3125 15.0114 30.888 16.1279 30.039 17.054C29.1901 17.9801 28.1614 18.4432 26.9531 18.4432C25.7552 18.4432 24.7318 17.9801 23.8828 17.054C23.0338 16.1279 22.6094 15.0114 22.6094 13.7046C22.6094 12.3977 23.0338 11.2813 23.8828 10.3551C24.7318 9.429 25.7552 8.96593 26.9531 8.96593C28.1614 8.96593 29.1901 9.429 30.039 10.3551C30.888 11.2813 31.3125 12.3977 31.3125 13.7046ZM16.25 13.7557C16.25 11.5852 15.5442 9.73014 14.1328 8.19036C12.7214 6.65059 11.0208 5.8807 9.03125 5.8807C7.72916 5.8807 6.52604 6.23298 5.42188 6.93752C4.31771 7.64207 3.44271 8.59945 2.79688 9.80968C2.15105 11.0199 1.82813 12.3352 1.82813 13.7557C1.82813 15.1762 2.15105 16.4915 2.79688 17.7017C3.44271 18.912 4.31771 19.8693 5.42188 20.5739C6.52604 21.2784 7.72916 21.6307 9.03125 21.6307C11.0208 21.6307 12.7214 20.8608 14.1328 19.321C15.5442 17.7813 16.25 15.9262 16.25 13.7557ZM26.6875 3.98866C24.0416 2.72729 21.1458 2.09661 18 2.09661C14.6771 2.09661 11.6927 2.72161 9.04687 3.97161C10.2656 3.97161 11.427 4.23014 12.5312 4.74718C13.6354 5.26423 14.5859 5.96025 15.3828 6.83525C16.1797 7.71025 16.8151 8.75002 17.289 9.95457C17.763 11.1591 18 12.4262 18 13.7557C18 12.4489 18.2265 11.2017 18.6797 10.0142C19.1328 8.82673 19.7474 7.80116 20.5234 6.93752C21.2994 6.07389 22.224 5.37502 23.2969 4.84093C24.3698 4.30684 25.5 4.02275 26.6875 3.98866ZM34.1718 13.7557C34.1718 11.5852 33.4687 9.73014 32.0625 8.19036C30.6562 6.65059 28.9583 5.8807 26.9687 5.8807C24.9792 5.8807 23.2786 6.65059 21.8672 8.19036C20.4558 9.73014 19.75 11.5852 19.75 13.7557C19.75 15.9262 20.4558 17.7813 21.8672 19.321C23.2786 20.8608 24.9792 21.6307 26.9687 21.6307C28.9583 21.6307 30.6562 20.8608 32.0625 19.321C33.4687 17.7813 34.1718 15.9262 34.1718 13.7557ZM30.0156 4.10798H36C35.5417 4.68752 35.151 5.33809 34.8282 6.05968C34.5052 6.78127 34.2968 7.43184 34.2031 8.01139C35.349 9.7273 35.9219 11.6421 35.9219 13.7557C35.9219 15.5284 35.5208 17.1648 34.7188 18.6648C33.9167 20.1648 32.8281 21.3495 31.4531 22.2188C30.0781 23.0881 28.5834 23.5228 26.9687 23.5228C25.5834 23.5228 24.2864 23.2046 23.0781 22.5682C21.8698 21.9318 20.849 21.0512 20.0156 19.9262C19.526 20.5625 18.8541 21.5796 18 22.9773C17.8854 22.7273 17.6068 22.2585 17.1641 21.571C16.7214 20.8835 16.3333 20.3296 16 19.9091C15.1667 21.0341 14.1432 21.9176 12.9297 22.5597C11.7162 23.2017 10.4166 23.5228 9.03125 23.5228C7.41666 23.5228 5.92187 23.0881 4.54687 22.2188C3.17188 21.3495 2.08333 20.1648 1.28125 18.6648C0.479166 17.1648 0.078125 15.5284 0.078125 13.7557C0.078125 11.6421 0.651042 9.7273 1.79687 8.01139C1.70312 7.43184 1.49479 6.78127 1.17187 6.05968C0.848959 5.33809 0.458334 4.68752 0 4.10798H5.70313C7.25521 2.97161 9.10417 2.08241 11.25 1.44036C13.3959 0.798318 15.6459 0.477295 18 0.477295C20.3334 0.477295 22.526 0.795477 24.5781 1.43184C26.6302 2.0682 28.4427 2.96025 30.0156 4.10798Z"></path>
  </symbol>
	<symbol xmlns="http://www.w3.org/2000/svg" viewBox="0 0 20 20" id="insta">
    <path d="M18.9471 6.30496C18.937 5.54758 18.7952 4.79773 18.5281 4.08896C18.2964 3.49111 17.9426 2.94816 17.4892 2.49479C17.0359 2.04142 16.4929 1.68761 15.8951 1.45596C15.1954 1.19331 14.4562 1.0513 13.7091 1.03596C12.7471 0.992957 12.4421 0.980957 10.0001 0.980957C7.55807 0.980957 7.24507 0.980957 6.29007 1.03596C5.54323 1.05141 4.80442 1.19343 4.10507 1.45596C3.50713 1.68745 2.96409 2.0412 2.5107 2.49459C2.05732 2.94798 1.70356 3.49102 1.47207 4.08896C1.2089 4.78809 1.06719 5.52707 1.05307 6.27396C1.01007 7.23696 0.99707 7.54196 0.99707 9.98396C0.99707 12.426 0.99707 12.738 1.05307 13.694C1.06807 14.442 1.20907 15.18 1.47207 15.881C1.70395 16.4787 2.05797 17.0215 2.51151 17.4747C2.96505 17.9279 3.50813 18.2815 4.10607 18.513C4.8035 18.7862 5.54244 18.9383 6.29107 18.963C7.25407 19.006 7.55907 19.019 10.0011 19.019C12.4431 19.019 12.7561 19.019 13.7111 18.963C14.4582 18.9482 15.1974 18.8066 15.8971 18.544C16.4948 18.312 17.0376 17.9581 17.4909 17.5048C17.9442 17.0515 18.2982 16.5086 18.5301 15.911C18.7931 15.211 18.9341 14.473 18.9491 13.724C18.9921 12.762 19.0051 12.457 19.0051 10.014C19.0031 7.57196 19.0031 7.26196 18.9471 6.30496ZM9.99407 14.602C7.44007 14.602 5.37107 12.533 5.37107 9.97896C5.37107 7.42496 7.44007 5.35596 9.99407 5.35596C11.2202 5.35596 12.396 5.84302 13.263 6.71C14.13 7.57698 14.6171 8.75286 14.6171 9.97896C14.6171 11.2051 14.13 12.3809 13.263 13.2479C12.396 14.1149 11.2202 14.602 9.99407 14.602ZM14.8011 6.26296C14.6595 6.26309 14.5192 6.2353 14.3884 6.18117C14.2575 6.12704 14.1386 6.04764 14.0385 5.94751C13.9384 5.84738 13.859 5.72849 13.8049 5.59765C13.7507 5.4668 13.7229 5.32656 13.7231 5.18496C13.7231 5.04346 13.7509 4.90334 13.8051 4.77262C13.8592 4.64189 13.9386 4.5231 14.0387 4.42305C14.1387 4.32299 14.2575 4.24363 14.3882 4.18948C14.519 4.13533 14.6591 4.10746 14.8006 4.10746C14.9421 4.10746 15.0822 4.13533 15.2129 4.18948C15.3436 4.24363 15.4624 4.32299 15.5625 4.42305C15.6625 4.5231 15.7419 4.64189 15.7961 4.77262C15.8502 4.90334 15.8781 5.04346 15.8781 5.18496C15.8781 5.78096 15.3961 6.26296 14.8011 6.26296Z"></path>
    <path d="M9.99421 12.9821C11.6527 12.9821 12.9972 11.6376 12.9972 9.97907C12.9972 8.32056 11.6527 6.97607 9.99421 6.97607C8.3357 6.97607 6.99121 8.32056 6.99121 9.97907C6.99121 11.6376 8.3357 12.9821 9.99421 12.9821Z"></path>
  </symbol>
	<symbol xmlns="http://www.w3.org/2000/svg" viewBox="0 0 24 18" id="youtube">
    <path d="M12.0765 0.998535H12.21C13.443 1.00304 19.6905 1.04804 21.375 1.50104C21.8842 1.63929 22.3483 1.90877 22.7207 2.28255C23.0932 2.65633 23.361 3.12131 23.4975 3.63104C23.649 4.20104 23.7555 4.95554 23.8275 5.73404L23.8425 5.89004L23.8755 6.28004L23.8875 6.43604C23.985 7.80704 23.997 9.09104 23.9985 9.37154V9.48404C23.997 9.77504 23.9835 11.146 23.8755 12.574L23.8635 12.7315L23.85 12.8875C23.775 13.7455 23.664 14.5975 23.4975 15.2245C23.3615 15.7345 23.0938 16.1997 22.7212 16.5735C22.3487 16.9474 21.8844 17.2167 21.375 17.3545C19.635 17.8225 13.0215 17.8555 12.105 17.857H11.892C11.4285 17.857 9.5115 17.848 7.5015 17.779L7.2465 17.77L7.116 17.764L6.8595 17.7535L6.603 17.743C4.938 17.6695 3.3525 17.551 2.622 17.353C2.11273 17.2153 1.6486 16.9462 1.27609 16.5726C0.903575 16.1991 0.63577 15.7342 0.4995 15.2245C0.333 14.599 0.222 13.7455 0.147 12.8875L0.135 12.73L0.123 12.574C0.0489714 11.5576 0.0079498 10.5391 0 9.52004L0 9.33554C0.003 9.01304 0.015 7.89854 0.096 6.66854L0.1065 6.51404L0.111 6.43604L0.123 6.28004L0.156 5.89004L0.171 5.73404C0.243 4.95554 0.3495 4.19954 0.501 3.63104C0.63704 3.12111 0.904743 2.6559 1.27727 2.28206C1.6498 1.90822 2.11405 1.63887 2.6235 1.50104C3.354 1.30604 4.9395 1.18604 6.6045 1.11104L6.8595 1.10054L7.1175 1.09154L7.2465 1.08704L7.503 1.07654C8.93056 1.0306 10.3587 1.00509 11.787 1.00004H12.0765V0.998535ZM9.6 5.81354V13.0405L15.8355 9.42854L9.6 5.81354Z"></path>
  </symbol>
	<symbol xmlns="http://www.w3.org/2000/svg" viewBox="0 0 10 5" id="more">
    <path d="M4.99953 4.66652C4.84376 4.66683 4.69281 4.61258 4.57287 4.51319L0.572866 1.17986C0.436722 1.0667 0.351105 0.904092 0.334852 0.727807C0.318599 0.551523 0.37304 0.376003 0.486199 0.239858C0.599358 0.103714 0.761966 0.0180976 0.93825 0.00184445C1.11453 -0.0144087 1.29005 0.0400322 1.4262 0.153191L4.99953 3.13986L8.57287 0.259858C8.64106 0.204481 8.71952 0.163127 8.80375 0.138172C8.88797 0.113218 8.9763 0.105155 9.06365 0.114448C9.15101 0.123741 9.23566 0.150205 9.31275 0.192321C9.38984 0.234437 9.45785 0.291374 9.51287 0.359858C9.57392 0.428406 9.62016 0.508824 9.64869 0.596073C9.67722 0.683322 9.68742 0.775522 9.67866 0.866898C9.66989 0.958273 9.64236 1.04685 9.59777 1.12709C9.55318 1.20733 9.4925 1.2775 9.41953 1.33319L5.41953 4.55319C5.29614 4.63687 5.14827 4.67677 4.99953 4.66652Z"></path>
  </symbol>
	<symbol xmlns="http://www.w3.org/2000/svg" viewBox="0 0 6 10" id="next">
    <path d="M5 5L5.35355 4.64645L5.70711 5L5.35355 5.35355L5 5ZM1.35355 0.646447L5.35355 4.64645L4.64645 5.35355L0.646447 1.35355L1.35355 0.646447ZM5.35355 5.35355L1.35355 9.35355L0.646447 8.64645L4.64645 4.64645L5.35355 5.35355Z"></path>
  </symbol>
	<symbol fill="none" xmlns="http://www.w3.org/2000/svg" viewBox="0 0 49 34" id="eye">
    <path d="M9.9108 26.044C3.45354 22.1638 0.5 16.9999 0.5 16.9999C0.5 16.9999 7.88386 4.07574 24.4951 4.07574C26.8985 4.07574 29.1088 4.25913 31.1358 4.8093L29.6589 6.28607C27.9988 6.10268 26.3386 5.91929 24.495 5.91929C9.72731 5.91929 2.71023 16.9999 2.71023 16.9999C2.71023 16.9999 5.48039 21.4302 11.2041 24.7505L9.9108 26.044ZM17.1113 16.9999C17.1113 17.5501 17.1113 18.1099 17.2947 18.6601L18.9548 16.9999C18.9548 15.5231 19.505 14.2298 20.615 13.1198C21.725 12.0098 23.2017 11.4596 24.4951 11.4596L26.1554 9.79944C25.6051 9.61605 25.0454 9.61605 24.4951 9.61605C20.4316 9.61605 17.1113 12.9364 17.1113 16.9999ZM39.0794 7.95589L37.7862 9.24927C43.5098 12.5696 46.28 16.9999 46.28 16.9999C46.28 16.9999 39.2628 28.0805 24.4951 28.0805C22.6516 28.0805 20.9914 27.8972 19.3313 27.7137L17.8545 29.1905C19.8814 29.7407 22.1014 29.9242 24.5048 29.9242C41.1161 29.9242 48.5 17 48.5 17C48.5 17 45.5367 11.836 39.0794 7.95589ZM39.2435 0.427246L7.92247 31.7483L9.74671 33.5726L41.0774 2.24184L39.2435 0.427246ZM28.3754 20.8801C27.2654 21.9901 25.972 22.5403 24.4951 22.5403L22.835 24.2004C23.3851 24.3838 23.945 24.3838 24.4951 24.3838C28.5586 24.3838 31.879 21.0634 31.879 16.9999C31.879 16.4497 31.879 15.8899 31.6956 15.3397L30.0354 16.9999C30.0354 18.4767 29.4755 19.7702 28.3754 20.8801Z" fill="#FFB50D"></path>
  </symbol>
	<symbol fill="none" xmlns="http://www.w3.org/2000/svg" viewBox="0 0 49 48" id="socials">
    <g clip-path="url(#clip0_774_194)">
      <path d="M10.1947 13.6429C12.3297 13.6429 14.7627 10.4859 14.7627 7.71688C14.8032 7.0981 14.7142 6.47766 14.5015 5.8952C14.2887 5.31275 13.9567 4.78107 13.5268 4.33416C13.097 3.88724 12.5786 3.5349 12.0048 3.29964C11.4311 3.06439 10.8146 2.9514 10.1947 2.96788C9.57481 2.95155 8.95837 3.06465 8.38468 3.29996C7.811 3.53526 7.29269 3.88761 6.86283 4.33449C6.43298 4.78138 6.10103 5.31299 5.88818 5.89537C5.67534 6.47776 5.58627 7.09814 5.62666 7.71688C5.62666 10.4859 8.06066 13.6429 10.1947 13.6429ZM10.1947 4.46788C10.6178 4.45087 11.0396 4.52474 11.4318 4.68453C11.8239 4.84432 12.1773 5.08631 12.468 5.3942C12.7588 5.70209 12.9801 6.06872 13.1172 6.46938C13.2543 6.87004 13.3039 7.29543 13.2627 7.71688C13.2627 9.86688 11.2627 12.1429 10.1947 12.1429C9.12666 12.1429 7.12666 9.86688 7.12666 7.71688C7.08545 7.29543 7.13505 6.87004 7.27212 6.46938C7.40919 6.06872 7.63055 5.70209 7.92129 5.3942C8.21202 5.08631 8.56537 4.84432 8.95753 4.68453C9.34969 4.52474 9.77154 4.45087 10.1947 4.46788Z" fill="#FFB50D"></path>
      <path d="M10.1992 29.5459C10.0003 29.5459 9.80954 29.6249 9.66889 29.7656C9.52824 29.9062 9.44922 30.097 9.44922 30.2959V42.5289C9.44922 42.7278 9.52824 42.9186 9.66889 43.0592C9.80954 43.1999 10.0003 43.2789 10.1992 43.2789C10.3981 43.2789 10.5889 43.1999 10.7295 43.0592C10.8702 42.9186 10.9492 42.7278 10.9492 42.5289V30.2999C10.9497 30.2011 10.9307 30.1031 10.8933 30.0117C10.8558 29.9202 10.8007 29.837 10.731 29.767C10.6613 29.6969 10.5784 29.6413 10.4872 29.6034C10.3959 29.5654 10.298 29.5459 10.1992 29.5459Z" fill="#FFB50D"></path>
      <path d="M18.367 31.1659C18.8293 30.9213 19.216 30.5553 19.4856 30.1072C19.7553 29.6591 19.8975 29.1459 19.897 28.6229V16.5069C19.8973 16.3637 19.8565 16.2233 19.7794 16.1026C19.7023 15.9819 19.5921 15.8859 19.462 15.8259L13.709 13.1719C13.6059 13.1239 13.4932 13.1 13.3795 13.1023C13.2658 13.1046 13.1541 13.1328 13.053 13.1849L10.194 14.6479L7.346 13.1859C7.24484 13.133 7.1328 13.1042 7.01864 13.1017C6.90449 13.0993 6.79133 13.1233 6.688 13.1719L0.936002 15.8259C0.805786 15.8858 0.695491 15.9818 0.618208 16.1025C0.540925 16.2232 0.4999 16.3636 0.500002 16.5069V28.6229C0.499392 29.1456 0.641465 29.6586 0.910905 30.1066C1.18035 30.5545 1.56693 30.9205 2.029 31.1649L4.021 32.2219C4.06815 32.2394 4.11713 32.2515 4.167 32.2579V42.5289C4.167 42.7278 4.24602 42.9186 4.38667 43.0592C4.52732 43.1999 4.71809 43.2789 4.917 43.2789C5.11591 43.2789 5.30668 43.1999 5.44733 43.0592C5.58798 42.9186 5.667 42.7278 5.667 42.5289V20.0299C5.667 19.831 5.58798 19.6402 5.44733 19.4996C5.30668 19.3589 5.11591 19.2799 4.917 19.2799C4.71809 19.2799 4.52732 19.3589 4.38667 19.4996C4.24602 19.6402 4.167 19.831 4.167 20.0299V30.5999L2.732 29.8389C2.51101 29.7219 2.32609 29.5468 2.19712 29.3326C2.06815 29.1183 2 28.873 2 28.6229V16.9859L6.681 14.8269L9.536 20.0369C9.60081 20.1547 9.69606 20.253 9.81181 20.3214C9.92755 20.3898 10.0595 20.4259 10.194 20.4259C10.3285 20.4259 10.4605 20.3898 10.5762 20.3214C10.6919 20.253 10.7872 20.1547 10.852 20.0369L13.715 14.8249L18.397 16.9849V28.6229C18.3972 28.8734 18.329 29.1192 18.1998 29.3338C18.0707 29.5484 17.8854 29.7238 17.664 29.8409L16.229 30.6019V20.0299C16.229 19.831 16.15 19.6402 16.0093 19.4996C15.8687 19.3589 15.6779 19.2799 15.479 19.2799C15.2801 19.2799 15.0893 19.3589 14.9487 19.4996C14.808 19.6402 14.729 19.831 14.729 20.0299V42.5299C14.729 42.7288 14.808 42.9196 14.9487 43.0602C15.0893 43.2009 15.2801 43.2799 15.479 43.2799C15.6779 43.2799 15.8687 43.2009 16.0093 43.0602C16.15 42.9196 16.229 42.7288 16.229 42.5299V32.2649C16.2798 32.2561 16.3294 32.2416 16.377 32.2219L18.367 31.1659ZM10.2 18.1169L8.841 15.6369L9.857 16.1579C9.9627 16.2126 10.08 16.2412 10.199 16.2412C10.318 16.2412 10.4353 16.2126 10.541 16.1579L11.564 15.6339L10.2 18.1169Z" fill="#FFB50D"></path>
      <path d="M38.7995 13.643C40.9345 13.643 43.3675 10.486 43.3675 7.71705C43.3898 7.10324 43.2881 6.49125 43.0685 5.91761C42.849 5.34398 42.5161 4.82047 42.0897 4.37837C41.6634 3.93626 41.1522 3.58461 40.5869 3.34443C40.0216 3.10425 39.4137 2.98047 38.7995 2.98047C38.1853 2.98047 37.5774 3.10425 37.0121 3.34443C36.4468 3.58461 35.9357 3.93626 35.5093 4.37837C35.0829 4.82047 34.75 5.34398 34.5305 5.91761C34.311 6.49125 34.2093 7.10324 34.2315 7.71705C34.2285 10.486 36.6615 13.643 38.7995 13.643ZM38.7995 4.46805C39.2226 4.45103 39.6445 4.52491 40.0366 4.6847C40.4288 4.84449 40.7822 5.08648 41.0729 5.39437C41.3636 5.70225 41.585 6.06888 41.7221 6.46954C41.8591 6.87021 41.9087 7.2956 41.8675 7.71705C41.8675 9.86705 39.8675 12.143 38.7995 12.143C37.7315 12.143 35.7315 9.86705 35.7315 7.71705C35.6903 7.2956 35.7399 6.87021 35.877 6.46954C36.014 6.06888 36.2354 5.70225 36.5261 5.39437C36.8169 5.08648 37.1702 4.84449 37.5624 4.6847C37.9545 4.52491 38.3764 4.45103 38.7995 4.46805Z" fill="#FFB50D"></path>
      <path d="M38.8008 29.5459C38.6019 29.5459 38.4111 29.6249 38.2705 29.7656C38.1298 29.9062 38.0508 30.097 38.0508 30.2959V42.5289C38.0508 42.7278 38.1298 42.9186 38.2705 43.0592C38.4111 43.1999 38.6019 43.2789 38.8008 43.2789C38.9997 43.2789 39.1905 43.1999 39.3311 43.0592C39.4718 42.9186 39.5508 42.7278 39.5508 42.5289V30.2999C39.5513 30.2011 39.5323 30.1031 39.4948 30.0117C39.4574 29.9202 39.4022 29.837 39.3325 29.767C39.2628 29.6969 39.18 29.6413 39.0887 29.6034C38.9975 29.5654 38.8996 29.5459 38.8008 29.5459Z" fill="#FFB50D"></path>
      <path d="M48.0635 15.826L42.3115 13.172C42.2082 13.1239 42.0953 13.1001 41.9815 13.1024C41.8676 13.1046 41.7557 13.1329 41.6545 13.185L38.7995 14.648L35.9505 13.186C35.8495 13.133 35.7376 13.1042 35.6236 13.1017C35.5096 13.0993 35.3966 13.1234 35.2935 13.172L29.5405 15.826C29.4104 15.886 29.3002 15.982 29.2231 16.1027C29.146 16.2234 29.1052 16.3638 29.1055 16.507V28.623C29.1048 29.1459 29.247 29.659 29.5167 30.107C29.7863 30.5549 30.1731 30.9208 30.6355 31.165L32.6255 32.222C32.6732 32.2416 32.7228 32.2564 32.7735 32.266V42.529C32.7735 42.7279 32.8525 42.9187 32.9931 43.0593C33.1338 43.2 33.3246 43.279 33.5235 43.279C33.7224 43.279 33.9131 43.2 34.0538 43.0593C34.1945 42.9187 34.2735 42.7279 34.2735 42.529V20.03C34.2735 19.8311 34.1945 19.6403 34.0538 19.4997C33.9131 19.359 33.7224 19.28 33.5235 19.28C33.3246 19.28 33.1338 19.359 32.9931 19.4997C32.8525 19.6403 32.7735 19.8311 32.7735 20.03V30.6L31.3385 29.838C31.117 29.7212 30.9317 29.5461 30.8025 29.3316C30.6733 29.1171 30.6052 28.8714 30.6055 28.621V16.986L35.2865 14.827L38.1415 20.037C38.2061 20.1548 38.3013 20.2531 38.4169 20.3216C38.5326 20.3901 38.6646 20.4262 38.799 20.4262C38.9334 20.4262 39.0653 20.3901 39.181 20.3216C39.2967 20.2531 39.3918 20.1548 39.4565 20.037L42.3205 14.826L46.9995 16.986V28.623C46.9998 28.8734 46.9319 29.1192 46.8029 29.3338C46.6739 29.5484 46.4888 29.7238 46.2675 29.841L44.8325 30.602V20.03C44.8325 19.8311 44.7535 19.6403 44.6128 19.4997C44.4721 19.359 44.2814 19.28 44.0825 19.28C43.8836 19.28 43.6928 19.359 43.5521 19.4997C43.4115 19.6403 43.3325 19.8311 43.3325 20.03V42.53C43.3325 42.7289 43.4115 42.9197 43.5521 43.0603C43.6928 43.201 43.8836 43.28 44.0825 43.28C44.2814 43.28 44.4721 43.201 44.6128 43.0603C44.7535 42.9197 44.8325 42.7289 44.8325 42.53V32.258C44.8823 32.2516 44.9313 32.2395 44.9785 32.222L46.9705 31.165C47.4325 30.9206 47.8191 30.5546 48.0886 30.1067C48.358 29.6587 48.5001 29.1458 48.4995 28.623V16.507C48.4996 16.3637 48.4585 16.2233 48.3813 16.1026C48.304 15.9819 48.1937 15.8859 48.0635 15.826ZM38.7995 18.117L37.4405 15.637L38.4555 16.158C38.5613 16.2127 38.6788 16.2413 38.798 16.2413C38.9171 16.2413 39.0346 16.2127 39.1405 16.158L40.1635 15.634L38.7995 18.117Z" fill="#FFB50D"></path>
      <path d="M29.6928 40.2451C29.6236 40.1735 29.5408 40.1164 29.4493 40.0771C29.3577 40.0378 29.2593 40.0172 29.1597 40.0164C29.0601 40.0156 28.9614 40.0346 28.8692 40.0723C28.7771 40.1101 28.6934 40.1658 28.623 40.2363C28.5526 40.3067 28.4969 40.3905 28.4593 40.4827C28.4216 40.5749 28.4027 40.6736 28.4036 40.7732C28.4045 40.8728 28.4252 40.9712 28.4646 41.0627C28.5039 41.1542 28.5611 41.2369 28.6328 41.3061L29.1058 41.7791H19.9008L20.3738 41.3061C20.4454 41.2369 20.5026 41.1542 20.542 41.0627C20.5813 40.9712 20.6021 40.8728 20.603 40.7732C20.6039 40.6736 20.5849 40.5749 20.5473 40.4827C20.5096 40.3905 20.454 40.3067 20.3836 40.2363C20.3132 40.1658 20.2295 40.1101 20.1373 40.0723C20.0452 40.0346 19.9464 40.0156 19.8468 40.0164C19.7472 40.0172 19.6488 40.0378 19.5573 40.0771C19.4658 40.1164 19.383 40.1735 19.3138 40.2451L17.5558 42.0001C17.4861 42.0697 17.4308 42.1524 17.3931 42.2434C17.3554 42.3345 17.3359 42.432 17.3359 42.5306C17.3359 42.6291 17.3554 42.7267 17.3931 42.8177C17.4308 42.9087 17.4861 42.9914 17.5558 43.0611L19.3088 44.8131C19.451 44.9455 19.639 45.0177 19.8333 45.0142C20.0276 45.0108 20.213 44.9321 20.3504 44.7947C20.4878 44.6573 20.5665 44.4719 20.57 44.2776C20.5734 44.0833 20.5013 43.8952 20.3688 43.7531L19.8968 43.2801H29.1008L28.6288 43.7531C28.5551 43.8217 28.496 43.9045 28.455 43.9965C28.414 44.0885 28.392 44.1878 28.3902 44.2885C28.3884 44.3892 28.4069 44.4893 28.4447 44.5827C28.4824 44.6761 28.5385 44.7609 28.6097 44.8321C28.681 44.9033 28.7658 44.9595 28.8592 44.9972C28.9526 45.0349 29.0526 45.0534 29.1533 45.0517C29.254 45.0499 29.3533 45.0278 29.4453 44.9868C29.5373 44.9459 29.6201 44.8868 29.6888 44.8131L31.4418 43.0611C31.5115 42.9914 31.5668 42.9087 31.6045 42.8177C31.6422 42.7267 31.6616 42.6291 31.6616 42.5306C31.6616 42.432 31.6422 42.3345 31.6045 42.2434C31.5668 42.1524 31.5115 42.0697 31.4418 42.0001L29.6928 40.2451Z" fill="#FFB50D"></path>
    </g>
    <defs>
      <clipPath id="clip0_774_194">
        <rect width="48" height="48" fill="white" transform="translate(0.5)"></rect>
      </clipPath>
    </defs>
  </symbol>
	<symbol fill="none" xmlns="http://www.w3.org/2000/svg" viewBox="0 0 32 41" id="mind">
    <path d="M7.28961 9.84033C5.94935 11.8535 5.14519 14.2167 5.14519 16.755L1.03505 24.1948C0.945702 24.2823 1.03505 24.4574 1.21375 24.4574L4.87714 24.5449V33.0351C4.87714 33.7353 5.50259 34.348 6.2174 34.348H16.046" stroke="#FFB50D" stroke-width="1.4" stroke-miterlimit="10"></path>
    <path d="M26.6797 40.9999V25.5076C29.0028 23.2319 30.4324 20.1684 30.4324 16.7549C30.4324 14.3041 29.7176 12.0284 28.4667 10.1028" stroke="#FFB50D" stroke-width="1.4" stroke-miterlimit="10"></path>
    <path d="M12.8301 34.9607V41.0001" stroke="#FFB50D" stroke-width="1.4" stroke-miterlimit="10"></path>
    <path d="M23.016 24.2823H12.4726L11.7578 22.7943V18.418H23.7308V22.7943L23.016 24.2823Z" stroke="#FFB50D" stroke-width="1.4" stroke-miterlimit="10"></path>
    <path d="M19.4417 24.8074V26.4704C19.4417 26.5579 19.3524 26.733 19.1737 26.733H16.2251C16.1357 26.733 15.957 26.6454 15.957 26.4704V24.8074" stroke="#FFB50D" stroke-width="1.4" stroke-miterlimit="10"></path>
    <path d="M26.2325 9.3151C26.2325 4.76368 22.4798 1 17.7442 1C13.0086 1 9.25586 4.67615 9.25586 9.3151C9.25586 12.2035 10.7748 14.8293 13.0979 16.3173V18.4179H22.3011V16.3173C24.7136 14.8293 26.2325 12.291 26.2325 9.3151Z" stroke="#FFB50D" stroke-width="1.4" stroke-miterlimit="10"></path>
    <path d="M11.7578 21.3062H16.9402" stroke="#FFB50D" stroke-width="1.4" stroke-miterlimit="10"></path>
    <path d="M13.3652 8.35229H14.9736" stroke="#FFB50D" stroke-width="1.4" stroke-miterlimit="10" stroke-dasharray="1.99 1.99"></path>
    <path d="M17.0293 8.35229H18.5483" stroke="#FFB50D" stroke-width="1.4" stroke-miterlimit="10" stroke-dasharray="1.99 1.99"></path>
    <path d="M20.6035 8.35229H22.2118" stroke="#FFB50D" stroke-width="1.4" stroke-miterlimit="10" stroke-dasharray="1.99 1.99"></path>
  </symbol>
	<symbol xmlns="http://www.w3.org/2000/svg" viewBox="0 0 56 56" id="slider-arrow">
    <path fill-rule="evenodd" clip-rule="evenodd" d="M3.5 28C3.5 34.4978 6.08124 40.7295 10.6759 45.3241C15.2705 49.9188 21.5022 52.5 28 52.5C34.4978 52.5 40.7295 49.9188 45.3241 45.3241C49.9188 40.7295 52.5 34.4978 52.5 28C52.5 21.5022 49.9188 15.2705 45.3241 10.6759C40.7295 6.08124 34.4978 3.5 28 3.5C21.5022 3.5 15.2705 6.08124 10.6759 10.6759C6.08124 15.2705 3.5 21.5022 3.5 28ZM56 28C56 35.4261 53.05 42.548 47.799 47.799C42.548 53.05 35.4261 56 28 56C20.5739 56 13.452 53.05 8.20101 47.799C2.94999 42.548 0 35.4261 0 28C0 20.5739 2.94999 13.452 8.20101 8.20101C13.452 2.94999 20.5739 0 28 0C35.4261 0 42.548 2.94999 47.799 8.20101C53.05 13.452 56 20.5739 56 28ZM15.75 26.25C15.2859 26.25 14.8408 26.4344 14.5126 26.7626C14.1844 27.0908 14 27.5359 14 28C14 28.4641 14.1844 28.9093 14.5126 29.2374C14.8408 29.5656 15.2859 29.75 15.75 29.75H36.0255L28.511 37.261C28.3483 37.4237 28.2192 37.6169 28.1312 37.8295C28.0431 38.042 27.9978 38.2699 27.9978 38.5C27.9978 38.7301 28.0431 38.958 28.1312 39.1705C28.2192 39.3831 28.3483 39.5763 28.511 39.739C28.6737 39.9017 28.8669 40.0308 29.0795 40.1188C29.292 40.2069 29.5199 40.2522 29.75 40.2522C29.9801 40.2522 30.208 40.2069 30.4205 40.1188C30.6331 40.0308 30.8263 39.9017 30.989 39.739L41.489 29.239C41.652 29.0764 41.7813 28.8833 41.8695 28.6707C41.9577 28.4581 42.0031 28.2302 42.0031 28C42.0031 27.7698 41.9577 27.5419 41.8695 27.3293C41.7813 27.1167 41.652 26.9236 41.489 26.761L30.989 16.261C30.8263 16.0983 30.6331 15.9692 30.4205 15.8812C30.208 15.7931 29.9801 15.7478 29.75 15.7478C29.5199 15.7478 29.292 15.7931 29.0795 15.8812C28.8669 15.9692 28.6737 16.0983 28.511 16.261C28.3483 16.4237 28.2192 16.6169 28.1312 16.8295C28.0431 17.042 27.9978 17.2699 27.9978 17.5C27.9978 17.7301 28.0431 17.958 28.1312 18.1705C28.2192 18.3831 28.3483 18.5763 28.511 18.739L36.0255 26.25H15.75Z"></path>
  </symbol>
	<symbol fill="none" xmlns="http://www.w3.org/2000/svg" viewBox="0 0 16 16" id="sound-on">
    <path d="M13.3344 8C13.3344 5.78125 11.9781 3.88125 10.0531 3.07812L9.54062 4.30937C10.9844 4.9125 12 6.3375 12 8C12 9.66562 10.9844 11.0875 9.5375 11.6906L10.05 12.9219C11.9781 12.1187 13.3344 10.2188 13.3344 8ZM10.6656 8C10.6656 6.89062 9.9875 5.94063 9.025 5.54063L8.5125 6.77187C8.99375 6.97187 9.33125 7.44688 9.33125 8.00313C9.33125 8.55625 8.99375 9.03125 8.5125 9.23438L9.025 10.4656C9.9875 10.0594 10.6656 9.10938 10.6656 8ZM11.0781 0.615625L10.5625 1.84687C12.9719 2.85 14.6656 5.225 14.6656 8C14.6656 10.7719 12.9719 13.15 10.5625 14.1531L11.075 15.3844C13.9688 14.1781 16 11.3281 16 8C16 4.67188 13.9688 1.82187 11.0781 0.615625ZM0 4.66563V11.3313H2.66563L7.33437 16V0L2.66563 4.66563H0Z" fill="black"></path>
  </symbol>
	<symbol fill="none" xmlns="http://www.w3.org/2000/svg" viewBox="0 0 18 16" id="sound-off">
    <path d="M14.3344 8C14.3344 5.78125 12.9781 3.88125 11.0531 3.07812L10.5406 4.30937C11.9844 4.9125 13 6.3375 13 8C13 9.66562 11.9844 11.0875 10.5375 11.6906L11.05 12.9219C12.9781 12.1187 14.3344 10.2188 14.3344 8ZM11.6656 8C11.6656 6.89062 10.9875 5.94063 10.025 5.54063L9.5125 6.77187C9.99375 6.97187 10.3313 7.44688 10.3313 8.00313C10.3313 8.55625 9.99375 9.03125 9.5125 9.23438L10.025 10.4656C10.9875 10.0594 11.6656 9.10938 11.6656 8ZM12.0781 0.615625L11.5625 1.84687C13.9719 2.85 15.6656 5.225 15.6656 8C15.6656 10.7719 13.9719 13.15 11.5625 14.1531L12.075 15.3844C14.9688 14.1781 17 11.3281 17 8C17 4.67188 14.9688 1.82187 12.0781 0.615625ZM1 4.66563V11.3313H3.66563L8.33437 16V0L3.66563 4.66563H1Z" fill="black"></path>
    <rect x="1.08203" width="22.1077" height="2" rx="1" transform="rotate(39.0164 1.08203 0)" fill="black"></rect>
  </symbol>
	<symbol fill="none" xmlns="http://www.w3.org/2000/svg" viewBox="0 0 23 28" id="play">
    <path d="M22.5 13.134C23.1667 13.5189 23.1667 14.4811 22.5 14.866L1.5 26.9904C0.833333 27.3753 6.44345e-07 26.8942 6.77994e-07 26.1244L1.73794e-06 1.87564C1.77159e-06 1.10584 0.833336 0.624718 1.5 1.00962L22.5 13.134Z" fill="black"></path>
  </symbol>
	<symbol fill="none" xmlns="http://www.w3.org/2000/svg" viewBox="0 0 43 52" id="clock">
    <path d="M37.9198 16.9504L40.7198 13.5232C40.8802 13.341 41.0009 13.1274 41.0742 12.896C41.1475 12.6646 41.1717 12.4205 41.1454 12.1792C41.125 11.9353 41.0549 11.6982 40.9393 11.4824C40.8237 11.2667 40.6652 11.0769 40.4734 10.9248L38.2334 9.02079C38.0505 8.86154 37.8368 8.74159 37.6056 8.66837C37.3744 8.59516 37.1307 8.57025 36.8894 8.59519C36.6455 8.6156 36.4084 8.68576 36.1927 8.80133C35.9769 8.91691 35.7871 9.07545 35.635 9.26719L32.947 12.5152C30.4908 10.9566 27.7368 9.92667 24.8606 9.49119V6.95999H27.4814C27.9745 6.95999 28.4474 6.76411 28.7961 6.41544C29.1447 6.06678 29.3406 5.59388 29.3406 5.10079V2.09919C29.3406 1.6061 29.1447 1.1332 28.7961 0.784537C28.4474 0.43587 27.9745 0.23999 27.4814 0.23999H15.5198C15.0267 0.23999 14.5538 0.43587 14.2052 0.784537C13.8565 1.1332 13.6606 1.6061 13.6606 2.09919V5.10079C13.6606 5.59388 13.8565 6.06678 14.2052 6.41544C14.5538 6.76411 15.0267 6.95999 15.5198 6.95999H18.1406V9.49119C15.1114 9.96985 12.2223 11.101 9.67342 12.8064L6.78382 9.19999C6.46594 8.82439 6.01358 8.58826 5.52368 8.5422C5.03379 8.49614 4.54534 8.64382 4.16302 8.95359L1.92302 10.8352C1.54408 11.1499 1.30367 11.6007 1.25341 12.0907C1.20315 12.5807 1.34706 13.0709 1.65422 13.456L4.70062 17.2416V17.3536C2.22673 20.5079 0.69519 24.2975 0.282745 28.285C-0.1297 32.2725 0.593763 36.2953 2.36964 39.8893C4.14552 43.4832 6.90143 46.5017 10.3193 48.5965C13.7372 50.6913 17.6778 51.7769 21.6862 51.7282C25.6947 51.6794 29.6076 50.4981 32.9735 48.3208C36.3394 46.1435 39.0211 43.0587 40.709 39.4227C42.3969 35.7866 43.0222 31.7473 42.5128 27.7711C42.0035 23.7948 40.3802 20.0436 37.8302 16.9504H37.9198ZM37.0238 10.992L38.7486 12.4032L36.3742 15.2928C35.8404 14.771 35.2796 14.2776 34.6942 13.8144L37.0238 10.992ZM15.9006 2.47999H27.1006V4.71999H15.9006V2.47999ZM20.3806 6.95999H22.6206V9.19999C22.2398 9.19999 21.8814 9.19999 21.5006 9.19999C21.1198 9.19999 20.7614 9.19999 20.3806 9.19999V6.95999ZM3.55822 12.4032L5.30542 10.992L7.88142 14.1504C7.30958 14.6286 6.76373 15.1371 6.24622 15.6736L3.55822 12.4032ZM21.5006 49.52C17.7349 49.52 14.0537 48.4033 10.9226 46.3112C7.79145 44.219 5.35105 41.2454 3.90996 37.7663C2.46886 34.2872 2.09181 30.4589 2.82647 26.7655C3.56113 23.0721 5.37452 19.6795 8.03731 17.0167C10.7001 14.3539 14.0927 12.5405 17.7861 11.8058C21.4795 11.0712 25.3078 11.4482 28.7869 12.8893C32.266 14.3304 35.2397 16.7708 37.3318 19.9019C39.4239 23.033 40.5406 26.7142 40.5406 30.48C40.5347 35.5279 38.5268 40.3673 34.9574 43.9368C31.388 47.5062 26.5485 49.5141 21.5006 49.52V49.52Z" fill="#FFB50D"></path>
    <path d="M22.6209 30.0096V19.28C22.6209 18.983 22.5029 18.6981 22.2929 18.4881C22.0829 18.278 21.798 18.16 21.5009 18.16C21.2039 18.16 20.919 18.278 20.709 18.4881C20.4989 18.6981 20.3809 18.983 20.3809 19.28V30.48C20.3791 30.6269 20.4081 30.7726 20.466 30.9076C20.5239 31.0426 20.6093 31.164 20.7169 31.264L29.6769 40.224C29.7775 40.3312 29.8989 40.4166 30.0338 40.4749C30.1686 40.5333 30.314 40.5634 30.4609 40.5634C30.6079 40.5634 30.7533 40.5333 30.8881 40.4749C31.0229 40.4166 31.1444 40.3312 31.2449 40.224C31.3521 40.1235 31.4375 40.002 31.4958 39.8672C31.5542 39.7323 31.5843 39.587 31.5843 39.44C31.5843 39.2931 31.5542 39.1477 31.4958 39.0129C31.4375 38.878 31.3521 38.7566 31.2449 38.656L22.6209 30.0096Z" fill="#FFB50D"></path>
  </symbol>
	<symbol fill="none" xmlns="http://www.w3.org/2000/svg" viewBox="0 0 57 56" id="restrictions">
    <circle cx="28" cy="28" r="27" stroke="#FFB50D" stroke-width="2"></circle>
    <path d="M18.999 24.585V22.291H27.4453V24.084C26.748 24.7695 26.0391 25.7539 25.3184 27.0371C24.5977 28.3203 24.0469 29.6855 23.666 31.1328C23.291 32.5742 23.1064 33.8633 23.1123 35H20.7305C20.7715 33.2188 21.1377 31.4023 21.8291 29.5508C22.5264 27.6992 23.4551 26.0439 24.6152 24.585H18.999ZM32.376 33.1455V29.7969H29.001V27.4854H32.376V24.1367H34.626V27.4854H38.0098V29.7969H34.626V33.1455H32.376Z" fill="#FFB50D"></path>
  </symbol>
	<symbol fill="none" xmlns="http://www.w3.org/2000/svg" viewBox="0 0 56 43" id="group">
    <path d="M8.96048 20.0667C11.4347 20.0667 13.4405 18.0702 13.4405 15.6075C13.4405 13.1447 11.4347 11.1482 8.96048 11.1482C6.48624 11.1482 4.48047 13.1447 4.48047 15.6075C4.48047 18.0702 6.48624 20.0667 8.96048 20.0667Z" stroke="#FFB50D" stroke-width="2" stroke-miterlimit="10"></path>
    <path d="M13.2798 37.5852H4.15977C2.71977 37.5852 1.75977 36.4704 1.75977 35.0371V30.5778C1.75977 27.0741 4.47975 24.3667 7.99975 24.3667H13.5997" stroke="#FFB50D" stroke-width="2" stroke-miterlimit="10"></path>
    <path d="M28.1591 15.9259C32.0473 15.9259 35.1991 12.7886 35.1991 8.91854C35.1991 5.04846 32.0473 1.91113 28.1591 1.91113C24.2711 1.91113 21.1191 5.04846 21.1191 8.91854C21.1191 12.7886 24.2711 15.9259 28.1591 15.9259Z" stroke="#FFB50D" stroke-width="2" stroke-miterlimit="10"></path>
    <path d="M38.5591 40.1334H17.1191C14.8791 40.1334 13.1191 38.3815 13.1191 36.1519V29.3038C13.1191 23.8889 17.7591 19.4297 23.3591 19.4297H32.4791C38.0791 19.4297 42.7191 23.8889 42.7191 29.3038V36.1519C42.5591 38.3815 40.7991 40.1334 38.5591 40.1334Z" stroke="#FFB50D" stroke-width="2" stroke-miterlimit="10"></path>
    <path d="M46.3999 20.0667C48.8742 20.0667 50.8799 18.0702 50.8799 15.6075C50.8799 13.1447 48.8742 11.1482 46.3999 11.1482C43.9257 11.1482 41.9199 13.1447 41.9199 15.6075C41.9199 18.0702 43.9257 20.0667 46.3999 20.0667Z" stroke="#FFB50D" stroke-width="2" stroke-miterlimit="10"></path>
    <path d="M42.0798 37.5852H51.1998C52.6398 37.5852 53.5998 36.4704 53.5998 35.0371V30.5778C53.5998 27.0741 50.8798 24.3667 47.3598 24.3667H41.7598" stroke="#FFB50D" stroke-width="2" stroke-miterlimit="10"></path>
  </symbol>
	<symbol fill="none" xmlns="http://www.w3.org/2000/svg" viewBox="0 0 10 10" id="close">
    <path d="M0.757359 0.757289L9.24264 9.24257M0.757359 9.24257L9.24264 0.757289" stroke="#1B1B1B" stroke-width="1.5"></path>
  </symbol>
	<symbol fill="none" xmlns="http://www.w3.org/2000/svg" viewBox="0 0 34 44" id="location-big">
    <path d="M17 44C17 44 33.5 28.3635 33.5 16.5C33.5 12.1239 31.7616 7.92709 28.6673 4.83274C25.5729 1.73839 21.3761 0 17 0C12.6239 0 8.42709 1.73839 5.33274 4.83274C2.23839 7.92709 0.5 12.1239 0.5 16.5C0.5 28.3635 17 44 17 44ZM17 24.75C14.812 24.75 12.7135 23.8808 11.1664 22.3336C9.61919 20.7865 8.75 18.688 8.75 16.5C8.75 14.312 9.61919 12.2135 11.1664 10.6664C12.7135 9.11919 14.812 8.25 17 8.25C19.188 8.25 21.2865 9.11919 22.8336 10.6664C24.3808 12.2135 25.25 14.312 25.25 16.5C25.25 18.688 24.3808 20.7865 22.8336 22.3336C21.2865 23.8808 19.188 24.75 17 24.75Z" fill="#FFB50D"></path>
  </symbol>
	<symbol fill="none" xmlns="http://www.w3.org/2000/svg" viewBox="0 0 47 46" id="wallet">
    <path d="M45.4897 23.582H42.1858V15.0849C42.1858 15.0459 42.182 15.0079 42.18 14.9695V8.42614C42.18 7.98121 41.8193 7.62056 41.3744 7.62056H32.8327L25.4482 0.235913C25.297 0.0848795 25.0921 0 24.8785 0C24.6648 0 24.4599 0.0848539 24.3088 0.235913L18.7405 5.80417L16.1229 3.18643C15.8082 2.87186 15.2982 2.87186 14.9835 3.18643L10.5442 7.62572C10.5149 7.62248 10.4851 7.62056 10.4549 7.62056H1.30559C0.860648 7.62056 0.5 7.98121 0.5 8.42614V17C0.5 17.0263 0.501458 17.0522 0.50394 17.0778V43.7409C0.50394 44.9466 1.48486 45.9275 2.69055 45.9275H39.9992C41.2049 45.9275 42.1858 44.9466 42.1858 43.7409V35.244H45.4897C45.9347 35.244 46.2953 34.8833 46.2953 34.4384V24.3876C46.2953 23.9426 45.9346 23.582 45.4897 23.582ZM40.5688 9.23176V12.9762C40.3868 12.9269 40.1964 12.8983 39.9992 12.8983H38.1103L34.4438 9.23176H40.5688ZM24.8785 1.94486L35.8318 12.8983H33.3867L23.6559 3.16743L24.8785 1.94486ZM22.5165 4.30683L31.1079 12.8983H25.8348L19.8799 6.94344L22.5165 4.30683ZM15.5532 4.89538L17.6012 6.94341L18.7405 8.08269L23.5561 12.8983H21.3603L14.4553 5.99329L15.5532 4.89538ZM19.0815 12.8983H7.55032L13.3159 7.13269L19.0815 12.8983ZM5.27165 12.8983H2.69055C2.48971 12.8983 2.29608 12.9277 2.1112 12.9786V9.23176H8.93819L5.27165 12.8983ZM40.5746 43.741C40.5746 44.0582 40.3165 44.3164 39.9992 44.3164H2.69055C2.37328 44.3164 2.11514 44.0582 2.11514 43.741V15.0849C2.11514 14.7677 2.37328 14.5095 2.69055 14.5095H39.9992C40.2967 14.5095 40.5393 14.7373 40.5688 15.027V17C40.5688 17.0316 40.5712 17.0627 40.5747 17.0934V23.582H33.2524C30.0372 23.582 27.4214 26.1977 27.4214 29.4129C27.4214 32.6282 30.0372 35.244 33.2524 35.244H40.5747V43.741H40.5746ZM44.6841 33.6328H42.1858H40.5747H33.2524C30.9256 33.6328 29.0326 31.7397 29.0326 29.4129C29.0326 27.0861 30.9256 25.1932 33.2524 25.1932H40.5747H42.1858H44.6841V33.6328Z" fill="#FFB50D"></path>
    <path d="M33.2908 26.6509C31.7679 26.6509 30.5288 27.89 30.5288 29.4129C30.5288 30.9359 31.7679 32.175 33.2908 32.175C34.8138 32.175 36.0529 30.9359 36.0529 29.4129C36.0529 27.8899 34.8138 26.6509 33.2908 26.6509ZM33.2908 30.5638C32.6563 30.5638 32.14 30.0474 32.14 29.4129C32.14 28.7784 32.6563 28.2621 33.2908 28.2621C33.9254 28.2621 34.4417 28.7784 34.4417 29.4129C34.4417 30.0474 33.9254 30.5638 33.2908 30.5638Z" fill="#FFB50D"></path>
  </symbol>
</svg>