<svg width="0" height="0" class="hidden">
  <symbol xmlns="http://www.w3.org/2000/svg" viewBox="0 0 8 14" id="angle-right">
    <path d="M7 7L7.35355 6.64645L7.70711 7L7.35355 7.35355L7 7ZM1.35355 0.646447L7.35355 6.64645L6.64645 7.35355L0.646447 1.35355L1.35355 0.646447ZM7.35355 7.35355L1.35355 13.3536L0.646447 12.6464L6.64645 6.64645L7.35355 7.35355Z" fill="#ffffff"></path>
  </symbol>
	<symbol xmlns="http://www.w3.org/2000/svg" viewBox="0 0 19 18" id="rating-star">
    <path d="M14.4049 11.1775C14.302 11.2779 14.225 11.4018 14.1806 11.5386C14.1362 11.6753 14.1256 11.8208 14.1499 11.9625L14.9339 16.5315C14.9793 16.685 14.9747 16.8489 14.9208 16.9995C14.8669 17.1502 14.7664 17.2798 14.6339 17.3695C14.4696 17.4887 14.2719 17.5531 14.0689 17.5535C13.9111 17.5542 13.7556 17.5161 13.6159 17.4425L9.42895 15.1835C9.30172 15.1167 9.16016 15.0818 9.01645 15.0818C8.87273 15.0818 8.73117 15.1167 8.60395 15.1835L4.58795 17.4425C4.42849 17.5264 4.24875 17.5641 4.06903 17.5512C3.88931 17.5383 3.71679 17.4753 3.57095 17.3695C3.41877 17.2915 3.29289 17.1705 3.20897 17.0215C3.12504 16.8725 3.08678 16.7021 3.09895 16.5315L4.05895 11.8675C4.08325 11.7258 4.07274 11.5803 4.02832 11.4436C3.98389 11.3068 3.90689 11.1829 3.80395 11.0825L0.303946 8.33255C0.174722 8.20688 0.083279 8.04753 0.0399774 7.87256C-0.00332434 7.69758 0.00324658 7.51398 0.0589456 7.34255C0.11473 7.17118 0.217342 7.01883 0.355181 6.90273C0.493019 6.78663 0.660589 6.7114 0.838946 6.68555L5.38595 5.88555C5.52827 5.86491 5.66343 5.80998 5.7798 5.72549C5.89618 5.641 5.99026 5.52948 6.05395 5.40055L8.14694 0.982549C8.22708 0.820807 8.35103 0.684815 8.50466 0.590054C8.65829 0.495294 8.83544 0.445571 9.01595 0.446547C9.19613 0.446433 9.37274 0.496767 9.52579 0.591849C9.67884 0.686932 9.80222 0.822965 9.88195 0.984547L11.8929 5.40255C11.9566 5.53148 12.0507 5.643 12.1671 5.72749C12.2835 5.81198 12.4186 5.86691 12.5609 5.88755L17.1899 6.68755C17.3682 6.71335 17.5357 6.78858 17.6734 6.9047C17.811 7.02082 17.9134 7.1732 17.9689 7.34455C18.0244 7.516 18.0309 7.69955 17.9876 7.87447C17.9443 8.0494 17.853 8.20875 17.7239 8.33455L14.4049 11.1775Z"></path>
  </symbol>
	<symbol xmlns="http://www.w3.org/2000/svg" viewBox="0 0 10 18" id="facebook">
    <path d="M6.39703 17.9969V9.80092H9.16203L9.57303 6.59193H6.39703V4.54792C6.39703 3.62192 6.65503 2.98793 7.98403 2.98793H9.66803V0.126925C8.84867 0.0391161 8.02508 -0.00328216 7.20103 -7.49744e-05C4.75703 -7.49744e-05 3.07903 1.49193 3.07903 4.23093V6.58593H0.332031V9.79492H3.08503V17.9969H6.39703Z"></path>
  </symbol>
	<symbol xmlns="http://www.w3.org/2000/svg" viewBox="0 0 24 14" id="vk">
    <path fill-rule="evenodd" clip-rule="evenodd" d="M21.3625 9.7576C21.3625 9.7576 23.3029 11.674 23.7829 12.5608C23.7922 12.5736 23.7995 12.5878 23.8045 12.6028C24.0001 12.9304 24.0481 13.1872 23.9521 13.3768C23.7901 13.69 23.2417 13.8472 23.0557 13.8604H19.6261C19.3873 13.8604 18.8905 13.798 18.2857 13.3804C17.8237 13.0576 17.3641 12.526 16.9189 12.0064C16.2541 11.2348 15.6793 10.5652 15.0973 10.5652C15.0238 10.5651 14.9508 10.5773 14.8813 10.6012C14.4409 10.7404 13.8817 11.368 13.8817 13.0396C13.8817 13.5628 13.4689 13.8604 13.1797 13.8604H11.6089C11.0737 13.8604 8.28731 13.6732 5.81651 11.068C2.78891 7.8784 0.0697081 1.48005 0.0433081 1.42365C-0.125892 1.00965 0.229308 0.784049 0.613308 0.784049H4.07651C4.54091 0.784049 4.69211 1.06485 4.79771 1.31685C4.92011 1.60605 5.37371 2.76285 6.11771 4.06245C7.32251 6.1768 8.06291 7.0372 8.65451 7.0372C8.76566 7.0376 8.87492 7.0086 8.97131 6.9532C9.74411 6.5284 9.60011 3.76845 9.56411 3.19965C9.56411 3.08925 9.56291 1.96725 9.16691 1.42485C8.88371 1.03605 8.40131 0.884848 8.10971 0.829648C8.18771 0.716848 8.35331 0.544049 8.56571 0.442049C9.09491 0.178049 10.0513 0.139648 11.0005 0.139648H11.5273C12.5569 0.154048 12.8233 0.220048 13.1977 0.314848C13.9513 0.494848 13.9657 0.983249 13.8997 2.64645C13.8805 3.12165 13.8601 3.65685 13.8601 4.28685C13.8601 4.42125 13.8541 4.57125 13.8541 4.72365C13.8313 5.5768 13.8013 6.538 14.4037 6.9328C14.4818 6.9815 14.5721 7.0073 14.6641 7.0072C14.8729 7.0072 15.4981 7.0072 17.1937 4.09725C17.9377 2.81205 18.5137 1.29645 18.5533 1.18245C18.5869 1.11885 18.6877 0.940049 18.8101 0.868049C18.8972 0.821719 18.9947 0.798579 19.0933 0.800848H23.1673C23.6113 0.800848 23.9125 0.868048 23.9713 1.03605C24.0697 1.30845 23.9521 2.14005 22.0921 4.65525C21.7789 5.074 21.5041 5.4364 21.2629 5.7532C19.5769 7.966 19.5769 8.0776 21.3625 9.7576Z"></path>
  </symbol>
	<symbol xmlns="http://www.w3.org/2000/svg" viewBox="0 0 36 24" id="advisor">
    <path d="M10.1718 13.7216C10.1718 14.1648 10.0287 14.5426 9.74215 14.8551C9.45572 15.1676 9.11458 15.3239 8.71875 15.3239C8.3125 15.3239 7.96615 15.1676 7.67969 14.8551C7.39323 14.5426 7.25 14.1648 7.25 13.7216C7.25 13.2898 7.39323 12.9176 7.67969 12.6051C7.96615 12.2926 8.3125 12.1364 8.71875 12.1364C9.11458 12.1364 9.45572 12.2926 9.74215 12.6051C10.0287 12.9176 10.1718 13.2898 10.1718 13.7216ZM28.2031 13.7046C28.2031 14.1477 28.0599 14.5256 27.7734 14.8381C27.487 15.1506 27.1406 15.3068 26.7343 15.3068C26.3281 15.3068 25.9818 15.1506 25.6953 14.8381C25.4089 14.5256 25.2656 14.1477 25.2656 13.7046C25.2656 13.2614 25.4089 12.8864 25.6953 12.5796C25.9818 12.2727 26.3281 12.1193 26.7343 12.1193C27.1406 12.1193 27.487 12.2727 27.7734 12.5796C28.0599 12.8864 28.2031 13.2614 28.2031 13.7046ZM11.9531 13.7216C11.9531 12.8239 11.6588 12.0512 11.0703 11.4034C10.4818 10.7557 9.77086 10.4318 8.9375 10.4318C8.10416 10.4318 7.39323 10.7529 6.80469 11.3949C6.21615 12.037 5.92187 12.8125 5.92187 13.7216C5.92187 14.6307 6.21615 15.4063 6.80469 16.0483C7.39323 16.6904 8.10416 17.0114 8.9375 17.0114C9.77086 17.0114 10.4818 16.6904 11.0703 16.0483C11.6588 15.4063 11.9531 14.6307 11.9531 13.7216ZM29.9687 13.7046C29.9687 12.7955 29.6745 12.0199 29.086 11.3779C28.4974 10.7358 27.7865 10.4148 26.9531 10.4148C26.1302 10.4148 25.4219 10.7358 24.8281 11.3779C24.2344 12.0199 23.9375 12.7955 23.9375 13.7046C23.9375 14.6137 24.2318 15.3892 24.8203 16.0313C25.4089 16.6733 26.1198 16.9943 26.9531 16.9943C27.7865 16.9943 28.4974 16.6733 29.086 16.0313C29.6745 15.3892 29.9687 14.6137 29.9687 13.7046ZM13.2812 13.7216C13.2812 15.0398 12.8568 16.162 12.0078 17.0881C11.1589 18.0142 10.1354 18.4773 8.9375 18.4773C7.72916 18.4773 6.70052 18.0114 5.85156 17.0796C5.00261 16.1477 4.57813 15.0284 4.57813 13.7216C4.57813 12.4148 5.00521 11.2983 5.85938 10.3722C6.71354 9.44605 7.73958 8.98298 8.9375 8.98298C10.1354 8.98298 11.1589 9.44605 12.0078 10.3722C12.8568 11.2983 13.2812 12.4148 13.2812 13.7216ZM31.3125 13.7046C31.3125 15.0114 30.888 16.1279 30.039 17.054C29.1901 17.9801 28.1614 18.4432 26.9531 18.4432C25.7552 18.4432 24.7318 17.9801 23.8828 17.054C23.0338 16.1279 22.6094 15.0114 22.6094 13.7046C22.6094 12.3977 23.0338 11.2813 23.8828 10.3551C24.7318 9.429 25.7552 8.96593 26.9531 8.96593C28.1614 8.96593 29.1901 9.429 30.039 10.3551C30.888 11.2813 31.3125 12.3977 31.3125 13.7046ZM16.25 13.7557C16.25 11.5852 15.5442 9.73014 14.1328 8.19036C12.7214 6.65059 11.0208 5.8807 9.03125 5.8807C7.72916 5.8807 6.52604 6.23298 5.42188 6.93752C4.31771 7.64207 3.44271 8.59945 2.79688 9.80968C2.15105 11.0199 1.82813 12.3352 1.82813 13.7557C1.82813 15.1762 2.15105 16.4915 2.79688 17.7017C3.44271 18.912 4.31771 19.8693 5.42188 20.5739C6.52604 21.2784 7.72916 21.6307 9.03125 21.6307C11.0208 21.6307 12.7214 20.8608 14.1328 19.321C15.5442 17.7813 16.25 15.9262 16.25 13.7557ZM26.6875 3.98866C24.0416 2.72729 21.1458 2.09661 18 2.09661C14.6771 2.09661 11.6927 2.72161 9.04687 3.97161C10.2656 3.97161 11.427 4.23014 12.5312 4.74718C13.6354 5.26423 14.5859 5.96025 15.3828 6.83525C16.1797 7.71025 16.8151 8.75002 17.289 9.95457C17.763 11.1591 18 12.4262 18 13.7557C18 12.4489 18.2265 11.2017 18.6797 10.0142C19.1328 8.82673 19.7474 7.80116 20.5234 6.93752C21.2994 6.07389 22.224 5.37502 23.2969 4.84093C24.3698 4.30684 25.5 4.02275 26.6875 3.98866ZM34.1718 13.7557C34.1718 11.5852 33.4687 9.73014 32.0625 8.19036C30.6562 6.65059 28.9583 5.8807 26.9687 5.8807C24.9792 5.8807 23.2786 6.65059 21.8672 8.19036C20.4558 9.73014 19.75 11.5852 19.75 13.7557C19.75 15.9262 20.4558 17.7813 21.8672 19.321C23.2786 20.8608 24.9792 21.6307 26.9687 21.6307C28.9583 21.6307 30.6562 20.8608 32.0625 19.321C33.4687 17.7813 34.1718 15.9262 34.1718 13.7557ZM30.0156 4.10798H36C35.5417 4.68752 35.151 5.33809 34.8282 6.05968C34.5052 6.78127 34.2968 7.43184 34.2031 8.01139C35.349 9.7273 35.9219 11.6421 35.9219 13.7557C35.9219 15.5284 35.5208 17.1648 34.7188 18.6648C33.9167 20.1648 32.8281 21.3495 31.4531 22.2188C30.0781 23.0881 28.5834 23.5228 26.9687 23.5228C25.5834 23.5228 24.2864 23.2046 23.0781 22.5682C21.8698 21.9318 20.849 21.0512 20.0156 19.9262C19.526 20.5625 18.8541 21.5796 18 22.9773C17.8854 22.7273 17.6068 22.2585 17.1641 21.571C16.7214 20.8835 16.3333 20.3296 16 19.9091C15.1667 21.0341 14.1432 21.9176 12.9297 22.5597C11.7162 23.2017 10.4166 23.5228 9.03125 23.5228C7.41666 23.5228 5.92187 23.0881 4.54687 22.2188C3.17188 21.3495 2.08333 20.1648 1.28125 18.6648C0.479166 17.1648 0.078125 15.5284 0.078125 13.7557C0.078125 11.6421 0.651042 9.7273 1.79687 8.01139C1.70312 7.43184 1.49479 6.78127 1.17187 6.05968C0.848959 5.33809 0.458334 4.68752 0 4.10798H5.70313C7.25521 2.97161 9.10417 2.08241 11.25 1.44036C13.3959 0.798318 15.6459 0.477295 18 0.477295C20.3334 0.477295 22.526 0.795477 24.5781 1.43184C26.6302 2.0682 28.4427 2.96025 30.0156 4.10798Z"></path>
  </symbol>
	<symbol xmlns="http://www.w3.org/2000/svg" viewBox="0 0 20 20" id="insta">
    <path d="M18.9471 6.30496C18.937 5.54758 18.7952 4.79773 18.5281 4.08896C18.2964 3.49111 17.9426 2.94816 17.4892 2.49479C17.0359 2.04142 16.4929 1.68761 15.8951 1.45596C15.1954 1.19331 14.4562 1.0513 13.7091 1.03596C12.7471 0.992957 12.4421 0.980957 10.0001 0.980957C7.55807 0.980957 7.24507 0.980957 6.29007 1.03596C5.54323 1.05141 4.80442 1.19343 4.10507 1.45596C3.50713 1.68745 2.96409 2.0412 2.5107 2.49459C2.05732 2.94798 1.70356 3.49102 1.47207 4.08896C1.2089 4.78809 1.06719 5.52707 1.05307 6.27396C1.01007 7.23696 0.99707 7.54196 0.99707 9.98396C0.99707 12.426 0.99707 12.738 1.05307 13.694C1.06807 14.442 1.20907 15.18 1.47207 15.881C1.70395 16.4787 2.05797 17.0215 2.51151 17.4747C2.96505 17.9279 3.50813 18.2815 4.10607 18.513C4.8035 18.7862 5.54244 18.9383 6.29107 18.963C7.25407 19.006 7.55907 19.019 10.0011 19.019C12.4431 19.019 12.7561 19.019 13.7111 18.963C14.4582 18.9482 15.1974 18.8066 15.8971 18.544C16.4948 18.312 17.0376 17.9581 17.4909 17.5048C17.9442 17.0515 18.2982 16.5086 18.5301 15.911C18.7931 15.211 18.9341 14.473 18.9491 13.724C18.9921 12.762 19.0051 12.457 19.0051 10.014C19.0031 7.57196 19.0031 7.26196 18.9471 6.30496ZM9.99407 14.602C7.44007 14.602 5.37107 12.533 5.37107 9.97896C5.37107 7.42496 7.44007 5.35596 9.99407 5.35596C11.2202 5.35596 12.396 5.84302 13.263 6.71C14.13 7.57698 14.6171 8.75286 14.6171 9.97896C14.6171 11.2051 14.13 12.3809 13.263 13.2479C12.396 14.1149 11.2202 14.602 9.99407 14.602ZM14.8011 6.26296C14.6595 6.26309 14.5192 6.2353 14.3884 6.18117C14.2575 6.12704 14.1386 6.04764 14.0385 5.94751C13.9384 5.84738 13.859 5.72849 13.8049 5.59765C13.7507 5.4668 13.7229 5.32656 13.7231 5.18496C13.7231 5.04346 13.7509 4.90334 13.8051 4.77262C13.8592 4.64189 13.9386 4.5231 14.0387 4.42305C14.1387 4.32299 14.2575 4.24363 14.3882 4.18948C14.519 4.13533 14.6591 4.10746 14.8006 4.10746C14.9421 4.10746 15.0822 4.13533 15.2129 4.18948C15.3436 4.24363 15.4624 4.32299 15.5625 4.42305C15.6625 4.5231 15.7419 4.64189 15.7961 4.77262C15.8502 4.90334 15.8781 5.04346 15.8781 5.18496C15.8781 5.78096 15.3961 6.26296 14.8011 6.26296Z"></path>
    <path d="M9.99421 12.9821C11.6527 12.9821 12.9972 11.6376 12.9972 9.97907C12.9972 8.32056 11.6527 6.97607 9.99421 6.97607C8.3357 6.97607 6.99121 8.32056 6.99121 9.97907C6.99121 11.6376 8.3357 12.9821 9.99421 12.9821Z"></path>
  </symbol>
	<symbol xmlns="http://www.w3.org/2000/svg" viewBox="0 0 24 18" id="youtube">
    <path d="M12.0765 0.998535H12.21C13.443 1.00304 19.6905 1.04804 21.375 1.50104C21.8842 1.63929 22.3483 1.90877 22.7207 2.28255C23.0932 2.65633 23.361 3.12131 23.4975 3.63104C23.649 4.20104 23.7555 4.95554 23.8275 5.73404L23.8425 5.89004L23.8755 6.28004L23.8875 6.43604C23.985 7.80704 23.997 9.09104 23.9985 9.37154V9.48404C23.997 9.77504 23.9835 11.146 23.8755 12.574L23.8635 12.7315L23.85 12.8875C23.775 13.7455 23.664 14.5975 23.4975 15.2245C23.3615 15.7345 23.0938 16.1997 22.7212 16.5735C22.3487 16.9474 21.8844 17.2167 21.375 17.3545C19.635 17.8225 13.0215 17.8555 12.105 17.857H11.892C11.4285 17.857 9.5115 17.848 7.5015 17.779L7.2465 17.77L7.116 17.764L6.8595 17.7535L6.603 17.743C4.938 17.6695 3.3525 17.551 2.622 17.353C2.11273 17.2153 1.6486 16.9462 1.27609 16.5726C0.903575 16.1991 0.63577 15.7342 0.4995 15.2245C0.333 14.599 0.222 13.7455 0.147 12.8875L0.135 12.73L0.123 12.574C0.0489714 11.5576 0.0079498 10.5391 0 9.52004L0 9.33554C0.003 9.01304 0.015 7.89854 0.096 6.66854L0.1065 6.51404L0.111 6.43604L0.123 6.28004L0.156 5.89004L0.171 5.73404C0.243 4.95554 0.3495 4.19954 0.501 3.63104C0.63704 3.12111 0.904743 2.6559 1.27727 2.28206C1.6498 1.90822 2.11405 1.63887 2.6235 1.50104C3.354 1.30604 4.9395 1.18604 6.6045 1.11104L6.8595 1.10054L7.1175 1.09154L7.2465 1.08704L7.503 1.07654C8.93056 1.0306 10.3587 1.00509 11.787 1.00004H12.0765V0.998535ZM9.6 5.81354V13.0405L15.8355 9.42854L9.6 5.81354Z"></path>
  </symbol>
	<symbol xmlns="http://www.w3.org/2000/svg" viewBox="0 0 10 5" id="more">
    <path d="M4.99953 4.66652C4.84376 4.66683 4.69281 4.61258 4.57287 4.51319L0.572866 1.17986C0.436722 1.0667 0.351105 0.904092 0.334852 0.727807C0.318599 0.551523 0.37304 0.376003 0.486199 0.239858C0.599358 0.103714 0.761966 0.0180976 0.93825 0.00184445C1.11453 -0.0144087 1.29005 0.0400322 1.4262 0.153191L4.99953 3.13986L8.57287 0.259858C8.64106 0.204481 8.71952 0.163127 8.80375 0.138172C8.88797 0.113218 8.9763 0.105155 9.06365 0.114448C9.15101 0.123741 9.23566 0.150205 9.31275 0.192321C9.38984 0.234437 9.45785 0.291374 9.51287 0.359858C9.57392 0.428406 9.62016 0.508824 9.64869 0.596073C9.67722 0.683322 9.68742 0.775522 9.67866 0.866898C9.66989 0.958273 9.64236 1.04685 9.59777 1.12709C9.55318 1.20733 9.4925 1.2775 9.41953 1.33319L5.41953 4.55319C5.29614 4.63687 5.14827 4.67677 4.99953 4.66652Z"></path>
  </symbol>
	<symbol xmlns="http://www.w3.org/2000/svg" viewBox="0 0 6 10" id="next">
    <path d="M5 5L5.35355 4.64645L5.70711 5L5.35355 5.35355L5 5ZM1.35355 0.646447L5.35355 4.64645L4.64645 5.35355L0.646447 1.35355L1.35355 0.646447ZM5.35355 5.35355L1.35355 9.35355L0.646447 8.64645L4.64645 4.64645L5.35355 5.35355Z"></path>
  </symbol>
</svg>