<svg width="0" height="0" class="hidden">
  <symbol xmlns="http://www.w3.org/2000/svg" viewBox="0 0 8 14" id="angle-right">
    <path d="M7 7L7.35355 6.64645L7.70711 7L7.35355 7.35355L7 7ZM1.35355 0.646447L7.35355 6.64645L6.64645 7.35355L0.646447 1.35355L1.35355 0.646447ZM7.35355 7.35355L1.35355 13.3536L0.646447 12.6464L6.64645 6.64645L7.35355 7.35355Z" fill="#ffffff"></path>
  </symbol>
	<symbol xmlns="http://www.w3.org/2000/svg" viewBox="0 0 19 18" id="rating-star">
    <path d="M14.4049 11.1775C14.302 11.2779 14.225 11.4018 14.1806 11.5386C14.1362 11.6753 14.1256 11.8208 14.1499 11.9625L14.9339 16.5315C14.9793 16.685 14.9747 16.8489 14.9208 16.9995C14.8669 17.1502 14.7664 17.2798 14.6339 17.3695C14.4696 17.4887 14.2719 17.5531 14.0689 17.5535C13.9111 17.5542 13.7556 17.5161 13.6159 17.4425L9.42895 15.1835C9.30172 15.1167 9.16016 15.0818 9.01645 15.0818C8.87273 15.0818 8.73117 15.1167 8.60395 15.1835L4.58795 17.4425C4.42849 17.5264 4.24875 17.5641 4.06903 17.5512C3.88931 17.5383 3.71679 17.4753 3.57095 17.3695C3.41877 17.2915 3.29289 17.1705 3.20897 17.0215C3.12504 16.8725 3.08678 16.7021 3.09895 16.5315L4.05895 11.8675C4.08325 11.7258 4.07274 11.5803 4.02832 11.4436C3.98389 11.3068 3.90689 11.1829 3.80395 11.0825L0.303946 8.33255C0.174722 8.20688 0.083279 8.04753 0.0399774 7.87256C-0.00332434 7.69758 0.00324658 7.51398 0.0589456 7.34255C0.11473 7.17118 0.217342 7.01883 0.355181 6.90273C0.493019 6.78663 0.660589 6.7114 0.838946 6.68555L5.38595 5.88555C5.52827 5.86491 5.66343 5.80998 5.7798 5.72549C5.89618 5.641 5.99026 5.52948 6.05395 5.40055L8.14694 0.982549C8.22708 0.820807 8.35103 0.684815 8.50466 0.590054C8.65829 0.495294 8.83544 0.445571 9.01595 0.446547C9.19613 0.446433 9.37274 0.496767 9.52579 0.591849C9.67884 0.686932 9.80222 0.822965 9.88195 0.984547L11.8929 5.40255C11.9566 5.53148 12.0507 5.643 12.1671 5.72749C12.2835 5.81198 12.4186 5.86691 12.5609 5.88755L17.1899 6.68755C17.3682 6.71335 17.5357 6.78858 17.6734 6.9047C17.811 7.02082 17.9134 7.1732 17.9689 7.34455C18.0244 7.516 18.0309 7.69955 17.9876 7.87447C17.9443 8.0494 17.853 8.20875 17.7239 8.33455L14.4049 11.1775Z"></path>
  </symbol>
	<symbol xmlns="http://www.w3.org/2000/svg" viewBox="0 0 10 18" id="facebook">
    <path d="M6.39703 17.9969V9.80092H9.16203L9.57303 6.59193H6.39703V4.54792C6.39703 3.62192 6.65503 2.98793 7.98403 2.98793H9.66803V0.126925C8.84867 0.0391161 8.02508 -0.00328216 7.20103 -7.49744e-05C4.75703 -7.49744e-05 3.07903 1.49193 3.07903 4.23093V6.58593H0.332031V9.79492H3.08503V17.9969H6.39703Z"></path>
  </symbol>
	<symbol xmlns="http://www.w3.org/2000/svg" viewBox="0 0 24 14" id="vk">
    <path fill-rule="evenodd" clip-rule="evenodd" d="M21.3625 9.7576C21.3625 9.7576 23.3029 11.674 23.7829 12.5608C23.7922 12.5736 23.7995 12.5878 23.8045 12.6028C24.0001 12.9304 24.0481 13.1872 23.9521 13.3768C23.7901 13.69 23.2417 13.8472 23.0557 13.8604H19.6261C19.3873 13.8604 18.8905 13.798 18.2857 13.3804C17.8237 13.0576 17.3641 12.526 16.9189 12.0064C16.2541 11.2348 15.6793 10.5652 15.0973 10.5652C15.0238 10.5651 14.9508 10.5773 14.8813 10.6012C14.4409 10.7404 13.8817 11.368 13.8817 13.0396C13.8817 13.5628 13.4689 13.8604 13.1797 13.8604H11.6089C11.0737 13.8604 8.28731 13.6732 5.81651 11.068C2.78891 7.8784 0.0697081 1.48005 0.0433081 1.42365C-0.125892 1.00965 0.229308 0.784049 0.613308 0.784049H4.07651C4.54091 0.784049 4.69211 1.06485 4.79771 1.31685C4.92011 1.60605 5.37371 2.76285 6.11771 4.06245C7.32251 6.1768 8.06291 7.0372 8.65451 7.0372C8.76566 7.0376 8.87492 7.0086 8.97131 6.9532C9.74411 6.5284 9.60011 3.76845 9.56411 3.19965C9.56411 3.08925 9.56291 1.96725 9.16691 1.42485C8.88371 1.03605 8.40131 0.884848 8.10971 0.829648C8.18771 0.716848 8.35331 0.544049 8.56571 0.442049C9.09491 0.178049 10.0513 0.139648 11.0005 0.139648H11.5273C12.5569 0.154048 12.8233 0.220048 13.1977 0.314848C13.9513 0.494848 13.9657 0.983249 13.8997 2.64645C13.8805 3.12165 13.8601 3.65685 13.8601 4.28685C13.8601 4.42125 13.8541 4.57125 13.8541 4.72365C13.8313 5.5768 13.8013 6.538 14.4037 6.9328C14.4818 6.9815 14.5721 7.0073 14.6641 7.0072C14.8729 7.0072 15.4981 7.0072 17.1937 4.09725C17.9377 2.81205 18.5137 1.29645 18.5533 1.18245C18.5869 1.11885 18.6877 0.940049 18.8101 0.868049C18.8972 0.821719 18.9947 0.798579 19.0933 0.800848H23.1673C23.6113 0.800848 23.9125 0.868048 23.9713 1.03605C24.0697 1.30845 23.9521 2.14005 22.0921 4.65525C21.7789 5.074 21.5041 5.4364 21.2629 5.7532C19.5769 7.966 19.5769 8.0776 21.3625 9.7576Z"></path>
  </symbol>
	<symbol xmlns="http://www.w3.org/2000/svg" viewBox="0 0 36 24" id="advisor">
    <path d="M10.1718 13.7216C10.1718 14.1648 10.0287 14.5426 9.74215 14.8551C9.45572 15.1676 9.11458 15.3239 8.71875 15.3239C8.3125 15.3239 7.96615 15.1676 7.67969 14.8551C7.39323 14.5426 7.25 14.1648 7.25 13.7216C7.25 13.2898 7.39323 12.9176 7.67969 12.6051C7.96615 12.2926 8.3125 12.1364 8.71875 12.1364C9.11458 12.1364 9.45572 12.2926 9.74215 12.6051C10.0287 12.9176 10.1718 13.2898 10.1718 13.7216ZM28.2031 13.7046C28.2031 14.1477 28.0599 14.5256 27.7734 14.8381C27.487 15.1506 27.1406 15.3068 26.7343 15.3068C26.3281 15.3068 25.9818 15.1506 25.6953 14.8381C25.4089 14.5256 25.2656 14.1477 25.2656 13.7046C25.2656 13.2614 25.4089 12.8864 25.6953 12.5796C25.9818 12.2727 26.3281 12.1193 26.7343 12.1193C27.1406 12.1193 27.487 12.2727 27.7734 12.5796C28.0599 12.8864 28.2031 13.2614 28.2031 13.7046ZM11.9531 13.7216C11.9531 12.8239 11.6588 12.0512 11.0703 11.4034C10.4818 10.7557 9.77086 10.4318 8.9375 10.4318C8.10416 10.4318 7.39323 10.7529 6.80469 11.3949C6.21615 12.037 5.92187 12.8125 5.92187 13.7216C5.92187 14.6307 6.21615 15.4063 6.80469 16.0483C7.39323 16.6904 8.10416 17.0114 8.9375 17.0114C9.77086 17.0114 10.4818 16.6904 11.0703 16.0483C11.6588 15.4063 11.9531 14.6307 11.9531 13.7216ZM29.9687 13.7046C29.9687 12.7955 29.6745 12.0199 29.086 11.3779C28.4974 10.7358 27.7865 10.4148 26.9531 10.4148C26.1302 10.4148 25.4219 10.7358 24.8281 11.3779C24.2344 12.0199 23.9375 12.7955 23.9375 13.7046C23.9375 14.6137 24.2318 15.3892 24.8203 16.0313C25.4089 16.6733 26.1198 16.9943 26.9531 16.9943C27.7865 16.9943 28.4974 16.6733 29.086 16.0313C29.6745 15.3892 29.9687 14.6137 29.9687 13.7046ZM13.2812 13.7216C13.2812 15.0398 12.8568 16.162 12.0078 17.0881C11.1589 18.0142 10.1354 18.4773 8.9375 18.4773C7.72916 18.4773 6.70052 18.0114 5.85156 17.0796C5.00261 16.1477 4.57813 15.0284 4.57813 13.7216C4.57813 12.4148 5.00521 11.2983 5.85938 10.3722C6.71354 9.44605 7.73958 8.98298 8.9375 8.98298C10.1354 8.98298 11.1589 9.44605 12.0078 10.3722C12.8568 11.2983 13.2812 12.4148 13.2812 13.7216ZM31.3125 13.7046C31.3125 15.0114 30.888 16.1279 30.039 17.054C29.1901 17.9801 28.1614 18.4432 26.9531 18.4432C25.7552 18.4432 24.7318 17.9801 23.8828 17.054C23.0338 16.1279 22.6094 15.0114 22.6094 13.7046C22.6094 12.3977 23.0338 11.2813 23.8828 10.3551C24.7318 9.429 25.7552 8.96593 26.9531 8.96593C28.1614 8.96593 29.1901 9.429 30.039 10.3551C30.888 11.2813 31.3125 12.3977 31.3125 13.7046ZM16.25 13.7557C16.25 11.5852 15.5442 9.73014 14.1328 8.19036C12.7214 6.65059 11.0208 5.8807 9.03125 5.8807C7.72916 5.8807 6.52604 6.23298 5.42188 6.93752C4.31771 7.64207 3.44271 8.59945 2.79688 9.80968C2.15105 11.0199 1.82813 12.3352 1.82813 13.7557C1.82813 15.1762 2.15105 16.4915 2.79688 17.7017C3.44271 18.912 4.31771 19.8693 5.42188 20.5739C6.52604 21.2784 7.72916 21.6307 9.03125 21.6307C11.0208 21.6307 12.7214 20.8608 14.1328 19.321C15.5442 17.7813 16.25 15.9262 16.25 13.7557ZM26.6875 3.98866C24.0416 2.72729 21.1458 2.09661 18 2.09661C14.6771 2.09661 11.6927 2.72161 9.04687 3.97161C10.2656 3.97161 11.427 4.23014 12.5312 4.74718C13.6354 5.26423 14.5859 5.96025 15.3828 6.83525C16.1797 7.71025 16.8151 8.75002 17.289 9.95457C17.763 11.1591 18 12.4262 18 13.7557C18 12.4489 18.2265 11.2017 18.6797 10.0142C19.1328 8.82673 19.7474 7.80116 20.5234 6.93752C21.2994 6.07389 22.224 5.37502 23.2969 4.84093C24.3698 4.30684 25.5 4.02275 26.6875 3.98866ZM34.1718 13.7557C34.1718 11.5852 33.4687 9.73014 32.0625 8.19036C30.6562 6.65059 28.9583 5.8807 26.9687 5.8807C24.9792 5.8807 23.2786 6.65059 21.8672 8.19036C20.4558 9.73014 19.75 11.5852 19.75 13.7557C19.75 15.9262 20.4558 17.7813 21.8672 19.321C23.2786 20.8608 24.9792 21.6307 26.9687 21.6307C28.9583 21.6307 30.6562 20.8608 32.0625 19.321C33.4687 17.7813 34.1718 15.9262 34.1718 13.7557ZM30.0156 4.10798H36C35.5417 4.68752 35.151 5.33809 34.8282 6.05968C34.5052 6.78127 34.2968 7.43184 34.2031 8.01139C35.349 9.7273 35.9219 11.6421 35.9219 13.7557C35.9219 15.5284 35.5208 17.1648 34.7188 18.6648C33.9167 20.1648 32.8281 21.3495 31.4531 22.2188C30.0781 23.0881 28.5834 23.5228 26.9687 23.5228C25.5834 23.5228 24.2864 23.2046 23.0781 22.5682C21.8698 21.9318 20.849 21.0512 20.0156 19.9262C19.526 20.5625 18.8541 21.5796 18 22.9773C17.8854 22.7273 17.6068 22.2585 17.1641 21.571C16.7214 20.8835 16.3333 20.3296 16 19.9091C15.1667 21.0341 14.1432 21.9176 12.9297 22.5597C11.7162 23.2017 10.4166 23.5228 9.03125 23.5228C7.41666 23.5228 5.92187 23.0881 4.54687 22.2188C3.17188 21.3495 2.08333 20.1648 1.28125 18.6648C0.479166 17.1648 0.078125 15.5284 0.078125 13.7557C0.078125 11.6421 0.651042 9.7273 1.79687 8.01139C1.70312 7.43184 1.49479 6.78127 1.17187 6.05968C0.848959 5.33809 0.458334 4.68752 0 4.10798H5.70313C7.25521 2.97161 9.10417 2.08241 11.25 1.44036C13.3959 0.798318 15.6459 0.477295 18 0.477295C20.3334 0.477295 22.526 0.795477 24.5781 1.43184C26.6302 2.0682 28.4427 2.96025 30.0156 4.10798Z"></path>
  </symbol>
	<symbol xmlns="http://www.w3.org/2000/svg" viewBox="0 0 20 20" id="insta">
    <path d="M18.9471 6.30496C18.937 5.54758 18.7952 4.79773 18.5281 4.08896C18.2964 3.49111 17.9426 2.94816 17.4892 2.49479C17.0359 2.04142 16.4929 1.68761 15.8951 1.45596C15.1954 1.19331 14.4562 1.0513 13.7091 1.03596C12.7471 0.992957 12.4421 0.980957 10.0001 0.980957C7.55807 0.980957 7.24507 0.980957 6.29007 1.03596C5.54323 1.05141 4.80442 1.19343 4.10507 1.45596C3.50713 1.68745 2.96409 2.0412 2.5107 2.49459C2.05732 2.94798 1.70356 3.49102 1.47207 4.08896C1.2089 4.78809 1.06719 5.52707 1.05307 6.27396C1.01007 7.23696 0.99707 7.54196 0.99707 9.98396C0.99707 12.426 0.99707 12.738 1.05307 13.694C1.06807 14.442 1.20907 15.18 1.47207 15.881C1.70395 16.4787 2.05797 17.0215 2.51151 17.4747C2.96505 17.9279 3.50813 18.2815 4.10607 18.513C4.8035 18.7862 5.54244 18.9383 6.29107 18.963C7.25407 19.006 7.55907 19.019 10.0011 19.019C12.4431 19.019 12.7561 19.019 13.7111 18.963C14.4582 18.9482 15.1974 18.8066 15.8971 18.544C16.4948 18.312 17.0376 17.9581 17.4909 17.5048C17.9442 17.0515 18.2982 16.5086 18.5301 15.911C18.7931 15.211 18.9341 14.473 18.9491 13.724C18.9921 12.762 19.0051 12.457 19.0051 10.014C19.0031 7.57196 19.0031 7.26196 18.9471 6.30496ZM9.99407 14.602C7.44007 14.602 5.37107 12.533 5.37107 9.97896C5.37107 7.42496 7.44007 5.35596 9.99407 5.35596C11.2202 5.35596 12.396 5.84302 13.263 6.71C14.13 7.57698 14.6171 8.75286 14.6171 9.97896C14.6171 11.2051 14.13 12.3809 13.263 13.2479C12.396 14.1149 11.2202 14.602 9.99407 14.602ZM14.8011 6.26296C14.6595 6.26309 14.5192 6.2353 14.3884 6.18117C14.2575 6.12704 14.1386 6.04764 14.0385 5.94751C13.9384 5.84738 13.859 5.72849 13.8049 5.59765C13.7507 5.4668 13.7229 5.32656 13.7231 5.18496C13.7231 5.04346 13.7509 4.90334 13.8051 4.77262C13.8592 4.64189 13.9386 4.5231 14.0387 4.42305C14.1387 4.32299 14.2575 4.24363 14.3882 4.18948C14.519 4.13533 14.6591 4.10746 14.8006 4.10746C14.9421 4.10746 15.0822 4.13533 15.2129 4.18948C15.3436 4.24363 15.4624 4.32299 15.5625 4.42305C15.6625 4.5231 15.7419 4.64189 15.7961 4.77262C15.8502 4.90334 15.8781 5.04346 15.8781 5.18496C15.8781 5.78096 15.3961 6.26296 14.8011 6.26296Z"></path>
    <path d="M9.99421 12.9821C11.6527 12.9821 12.9972 11.6376 12.9972 9.97907C12.9972 8.32056 11.6527 6.97607 9.99421 6.97607C8.3357 6.97607 6.99121 8.32056 6.99121 9.97907C6.99121 11.6376 8.3357 12.9821 9.99421 12.9821Z"></path>
  </symbol>
	<symbol xmlns="http://www.w3.org/2000/svg" viewBox="0 0 24 18" id="youtube">
    <path d="M12.0765 0.998535H12.21C13.443 1.00304 19.6905 1.04804 21.375 1.50104C21.8842 1.63929 22.3483 1.90877 22.7207 2.28255C23.0932 2.65633 23.361 3.12131 23.4975 3.63104C23.649 4.20104 23.7555 4.95554 23.8275 5.73404L23.8425 5.89004L23.8755 6.28004L23.8875 6.43604C23.985 7.80704 23.997 9.09104 23.9985 9.37154V9.48404C23.997 9.77504 23.9835 11.146 23.8755 12.574L23.8635 12.7315L23.85 12.8875C23.775 13.7455 23.664 14.5975 23.4975 15.2245C23.3615 15.7345 23.0938 16.1997 22.7212 16.5735C22.3487 16.9474 21.8844 17.2167 21.375 17.3545C19.635 17.8225 13.0215 17.8555 12.105 17.857H11.892C11.4285 17.857 9.5115 17.848 7.5015 17.779L7.2465 17.77L7.116 17.764L6.8595 17.7535L6.603 17.743C4.938 17.6695 3.3525 17.551 2.622 17.353C2.11273 17.2153 1.6486 16.9462 1.27609 16.5726C0.903575 16.1991 0.63577 15.7342 0.4995 15.2245C0.333 14.599 0.222 13.7455 0.147 12.8875L0.135 12.73L0.123 12.574C0.0489714 11.5576 0.0079498 10.5391 0 9.52004L0 9.33554C0.003 9.01304 0.015 7.89854 0.096 6.66854L0.1065 6.51404L0.111 6.43604L0.123 6.28004L0.156 5.89004L0.171 5.73404C0.243 4.95554 0.3495 4.19954 0.501 3.63104C0.63704 3.12111 0.904743 2.6559 1.27727 2.28206C1.6498 1.90822 2.11405 1.63887 2.6235 1.50104C3.354 1.30604 4.9395 1.18604 6.6045 1.11104L6.8595 1.10054L7.1175 1.09154L7.2465 1.08704L7.503 1.07654C8.93056 1.0306 10.3587 1.00509 11.787 1.00004H12.0765V0.998535ZM9.6 5.81354V13.0405L15.8355 9.42854L9.6 5.81354Z"></path>
  </symbol>
	<symbol xmlns="http://www.w3.org/2000/svg" viewBox="0 0 10 5" id="more">
    <path d="M4.99953 4.66652C4.84376 4.66683 4.69281 4.61258 4.57287 4.51319L0.572866 1.17986C0.436722 1.0667 0.351105 0.904092 0.334852 0.727807C0.318599 0.551523 0.37304 0.376003 0.486199 0.239858C0.599358 0.103714 0.761966 0.0180976 0.93825 0.00184445C1.11453 -0.0144087 1.29005 0.0400322 1.4262 0.153191L4.99953 3.13986L8.57287 0.259858C8.64106 0.204481 8.71952 0.163127 8.80375 0.138172C8.88797 0.113218 8.9763 0.105155 9.06365 0.114448C9.15101 0.123741 9.23566 0.150205 9.31275 0.192321C9.38984 0.234437 9.45785 0.291374 9.51287 0.359858C9.57392 0.428406 9.62016 0.508824 9.64869 0.596073C9.67722 0.683322 9.68742 0.775522 9.67866 0.866898C9.66989 0.958273 9.64236 1.04685 9.59777 1.12709C9.55318 1.20733 9.4925 1.2775 9.41953 1.33319L5.41953 4.55319C5.29614 4.63687 5.14827 4.67677 4.99953 4.66652Z"></path>
  </symbol>
	<symbol xmlns="http://www.w3.org/2000/svg" viewBox="0 0 6 10" id="next">
    <path d="M5 5L5.35355 4.64645L5.70711 5L5.35355 5.35355L5 5ZM1.35355 0.646447L5.35355 4.64645L4.64645 5.35355L0.646447 1.35355L1.35355 0.646447ZM5.35355 5.35355L1.35355 9.35355L0.646447 8.64645L4.64645 4.64645L5.35355 5.35355Z"></path>
  </symbol>
	<symbol fill="none" xmlns="http://www.w3.org/2000/svg" viewBox="0 0 49 34" id="eye">
    <path d="M9.9108 26.044C3.45354 22.1638 0.5 16.9999 0.5 16.9999C0.5 16.9999 7.88386 4.07574 24.4951 4.07574C26.8985 4.07574 29.1088 4.25913 31.1358 4.8093L29.6589 6.28607C27.9988 6.10268 26.3386 5.91929 24.495 5.91929C9.72731 5.91929 2.71023 16.9999 2.71023 16.9999C2.71023 16.9999 5.48039 21.4302 11.2041 24.7505L9.9108 26.044ZM17.1113 16.9999C17.1113 17.5501 17.1113 18.1099 17.2947 18.6601L18.9548 16.9999C18.9548 15.5231 19.505 14.2298 20.615 13.1198C21.725 12.0098 23.2017 11.4596 24.4951 11.4596L26.1554 9.79944C25.6051 9.61605 25.0454 9.61605 24.4951 9.61605C20.4316 9.61605 17.1113 12.9364 17.1113 16.9999ZM39.0794 7.95589L37.7862 9.24927C43.5098 12.5696 46.28 16.9999 46.28 16.9999C46.28 16.9999 39.2628 28.0805 24.4951 28.0805C22.6516 28.0805 20.9914 27.8972 19.3313 27.7137L17.8545 29.1905C19.8814 29.7407 22.1014 29.9242 24.5048 29.9242C41.1161 29.9242 48.5 17 48.5 17C48.5 17 45.5367 11.836 39.0794 7.95589ZM39.2435 0.427246L7.92247 31.7483L9.74671 33.5726L41.0774 2.24184L39.2435 0.427246ZM28.3754 20.8801C27.2654 21.9901 25.972 22.5403 24.4951 22.5403L22.835 24.2004C23.3851 24.3838 23.945 24.3838 24.4951 24.3838C28.5586 24.3838 31.879 21.0634 31.879 16.9999C31.879 16.4497 31.879 15.8899 31.6956 15.3397L30.0354 16.9999C30.0354 18.4767 29.4755 19.7702 28.3754 20.8801Z" fill="#FFB50D"></path>
  </symbol>
	<symbol fill="none" xmlns="http://www.w3.org/2000/svg" viewBox="0 0 49 48" id="socials">
    <g clip-path="url(#clip0_774_194)">
      <path d="M10.1947 13.6429C12.3297 13.6429 14.7627 10.4859 14.7627 7.71688C14.8032 7.0981 14.7142 6.47766 14.5015 5.8952C14.2887 5.31275 13.9567 4.78107 13.5268 4.33416C13.097 3.88724 12.5786 3.5349 12.0048 3.29964C11.4311 3.06439 10.8146 2.9514 10.1947 2.96788C9.57481 2.95155 8.95837 3.06465 8.38468 3.29996C7.811 3.53526 7.29269 3.88761 6.86283 4.33449C6.43298 4.78138 6.10103 5.31299 5.88818 5.89537C5.67534 6.47776 5.58627 7.09814 5.62666 7.71688C5.62666 10.4859 8.06066 13.6429 10.1947 13.6429ZM10.1947 4.46788C10.6178 4.45087 11.0396 4.52474 11.4318 4.68453C11.8239 4.84432 12.1773 5.08631 12.468 5.3942C12.7588 5.70209 12.9801 6.06872 13.1172 6.46938C13.2543 6.87004 13.3039 7.29543 13.2627 7.71688C13.2627 9.86688 11.2627 12.1429 10.1947 12.1429C9.12666 12.1429 7.12666 9.86688 7.12666 7.71688C7.08545 7.29543 7.13505 6.87004 7.27212 6.46938C7.40919 6.06872 7.63055 5.70209 7.92129 5.3942C8.21202 5.08631 8.56537 4.84432 8.95753 4.68453C9.34969 4.52474 9.77154 4.45087 10.1947 4.46788Z" fill="#FFB50D"></path>
      <path d="M10.1992 29.5459C10.0003 29.5459 9.80954 29.6249 9.66889 29.7656C9.52824 29.9062 9.44922 30.097 9.44922 30.2959V42.5289C9.44922 42.7278 9.52824 42.9186 9.66889 43.0592C9.80954 43.1999 10.0003 43.2789 10.1992 43.2789C10.3981 43.2789 10.5889 43.1999 10.7295 43.0592C10.8702 42.9186 10.9492 42.7278 10.9492 42.5289V30.2999C10.9497 30.2011 10.9307 30.1031 10.8933 30.0117C10.8558 29.9202 10.8007 29.837 10.731 29.767C10.6613 29.6969 10.5784 29.6413 10.4872 29.6034C10.3959 29.5654 10.298 29.5459 10.1992 29.5459Z" fill="#FFB50D"></path>
      <path d="M18.367 31.1659C18.8293 30.9213 19.216 30.5553 19.4856 30.1072C19.7553 29.6591 19.8975 29.1459 19.897 28.6229V16.5069C19.8973 16.3637 19.8565 16.2233 19.7794 16.1026C19.7023 15.9819 19.5921 15.8859 19.462 15.8259L13.709 13.1719C13.6059 13.1239 13.4932 13.1 13.3795 13.1023C13.2658 13.1046 13.1541 13.1328 13.053 13.1849L10.194 14.6479L7.346 13.1859C7.24484 13.133 7.1328 13.1042 7.01864 13.1017C6.90449 13.0993 6.79133 13.1233 6.688 13.1719L0.936002 15.8259C0.805786 15.8858 0.695491 15.9818 0.618208 16.1025C0.540925 16.2232 0.4999 16.3636 0.500002 16.5069V28.6229C0.499392 29.1456 0.641465 29.6586 0.910905 30.1066C1.18035 30.5545 1.56693 30.9205 2.029 31.1649L4.021 32.2219C4.06815 32.2394 4.11713 32.2515 4.167 32.2579V42.5289C4.167 42.7278 4.24602 42.9186 4.38667 43.0592C4.52732 43.1999 4.71809 43.2789 4.917 43.2789C5.11591 43.2789 5.30668 43.1999 5.44733 43.0592C5.58798 42.9186 5.667 42.7278 5.667 42.5289V20.0299C5.667 19.831 5.58798 19.6402 5.44733 19.4996C5.30668 19.3589 5.11591 19.2799 4.917 19.2799C4.71809 19.2799 4.52732 19.3589 4.38667 19.4996C4.24602 19.6402 4.167 19.831 4.167 20.0299V30.5999L2.732 29.8389C2.51101 29.7219 2.32609 29.5468 2.19712 29.3326C2.06815 29.1183 2 28.873 2 28.6229V16.9859L6.681 14.8269L9.536 20.0369C9.60081 20.1547 9.69606 20.253 9.81181 20.3214C9.92755 20.3898 10.0595 20.4259 10.194 20.4259C10.3285 20.4259 10.4605 20.3898 10.5762 20.3214C10.6919 20.253 10.7872 20.1547 10.852 20.0369L13.715 14.8249L18.397 16.9849V28.6229C18.3972 28.8734 18.329 29.1192 18.1998 29.3338C18.0707 29.5484 17.8854 29.7238 17.664 29.8409L16.229 30.6019V20.0299C16.229 19.831 16.15 19.6402 16.0093 19.4996C15.8687 19.3589 15.6779 19.2799 15.479 19.2799C15.2801 19.2799 15.0893 19.3589 14.9487 19.4996C14.808 19.6402 14.729 19.831 14.729 20.0299V42.5299C14.729 42.7288 14.808 42.9196 14.9487 43.0602C15.0893 43.2009 15.2801 43.2799 15.479 43.2799C15.6779 43.2799 15.8687 43.2009 16.0093 43.0602C16.15 42.9196 16.229 42.7288 16.229 42.5299V32.2649C16.2798 32.2561 16.3294 32.2416 16.377 32.2219L18.367 31.1659ZM10.2 18.1169L8.841 15.6369L9.857 16.1579C9.9627 16.2126 10.08 16.2412 10.199 16.2412C10.318 16.2412 10.4353 16.2126 10.541 16.1579L11.564 15.6339L10.2 18.1169Z" fill="#FFB50D"></path>
      <path d="M38.7995 13.643C40.9345 13.643 43.3675 10.486 43.3675 7.71705C43.3898 7.10324 43.2881 6.49125 43.0685 5.91761C42.849 5.34398 42.5161 4.82047 42.0897 4.37837C41.6634 3.93626 41.1522 3.58461 40.5869 3.34443C40.0216 3.10425 39.4137 2.98047 38.7995 2.98047C38.1853 2.98047 37.5774 3.10425 37.0121 3.34443C36.4468 3.58461 35.9357 3.93626 35.5093 4.37837C35.0829 4.82047 34.75 5.34398 34.5305 5.91761C34.311 6.49125 34.2093 7.10324 34.2315 7.71705C34.2285 10.486 36.6615 13.643 38.7995 13.643ZM38.7995 4.46805C39.2226 4.45103 39.6445 4.52491 40.0366 4.6847C40.4288 4.84449 40.7822 5.08648 41.0729 5.39437C41.3636 5.70225 41.585 6.06888 41.7221 6.46954C41.8591 6.87021 41.9087 7.2956 41.8675 7.71705C41.8675 9.86705 39.8675 12.143 38.7995 12.143C37.7315 12.143 35.7315 9.86705 35.7315 7.71705C35.6903 7.2956 35.7399 6.87021 35.877 6.46954C36.014 6.06888 36.2354 5.70225 36.5261 5.39437C36.8169 5.08648 37.1702 4.84449 37.5624 4.6847C37.9545 4.52491 38.3764 4.45103 38.7995 4.46805Z" fill="#FFB50D"></path>
      <path d="M38.8008 29.5459C38.6019 29.5459 38.4111 29.6249 38.2705 29.7656C38.1298 29.9062 38.0508 30.097 38.0508 30.2959V42.5289C38.0508 42.7278 38.1298 42.9186 38.2705 43.0592C38.4111 43.1999 38.6019 43.2789 38.8008 43.2789C38.9997 43.2789 39.1905 43.1999 39.3311 43.0592C39.4718 42.9186 39.5508 42.7278 39.5508 42.5289V30.2999C39.5513 30.2011 39.5323 30.1031 39.4948 30.0117C39.4574 29.9202 39.4022 29.837 39.3325 29.767C39.2628 29.6969 39.18 29.6413 39.0887 29.6034C38.9975 29.5654 38.8996 29.5459 38.8008 29.5459Z" fill="#FFB50D"></path>
      <path d="M48.0635 15.826L42.3115 13.172C42.2082 13.1239 42.0953 13.1001 41.9815 13.1024C41.8676 13.1046 41.7557 13.1329 41.6545 13.185L38.7995 14.648L35.9505 13.186C35.8495 13.133 35.7376 13.1042 35.6236 13.1017C35.5096 13.0993 35.3966 13.1234 35.2935 13.172L29.5405 15.826C29.4104 15.886 29.3002 15.982 29.2231 16.1027C29.146 16.2234 29.1052 16.3638 29.1055 16.507V28.623C29.1048 29.1459 29.247 29.659 29.5167 30.107C29.7863 30.5549 30.1731 30.9208 30.6355 31.165L32.6255 32.222C32.6732 32.2416 32.7228 32.2564 32.7735 32.266V42.529C32.7735 42.7279 32.8525 42.9187 32.9931 43.0593C33.1338 43.2 33.3246 43.279 33.5235 43.279C33.7224 43.279 33.9131 43.2 34.0538 43.0593C34.1945 42.9187 34.2735 42.7279 34.2735 42.529V20.03C34.2735 19.8311 34.1945 19.6403 34.0538 19.4997C33.9131 19.359 33.7224 19.28 33.5235 19.28C33.3246 19.28 33.1338 19.359 32.9931 19.4997C32.8525 19.6403 32.7735 19.8311 32.7735 20.03V30.6L31.3385 29.838C31.117 29.7212 30.9317 29.5461 30.8025 29.3316C30.6733 29.1171 30.6052 28.8714 30.6055 28.621V16.986L35.2865 14.827L38.1415 20.037C38.2061 20.1548 38.3013 20.2531 38.4169 20.3216C38.5326 20.3901 38.6646 20.4262 38.799 20.4262C38.9334 20.4262 39.0653 20.3901 39.181 20.3216C39.2967 20.2531 39.3918 20.1548 39.4565 20.037L42.3205 14.826L46.9995 16.986V28.623C46.9998 28.8734 46.9319 29.1192 46.8029 29.3338C46.6739 29.5484 46.4888 29.7238 46.2675 29.841L44.8325 30.602V20.03C44.8325 19.8311 44.7535 19.6403 44.6128 19.4997C44.4721 19.359 44.2814 19.28 44.0825 19.28C43.8836 19.28 43.6928 19.359 43.5521 19.4997C43.4115 19.6403 43.3325 19.8311 43.3325 20.03V42.53C43.3325 42.7289 43.4115 42.9197 43.5521 43.0603C43.6928 43.201 43.8836 43.28 44.0825 43.28C44.2814 43.28 44.4721 43.201 44.6128 43.0603C44.7535 42.9197 44.8325 42.7289 44.8325 42.53V32.258C44.8823 32.2516 44.9313 32.2395 44.9785 32.222L46.9705 31.165C47.4325 30.9206 47.8191 30.5546 48.0886 30.1067C48.358 29.6587 48.5001 29.1458 48.4995 28.623V16.507C48.4996 16.3637 48.4585 16.2233 48.3813 16.1026C48.304 15.9819 48.1937 15.8859 48.0635 15.826ZM38.7995 18.117L37.4405 15.637L38.4555 16.158C38.5613 16.2127 38.6788 16.2413 38.798 16.2413C38.9171 16.2413 39.0346 16.2127 39.1405 16.158L40.1635 15.634L38.7995 18.117Z" fill="#FFB50D"></path>
      <path d="M29.6928 40.2451C29.6236 40.1735 29.5408 40.1164 29.4493 40.0771C29.3577 40.0378 29.2593 40.0172 29.1597 40.0164C29.0601 40.0156 28.9614 40.0346 28.8692 40.0723C28.7771 40.1101 28.6934 40.1658 28.623 40.2363C28.5526 40.3067 28.4969 40.3905 28.4593 40.4827C28.4216 40.5749 28.4027 40.6736 28.4036 40.7732C28.4045 40.8728 28.4252 40.9712 28.4646 41.0627C28.5039 41.1542 28.5611 41.2369 28.6328 41.3061L29.1058 41.7791H19.9008L20.3738 41.3061C20.4454 41.2369 20.5026 41.1542 20.542 41.0627C20.5813 40.9712 20.6021 40.8728 20.603 40.7732C20.6039 40.6736 20.5849 40.5749 20.5473 40.4827C20.5096 40.3905 20.454 40.3067 20.3836 40.2363C20.3132 40.1658 20.2295 40.1101 20.1373 40.0723C20.0452 40.0346 19.9464 40.0156 19.8468 40.0164C19.7472 40.0172 19.6488 40.0378 19.5573 40.0771C19.4658 40.1164 19.383 40.1735 19.3138 40.2451L17.5558 42.0001C17.4861 42.0697 17.4308 42.1524 17.3931 42.2434C17.3554 42.3345 17.3359 42.432 17.3359 42.5306C17.3359 42.6291 17.3554 42.7267 17.3931 42.8177C17.4308 42.9087 17.4861 42.9914 17.5558 43.0611L19.3088 44.8131C19.451 44.9455 19.639 45.0177 19.8333 45.0142C20.0276 45.0108 20.213 44.9321 20.3504 44.7947C20.4878 44.6573 20.5665 44.4719 20.57 44.2776C20.5734 44.0833 20.5013 43.8952 20.3688 43.7531L19.8968 43.2801H29.1008L28.6288 43.7531C28.5551 43.8217 28.496 43.9045 28.455 43.9965C28.414 44.0885 28.392 44.1878 28.3902 44.2885C28.3884 44.3892 28.4069 44.4893 28.4447 44.5827C28.4824 44.6761 28.5385 44.7609 28.6097 44.8321C28.681 44.9033 28.7658 44.9595 28.8592 44.9972C28.9526 45.0349 29.0526 45.0534 29.1533 45.0517C29.254 45.0499 29.3533 45.0278 29.4453 44.9868C29.5373 44.9459 29.6201 44.8868 29.6888 44.8131L31.4418 43.0611C31.5115 42.9914 31.5668 42.9087 31.6045 42.8177C31.6422 42.7267 31.6616 42.6291 31.6616 42.5306C31.6616 42.432 31.6422 42.3345 31.6045 42.2434C31.5668 42.1524 31.5115 42.0697 31.4418 42.0001L29.6928 40.2451Z" fill="#FFB50D"></path>
    </g>
    <defs>
      <clipPath id="clip0_774_194">
        <rect width="48" height="48" fill="white" transform="translate(0.5)"></rect>
      </clipPath>
    </defs>
  </symbol>
	<symbol fill="none" xmlns="http://www.w3.org/2000/svg" viewBox="0 0 32 41" id="mind">
    <path d="M7.28961 9.84033C5.94935 11.8535 5.14519 14.2167 5.14519 16.755L1.03505 24.1948C0.945702 24.2823 1.03505 24.4574 1.21375 24.4574L4.87714 24.5449V33.0351C4.87714 33.7353 5.50259 34.348 6.2174 34.348H16.046" stroke="#FFB50D" stroke-width="1.4" stroke-miterlimit="10"></path>
    <path d="M26.6797 40.9999V25.5076C29.0028 23.2319 30.4324 20.1684 30.4324 16.7549C30.4324 14.3041 29.7176 12.0284 28.4667 10.1028" stroke="#FFB50D" stroke-width="1.4" stroke-miterlimit="10"></path>
    <path d="M12.8301 34.9607V41.0001" stroke="#FFB50D" stroke-width="1.4" stroke-miterlimit="10"></path>
    <path d="M23.016 24.2823H12.4726L11.7578 22.7943V18.418H23.7308V22.7943L23.016 24.2823Z" stroke="#FFB50D" stroke-width="1.4" stroke-miterlimit="10"></path>
    <path d="M19.4417 24.8074V26.4704C19.4417 26.5579 19.3524 26.733 19.1737 26.733H16.2251C16.1357 26.733 15.957 26.6454 15.957 26.4704V24.8074" stroke="#FFB50D" stroke-width="1.4" stroke-miterlimit="10"></path>
    <path d="M26.2325 9.3151C26.2325 4.76368 22.4798 1 17.7442 1C13.0086 1 9.25586 4.67615 9.25586 9.3151C9.25586 12.2035 10.7748 14.8293 13.0979 16.3173V18.4179H22.3011V16.3173C24.7136 14.8293 26.2325 12.291 26.2325 9.3151Z" stroke="#FFB50D" stroke-width="1.4" stroke-miterlimit="10"></path>
    <path d="M11.7578 21.3062H16.9402" stroke="#FFB50D" stroke-width="1.4" stroke-miterlimit="10"></path>
    <path d="M13.3652 8.35229H14.9736" stroke="#FFB50D" stroke-width="1.4" stroke-miterlimit="10" stroke-dasharray="1.99 1.99"></path>
    <path d="M17.0293 8.35229H18.5483" stroke="#FFB50D" stroke-width="1.4" stroke-miterlimit="10" stroke-dasharray="1.99 1.99"></path>
    <path d="M20.6035 8.35229H22.2118" stroke="#FFB50D" stroke-width="1.4" stroke-miterlimit="10" stroke-dasharray="1.99 1.99"></path>
  </symbol>
	<symbol xmlns="http://www.w3.org/2000/svg" viewBox="0 0 56 56" id="slider-arrow">
    <path fill-rule="evenodd" clip-rule="evenodd" d="M3.5 28C3.5 34.4978 6.08124 40.7295 10.6759 45.3241C15.2705 49.9188 21.5022 52.5 28 52.5C34.4978 52.5 40.7295 49.9188 45.3241 45.3241C49.9188 40.7295 52.5 34.4978 52.5 28C52.5 21.5022 49.9188 15.2705 45.3241 10.6759C40.7295 6.08124 34.4978 3.5 28 3.5C21.5022 3.5 15.2705 6.08124 10.6759 10.6759C6.08124 15.2705 3.5 21.5022 3.5 28ZM56 28C56 35.4261 53.05 42.548 47.799 47.799C42.548 53.05 35.4261 56 28 56C20.5739 56 13.452 53.05 8.20101 47.799C2.94999 42.548 0 35.4261 0 28C0 20.5739 2.94999 13.452 8.20101 8.20101C13.452 2.94999 20.5739 0 28 0C35.4261 0 42.548 2.94999 47.799 8.20101C53.05 13.452 56 20.5739 56 28ZM15.75 26.25C15.2859 26.25 14.8408 26.4344 14.5126 26.7626C14.1844 27.0908 14 27.5359 14 28C14 28.4641 14.1844 28.9093 14.5126 29.2374C14.8408 29.5656 15.2859 29.75 15.75 29.75H36.0255L28.511 37.261C28.3483 37.4237 28.2192 37.6169 28.1312 37.8295C28.0431 38.042 27.9978 38.2699 27.9978 38.5C27.9978 38.7301 28.0431 38.958 28.1312 39.1705C28.2192 39.3831 28.3483 39.5763 28.511 39.739C28.6737 39.9017 28.8669 40.0308 29.0795 40.1188C29.292 40.2069 29.5199 40.2522 29.75 40.2522C29.9801 40.2522 30.208 40.2069 30.4205 40.1188C30.6331 40.0308 30.8263 39.9017 30.989 39.739L41.489 29.239C41.652 29.0764 41.7813 28.8833 41.8695 28.6707C41.9577 28.4581 42.0031 28.2302 42.0031 28C42.0031 27.7698 41.9577 27.5419 41.8695 27.3293C41.7813 27.1167 41.652 26.9236 41.489 26.761L30.989 16.261C30.8263 16.0983 30.6331 15.9692 30.4205 15.8812C30.208 15.7931 29.9801 15.7478 29.75 15.7478C29.5199 15.7478 29.292 15.7931 29.0795 15.8812C28.8669 15.9692 28.6737 16.0983 28.511 16.261C28.3483 16.4237 28.2192 16.6169 28.1312 16.8295C28.0431 17.042 27.9978 17.2699 27.9978 17.5C27.9978 17.7301 28.0431 17.958 28.1312 18.1705C28.2192 18.3831 28.3483 18.5763 28.511 18.739L36.0255 26.25H15.75Z"></path>
  </symbol>
	<symbol fill="none" xmlns="http://www.w3.org/2000/svg" viewBox="0 0 16 16" id="sound-on">
    <path d="M13.3344 8C13.3344 5.78125 11.9781 3.88125 10.0531 3.07812L9.54062 4.30937C10.9844 4.9125 12 6.3375 12 8C12 9.66562 10.9844 11.0875 9.5375 11.6906L10.05 12.9219C11.9781 12.1187 13.3344 10.2188 13.3344 8ZM10.6656 8C10.6656 6.89062 9.9875 5.94063 9.025 5.54063L8.5125 6.77187C8.99375 6.97187 9.33125 7.44688 9.33125 8.00313C9.33125 8.55625 8.99375 9.03125 8.5125 9.23438L9.025 10.4656C9.9875 10.0594 10.6656 9.10938 10.6656 8ZM11.0781 0.615625L10.5625 1.84687C12.9719 2.85 14.6656 5.225 14.6656 8C14.6656 10.7719 12.9719 13.15 10.5625 14.1531L11.075 15.3844C13.9688 14.1781 16 11.3281 16 8C16 4.67188 13.9688 1.82187 11.0781 0.615625ZM0 4.66563V11.3313H2.66563L7.33437 16V0L2.66563 4.66563H0Z" fill="#E9277C"></path>
  </symbol>
	<symbol fill="none" xmlns="http://www.w3.org/2000/svg" viewBox="0 0 18 16" id="sound-off">
    <path d="M14.3344 8C14.3344 5.78125 12.9781 3.88125 11.0531 3.07812L10.5406 4.30937C11.9844 4.9125 13 6.3375 13 8C13 9.66562 11.9844 11.0875 10.5375 11.6906L11.05 12.9219C12.9781 12.1187 14.3344 10.2188 14.3344 8ZM11.6656 8C11.6656 6.89062 10.9875 5.94063 10.025 5.54063L9.5125 6.77187C9.99375 6.97187 10.3313 7.44688 10.3313 8.00313C10.3313 8.55625 9.99375 9.03125 9.5125 9.23438L10.025 10.4656C10.9875 10.0594 11.6656 9.10938 11.6656 8ZM12.0781 0.615625L11.5625 1.84687C13.9719 2.85 15.6656 5.225 15.6656 8C15.6656 10.7719 13.9719 13.15 11.5625 14.1531L12.075 15.3844C14.9688 14.1781 17 11.3281 17 8C17 4.67188 14.9688 1.82187 12.0781 0.615625ZM1 4.66563V11.3313H3.66563L8.33437 16V0L3.66563 4.66563H1Z" fill="#E9277C"></path>
    <rect x="1.08203" width="22.1077" height="2" rx="1" transform="rotate(39.0164 1.08203 0)" fill="#E9277C"></rect>
  </symbol>
	<symbol fill="none" xmlns="http://www.w3.org/2000/svg" viewBox="0 0 23 28" id="play">
    <path d="M22.5 13.134C23.1667 13.5189 23.1667 14.4811 22.5 14.866L1.5 26.9904C0.833333 27.3753 6.44345e-07 26.8942 6.77994e-07 26.1244L1.73794e-06 1.87564C1.77159e-06 1.10584 0.833336 0.624718 1.5 1.00962L22.5 13.134Z" fill="white"></path>
  </symbol>
	<symbol fill="none" xmlns="http://www.w3.org/2000/svg" viewBox="0 0 57 56" id="clock">
    <path d="M28.5074 54.6191C21.1693 55.0492 15.2557 52.4613 9.64724 46.8557C-0.770435 36.4407 -0.770435 19.5571 9.64724 9.14352C14.6723 4.11978 21.924 1.52007 28.5074 1.34302" fill="#CDE2F2"></path>
    <path d="M28.5081 56C21.028 56 13.9943 53.0863 8.70431 47.7992C3.41364 42.5091 0.5 35.4779 0.5 27.9989C0.5 20.5198 3.41364 13.4886 8.70431 8.20078C13.9936 2.91215 21.0265 0 28.5074 0C35.9884 0 43.0213 2.91215 48.3128 8.20078C59.2291 19.1173 59.2291 36.8812 48.3128 47.7977C43.0213 53.0863 35.9884 56 28.5081 56ZM28.5074 2.66664C21.7395 2.66664 15.3763 5.30201 10.5902 10.0862C5.8041 14.8711 3.16731 21.2326 3.16731 27.9989C3.16731 34.7652 5.8041 41.1282 10.5902 45.9123C15.3771 50.698 21.7402 53.3334 28.5081 53.3334C35.2769 53.3334 41.6401 50.698 46.4254 45.9123C56.3043 36.0345 56.3043 19.9633 46.4254 10.0862C41.64 5.30201 35.2754 2.66664 28.5074 2.66664Z" fill="#4F4F4F"></path>
    <path d="M28.5402 30.4795C27.8034 30.4795 27.2065 29.8828 27.2065 29.1462V14.5154C27.2065 13.7788 27.8034 13.1821 28.5402 13.1821C29.2769 13.1821 29.8738 13.7788 29.8738 14.5154V29.1462C29.8738 29.8828 29.2769 30.4795 28.5402 30.4795Z" fill="#4F4F4F"></path>
    <path d="M20.7453 38.8439C20.4037 38.8439 20.0628 38.7146 19.8023 38.4541C19.2814 37.9333 19.2814 37.0881 19.8023 36.5673L27.5974 28.7749C28.1183 28.2541 28.9622 28.2541 29.4832 28.7749C30.0042 29.2957 30.0042 30.1402 29.4832 30.6611L21.6882 38.4541C21.4277 38.7146 21.0868 38.8439 20.7453 38.8439Z" fill="#4F4F4F"></path>
  </symbol>
	<symbol fill="none" xmlns="http://www.w3.org/2000/svg" viewBox="0 0 57 56" id="restrictions">
    <circle cx="28" cy="28" r="27" fill="#CDE2F2" stroke="#4F4F4F" stroke-width="2"></circle>
    <path d="M24.6123 22.3H18.5723V20H27.3723V21.54L22.4123 34H19.8923L24.6123 22.3ZM32.8737 27.8H29.3337V25.8H32.8737V22.18H35.0337V25.8H38.6137V27.8H35.0337V31.46H32.8737V27.8Z" fill="#4F4F4F"></path>
  </symbol>
	<symbol fill="none" xmlns="http://www.w3.org/2000/svg" viewBox="0 0 79 50" id="group">
    <path d="M77.1562 48.641H65.703C65.703 40.0257 61.4661 32.0354 54.6917 27.1481C57.048 23.9316 58.3734 19.999 58.3734 15.8391C58.3734 14.2922 58.1808 12.7805 57.8297 11.3382C58.498 11.212 59.1891 11.145 59.9028 11.145C66.2241 11.145 71.3446 16.2812 71.3446 22.6347C71.3446 26.7617 69.1695 30.376 65.9182 32.3992C72.4775 34.853 77.1562 41.1952 77.1562 48.641Z" fill="#CDE2F2"></path>
    <path d="M61.1149 48.641H17.5793C17.5793 39.2516 23.4815 31.2501 31.7627 28.1585C27.6504 25.6126 24.9089 21.0446 24.9089 15.8391C24.9089 7.8375 31.3775 1.35781 39.3528 1.35781C47.3168 1.35781 53.7854 7.8375 53.7854 15.8391C53.7854 21.0446 51.0439 25.6126 46.9316 28.1585C55.2128 31.2501 61.1149 39.2516 61.1149 48.641Z" fill="#CDE2F2"></path>
    <path d="M20.3322 15.8386C20.3322 19.9985 21.6463 23.9311 24.014 27.1476C17.2395 32.035 12.9913 40.0252 12.9913 48.6405H1.84399C1.84399 41.1959 6.52268 34.8526 13.0932 32.3987C9.83062 30.3755 7.65554 26.7612 7.65554 22.6342C7.65554 16.2819 12.7874 11.1445 19.1087 11.1445C19.7091 11.1445 20.3095 11.1899 20.8873 11.2809C20.5248 12.7471 20.3322 14.2701 20.3322 15.8386Z" fill="#CDE2F2"></path>
    <path d="M12.9913 48.6409H1.84399C1.84399 41.1951 6.52268 34.8529 13.0932 32.399C9.83062 30.3759 7.65554 26.7616 7.65554 22.6346C7.65554 16.2811 12.7874 11.1448 19.1087 11.1448C19.7091 11.1448 20.3095 11.1903 20.8873 11.2812C20.5248 12.7474 20.3322 14.2705 20.3322 15.839C20.3322 19.9989 21.6463 23.9315 24.014 27.148C17.2395 32.0353 12.9913 40.0255 12.9913 48.6409Z" stroke="#4F4F4F" stroke-width="2" stroke-miterlimit="10" stroke-linecap="round" stroke-linejoin="round"></path>
    <path d="M65.918 32.3992C69.1693 30.376 71.3444 26.7617 71.3444 22.6347C71.3444 16.2812 66.2239 11.145 59.9025 11.145C59.1888 11.145 58.4978 11.212 57.8294 11.3382C58.1806 12.7805 58.3732 14.2922 58.3732 15.8391C58.3732 19.999 57.0477 23.9316 54.6914 27.1481C61.4659 32.0354 65.7028 40.0257 65.7028 48.641H77.1559C77.1559 41.1952 72.4772 34.853 65.918 32.3992Z" stroke="#4F4F4F" stroke-width="2" stroke-miterlimit="10" stroke-linecap="round" stroke-linejoin="round"></path>
    <path d="M46.9316 28.1592C51.0439 25.6132 53.7854 21.0441 53.7854 15.8385C53.7854 7.83697 47.3168 1.35843 39.3528 1.35843C31.3775 1.35843 24.9089 7.83697 24.9089 15.8385C24.9089 21.0441 27.6504 25.6132 31.7627 28.1592C23.4815 31.2507 17.5793 39.2523 17.5793 48.6416H61.1149C61.1149 39.2523 55.2128 31.2507 46.9316 28.1592Z" stroke="#4F4F4F" stroke-width="2" stroke-miterlimit="10" stroke-linecap="round" stroke-linejoin="round"></path>
  </symbol>
	<symbol fill="none" xmlns="http://www.w3.org/2000/svg" viewBox="0 0 10 10" id="close">
    <path d="M0.757359 0.757289L9.24264 9.24257M0.757359 9.24257L9.24264 0.757289" stroke="#1B1B1B" stroke-width="1.5"></path>
  </symbol>
	<symbol fill="none" xmlns="http://www.w3.org/2000/svg" viewBox="0 0 34 44" id="location-big">
    <path d="M17 44C17 44 33.5 28.3635 33.5 16.5C33.5 12.1239 31.7616 7.92709 28.6673 4.83274C25.5729 1.73839 21.3761 0 17 0C12.6239 0 8.42709 1.73839 5.33274 4.83274C2.23839 7.92709 0.5 12.1239 0.5 16.5C0.5 28.3635 17 44 17 44ZM17 24.75C14.812 24.75 12.7135 23.8808 11.1664 22.3336C9.61919 20.7865 8.75 18.688 8.75 16.5C8.75 14.312 9.61919 12.2135 11.1664 10.6664C12.7135 9.11919 14.812 8.25 17 8.25C19.188 8.25 21.2865 9.11919 22.8336 10.6664C24.3808 12.2135 25.25 14.312 25.25 16.5C25.25 18.688 24.3808 20.7865 22.8336 22.3336C21.2865 23.8808 19.188 24.75 17 24.75Z" fill="#FFB50D"></path>
  </symbol>
	<symbol fill="none" xmlns="http://www.w3.org/2000/svg" viewBox="0 0 47 46" id="wallet">
    <path d="M45.4897 23.582H42.1858V15.0849C42.1858 15.0459 42.182 15.0079 42.18 14.9695V8.42614C42.18 7.98121 41.8193 7.62056 41.3744 7.62056H32.8327L25.4482 0.235913C25.297 0.0848795 25.0921 0 24.8785 0C24.6648 0 24.4599 0.0848539 24.3088 0.235913L18.7405 5.80417L16.1229 3.18643C15.8082 2.87186 15.2982 2.87186 14.9835 3.18643L10.5442 7.62572C10.5149 7.62248 10.4851 7.62056 10.4549 7.62056H1.30559C0.860648 7.62056 0.5 7.98121 0.5 8.42614V17C0.5 17.0263 0.501458 17.0522 0.50394 17.0778V43.7409C0.50394 44.9466 1.48486 45.9275 2.69055 45.9275H39.9992C41.2049 45.9275 42.1858 44.9466 42.1858 43.7409V35.244H45.4897C45.9347 35.244 46.2953 34.8833 46.2953 34.4384V24.3876C46.2953 23.9426 45.9346 23.582 45.4897 23.582ZM40.5688 9.23176V12.9762C40.3868 12.9269 40.1964 12.8983 39.9992 12.8983H38.1103L34.4438 9.23176H40.5688ZM24.8785 1.94486L35.8318 12.8983H33.3867L23.6559 3.16743L24.8785 1.94486ZM22.5165 4.30683L31.1079 12.8983H25.8348L19.8799 6.94344L22.5165 4.30683ZM15.5532 4.89538L17.6012 6.94341L18.7405 8.08269L23.5561 12.8983H21.3603L14.4553 5.99329L15.5532 4.89538ZM19.0815 12.8983H7.55032L13.3159 7.13269L19.0815 12.8983ZM5.27165 12.8983H2.69055C2.48971 12.8983 2.29608 12.9277 2.1112 12.9786V9.23176H8.93819L5.27165 12.8983ZM40.5746 43.741C40.5746 44.0582 40.3165 44.3164 39.9992 44.3164H2.69055C2.37328 44.3164 2.11514 44.0582 2.11514 43.741V15.0849C2.11514 14.7677 2.37328 14.5095 2.69055 14.5095H39.9992C40.2967 14.5095 40.5393 14.7373 40.5688 15.027V17C40.5688 17.0316 40.5712 17.0627 40.5747 17.0934V23.582H33.2524C30.0372 23.582 27.4214 26.1977 27.4214 29.4129C27.4214 32.6282 30.0372 35.244 33.2524 35.244H40.5747V43.741H40.5746ZM44.6841 33.6328H42.1858H40.5747H33.2524C30.9256 33.6328 29.0326 31.7397 29.0326 29.4129C29.0326 27.0861 30.9256 25.1932 33.2524 25.1932H40.5747H42.1858H44.6841V33.6328Z" fill="#FFB50D"></path>
    <path d="M33.2908 26.6509C31.7679 26.6509 30.5288 27.89 30.5288 29.4129C30.5288 30.9359 31.7679 32.175 33.2908 32.175C34.8138 32.175 36.0529 30.9359 36.0529 29.4129C36.0529 27.8899 34.8138 26.6509 33.2908 26.6509ZM33.2908 30.5638C32.6563 30.5638 32.14 30.0474 32.14 29.4129C32.14 28.7784 32.6563 28.2621 33.2908 28.2621C33.9254 28.2621 34.4417 28.7784 34.4417 29.4129C34.4417 30.0474 33.9254 30.5638 33.2908 30.5638Z" fill="#FFB50D"></path>
  </symbol>
	<symbol xmlns="http://www.w3.org/2000/svg" viewBox="0 0 14 24" id="ok">
    <path d="M6.99808 12.691C3.77889 12.691 1.14502 10.0571 1.14502 6.83792C1.14502 3.61874 3.77889 0.984863 6.99808 0.984863C10.2173 0.984863 12.8511 3.61874 12.8511 6.83792C12.8511 10.0571 10.2173 12.691 6.99808 12.691ZM6.99808 3.76506C5.31532 3.76506 3.92522 5.15517 3.92522 6.83792C3.92522 8.52067 5.31532 9.91077 6.99808 9.91077C8.68083 9.91077 10.0709 8.52067 10.0709 6.83792C10.0709 5.15517 8.68083 3.76506 6.99808 3.76506Z"></path>
    <path d="M13.29 13.2762C12.7778 12.6177 11.8999 12.5445 11.2414 12.9835C11.2414 12.9835 9.63183 14.1541 6.99795 14.1541C4.36408 14.1541 2.75449 12.9835 2.75449 12.9835C2.09602 12.4714 1.21806 12.6177 0.705916 13.2762C0.193774 13.9346 0.3401 14.8126 0.998569 15.3247C1.07173 15.3979 2.60816 16.5685 5.16887 16.9343L1.29122 20.8851C0.705917 21.4704 0.705917 22.4216 1.29122 22.9337C1.58388 23.2264 1.94969 23.3727 2.31551 23.3727C2.68132 23.3727 3.04714 23.2264 3.33979 22.9337L6.99795 19.2024L10.6561 22.9337C10.9488 23.2264 11.3146 23.3727 11.6804 23.3727C12.0462 23.3727 12.412 23.2264 12.7047 22.9337C13.29 22.3484 13.29 21.4704 12.7047 20.8851L8.82703 16.9343C11.3877 16.4953 12.9242 15.3247 12.9973 15.3247C13.6558 14.8126 13.8021 13.8615 13.29 13.2762V13.2762Z"></path>
  </symbol>
	<symbol xmlns="http://www.w3.org/2000/svg" viewBox="0 0 20 17" id="twitter">
    <path d="M20 1.90716C19.2504 2.23454 18.4565 2.4492 17.644 2.54416C18.4968 2.0434 19.138 1.24927 19.448 0.310164C18.64 0.780492 17.7587 1.11177 16.841 1.29016C16.4545 0.88537 15.9897 0.563551 15.4748 0.344342C14.9598 0.125133 14.4056 0.0131294 13.846 0.0151639C11.58 0.0151639 9.743 1.82516 9.743 4.05516C9.743 4.37116 9.779 4.68016 9.849 4.97516C8.22358 4.89786 6.63212 4.48257 5.17617 3.7558C3.72022 3.02903 2.43176 2.00674 1.393 0.754164C1.02883 1.36857 0.837415 2.06994 0.839 2.78416C0.839697 3.45213 1.00683 4.10939 1.32529 4.69656C1.64375 5.28372 2.1035 5.78228 2.663 6.14716C2.01248 6.12616 1.37602 5.95249 0.805 5.64016V5.69016C0.805 7.64816 2.22 9.28116 4.095 9.65316C3.74261 9.74666 3.37958 9.79406 3.015 9.79416C2.75 9.79416 2.493 9.76916 2.242 9.71916C2.51008 10.5271 3.02311 11.2315 3.70982 11.7345C4.39653 12.2375 5.22284 12.5142 6.074 12.5262C4.61407 13.6507 2.82182 14.2582 0.979 14.2532C0.647 14.2532 0.321 14.2332 0 14.1972C1.88125 15.3879 4.06259 16.0184 6.289 16.0152C13.836 16.0152 17.962 9.85816 17.962 4.51916L17.948 3.99616C18.7529 3.42983 19.4481 2.72201 20 1.90716V1.90716Z"></path>
  </symbol>
	<symbol fill="none" xmlns="http://www.w3.org/2000/svg" viewBox="0 0 33 44" id="person">
    <path d="M16.9775 12.25C18.1642 12.25 19.3242 11.8981 20.3109 11.2388C21.2976 10.5795 22.0667 9.64246 22.5208 8.5461C22.9749 7.44975 23.0937 6.24335 22.8622 5.07946C22.6307 3.91558 22.0593 2.84648 21.2202 2.00736C20.381 1.16825 19.3119 0.596802 18.1481 0.365291C16.9842 0.13378 15.7778 0.2526 14.6814 0.706726C13.5851 1.16085 12.648 1.92989 11.9887 2.91658C11.3294 3.90328 10.9775 5.06332 10.9775 6.25C10.9793 7.84075 11.612 9.36582 12.7369 10.4907C13.8617 11.6155 15.3868 12.2482 16.9775 12.25ZM16.9775 1.75C17.8675 1.75 18.7376 2.01392 19.4776 2.50839C20.2176 3.00286 20.7944 3.70566 21.135 4.52793C21.4756 5.3502 21.5647 6.255 21.3911 7.12791C21.2174 8.00082 20.7888 8.80265 20.1595 9.43198C19.5302 10.0613 18.7283 10.4899 17.8554 10.6635C16.9825 10.8372 16.0777 10.7481 15.2554 10.4075C14.4332 10.0669 13.7304 9.49009 13.2359 8.75007C12.7414 8.01005 12.4775 7.14002 12.4775 6.25C12.4789 5.05694 12.9534 3.91313 13.797 3.06951C14.6406 2.22589 15.7845 1.75135 16.9775 1.75ZM32.1192 24.6495L24.7212 15.1379C24.7021 15.1134 24.6815 15.09 24.6595 15.068C24.2426 14.6488 23.7467 14.3165 23.2005 14.0903C22.6543 13.8641 22.0687 13.7484 21.4775 13.75H12.4775C11.8863 13.7484 11.3007 13.864 10.7545 14.0903C10.2083 14.3165 9.71241 14.6488 9.29551 15.068C9.2735 15.09 9.25289 15.1134 9.2338 15.1379L1.8358 24.6495C1.28866 25.2152 0.985725 25.9733 0.992292 26.7603C0.998859 27.5472 1.31441 28.3001 1.87091 28.8566C2.42741 29.4131 3.1803 29.7286 3.96728 29.7352C4.75426 29.7417 5.5123 29.4388 6.07799 28.8916L10.6553 25.3314L6.19682 39.4134C5.87692 40.132 5.85204 40.9475 6.12754 41.6842C6.40303 42.421 6.95685 43.0201 7.66974 43.3525C8.38263 43.6849 9.19755 43.724 9.93901 43.4614C10.6805 43.1989 11.2891 42.6556 11.6339 41.9486L16.9775 33.5386L22.3211 41.9486C22.6658 42.6557 23.2745 43.1991 24.016 43.4617C24.7575 43.7243 25.5725 43.6852 26.2854 43.3528C26.9984 43.0204 27.5522 42.4212 27.8277 41.6844C28.1032 40.9476 28.0782 40.132 27.7582 39.4134L23.2998 25.3314L27.877 28.8916C28.4427 29.4388 29.2008 29.7417 29.9877 29.7351C30.7747 29.7286 31.5275 29.413 32.084 28.8565C32.6405 28.3001 32.9561 27.5472 32.9627 26.7602C32.9692 25.9733 32.6663 25.2152 32.1192 24.6495H32.1192ZM31.0235 27.7959C30.742 28.0768 30.3605 28.2346 29.9628 28.2346C29.5651 28.2346 29.1836 28.0768 28.9021 27.7959C28.8801 27.774 28.8568 27.7534 28.8323 27.7343L22.3174 22.6671C22.1911 22.5688 22.0367 22.5136 21.8768 22.5093C21.7168 22.5051 21.5597 22.5521 21.4284 22.6435C21.2971 22.735 21.1985 22.866 21.1469 23.0175C21.0954 23.1689 21.0936 23.3329 21.1419 23.4854L26.3419 39.9094C26.3517 39.9403 26.3636 39.9705 26.3772 39.9999C26.5454 40.3605 26.5634 40.7731 26.4273 41.1469C26.2912 41.5208 26.0122 41.8253 25.6516 41.9934C25.291 42.1615 24.8784 42.1795 24.5046 42.0434C24.1307 41.9073 23.8262 41.6283 23.6581 41.2677C23.6444 41.2383 23.6288 41.2099 23.6114 41.1825L17.6105 31.7379C17.5428 31.6313 17.4493 31.5436 17.3386 31.4828C17.228 31.422 17.1038 31.3901 16.9775 31.3901C16.8513 31.3901 16.727 31.422 16.6164 31.4828C16.5057 31.5436 16.4122 31.6313 16.3445 31.7379L10.3436 41.1825C10.3262 41.2099 10.3106 41.2383 10.2969 41.2677C10.2137 41.4463 10.0961 41.6067 9.95084 41.7398C9.80561 41.8729 9.63558 41.976 9.45047 42.0434C9.26536 42.1108 9.06879 42.1411 8.87198 42.1325C8.67517 42.1239 8.48199 42.0766 8.30344 41.9934C8.1249 41.9101 7.96451 41.7925 7.83142 41.6473C7.69832 41.5021 7.59514 41.3321 7.52776 41.1469C7.46037 40.9618 7.43011 40.7653 7.4387 40.5685C7.44728 40.3716 7.49455 40.1785 7.57779 39.9999C7.59148 39.9705 7.60328 39.9403 7.61313 39.9094L12.8131 23.4854C12.8614 23.3329 12.8597 23.1689 12.8081 23.0175C12.7566 22.866 12.6579 22.735 12.5266 22.6435C12.3953 22.5521 12.2382 22.5051 12.0783 22.5093C11.9183 22.5136 11.7639 22.5688 11.6376 22.6671L5.12272 27.7343C5.0982 27.7534 5.0749 27.774 5.05296 27.7959C4.77166 28.0773 4.39012 28.2353 3.99229 28.2353C3.59446 28.2353 3.21291 28.0773 2.93159 27.796C2.65026 27.5147 2.49221 27.1332 2.49219 26.7354C2.49218 26.3375 2.6502 25.956 2.9315 25.6747C2.95348 25.6526 2.97409 25.6293 2.9932 25.6047L10.3876 16.0977C10.9462 15.5522 11.6967 15.2478 12.4775 15.25H21.4775C22.2583 15.2478 23.0088 15.5522 23.5675 16.0977L30.9618 25.6047C30.9809 25.6293 31.0016 25.6526 31.0235 25.6746C31.3048 25.956 31.4628 26.3375 31.4628 26.7353C31.4628 27.1331 31.3048 27.5146 31.0235 27.7959V27.7959Z" fill="#FFB50D"></path>
  </symbol>
	<symbol fill="none" xmlns="http://www.w3.org/2000/svg" viewBox="0 0 40 41" id="bus">
    <path d="M29.9203 25.5527C33.0141 25.4094 32.7156 22.4778 32.7156 20.233C32.7156 17.2348 32.862 14.1976 32.7156 11.2031C32.5792 8.4167 30.156 8.43806 28.0715 8.43806C21.8337 8.43806 15.5966 8.43806 9.3588 8.43806C9.3035 8.43178 9.2438 8.43178 9.18033 8.43806C9.07853 8.43806 8.99055 8.45754 8.90885 8.48582C5.84778 9.0093 6.50951 12.6523 6.50951 15.0164C6.50951 16.7993 6.50951 18.5822 6.50951 20.365C6.50951 21.3064 6.39828 22.3251 6.54785 23.2608C6.99089 26.0246 10.0545 25.5527 12.0962 25.5527C15.5809 25.5527 19.0649 25.5527 22.5495 25.5527C24.9966 25.5527 27.4745 25.6658 29.9203 25.5527ZM9.76414 23.9816C8.7951 23.937 8.19244 23.5826 8.07995 22.518C7.94358 21.2197 8.07995 19.8327 8.07995 18.5281C8.07995 16.8087 8.07995 15.09 8.07995 13.3706C8.07995 12.3513 7.67713 10.1612 9.1797 10.0085C13.9828 10.0085 18.7859 10.0085 23.5889 10.0085C25.603 10.0085 27.8283 9.73702 29.828 10.0085C30.8598 10.1486 31.1439 10.8229 31.1439 11.7392C31.1439 12.9803 31.1439 14.2215 31.1439 15.4626C31.1439 17.0526 31.1439 18.6431 31.1439 20.233C31.1439 21.0544 31.2878 22.0266 31.1439 22.8398C30.8291 24.6176 27.4626 23.9822 26.1774 23.9822C20.7258 23.9816 15.2101 24.2342 9.76414 23.9816Z" fill="#FFB50D"></path>
    <path d="M13.0722 30.4336C12.8655 28.5251 11.4013 26.9534 9.38337 26.9534C7.36675 26.9534 5.67188 28.6489 5.67188 30.6649C5.67188 32.6237 7.26934 34.2852 9.22375 34.3676C11.3026 34.4549 12.8561 32.8688 13.071 30.8986C13.088 30.827 13.0986 30.751 13.0942 30.6649C13.0993 30.58 13.0892 30.5046 13.0722 30.4336ZM7.24357 30.6649C7.24357 27.8979 11.3761 27.9224 11.5238 30.6649C11.3761 33.4067 7.24357 33.4306 7.24357 30.6649Z" fill="#FFB50D"></path>
    <path d="M33.5169 30.8986C33.5339 30.827 33.5446 30.751 33.5402 30.6649C33.5446 30.5794 33.5345 30.5046 33.5176 30.4336C33.3108 28.5251 31.8466 26.9534 29.8287 26.9534C27.8121 26.9534 26.1172 28.6489 26.1172 30.6649C26.1172 32.6237 27.7147 34.2852 29.6691 34.3676C31.7479 34.4549 33.302 32.8688 33.5169 30.8986ZM27.6883 30.6649C27.6883 27.8979 31.8208 27.9224 31.9685 30.6649C31.8214 33.4067 27.6883 33.4306 27.6883 30.6649Z" fill="#FFB50D"></path>
    <path d="M38.8607 12.6505C38.4 11.493 37.6 11.2642 36.5958 11.2183C36.5958 11.1423 36.5958 11.0656 36.5958 10.9896C36.5958 8.73793 36.5958 6.4869 36.5958 4.23524C36.5958 2.6736 36.6631 0.932223 34.8657 0.256034C33.6874 -0.187008 32.0441 0.0794457 30.8262 0.0794457C28.0228 0.0794457 25.2194 0.0794457 22.416 0.0794457C17.0492 0.0794457 11.6818 0.0794457 6.315 0.0794457C6.03535 0.0794457 5.7557 0.0794457 5.47605 0.0794457C5.42074 0.0731614 5.36104 0.0731614 5.29757 0.0794457C5.21336 0.0794457 5.13921 0.0938995 5.06945 0.113381C3.05848 0.42948 2.62675 2.0458 2.62675 3.8387C2.62675 5.99421 2.62675 8.15035 2.62675 10.3059C2.62675 10.6088 2.62675 10.9117 2.62675 11.2146C1.57351 11.2504 0.725756 11.454 0.250664 12.6512C-0.0893152 13.5071 0.0156323 14.5012 0.0156323 15.4049C0.0156323 16.3099 -0.090572 17.3015 0.250664 18.1587C0.72827 19.359 1.57036 19.5607 2.62675 19.5959C2.62675 22.6124 2.62675 25.6288 2.62675 28.6453C2.62675 30.5412 2.60161 32.4391 2.62675 34.3351C2.64183 35.46 3.00255 36.4309 3.76421 37.0071C3.75038 38.1433 3.67183 39.2456 4.66914 40.0236C5.52255 40.6897 6.55191 40.6137 7.56683 40.6137C8.54843 40.6137 9.5382 40.6872 10.3847 40.0846C11.2645 39.458 11.372 38.5851 11.3745 37.6463C13.9674 37.6255 16.5628 37.5602 19.1412 37.5602C21.9641 37.5602 24.7952 37.606 27.6256 37.6192C27.6256 38.5317 27.7199 39.3864 28.5362 40.0236C29.3896 40.6897 30.419 40.6137 31.4339 40.6137C32.4155 40.6137 33.4053 40.6872 34.2518 40.0846C35.2994 39.3386 35.2535 38.2426 35.2371 37.1027C37.3235 35.7415 36.5958 31.6259 36.5958 29.39C36.5958 26.1234 36.5958 22.8575 36.5958 19.5909C37.5975 19.5438 38.4025 19.3137 38.8607 18.1587C39.2006 17.3028 39.0957 16.3086 39.0957 15.4049C39.0957 14.4994 39.2019 13.5077 38.8607 12.6505ZM1.75512 17.715C1.61875 17.5491 1.60618 17.0413 1.5867 16.817C1.54711 16.3526 1.5867 15.8693 1.5867 15.4043C1.5867 14.9399 1.54711 14.4547 1.5867 13.9916C1.60556 13.7672 1.61875 13.2601 1.75512 13.0936C1.96125 12.8422 2.2918 12.7775 2.62675 12.7655C2.62675 14.5245 2.62675 16.2835 2.62675 18.0424C2.29243 18.0311 1.96125 17.9664 1.75512 17.715ZM9.14355 38.9741C8.67663 39.1312 8.04506 39.042 7.56683 39.042C7.12755 39.042 6.64743 39.0979 6.21382 39.0081C5.40378 38.8403 5.30888 38.2181 5.31705 37.547C5.3491 37.5495 5.37612 37.5583 5.4088 37.5595C6.87618 37.6274 8.34985 37.6494 9.8254 37.6507C9.82854 38.2225 9.73176 38.7762 9.14355 38.9741ZM8.6031 35.9885C7.56431 35.9885 6.32505 36.1764 5.2982 35.9885C3.76044 35.7069 4.19845 33.4961 4.19845 32.3605C4.19845 27.1182 4.19845 21.8758 4.19845 16.6341C4.19845 12.2244 3.98918 7.75758 4.19845 3.35167C4.2349 2.58939 4.16452 1.76552 5.2982 1.65052C14.1817 1.65052 23.0645 1.65052 31.948 1.65052C33.0967 1.65052 34.7985 1.29294 35.0254 2.84956C35.207 4.09447 35.0254 5.50404 35.0254 6.75838C35.0254 12.2741 35.0254 17.7898 35.0254 23.3049C35.0254 25.8305 35.0254 28.3556 35.0254 30.8812C35.0254 32.1349 35.2076 33.5451 35.0254 34.79C34.7998 36.3284 33.1677 35.9891 32.0309 35.9891C29.7283 35.9891 27.4258 35.9891 25.1238 35.9891C19.6163 35.9885 14.1094 35.9885 8.6031 35.9885ZM33.01 38.9741C32.5431 39.1312 31.9115 39.042 31.4333 39.042C30.994 39.042 30.5139 39.0979 30.0803 39.0081C29.3004 38.8459 29.1841 38.2634 29.1841 37.6217C30.6829 37.6192 32.1805 37.6067 33.6755 37.5602C33.6812 37.5602 33.6849 37.5583 33.6906 37.5583C33.7044 38.1609 33.6309 38.7655 33.01 38.9741ZM37.5246 16.817C37.5058 17.0413 37.4926 17.5485 37.3562 17.715C37.1733 17.9381 36.8912 18.0148 36.5958 18.0374C36.5958 16.2822 36.5958 14.527 36.5958 12.7718C36.8912 12.7944 37.1733 12.8705 37.3562 13.0942C37.4926 13.2601 37.5051 13.7679 37.5246 13.9922C37.5642 14.4566 37.5246 14.9399 37.5246 15.4049C37.5246 15.8687 37.5642 16.3538 37.5246 16.817Z" fill="#FFB50D"></path>
  </symbol>
	<symbol fill="none" xmlns="http://www.w3.org/2000/svg" viewBox="0 0 48 36" id="car">
    <path d="M9.25231 17.8707C7.27082 17.8707 5.6589 19.4883 5.6589 21.4753C5.6589 23.4632 7.27082 25.0799 9.25231 25.0799C11.2338 25.0799 12.8457 23.4624 12.8457 21.4753C12.8457 19.4882 11.2338 17.8707 9.25231 17.8707ZM9.25231 23.4775C8.15239 23.4775 7.25718 22.5792 7.25718 21.476C7.25718 20.3721 8.15231 19.4738 9.25231 19.4738C10.3531 19.4738 11.2482 20.3721 11.2482 21.476C11.2482 22.5792 10.3531 23.4775 9.25231 23.4775ZM38.0125 17.8707C36.031 17.8707 34.4191 19.4883 34.4191 21.4753C34.4191 23.4632 36.0311 25.0799 38.0125 25.0799C39.994 25.0799 41.6059 23.4624 41.6059 21.4753C41.606 19.4882 39.994 17.8707 38.0125 17.8707ZM38.0125 23.4775C36.9126 23.4775 36.0173 22.5792 36.0173 21.476C36.0173 20.3721 36.9125 19.4738 38.0125 19.4738C39.1133 19.4738 40.0084 20.3721 40.0084 21.476C40.0084 22.5792 39.1133 23.4775 38.0125 23.4775ZM42.2811 16.7931L40.2028 11.4255H7.88204L5.6949 16.5299C4.54212 17.2667 3.77098 18.553 3.77098 20.0226V25.911C3.77098 27.3669 4.52533 28.6437 5.65969 29.3844V31.9403C5.65969 33.7362 7.11639 35.1978 8.90667 35.1978H10.6098C12.4002 35.1978 13.8569 33.737 13.8569 31.9403V30.0588H34.4198V31.9403C34.4198 33.7362 35.8766 35.1978 37.6668 35.1978H39.37C41.1602 35.1978 42.6169 33.737 42.6169 31.9403V28.9229H42.5458C43.3466 28.1661 43.8537 27.0997 43.8537 25.9117V20.0233C43.8538 18.7106 43.2315 17.5531 42.2811 16.7931ZM8.93475 13.0277H39.1093L40.2317 15.9268C40.062 15.9052 39.8949 15.8748 39.7197 15.8748H7.90526C7.83726 15.8748 7.77325 15.8916 7.70604 15.8948L8.93475 13.0277ZM12.2586 31.9404C12.2586 32.8524 11.5186 33.5947 10.6099 33.5947H8.90674C7.99718 33.5947 7.25804 32.8524 7.25804 31.9404V29.9933C7.47082 30.0269 7.68447 30.0589 7.90604 30.0589H12.2594V31.9404H12.2586ZM41.0187 31.9404C41.0187 32.8524 40.2787 33.5947 39.37 33.5947H37.6669C36.7573 33.5947 36.0182 32.8524 36.0182 31.9404V30.0589H39.7204C40.1771 30.0589 40.6083 29.9661 41.0195 29.8285V31.9404H41.0187ZM42.2555 25.9111C42.2555 27.3142 41.118 28.4557 39.7188 28.4557H7.90526C6.5069 28.4557 5.36855 27.3142 5.36855 25.9111V20.0226C5.36855 18.6194 6.5069 17.4779 7.90526 17.4779H39.7196C41.118 17.4779 42.2563 18.6194 42.2563 20.0226V25.9111H42.2555ZM14.8921 25.0807H33.3176V18.4723H14.8921V25.0807ZM16.4896 20.0753H31.72V23.4775H16.4896V20.0753ZM10.6722 3.53541C10.7402 2.89063 11.2778 2.40506 11.9234 2.40506H36.5998C37.2453 2.40506 37.7837 2.89063 37.8508 3.53463L38.5213 9.90553L40.1108 9.73753L39.4404 3.36663C39.2868 1.90428 38.0653 0.802002 36.5998 0.802002H11.9234C10.4578 0.802002 9.2371 1.90436 9.08275 3.36663L8.41239 9.73753L10.002 9.90553L10.6722 3.53541ZM46.1482 7.58239H42.8027C41.7812 7.58239 40.9508 8.41596 40.9508 9.43989V10.827C40.9508 11.8517 41.782 12.6853 42.8027 12.6853H46.1482C47.1696 12.6853 48 11.8517 48 10.827V9.43989C48 8.41596 47.1696 7.58239 46.1482 7.58239ZM46.4016 10.827C46.4016 10.9678 46.2881 11.0822 46.1482 11.0822H42.8027C42.6619 11.0822 42.5483 10.9679 42.5483 10.827V9.43989C42.5483 9.2991 42.6619 9.18553 42.8027 9.18553H46.1482C46.2881 9.18553 46.4016 9.29988 46.4016 9.43989V10.827ZM7.04925 10.827V9.43989C7.04925 8.41596 6.2189 7.58239 5.19733 7.58239H1.85192C0.831137 7.58239 0 8.41596 0 9.43989V10.827C0 11.8517 0.831137 12.6853 1.85192 12.6853H5.19733C6.2189 12.6853 7.04925 11.8517 7.04925 10.827ZM1.59749 10.827V9.43989C1.59749 9.2991 1.71114 9.18553 1.85192 9.18553H5.19733C5.33733 9.18553 5.45177 9.29988 5.45177 9.43989V10.827C5.45177 10.9678 5.33812 11.0822 5.19733 11.0822H1.85192C1.71192 11.0822 1.59749 10.9678 1.59749 10.827Z" fill="#FFB50D"></path>
  </symbol>
	<symbol fill="none" xmlns="http://www.w3.org/2000/svg" viewBox="0 0 24 24" id="speaker">
    <g clip-path="url(#clip0_878_6132)">
      <path d="M23.5376 1.61796C23.5376 1.02224 23.1243 0.539307 22.6145 0.539307C22.1047 0.539307 21.6914 1.02224 21.6914 1.61796V19.4157C21.6914 20.0114 22.1047 20.4944 22.6145 20.4944C23.1243 20.4944 23.5376 20.0114 23.5376 19.4157V1.61796Z" stroke="black" stroke-width="1.5" stroke-linecap="round" stroke-linejoin="round"></path>
      <path fill-rule="evenodd" clip-rule="evenodd" d="M12.4609 6.54722C12.4609 6.54722 18.0364 6.54722 21.6917 1.09155V19.9551C17.9844 14.5592 12.4609 14.5592 12.4609 14.5592V6.54722Z" stroke="black" stroke-width="1.5" stroke-linecap="round" stroke-linejoin="round"></path>
      <path d="M11.7689 5.66284H3.92278C3.54043 5.66284 3.23047 6.02504 3.23047 6.47183V14.5617C3.23047 15.0085 3.54043 15.3707 3.92278 15.3707H11.7689C12.1513 15.3707 12.4612 15.0085 12.4612 14.5617V6.47183C12.4612 6.02504 12.1513 5.66284 11.7689 5.66284Z" stroke="black" stroke-width="1.5" stroke-linecap="round" stroke-linejoin="round"></path>
      <path d="M2.76863 13.7527H1.61478C0.977532 13.7527 0.460938 13.1496 0.460938 12.4038V8.62961C0.460938 7.88466 0.978829 7.28076 1.61478 7.28076H2.76863" stroke="black" stroke-width="1.5" stroke-linecap="round" stroke-linejoin="round"></path>
      <path d="M5.19141 8.08984H10.4991" stroke="black" stroke-width="1.5" stroke-linecap="round" stroke-linejoin="round"></path>
      <path fill-rule="evenodd" clip-rule="evenodd" d="M7.38251 15.3708H4.61328V22.3823C4.61328 22.9789 5.02613 23.4607 5.5354 23.4607H7.94199C8.38698 23.4607 8.89687 22.7407 8.43202 22.1124C8.43202 22.1124 7.38251 20.6614 7.38251 20.1765C7.38251 19.3713 7.38251 15.3708 7.38251 15.3708Z" stroke="black" stroke-width="1.5" stroke-linecap="round" stroke-linejoin="round"></path>
    </g>
    <defs>
      <clipPath id="clip0_878_6132">
        <rect width="24" height="24" fill="white"></rect>
      </clipPath>
    </defs>
  </symbol>
	<symbol fill="none" xmlns="http://www.w3.org/2000/svg" viewBox="0 0 21 20" id="multimedia">
    <path fill-rule="evenodd" clip-rule="evenodd" d="M19.4615 1H1V18.8723H19.4615V1Z" stroke="black" stroke-width="1.5" stroke-linecap="round" stroke-linejoin="round"></path>
    <path fill-rule="evenodd" clip-rule="evenodd" d="M9.31494 18.7413L3.67188 12.2254L12.5951 3.42212L19.4621 11.3512V18.7413H9.31494Z" stroke="black" stroke-width="1.5" stroke-linecap="round" stroke-linejoin="round"></path>
    <path fill-rule="evenodd" clip-rule="evenodd" d="M9.41263 18.8487L1 9.14111L1 18.8487H9.41263Z" stroke="black" stroke-width="1.5" stroke-linecap="round" stroke-linejoin="round"></path>
    <path fill-rule="evenodd" clip-rule="evenodd" d="M4.92368 6.87242C4.15898 6.87242 3.53906 6.18656 3.53906 5.34051C3.53906 4.49446 4.15898 3.80859 4.92368 3.80859C5.68838 3.80859 6.30829 4.49446 6.30829 5.34051C6.30829 6.18656 5.68838 6.87242 4.92368 6.87242Z" stroke="black" stroke-width="1.5" stroke-linecap="round" stroke-linejoin="round"></path>
  </symbol>
	<symbol fill="none" xmlns="http://www.w3.org/2000/svg" viewBox="0 0 54 36" id="handshake">
    <path d="M53.2006 12.3976L47.8209 2.09529C47.5001 1.48749 46.9547 1.02896 46.3008 0.817342C45.6469 0.605728 44.9362 0.657753 44.3201 0.962337L39.0427 3.6009H35.0633L27.6731 0.25706C27.1022 -0.000847897 26.458 -0.0464159 25.8564 0.128564L14.8801 3.32852L9.67855 0.727885C9.06243 0.423409 8.35181 0.37143 7.69795 0.583013C7.04409 0.794596 6.49863 1.25303 6.17769 1.86073L0.798024 12.1632C0.636707 12.4722 0.538548 12.8103 0.509274 13.1576C0.48 13.505 0.520196 13.8547 0.627519 14.1864C0.734841 14.518 0.90714 14.825 1.13436 15.0893C1.36158 15.3537 1.63918 15.5701 1.95095 15.726L7.27966 18.3904L19.1675 27.686C19.4568 27.9131 19.7909 28.0763 20.1478 28.165L32.8259 31.3345C33.0321 31.3859 33.2439 31.4119 33.4565 31.4118C34.1543 31.4121 34.8238 31.1361 35.3186 30.6441L43.368 22.5947C43.3842 22.5785 43.3996 22.5618 43.4145 22.5445L46.7994 18.5846L52.0477 15.9605C52.3594 15.8046 52.637 15.5881 52.8643 15.3237C53.0915 15.0594 53.2638 14.7524 53.3711 14.4208C53.4784 14.0891 53.5186 13.7394 53.4894 13.392C53.4601 13.0447 53.3619 12.7066 53.2006 12.3976L53.2006 12.3976ZM42.6098 20.7925L33.6389 14.2683C33.4876 14.1582 33.305 14.0996 33.1178 14.101C32.9307 14.1023 32.749 14.1636 32.5992 14.2759L29.7993 16.3759C28.737 17.1662 27.4483 17.5931 26.1243 17.5931C24.8003 17.5931 23.5116 17.1662 22.4494 16.3759L21.2635 15.4866C21.1633 15.4114 21.0803 15.3155 21.0203 15.2054C20.9603 15.0954 20.9247 14.9737 20.9158 14.8487C20.9069 14.7236 20.9249 14.5982 20.9688 14.4807C21.0126 14.3633 21.0811 14.2566 21.1698 14.168L29.7305 5.60725C29.8949 5.44372 30.1172 5.35161 30.3491 5.3509H34.8719L34.8739 5.35112L34.8769 5.3509H38.7191L45.2 17.7623L42.6098 20.7925ZM2.29253 13.6476C2.25637 13.5371 2.24277 13.4205 2.25253 13.3046C2.26229 13.1888 2.29522 13.0761 2.34935 12.9732L7.72902 2.67068C7.80377 2.52889 7.91587 2.41025 8.05319 2.32759C8.19051 2.24492 8.34782 2.20138 8.50811 2.20168C8.6427 2.20156 8.77547 2.23287 8.89583 2.29312L13.5616 4.62588L7.37163 16.4798L2.73366 14.1608C2.62952 14.1092 2.53681 14.0371 2.46103 13.949C2.38526 13.8608 2.32796 13.7583 2.29253 13.6476ZM34.0813 29.4066C33.9743 29.5132 33.8415 29.5903 33.6959 29.6306C33.5503 29.6709 33.3968 29.673 33.2501 29.6366L20.572 26.4671C20.4531 26.4376 20.3418 26.3832 20.2454 26.3075L8.86209 17.4064L15.3297 5.0203L26.3461 1.80872C26.5466 1.75023 26.7614 1.76539 26.9517 1.85144L30.8179 3.60091H30.3491C30.0043 3.59996 29.6627 3.66743 29.3441 3.7994C29.0256 3.93137 28.7363 4.12522 28.4932 4.36974L19.9325 12.9305C19.6665 13.1964 19.4608 13.5163 19.3292 13.8687C19.1977 14.221 19.1434 14.5975 19.17 14.9727C19.1967 15.3478 19.3036 15.7129 19.4836 16.0431C19.6636 16.3733 19.9125 16.661 20.2134 16.8867L21.3992 17.776C22.765 18.7921 24.422 19.3408 26.1243 19.3408C27.8266 19.3408 29.4836 18.7921 30.8494 17.776L33.1322 16.0637L41.4066 22.0813L34.0813 29.4066ZM51.7061 13.882C51.6707 13.9928 51.6134 14.0952 51.5376 14.1834C51.4618 14.2716 51.3691 14.3436 51.265 14.3953L46.627 16.7143L40.4371 4.86032L45.1028 2.52755C45.3081 2.42596 45.545 2.40859 45.763 2.47914C45.981 2.5497 46.1628 2.70259 46.2696 2.90524L51.6493 13.2075C51.7034 13.3104 51.7363 13.4232 51.7461 13.539C51.7559 13.6549 51.7423 13.7715 51.7061 13.882V13.882ZM24.3483 35.313C24.3205 35.4246 24.271 35.5295 24.2026 35.6219C24.1343 35.7143 24.0483 35.7923 23.9498 35.8515C23.8512 35.9106 23.742 35.9498 23.6283 35.9666C23.5146 35.9835 23.3987 35.9778 23.2872 35.9498L16.6941 34.3017C16.2929 34.2009 15.921 34.0071 15.6085 33.7361L10.6753 29.4478C10.5883 29.3725 10.5169 29.2808 10.4654 29.1779C10.4139 29.075 10.3831 28.963 10.375 28.8482C10.3668 28.7334 10.3813 28.6181 10.4178 28.509C10.4542 28.3998 10.5119 28.2989 10.5874 28.212C10.6629 28.1252 10.7547 28.0541 10.8578 28.0028C10.9608 27.9515 11.0729 27.9211 11.1877 27.9132C11.3025 27.9053 11.4178 27.9201 11.5268 27.9569C11.6359 27.9936 11.7367 28.0515 11.8233 28.1272L16.7567 32.4155C16.8611 32.5058 16.9852 32.5704 17.119 32.6041L23.7114 34.252C23.9366 34.3083 24.1301 34.4517 24.2495 34.6507C24.369 34.8496 24.4045 35.0879 24.3483 35.313Z" fill="#FFB50D"></path>
  </symbol>
	<symbol fill="none" xmlns="http://www.w3.org/2000/svg" viewBox="0 0 48 48" id="partners">
    <g clip-path="url(#clip0_942_18243)">
      <path d="M9.69466 13.643C11.8297 13.643 14.2627 10.486 14.2627 7.71701C14.3032 7.09822 14.2142 6.47778 14.0015 5.89533C13.7887 5.31287 13.4567 4.7812 13.0268 4.33428C12.597 3.88736 12.0786 3.53502 11.5048 3.29977C10.9311 3.06451 10.3146 2.95152 9.69466 2.96801C9.07481 2.95167 8.45837 3.06477 7.88468 3.30008C7.311 3.53538 6.79269 3.88773 6.36283 4.33461C5.93298 4.7815 5.60103 5.31311 5.38818 5.8955C5.17534 6.47789 5.08627 7.09826 5.12666 7.71701C5.12666 10.486 7.56066 13.643 9.69466 13.643ZM9.69466 4.46801C10.1178 4.45099 10.5396 4.52487 10.9318 4.68466C11.3239 4.84445 11.6773 5.08644 11.968 5.39432C12.2588 5.70221 12.4801 6.06884 12.6172 6.4695C12.7543 6.87016 12.8039 7.29556 12.7627 7.71701C12.7627 9.86701 10.7627 12.143 9.69466 12.143C8.62666 12.143 6.62666 9.86701 6.62666 7.71701C6.58545 7.29556 6.63505 6.87016 6.77212 6.4695C6.90919 6.06884 7.13055 5.70221 7.42129 5.39432C7.71202 5.08644 8.06537 4.84445 8.45753 4.68466C8.84969 4.52487 9.27154 4.45099 9.69466 4.46801Z" fill="#FFB50D"></path>
      <path d="M9.69922 29.546C9.50031 29.546 9.30954 29.625 9.16889 29.7657C9.02824 29.9063 8.94922 30.0971 8.94922 30.296V42.529C8.94922 42.7279 9.02824 42.9187 9.16889 43.0594C9.30954 43.2 9.50031 43.279 9.69922 43.279C9.89813 43.279 10.0889 43.2 10.2295 43.0594C10.3702 42.9187 10.4492 42.7279 10.4492 42.529V30.3C10.4497 30.2012 10.4307 30.1032 10.3933 30.0118C10.3558 29.9203 10.3007 29.8372 10.231 29.7671C10.1613 29.697 10.0784 29.6414 9.98716 29.6035C9.8959 29.5655 9.79805 29.546 9.69922 29.546Z" fill="#FFB50D"></path>
      <path d="M17.867 31.166C18.3293 30.9215 18.716 30.5554 18.9856 30.1073C19.2553 29.6592 19.3975 29.146 19.397 28.623V16.507C19.3973 16.3638 19.3565 16.2235 19.2794 16.1027C19.2023 15.982 19.0921 15.886 18.962 15.826L13.209 13.172C13.1059 13.124 12.9932 13.1002 12.8795 13.1024C12.7658 13.1047 12.6541 13.1329 12.553 13.185L9.694 14.648L6.846 13.186C6.74484 13.1331 6.6328 13.1043 6.51864 13.1019C6.40449 13.0994 6.29133 13.1234 6.188 13.172L0.436002 15.826C0.305786 15.8859 0.195491 15.9819 0.118208 16.1026C0.0409247 16.2233 -0.000100494 16.3637 1.95525e-06 16.507V28.623C-0.000607916 29.1458 0.141465 29.6588 0.410905 30.1067C0.680345 30.5547 1.06693 30.9206 1.529 31.165L3.521 32.222C3.56815 32.2395 3.61713 32.2516 3.667 32.258V42.529C3.667 42.7279 3.74602 42.9187 3.88667 43.0594C4.02732 43.2 4.21809 43.279 4.417 43.279C4.61591 43.279 4.80668 43.2 4.94733 43.0594C5.08798 42.9187 5.167 42.7279 5.167 42.529V20.03C5.167 19.8311 5.08798 19.6404 4.94733 19.4997C4.80668 19.359 4.61591 19.28 4.417 19.28C4.21809 19.28 4.02732 19.359 3.88667 19.4997C3.74602 19.6404 3.667 19.8311 3.667 20.03V30.6L2.232 29.839C2.01101 29.722 1.82609 29.5469 1.69712 29.3327C1.56815 29.1184 1.5 28.8731 1.5 28.623V16.986L6.181 14.827L9.036 20.037C9.10081 20.1548 9.19606 20.2531 9.31181 20.3215C9.42755 20.3899 9.55954 20.426 9.694 20.426C9.82846 20.426 9.96045 20.3899 10.0762 20.3215C10.1919 20.2531 10.2872 20.1548 10.352 20.037L13.215 14.825L17.897 16.985V28.623C17.8972 28.8735 17.829 29.1193 17.6998 29.3339C17.5707 29.5486 17.3854 29.7239 17.164 29.841L15.729 30.602V20.03C15.729 19.8311 15.65 19.6404 15.5093 19.4997C15.3687 19.359 15.1779 19.28 14.979 19.28C14.7801 19.28 14.5893 19.359 14.4487 19.4997C14.308 19.6404 14.229 19.8311 14.229 20.03V42.53C14.229 42.7289 14.308 42.9197 14.4487 43.0604C14.5893 43.201 14.7801 43.28 14.979 43.28C15.1779 43.28 15.3687 43.201 15.5093 43.0604C15.65 42.9197 15.729 42.7289 15.729 42.53V32.265C15.7798 32.2562 15.8294 32.2418 15.877 32.222L17.867 31.166ZM9.7 18.117L8.341 15.637L9.357 16.158C9.4627 16.2127 9.57998 16.2413 9.699 16.2413C9.81802 16.2413 9.9353 16.2127 10.041 16.158L11.064 15.634L9.7 18.117Z" fill="#FFB50D"></path>
      <path d="M38.2995 13.643C40.4345 13.643 42.8675 10.486 42.8675 7.71699C42.8898 7.10318 42.7881 6.49118 42.5685 5.91755C42.349 5.34392 42.0161 4.82041 41.5897 4.3783C41.1634 3.9362 40.6522 3.58455 40.0869 3.34437C39.5216 3.10419 38.9137 2.98041 38.2995 2.98041C37.6853 2.98041 37.0774 3.10419 36.5121 3.34437C35.9468 3.58455 35.4357 3.9362 35.0093 4.3783C34.5829 4.82041 34.25 5.34392 34.0305 5.91755C33.811 6.49118 33.7093 7.10318 33.7315 7.71699C33.7285 10.486 36.1615 13.643 38.2995 13.643ZM38.2995 4.46799C38.7226 4.45097 39.1445 4.52485 39.5366 4.68464C39.9288 4.84443 40.2822 5.08642 40.5729 5.3943C40.8636 5.70219 41.085 6.06882 41.2221 6.46948C41.3591 6.87015 41.4087 7.29554 41.3675 7.71699C41.3675 9.86699 39.3675 12.143 38.2995 12.143C37.2315 12.143 35.2315 9.86699 35.2315 7.71699C35.1903 7.29554 35.2399 6.87015 35.377 6.46948C35.514 6.06882 35.7354 5.70219 36.0261 5.3943C36.3169 5.08642 36.6702 4.84443 37.0624 4.68464C37.4545 4.52485 37.8764 4.45097 38.2995 4.46799Z" fill="#FFB50D"></path>
      <path d="M38.3008 29.546C38.1019 29.546 37.9111 29.625 37.7705 29.7657C37.6298 29.9063 37.5508 30.0971 37.5508 30.296V42.529C37.5508 42.7279 37.6298 42.9187 37.7705 43.0594C37.9111 43.2 38.1019 43.279 38.3008 43.279C38.4997 43.279 38.6905 43.2 38.8311 43.0594C38.9718 42.9187 39.0508 42.7279 39.0508 42.529V30.3C39.0513 30.2012 39.0323 30.1032 38.9948 30.0118C38.9574 29.9203 38.9022 29.8372 38.8325 29.7671C38.7628 29.697 38.68 29.6414 38.5887 29.6035C38.4975 29.5655 38.3996 29.546 38.3008 29.546Z" fill="#FFB50D"></path>
      <path d="M47.5635 15.826L41.8115 13.172C41.7082 13.1239 41.5953 13.1001 41.4815 13.1024C41.3676 13.1046 41.2557 13.1329 41.1545 13.185L38.2995 14.648L35.4505 13.186C35.3495 13.133 35.2376 13.1042 35.1236 13.1017C35.0096 13.0993 34.8966 13.1234 34.7935 13.172L29.0405 15.826C28.9104 15.886 28.8002 15.982 28.7231 16.1027C28.646 16.2234 28.6052 16.3638 28.6055 16.507V28.623C28.6048 29.1459 28.747 29.659 29.0167 30.107C29.2863 30.5549 29.6731 30.9208 30.1355 31.165L32.1255 32.222C32.1732 32.2416 32.2228 32.2564 32.2735 32.266V42.529C32.2735 42.7279 32.3525 42.9187 32.4931 43.0593C32.6338 43.2 32.8246 43.279 33.0235 43.279C33.2224 43.279 33.4131 43.2 33.5538 43.0593C33.6945 42.9187 33.7735 42.7279 33.7735 42.529V20.03C33.7735 19.8311 33.6945 19.6403 33.5538 19.4997C33.4131 19.359 33.2224 19.28 33.0235 19.28C32.8246 19.28 32.6338 19.359 32.4931 19.4997C32.3525 19.6403 32.2735 19.8311 32.2735 20.03V30.6L30.8385 29.838C30.617 29.7212 30.4317 29.5461 30.3025 29.3316C30.1733 29.1171 30.1052 28.8714 30.1055 28.621V16.986L34.7865 14.827L37.6415 20.037C37.7061 20.1548 37.8013 20.2531 37.9169 20.3216C38.0326 20.3901 38.1646 20.4262 38.299 20.4262C38.4334 20.4262 38.5653 20.3901 38.681 20.3216C38.7967 20.2531 38.8918 20.1548 38.9565 20.037L41.8205 14.826L46.4995 16.986V28.623C46.4998 28.8734 46.4319 29.1192 46.3029 29.3338C46.1739 29.5484 45.9888 29.7238 45.7675 29.841L44.3325 30.602V20.03C44.3325 19.8311 44.2535 19.6403 44.1128 19.4997C43.9721 19.359 43.7814 19.28 43.5825 19.28C43.3836 19.28 43.1928 19.359 43.0521 19.4997C42.9115 19.6403 42.8325 19.8311 42.8325 20.03V42.53C42.8325 42.7289 42.9115 42.9197 43.0521 43.0603C43.1928 43.201 43.3836 43.28 43.5825 43.28C43.7814 43.28 43.9721 43.201 44.1128 43.0603C44.2535 42.9197 44.3325 42.7289 44.3325 42.53V32.258C44.3823 32.2516 44.4313 32.2395 44.4785 32.222L46.4705 31.165C46.9325 30.9206 47.3191 30.5546 47.5886 30.1067C47.858 29.6587 48.0001 29.1458 47.9995 28.623V16.507C47.9996 16.3637 47.9585 16.2233 47.8813 16.1026C47.804 15.9819 47.6937 15.8859 47.5635 15.826ZM38.2995 18.117L36.9405 15.637L37.9555 16.158C38.0613 16.2127 38.1788 16.2413 38.298 16.2413C38.4171 16.2413 38.5346 16.2127 38.6405 16.158L39.6635 15.634L38.2995 18.117Z" fill="#FFB50D"></path>
      <path d="M29.1928 40.245C29.1236 40.1734 29.0408 40.1163 28.9493 40.077C28.8577 40.0378 28.7593 40.0171 28.6597 40.0163C28.5601 40.0155 28.4614 40.0345 28.3692 40.0723C28.2771 40.11 28.1934 40.1658 28.123 40.2362C28.0526 40.3067 27.9969 40.3904 27.9593 40.4826C27.9216 40.5748 27.9027 40.6736 27.9036 40.7732C27.9045 40.8727 27.9252 40.9712 27.9646 41.0626C28.0039 41.1541 28.0611 41.2369 28.1328 41.306L28.6058 41.779H19.4008L19.8738 41.306C19.9454 41.2369 20.0026 41.1541 20.042 41.0626C20.0813 40.9712 20.1021 40.8727 20.103 40.7732C20.1039 40.6736 20.0849 40.5748 20.0473 40.4826C20.0096 40.3904 19.954 40.3067 19.8836 40.2362C19.8132 40.1658 19.7295 40.11 19.6373 40.0723C19.5452 40.0345 19.4464 40.0155 19.3468 40.0163C19.2472 40.0171 19.1488 40.0378 19.0573 40.077C18.9658 40.1163 18.883 40.1734 18.8138 40.245L17.0558 42C16.9861 42.0697 16.9308 42.1524 16.8931 42.2434C16.8554 42.3344 16.8359 42.432 16.8359 42.5305C16.8359 42.629 16.8554 42.7266 16.8931 42.8176C16.9308 42.9087 16.9861 42.9914 17.0558 43.061L18.8088 44.813C18.951 44.9455 19.139 45.0176 19.3333 45.0142C19.5276 45.0108 19.713 44.932 19.8504 44.7946C19.9878 44.6572 20.0665 44.4718 20.07 44.2775C20.0734 44.0832 20.0013 43.8952 19.8688 43.753L19.3968 43.28H28.6008L28.1288 43.753C28.0551 43.8217 27.996 43.9045 27.955 43.9965C27.914 44.0885 27.892 44.1878 27.8902 44.2885C27.8884 44.3892 27.9069 44.4892 27.9447 44.5826C27.9824 44.676 28.0385 44.7608 28.1097 44.832C28.181 44.9033 28.2658 44.9594 28.3592 44.9971C28.4526 45.0349 28.5526 45.0534 28.6533 45.0516C28.754 45.0498 28.8533 45.0278 28.9453 44.9868C29.0373 44.9458 29.1201 44.8867 29.1888 44.813L30.9418 43.061C31.0115 42.9914 31.0668 42.9087 31.1045 42.8176C31.1422 42.7266 31.1616 42.629 31.1616 42.5305C31.1616 42.432 31.1422 42.3344 31.1045 42.2434C31.0668 42.1524 31.0115 42.0697 30.9418 42L29.1928 40.245Z" fill="#FFB50D"></path>
    </g>
    <defs>
      <clipPath id="clip0_942_18243">
        <rect width="48" height="48" fill="white"></rect>
      </clipPath>
    </defs>
  </symbol>
	<symbol fill="none" xmlns="http://www.w3.org/2000/svg" viewBox="0 0 45 36" id="love">
    <path d="M20.9997 14.5481C23.6173 16.7765 26.1942 18.2981 26.3027 18.3618C26.4351 18.4394 26.587 18.4805 26.7406 18.4805C26.8942 18.4805 27.0451 18.4394 27.1775 18.3618C27.286 18.2981 29.8629 16.7766 32.4805 14.5481C36.1195 11.4502 37.9646 8.5953 37.9646 6.06255C37.9646 2.71958 35.2449 0 31.902 0C29.7382 0 27.814 1.14108 26.7401 2.88131C25.6663 1.14108 23.742 0 21.5782 0C18.2352 0 15.5156 2.71967 15.5156 6.06255C15.5156 8.59521 17.3607 11.4501 20.9997 14.5481ZM21.5782 1.72528C23.7739 1.72528 25.6246 3.36738 25.8834 5.54486C25.9349 5.97893 26.3029 6.30575 26.7401 6.30575C27.1773 6.30575 27.5452 5.97885 27.5968 5.54486C27.8556 3.36738 29.7063 1.72528 31.902 1.72528C34.2936 1.72528 36.2391 3.67099 36.2391 6.06238C36.2391 9.93928 29.7526 14.7508 26.7401 16.6105C23.7275 14.7507 17.2411 9.93928 17.2411 6.06238C17.2411 3.67082 19.1867 1.72528 21.5782 1.72528Z" fill="#FFB50D"></path>
    <path d="M26.7405 14.371C26.9093 14.371 27.0797 14.3217 27.2291 14.2187C28.3515 13.4454 29.3887 12.6523 30.3122 11.8616C30.6423 11.5788 30.9604 11.2936 31.2579 11.014C31.605 10.6876 31.6217 10.1416 31.2953 9.7945C30.9689 9.44748 30.4231 9.43064 30.0758 9.75703C29.7979 10.0185 29.4998 10.2856 29.1899 10.5509C28.3121 11.3027 27.3231 12.0587 26.2503 12.7977C25.8579 13.068 25.7591 13.6051 26.0292 13.9975C26.1967 14.2406 26.4662 14.371 26.7405 14.371Z" fill="#FFB50D"></path>
    <path d="M32.3194 8.68423C32.4695 8.78865 32.6412 8.83875 32.8112 8.83875C33.0841 8.83875 33.3525 8.70958 33.5203 8.46853C33.542 8.43733 33.5633 8.40614 33.5843 8.37529C33.8513 7.98066 33.7479 7.44432 33.3533 7.17723C32.9587 6.91031 32.4224 7.01369 32.1553 7.40823C32.1385 7.43307 32.1211 7.45807 32.1037 7.48325C31.8317 7.87453 31.9283 8.41215 32.3194 8.68423Z" fill="#FFB50D"></path>
    <path d="M44.1853 22.869C43.207 21.1743 41.0939 20.5763 39.3728 21.5062L33.2908 24.7143C33.2879 24.7159 33.285 24.7174 33.2821 24.7189C32.5114 25.1367 31.6521 25.3799 30.7781 25.43C31.0343 24.9598 31.1798 24.421 31.1798 23.8489C31.1798 22.0204 29.6922 20.5327 27.8637 20.5327H22.9234C19.5808 20.5327 16.7277 21.6473 14.7565 23.66V22.5852C14.7565 21.5736 13.9336 20.7507 12.9221 20.7507H1.5307C1.05426 20.7506 0.667969 21.1369 0.667969 21.6133V34.6877C0.667969 35.1641 1.05426 35.5505 1.5307 35.5505L12.9221 35.5616C13.9336 35.5616 14.7565 34.7388 14.7565 33.7273V32.8712L18.2614 33.7855C19.1728 34.0234 20.1128 34.1439 21.0552 34.1439H28.9858C30.26 34.1439 31.5261 33.8232 32.6415 33.2195L42.7877 27.8172C43.6464 27.3518 44.2655 26.5779 44.5309 25.6381C44.7964 24.6983 44.6736 23.7148 44.1853 22.869ZM7.96622 33.8249H2.39342V22.4759H7.96622V33.8249ZM13.031 26.2367C13.0277 26.2825 13.0271 26.3284 13.031 26.3741V31.7545V33.7272C13.031 33.7872 12.9822 33.8361 12.9221 33.8361H9.69158V22.4759H12.9221C12.9821 22.4759 13.031 22.5247 13.031 22.5849V26.2367ZM42.8704 25.1691C42.7326 25.657 42.4113 26.0588 41.9711 26.2972L31.8252 31.6994C30.9561 32.1698 29.9742 32.4185 28.9858 32.4185H21.0552C20.2598 32.4185 19.4664 32.3166 18.697 32.1159L14.7565 31.088V26.5138C16.2784 23.8058 19.2411 22.2577 22.9234 22.2577H27.8637C28.7409 22.2577 29.4545 22.9713 29.4545 23.8485C29.4545 24.7258 28.7409 25.4394 27.8637 25.4394H21.9723C21.496 25.4394 21.1096 25.8257 21.1096 26.3021C21.1096 26.7785 21.4959 27.1649 21.9723 27.1649H27.8637H30.4397C31.7139 27.1649 32.9794 26.8444 34.1 26.2379L40.182 23.0298C40.1849 23.0283 40.1877 23.0268 40.1906 23.0252C41.0847 22.5406 42.1828 22.851 42.6911 23.7315C42.9444 24.1707 43.0082 24.6813 42.8704 25.1691Z" fill="#FFB50D"></path>
  </symbol>
	<symbol fill="none" xmlns="http://www.w3.org/2000/svg" viewBox="0 0 50 48" id="45">
    <circle cx="24.5" cy="24" r="23" stroke="#FFB50D" stroke-width="2"></circle>
    <path d="M20.5879 30V27.4072H15.3145V25.2451L20.9043 17.0625H22.9785V25.2363H24.5781V27.4072H22.9785V30H20.5879ZM20.5879 25.2363V20.833L17.626 25.2363H20.5879ZM25.7998 26.6865L28.2607 26.4316C28.3311 26.9883 28.5391 27.4307 28.8848 27.7588C29.2305 28.0811 29.6289 28.2422 30.0801 28.2422C30.5957 28.2422 31.0322 28.0342 31.3896 27.6182C31.7471 27.1963 31.9258 26.5635 31.9258 25.7197C31.9258 24.9287 31.7471 24.3369 31.3896 23.9443C31.0381 23.5459 30.5781 23.3467 30.0098 23.3467C29.3008 23.3467 28.665 23.6602 28.1025 24.2871L26.0986 23.9971L27.3643 17.291H33.8945V19.6025H29.2363L28.8496 21.791C29.4004 21.5156 29.9629 21.3779 30.5371 21.3779C31.6328 21.3779 32.5615 21.7764 33.3232 22.5732C34.085 23.3701 34.4658 24.4043 34.4658 25.6758C34.4658 26.7363 34.1582 27.6826 33.543 28.5146C32.7051 29.6514 31.542 30.2197 30.0537 30.2197C28.8643 30.2197 27.8945 29.9004 27.1445 29.2617C26.3945 28.623 25.9463 27.7646 25.7998 26.6865Z" fill="#FFB50D"></path>
  </symbol>
	<symbol fill="none" xmlns="http://www.w3.org/2000/svg" viewBox="0 0 50 48" id="15">
    <circle cx="24.5" cy="24" r="23" stroke="#FFB50D" stroke-width="2"></circle>
    <path d="M22.0645 30H19.5947V20.6924C18.6924 21.5361 17.6289 22.1602 16.4043 22.5645V20.3232C17.0488 20.1123 17.749 19.7139 18.5049 19.1279C19.2607 18.5361 19.7793 17.8477 20.0605 17.0625H22.0645V30ZM25.7998 26.6865L28.2607 26.4316C28.3311 26.9883 28.5391 27.4307 28.8848 27.7588C29.2305 28.0811 29.6289 28.2422 30.0801 28.2422C30.5957 28.2422 31.0322 28.0342 31.3896 27.6182C31.7471 27.1963 31.9258 26.5635 31.9258 25.7197C31.9258 24.9287 31.7471 24.3369 31.3896 23.9443C31.0381 23.5459 30.5781 23.3467 30.0098 23.3467C29.3008 23.3467 28.665 23.6602 28.1025 24.2871L26.0986 23.9971L27.3643 17.291H33.8945V19.6025H29.2363L28.8496 21.791C29.4004 21.5156 29.9629 21.3779 30.5371 21.3779C31.6328 21.3779 32.5615 21.7764 33.3232 22.5732C34.085 23.3701 34.4658 24.4043 34.4658 25.6758C34.4658 26.7363 34.1582 27.6826 33.543 28.5146C32.7051 29.6514 31.542 30.2197 30.0537 30.2197C28.8643 30.2197 27.8945 29.9004 27.1445 29.2617C26.3945 28.623 25.9463 27.7646 25.7998 26.6865Z" fill="#FFB50D"></path>
  </symbol>
	<symbol fill="none" xmlns="http://www.w3.org/2000/svg" viewBox="0 0 34 43" id="drink">
    <path d="M26.7598 2.36213C23.8608 2.36213 21.3872 4.14199 20.3465 6.66105L22.2957 7.18138C23.0927 5.50889 24.7859 4.34847 26.7598 4.34847C29.4977 4.34847 31.7153 6.56607 31.7153 9.29986C31.7153 12.0378 29.4977 14.2554 26.7598 14.2554C26.5905 14.2554 26.4294 14.2223 26.2643 14.2058L25.7481 16.1344C26.0826 16.1839 26.4129 16.2376 26.7598 16.2376C30.5921 16.2376 33.6975 13.128 33.6975 9.29573C33.6975 5.46759 30.5921 2.36213 26.7598 2.36213ZM21.0527 40.9533L14.8666 39.2643V24.5298L27.4536 10.0019C27.4619 10.0019 27.466 9.99777 27.4701 9.99364L27.6146 9.7789C27.6931 9.63436 27.7551 9.47744 27.7551 9.29986C27.7551 8.75063 27.3132 8.31289 26.7639 8.31289H9.83258L2.99809 0.371664L2.97331 0.392312C2.79161 0.156925 2.52319 0 2.20521 0C1.6601 0 1.2141 0.441867 1.2141 0.986975C1.2141 1.27605 1.34212 1.53208 1.53621 1.71378L7.21441 8.31289H0.991104C0.445997 8.31289 0 8.75063 0 9.29986C0 9.60132 0.140406 9.86562 0.351016 10.0473L12.8844 24.5298V39.2601L6.69821 40.9533C6.15311 41.1019 5.831 41.6718 5.97553 42.2293C6.1242 42.7827 6.68169 43.113 7.22267 42.9644L13.8755 41.1473L20.5282 42.9644C21.0692 43.113 21.6309 42.7827 21.7754 42.2293C21.9199 41.6718 21.5978 41.1019 21.0527 40.9533ZM24.6166 10.291L18.1083 17.9225L11.5381 10.291H24.6166ZM3.13437 10.291H8.92407L16.8075 19.4504L13.8755 22.8863L3.13437 10.291Z" fill="#FFB50D"></path>
  </symbol>
	<symbol fill="none" xmlns="http://www.w3.org/2000/svg" viewBox="0 0 41 40" id="10">
    <circle cx="20" cy="20" r="19" stroke="#FFB50D" stroke-width="2"></circle>
    <path d="M12.7188 26H10.5234V17.7266C9.72135 18.4766 8.77604 19.0312 7.6875 19.3906V17.3984C8.26042 17.2109 8.88281 16.8568 9.55469 16.3359C10.2266 15.8099 10.6875 15.1979 10.9375 14.5H12.7188V26ZM19.7188 14.5C20.8281 14.5 21.6953 14.8958 22.3203 15.6875C23.0651 16.625 23.4375 18.1797 23.4375 20.3516C23.4375 22.5182 23.0625 24.0755 22.3125 25.0234C21.6927 25.8047 20.8281 26.1953 19.7188 26.1953C18.6042 26.1953 17.7057 25.7682 17.0234 24.9141C16.3411 24.0547 16 22.526 16 20.3281C16 18.1719 16.375 16.6198 17.125 15.6719C17.7448 14.8906 18.6094 14.5 19.7188 14.5ZM19.7188 16.3203C19.4531 16.3203 19.2161 16.4062 19.0078 16.5781C18.7995 16.7448 18.638 17.0469 18.5234 17.4844C18.3724 18.0521 18.2969 19.0078 18.2969 20.3516C18.2969 21.6953 18.3646 22.6198 18.5 23.125C18.6354 23.625 18.8047 23.9583 19.0078 24.125C19.2161 24.2917 19.4531 24.375 19.7188 24.375C19.9844 24.375 20.2214 24.2917 20.4297 24.125C20.638 23.9531 20.7995 23.6484 20.9141 23.2109C21.0651 22.6484 21.1406 21.6953 21.1406 20.3516C21.1406 19.0078 21.0729 18.0859 20.9375 17.5859C20.8021 17.0807 20.6302 16.7448 20.4219 16.5781C20.2188 16.4062 19.9844 16.3203 19.7188 16.3203ZM27.8984 24.3516V21.375H24.8984V19.3203H27.8984V16.3438H29.8984V19.3203H32.9062V21.375H29.8984V24.3516H27.8984Z" fill="#FFB50D"></path>
  </symbol>
	<symbol fill="none" xmlns="http://www.w3.org/2000/svg" viewBox="0 0 8 12" id="slider-angle">
    <path d="M6.2002 5.99995L6.9073 5.29284L7.61441 5.99995L6.9073 6.70706L6.2002 5.99995ZM2.1073 0.492844L6.9073 5.29284L5.49309 6.70706L0.693089 1.90706L2.1073 0.492844ZM6.9073 6.70706L2.1073 11.5071L0.693089 10.0928L5.49309 5.29284L6.9073 6.70706Z" fill="white"></path>
  </symbol>
	<symbol fill="none" xmlns="http://www.w3.org/2000/svg" viewBox="0 0 61 56" id="glasses">
    <path d="M35.0022 42.5046C35.0022 49.2821 40.5464 54.7785 47.3844 54.7785C54.2248 54.7785 59.7677 49.2821 59.7677 42.5046C59.7677 35.7246 54.2248 30.2306 47.3844 30.2306C40.5464 30.2306 35.0022 35.7246 35.0022 42.5046Z" fill="#CDE2F2"></path>
    <path d="M1.23242 42.5046C1.23242 49.2821 6.77606 54.7785 13.6152 54.7785C20.4538 54.7785 25.9986 49.2821 25.9986 42.5046C25.9986 35.7246 20.4538 30.2306 13.6152 30.2306C6.77606 30.2306 1.23242 35.7246 1.23242 42.5046Z" fill="#CDE2F2"></path>
    <path d="M56.3896 0V2.44288C57.5727 2.44288 58.5353 3.39711 58.5353 4.56966V34.7835C56.0707 31.2981 51.9959 29.0091 47.3843 29.0091C41.9279 29.0091 37.2224 32.2154 35.0538 36.8209H25.9474C23.7776 32.2154 19.0727 29.0091 13.6151 29.0091C9.00414 29.0091 4.9287 31.2981 2.46465 34.7835V4.56966C2.46465 3.39711 3.4268 2.44288 4.60918 2.44288V0C2.0675 0 0 2.05044 0 4.56966V42.5046C0 49.9465 6.10746 56 13.6151 56C21.1228 56 27.2309 49.9465 27.2309 42.5046C27.2309 41.3857 27.0774 40.3039 26.8175 39.2638H34.1825C33.9226 40.3039 33.7698 41.3857 33.7698 42.5046C33.7698 49.9465 39.8772 56 47.3843 56C54.8926 56 61 49.9465 61 42.5046V4.56966C61 2.05044 58.9325 0 56.3896 0ZM13.6151 53.5572C7.46676 53.5572 2.46465 48.5987 2.46465 42.5046C2.46465 36.4105 7.46676 31.452 13.6151 31.452C19.7641 31.452 24.7662 36.4105 24.7662 42.5046C24.7662 48.5987 19.7641 53.5572 13.6151 53.5572ZM47.3843 53.5572C41.2371 53.5572 36.2344 48.5987 36.2344 42.5046C36.2344 36.4105 41.2371 31.452 47.3843 31.452C53.5339 31.452 58.5353 36.4105 58.5353 42.5046C58.5353 48.5987 53.5339 53.5572 47.3843 53.5572Z" fill="#4F4F4F"></path>
    <path d="M47.3843 34.5891V37.032C50.4302 37.032 52.9081 39.4868 52.9081 42.5046H55.3727C55.3727 38.1401 51.7889 34.5891 47.3843 34.5891Z" fill="#4F4F4F"></path>
    <path d="M13.6152 34.5891V37.032C16.6593 37.032 19.1354 39.4868 19.1354 42.5046H21.6001C21.6001 38.1401 18.018 34.5891 13.6152 34.5891Z" fill="#4F4F4F"></path>
  </symbol>
</svg>