<svg width="49" height="34" viewBox="0 0 49 34" fill="none" xmlns="http://www.w3.org/2000/svg">
<path d="M9.9108 26.044C3.45354 22.1638 0.5 16.9999 0.5 16.9999C0.5 16.9999 7.88386 4.07574 24.4951 4.07574C26.8985 4.07574 29.1088 4.25913 31.1358 4.8093L29.6589 6.28607C27.9988 6.10268 26.3386 5.91929 24.495 5.91929C9.72731 5.91929 2.71023 16.9999 2.71023 16.9999C2.71023 16.9999 5.48039 21.4302 11.2041 24.7505L9.9108 26.044ZM17.1113 16.9999C17.1113 17.5501 17.1113 18.1099 17.2947 18.6601L18.9548 16.9999C18.9548 15.5231 19.505 14.2298 20.615 13.1198C21.725 12.0098 23.2017 11.4596 24.4951 11.4596L26.1554 9.79944C25.6051 9.61605 25.0454 9.61605 24.4951 9.61605C20.4316 9.61605 17.1113 12.9364 17.1113 16.9999ZM39.0794 7.95589L37.7862 9.24927C43.5098 12.5696 46.28 16.9999 46.28 16.9999C46.28 16.9999 39.2628 28.0805 24.4951 28.0805C22.6516 28.0805 20.9914 27.8972 19.3313 27.7137L17.8545 29.1905C19.8814 29.7407 22.1014 29.9242 24.5048 29.9242C41.1161 29.9242 48.5 17 48.5 17C48.5 17 45.5367 11.836 39.0794 7.95589ZM39.2435 0.427246L7.92247 31.7483L9.74671 33.5726L41.0774 2.24184L39.2435 0.427246ZM28.3754 20.8801C27.2654 21.9901 25.972 22.5403 24.4951 22.5403L22.835 24.2004C23.3851 24.3838 23.945 24.3838 24.4951 24.3838C28.5586 24.3838 31.879 21.0634 31.879 16.9999C31.879 16.4497 31.879 15.8899 31.6956 15.3397L30.0354 16.9999C30.0354 18.4767 29.4755 19.7702 28.3754 20.8801Z" fill="#FFB50D"/>
</svg>
