<svg width="32" height="41" viewBox="0 0 32 41" fill="none" xmlns="http://www.w3.org/2000/svg">
<path d="M7.28961 9.84033C5.94935 11.8535 5.14519 14.2167 5.14519 16.755L1.03505 24.1948C0.945702 24.2823 1.03505 24.4574 1.21375 24.4574L4.87714 24.5449V33.0351C4.87714 33.7353 5.50259 34.348 6.2174 34.348H16.046" stroke="#FFB50D" stroke-width="1.4" stroke-miterlimit="10"/>
<path d="M26.6797 40.9999V25.5076C29.0028 23.2319 30.4324 20.1684 30.4324 16.7549C30.4324 14.3041 29.7176 12.0284 28.4667 10.1028" stroke="#FFB50D" stroke-width="1.4" stroke-miterlimit="10"/>
<path d="M12.8301 34.9607V41.0001" stroke="#FFB50D" stroke-width="1.4" stroke-miterlimit="10"/>
<path d="M23.016 24.2823H12.4726L11.7578 22.7943V18.418H23.7308V22.7943L23.016 24.2823Z" stroke="#FFB50D" stroke-width="1.4" stroke-miterlimit="10"/>
<path d="M19.4417 24.8074V26.4704C19.4417 26.5579 19.3524 26.733 19.1737 26.733H16.2251C16.1357 26.733 15.957 26.6454 15.957 26.4704V24.8074" stroke="#FFB50D" stroke-width="1.4" stroke-miterlimit="10"/>
<path d="M26.2325 9.3151C26.2325 4.76368 22.4798 1 17.7442 1C13.0086 1 9.25586 4.67615 9.25586 9.3151C9.25586 12.2035 10.7748 14.8293 13.0979 16.3173V18.4179H22.3011V16.3173C24.7136 14.8293 26.2325 12.291 26.2325 9.3151Z" stroke="#FFB50D" stroke-width="1.4" stroke-miterlimit="10"/>
<path d="M11.7578 21.3062H16.9402" stroke="#FFB50D" stroke-width="1.4" stroke-miterlimit="10"/>
<path d="M13.3652 8.35229H14.9736" stroke="#FFB50D" stroke-width="1.4" stroke-miterlimit="10" stroke-dasharray="1.99 1.99"/>
<path d="M17.0293 8.35229H18.5483" stroke="#FFB50D" stroke-width="1.4" stroke-miterlimit="10" stroke-dasharray="1.99 1.99"/>
<path d="M20.6035 8.35229H22.2118" stroke="#FFB50D" stroke-width="1.4" stroke-miterlimit="10" stroke-dasharray="1.99 1.99"/>
</svg>
