<svg width="49" height="48" viewBox="0 0 49 48" fill="none" xmlns="http://www.w3.org/2000/svg">
<g clip-path="url(#clip0_774_194)">
<path d="M10.1947 13.6429C12.3297 13.6429 14.7627 10.4859 14.7627 7.71688C14.8032 7.0981 14.7142 6.47766 14.5015 5.8952C14.2887 5.31275 13.9567 4.78107 13.5268 4.33416C13.097 3.88724 12.5786 3.5349 12.0048 3.29964C11.4311 3.06439 10.8146 2.9514 10.1947 2.96788C9.57481 2.95155 8.95837 3.06465 8.38468 3.29996C7.811 3.53526 7.29269 3.88761 6.86283 4.33449C6.43298 4.78138 6.10103 5.31299 5.88818 5.89537C5.67534 6.47776 5.58627 7.09814 5.62666 7.71688C5.62666 10.4859 8.06066 13.6429 10.1947 13.6429ZM10.1947 4.46788C10.6178 4.45087 11.0396 4.52474 11.4318 4.68453C11.8239 4.84432 12.1773 5.08631 12.468 5.3942C12.7588 5.70209 12.9801 6.06872 13.1172 6.46938C13.2543 6.87004 13.3039 7.29543 13.2627 7.71688C13.2627 9.86688 11.2627 12.1429 10.1947 12.1429C9.12666 12.1429 7.12666 9.86688 7.12666 7.71688C7.08545 7.29543 7.13505 6.87004 7.27212 6.46938C7.40919 6.06872 7.63055 5.70209 7.92129 5.3942C8.21202 5.08631 8.56537 4.84432 8.95753 4.68453C9.34969 4.52474 9.77154 4.45087 10.1947 4.46788Z" fill="#FFB50D"/>
<path d="M10.1992 29.5459C10.0003 29.5459 9.80954 29.6249 9.66889 29.7656C9.52824 29.9062 9.44922 30.097 9.44922 30.2959V42.5289C9.44922 42.7278 9.52824 42.9186 9.66889 43.0592C9.80954 43.1999 10.0003 43.2789 10.1992 43.2789C10.3981 43.2789 10.5889 43.1999 10.7295 43.0592C10.8702 42.9186 10.9492 42.7278 10.9492 42.5289V30.2999C10.9497 30.2011 10.9307 30.1031 10.8933 30.0117C10.8558 29.9202 10.8007 29.837 10.731 29.767C10.6613 29.6969 10.5784 29.6413 10.4872 29.6034C10.3959 29.5654 10.298 29.5459 10.1992 29.5459Z" fill="#FFB50D"/>
<path d="M18.367 31.1659C18.8293 30.9213 19.216 30.5553 19.4856 30.1072C19.7553 29.6591 19.8975 29.1459 19.897 28.6229V16.5069C19.8973 16.3637 19.8565 16.2233 19.7794 16.1026C19.7023 15.9819 19.5921 15.8859 19.462 15.8259L13.709 13.1719C13.6059 13.1239 13.4932 13.1 13.3795 13.1023C13.2658 13.1046 13.1541 13.1328 13.053 13.1849L10.194 14.6479L7.346 13.1859C7.24484 13.133 7.1328 13.1042 7.01864 13.1017C6.90449 13.0993 6.79133 13.1233 6.688 13.1719L0.936002 15.8259C0.805786 15.8858 0.695491 15.9818 0.618208 16.1025C0.540925 16.2232 0.4999 16.3636 0.500002 16.5069V28.6229C0.499392 29.1456 0.641465 29.6586 0.910905 30.1066C1.18035 30.5545 1.56693 30.9205 2.029 31.1649L4.021 32.2219C4.06815 32.2394 4.11713 32.2515 4.167 32.2579V42.5289C4.167 42.7278 4.24602 42.9186 4.38667 43.0592C4.52732 43.1999 4.71809 43.2789 4.917 43.2789C5.11591 43.2789 5.30668 43.1999 5.44733 43.0592C5.58798 42.9186 5.667 42.7278 5.667 42.5289V20.0299C5.667 19.831 5.58798 19.6402 5.44733 19.4996C5.30668 19.3589 5.11591 19.2799 4.917 19.2799C4.71809 19.2799 4.52732 19.3589 4.38667 19.4996C4.24602 19.6402 4.167 19.831 4.167 20.0299V30.5999L2.732 29.8389C2.51101 29.7219 2.32609 29.5468 2.19712 29.3326C2.06815 29.1183 2 28.873 2 28.6229V16.9859L6.681 14.8269L9.536 20.0369C9.60081 20.1547 9.69606 20.253 9.81181 20.3214C9.92755 20.3898 10.0595 20.4259 10.194 20.4259C10.3285 20.4259 10.4605 20.3898 10.5762 20.3214C10.6919 20.253 10.7872 20.1547 10.852 20.0369L13.715 14.8249L18.397 16.9849V28.6229C18.3972 28.8734 18.329 29.1192 18.1998 29.3338C18.0707 29.5484 17.8854 29.7238 17.664 29.8409L16.229 30.6019V20.0299C16.229 19.831 16.15 19.6402 16.0093 19.4996C15.8687 19.3589 15.6779 19.2799 15.479 19.2799C15.2801 19.2799 15.0893 19.3589 14.9487 19.4996C14.808 19.6402 14.729 19.831 14.729 20.0299V42.5299C14.729 42.7288 14.808 42.9196 14.9487 43.0602C15.0893 43.2009 15.2801 43.2799 15.479 43.2799C15.6779 43.2799 15.8687 43.2009 16.0093 43.0602C16.15 42.9196 16.229 42.7288 16.229 42.5299V32.2649C16.2798 32.2561 16.3294 32.2416 16.377 32.2219L18.367 31.1659ZM10.2 18.1169L8.841 15.6369L9.857 16.1579C9.9627 16.2126 10.08 16.2412 10.199 16.2412C10.318 16.2412 10.4353 16.2126 10.541 16.1579L11.564 15.6339L10.2 18.1169Z" fill="#FFB50D"/>
<path d="M38.7995 13.643C40.9345 13.643 43.3675 10.486 43.3675 7.71705C43.3898 7.10324 43.2881 6.49125 43.0685 5.91761C42.849 5.34398 42.5161 4.82047 42.0897 4.37837C41.6634 3.93626 41.1522 3.58461 40.5869 3.34443C40.0216 3.10425 39.4137 2.98047 38.7995 2.98047C38.1853 2.98047 37.5774 3.10425 37.0121 3.34443C36.4468 3.58461 35.9357 3.93626 35.5093 4.37837C35.0829 4.82047 34.75 5.34398 34.5305 5.91761C34.311 6.49125 34.2093 7.10324 34.2315 7.71705C34.2285 10.486 36.6615 13.643 38.7995 13.643ZM38.7995 4.46805C39.2226 4.45103 39.6445 4.52491 40.0366 4.6847C40.4288 4.84449 40.7822 5.08648 41.0729 5.39437C41.3636 5.70225 41.585 6.06888 41.7221 6.46954C41.8591 6.87021 41.9087 7.2956 41.8675 7.71705C41.8675 9.86705 39.8675 12.143 38.7995 12.143C37.7315 12.143 35.7315 9.86705 35.7315 7.71705C35.6903 7.2956 35.7399 6.87021 35.877 6.46954C36.014 6.06888 36.2354 5.70225 36.5261 5.39437C36.8169 5.08648 37.1702 4.84449 37.5624 4.6847C37.9545 4.52491 38.3764 4.45103 38.7995 4.46805Z" fill="#FFB50D"/>
<path d="M38.8008 29.5459C38.6019 29.5459 38.4111 29.6249 38.2705 29.7656C38.1298 29.9062 38.0508 30.097 38.0508 30.2959V42.5289C38.0508 42.7278 38.1298 42.9186 38.2705 43.0592C38.4111 43.1999 38.6019 43.2789 38.8008 43.2789C38.9997 43.2789 39.1905 43.1999 39.3311 43.0592C39.4718 42.9186 39.5508 42.7278 39.5508 42.5289V30.2999C39.5513 30.2011 39.5323 30.1031 39.4948 30.0117C39.4574 29.9202 39.4022 29.837 39.3325 29.767C39.2628 29.6969 39.18 29.6413 39.0887 29.6034C38.9975 29.5654 38.8996 29.5459 38.8008 29.5459Z" fill="#FFB50D"/>
<path d="M48.0635 15.826L42.3115 13.172C42.2082 13.1239 42.0953 13.1001 41.9815 13.1024C41.8676 13.1046 41.7557 13.1329 41.6545 13.185L38.7995 14.648L35.9505 13.186C35.8495 13.133 35.7376 13.1042 35.6236 13.1017C35.5096 13.0993 35.3966 13.1234 35.2935 13.172L29.5405 15.826C29.4104 15.886 29.3002 15.982 29.2231 16.1027C29.146 16.2234 29.1052 16.3638 29.1055 16.507V28.623C29.1048 29.1459 29.247 29.659 29.5167 30.107C29.7863 30.5549 30.1731 30.9208 30.6355 31.165L32.6255 32.222C32.6732 32.2416 32.7228 32.2564 32.7735 32.266V42.529C32.7735 42.7279 32.8525 42.9187 32.9931 43.0593C33.1338 43.2 33.3246 43.279 33.5235 43.279C33.7224 43.279 33.9131 43.2 34.0538 43.0593C34.1945 42.9187 34.2735 42.7279 34.2735 42.529V20.03C34.2735 19.8311 34.1945 19.6403 34.0538 19.4997C33.9131 19.359 33.7224 19.28 33.5235 19.28C33.3246 19.28 33.1338 19.359 32.9931 19.4997C32.8525 19.6403 32.7735 19.8311 32.7735 20.03V30.6L31.3385 29.838C31.117 29.7212 30.9317 29.5461 30.8025 29.3316C30.6733 29.1171 30.6052 28.8714 30.6055 28.621V16.986L35.2865 14.827L38.1415 20.037C38.2061 20.1548 38.3013 20.2531 38.4169 20.3216C38.5326 20.3901 38.6646 20.4262 38.799 20.4262C38.9334 20.4262 39.0653 20.3901 39.181 20.3216C39.2967 20.2531 39.3918 20.1548 39.4565 20.037L42.3205 14.826L46.9995 16.986V28.623C46.9998 28.8734 46.9319 29.1192 46.8029 29.3338C46.6739 29.5484 46.4888 29.7238 46.2675 29.841L44.8325 30.602V20.03C44.8325 19.8311 44.7535 19.6403 44.6128 19.4997C44.4721 19.359 44.2814 19.28 44.0825 19.28C43.8836 19.28 43.6928 19.359 43.5521 19.4997C43.4115 19.6403 43.3325 19.8311 43.3325 20.03V42.53C43.3325 42.7289 43.4115 42.9197 43.5521 43.0603C43.6928 43.201 43.8836 43.28 44.0825 43.28C44.2814 43.28 44.4721 43.201 44.6128 43.0603C44.7535 42.9197 44.8325 42.7289 44.8325 42.53V32.258C44.8823 32.2516 44.9313 32.2395 44.9785 32.222L46.9705 31.165C47.4325 30.9206 47.8191 30.5546 48.0886 30.1067C48.358 29.6587 48.5001 29.1458 48.4995 28.623V16.507C48.4996 16.3637 48.4585 16.2233 48.3813 16.1026C48.304 15.9819 48.1937 15.8859 48.0635 15.826ZM38.7995 18.117L37.4405 15.637L38.4555 16.158C38.5613 16.2127 38.6788 16.2413 38.798 16.2413C38.9171 16.2413 39.0346 16.2127 39.1405 16.158L40.1635 15.634L38.7995 18.117Z" fill="#FFB50D"/>
<path d="M29.6928 40.2451C29.6236 40.1735 29.5408 40.1164 29.4493 40.0771C29.3577 40.0378 29.2593 40.0172 29.1597 40.0164C29.0601 40.0156 28.9614 40.0346 28.8692 40.0723C28.7771 40.1101 28.6934 40.1658 28.623 40.2363C28.5526 40.3067 28.4969 40.3905 28.4593 40.4827C28.4216 40.5749 28.4027 40.6736 28.4036 40.7732C28.4045 40.8728 28.4252 40.9712 28.4646 41.0627C28.5039 41.1542 28.5611 41.2369 28.6328 41.3061L29.1058 41.7791H19.9008L20.3738 41.3061C20.4454 41.2369 20.5026 41.1542 20.542 41.0627C20.5813 40.9712 20.6021 40.8728 20.603 40.7732C20.6039 40.6736 20.5849 40.5749 20.5473 40.4827C20.5096 40.3905 20.454 40.3067 20.3836 40.2363C20.3132 40.1658 20.2295 40.1101 20.1373 40.0723C20.0452 40.0346 19.9464 40.0156 19.8468 40.0164C19.7472 40.0172 19.6488 40.0378 19.5573 40.0771C19.4658 40.1164 19.383 40.1735 19.3138 40.2451L17.5558 42.0001C17.4861 42.0697 17.4308 42.1524 17.3931 42.2434C17.3554 42.3345 17.3359 42.432 17.3359 42.5306C17.3359 42.6291 17.3554 42.7267 17.3931 42.8177C17.4308 42.9087 17.4861 42.9914 17.5558 43.0611L19.3088 44.8131C19.451 44.9455 19.639 45.0177 19.8333 45.0142C20.0276 45.0108 20.213 44.9321 20.3504 44.7947C20.4878 44.6573 20.5665 44.4719 20.57 44.2776C20.5734 44.0833 20.5013 43.8952 20.3688 43.7531L19.8968 43.2801H29.1008L28.6288 43.7531C28.5551 43.8217 28.496 43.9045 28.455 43.9965C28.414 44.0885 28.392 44.1878 28.3902 44.2885C28.3884 44.3892 28.4069 44.4893 28.4447 44.5827C28.4824 44.6761 28.5385 44.7609 28.6097 44.8321C28.681 44.9033 28.7658 44.9595 28.8592 44.9972C28.9526 45.0349 29.0526 45.0534 29.1533 45.0517C29.254 45.0499 29.3533 45.0278 29.4453 44.9868C29.5373 44.9459 29.6201 44.8868 29.6888 44.8131L31.4418 43.0611C31.5115 42.9914 31.5668 42.9087 31.6045 42.8177C31.6422 42.7267 31.6616 42.6291 31.6616 42.5306C31.6616 42.432 31.6422 42.3345 31.6045 42.2434C31.5668 42.1524 31.5115 42.0697 31.4418 42.0001L29.6928 40.2451Z" fill="#FFB50D"/>
</g>
<defs>
<clipPath id="clip0_774_194">
<rect width="48" height="48" fill="white" transform="translate(0.5)"/>
</clipPath>
</defs>
</svg>
