<svg width="116" height="50" viewBox="0 0 116 50" fill="none" xmlns="http://www.w3.org/2000/svg">
<path d="M41.0816 33.4985C41.0816 40.0751 35.1897 44.1938 28.6506 44.1938C20.8141 44.1938 17.2964 40.0021 16.0745 35.6644C15.9294 35.0806 16.002 34.6515 16.655 34.4355L20.3904 33.0636C21.1798 32.7016 21.7545 32.9906 21.9722 33.7145C22.9068 36.3154 24.7033 38.0522 28.4387 38.0522C31.7446 38.0522 33.9707 36.2453 33.9707 33.4255V33.2095C33.9707 29.9577 31.8142 28.1509 28.4387 28.1509H25.7018C25.6339 28.1588 25.5652 28.1512 25.5006 28.1286C25.4361 28.1061 25.3775 28.0691 25.3292 28.0205C25.2809 27.972 25.2442 27.913 25.2217 27.8481C25.1993 27.7833 25.1917 27.7141 25.1997 27.6459V23.0192C25.1997 22.7273 25.2722 22.4354 25.7018 22.4354H28.4416C31.6749 22.4354 33.6166 20.7745 33.6166 18.2437V17.7445C33.6166 15.6487 32.2525 13.6258 28.5867 13.6258C25.1387 13.6258 23.5569 14.8547 22.4917 17.5285C22.4512 17.6404 22.3884 17.7428 22.3071 17.8294C22.2259 17.916 22.128 17.9851 22.0193 18.0323C21.9106 18.0796 21.7935 18.1041 21.6752 18.1043C21.5568 18.1045 21.4396 18.0804 21.3308 18.0335L17.3051 16.6616C16.8727 16.5156 16.6579 16.1566 16.8727 15.5786C18.5125 10.158 23.0403 7.55713 28.7319 7.55713C36.4929 7.55713 40.6607 11.3869 40.6607 17.3154V17.8204C40.6607 21.5772 38.4317 24.324 35.4857 25.2639C38.5042 26.1397 41.0903 28.7317 41.0903 32.8534V33.4985H41.0816Z" fill="#19193C"/>
<path d="M70.9762 32.5586C70.9762 39.0622 66.0886 44.1938 58.4727 44.1938C49.7655 44.1938 45.3945 39.1351 45.3945 31.6187V20.3454C45.3945 13.1908 50.137 7.5542 58.4727 7.5542C66.5211 7.5542 68.8923 12.3239 69.8269 14.7087C70.0417 15.3597 69.6121 15.6487 69.1071 15.8763L64.7216 17.3826C64.2195 17.5986 63.9321 17.3096 63.5606 16.5886C62.9134 14.9277 61.3316 13.6987 58.5308 13.6987C54.6503 13.6987 52.3516 15.8676 52.3516 20.4913V22.2982L52.4241 22.3712C54.0756 20.8533 56.1595 19.7703 59.6105 19.7703C66.4369 19.7703 70.9646 24.1781 70.9646 31.4056V32.5732L70.9762 32.5586ZM64.0772 31.6829C64.0772 27.9261 61.9208 25.3953 58.4002 25.3953C54.6648 25.3953 52.3632 27.8531 52.3632 31.6829V32.0448C52.3632 35.5856 54.4471 38.0434 58.4727 38.0434C61.9933 38.0434 64.0772 35.5126 64.0772 32.0448V31.6829Z" fill="#19193C"/>
<path d="M101.002 31.6916C101.002 39.2081 97.6235 44.1237 88.1385 44.1237C78.726 44.1237 75.3477 39.2081 75.3477 31.6216V19.9834C75.3477 12.4669 78.726 7.55127 88.1385 7.55127C97.6351 7.55127 101.002 12.4669 101.002 19.9834V31.6916ZM94.0362 20.8504C94.0362 16.2967 93.1655 13.6958 88.1443 13.6958C83.9039 13.6958 82.2525 16.2967 82.2525 20.8504V30.8247C82.2525 35.3783 83.9039 38.0522 88.1443 38.0522C93.1742 38.0522 94.0362 35.3783 94.0362 30.8976V20.8504Z" fill="#19193C"/>
<path d="M6.04214 34.9845C8.53529 46.9963 40.2323 50.4992 76.8431 42.8017C91.9008 39.6404 105.446 35.0779 115.999 29.958C104.889 36.4353 89.1203 42.2967 71.1806 46.0652C34.5698 53.7626 2.77694 49.8161 0.170593 37.2614C-2.43576 24.7066 25.1312 8.29587 61.7391 0.607157C62.7472 0.396988 63.7495 0.194602 64.746 0C29.6734 7.91056 3.61864 23.3172 6.04214 34.9845Z" fill="#FF0000"/>
<path d="M17.2968 16.6586L21.3224 18.0306C21.4312 18.0775 21.5484 18.1015 21.6668 18.1013C21.7852 18.1011 21.9023 18.0767 22.0109 18.0294C22.1196 17.9821 22.2175 17.9131 22.2988 17.8264C22.38 17.7398 22.4428 17.6374 22.4834 17.5256C23.5601 14.8518 25.1419 13.6228 28.5784 13.6228C30.4678 13.6228 31.7449 14.1599 32.5402 14.9685C34.36 13.509 36.2784 12.1429 37.8486 10.4294C35.8373 8.59336 32.7694 7.55127 28.7235 7.55127C23.0464 7.55127 18.5187 10.1521 16.8672 15.5728C16.6495 16.1536 16.8643 16.5127 17.2968 16.6586Z" fill="#19193C"/>
</svg>
