<svg width="116" height="50" viewBox="0 0 116 50" fill="none" xmlns="http://www.w3.org/2000/svg">
<path d="M41.0855 33.4985C41.0855 40.0751 35.1936 44.1938 28.6545 44.1938C20.818 44.1938 17.3003 40.0021 16.0784 35.6644C15.9333 35.0806 16.0059 34.6515 16.6589 34.4355L20.3943 33.0636C21.1837 32.7016 21.7584 32.9906 21.9761 33.7145C22.9107 36.3154 24.7072 38.0522 28.4426 38.0522C31.7485 38.0522 33.9746 36.2453 33.9746 33.4255V33.2095C33.9746 29.9577 31.8181 28.1509 28.4426 28.1509H25.7057C25.6378 28.1588 25.5691 28.1512 25.5046 28.1286C25.44 28.1061 25.3814 28.0691 25.3331 28.0205C25.2848 27.972 25.2481 27.913 25.2256 27.8481C25.2032 27.7833 25.1957 27.7141 25.2036 27.6459V23.0192C25.2036 22.7273 25.2761 22.4354 25.7057 22.4354H28.4455C31.6788 22.4354 33.6205 20.7745 33.6205 18.2437V17.7445C33.6205 15.6487 32.2564 13.6258 28.5907 13.6258C25.1426 13.6258 23.5608 14.8547 22.4956 17.5285C22.4551 17.6404 22.3923 17.7428 22.311 17.8294C22.2298 17.916 22.1319 17.9851 22.0232 18.0323C21.9146 18.0796 21.7975 18.1041 21.6791 18.1043C21.5607 18.1045 21.4435 18.0804 21.3347 18.0335L17.309 16.6616C16.8766 16.5156 16.6618 16.1566 16.8766 15.5786C18.5164 10.158 23.0442 7.55713 28.7358 7.55713C36.4968 7.55713 40.6646 11.3869 40.6646 17.3154V17.8204C40.6646 21.5772 38.4356 24.324 35.4896 25.2639C38.5081 26.1397 41.0942 28.7317 41.0942 32.8534V33.4985H41.0855Z" fill="white"/>
<path d="M70.9801 32.5586C70.9801 39.0622 66.0925 44.1938 58.4766 44.1938C49.7694 44.1938 45.3984 39.1351 45.3984 31.6187V20.3454C45.3984 13.1908 50.1409 7.5542 58.4766 7.5542C66.525 7.5542 68.8962 12.3239 69.8308 14.7087C70.0456 15.3597 69.616 15.6487 69.111 15.8763L64.7255 17.3826C64.2234 17.5986 63.936 17.3096 63.5645 16.5886C62.9173 14.9277 61.3355 13.6987 58.5347 13.6987C54.6542 13.6987 52.3555 15.8676 52.3555 20.4913V22.2982L52.428 22.3712C54.0795 20.8533 56.1634 19.7703 59.6144 19.7703C66.4408 19.7703 70.9685 24.1781 70.9685 31.4056V32.5732L70.9801 32.5586ZM64.0811 31.6829C64.0811 27.9261 61.9247 25.3953 58.4041 25.3953C54.6687 25.3953 52.3671 27.8531 52.3671 31.6829V32.0448C52.3671 35.5856 54.451 38.0434 58.4766 38.0434C61.9972 38.0434 64.0811 35.5126 64.0811 32.0448V31.6829Z" fill="white"/>
<path d="M100.998 31.6916C100.998 39.2081 97.6196 44.1237 88.1346 44.1237C78.7221 44.1237 75.3438 39.2081 75.3438 31.6216V19.9834C75.3438 12.4669 78.7221 7.55127 88.1346 7.55127C97.6312 7.55127 100.998 12.4669 100.998 19.9834V31.6916ZM94.0323 20.8504C94.0323 16.2967 93.1616 13.6958 88.1404 13.6958C83.9 13.6958 82.2485 16.2967 82.2485 20.8504V30.8247C82.2485 35.3783 83.9 38.0522 88.1404 38.0522C93.1703 38.0522 94.0323 35.3783 94.0323 30.8976V20.8504Z" fill="white"/>
<path d="M6.04214 34.9845C8.53529 46.9963 40.2323 50.4992 76.8431 42.8017C91.9008 39.6404 105.446 35.0779 115.999 29.958C104.889 36.4353 89.1203 42.2967 71.1806 46.0652C34.5698 53.7626 2.77694 49.8161 0.170593 37.2614C-2.43576 24.7066 25.1312 8.29587 61.7391 0.607157C62.7472 0.396988 63.7495 0.194602 64.746 0C29.6734 7.91056 3.61864 23.3172 6.04214 34.9845Z" fill="#FF0000"/>
<path d="M17.2968 16.6586L21.3224 18.0306C21.4312 18.0775 21.5484 18.1015 21.6668 18.1013C21.7852 18.1011 21.9023 18.0767 22.0109 18.0294C22.1196 17.9821 22.2175 17.9131 22.2988 17.8264C22.38 17.7398 22.4428 17.6374 22.4834 17.5256C23.5601 14.8518 25.1419 13.6228 28.5784 13.6228C30.4678 13.6228 31.7449 14.1599 32.5402 14.9685C34.36 13.509 36.2784 12.1429 37.8486 10.4294C35.8373 8.59336 32.7694 7.55127 28.7235 7.55127C23.0464 7.55127 18.5187 10.1521 16.8672 15.5728C16.6495 16.1536 16.8643 16.5127 17.2968 16.6586Z" fill="white"/>
</svg>
