<svg width="96" height="42" viewBox="0 0 96 42" fill="none" xmlns="http://www.w3.org/2000/svg">
<path d="M34.1736 27.8757C34.1736 33.258 29.3517 36.6288 24 36.6288C17.5866 36.6288 14.7077 33.1982 13.7076 29.6483C13.5889 29.1705 13.6483 28.8193 14.1827 28.6425L17.2398 27.5197C17.8859 27.2235 18.3562 27.46 18.5343 28.0524C19.2992 30.181 20.7695 31.6024 23.8266 31.6024C26.5321 31.6024 28.354 30.1237 28.354 27.8159V27.6391C28.354 24.9779 26.5891 23.4991 23.8266 23.4991H21.5867C21.5311 23.5056 21.4749 23.4994 21.4221 23.4809C21.3693 23.4624 21.3213 23.4322 21.2818 23.3924C21.2422 23.3527 21.2122 23.3044 21.1938 23.2513C21.1754 23.1982 21.1693 23.1416 21.1757 23.0858V19.2993C21.1757 19.0604 21.2351 18.8215 21.5867 18.8215H23.829C26.4751 18.8215 28.0642 17.4622 28.0642 15.391V14.9825C28.0642 13.2672 26.9478 11.6117 23.9478 11.6117C21.1258 11.6117 19.8313 12.6174 18.9595 14.8057C18.9263 14.8972 18.8749 14.981 18.8085 15.0519C18.742 15.1228 18.6618 15.1793 18.5729 15.218C18.484 15.2567 18.3881 15.2767 18.2913 15.2769C18.1944 15.2771 18.0985 15.2574 18.0094 15.219L14.7148 14.0962C14.3609 13.9767 14.1851 13.6829 14.3609 13.2099C15.7029 8.77358 19.4085 6.64502 24.0665 6.64502C30.4182 6.64502 33.8292 9.77933 33.8292 14.6313V15.0446C33.8292 18.1192 32.0049 20.3672 29.5939 21.1364C32.0643 21.8531 34.1807 23.9745 34.1807 27.3477V27.8757H34.1736Z" fill="white"/>
<path d="M58.6394 27.1064C58.6394 32.429 54.6393 36.6288 48.4064 36.6288C41.2804 36.6288 37.7031 32.4887 37.7031 26.3372V17.111C37.7031 11.2557 41.5844 6.64264 48.4064 6.64264C54.9932 6.64264 56.9339 10.5462 57.6988 12.498C57.8745 13.0307 57.523 13.2672 57.1097 13.4535L53.5205 14.6862C53.1096 14.863 52.8744 14.6265 52.5704 14.0365C52.0407 12.6771 50.7461 11.6714 48.4539 11.6714C45.2781 11.6714 43.3968 13.4464 43.3968 17.2305V18.7092L43.4562 18.769C44.8078 17.5267 46.5133 16.6404 49.3376 16.6404C54.9244 16.6404 58.6299 20.2477 58.6299 26.1628V27.1184L58.6394 27.1064ZM52.9932 26.3897C52.9932 23.3152 51.2283 21.2439 48.347 21.2439C45.29 21.2439 43.4063 23.2554 43.4063 26.3897V26.686C43.4063 29.5838 45.1118 31.5953 48.4064 31.5953C51.2877 31.5953 52.9932 29.524 52.9932 26.686V26.3897Z" fill="white"/>
<path d="M83.2144 26.3968C83.2144 32.5484 80.4495 36.5714 72.6869 36.5714C64.9837 36.5714 62.2188 32.5484 62.2188 26.3395V16.8148C62.2188 10.6632 64.9837 6.6402 72.6869 6.6402C80.459 6.6402 83.2144 10.6632 83.2144 16.8148V26.3968ZM77.5136 17.5243C77.5136 13.7975 76.801 11.6689 72.6916 11.6689C69.2213 11.6689 67.8697 13.7975 67.8697 17.5243V25.6873C67.8697 29.4141 69.2213 31.6024 72.6916 31.6024C76.8081 31.6024 77.5136 29.4141 77.5136 25.7471V17.5243Z" fill="white"/>
<path d="M5.49962 29.0918C7.54004 38.9224 33.4812 41.7891 63.4437 35.4894C75.767 32.9022 86.8527 29.1683 95.4895 24.978C86.3967 30.2791 73.4914 35.0762 58.8094 38.1603C28.8469 44.46 2.82736 41.2301 0.694303 30.9552C-1.43875 20.6803 21.1222 7.24961 51.0824 0.957108C51.9075 0.785103 52.7278 0.619469 53.5433 0.460205C24.8397 6.93427 3.51621 19.5432 5.49962 29.0918Z" fill="#FF0000"/>
<path d="M14.711 14.0937L18.0056 15.2165C18.0946 15.2549 18.1905 15.2746 18.2874 15.2745C18.3843 15.2743 18.4802 15.2543 18.5691 15.2156C18.658 15.1769 18.7382 15.1204 18.8046 15.0495C18.8711 14.9786 18.9225 14.8948 18.9557 14.8033C19.837 12.615 21.1315 11.6092 23.9439 11.6092C25.4903 11.6092 26.5354 12.0488 27.1863 12.7105C28.6756 11.5161 30.2457 10.398 31.5308 8.99571C29.8847 7.49305 27.3739 6.6402 24.0627 6.6402C19.4165 6.6402 15.711 8.76876 14.3594 13.205C14.1813 13.6804 14.357 13.9743 14.711 14.0937Z" fill="white"/>
</svg>
