<svg width="119" height="48" viewBox="0 0 119 48" fill="none" xmlns="http://www.w3.org/2000/svg">
<g clip-path="url(#clip0_960_37860)">
<path d="M37.1376 22.8168L36.6827 21.4274H36.6348L36.2 22.77L35.5416 24.7879H37.784L37.1376 22.8168ZM38.7336 27.083C38.6179 27.083 38.55 27.083 38.4982 26.9425L38.0194 25.553H35.2982L34.8154 26.9425C34.805 26.9862 34.7785 27.0246 34.741 27.0505C34.7035 27.0764 34.6576 27.088 34.6119 27.083H33.9696C33.8459 27.083 33.8179 26.9971 33.8459 26.9034L36.0284 20.8341C36.1321 20.5297 36.2199 20.4438 36.5192 20.4438H36.8024C37.1496 20.4438 37.2294 20.5375 37.3251 20.8341L39.4957 26.9034C39.5356 26.9893 39.4957 27.083 39.38 27.083H38.7336Z" fill="white"/>
<path d="M41.0613 26.9036C41.0613 27.0558 41.0134 27.0831 40.8697 27.0831H40.3909C40.2553 27.0831 40.1875 27.0558 40.1875 26.9036V22.0872C40.1875 21.2207 40.5865 20.4634 41.8194 20.4634H44.4049C44.5605 20.4634 44.5884 20.5298 44.5884 20.6625V21.0528C44.5884 21.2051 44.5605 21.2519 44.4049 21.2519H41.8274C41.2967 21.2519 41.0652 21.4704 41.0652 21.9622L41.0613 26.9036Z" fill="white"/>
<path d="M49.7312 27.0831H47.0459C45.7931 27.0831 45.4141 26.3376 45.4141 25.4712V22.091C45.4141 21.2207 45.8689 20.4634 47.0459 20.4634H49.6834C49.827 20.4634 49.8549 20.5298 49.8549 20.6625V21.0528C49.8549 21.1933 49.827 21.2402 49.6834 21.2402H47.0579C46.5273 21.2402 46.2958 21.4666 46.2958 21.9584V23.1878H49.3641C49.5078 23.1878 49.5357 23.2425 49.5357 23.383V23.742C49.5357 23.867 49.5078 23.9333 49.3641 23.9333H46.2958V25.5766C46.2958 25.9981 46.5073 26.283 47.0579 26.283H49.7312C49.8828 26.283 49.9148 26.3416 49.9148 26.482V26.8724C49.9148 27.0051 49.8828 27.0715 49.7312 27.0715" fill="white"/>
<path d="M55.313 20.6349C55.313 20.5022 55.3688 20.4749 55.4965 20.4749H56.0192C56.1509 20.4749 56.2027 20.5022 56.2027 20.6349V26.9229C56.2027 27.0556 56.1509 27.0829 56.0192 27.0829H55.4965C55.3688 27.0829 55.313 27.0556 55.313 26.9229V23.976H51.9055V26.9229C51.9055 27.0556 51.8576 27.0829 51.722 27.0829H51.1914C51.0756 27.0829 51.0078 27.0556 51.0078 26.9229V20.6349C51.0078 20.5022 51.0756 20.4749 51.1914 20.4749H51.722C51.8576 20.4749 51.9055 20.5022 51.9055 20.6349V23.2227H55.313V20.6349Z" fill="white"/>
<path d="M59.0814 21.2399H57.1982C57.0825 21.2399 57.0625 21.2009 57.0625 21.0877V20.6271C57.0625 20.5217 57.0625 20.4749 57.1982 20.4749H61.9343C62.046 20.4749 62.066 20.5217 62.066 20.6271V21.0877C62.066 21.2009 62.046 21.2399 61.9343 21.2399H59.9912V26.9229C59.9912 27.0556 59.9433 27.0829 59.8196 27.0829H59.269C59.1413 27.0829 59.0854 27.0556 59.0854 26.9229L59.0814 21.2399Z" fill="white"/>
<path d="M66.8145 26.0371C66.9578 25.9785 67.0056 26.0566 67.0335 26.1112L67.2171 26.5016C67.2971 26.6499 67.2574 26.6889 67.1693 26.7474C66.5373 27.0606 65.8345 27.2123 65.1268 27.1885C63.3231 27.1885 62.25 26.1581 62.25 23.8747C62.25 21.7476 63.4465 20.3814 65.1944 20.3814C65.8165 20.366 66.4331 20.5 66.9901 20.7717C67.0695 20.8108 67.1054 20.8655 67.0378 20.9864L66.8183 21.4236C66.7786 21.4977 66.7506 21.5368 66.6427 21.49C66.1999 21.2964 65.7198 21.1966 65.2341 21.1972C63.7659 21.1972 63.1593 22.5086 63.1593 23.8786C63.1593 25.2486 63.658 26.3805 65.2819 26.3805C65.8128 26.3743 66.3363 26.2586 66.8183 26.041" fill="white"/>
<path d="M69.8434 21.2399H67.964C67.8443 21.2399 67.8281 21.2009 67.8281 21.0877V20.6271C67.8281 20.5217 67.8281 20.4749 67.964 20.4749H72.7084C72.8238 20.4749 72.8436 20.5217 72.8436 20.6271V21.0877C72.8436 21.2009 72.8238 21.2399 72.7084 21.2399H70.7533V26.9229C70.7533 27.0556 70.7049 27.0829 70.5778 27.0829H70.027C69.9029 27.0829 69.8434 27.0556 69.8434 26.9229V21.2399Z" fill="white"/>
<path d="M76.3726 23.8708H74.577V26.3064H76.3726C77.4817 26.3064 77.749 25.5686 77.749 25.069C77.749 24.3626 77.2702 23.8708 76.3726 23.8708ZM74.577 23.1448H76.3528C76.4936 23.16 76.6356 23.1454 76.7702 23.102C76.9048 23.0587 77.0283 22.9877 77.1325 22.8937C77.236 22.7997 77.3185 22.685 77.3731 22.5573C77.4283 22.4296 77.4544 22.2918 77.45 22.1534C77.4507 22.0268 77.424 21.9014 77.3719 21.7856C77.3192 21.6698 77.2422 21.5663 77.1455 21.4821C77.0487 21.3979 76.9346 21.3348 76.8112 21.2971C76.6871 21.2594 76.5569 21.2479 76.4285 21.2635H74.577V23.1448ZM77.5499 23.4727C77.8929 23.5957 78.1869 23.8241 78.3866 24.1238C78.5864 24.4235 78.6819 24.7783 78.6589 25.1354C78.6589 26.3064 77.7012 27.0869 76.4682 27.0869H74.1781C73.8308 27.0869 73.6875 26.9465 73.6875 26.6147V20.9474C73.6875 20.6156 73.8153 20.4633 74.1781 20.4633H76.3329C77.5096 20.4633 78.3674 20.9356 78.3674 22.0871C78.3711 22.3588 78.2961 22.626 78.1516 22.858C78.007 23.09 77.7986 23.2773 77.5499 23.3985V23.4727Z" fill="white"/>
<path d="M82.2281 21.1385C80.8474 21.1385 80.2333 22.3368 80.2333 23.7419C80.2333 25.3032 80.6961 26.4077 82.2002 26.4077C83.7044 26.4077 84.195 25.1392 84.195 23.781C84.195 22.4226 83.8284 21.1385 82.256 21.1385H82.2281ZM82.2083 27.1806C80.3171 27.1806 79.3594 25.9628 79.3594 23.781C79.3594 21.5991 80.5565 20.3618 82.2281 20.3618C84.1193 20.3618 85.1049 21.6382 85.1049 23.7419C85.1049 25.9433 84.1075 27.1806 82.2083 27.1806Z" fill="white"/>
<path d="M38.4765 35.053C38.66 34.9789 38.7159 35.0257 38.7718 35.1662L39.0989 35.8376C39.1827 36.0132 39.1548 36.0795 39.039 36.1459C38.3684 36.5159 37.606 36.6969 36.8366 36.669C34.7538 36.669 33.8281 35.4083 33.8281 33.3357C33.8281 31.2631 35.069 29.936 36.9004 29.936C37.5481 29.9072 38.1925 30.0416 38.7718 30.3264C38.9154 30.4044 38.9353 30.4513 38.8515 30.6542L38.5523 31.2983C38.4884 31.4661 38.4486 31.5051 38.269 31.4388C37.8545 31.28 37.4135 31.1978 36.9683 31.1967C35.9189 31.1967 35.3723 32.1101 35.3723 33.3279C35.3723 34.5457 35.7713 35.3692 37.0241 35.3692C37.5301 35.3533 38.0284 35.2433 38.4925 35.0453" fill="white"/>
<path d="M44.626 31.2437H42.8983V36.3607C42.8983 36.5207 42.8584 36.5558 42.6669 36.5558H41.6455C41.4938 36.5558 41.426 36.509 41.426 36.3607V31.2437H39.7382C39.6026 31.2437 39.5547 31.1851 39.5547 31.0563V30.225C39.5547 30.0649 39.5946 30.0259 39.7382 30.0259H44.626C44.7776 30.0259 44.8175 30.0649 44.8175 30.225V31.0563C44.8175 31.1851 44.7616 31.2437 44.626 31.2437Z" fill="white"/>
<path d="M48.3338 31.2867H47.093V33.0587H48.3458C48.586 33.0587 48.8164 32.9653 48.9863 32.7992C49.1561 32.633 49.2516 32.4077 49.2516 32.1727C49.2516 31.9377 49.1561 31.7123 48.9863 31.5462C48.8164 31.38 48.586 31.2867 48.3458 31.2867H48.3338ZM47.093 36.3607C47.093 36.5285 47.0571 36.5559 46.8655 36.5559H45.8601C45.7084 36.5559 45.6406 36.509 45.6406 36.3607V30.588C45.6406 30.2445 45.7563 30.0181 46.2152 30.0181H48.5533C49.9378 30.0181 50.7877 30.8768 50.7877 32.0634C50.7877 32.6996 50.5124 34.1945 48.3618 34.1945H47.093V36.3607Z" fill="white"/>
<path d="M52.5801 34.0422H54.0804L53.7133 32.8713L53.3622 31.5365H53.3063L52.9432 32.8713L52.5801 34.0422ZM54.4235 35.2132H52.237L51.8619 36.3841C51.826 36.5051 51.7781 36.5598 51.5946 36.5598H50.4774C50.3458 36.5598 50.3178 36.4661 50.3458 36.3763L52.3407 30.5216C52.4724 30.0923 52.644 30.0182 53.035 30.0103H53.6095C54.0405 30.0103 54.2001 30.065 54.3517 30.5216L56.3467 36.3763C56.3746 36.4505 56.3467 36.5598 56.223 36.5598H55.0858C54.9422 36.5598 54.8504 36.5597 54.8106 36.4114L54.4235 35.2132Z" fill="white"/>
<path d="M61.1688 31.2438H59.4411V36.3607C59.4411 36.5208 59.4052 36.5559 59.2138 36.5559H58.1923C58.0367 36.5559 57.9729 36.509 57.9729 36.3607V31.2438H56.2811C56.1494 31.2438 56.1016 31.1852 56.1016 31.0564V30.225C56.1016 30.065 56.1374 30.026 56.2811 30.026H61.1688C61.3204 30.026 61.3604 30.065 61.3604 30.225V31.0564C61.3604 31.1852 61.3045 31.2438 61.1688 31.2438Z" fill="white"/>
<path d="M66.7801 36.5637H63.9356C62.5233 36.5637 62.1719 35.6972 62.1719 34.8463V31.7472C62.1719 30.8613 62.6386 30.0181 63.9275 30.0181H66.6685C66.8205 30.0181 66.8484 30.065 66.8484 30.2445V31.0251C66.8484 31.1852 66.8124 31.232 66.6685 31.232H64.2426C63.7439 31.232 63.6205 31.4818 63.6205 31.8097V32.5279H66.3615C66.5128 32.5279 66.5407 32.5747 66.5407 32.7542V33.4802C66.5407 33.6324 66.5128 33.6949 66.3615 33.6949H63.6205V34.7605C63.6205 35.1898 63.8395 35.3225 64.2426 35.3225H66.764C66.9241 35.3225 66.952 35.3576 66.952 35.545V36.3256C66.952 36.4778 66.916 36.5403 66.764 36.5403" fill="white"/>
<path d="M69.4833 36.3607C69.4833 36.5285 69.4554 36.5559 69.2637 36.5559H68.2502C68.0989 36.5559 68.0312 36.509 68.0312 36.3607V31.7472C68.0312 30.8573 68.4698 30.0181 69.7866 30.0181H72.54C72.6994 30.0181 72.7273 30.065 72.7273 30.2445V31.0251C72.7273 31.1852 72.6913 31.232 72.54 31.232H70.1017C69.6067 31.232 69.4833 31.474 69.4833 31.8097V36.3607Z" fill="white"/>
<path d="M77.7125 32.1961L76.8627 33.5973L75.2668 36.1539C75.0472 36.5012 74.9436 36.5442 74.5528 36.5442H74.1534C73.659 36.5442 73.5312 36.2944 73.5312 35.9002V30.1977C73.5312 30.065 73.5908 30.0181 73.7347 30.0181H74.7563C74.9275 30.0181 74.9554 30.0572 74.9554 30.1977V34.4091H75.0112L75.8095 33.1016L77.4613 30.4514C77.6808 30.0962 77.7844 30.0299 78.1634 30.0299H78.5622C79.0293 30.0299 79.1813 30.1977 79.1813 30.6856V36.3997C79.1813 36.5285 79.1248 36.5754 78.9815 36.5754H77.96C77.7888 36.5754 77.7484 36.5403 77.7484 36.3997V32.1961H77.7125Z" fill="white"/>
<path d="M85.3723 36.5636H84.3308C84.1789 36.5636 84.1311 36.5168 84.1311 36.388V34.2686C83.7546 34.3228 83.3744 34.3502 82.9942 34.3506C80.9988 34.3506 80.3047 33.4567 80.3047 32.0087V30.1899C80.3047 30.0572 80.3605 30.0103 80.5044 30.0103H81.5539C81.717 30.0103 81.753 30.0493 81.753 30.1899V31.8682C81.753 32.7464 82.212 33.0938 83.1858 33.0938C83.5028 33.0944 83.8197 33.0657 84.1311 33.0079V30.1899C84.1311 30.0572 84.1789 30.0103 84.3308 30.0103H85.3723C85.5435 30.0103 85.5838 30.0493 85.5838 30.1899V36.3802C85.5838 36.5207 85.5435 36.5559 85.3723 36.5559" fill="white"/>
<path d="M91.6044 36.5637H88.779C87.3667 36.5637 87.0156 35.6972 87.0156 34.8463V31.7472C87.0156 30.8613 87.4827 30.0181 88.771 30.0181H91.5126C91.6639 30.0181 91.6918 30.065 91.6918 30.2445V31.0251C91.6918 31.1852 91.6521 31.232 91.5126 31.232H89.0706C88.5719 31.232 88.4478 31.4818 88.4478 31.8097V32.5279H91.1894C91.3407 32.5279 91.3687 32.5747 91.3687 32.7542V33.4802C91.3687 33.6324 91.3407 33.6949 91.1894 33.6949H88.4478V34.7605C88.4478 35.1898 88.6674 35.3225 89.0706 35.3225H91.5882C91.752 35.3225 91.7799 35.3576 91.7799 35.545V36.3256C91.7799 36.4778 91.7439 36.5403 91.5882 36.5403" fill="white"/>
<path d="M97.1285 35.0532C97.3084 34.979 97.3642 35.0259 97.4238 35.1663L97.747 35.8377C97.835 36.0134 97.8071 36.0797 97.6911 36.146C97.0194 36.5161 96.2558 36.6971 95.4849 36.6691C93.4063 36.6691 92.4766 35.4084 92.4766 33.3358C92.4766 31.2632 93.7214 29.9362 95.5525 29.9362C96.2 29.9076 96.8445 30.042 97.4238 30.3265C97.5677 30.4046 97.5876 30.4514 97.4995 30.6544L97.2042 31.2984C97.1366 31.4662 97.1006 31.5052 96.917 31.4389C96.5039 31.2805 96.0642 31.1984 95.6207 31.1969C94.5669 31.1969 94.0043 32.1102 94.0043 33.328C94.0043 34.5458 94.4037 35.3694 95.6567 35.3694C96.164 35.3539 96.6634 35.244 97.1285 35.0454" fill="white"/>
<path d="M102.684 33.0822C103.342 33.2969 103.506 33.6598 103.649 34.2101L104.239 36.3803C104.26 36.4427 104.267 36.5637 104.108 36.5637H102.999C102.956 36.5697 102.913 36.5598 102.877 36.5359C102.842 36.5121 102.816 36.476 102.807 36.4349L102.233 34.4092C102.041 33.7652 101.71 33.6286 101.036 33.6286H100.237V36.3998C100.237 36.5326 100.19 36.5481 100.066 36.5481H98.9609C98.8449 36.5481 98.7891 36.5481 98.7891 36.3998V30.1548C98.7891 30.0221 98.8449 30.0026 98.9609 30.0026H100.078C100.201 30.0026 100.25 30.0221 100.23 30.1548V32.5357H100.992C101.25 32.5606 101.509 32.4873 101.714 32.3312C101.918 32.175 102.054 31.9478 102.093 31.6965L102.52 30.1158C102.529 30.0742 102.553 30.0376 102.589 30.0136C102.625 29.9896 102.669 29.9801 102.712 29.987H103.781C103.944 29.987 103.932 30.108 103.916 30.1743L103.478 31.8449C103.432 32.0825 103.337 32.3088 103.2 32.51C103.063 32.7112 102.887 32.8832 102.679 33.0158L102.684 33.0822Z" fill="white"/>
<path d="M109.415 32.1961L108.565 33.5973L106.969 36.1539C106.75 36.5012 106.646 36.5442 106.251 36.5442H105.872C105.373 36.5442 105.25 36.2944 105.25 35.9002V30.1977C105.25 30.065 105.31 30.0181 105.449 30.0181H106.471C106.646 30.0181 106.674 30.0572 106.674 30.1977V34.4091H106.73L107.528 33.1016L109.18 30.4514C109.4 30.0962 109.507 30.0299 109.886 30.0299H110.285C110.752 30.0299 110.904 30.1977 110.904 30.6856V36.3997C110.904 36.5285 110.848 36.5754 110.704 36.5754H109.682C109.511 36.5754 109.472 36.5403 109.472 36.3997V32.1961H109.415Z" fill="white"/>
<path d="M114.561 34.3232L113.408 36.3606C113.371 36.4355 113.31 36.4966 113.235 36.5353C113.16 36.5739 113.073 36.5879 112.99 36.5753H111.812C111.701 36.5753 111.669 36.4738 111.717 36.3919L113.751 33.1757L111.888 30.2093C111.832 30.1313 111.86 30.0298 112.004 30.0298H113.121C113.369 30.0298 113.436 30.0688 113.52 30.2367L114.569 32.0555L115.611 30.2367C115.706 30.0688 115.775 30.0298 116.01 30.0298H117.107C117.251 30.0298 117.271 30.1313 117.211 30.2172L115.404 33.1562L117.434 36.3802C117.448 36.3972 117.457 36.4177 117.459 36.4393C117.461 36.4609 117.457 36.4827 117.447 36.502C117.437 36.5214 117.421 36.5375 117.402 36.5484C117.383 36.5593 117.361 36.5646 117.338 36.5636H116.142C116.061 36.5719 115.979 36.5558 115.908 36.5175C115.837 36.479 115.779 36.4203 115.742 36.349L114.561 34.3232Z" fill="white"/>
<path d="M38.5838 42.2413L37.7339 43.6425L36.1379 46.1993C35.9185 46.5463 35.8147 46.6126 35.4237 46.6126H35.0247C34.5299 46.6126 34.4062 46.3591 34.4062 45.9689V40.2429C34.4062 40.1102 34.4621 40.0634 34.6057 40.0634H35.6272C35.7987 40.0634 35.8267 40.1024 35.8267 40.2429V44.4427H35.8825L36.6805 43.139L38.3324 40.4849C38.5519 40.1297 38.6556 40.0634 39.0387 40.0634H39.4376C39.9045 40.0634 40.0561 40.2312 40.0561 40.7191V46.4333C40.0561 46.5658 40.0002 46.6126 39.8566 46.6126H38.8351C38.6636 46.6126 38.6277 46.5737 38.6277 46.4333V42.2413H38.5838Z" fill="white"/>
<path d="M46.7786 46.0484H45.7771C45.6135 46.0484 45.5577 46.0016 45.5577 45.849V43.2341H42.9682V45.849C42.9682 46.0095 42.9323 46.0484 42.7407 46.0484H41.7273C41.5757 46.0484 41.5078 46.0016 41.5078 45.849V39.7057C41.5078 39.5574 41.5757 39.5106 41.7273 39.5106H42.7407C42.9323 39.5106 42.9682 39.5457 42.9682 39.7057V42.0476H45.5577V39.7057C45.5577 39.5574 45.6135 39.5106 45.7771 39.5106H46.7786C46.9701 39.5106 47.006 39.5457 47.006 39.7057V45.849C47.006 46.0095 46.9701 46.0484 46.7786 46.0484Z" fill="white"/>
<path d="M52.6109 41.6769L51.761 43.0781L50.165 45.6346C49.9456 45.9822 49.8378 46.0485 49.4468 46.0485H49.0678C48.569 46.0485 48.4453 45.7944 48.4453 45.4042V39.6785C48.4453 39.5457 48.5052 39.4989 48.6449 39.4989H49.6662C49.8378 39.4989 49.8698 39.538 49.8698 39.6785V43.8782H49.9256L50.7236 42.5746L52.3755 39.9205C52.5949 39.5652 52.7026 39.4989 53.0817 39.4989H53.4807C53.9515 39.4989 54.1031 39.6668 54.1031 40.1547V45.8686C54.1031 46.0017 54.0473 46.0485 53.9037 46.0485H52.8822C52.7106 46.0485 52.6708 46.0096 52.6708 45.8686V41.6769H52.6109Z" fill="white"/>
<path d="M61.0098 44.7954L61.4846 44.8422C61.8278 44.8695 61.8557 45.0296 61.8478 45.2327L61.744 47.3911C61.744 47.5121 61.6841 47.5784 61.5604 47.5784H60.7625C60.6308 47.5784 60.5829 47.52 60.5749 47.3832L60.515 46.029H56.1261C55.6872 46.029 55.5156 45.8217 55.5156 45.4005V39.6784C55.5156 39.5457 55.5715 39.4989 55.7151 39.4989H56.7645C56.936 39.4989 56.9759 39.5379 56.9759 39.6784V44.8227H59.5415V39.6784C59.5415 39.5457 59.5974 39.4989 59.733 39.4989H60.7824C60.9619 39.4989 60.9939 39.5379 60.9939 39.6784L61.0098 44.7954Z" fill="white"/>
<path d="M66.807 41.6769L65.9572 43.0781L64.3333 45.6346C64.1138 45.9822 64.0102 46.0485 63.6194 46.0485H63.22C62.7256 46.0485 62.6016 45.7944 62.6016 45.4042V39.6785C62.6016 39.5457 62.6574 39.4989 62.8013 39.4989H63.8229C63.9941 39.4989 64.022 39.538 64.022 39.6785V43.8782H64.0821L64.8798 42.5746L66.5322 39.9205C66.7511 39.5652 66.8554 39.4989 67.2381 39.4989H67.6369C68.1039 39.4989 68.2596 39.6668 68.2596 40.1547V45.8686C68.2596 46.0017 68.1995 46.0485 68.0562 46.0485H67.0346C66.8628 46.0485 66.8274 46.0096 66.8274 45.8686V41.6769H66.807Z" fill="white"/>
<path d="M71.1715 43.5268H72.6719L72.3085 42.3558L71.9574 41.021H71.9096L71.5468 42.3558L71.1715 43.5268ZM73.0149 44.6977H70.8285L70.4576 45.8684C70.4173 45.9894 70.3738 46.0483 70.1902 46.0483H69.0731C68.941 46.0483 68.9094 45.9547 68.941 45.8611L70.9364 40.0061C71.0716 39.5729 71.2435 39.4987 71.6342 39.4909H72.2049C72.636 39.4909 72.7997 39.5456 72.951 40.0061L74.9458 45.8611C74.9564 45.8812 74.9613 45.9037 74.9607 45.9262C74.9595 45.9486 74.952 45.9705 74.9396 45.9894C74.9272 46.0082 74.9098 46.024 74.8888 46.0343C74.8683 46.0447 74.8453 46.0495 74.8224 46.0483H73.6656C73.5217 46.0483 73.4262 46.0289 73.3902 45.8958L73.0149 44.6977Z" fill="white"/>
<path d="M79.7666 40.7244H78.0392V45.849C78.0392 46.0095 77.9989 46.0484 77.8078 46.0484H76.7862C76.6343 46.0484 76.5667 46.0016 76.5667 45.849V40.7244H74.8789C74.7431 40.7244 74.6953 40.6659 74.6953 40.5371V39.7057C74.6953 39.5457 74.7356 39.5106 74.8789 39.5106H79.7666C79.9186 39.5106 79.9583 39.5457 79.9583 39.7057V40.5371C79.9626 40.5626 79.9602 40.5887 79.9521 40.6133C79.944 40.6378 79.9298 40.6601 79.9112 40.6784C79.8925 40.6967 79.8696 40.7103 79.8448 40.7184C79.8194 40.7264 79.7927 40.7284 79.7666 40.7244Z" fill="white"/>
<path d="M84.9625 41.6769L84.1127 43.0781L82.5168 45.6346C82.2972 45.9822 82.1936 46.0485 81.8022 46.0485H81.4034C80.9047 46.0485 80.7812 45.7944 80.7812 45.4042V39.6785C80.7812 39.5457 80.8408 39.4989 80.9847 39.4989H82.0057C82.1775 39.4989 82.2054 39.538 82.2054 39.6785V43.8782H82.2612L83.0595 42.5746L84.715 39.9205C84.9346 39.5652 85.0381 39.4989 85.4215 39.4989H85.8203C86.2874 39.4989 86.4387 39.6668 86.4387 40.1547V45.8686C86.4387 46.0017 86.3829 46.0485 86.2396 46.0485H85.218C85.0462 46.0485 85.0065 46.0096 85.0065 45.8686V41.6769H84.9625Z" fill="white"/>
<path d="M90.6992 43.1249H89.3265V44.7954H90.6992C90.8183 44.8067 90.9386 44.7934 91.0521 44.7566C91.1656 44.7198 91.2698 44.6601 91.3585 44.5814C91.4472 44.5028 91.5179 44.4068 91.5663 44.2999C91.6147 44.1929 91.6401 44.0772 91.6401 43.9601C91.6401 43.8431 91.6147 43.7274 91.5663 43.6204C91.5179 43.5134 91.4472 43.4175 91.3585 43.3388C91.2698 43.2602 91.1656 43.2005 91.0521 43.1636C90.9386 43.1268 90.8183 43.1136 90.6992 43.1249ZM89.3265 41.9852H90.6235C90.7159 41.998 90.8096 41.9906 90.8989 41.9636C90.9876 41.9367 91.0695 41.8908 91.1383 41.8292C91.2072 41.7676 91.2605 41.6919 91.2959 41.6075C91.3312 41.5231 91.3468 41.4322 91.3418 41.3412C91.3449 41.2568 91.3288 41.1729 91.2953 41.0951C91.2618 41.0173 91.2115 40.9476 91.1476 40.8908C91.0844 40.8339 91.0087 40.7914 90.9262 40.766C90.8437 40.7407 90.7569 40.7331 90.6713 40.744H89.3265V41.9852ZM92.1196 42.4691C92.4366 42.5988 92.7045 42.8211 92.8875 43.1053C93.0705 43.3897 93.1586 43.7222 93.1412 44.0577C93.1412 45.2285 92.1395 46.0484 90.8592 46.0484H88.465C88.006 46.0484 87.8906 45.8807 87.8906 45.4783V40.0804C87.8906 39.6901 88.006 39.4989 88.465 39.4989H90.8034C91.9565 39.4989 92.854 39.9751 92.854 41.1538C92.8521 41.4062 92.7833 41.6539 92.6549 41.8728C92.5265 42.0916 92.3417 42.2742 92.1196 42.4028V42.4691Z" fill="white"/>
<path d="M18.7031 3.53937L30.6531 10.2722L36.6222 6.88824L18.7031 3.53937Z" fill="#A0CDEB"/>
<path d="M0.78125 0.186584L12.7313 6.91946L18.7003 3.53935L0.78125 0.186584Z" fill="#F7403A"/>
<path d="M12.7422 13.6719L24.6922 20.4048L30.6613 17.0247L12.7422 13.6719Z" fill="#E1E6E6"/>
<path d="M36.6175 6.88831L30.6564 17.0247L30.6484 10.2723L36.6175 6.88831Z" fill="white"/>
<path d="M30.6565 17.0247L24.6955 27.1611L24.6875 20.4047L30.6565 17.0247Z" fill="#AFAFAF"/>
<path d="M18.7034 3.53931L12.7424 13.6718L12.7344 6.91936L18.7034 3.53931Z" fill="#AA272F"/>
</g>
<defs>
<clipPath id="clip0_960_37860">
<rect width="117.851" height="47.4112" fill="white" transform="translate(0.179688 0.186584)"/>
</clipPath>
</defs>
</svg>
