<svg width="144" height="58" viewBox="0 0 144 58" fill="none" xmlns="http://www.w3.org/2000/svg">
<g clip-path="url(#clip0_76_3367)">
<path d="M45.1554 27.6515L44.5996 25.9538H44.541L44.0097 27.5944L43.2052 30.06H45.9452L45.1554 27.6515ZM47.1055 32.8643C46.9641 32.8643 46.8812 32.8643 46.8178 32.6926L46.2328 30.9948H42.9079L42.3179 32.6926C42.3052 32.746 42.2728 32.793 42.227 32.8246C42.1811 32.8563 42.125 32.8704 42.0692 32.8643H41.2844C41.1332 32.8643 41.0991 32.7594 41.1332 32.6449L43.8 25.2288C43.9268 24.8569 44.034 24.752 44.3997 24.752H44.7458C45.17 24.752 45.2675 24.8664 45.3845 25.2288L48.0367 32.6449C48.0854 32.7499 48.0367 32.8643 47.8953 32.8643H47.1055Z" fill="#19193C"/>
<path d="M49.9524 32.645C49.9524 32.831 49.8939 32.8644 49.7184 32.8644H49.1334C48.9676 32.8644 48.8848 32.831 48.8848 32.645V26.7599C48.8848 25.7011 49.3722 24.7759 50.8787 24.7759H54.0379C54.2281 24.7759 54.2622 24.857 54.2622 25.0191V25.496C54.2622 25.6821 54.2281 25.7392 54.0379 25.7392H50.8885C50.24 25.7392 49.9573 26.0063 49.9573 26.6072L49.9524 32.645Z" fill="#19193C"/>
<path d="M60.5466 32.8644H57.2654C55.7346 32.8644 55.2715 31.9535 55.2715 30.8947V26.7646C55.2715 25.7011 55.8273 24.7759 57.2654 24.7759H60.4881C60.6635 24.7759 60.6977 24.857 60.6977 25.0191V25.496C60.6977 25.6677 60.6635 25.725 60.4881 25.725H57.2801C56.6317 25.725 56.3489 26.0016 56.3489 26.6025V28.1048H60.098C60.2735 28.1048 60.3077 28.1715 60.3077 28.3432V28.782C60.3077 28.9346 60.2735 29.0157 60.098 29.0157H56.3489V31.0235C56.3489 31.5386 56.6073 31.8867 57.2801 31.8867H60.5466C60.7318 31.8867 60.7708 31.9583 60.7708 32.1299V32.6069C60.7708 32.769 60.7318 32.8501 60.5466 32.8501" fill="#19193C"/>
<path d="M67.362 24.9855C67.362 24.8234 67.4302 24.79 67.5862 24.79H68.2249C68.3858 24.79 68.4492 24.8234 68.4492 24.9855V32.6687C68.4492 32.8308 68.3858 32.8642 68.2249 32.8642H67.5862C67.4302 32.8642 67.362 32.8308 67.362 32.6687V29.0679H63.1985V32.6687C63.1985 32.8308 63.14 32.8642 62.9742 32.8642H62.3258C62.1844 32.8642 62.1016 32.8308 62.1016 32.6687V24.9855C62.1016 24.8234 62.1844 24.79 62.3258 24.79H62.9742C63.14 24.79 63.1985 24.8234 63.1985 24.9855V28.1475H67.362V24.9855Z" fill="#19193C"/>
<path d="M71.9747 25.7247H69.6736C69.5322 25.7247 69.5078 25.6771 69.5078 25.5388V24.976C69.5078 24.8472 69.5078 24.79 69.6736 24.79H75.4606C75.5971 24.79 75.6215 24.8472 75.6215 24.976V25.5388C75.6215 25.6771 75.5971 25.7247 75.4606 25.7247H73.0863V32.6687C73.0863 32.8308 73.0278 32.8642 72.8767 32.8642H72.2039C72.0478 32.8642 71.9796 32.8308 71.9796 32.6687L71.9747 25.7247Z" fill="#19193C"/>
<path d="M81.423 31.5863C81.5981 31.5148 81.6565 31.6101 81.6906 31.6769L81.9149 32.1539C82.0127 32.3351 81.9642 32.3828 81.8566 32.4543C81.0843 32.8369 80.2256 33.0223 79.3608 32.9932C77.1569 32.9932 75.8457 31.7342 75.8457 28.9442C75.8457 26.345 77.3077 24.6758 79.4434 24.6758C80.2036 24.6569 80.9569 24.8207 81.6375 25.1527C81.7345 25.2004 81.7785 25.2672 81.6959 25.415L81.4276 25.9491C81.3791 26.0398 81.345 26.0874 81.2131 26.0303C80.672 25.7937 80.0854 25.6718 79.4919 25.6726C77.698 25.6726 76.9568 27.275 76.9568 28.9489C76.9568 30.6229 77.5661 32.006 79.5503 32.006C80.199 31.9983 80.8387 31.8569 81.4276 31.5911" fill="#19193C"/>
<path d="M85.1226 25.7247H82.8261C82.6799 25.7247 82.6602 25.6771 82.6602 25.5388V24.976C82.6602 24.8472 82.6602 24.79 82.8261 24.79H88.6233C88.7643 24.79 88.7885 24.8472 88.7885 24.976V25.5388C88.7885 25.6771 88.7643 25.7247 88.6233 25.7247H86.2344V32.6687C86.2344 32.8308 86.1753 32.8642 86.0199 32.8642H85.3469C85.1953 32.8642 85.1226 32.8308 85.1226 32.6687V25.7247Z" fill="#19193C"/>
<path d="M93.0993 28.9393H90.9052V31.9154H93.0993C94.4544 31.9154 94.781 31.0139 94.781 30.4035C94.781 29.5403 94.196 28.9393 93.0993 28.9393ZM90.9052 28.0523H93.075C93.2471 28.0708 93.4206 28.053 93.5851 28C93.7496 27.9472 93.9004 27.8603 94.0277 27.7455C94.1543 27.6307 94.2551 27.4905 94.3218 27.3344C94.3892 27.1784 94.421 27.0101 94.4157 26.841C94.4165 26.6862 94.3839 26.533 94.3202 26.3915C94.2558 26.2501 94.1618 26.1236 94.0436 26.0207C93.9254 25.9178 93.7859 25.8407 93.6351 25.7946C93.4835 25.7485 93.3244 25.7346 93.1675 25.7536H90.9052V28.0523ZM94.5378 28.4529C94.9569 28.6033 95.3161 28.8824 95.5602 29.2485C95.8042 29.6147 95.9209 30.0483 95.8929 30.4846C95.8929 31.9154 94.7227 32.8691 93.216 32.8691H90.4179C89.9934 32.8691 89.8184 32.6975 89.8184 32.2921V25.3673C89.8184 24.9619 89.9745 24.7759 90.4179 24.7759H93.0508C94.4885 24.7759 95.5367 25.353 95.5367 26.7599C95.5412 27.0919 95.4495 27.4184 95.2729 27.7018C95.0963 27.9853 94.8417 28.2142 94.5378 28.3623V28.4529Z" fill="#19193C"/>
<path d="M100.255 25.6009C98.5682 25.6009 97.8179 27.0651 97.8179 28.782C97.8179 30.6896 98.3833 32.0393 100.221 32.0393C102.059 32.0393 102.659 30.4893 102.659 28.8297C102.659 27.1699 102.211 25.6009 100.289 25.6009H100.255ZM100.231 32.9836C97.9202 32.9836 96.75 31.4956 96.75 28.8297C96.75 26.1636 98.2127 24.6519 100.255 24.6519C102.566 24.6519 103.77 26.2114 103.77 28.782C103.77 31.4718 102.552 32.9836 100.231 32.9836Z" fill="#19193C"/>
<path d="M46.7969 42.6028C47.0212 42.5122 47.0895 42.5694 47.1578 42.7411L47.5575 43.5614C47.6599 43.776 47.6258 43.8571 47.4843 43.9382C46.6648 44.3902 45.7334 44.6114 44.7932 44.5773C42.2483 44.5773 41.1172 43.0368 41.1172 40.5043C41.1172 37.9719 42.6334 36.3504 44.8712 36.3504C45.6626 36.3151 46.45 36.4793 47.1578 36.8274C47.3332 36.9227 47.3576 36.98 47.2552 37.228L46.8896 38.0149C46.8116 38.2199 46.7628 38.2676 46.5434 38.1866C46.037 37.9925 45.498 37.8922 44.9541 37.8908C43.6719 37.8908 43.004 39.0068 43.004 40.4948C43.004 41.9828 43.4915 42.9891 45.0223 42.9891C45.6406 42.9697 46.2495 42.8353 46.8165 42.5933" fill="#19193C"/>
<path d="M54.3118 37.948H52.2007V44.2003C52.2007 44.3958 52.152 44.4388 51.918 44.4388H50.6699C50.4846 44.4388 50.4018 44.3815 50.4018 44.2003V37.948H48.3395C48.1737 37.948 48.1152 37.8764 48.1152 37.719V36.7032C48.1152 36.5076 48.164 36.46 48.3395 36.46H54.3118C54.497 36.46 54.5458 36.5076 54.5458 36.7032V37.719C54.5458 37.8764 54.4775 37.948 54.3118 37.948Z" fill="#19193C"/>
<path d="M58.8357 38.0007H57.3195V40.1659H58.8503C59.1439 40.1659 59.4253 40.0518 59.6329 39.8488C59.8404 39.6458 59.9571 39.3704 59.9571 39.0833C59.9571 38.7961 59.8404 38.5208 59.6329 38.3178C59.4253 38.1147 59.1439 38.0007 58.8503 38.0007H58.8357ZM57.3195 44.2006C57.3195 44.4057 57.2757 44.4391 57.0416 44.4391H55.8131C55.6278 44.4391 55.5449 44.3818 55.5449 44.2006V37.147C55.5449 36.7273 55.6863 36.4507 56.247 36.4507H59.1038C60.7956 36.4507 61.834 37.4999 61.834 38.9497C61.834 39.7271 61.4977 41.5537 58.8699 41.5537H57.3195V44.2006Z" fill="#19193C"/>
<path d="M64.0273 41.3679H65.8604L65.4119 39.9372L64.9829 38.3062H64.9146L64.471 39.9372L64.0273 41.3679ZM66.2797 42.7987H63.608L63.1497 44.2294C63.1059 44.3773 63.0474 44.4441 62.8231 44.4441H61.4581C61.2971 44.4441 61.263 44.3296 61.2972 44.2199L63.7348 37.0662C63.8957 36.5416 64.1053 36.451 64.5831 36.4414H65.2851C65.8117 36.4414 66.0067 36.5082 66.1919 37.0662L68.6296 44.2199C68.6637 44.3105 68.6296 44.4441 68.4785 44.4441H67.089C66.9135 44.4441 66.8014 44.4441 66.7526 44.2628L66.2797 42.7987Z" fill="#19193C"/>
<path d="M74.5237 37.9485H72.4126V44.2008C72.4126 44.3963 72.3687 44.4393 72.1348 44.4393H70.8867C70.6965 44.4393 70.6185 44.382 70.6185 44.2008V37.9485H68.5514C68.3905 37.9485 68.332 37.8769 68.332 37.7195V36.7037C68.332 36.5081 68.3758 36.4604 68.5514 36.4604H74.5237C74.7089 36.4604 74.7577 36.5081 74.7577 36.7037V37.7195C74.7577 37.8769 74.6894 37.9485 74.5237 37.9485Z" fill="#19193C"/>
<path d="M81.373 44.4486H77.8973C76.1715 44.4486 75.7422 43.3899 75.7422 42.3501V38.5635C75.7422 37.4809 76.3125 36.4507 77.8874 36.4507H81.2365C81.4222 36.4507 81.4563 36.5079 81.4563 36.7273V37.6811C81.4563 37.8767 81.4124 37.9339 81.2365 37.9339H78.2724C77.6631 37.9339 77.5123 38.2391 77.5123 38.6397V39.5173H80.8614C81.0463 39.5173 81.0804 39.5745 81.0804 39.7939V40.681C81.0804 40.867 81.0463 40.9433 80.8614 40.9433H77.5123V42.2453C77.5123 42.7698 77.7798 42.932 78.2724 42.932H81.3533C81.5488 42.932 81.5829 42.9749 81.5829 43.2039V44.1577C81.5829 44.3437 81.5389 44.42 81.3533 44.42" fill="#19193C"/>
<path d="M84.6844 44.2006C84.6844 44.4057 84.6503 44.4391 84.4161 44.4391H83.1777C82.9928 44.4391 82.9102 44.3818 82.9102 44.2006V38.5635C82.9102 37.4761 83.446 36.4507 85.055 36.4507H88.4193C88.6141 36.4507 88.6482 36.5079 88.6482 36.7273V37.6811C88.6482 37.8767 88.6042 37.9339 88.4193 37.9339H85.44C84.8352 37.9339 84.6844 38.2296 84.6844 38.6397V44.2006Z" fill="#19193C"/>
<path d="M94.7379 39.1119L93.6996 40.824L91.7495 43.9478C91.4812 44.3723 91.3546 44.4247 90.8772 44.4247H90.3891C89.785 44.4247 89.6289 44.1196 89.6289 43.6378V36.6701C89.6289 36.5079 89.7017 36.4507 89.8775 36.4507H91.1257C91.3349 36.4507 91.369 36.4984 91.369 36.6701V41.816H91.4372L92.4127 40.2184L94.4309 36.9801C94.6992 36.5461 94.8258 36.465 95.2889 36.465H95.7762C96.3469 36.465 96.5326 36.6701 96.5326 37.2662V44.2483C96.5326 44.4057 96.4636 44.4629 96.2885 44.4629H95.0403C94.8311 44.4629 94.7818 44.42 94.7818 44.2483V39.1119H94.7379Z" fill="#19193C"/>
<path d="M104.092 44.4488H102.82C102.634 44.4488 102.576 44.3916 102.576 44.2342V41.6446C102.116 41.7108 101.651 41.7442 101.187 41.7447C98.7485 41.7447 97.9004 40.6525 97.9004 38.8832V36.6608C97.9004 36.4987 97.9686 36.4414 98.1444 36.4414H99.4268C99.6261 36.4414 99.6701 36.4891 99.6701 36.6608V38.7116C99.6701 39.7846 100.231 40.2091 101.421 40.2091C101.808 40.2098 102.195 40.1747 102.576 40.1041V36.6608C102.576 36.4987 102.634 36.4414 102.82 36.4414H104.092C104.302 36.4414 104.351 36.4891 104.351 36.6608V44.2247C104.351 44.3964 104.302 44.4393 104.092 44.4393" fill="#19193C"/>
<path d="M111.708 44.4486H108.256C106.531 44.4486 106.102 43.3899 106.102 42.3501V38.5635C106.102 37.4809 106.672 36.4507 108.246 36.4507H111.596C111.781 36.4507 111.815 36.5079 111.815 36.7273V37.6811C111.815 37.8767 111.767 37.9339 111.596 37.9339H108.612C108.003 37.9339 107.852 38.2391 107.852 38.6397V39.5173H111.201C111.386 39.5173 111.42 39.5745 111.42 39.7939V40.681C111.42 40.867 111.386 40.9433 111.201 40.9433H107.852V42.2453C107.852 42.7698 108.12 42.932 108.612 42.932H111.689C111.889 42.932 111.923 42.9749 111.923 43.2039V44.1577C111.923 44.3437 111.879 44.42 111.689 44.42" fill="#19193C"/>
<path d="M118.465 42.6031C118.685 42.5125 118.753 42.5698 118.826 42.7414L119.221 43.5617C119.329 43.7764 119.295 43.8575 119.153 43.9385C118.332 44.3907 117.399 44.6119 116.457 44.5776C113.917 44.5776 112.781 43.0372 112.781 40.5047C112.781 37.9723 114.302 36.3508 116.54 36.3508C117.331 36.3158 118.118 36.48 118.826 36.8277C119.002 36.9231 119.026 36.9803 118.919 37.2283L118.558 38.0152C118.475 38.2203 118.431 38.268 118.207 38.1869C117.702 37.9934 117.165 37.8931 116.623 37.8912C115.335 37.8912 114.648 39.0072 114.648 40.4952C114.648 41.9832 115.136 42.9895 116.667 42.9895C117.287 42.9706 117.897 42.8363 118.465 42.5936" fill="#19193C"/>
<path d="M125.253 40.1948C126.057 40.4571 126.257 40.9006 126.432 41.573L127.154 44.2247C127.179 44.301 127.188 44.4489 126.993 44.4489H125.638C125.586 44.4561 125.533 44.444 125.489 44.4148C125.446 44.3857 125.415 44.3417 125.404 44.2915L124.702 41.8163C124.468 41.0294 124.063 40.8625 123.239 40.8625H122.264V44.2485C122.264 44.4108 122.205 44.4298 122.055 44.4298H120.704C120.562 44.4298 120.494 44.4298 120.494 44.2485V36.6179C120.494 36.4557 120.562 36.4319 120.704 36.4319H122.069C122.22 36.4319 122.279 36.4557 122.255 36.6179V39.5271H123.185C123.501 39.5575 123.818 39.468 124.068 39.2772C124.318 39.0864 124.484 38.8087 124.531 38.5017L125.053 36.5702C125.063 36.5194 125.094 36.4747 125.137 36.4454C125.181 36.416 125.235 36.4044 125.287 36.4129H126.594C126.793 36.4129 126.779 36.5606 126.759 36.6418L126.223 38.6829C126.167 38.9733 126.052 39.2498 125.884 39.4957C125.717 39.7415 125.501 39.9517 125.248 40.1137L125.253 40.1948Z" fill="#19193C"/>
<path d="M133.476 39.1119L132.438 40.824L130.488 43.9478C130.219 44.3723 130.093 44.4247 129.61 44.4247H129.147C128.538 44.4247 128.387 44.1196 128.387 43.6378V36.6701C128.387 36.5079 128.459 36.4507 128.63 36.4507H129.878C130.093 36.4507 130.127 36.4984 130.127 36.6701V41.816H130.195L131.17 40.2184L133.189 36.9801C133.457 36.5461 133.588 36.465 134.052 36.465H134.539C135.109 36.465 135.295 36.6701 135.295 37.2662V44.2483C135.295 44.4057 135.227 44.4629 135.051 44.4629H133.803C133.593 44.4629 133.545 44.42 133.545 44.2483V39.1119H133.476Z" fill="#19193C"/>
<path d="M139.76 41.7109L138.351 44.2004C138.305 44.2919 138.231 44.3666 138.139 44.4138C138.047 44.461 137.942 44.4781 137.839 44.4627H136.401C136.264 44.4627 136.226 44.3387 136.284 44.2386L138.77 40.3088L136.493 36.6842C136.425 36.5889 136.459 36.4648 136.635 36.4648H138C138.302 36.4648 138.385 36.5125 138.487 36.7177L139.77 38.9401L141.042 36.7177C141.159 36.5125 141.242 36.4648 141.529 36.4648H142.87C143.046 36.4648 143.07 36.5889 142.998 36.6938L140.789 40.2849L143.27 44.2243C143.287 44.2451 143.298 44.2702 143.3 44.2965C143.303 44.323 143.298 44.3496 143.286 44.3732C143.273 44.3968 143.254 44.4165 143.231 44.4298C143.207 44.4431 143.18 44.4496 143.153 44.4484H141.691C141.592 44.4586 141.492 44.4389 141.405 44.392C141.318 44.3451 141.248 44.2733 141.203 44.1862L139.76 41.7109Z" fill="#19193C"/>
<path d="M46.9286 51.3858L45.8903 53.0979L43.9401 56.2219C43.672 56.646 43.5452 56.727 43.0674 56.727H42.5799C41.9753 56.727 41.8242 56.4173 41.8242 55.9404V48.9439C41.8242 48.7818 41.8925 48.7246 42.068 48.7246H43.3161C43.5257 48.7246 43.5598 48.7723 43.5598 48.9439V54.0756H43.6281L44.6031 52.4827L46.6215 49.2397C46.8897 48.8056 47.0164 48.7246 47.4845 48.7246H47.972C48.5424 48.7246 48.7277 48.9297 48.7277 49.5258V56.5079C48.7277 56.6698 48.6594 56.727 48.4839 56.727H47.2358C47.0262 56.727 46.9823 56.6794 46.9823 56.5079V51.3858H46.9286Z" fill="#19193C"/>
<path d="M56.9344 56.0378H55.7107C55.5108 56.0378 55.4426 55.9806 55.4426 55.7942V52.5991H52.2785V55.7942C52.2785 55.9902 52.2346 56.0378 52.0006 56.0378H50.7623C50.5771 56.0378 50.4941 55.9806 50.4941 55.7942V48.2877C50.4941 48.1065 50.5771 48.0493 50.7623 48.0493H52.0006C52.2346 48.0493 52.2785 48.0922 52.2785 48.2877V51.1492H55.4426V48.2877C55.4426 48.1065 55.5108 48.0493 55.7107 48.0493H56.9344C57.1685 48.0493 57.2123 48.0922 57.2123 48.2877V55.7942C57.2123 55.9902 57.1685 56.0378 56.9344 56.0378Z" fill="#19193C"/>
<path d="M64.0625 50.6963L63.0241 52.4084L61.0739 55.5322C60.8058 55.957 60.6741 56.038 60.1964 56.038H59.7332C59.1238 56.038 58.9727 55.7275 58.9727 55.2507V48.2546C58.9727 48.0923 59.0458 48.0352 59.2165 48.0352H60.4645C60.6741 48.0352 60.7132 48.0828 60.7132 48.2546V53.3861H60.7815L61.7565 51.7932L63.7748 48.5502C64.043 48.1162 64.1746 48.0352 64.6378 48.0352H65.1253C65.7006 48.0352 65.8859 48.2402 65.8859 48.8364V55.8181C65.8859 55.9808 65.8176 56.038 65.6421 56.038H64.394C64.1844 56.038 64.1357 55.9904 64.1357 55.8181V50.6963H64.0625Z" fill="#19193C"/>
<path d="M74.3285 54.5069L74.9087 54.5641C75.328 54.5975 75.3621 54.793 75.3524 55.0412L75.2256 57.6786C75.2256 57.8264 75.1524 57.9073 75.0013 57.9073H74.0263C73.8654 57.9073 73.8069 57.836 73.7971 57.6689L73.7239 56.0142H68.3612C67.8249 56.0142 67.6152 55.7609 67.6152 55.2462V48.2546C67.6152 48.0923 67.6834 48.0352 67.859 48.0352H69.1412C69.3508 48.0352 69.3995 48.0828 69.3995 48.2546V54.5403H72.5344V48.2546C72.5344 48.0923 72.6026 48.0352 72.7684 48.0352H74.0506C74.27 48.0352 74.309 48.0828 74.309 48.2546L74.3285 54.5069Z" fill="#19193C"/>
<path d="M81.4081 50.6963L80.3697 52.4084L78.3856 55.5322C78.1173 55.957 77.9907 56.038 77.5132 56.038H77.0251C76.4211 56.038 76.2695 55.7275 76.2695 55.2507V48.2546C76.2695 48.0923 76.3377 48.0352 76.5136 48.0352H77.7618C77.971 48.0352 78.0051 48.0828 78.0051 48.2546V53.3861H78.0786L79.0533 51.7932L81.0723 48.5502C81.3398 48.1162 81.4672 48.0352 81.9348 48.0352H82.4221C82.9928 48.0352 83.183 48.2402 83.183 48.8364V55.8181C83.183 55.9808 83.1095 56.038 82.9345 56.038H81.6862C81.4763 56.038 81.4331 55.9904 81.4331 55.8181V50.6963H81.4081Z" fill="#19193C"/>
<path d="M86.7471 52.9567H88.5804L88.1363 51.526L87.7073 49.8949H87.6489L87.2056 51.526L86.7471 52.9567ZM88.9995 54.3875H86.3279L85.8747 55.8179C85.8255 55.9657 85.7724 56.0378 85.5481 56.0378H84.1831C84.0217 56.0378 83.983 55.9234 84.0217 55.809L86.4598 48.6549C86.625 48.1256 86.835 48.0349 87.3124 48.0254H88.0097C88.5364 48.0254 88.7365 48.0922 88.9214 48.6549L91.3588 55.809C91.3717 55.8335 91.3778 55.861 91.377 55.8885C91.3755 55.916 91.3664 55.9427 91.3513 55.9657C91.3361 55.9887 91.3149 56.0081 91.2891 56.0207C91.2641 56.0333 91.2361 56.0392 91.208 56.0378H89.7945C89.6187 56.0378 89.502 56.014 89.458 55.8513L88.9995 54.3875Z" fill="#19193C"/>
<path d="M97.2473 49.5325H95.1366V55.7942C95.1366 55.9902 95.0873 56.0378 94.8539 56.0378H93.6057C93.42 56.0378 93.3374 55.9806 93.3374 55.7942V49.5325H91.2751C91.1091 49.5325 91.0508 49.461 91.0508 49.3036V48.2877C91.0508 48.0922 91.1 48.0493 91.2751 48.0493H97.2473C97.433 48.0493 97.4815 48.0922 97.4815 48.2877V49.3036C97.4868 49.3348 97.4838 49.3667 97.474 49.3967C97.4641 49.4267 97.4467 49.4539 97.4239 49.4763C97.4012 49.4986 97.3732 49.5153 97.3428 49.5251C97.3118 49.5349 97.2792 49.5374 97.2473 49.5325Z" fill="#19193C"/>
<path d="M103.589 50.6963L102.551 52.4084L100.601 55.5322C100.333 55.957 100.206 56.038 99.728 56.038H99.2406C98.6313 56.038 98.4805 55.7275 98.4805 55.2507V48.2546C98.4805 48.0923 98.5532 48.0352 98.7291 48.0352H99.9766C100.186 48.0352 100.221 48.0828 100.221 48.2546V53.3861H100.289L101.264 51.7932L103.287 48.5502C103.555 48.1162 103.682 48.0352 104.15 48.0352H104.638C105.208 48.0352 105.393 48.2402 105.393 48.8364V55.8181C105.393 55.9808 105.325 56.038 105.15 56.038H103.902C103.692 56.038 103.643 55.9904 103.643 55.8181V50.6963H103.589Z" fill="#19193C"/>
<path d="M110.602 52.4657H108.924V54.5069H110.602C110.747 54.5207 110.894 54.5045 111.033 54.4595C111.172 54.4145 111.299 54.3415 111.407 54.2454C111.516 54.1493 111.602 54.0321 111.661 53.9014C111.72 53.7707 111.751 53.6293 111.751 53.4863C111.751 53.3433 111.72 53.2019 111.661 53.0711C111.602 52.9404 111.516 52.8232 111.407 52.7271C111.299 52.631 111.172 52.5581 111.033 52.5131C110.894 52.4681 110.747 52.4519 110.602 52.4657ZM108.924 51.0731H110.509C110.622 51.0888 110.737 51.0798 110.846 51.0468C110.954 51.0139 111.054 50.9578 111.138 50.8825C111.222 50.8073 111.288 50.7148 111.331 50.6117C111.374 50.5085 111.393 50.3974 111.387 50.2862C111.391 50.1831 111.371 50.0806 111.33 49.9855C111.289 49.8905 111.228 49.8053 111.15 49.7359C111.072 49.6664 110.98 49.6144 110.879 49.5835C110.778 49.5525 110.672 49.5433 110.568 49.5565H108.924V51.0731ZM112.337 51.6645C112.725 51.823 113.052 52.0945 113.276 52.4419C113.499 52.7893 113.607 53.1956 113.586 53.6055C113.586 55.0361 112.362 56.038 110.797 56.038H107.872C107.311 56.038 107.17 55.833 107.17 55.3413V48.7458C107.17 48.2688 107.311 48.0352 107.872 48.0352H110.729C112.138 48.0352 113.235 48.617 113.235 50.0572C113.232 50.3657 113.148 50.6683 112.991 50.9358C112.834 51.2032 112.609 51.4263 112.337 51.5834V51.6645Z" fill="#19193C"/>
<path d="M22.6309 4.09668L37.2324 12.3235L44.5259 8.18862L22.6309 4.09668Z" fill="#A0CDEB"/>
<path d="M0.736328 0L15.3379 8.2268L22.6314 4.09669L0.736328 0Z" fill="#F7403A"/>
<path d="M15.3477 16.4775L29.9492 24.7043L37.2427 20.5743L15.3477 16.4775Z" fill="#E1E6E6"/>
<path d="M44.5259 8.18848L37.2422 20.574L37.2324 12.3233L44.5259 8.18848Z" fill="#19193C"/>
<path d="M37.2427 20.5742L29.959 32.9597L29.9492 24.7043L37.2427 20.5742Z" fill="#AFAFAF"/>
<path d="M22.6313 4.09668L15.3477 16.4774L15.3379 8.22672L22.6313 4.09668Z" fill="#AA272F"/>
</g>
<defs>
<clipPath id="clip0_76_3367">
<rect width="144" height="57.931" fill="white"/>
</clipPath>
</defs>
</svg>
