<svg width="144" height="58" viewBox="0 0 144 58" fill="none" xmlns="http://www.w3.org/2000/svg">
<g clip-path="url(#clip0_892_8217)">
<path d="M45.1593 27.6515L44.6035 25.9538H44.5449L44.0136 27.5944L43.2092 30.06H45.9491L45.1593 27.6515ZM47.1094 32.8643C46.968 32.8643 46.8851 32.8643 46.8217 32.6926L46.2367 30.9948H42.9118L42.3218 32.6926C42.3091 32.746 42.2767 32.793 42.2309 32.8246C42.185 32.8563 42.1289 32.8704 42.0731 32.8643H41.2883C41.1371 32.8643 41.103 32.7594 41.1371 32.6449L43.804 25.2288C43.9307 24.8569 44.0379 24.752 44.4036 24.752H44.7497C45.1739 24.752 45.2714 24.8664 45.3884 25.2288L48.0406 32.6449C48.0893 32.7499 48.0406 32.8643 47.8992 32.8643H47.1094Z" fill="white"/>
<path d="M49.9505 32.6451C49.9505 32.8311 49.8919 32.8645 49.7164 32.8645H49.1314C48.9656 32.8645 48.8828 32.8311 48.8828 32.6451V26.76C48.8828 25.7012 49.3703 24.776 50.8768 24.776H54.036C54.2261 24.776 54.2602 24.8571 54.2602 25.0192V25.4961C54.2602 25.6821 54.2261 25.7393 54.036 25.7393H50.8865C50.2381 25.7393 49.9553 26.0064 49.9553 26.6073L49.9505 32.6451Z" fill="white"/>
<path d="M60.5485 32.8645H57.2674C55.7366 32.8645 55.2734 31.9536 55.2734 30.8948V26.7647C55.2734 25.7012 55.8292 24.776 57.2674 24.776H60.49C60.6655 24.776 60.6997 24.8571 60.6997 25.0192V25.4961C60.6997 25.6678 60.6655 25.7251 60.49 25.7251H57.282C56.6336 25.7251 56.3509 26.0017 56.3509 26.6026V28.1048H60.0999C60.2755 28.1048 60.3096 28.1716 60.3096 28.3433V28.782C60.3096 28.9347 60.2755 29.0158 60.0999 29.0158H56.3509V31.0236C56.3509 31.5387 56.6092 31.8868 57.282 31.8868H60.5485C60.7338 31.8868 60.7728 31.9584 60.7728 32.13V32.607C60.7728 32.7691 60.7338 32.8502 60.5485 32.8502" fill="white"/>
<path d="M67.362 24.9855C67.362 24.8234 67.4302 24.79 67.5862 24.79H68.2249C68.3858 24.79 68.4492 24.8234 68.4492 24.9855V32.6687C68.4492 32.8308 68.3858 32.8642 68.2249 32.8642H67.5862C67.4302 32.8642 67.362 32.8308 67.362 32.6687V29.0679H63.1985V32.6687C63.1985 32.8308 63.14 32.8642 62.9742 32.8642H62.3258C62.1844 32.8642 62.1016 32.8308 62.1016 32.6687V24.9855C62.1016 24.8234 62.1844 24.79 62.3258 24.79H62.9742C63.14 24.79 63.1985 24.8234 63.1985 24.9855V28.1475H67.362V24.9855Z" fill="white"/>
<path d="M71.9747 25.7247H69.6736C69.5322 25.7247 69.5078 25.6771 69.5078 25.5388V24.976C69.5078 24.8472 69.5078 24.79 69.6736 24.79H75.4606C75.5971 24.79 75.6215 24.8472 75.6215 24.976V25.5388C75.6215 25.6771 75.5971 25.7247 75.4606 25.7247H73.0863V32.6687C73.0863 32.8308 73.0278 32.8642 72.8767 32.8642H72.2039C72.0478 32.8642 71.9796 32.8308 71.9796 32.6687L71.9747 25.7247Z" fill="white"/>
<path d="M81.4211 31.5863C81.5962 31.5148 81.6545 31.6101 81.6886 31.6769L81.913 32.1539C82.0107 32.3351 81.9622 32.3828 81.8546 32.4543C81.0823 32.8369 80.2236 33.0223 79.3589 32.9932C77.1549 32.9932 75.8438 31.7342 75.8438 28.9442C75.8438 26.345 77.3057 24.6758 79.4415 24.6758C80.2016 24.6569 80.955 24.8207 81.6356 25.1527C81.7326 25.2004 81.7765 25.2672 81.6939 25.415L81.4256 25.9491C81.3771 26.0398 81.343 26.0874 81.2111 26.0303C80.67 25.7937 80.0834 25.6718 79.49 25.6726C77.696 25.6726 76.9548 27.275 76.9548 28.9489C76.9548 30.6229 77.5642 32.006 79.5483 32.006C80.1971 31.9983 80.8368 31.8569 81.4256 31.5911" fill="white"/>
<path d="M85.1265 25.7247H82.83C82.6838 25.7247 82.6641 25.6771 82.6641 25.5388V24.976C82.6641 24.8472 82.6641 24.79 82.83 24.79H88.6272C88.7682 24.79 88.7924 24.8472 88.7924 24.976V25.5388C88.7924 25.6771 88.7682 25.7247 88.6272 25.7247H86.2383V32.6687C86.2383 32.8308 86.1792 32.8642 86.0238 32.8642H85.3508C85.1992 32.8642 85.1265 32.8308 85.1265 32.6687V25.7247Z" fill="white"/>
<path d="M93.1012 28.9393H90.9071V31.9154H93.1012C94.4563 31.9154 94.783 31.0139 94.783 30.4035C94.783 29.5403 94.1979 28.9393 93.1012 28.9393ZM90.9071 28.0523H93.077C93.249 28.0708 93.4226 28.053 93.587 28C93.7515 27.9472 93.9023 27.8603 94.0297 27.7455C94.1562 27.6307 94.257 27.4905 94.3237 27.3344C94.3912 27.1784 94.423 27.0101 94.4177 26.841C94.4185 26.6862 94.3859 26.533 94.3222 26.3915C94.2578 26.2501 94.1638 26.1236 94.0456 26.0207C93.9273 25.9178 93.7879 25.8407 93.6371 25.7946C93.4855 25.7485 93.3263 25.7346 93.1694 25.7536H90.9071V28.0523ZM94.5397 28.4529C94.9588 28.6033 95.3181 28.8824 95.5621 29.2485C95.8062 29.6147 95.9229 30.0483 95.8948 30.4846C95.8948 31.9154 94.7246 32.8691 93.2179 32.8691H90.4198C89.9954 32.8691 89.8203 32.6975 89.8203 32.2921V25.3673C89.8203 24.9619 89.9764 24.7759 90.4198 24.7759H93.0527C94.4905 24.7759 95.5386 25.353 95.5386 26.7599C95.5432 27.0919 95.4515 27.4184 95.2749 27.7018C95.0983 27.9853 94.8436 28.2142 94.5397 28.3623V28.4529Z" fill="white"/>
<path d="M100.255 25.6008C98.5682 25.6008 97.8179 27.065 97.8179 28.7819C97.8179 30.6895 98.3833 32.0392 100.221 32.0392C102.059 32.0392 102.659 30.4892 102.659 28.8296C102.659 27.1699 102.211 25.6008 100.289 25.6008H100.255ZM100.231 32.9835C97.9202 32.9835 96.75 31.4955 96.75 28.8296C96.75 26.1636 98.2127 24.6518 100.255 24.6518C102.566 24.6518 103.77 26.2113 103.77 28.7819C103.77 31.4717 102.552 32.9835 100.231 32.9835Z" fill="white"/>
<path d="M46.7969 42.6028C47.0212 42.5122 47.0895 42.5694 47.1578 42.7411L47.5575 43.5614C47.6599 43.776 47.6258 43.8571 47.4843 43.9382C46.6648 44.3902 45.7334 44.6114 44.7932 44.5773C42.2483 44.5773 41.1172 43.0368 41.1172 40.5043C41.1172 37.9719 42.6334 36.3504 44.8712 36.3504C45.6626 36.3151 46.45 36.4793 47.1578 36.8274C47.3332 36.9227 47.3576 36.98 47.2552 37.228L46.8896 38.0149C46.8116 38.2199 46.7628 38.2676 46.5434 38.1866C46.037 37.9925 45.498 37.8922 44.9541 37.8908C43.6719 37.8908 43.004 39.0068 43.004 40.4948C43.004 41.9828 43.4915 42.9891 45.0223 42.9891C45.6406 42.9697 46.2495 42.8353 46.8165 42.5933" fill="white"/>
<path d="M54.3137 37.9482H52.2027V44.2005C52.2027 44.3961 52.154 44.439 51.9199 44.439H50.6719C50.4866 44.439 50.4038 44.3818 50.4038 44.2005V37.9482H48.3414C48.1757 37.9482 48.1172 37.8766 48.1172 37.7192V36.7034C48.1172 36.5079 48.1659 36.4602 48.3414 36.4602H54.3137C54.499 36.4602 54.5478 36.5079 54.5478 36.7034V37.7192C54.5478 37.8766 54.4795 37.9482 54.3137 37.9482Z" fill="white"/>
<path d="M58.8377 38.0007H57.3215V40.1659H58.8523C59.1458 40.1659 59.4273 40.0519 59.6349 39.8488C59.8424 39.6458 59.959 39.3704 59.959 39.0833C59.959 38.7962 59.8424 38.5209 59.6349 38.3178C59.4273 38.1147 59.1458 38.0007 58.8523 38.0007H58.8377ZM57.3215 44.2006C57.3215 44.4057 57.2776 44.4391 57.0436 44.4391H55.815C55.6297 44.4391 55.5469 44.3818 55.5469 44.2006V37.1471C55.5469 36.7274 55.6882 36.4507 56.2489 36.4507H59.1058C60.7976 36.4507 61.836 37.4999 61.836 38.9498C61.836 39.7272 61.4996 41.5538 58.8718 41.5538H57.3215V44.2006Z" fill="white"/>
<path d="M64.0234 41.3677H65.8565L65.408 39.9369L64.979 38.3059H64.9107L64.4671 39.9369L64.0234 41.3677ZM66.2758 42.7984H63.6041L63.1458 44.2292C63.102 44.377 63.0435 44.4438 62.8192 44.4438H61.4541C61.2932 44.4438 61.2591 44.3294 61.2932 44.2197L63.7309 37.0659C63.8918 36.5414 64.1014 36.4507 64.5792 36.4412H65.2812C65.8078 36.4412 66.0028 36.5079 66.188 37.0659L68.6257 44.2197C68.6598 44.3103 68.6257 44.4438 68.4746 44.4438H67.0851C66.9095 44.4438 66.7975 44.4438 66.7487 44.2626L66.2758 42.7984Z" fill="white"/>
<path d="M74.5276 37.9483H72.4165V44.2006C72.4165 44.3962 72.3726 44.4391 72.1387 44.4391H70.8906C70.7004 44.4391 70.6224 44.3818 70.6224 44.2006V37.9483H68.5553C68.3944 37.9483 68.3359 37.8767 68.3359 37.7193V36.7035C68.3359 36.5079 68.3797 36.4603 68.5553 36.4603H74.5276C74.7128 36.4603 74.7616 36.5079 74.7616 36.7035V37.7193C74.7616 37.8767 74.6933 37.9483 74.5276 37.9483Z" fill="white"/>
<path d="M81.373 44.4486H77.8973C76.1715 44.4486 75.7422 43.3899 75.7422 42.3501V38.5635C75.7422 37.4809 76.3125 36.4507 77.8874 36.4507H81.2365C81.4222 36.4507 81.4563 36.5079 81.4563 36.7273V37.6811C81.4563 37.8767 81.4124 37.9339 81.2365 37.9339H78.2724C77.6631 37.9339 77.5123 38.2391 77.5123 38.6397V39.5173H80.8614C81.0463 39.5173 81.0804 39.5745 81.0804 39.7939V40.681C81.0804 40.867 81.0463 40.9433 80.8614 40.9433H77.5123V42.2453C77.5123 42.7698 77.7798 42.932 78.2724 42.932H81.3533C81.5488 42.932 81.5829 42.9749 81.5829 43.2039V44.1577C81.5829 44.3437 81.5389 44.42 81.3533 44.42" fill="white"/>
<path d="M84.6805 44.2006C84.6805 44.4057 84.6464 44.4391 84.4122 44.4391H83.1738C82.9889 44.4391 82.9062 44.3818 82.9062 44.2006V38.5635C82.9062 37.4761 83.4421 36.4507 85.0511 36.4507H88.4154C88.6102 36.4507 88.6443 36.5079 88.6443 36.7273V37.6811C88.6443 37.8767 88.6003 37.9339 88.4154 37.9339H85.4361C84.8313 37.9339 84.6805 38.2296 84.6805 38.6397V44.2006Z" fill="white"/>
<path d="M94.734 39.1119L93.6957 40.8241L91.7456 43.9479C91.4773 44.3723 91.3507 44.4248 90.8733 44.4248H90.3852C89.7811 44.4248 89.625 44.1196 89.625 43.6379V36.6701C89.625 36.508 89.6978 36.4507 89.8736 36.4507H91.1218C91.331 36.4507 91.3651 36.4985 91.3651 36.6701V41.816H91.4333L92.4087 40.2184L94.427 36.9801C94.6953 36.5462 94.8219 36.4651 95.285 36.4651H95.7723C96.343 36.4651 96.5287 36.6701 96.5287 37.2663V44.2483C96.5287 44.4057 96.4597 44.4629 96.2846 44.4629H95.0364C94.8272 44.4629 94.7779 44.42 94.7779 44.2483V39.1119H94.734Z" fill="white"/>
<path d="M104.09 44.4486H102.818C102.632 44.4486 102.574 44.3914 102.574 44.234V41.6443C102.114 41.7105 101.649 41.744 101.185 41.7445C98.7465 41.7445 97.8984 40.6523 97.8984 38.883V36.6606C97.8984 36.4984 97.9666 36.4412 98.1425 36.4412H99.4248C99.6242 36.4412 99.6681 36.4888 99.6681 36.6606V38.7113C99.6681 39.7844 100.229 40.2088 101.419 40.2088C101.806 40.2096 102.193 40.1744 102.574 40.1039V36.6606C102.574 36.4984 102.632 36.4412 102.818 36.4412H104.09C104.3 36.4412 104.349 36.4888 104.349 36.6606V44.2244C104.349 44.3961 104.3 44.4391 104.09 44.4391" fill="white"/>
<path d="M111.708 44.4486H108.256C106.531 44.4486 106.102 43.3899 106.102 42.3501V38.5635C106.102 37.4809 106.672 36.4507 108.246 36.4507H111.596C111.781 36.4507 111.815 36.5079 111.815 36.7273V37.6811C111.815 37.8767 111.767 37.9339 111.596 37.9339H108.612C108.003 37.9339 107.852 38.2391 107.852 38.6397V39.5173H111.201C111.386 39.5173 111.42 39.5745 111.42 39.7939V40.681C111.42 40.867 111.386 40.9433 111.201 40.9433H107.852V42.2453C107.852 42.7698 108.12 42.932 108.612 42.932H111.689C111.889 42.932 111.923 42.9749 111.923 43.2039V44.1577C111.923 44.3437 111.879 44.42 111.689 44.42" fill="white"/>
<path d="M118.465 42.6029C118.685 42.5123 118.753 42.5696 118.826 42.7412L119.221 43.5615C119.329 43.7762 119.295 43.8573 119.153 43.9383C118.332 44.3905 117.399 44.6116 116.457 44.5774C113.917 44.5774 112.781 43.037 112.781 40.5045C112.781 37.9721 114.302 36.3506 116.54 36.3506C117.331 36.3156 118.118 36.4798 118.826 36.8275C119.002 36.9229 119.026 36.9801 118.919 37.2281L118.558 38.015C118.475 38.2201 118.431 38.2677 118.207 38.1867C117.702 37.9932 117.165 37.8929 116.623 37.891C115.335 37.891 114.648 39.007 114.648 40.495C114.648 41.983 115.136 42.9893 116.667 42.9893C117.287 42.9704 117.897 42.8361 118.465 42.5934" fill="white"/>
<path d="M125.251 40.1946C126.055 40.457 126.255 40.9004 126.43 41.5729L127.152 44.2245C127.177 44.3008 127.186 44.4487 126.991 44.4487H125.636C125.584 44.456 125.531 44.4439 125.487 44.4147C125.444 44.3856 125.413 44.3415 125.402 44.2913L124.7 41.8161C124.466 41.0292 124.061 40.8623 123.237 40.8623H122.262V44.2484C122.262 44.4106 122.204 44.4296 122.053 44.4296H120.702C120.56 44.4296 120.492 44.4296 120.492 44.2484V36.6178C120.492 36.4556 120.56 36.4317 120.702 36.4317H122.067C122.218 36.4317 122.277 36.4556 122.253 36.6178V39.5269H123.183C123.5 39.5573 123.816 39.4678 124.066 39.277C124.316 39.0862 124.482 38.8086 124.53 38.5016L125.051 36.5701C125.062 36.5193 125.092 36.4746 125.135 36.4452C125.179 36.4159 125.233 36.4042 125.285 36.4127H126.592C126.791 36.4127 126.777 36.5605 126.757 36.6416L126.221 38.6828C126.165 38.9732 126.05 39.2497 125.882 39.4955C125.715 39.7414 125.499 39.9515 125.246 40.1135L125.251 40.1946Z" fill="white"/>
<path d="M133.472 39.1119L132.434 40.8241L130.484 43.9479C130.215 44.3723 130.089 44.4248 129.606 44.4248H129.143C128.534 44.4248 128.383 44.1196 128.383 43.6379V36.6701C128.383 36.508 128.456 36.4507 128.626 36.4507H129.874C130.089 36.4507 130.123 36.4985 130.123 36.6701V41.816H130.191L131.167 40.2184L133.185 36.9801C133.453 36.5462 133.584 36.4651 134.048 36.4651H134.535C135.105 36.4651 135.291 36.6701 135.291 37.2663V44.2483C135.291 44.4057 135.223 44.4629 135.047 44.4629H133.799C133.59 44.4629 133.541 44.42 133.541 44.2483V39.1119H133.472Z" fill="white"/>
<path d="M139.76 41.711L138.351 44.2005C138.305 44.2919 138.231 44.3667 138.139 44.4139C138.047 44.4611 137.942 44.4782 137.839 44.4628H136.401C136.264 44.4628 136.226 44.3388 136.284 44.2387L138.77 40.3089L136.493 36.6843C136.425 36.589 136.459 36.4649 136.635 36.4649H138C138.302 36.4649 138.385 36.5126 138.487 36.7177L139.77 38.9401L141.042 36.7177C141.159 36.5126 141.242 36.4649 141.529 36.4649H142.87C143.046 36.4649 143.07 36.589 142.998 36.6939L140.789 40.285L143.27 44.2244C143.287 44.2451 143.298 44.2703 143.3 44.2966C143.303 44.3231 143.298 44.3496 143.286 44.3733C143.273 44.3969 143.254 44.4166 143.231 44.4299C143.207 44.4432 143.18 44.4497 143.153 44.4485H141.691C141.592 44.4587 141.492 44.439 141.405 44.3921C141.318 44.3452 141.248 44.2734 141.203 44.1863L139.76 41.711Z" fill="white"/>
<path d="M46.9325 51.386L45.8942 53.0981L43.944 56.2222C43.6759 56.6463 43.5491 56.7272 43.0713 56.7272H42.5838C41.9792 56.7272 41.8281 56.4175 41.8281 55.9407V48.9442C41.8281 48.782 41.8964 48.7249 42.0719 48.7249H43.32C43.5296 48.7249 43.5637 48.7725 43.5637 48.9442V54.0758H43.632L44.607 52.4829L46.6254 49.2399C46.8936 48.8059 47.0203 48.7249 47.4884 48.7249H47.9759C48.5463 48.7249 48.7316 48.9299 48.7316 49.526V56.5081C48.7316 56.67 48.6633 56.7272 48.4878 56.7272H47.2397C47.0301 56.7272 46.9862 56.6797 46.9862 56.5081V51.386H46.9325Z" fill="white"/>
<path d="M56.9325 56.0378H55.7088C55.5088 56.0378 55.4406 55.9806 55.4406 55.7942V52.5991H52.2766V55.7942C52.2766 55.9903 52.2327 56.0378 51.9987 56.0378H50.7603C50.5751 56.0378 50.4922 55.9806 50.4922 55.7942V48.2878C50.4922 48.1066 50.5751 48.0494 50.7603 48.0494H51.9987C52.2327 48.0494 52.2766 48.0923 52.2766 48.2878V51.1493H55.4406V48.2878C55.4406 48.1066 55.5088 48.0494 55.7088 48.0494H56.9325C57.1665 48.0494 57.2104 48.0923 57.2104 48.2878V55.7942C57.2104 55.9903 57.1665 56.0378 56.9325 56.0378Z" fill="white"/>
<path d="M64.0586 50.6963L63.0202 52.4084L61.07 55.5322C60.8019 55.957 60.6702 56.038 60.1924 56.038H59.7293C59.1199 56.038 58.9688 55.7275 58.9688 55.2507V48.2546C58.9688 48.0923 59.0419 48.0352 59.2126 48.0352H60.4606C60.6702 48.0352 60.7093 48.0828 60.7093 48.2546V53.3861H60.7775L61.7526 51.7932L63.7709 48.5502C64.0391 48.1162 64.1707 48.0352 64.6339 48.0352H65.1214C65.6967 48.0352 65.882 48.2402 65.882 48.8364V55.8181C65.882 55.9808 65.8137 56.038 65.6382 56.038H64.3901C64.1805 56.038 64.1318 55.9904 64.1318 55.8181V50.6963H64.0586Z" fill="white"/>
<path d="M74.3305 54.5068L74.9106 54.564C75.3299 54.5974 75.364 54.7929 75.3543 55.0412L75.2275 57.6785C75.2275 57.8263 75.1544 57.9073 75.0033 57.9073H74.0282C73.8673 57.9073 73.8088 57.836 73.799 57.6688L73.7259 56.0141H68.3631C67.8268 56.0141 67.6172 55.7608 67.6172 55.2461V48.2545C67.6172 48.0923 67.6854 48.0351 67.8609 48.0351H69.1431C69.3528 48.0351 69.4015 48.0827 69.4015 48.2545V54.5402H72.5364V48.2545C72.5364 48.0923 72.6046 48.0351 72.7703 48.0351H74.0525C74.272 48.0351 74.311 48.0827 74.311 48.2545L74.3305 54.5068Z" fill="white"/>
<path d="M81.4041 50.6963L80.3658 52.4084L78.3817 55.5322C78.1134 55.957 77.9868 56.038 77.5093 56.038H77.0212C76.4172 56.038 76.2656 55.7275 76.2656 55.2507V48.2546C76.2656 48.0923 76.3338 48.0352 76.5097 48.0352H77.7579C77.9671 48.0352 78.0012 48.0828 78.0012 48.2546V53.3861H78.0747L79.0494 51.7932L81.0684 48.5502C81.3359 48.1162 81.4633 48.0352 81.9309 48.0352H82.4182C82.9889 48.0352 83.1791 48.2402 83.1791 48.8364V55.8181C83.1791 55.9808 83.1056 56.038 82.9305 56.038H81.6823C81.4724 56.038 81.4292 55.9904 81.4292 55.8181V50.6963H81.4041Z" fill="white"/>
<path d="M86.7471 52.9567H88.5804L88.1363 51.526L87.7073 49.8949H87.6489L87.2056 51.526L86.7471 52.9567ZM88.9995 54.3875H86.3279L85.8747 55.8179C85.8255 55.9657 85.7724 56.0378 85.5481 56.0378H84.1831C84.0217 56.0378 83.983 55.9234 84.0217 55.809L86.4598 48.6549C86.625 48.1256 86.835 48.0349 87.3124 48.0254H88.0097C88.5364 48.0254 88.7365 48.0922 88.9214 48.6549L91.3588 55.809C91.3717 55.8335 91.3778 55.861 91.377 55.8885C91.3755 55.916 91.3664 55.9427 91.3513 55.9657C91.3361 55.9887 91.3149 56.0081 91.2891 56.0207C91.2641 56.0333 91.2361 56.0392 91.208 56.0378H89.7945C89.6187 56.0378 89.502 56.014 89.458 55.8513L88.9995 54.3875Z" fill="white"/>
<path d="M97.2513 49.5326H95.1405V55.7942C95.1405 55.9903 95.0912 56.0378 94.8578 56.0378H93.6096C93.4239 56.0378 93.3413 55.9806 93.3413 55.7942V49.5326H91.279C91.113 49.5326 91.0547 49.461 91.0547 49.3037V48.2878C91.0547 48.0923 91.1039 48.0494 91.279 48.0494H97.2513C97.4369 48.0494 97.4854 48.0923 97.4854 48.2878V49.3037C97.4907 49.3349 97.4877 49.3667 97.4779 49.3967C97.468 49.4267 97.4506 49.454 97.4278 49.4763C97.4051 49.4986 97.3771 49.5153 97.3467 49.5251C97.3157 49.5349 97.2831 49.5375 97.2513 49.5326Z" fill="white"/>
<path d="M103.593 50.6963L102.555 52.4084L100.605 55.5322C100.337 55.957 100.21 56.038 99.7319 56.038H99.2445C98.6352 56.038 98.4844 55.7275 98.4844 55.2507V48.2546C98.4844 48.0923 98.5571 48.0352 98.733 48.0352H99.9805C100.19 48.0352 100.225 48.0828 100.225 48.2546V53.3861H100.293L101.268 51.7932L103.291 48.5502C103.559 48.1162 103.686 48.0352 104.154 48.0352H104.642C105.212 48.0352 105.397 48.2402 105.397 48.8364V55.8181C105.397 55.9808 105.329 56.038 105.154 56.038H103.906C103.696 56.038 103.647 55.9904 103.647 55.8181V50.6963H103.593Z" fill="white"/>
<path d="M110.604 52.4656H108.926V54.5068H110.604C110.749 54.5206 110.896 54.5044 111.035 54.4594C111.174 54.4144 111.301 54.3415 111.409 54.2453C111.518 54.1492 111.604 54.032 111.663 53.9013C111.722 53.7706 111.753 53.6292 111.753 53.4862C111.753 53.3432 111.722 53.2018 111.663 53.0711C111.604 52.9403 111.518 52.8231 111.409 52.727C111.301 52.6309 111.174 52.558 111.035 52.513C110.896 52.468 110.749 52.4518 110.604 52.4656ZM108.926 51.073H110.511C110.624 51.0887 110.739 51.0797 110.848 51.0467C110.956 51.0138 111.056 50.9577 111.14 50.8824C111.224 50.8072 111.29 50.7147 111.333 50.6116C111.376 50.5084 111.395 50.3973 111.389 50.2861C111.393 50.183 111.373 50.0805 111.332 49.9854C111.291 49.8904 111.23 49.8052 111.152 49.7358C111.074 49.6663 110.982 49.6144 110.881 49.5834C110.78 49.5524 110.674 49.5432 110.57 49.5564H108.926V51.073ZM112.339 51.6644C112.726 51.8229 113.054 52.0944 113.277 52.4418C113.501 52.7892 113.609 53.1955 113.587 53.6054C113.587 55.036 112.363 56.0379 110.799 56.0379H107.874C107.313 56.0379 107.172 55.8329 107.172 55.3412V48.7457C107.172 48.2687 107.313 48.0351 107.874 48.0351H110.731C112.14 48.0351 113.237 48.6169 113.237 50.0572C113.234 50.3656 113.15 50.6683 112.993 50.9357C112.836 51.2031 112.611 51.4262 112.339 51.5833V51.6644Z" fill="white"/>
<path d="M22.6328 4.09668L37.2343 12.3235L44.5279 8.18862L22.6328 4.09668Z" fill="#A0CDEB"/>
<path d="M0.734375 0L15.336 8.2268L22.6294 4.09669L0.734375 0Z" fill="#F7403A"/>
<path d="M15.3438 16.4775L29.9453 24.7043L37.2388 20.5742L15.3438 16.4775Z" fill="#E1E6E6"/>
<path d="M44.5278 8.18872L37.2442 20.5742L37.2344 12.3236L44.5278 8.18872Z" fill="white"/>
<path d="M37.2388 20.5742L29.9551 32.9597L29.9453 24.7043L37.2388 20.5742Z" fill="#AFAFAF"/>
<path d="M22.6294 4.09665L15.3457 16.4774L15.3359 8.22669L22.6294 4.09665Z" fill="#AA272F"/>
</g>
<defs>
<clipPath id="clip0_892_8217">
<rect width="144" height="57.931" fill="white"/>
</clipPath>
</defs>
</svg>
