<svg width="144" height="40" viewBox="0 0 144 40" fill="none" xmlns="http://www.w3.org/2000/svg">
<g clip-path="url(#clip0_76_3454)">
<path d="M65.3652 33.7697L70.426 8.60059H70.8463L80.0432 24.4721L88.7184 8.60059H89.1556L94.2499 33.7697H88.7184L86.6503 22.6395L80.11 34.6608H79.7236L72.6957 22.4714L70.5605 33.7697H65.3652Z" fill="#19193C"/>
<path d="M102.506 33.7695V22.2021L93.7969 9.39062H100.825L105.919 17.1078L111.535 9.39062H117.705L108.306 21.9667V33.7695H102.506Z" fill="#19193C"/>
<path d="M119.15 33.77V9.39111H134.299V14.351H124.934V19.2099H133.307V24.1361H124.934V33.77H119.15Z" fill="#19193C"/>
<path d="M138.184 33.77V9.39111H144.001V33.77H138.184Z" fill="#F4F8FB"/>
<path d="M2.00033 10.57L0 19.4176L11.4916 38.9389L43.4741 38.9388L20.4465 0.167969L2.00033 10.57Z" fill="#187DC7"/>
<path d="M0.0117188 19.5329L2.04223 10.5908L4.93181 15.7452L0.0117188 19.5329Z" fill="#41A1E7"/>
<path opacity="0.4" d="M20.3152 0L27.5782 11.9488L11.6465 39.0483L20.3152 0Z" fill="#125F98"/>
<path d="M58.345 13.6086L34.5256 0.142578L11.5508 38.9393H43.3457L58.345 13.6086Z" fill="#18C467"/>
<path opacity="0.3" d="M34.6074 0.234375L58.2707 13.5108L43.3543 38.8922L34.6074 0.234375Z" fill="white" fill-opacity="0.43"/>
</g>
<defs>
<clipPath id="clip0_76_3454">
<rect width="144" height="39.6735" fill="white"/>
</clipPath>
</defs>
</svg>
