<svg width="115" height="34" viewBox="0 0 115 34" fill="none" xmlns="http://www.w3.org/2000/svg">
<g clip-path="url(#clip0_960_37848)">
<path d="M49.7188 28.1897L53.8605 7.59103H54.2045L61.7313 20.5804L68.8312 7.59103H69.1889L73.3582 28.1897H68.8312L67.1386 19.0806L61.786 28.9189H61.4697L55.7181 18.943L53.9706 28.1897H49.7188Z" fill="white"/>
<path d="M80.1197 28.1897V18.7228L72.9922 8.23779H78.744L82.9133 14.5536L87.5089 8.23779H92.559L84.8668 18.5302V28.1897H80.1197Z" fill="white"/>
<path d="M93.7422 28.1898V8.23788H106.14V12.2971H98.4755V16.2737H105.328V20.3053H98.4755V28.1898H93.7422Z" fill="white"/>
<path d="M109.312 28.1898V8.23788H114.073V28.1898H109.312Z" fill="white"/>
<path d="M-2.13635 9.20288L-3.77344 16.4438L5.63141 32.4202L31.8061 32.4201L12.9601 0.689758L-2.13635 9.20288Z" fill="#187DC7"/>
<path d="M-3.76562 16.5381L-2.10384 9.21985L0.261017 13.4382L-3.76562 16.5381Z" fill="#41A1E7"/>
<path opacity="0.4" d="M12.8524 0.552246L18.7965 10.3312L5.75781 32.5097L12.8524 0.552246Z" fill="#125F98"/>
<path d="M43.9764 11.6895L24.4825 0.668762L5.67969 32.4203H31.7009L43.9764 11.6895Z" fill="#18C467"/>
<path opacity="0.3" d="M24.5469 0.743835L43.9131 11.6094L31.7054 32.3817L24.5469 0.743835Z" fill="white" fill-opacity="0.43"/>
</g>
<defs>
<clipPath id="clip0_960_37848">
<rect width="117.851" height="32.4691" fill="white" transform="translate(-3.77344 0.552246)"/>
</clipPath>
</defs>
</svg>
