<svg width="144" height="40" viewBox="0 0 144 40" fill="none" xmlns="http://www.w3.org/2000/svg">
<g clip-path="url(#clip0_892_8205)">
<path d="M65.3672 33.7697L70.4279 8.60059H70.8482L80.0451 24.4721L88.7204 8.60059H89.1575L94.2519 33.7697H88.7204L86.6522 22.6395L80.112 34.6608H79.7255L72.6977 22.4714L70.5624 33.7697H65.3672Z" fill="white"/>
<path d="M102.506 33.7698V22.2024L93.7969 9.39087H100.825L105.919 17.108L111.535 9.39087H117.705L108.306 21.967V33.7698H102.506Z" fill="white"/>
<path d="M119.148 33.7699V9.39096H134.297V14.3508H124.932V19.2098H133.305V24.136H124.932V33.7699H119.148Z" fill="white"/>
<path d="M138.18 33.7699V9.39096H143.997V33.7699H138.18Z" fill="white"/>
<path d="M2.00033 10.5701L0 19.4177L11.4916 38.939L43.4741 38.9389L20.4465 0.16803L2.00033 10.5701Z" fill="#187DC7"/>
<path d="M0.015625 19.5329L2.04614 10.5908L4.93572 15.7452L0.015625 19.5329Z" fill="#41A1E7"/>
<path opacity="0.4" d="M20.3172 0L27.5802 11.9488L11.6484 39.0483L20.3172 0Z" fill="#125F98"/>
<path d="M58.3489 13.6084L34.5295 0.142334L11.5547 38.939H43.3496L58.3489 13.6084Z" fill="#18C467"/>
<path opacity="0.3" d="M34.6094 0.234131L58.2727 13.5106L43.3563 38.892L34.6094 0.234131Z" fill="white" fill-opacity="0.43"/>
</g>
<defs>
<clipPath id="clip0_892_8205">
<rect width="144" height="39.6735" fill="white"/>
</clipPath>
</defs>
</svg>
