<svg width="144" height="32" viewBox="0 0 144 32" fill="none" xmlns="http://www.w3.org/2000/svg">
<g clip-path="url(#clip0_892_8288)">
<path d="M39.3906 0.131073V11.0725H42.3037V2.68625H46.1437V11.0725H49.123V0.131073H39.3906Z" fill="#DB2B21"/>
<path d="M55.2813 8.58276C55.811 8.58276 56.2744 8.51724 56.5393 8.45172C56.8041 8.38621 57.0027 8.18966 57.1351 7.92759C57.2675 7.66552 57.3337 7.27241 57.3337 6.74828V4.38966C57.3337 3.99655 57.2675 3.66897 57.2013 3.4069C57.1351 3.14483 57.0027 3.01379 56.8703 2.88276C56.7379 2.75172 56.5393 2.68621 56.2744 2.62069C56.0096 2.55517 55.6786 2.55517 55.2813 2.55517C54.7517 2.55517 54.2882 2.62069 54.0234 2.68621C53.7586 2.75172 53.5599 2.94828 53.4275 3.14483C53.2951 3.4069 53.2289 3.8 53.2289 4.32414V6.81379C53.2289 7.33793 53.2951 7.73103 53.4275 7.9931C53.5599 8.25517 53.7586 8.38621 54.0234 8.51724C54.2882 8.64828 54.6855 8.58276 55.2813 8.58276ZM55.2813 11.1379C54.4868 11.1379 53.7586 11.0724 53.1627 10.9414C52.5668 10.8103 52.0372 10.6138 51.5737 10.3517C51.1103 10.0897 50.7793 9.63103 50.5144 9.1069C50.2496 8.58276 50.1172 7.92759 50.1172 7.07586V4.06207C50.1172 3.27586 50.2496 2.55517 50.5144 2.03103C50.7793 1.5069 51.1103 1.11379 51.5737 0.786207C52.0372 0.458621 52.5668 0.327586 53.1627 0.196552C53.7586 0.0655172 54.4868 0 55.2813 0C56.0758 0 56.8041 0.0655172 57.3999 0.196552C57.9958 0.327586 58.5255 0.524138 58.9889 0.786207C59.4524 1.04828 59.7834 1.5069 60.0482 2.03103C60.313 2.55517 60.4455 3.21034 60.4455 4.06207V7.14138C60.4455 7.92759 60.313 8.64828 60.0482 9.17241C59.7834 9.69655 59.4524 10.0897 58.9889 10.4172C58.5255 10.6793 57.9958 10.8759 57.3999 11.0069C56.8041 11.0724 56.0758 11.1379 55.2813 11.1379ZM64.2855 5.7H66.2717C66.6689 5.7 66.9337 5.63448 67.1324 5.56897C67.331 5.50345 67.3972 5.37241 67.4634 5.11034C67.5296 4.91379 67.5296 4.52069 67.5296 4.06207C67.5296 3.66897 67.5296 3.34138 67.4634 3.14483C67.3972 2.94828 67.2648 2.81724 67.0662 2.68621C66.8675 2.55517 66.6027 2.55517 66.2055 2.55517H64.2193V5.7H64.2855ZM64.2855 11.0724H61.3724V0.131034H66.9337C67.5958 0.131034 68.1917 0.196552 68.7213 0.327586C69.1848 0.458621 69.582 0.72069 69.8468 1.04828C70.1117 1.37586 70.3765 1.76897 70.5089 2.2931C70.6413 2.81724 70.7075 3.4069 70.7075 4.12759C70.7075 4.91379 70.6413 5.56897 70.5089 6.0931C70.3765 6.61724 70.1779 7.01034 69.913 7.33793C69.6482 7.66552 69.251 7.86207 68.7875 7.9931C68.3241 8.12414 67.662 8.18966 66.8675 8.18966H64.2855V11.0724Z" fill="#DB2B21"/>
<path d="M70.5781 0.131104V2.68628H73.425V11.0725H76.4043V2.68628H79.3174V0.131104H70.5781ZM84.4154 2.29317L85.8057 7.01041H83.0912L84.4154 2.29317ZM82.0981 0.131104L78.7878 11.0725H81.8333L82.363 9.17248H86.3354L86.9312 11.0725H89.9105L86.534 0.131104H82.0981Z" fill="#DB2B21"/>
<path d="M91.5602 0.131073H100.498V11.0725H97.5188V2.68625H94.3409V7.27245C94.3409 8.05866 94.2085 8.77935 94.0099 9.369C93.7451 9.95866 93.414 10.4173 92.8844 10.6793C92.4209 11.0069 91.7588 11.138 91.0306 11.138C90.5009 11.138 89.9713 11.0725 89.5078 11.0069V8.64831C89.7064 8.71383 90.0375 8.77935 90.4347 8.77935C90.832 8.77935 91.0968 8.64831 91.2954 8.45176C91.4278 8.25521 91.5602 7.86211 91.5602 7.33797V0.131073Z" fill="#DB2B21"/>
<path d="M39.3906 15.5276H47.4679V25.4207H46.3423V16.5103H40.5161V25.4207H39.3906V15.5276Z" fill="#B4B1B1"/>
<path d="M49.922 22.6035C49.9882 23.1276 50.1206 23.5207 50.3192 23.7828C50.5179 24.0449 50.8489 24.2414 51.2461 24.3724C51.6434 24.5035 52.173 24.5035 52.9013 24.5035C53.6296 24.5035 54.1592 24.438 54.5565 24.3724C54.9537 24.2414 55.2185 24.0449 55.4834 23.7828C55.682 23.5207 55.8144 23.1276 55.8806 22.6035C55.9468 22.0793 56.013 21.3586 56.013 20.4414C56.013 19.4586 56.013 18.738 55.8806 18.2793C55.8144 17.7552 55.682 17.3621 55.4834 17.1C55.2848 16.838 54.9537 16.6414 54.6227 16.5104C54.1592 16.4449 53.6296 16.3793 52.9013 16.3793C52.173 16.3793 51.6434 16.4449 51.2461 16.5104C50.8489 16.6414 50.5841 16.7724 50.3854 17.1C50.1868 17.3621 50.0544 17.7552 49.9882 18.2793C49.922 18.8035 49.8558 19.5242 49.8558 20.4414C49.7896 21.4242 49.8558 22.1449 49.922 22.6035ZM48.8627 17.8207C48.9951 17.1655 49.1937 16.6414 49.5248 16.3138C49.8558 15.9862 50.253 15.7242 50.7827 15.5931C51.3123 15.4621 52.0406 15.3966 52.9013 15.3966C53.762 15.3966 54.4903 15.4621 55.0199 15.5931C55.5496 15.7242 55.9468 15.9862 56.2779 16.3138C56.6089 16.6414 56.8075 17.1655 56.9399 17.8207C57.0723 18.4759 57.1385 19.3276 57.1385 20.4414C57.1385 21.5552 57.0723 22.4069 56.9399 23.0621C56.8075 23.7173 56.6089 24.2414 56.2779 24.569C55.9468 24.8966 55.5496 25.1586 55.0199 25.2897C54.4903 25.4207 53.762 25.4862 52.9013 25.4862C52.0406 25.4862 51.3123 25.4207 50.7827 25.2897C50.253 25.1586 49.8558 24.8966 49.5248 24.569C49.1937 24.2414 48.9951 23.7173 48.8627 23.0621C48.7303 22.4069 48.6641 21.5552 48.6641 20.4414C48.7303 19.3931 48.7303 18.4759 48.8627 17.8207ZM64.7523 22.0793H65.8117C65.8117 22.9311 65.6792 23.6517 65.4806 24.1104C65.282 24.569 64.8848 24.9621 64.2889 25.1586C63.693 25.3552 62.8985 25.4862 61.8392 25.4862C61.0448 25.4862 60.3827 25.4207 59.9192 25.2897C59.4558 25.1586 58.9923 24.8966 58.7275 24.569C58.3965 24.2414 58.1979 23.7173 58.0654 23.0621C57.933 22.4069 57.8668 21.5552 57.8668 20.5069C57.8668 19.4586 57.933 18.6069 58.0654 17.9517C58.1979 17.2966 58.3965 16.7724 58.7275 16.4449C59.0585 16.0517 59.4558 15.8552 59.9192 15.6586C60.4489 15.5276 61.0448 15.4621 61.8392 15.4621C62.6337 15.4621 63.2958 15.5276 63.7592 15.6586C64.2227 15.7897 64.6199 15.9862 64.8848 16.2483C65.1496 16.5104 65.3482 16.838 65.4144 17.2311C65.5468 17.6242 65.613 18.1483 65.613 18.738H64.5537C64.4875 18.0828 64.3551 17.6242 64.2889 17.2966C64.2227 16.969 63.8917 16.7724 63.5606 16.6414C63.2296 16.5104 62.6337 16.3793 61.8392 16.3793C61.2434 16.3793 60.7799 16.4449 60.3827 16.5759C60.0516 16.7069 59.7206 16.9035 59.522 17.1655C59.3234 17.4276 59.191 17.8862 59.0585 18.4104C58.8829 19.8027 58.8829 21.2112 59.0585 22.6035C59.1248 23.1276 59.3234 23.5207 59.522 23.7828C59.7206 24.0449 60.0516 24.2414 60.3827 24.3724C60.7137 24.5035 61.2434 24.5035 61.8392 24.5035C62.4351 24.5035 62.9648 24.438 63.2958 24.3724C63.693 24.3069 63.9579 24.1759 64.1565 23.9793C64.3551 23.7828 64.4875 23.5862 64.6199 23.2586C64.6861 22.9966 64.7523 22.6035 64.7523 22.0793Z" fill="#B4B1B1"/>
<path d="M69.2557 25.4207V16.5103H65.9453V15.5276H73.6253V16.5103H70.3812V25.4207H69.2557ZM80.577 22.4069L78.3922 16.3138L76.2074 22.4069H80.577ZM73.8239 25.4207L77.4653 15.5276H79.0543L82.7619 25.4207H81.5702L80.8419 23.3897H75.8101L75.0157 25.4207H73.8239Z" fill="#B4B1B1"/>
<path d="M84.8755 20.769V24.3724H87.9872C88.4507 24.3724 88.8479 24.3724 89.1128 24.3069C89.3776 24.2414 89.6424 24.1759 89.7748 24.0448C89.9735 23.9138 90.1059 23.7172 90.1721 23.5207C90.2383 23.2586 90.3045 22.931 90.3045 22.5379C90.3045 22.0138 90.2383 21.6207 90.1721 21.3586C90.0397 21.0966 89.9072 20.9655 89.6424 20.8345C89.3776 20.769 88.9804 20.7034 88.4507 20.7034H84.8755V20.769ZM84.8755 16.5103V19.8517H88.0535C88.5831 19.8517 88.9141 19.7862 89.2452 19.7207C89.51 19.5897 89.7086 19.4586 89.841 19.1966C89.9734 18.9345 90.0397 18.6069 90.0397 18.0828C90.0397 17.4931 89.9072 17.0345 89.7086 16.8379C89.51 16.6414 89.1128 16.5103 88.5169 16.5103H84.8755ZM88.8479 25.4207H83.75V15.5276H88.5831C89.4438 15.5276 90.1059 15.7241 90.5031 16.1172C90.9003 16.5103 91.099 17.1 91.099 18.0172C91.099 18.4103 91.099 18.8034 91.0328 19.0655C90.9666 19.3276 90.8341 19.5897 90.7017 19.7862C90.5693 19.9828 90.2383 20.1793 89.9072 20.3103C90.3045 20.4414 90.6355 20.5724 90.9004 20.769C91.099 20.9655 91.2976 21.2276 91.3638 21.4897C91.43 21.7517 91.4962 22.1448 91.4962 22.6034C91.4962 23.5207 91.2976 24.2414 90.9004 24.7C90.4369 25.1586 89.7748 25.4207 88.8479 25.4207Z" fill="#B4B1B1"/>
<path d="M98.8447 15.5276H99.9703V24.4379H105.068V15.5276H106.194V24.4379H106.856V27.7138H105.863V25.4207H92.6875V15.5276H93.7468V24.4379H98.8447V15.5276ZM107.981 15.5276H109.107V24.6345L114.801 15.5276H116.588V25.4207H115.463V16.3793L109.769 25.4207H107.981V15.5276ZM119.303 15.5276V19.8517H120.296L124.401 15.5276H125.857L121.289 20.3103L126.387 25.4207H124.864L120.296 20.8345H119.303V25.4207H118.177V15.5276H119.303Z" fill="#B4B1B1"/>
<path d="M128.047 22.6035C128.113 23.1276 128.246 23.5207 128.444 23.7828C128.643 24.0449 128.974 24.2414 129.371 24.3724C129.768 24.5035 130.298 24.5035 131.026 24.5035C131.755 24.5035 132.284 24.438 132.681 24.3724C133.079 24.2414 133.344 24.0449 133.608 23.7828C133.807 23.5207 133.939 23.1276 134.006 22.6035C134.072 22.0793 134.138 21.3586 134.138 20.4414C134.138 19.4586 134.072 18.738 134.006 18.2793C133.939 17.7552 133.807 17.3621 133.608 17.1C133.41 16.838 133.079 16.6414 132.748 16.5104C132.35 16.3793 131.821 16.3793 131.093 16.3793C130.364 16.3793 129.835 16.4449 129.437 16.5104C129.04 16.6414 128.775 16.7724 128.577 17.1C128.378 17.3621 128.246 17.7552 128.179 18.2793C128.113 18.8035 128.047 19.5242 128.047 20.4414C127.915 21.4242 127.981 22.1449 128.047 22.6035ZM126.988 17.8207C127.12 17.1655 127.319 16.6414 127.65 16.3138C127.981 15.9862 128.378 15.7242 128.908 15.5931C129.437 15.4621 130.166 15.3966 131.026 15.3966C131.887 15.3966 132.615 15.4621 133.145 15.5931C133.675 15.7242 134.072 15.9862 134.403 16.3138C134.734 16.6414 134.933 17.1655 135.065 17.8207C135.197 18.4759 135.264 19.3276 135.264 20.4414C135.264 21.5552 135.197 22.4069 135.065 23.0621C134.933 23.7173 134.734 24.2414 134.403 24.569C134.072 24.8966 133.675 25.1586 133.145 25.2897C132.615 25.4207 131.887 25.4862 131.026 25.4862C130.166 25.4862 129.437 25.4207 128.908 25.2897C128.378 25.1586 127.981 24.8966 127.65 24.569C127.319 24.2414 127.12 23.7173 126.988 23.0621C126.855 22.4069 126.789 21.5552 126.789 20.4414C126.789 19.3931 126.855 18.4759 126.988 17.8207ZM137.448 20.769V24.3724H140.56C141.024 24.3724 141.421 24.3724 141.686 24.3069C141.95 24.2414 142.215 24.1759 142.348 24.0449C142.546 23.9138 142.679 23.7173 142.745 23.5207C142.811 23.2586 142.877 22.9311 142.877 22.538C142.877 22.0138 142.811 21.6207 142.745 21.3586C142.613 21.0966 142.48 20.9655 142.215 20.8345C141.95 20.769 141.553 20.7035 141.024 20.7035H137.448V20.769ZM137.448 16.5104V19.8517H140.626C141.156 19.8517 141.487 19.7862 141.818 19.7207C142.083 19.5897 142.281 19.4586 142.414 19.1966C142.546 18.9345 142.613 18.6069 142.613 18.0828C142.613 17.4931 142.48 17.0345 142.281 16.838C142.083 16.6414 141.686 16.5104 141.09 16.5104H137.448ZM141.421 25.4207H136.323V15.5276H141.156C142.017 15.5276 142.679 15.7242 143.076 16.1173C143.473 16.5104 143.672 17.1 143.672 18.0173C143.672 18.4104 143.672 18.8035 143.606 19.0655C143.539 19.3276 143.407 19.5897 143.275 19.7862C143.142 19.9828 142.811 20.1793 142.48 20.3104C142.877 20.4414 143.208 20.5724 143.473 20.769C143.672 20.9655 143.87 21.2276 143.937 21.4897C144.003 21.7517 144.069 22.1449 144.069 22.6035C144.069 23.5207 143.87 24.2414 143.473 24.7C143.01 25.1586 142.348 25.4207 141.421 25.4207Z" fill="#B4B1B1"/>
<path d="M5.42897 10.6793H20.9876V26.0758H5.42897V10.6793ZM0 31.4483H26.4166V5.30688H0V31.4483Z" fill="#B4B1B1"/>
<path d="M10.7883 5.37241H26.347V20.769H10.7883V5.37241ZM5.35938 26.1414H31.7759V0H5.35938V26.1414Z" fill="#DB2B21"/>
<path d="M20.9844 5.3724V26.1414L26.4133 31.4483V5.30688L20.9844 5.3724Z" fill="#B4B1B1"/>
</g>
<defs>
<clipPath id="clip0_892_8288">
<rect width="144" height="31.4483" fill="white"/>
</clipPath>
</defs>
</svg>
