<svg width="118" height="27" viewBox="0 0 118 27" fill="none" xmlns="http://www.w3.org/2000/svg">
<g clip-path="url(#clip0_960_37931)">
<path d="M32.2891 0.933167V9.88768H34.6732V3.02434H37.8159V9.88768H40.2541V0.933167H32.2891Z" fill="#DB2B21"/>
<path d="M45.2889 7.85006C45.7223 7.85006 46.1016 7.79644 46.3184 7.74283C46.5351 7.68921 46.6977 7.52835 46.806 7.31387C46.9144 7.09939 46.9686 6.77767 46.9686 6.34871V4.4184C46.9686 4.09668 46.9144 3.82858 46.8602 3.6141C46.806 3.39962 46.6977 3.29238 46.5893 3.18514C46.4809 3.0779 46.3184 3.02428 46.1016 2.97066C45.8849 2.91704 45.614 2.91704 45.2889 2.91704C44.8554 2.91704 44.4761 2.97066 44.2594 3.02428C44.0426 3.0779 43.8801 3.23876 43.7717 3.39962C43.6633 3.6141 43.6092 3.93582 43.6092 4.36478V6.40233C43.6092 6.83129 43.6633 7.15301 43.7717 7.36749C43.8801 7.58197 44.0426 7.68921 44.2594 7.79644C44.4761 7.90368 44.8012 7.85006 45.2889 7.85006ZM45.2889 9.94124C44.6387 9.94124 44.0426 9.88762 43.555 9.78038C43.0673 9.67314 42.6338 9.51228 42.2546 9.2978C41.8753 9.08332 41.6043 8.70798 41.3876 8.27902C41.1709 7.85006 41.0625 7.31387 41.0625 6.61681V4.1503C41.0625 3.50686 41.1709 2.91704 41.3876 2.48808C41.6043 2.05912 41.8753 1.7374 42.2546 1.4693C42.6338 1.20121 43.0673 1.09397 43.555 0.986726C44.0426 0.879487 44.6387 0.825867 45.2889 0.825867C45.9391 0.825867 46.5351 0.879487 47.0228 0.986726C47.5104 1.09397 47.9439 1.25483 48.3232 1.4693C48.7025 1.68378 48.9734 2.05912 49.1901 2.48808C49.4069 2.91704 49.5152 3.45324 49.5152 4.1503V6.67043C49.5152 7.31387 49.4069 7.90368 49.1901 8.33264C48.9734 8.7616 48.7025 9.08332 48.3232 9.35142C47.9439 9.5659 47.5104 9.72676 47.0228 9.834C46.5351 9.88762 45.9391 9.94124 45.2889 9.94124ZM52.6579 5.49079H54.2835C54.6086 5.49079 54.8253 5.43717 54.9879 5.38355C55.1504 5.32993 55.2046 5.22269 55.2588 5.00821C55.313 4.84735 55.313 4.52564 55.313 4.1503C55.313 3.82858 55.313 3.56048 55.2588 3.39962C55.2046 3.23876 55.0962 3.13152 54.9337 3.02428C54.7711 2.91704 54.5544 2.91704 54.2293 2.91704H52.6037V5.49079H52.6579ZM52.6579 9.88762H50.2738V0.933106H54.8253C55.3671 0.933106 55.8548 0.986726 56.2883 1.09397C56.6676 1.20121 56.9927 1.41568 57.2094 1.68378C57.4261 1.95188 57.6429 2.2736 57.7512 2.70256C57.8596 3.13152 57.9138 3.6141 57.9138 4.20392C57.9138 4.84735 57.8596 5.38355 57.7512 5.81251C57.6429 6.24147 57.4803 6.56319 57.2636 6.83129C57.0469 7.09939 56.7217 7.26025 56.3425 7.36749C55.9632 7.47473 55.4213 7.52835 54.7711 7.52835H52.6579V9.88762Z" fill="#DB2B21"/>
<path d="M57.8047 0.933167V3.02434H60.1346V9.88768H62.5729V3.02434H64.957V0.933167H57.8047ZM69.1292 2.70262L70.2671 6.56325H68.0455L69.1292 2.70262ZM67.2327 0.933167L64.5235 9.88768H67.016L67.4495 8.3327H70.7005L71.1882 9.88768H73.6265L70.8631 0.933167H67.2327Z" fill="#DB2B21"/>
<path d="M74.9844 0.933167H82.2993V9.88768H79.861V3.02434H77.2601V6.77773C77.2601 7.42117 77.1518 8.01098 76.9892 8.49356C76.7725 8.97614 76.5016 9.35148 76.0681 9.56596C75.6888 9.83406 75.147 9.9413 74.5509 9.9413C74.1175 9.9413 73.684 9.88768 73.3047 9.83406V7.90374C73.4672 7.95736 73.7382 8.01098 74.0633 8.01098C74.3884 8.01098 74.6051 7.90374 74.7677 7.74289C74.876 7.58203 74.9844 7.26031 74.9844 6.83135V0.933167Z" fill="#DB2B21"/>
<path d="M32.2891 13.5338H38.8995V21.6303H37.9784V14.338H33.2102V21.6303H32.2891V13.5338Z" fill="#B4B1B1"/>
<path d="M40.9045 19.3247C40.9587 19.7537 41.0671 20.0754 41.2296 20.2899C41.3922 20.5044 41.6631 20.6652 41.9882 20.7725C42.3133 20.8797 42.7468 20.8797 43.3428 20.8797C43.9388 20.8797 44.3723 20.8261 44.6974 20.7725C45.0225 20.6652 45.2392 20.5044 45.456 20.2899C45.6185 20.0754 45.7269 19.7537 45.7811 19.3247C45.8353 18.8958 45.8895 18.3059 45.8895 17.5553C45.8895 16.751 45.8895 16.1612 45.7811 15.7858C45.7269 15.3569 45.6185 15.0351 45.456 14.8207C45.2934 14.6062 45.0225 14.4453 44.7516 14.3381C44.3723 14.2845 43.9388 14.2308 43.3428 14.2308C42.7468 14.2308 42.3133 14.2845 41.9882 14.3381C41.6631 14.4453 41.4463 14.5526 41.2838 14.8207C41.1212 15.0351 41.0129 15.3569 40.9587 15.7858C40.9045 16.2148 40.8503 16.8046 40.8503 17.5553C40.7961 18.3596 40.8503 18.9494 40.9045 19.3247ZM40.0376 15.4105C40.1459 14.8743 40.3085 14.4453 40.5794 14.1772C40.8503 13.9091 41.1754 13.6946 41.6089 13.5874C42.0424 13.4802 42.6384 13.4265 43.3428 13.4265C44.0472 13.4265 44.6432 13.4802 45.0767 13.5874C45.5102 13.6946 45.8353 13.9091 46.1062 14.1772C46.3771 14.4453 46.5397 14.8743 46.648 15.4105C46.7564 15.9467 46.8106 16.6437 46.8106 17.5553C46.8106 18.4668 46.7564 19.1639 46.648 19.7001C46.5397 20.2363 46.3771 20.6652 46.1062 20.9333C45.8353 21.2014 45.5102 21.4159 45.0767 21.5231C44.6432 21.6304 44.0472 21.684 43.3428 21.684C42.6384 21.684 42.0424 21.6304 41.6089 21.5231C41.1754 21.4159 40.8503 21.2014 40.5794 20.9333C40.3085 20.6652 40.1459 20.2363 40.0376 19.7001C39.9292 19.1639 39.875 18.4668 39.875 17.5553C39.9292 16.6974 39.9292 15.9467 40.0376 15.4105ZM53.0418 18.8958H53.9087C53.9087 19.5928 53.8004 20.1826 53.6378 20.558C53.4753 20.9333 53.1501 21.255 52.6625 21.4159C52.1748 21.5768 51.5246 21.684 50.6577 21.684C50.0075 21.684 49.4656 21.6304 49.0863 21.5231C48.707 21.4159 48.3277 21.2014 48.111 20.9333C47.8401 20.6652 47.6775 20.2363 47.5692 19.7001C47.4608 19.1639 47.4066 18.4668 47.4066 17.6089C47.4066 16.751 47.4608 16.0539 47.5692 15.5177C47.6775 14.9815 47.8401 14.5526 48.111 14.2845C48.3819 13.9627 48.707 13.8019 49.0863 13.641C49.5198 13.5338 50.0075 13.4802 50.6577 13.4802C51.3079 13.4802 51.8497 13.5338 52.229 13.641C52.6083 13.7483 52.9334 13.9091 53.1501 14.1236C53.3669 14.3381 53.5294 14.6062 53.5836 14.9279C53.692 15.2496 53.7462 15.6786 53.7462 16.1612H52.8792C52.825 15.625 52.7167 15.2496 52.6625 14.9815C52.6083 14.7134 52.3374 14.5526 52.0665 14.4453C51.7955 14.3381 51.3079 14.2308 50.6577 14.2308C50.17 14.2308 49.7907 14.2845 49.4656 14.3917C49.1947 14.4989 48.9238 14.6598 48.7612 14.8743C48.5987 15.0888 48.4903 15.4641 48.3819 15.8931C48.2382 17.0325 48.2382 18.1853 48.3819 19.3247C48.4361 19.7537 48.5987 20.0754 48.7612 20.2899C48.9238 20.5044 49.1947 20.6652 49.4656 20.7725C49.7365 20.8797 50.17 20.8797 50.6577 20.8797C51.1453 20.8797 51.5788 20.8261 51.8497 20.7725C52.1748 20.7188 52.3916 20.6116 52.5541 20.4507C52.7167 20.2899 52.825 20.129 52.9334 19.8609C52.9876 19.6464 53.0418 19.3247 53.0418 18.8958Z" fill="#B4B1B1"/>
<path d="M56.7248 21.6304V14.3381H54.0156V13.5338H60.301V14.3381H57.646V21.6304H56.7248ZM65.9904 19.1639L64.2023 14.1772L62.4142 19.1639H65.9904ZM60.4636 21.6304L63.4437 13.5338H64.7441L67.7784 21.6304H66.8031L66.2071 19.9682H62.0891L61.4389 21.6304H60.4636Z" fill="#B4B1B1"/>
<path d="M69.5071 17.8234V20.7725H72.0537C72.433 20.7725 72.7581 20.7725 72.9749 20.7188C73.1916 20.6652 73.4083 20.6116 73.5167 20.5044C73.6793 20.3971 73.7876 20.2363 73.8418 20.0754C73.896 19.8609 73.9502 19.5928 73.9502 19.2711C73.9502 18.8421 73.896 18.5204 73.8418 18.3059C73.7334 18.0915 73.6251 17.9842 73.4083 17.877C73.1916 17.8234 72.8665 17.7697 72.433 17.7697H69.5071V17.8234ZM69.5071 14.3381V17.0727H72.1079C72.5414 17.0727 72.8123 17.0191 73.0832 16.9655C73.3 16.8582 73.4625 16.751 73.5709 16.5365C73.6793 16.322 73.7334 16.0539 73.7334 15.625C73.7334 15.1424 73.6251 14.767 73.4625 14.6062C73.3 14.4453 72.9749 14.3381 72.4872 14.3381H69.5071ZM72.7581 21.6304H68.5859V13.5338H72.5414C73.2458 13.5338 73.7876 13.6946 74.1127 14.0164C74.4378 14.3381 74.6004 14.8207 74.6004 15.5713C74.6004 15.8931 74.6004 16.2148 74.5462 16.4293C74.492 16.6437 74.3837 16.8582 74.2753 17.0191C74.1669 17.1799 73.896 17.3408 73.6251 17.448C73.9502 17.5553 74.2211 17.6625 74.4378 17.8234C74.6004 17.9842 74.7629 18.1987 74.8171 18.4132C74.8713 18.6277 74.9255 18.9494 74.9255 19.3247C74.9255 20.0754 74.7629 20.6652 74.4378 21.0406C74.0586 21.4159 73.5167 21.6304 72.7581 21.6304Z" fill="#B4B1B1"/>
<path d="M80.9454 13.5338H81.8665V20.8261H86.0387V13.5338H86.9598V20.8261H87.5017V23.5071H86.6889V21.6304H75.9062V13.5338H76.7732V20.8261H80.9454V13.5338ZM88.4228 13.5338H89.3439V20.9869L94.0038 13.5338H95.4668V21.6304H94.5456V14.2308L89.8858 21.6304H88.4228V13.5338ZM97.6883 13.5338V17.0727H98.5011L101.86 13.5338H103.053L99.3138 17.448L103.486 21.6304H102.24L98.5011 17.877H97.6883V21.6304H96.7672V13.5338H97.6883Z" fill="#B4B1B1"/>
<path d="M104.842 19.3247C104.896 19.7537 105.005 20.0754 105.167 20.2899C105.33 20.5044 105.601 20.6652 105.926 20.7725C106.251 20.8797 106.684 20.8797 107.28 20.8797C107.876 20.8797 108.31 20.8261 108.635 20.7725C108.96 20.6652 109.177 20.5044 109.393 20.2899C109.556 20.0754 109.664 19.7537 109.719 19.3247C109.773 18.8958 109.827 18.3059 109.827 17.5553C109.827 16.751 109.773 16.1612 109.719 15.7858C109.664 15.3569 109.556 15.0351 109.393 14.8207C109.231 14.6062 108.96 14.4453 108.689 14.3381C108.364 14.2308 107.931 14.2308 107.334 14.2308C106.738 14.2308 106.305 14.2845 105.98 14.3381C105.655 14.4453 105.438 14.5526 105.275 14.8207C105.113 15.0351 105.005 15.3569 104.95 15.7858C104.896 16.2148 104.842 16.8046 104.842 17.5553C104.734 18.3596 104.788 18.9494 104.842 19.3247ZM103.975 15.4105C104.083 14.8743 104.246 14.4453 104.517 14.1772C104.788 13.9091 105.113 13.6946 105.546 13.5874C105.98 13.4802 106.576 13.4265 107.28 13.4265C107.985 13.4265 108.581 13.4802 109.014 13.5874C109.448 13.6946 109.773 13.9091 110.044 14.1772C110.315 14.4453 110.477 14.8743 110.586 15.4105C110.694 15.9467 110.748 16.6437 110.748 17.5553C110.748 18.4668 110.694 19.1639 110.586 19.7001C110.477 20.2363 110.315 20.6652 110.044 20.9333C109.773 21.2014 109.448 21.4159 109.014 21.5231C108.581 21.6304 107.985 21.684 107.28 21.684C106.576 21.684 105.98 21.6304 105.546 21.5231C105.113 21.4159 104.788 21.2014 104.517 20.9333C104.246 20.6652 104.083 20.2363 103.975 19.7001C103.867 19.1639 103.812 18.4668 103.812 17.5553C103.812 16.6974 103.867 15.9467 103.975 15.4105ZM112.536 17.8234V20.7725H115.083C115.462 20.7725 115.787 20.7725 116.004 20.7188C116.221 20.6652 116.437 20.6116 116.546 20.5044C116.708 20.3971 116.817 20.2363 116.871 20.0754C116.925 19.8609 116.979 19.5928 116.979 19.2711C116.979 18.8421 116.925 18.5204 116.871 18.3059C116.763 18.0915 116.654 17.9842 116.437 17.877C116.221 17.8234 115.896 17.7698 115.462 17.7698H112.536V17.8234ZM112.536 14.3381V17.0727H115.137C115.57 17.0727 115.841 17.0191 116.112 16.9655C116.329 16.8582 116.492 16.751 116.6 16.5365C116.708 16.322 116.763 16.0539 116.763 15.625C116.763 15.1424 116.654 14.767 116.492 14.6062C116.329 14.4453 116.004 14.3381 115.516 14.3381H112.536ZM115.787 21.6304H111.615V13.5338H115.57C116.275 13.5338 116.817 13.6946 117.142 14.0164C117.467 14.3381 117.629 14.8207 117.629 15.5713C117.629 15.8931 117.629 16.2148 117.575 16.4293C117.521 16.6437 117.413 16.8582 117.304 17.0191C117.196 17.1799 116.925 17.3408 116.654 17.448C116.979 17.5553 117.25 17.6625 117.467 17.8234C117.629 17.9842 117.792 18.1987 117.846 18.4132C117.9 18.6277 117.955 18.9494 117.955 19.3247C117.955 20.0754 117.792 20.6652 117.467 21.0406C117.088 21.4159 116.546 21.6304 115.787 21.6304Z" fill="#B4B1B1"/>
<path d="M4.48998 9.56589H17.2233V22.1665H4.48998V9.56589ZM0.046875 26.5634H21.6664V5.16907H0.046875V26.5634Z" fill="#B4B1B1"/>
<path d="M8.88061 5.22269H21.6139V17.8234H8.88061V5.22269ZM4.4375 22.2202H26.057V0.825867H4.4375V22.2202Z" fill="#DB2B21"/>
<path d="M17.2266 5.22269V22.2202L21.6697 26.5634V5.16907L17.2266 5.22269Z" fill="#B4B1B1"/>
</g>
<defs>
<clipPath id="clip0_960_37931">
<rect width="117.851" height="25.7375" fill="white" transform="translate(0.046875 0.825867)"/>
</clipPath>
</defs>
</svg>
