<svg width="99" height="27" viewBox="0 0 99 27" fill="none" xmlns="http://www.w3.org/2000/svg">
<path d="M78.0942 8.01799L81.7281 5.34824H69.5625V21.3406H81.7281V18.6709H73.0384V14.5877H80.4641V11.9179H73.0384V8.01799H78.0942Z" fill="#21A038"/>
<path d="M60.3688 11.5777H56.1556V8.01805H62.8967L66.5306 5.3483H52.6797V21.3407H59.9211C63.9763 21.3407 66.3199 19.5085 66.3199 16.3152C66.3199 13.2529 64.2133 11.5777 60.3688 11.5777ZM59.7895 18.6709H56.1556V14.2475H59.7895C62.0014 14.2475 63.0284 14.9804 63.0284 16.4723C63.0284 17.9642 61.9224 18.6709 59.7895 18.6709Z" fill="#21A038"/>
<path d="M91.5704 5.3483H84.9609V21.3407H88.4368V16.8126H91.5967C95.8099 16.8126 98.4432 14.6139 98.4432 11.0804C98.4432 7.54692 95.8099 5.3483 91.5704 5.3483ZM91.4914 14.1428H88.4105V8.01805H91.4914C93.7296 8.01805 94.9409 9.11737 94.9409 11.0804C94.9409 13.0435 93.7296 14.1428 91.4914 14.1428Z" fill="#21A038"/>
<path d="M46.7329 17.8859C45.8112 18.3832 44.7843 18.6449 43.731 18.6449C40.5974 18.6449 38.3328 16.4201 38.3328 13.3578C38.3328 10.2954 40.5974 8.0706 43.731 8.0706C44.8633 8.04442 45.9692 8.41086 46.8909 9.06521L49.3925 7.23303L49.2345 7.07598C47.7862 5.79345 45.8376 5.1391 43.6256 5.1391C41.2294 5.1391 39.0438 5.9505 37.4638 7.41625C35.8839 8.93434 34.9886 11.0544 35.0413 13.2531C35.0149 15.4779 35.8839 17.6241 37.4638 19.1946C39.1228 20.7389 41.3347 21.6026 43.5993 21.5503C46.1009 21.5503 48.2865 20.6865 49.7611 19.1161L47.5229 17.4671L46.7329 17.8859Z" fill="#21A038"/>
<path d="M24.16 5.24365C24.792 6.05505 25.3186 6.94497 25.7663 7.88724L13.6007 16.8126L8.49219 13.6194V9.79795L13.5744 12.965L24.16 5.24365Z" fill="#21A038"/>
<path d="M3.30746 13.3576C3.30746 13.1744 3.30746 13.0173 3.33379 12.8341L0.252895 12.6771C0.252895 12.8865 0.226562 13.122 0.226562 13.3314C0.226562 16.9958 1.72751 20.3199 4.1501 22.7279L6.33569 20.5555C4.46609 18.7233 3.30746 16.1844 3.30746 13.3576Z" fill="url(#paint0_linear_960_37903)"/>
<path d="M13.5755 3.14983C13.7598 3.14983 13.9178 3.14983 14.1021 3.17601L14.2601 0.113637C14.0494 0.113637 13.8124 0.0874634 13.6018 0.0874634C9.91525 0.0874634 6.57102 1.57939 4.14844 3.9874L6.33403 6.15985C8.1773 4.30149 10.7579 3.14983 13.5755 3.14983Z" fill="url(#paint1_linear_960_37903)"/>
<path d="M13.5753 23.5655C13.3909 23.5655 13.2329 23.5655 13.0486 23.5393L12.8906 26.6017C13.1013 26.6017 13.3383 26.6278 13.5489 26.6278C17.2355 26.6278 20.5797 25.1359 23.0023 22.7279L20.8167 20.5555C18.9734 22.44 16.4192 23.5655 13.5753 23.5655Z" fill="url(#paint2_linear_960_37903)"/>
<path d="M19.3713 4.9296L21.9782 3.01889C19.6873 1.1867 16.7644 0.0612183 13.5781 0.0612183V3.12359C15.7374 3.14976 17.7387 3.80411 19.3713 4.9296Z" fill="url(#paint3_linear_960_37903)"/>
<path d="M26.9543 13.3575C26.9543 12.5461 26.8754 11.7609 26.7437 10.9756L23.8735 13.0957C23.8735 13.1743 23.8735 13.279 23.8735 13.3575C23.8735 16.3675 22.5568 19.0634 20.4766 20.9218L22.5568 23.199C25.2427 20.7909 26.9543 17.2574 26.9543 13.3575Z" fill="#21A038"/>
<path d="M13.5807 23.5658C10.5525 23.5658 7.84022 22.2571 5.97061 20.1893L3.67969 22.2571C6.12861 24.953 9.65716 26.6282 13.5807 26.6282V23.5658Z" fill="url(#paint4_linear_960_37903)"/>
<path d="M6.70435 5.79317L4.62408 3.51602C1.91184 5.95021 0.226562 9.45754 0.226562 13.3575H3.30746C3.30746 10.3736 4.62408 7.65153 6.70435 5.79317Z" fill="url(#paint5_linear_960_37903)"/>
<defs>
<linearGradient id="paint0_linear_960_37903" x1="3.83141" y1="22.3553" x2="0.71181" y2="13.3124" gradientUnits="userSpaceOnUse">
<stop offset="0.1444" stop-color="#F2E913"/>
<stop offset="0.3037" stop-color="#E7E518"/>
<stop offset="0.5823" stop-color="#CADB26"/>
<stop offset="0.891" stop-color="#A3CD39"/>
</linearGradient>
<linearGradient id="paint1_linear_960_37903" x1="5.02665" y1="3.63235" x2="13.0077" y2="0.582334" gradientUnits="userSpaceOnUse">
<stop offset="0.0592" stop-color="#0FA8E0"/>
<stop offset="0.5385" stop-color="#0099F9"/>
<stop offset="0.9234" stop-color="#0291EB"/>
</linearGradient>
<linearGradient id="paint2_linear_960_37903" x1="12.7097" y1="24.0156" x2="22.2285" y2="21.8581" gradientUnits="userSpaceOnUse">
<stop offset="0.1226" stop-color="#A3CD39"/>
<stop offset="0.2846" stop-color="#86C339"/>
<stop offset="0.8693" stop-color="#21A038"/>
</linearGradient>
<linearGradient id="paint3_linear_960_37903" x1="12.9451" y1="2.02058" x2="20.8584" y2="4.4691" gradientUnits="userSpaceOnUse">
<stop offset="0.0566" stop-color="#0291EB"/>
<stop offset="0.79" stop-color="#0C8ACB"/>
</linearGradient>
<linearGradient id="paint4_linear_960_37903" x1="4.46305" y1="22.7545" x2="12.9577" y2="25.9374" gradientUnits="userSpaceOnUse">
<stop offset="0.1324" stop-color="#F2E913"/>
<stop offset="0.2977" stop-color="#EBE716"/>
<stop offset="0.5306" stop-color="#D9E01F"/>
<stop offset="0.8023" stop-color="#BBD62D"/>
<stop offset="0.9829" stop-color="#A3CD39"/>
</linearGradient>
<linearGradient id="paint5_linear_960_37903" x1="2.57084" y1="13.7274" x2="5.94489" y2="4.9254" gradientUnits="userSpaceOnUse">
<stop offset="0.0698" stop-color="#A3CD39"/>
<stop offset="0.2599" stop-color="#81C55F"/>
<stop offset="0.9216" stop-color="#0FA8E0"/>
</linearGradient>
</defs>
</svg>
