<svg width="121" height="33" viewBox="0 0 121 33" fill="none" xmlns="http://www.w3.org/2000/svg">
<path d="M95.2373 10.0099L99.6775 6.74774H84.8125V26.2886H99.6775V23.0264H89.0596V18.0373H98.133V14.7752H89.0596V10.0099H95.2373Z" fill="#21A038"/>
<path d="M73.5827 14.3595H68.4346V10.0099H76.6715L81.1117 6.7478H64.1875V26.2886H73.0357C77.9907 26.2886 80.8543 24.0499 80.8543 20.1481C80.8543 16.4063 78.2803 14.3595 73.5827 14.3595ZM72.8748 23.0265H68.4346V17.6216H72.8748C75.5775 17.6216 76.8324 18.5171 76.8324 20.34C76.8324 22.163 75.481 23.0265 72.8748 23.0265Z" fill="#21A038"/>
<path d="M111.709 6.7478H103.633V26.2886H107.88V20.7558H111.741C116.889 20.7558 120.107 18.0693 120.107 13.7518C120.107 9.43427 116.889 6.7478 111.709 6.7478ZM111.612 17.4937H107.848V10.0099H111.612C114.347 10.0099 115.827 11.3532 115.827 13.7518C115.827 16.1504 114.347 17.4937 111.612 17.4937Z" fill="#21A038"/>
<path d="M56.9135 22.0673C55.7874 22.6749 54.5325 22.9948 53.2455 22.9948C49.4167 22.9948 46.6496 20.2763 46.6496 16.5344C46.6496 12.7926 49.4167 10.0741 53.2455 10.0741C54.629 10.0422 55.9804 10.4899 57.1065 11.2894L60.1632 9.05073L59.9701 8.85884C58.2005 7.29173 55.8195 6.49219 53.1168 6.49219C50.1889 6.49219 47.5183 7.48362 45.5878 9.2746C43.6573 11.1295 42.5633 13.7201 42.6277 16.4065C42.5955 19.125 43.6573 21.7475 45.5878 23.6664C47.6148 25.5533 50.3176 26.6087 53.0846 26.5447C56.1413 26.5447 58.8118 25.4893 60.6136 23.5704L57.8787 21.5556L56.9135 22.0673Z" fill="#21A038"/>
<path d="M29.3396 6.61993C30.1118 7.61137 30.7553 8.69875 31.3023 9.85009L16.4373 20.7559L10.1953 16.8541V12.1848L16.4051 16.0545L29.3396 6.61993Z" fill="#21A038"/>
<path d="M3.85825 16.5342C3.85825 16.3104 3.85825 16.1185 3.89043 15.8946L0.125925 15.7027C0.125925 15.9586 0.09375 16.2464 0.09375 16.5022C0.09375 20.9797 1.92774 25.0414 4.88786 27.9837L7.5584 25.3292C5.27396 23.0905 3.85825 19.9882 3.85825 16.5342Z" fill="url(#paint0_linear_892_8260)"/>
<path d="M16.4094 4.06153C16.6346 4.06153 16.8276 4.06153 17.0529 4.09352L17.2459 0.351653C16.9885 0.351653 16.6989 0.319672 16.4415 0.319672C11.937 0.319672 7.85075 2.14263 4.89062 5.08495L7.56117 7.73943C9.81343 5.46873 12.9666 4.06153 16.4094 4.06153Z" fill="url(#paint1_linear_892_8260)"/>
<path d="M16.4069 29.0071C16.1816 29.0071 15.9886 29.0071 15.7634 28.9751L15.5703 32.717C15.8277 32.717 16.1173 32.749 16.3747 32.749C20.8792 32.749 24.9655 30.926 27.9256 27.9837L25.2551 25.3292C23.0028 27.6319 19.8818 29.0071 16.4069 29.0071Z" fill="url(#paint2_linear_892_8260)"/>
<path d="M23.4848 6.2362L26.6701 3.90153C23.8709 1.66281 20.2995 0.287598 16.4062 0.287598V4.02946C19.0446 4.06144 21.4899 4.86098 23.4848 6.2362Z" fill="url(#paint3_linear_892_8260)"/>
<path d="M32.751 16.5341C32.751 15.5427 32.6545 14.5832 32.4936 13.6238L28.9865 16.2143C28.9865 16.3102 28.9865 16.4382 28.9865 16.5341C28.9865 20.212 27.3778 23.5061 24.8359 25.7768L27.3778 28.5592C30.6597 25.6169 32.751 21.2994 32.751 16.5341Z" fill="#21A038"/>
<path d="M16.4104 29.0075C12.7102 29.0075 9.39618 27.4084 7.11174 24.8818L4.3125 27.4084C7.3048 30.7025 11.6163 32.7493 16.4104 32.7493V29.0075Z" fill="url(#paint4_linear_892_8260)"/>
<path d="M8.00886 7.29138L5.46701 4.50897C2.15296 7.48327 0.09375 11.7688 0.09375 16.5341H3.85825C3.85825 12.8882 5.46701 9.56208 8.00886 7.29138Z" fill="url(#paint5_linear_892_8260)"/>
<defs>
<linearGradient id="paint0_linear_892_8260" x1="4.49845" y1="27.5284" x2="0.686666" y2="16.479" gradientUnits="userSpaceOnUse">
<stop offset="0.1444" stop-color="#F2E913"/>
<stop offset="0.3037" stop-color="#E7E518"/>
<stop offset="0.5823" stop-color="#CADB26"/>
<stop offset="0.891" stop-color="#A3CD39"/>
</linearGradient>
<linearGradient id="paint1_linear_892_8260" x1="5.9637" y1="4.65112" x2="15.7156" y2="0.924347" gradientUnits="userSpaceOnUse">
<stop offset="0.0592" stop-color="#0FA8E0"/>
<stop offset="0.5385" stop-color="#0099F9"/>
<stop offset="0.9234" stop-color="#0291EB"/>
</linearGradient>
<linearGradient id="paint2_linear_892_8260" x1="15.3493" y1="29.5571" x2="26.9801" y2="26.9209" gradientUnits="userSpaceOnUse">
<stop offset="0.1226" stop-color="#A3CD39"/>
<stop offset="0.2846" stop-color="#86C339"/>
<stop offset="0.8693" stop-color="#21A038"/>
</linearGradient>
<linearGradient id="paint3_linear_892_8260" x1="15.6328" y1="2.68171" x2="25.3019" y2="5.67351" gradientUnits="userSpaceOnUse">
<stop offset="0.0566" stop-color="#0291EB"/>
<stop offset="0.79" stop-color="#0C8ACB"/>
</linearGradient>
<linearGradient id="paint4_linear_892_8260" x1="5.26968" y1="28.0162" x2="15.6492" y2="31.9053" gradientUnits="userSpaceOnUse">
<stop offset="0.1324" stop-color="#F2E913"/>
<stop offset="0.2977" stop-color="#EBE716"/>
<stop offset="0.5306" stop-color="#D9E01F"/>
<stop offset="0.8023" stop-color="#BBD62D"/>
<stop offset="0.9829" stop-color="#A3CD39"/>
</linearGradient>
<linearGradient id="paint5_linear_892_8260" x1="2.95818" y1="16.9861" x2="7.08088" y2="6.23108" gradientUnits="userSpaceOnUse">
<stop offset="0.0698" stop-color="#A3CD39"/>
<stop offset="0.2599" stop-color="#81C55F"/>
<stop offset="0.9216" stop-color="#0FA8E0"/>
</linearGradient>
</defs>
</svg>
