<svg width="117" height="125" viewBox="0 0 117 125" fill="none" xmlns="http://www.w3.org/2000/svg">
<path d="M116.808 121.717C116.808 120.317 115.687 119.196 114.287 119.196C112.886 119.196 111.766 120.317 111.766 121.717C111.766 123.118 112.886 124.238 114.287 124.238C115.687 124.238 116.808 123.118 116.808 121.717Z" fill="#E4E4E4"/>
<path d="M88.9363 121.717C88.9363 120.317 87.8158 119.196 86.4153 119.196C85.0147 119.196 83.8942 120.317 83.8942 121.717C83.8942 123.118 85.0147 124.238 86.4153 124.238C87.8158 124.238 88.9363 123.118 88.9363 121.717Z" fill="#E4E4E4"/>
<path d="M60.9247 121.717C60.9247 120.317 59.8042 119.196 58.4037 119.196C57.0031 119.196 55.8826 120.317 55.8826 121.717C55.8826 123.118 57.0031 124.238 58.4037 124.238C59.8042 124.238 60.9247 123.118 60.9247 121.717Z" fill="#E4E4E4"/>
<path d="M32.9135 121.717C32.9135 120.317 31.793 119.196 30.3924 119.196C28.9919 119.196 27.8714 120.317 27.8714 121.717C27.8714 123.118 28.9919 124.238 30.3924 124.238C31.793 124.238 32.9135 123.118 32.9135 121.717Z" fill="#E4E4E4"/>
<path d="M5.04211 121.717C5.04211 120.317 3.92165 119.196 2.52108 119.196C1.12051 119.196 4.6596e-05 120.317 4.64736e-05 121.717C4.63512e-05 123.118 1.12051 124.238 2.52108 124.238C3.92165 124.238 5.04211 123.118 5.04211 121.717Z" fill="#E4E4E4"/>
<path d="M116.808 97.9069C116.808 96.5063 115.687 95.3859 114.287 95.3859C112.886 95.3859 111.766 96.5063 111.766 97.9069C111.766 99.3075 112.886 100.428 114.287 100.428C115.687 100.428 116.808 99.3075 116.808 97.9069Z" fill="#E4E4E4"/>
<path d="M88.9363 97.9069C88.9363 96.5063 87.8158 95.3859 86.4153 95.3859C85.0147 95.3859 83.8942 96.5063 83.8942 97.9069C83.8942 99.3075 85.0147 100.428 86.4153 100.428C87.8158 100.428 88.9363 99.3075 88.9363 97.9069Z" fill="#E4E4E4"/>
<path d="M60.9247 97.9069C60.9247 96.5063 59.8042 95.3859 58.4037 95.3859C57.0031 95.3859 55.8826 96.5063 55.8826 97.9069C55.8826 99.3075 57.0031 100.428 58.4037 100.428C59.8042 100.428 60.9247 99.3075 60.9247 97.9069Z" fill="#E4E4E4"/>
<path d="M32.9135 97.9069C32.9135 96.5063 31.793 95.3859 30.3924 95.3859C28.9919 95.3859 27.8714 96.5063 27.8714 97.9069C27.8714 99.3075 28.9919 100.428 30.3924 100.428C31.793 100.428 32.9135 99.3075 32.9135 97.9069Z" fill="#E4E4E4"/>
<path d="M5.04211 97.9069C5.04211 96.5063 3.92165 95.3859 2.52108 95.3859C1.12051 95.3859 4.6596e-05 96.5063 4.64736e-05 97.9069C4.63512e-05 99.3075 1.12051 100.428 2.52108 100.428C3.92165 100.428 5.04211 99.3075 5.04211 97.9069Z" fill="#E4E4E4"/>
<path d="M116.808 74.0971C116.808 72.6966 115.687 71.5761 114.287 71.5761C112.886 71.5761 111.766 72.6966 111.766 74.0971C111.766 75.4977 112.886 76.6182 114.287 76.6182C115.687 76.6182 116.808 75.4977 116.808 74.0971Z" fill="#E4E4E4"/>
<path d="M88.9363 74.0971C88.9363 72.6966 87.8158 71.5761 86.4153 71.5761C85.0147 71.5761 83.8942 72.6966 83.8942 74.0971C83.8942 75.4977 85.0147 76.6182 86.4153 76.6182C87.8158 76.6182 88.9363 75.4977 88.9363 74.0971Z" fill="#E4E4E4"/>
<path d="M60.9247 74.0971C60.9247 72.6966 59.8042 71.5761 58.4037 71.5761C57.0031 71.5761 55.8826 72.6966 55.8826 74.0971C55.8826 75.4977 57.0031 76.6182 58.4037 76.6182C59.8042 76.6182 60.9247 75.4977 60.9247 74.0971Z" fill="#E4E4E4"/>
<path d="M32.9135 74.0971C32.9135 72.6966 31.793 71.5761 30.3924 71.5761C28.9919 71.5761 27.8714 72.6966 27.8714 74.0971C27.8714 75.4977 28.9919 76.6182 30.3924 76.6182C31.793 76.6182 32.9135 75.4977 32.9135 74.0971Z" fill="#E4E4E4"/>
<path d="M5.04211 74.0971C5.04211 72.6966 3.92165 71.5761 2.52108 71.5761C1.12051 71.5761 4.6596e-05 72.6966 4.64736e-05 74.0971C4.63512e-05 75.4977 1.12051 76.6182 2.52108 76.6182C3.92165 76.6182 5.04211 75.4977 5.04211 74.0971Z" fill="#E4E4E4"/>
<path d="M116.808 50.2877C116.808 48.8871 115.687 47.7666 114.287 47.7666C112.886 47.7666 111.766 48.8871 111.766 50.2877C111.766 51.6882 112.886 52.8087 114.287 52.8087C115.687 52.8087 116.808 51.6882 116.808 50.2877Z" fill="#E4E4E4"/>
<path d="M88.9363 50.2874C88.9363 48.8869 87.8158 47.7664 86.4153 47.7664C85.0147 47.7664 83.8942 48.8869 83.8942 50.2874C83.8942 51.688 85.0147 52.8085 86.4153 52.8085C87.8158 52.8085 88.9363 51.688 88.9363 50.2874Z" fill="#E4E4E4"/>
<path d="M60.9247 50.2874C60.9247 48.8869 59.8042 47.7664 58.4037 47.7664C57.0031 47.7664 55.8826 48.8869 55.8826 50.2874C55.8826 51.688 57.0031 52.8085 58.4037 52.8085C59.8042 52.8085 60.9247 51.688 60.9247 50.2874Z" fill="#E4E4E4"/>
<path d="M32.9135 50.2874C32.9135 48.8869 31.793 47.7664 30.3924 47.7664C28.9919 47.7664 27.8714 48.8869 27.8714 50.2874C27.8714 51.688 28.9919 52.8085 30.3924 52.8085C31.793 52.8085 32.9135 51.688 32.9135 50.2874Z" fill="#E4E4E4"/>
<path d="M5.04211 50.2874C5.04211 48.8869 3.92165 47.7664 2.52108 47.7664C1.12051 47.7664 4.6596e-05 48.8869 4.64736e-05 50.2874C4.63512e-05 51.688 1.12051 52.8085 2.52108 52.8085C3.92165 52.8085 5.04211 51.688 5.04211 50.2874Z" fill="#E4E4E4"/>
<path d="M116.808 26.4778C116.808 25.0773 115.687 23.9568 114.287 23.9568C112.886 23.9568 111.766 25.0773 111.766 26.4778C111.766 27.8784 112.886 28.9989 114.287 28.9989C115.687 28.9989 116.808 27.8784 116.808 26.4778Z" fill="#E4E4E4"/>
<path d="M88.9363 26.4778C88.9363 25.0773 87.8158 23.9568 86.4153 23.9568C85.0147 23.9568 83.8942 25.0773 83.8942 26.4778C83.8942 27.8784 85.0147 28.9989 86.4153 28.9989C87.8158 28.9989 88.9363 27.8784 88.9363 26.4778Z" fill="#E4E4E4"/>
<path d="M60.9247 26.4778C60.9247 25.0773 59.8042 23.9568 58.4037 23.9568C57.0031 23.9568 55.8826 25.0773 55.8826 26.4778C55.8826 27.8784 57.0031 28.9989 58.4037 28.9989C59.8042 28.9989 60.9247 27.8784 60.9247 26.4778Z" fill="#E4E4E4"/>
<path d="M32.9135 26.4778C32.9135 25.0773 31.793 23.9568 30.3924 23.9568C28.9919 23.9568 27.8714 25.0773 27.8714 26.4778C27.8714 27.8784 28.9919 28.9989 30.3924 28.9989C31.793 28.9989 32.9135 27.8784 32.9135 26.4778Z" fill="#E4E4E4"/>
<path d="M5.04211 26.4778C5.04211 25.0773 3.92165 23.9568 2.52108 23.9568C1.12051 23.9568 4.6596e-05 25.0773 4.64736e-05 26.4778C4.63512e-05 27.8784 1.12051 28.9989 2.52108 28.9989C3.92165 28.9989 5.04211 27.8784 5.04211 26.4778Z" fill="#E4E4E4"/>
<path d="M116.808 2.66811C116.808 1.26754 115.687 0.147091 114.287 0.147091C112.886 0.147091 111.766 1.26754 111.766 2.66811C111.766 4.06869 112.886 5.18915 114.287 5.18915C115.687 5.18915 116.808 4.06869 116.808 2.66811Z" fill="#E4E4E4"/>
<path d="M88.9363 2.66811C88.9363 1.26754 87.8158 0.147091 86.4153 0.147091C85.0147 0.147091 83.8942 1.26754 83.8942 2.66811C83.8942 4.06869 85.0147 5.18915 86.4153 5.18915C87.8158 5.18915 88.9363 4.06869 88.9363 2.66811Z" fill="#E4E4E4"/>
<path d="M60.9247 2.66811C60.9247 1.26754 59.8042 0.147091 58.4037 0.147091C57.0031 0.147091 55.8826 1.26754 55.8826 2.66811C55.8826 4.06869 57.0031 5.18915 58.4037 5.18915C59.8042 5.18915 60.9247 4.06869 60.9247 2.66811Z" fill="#E4E4E4"/>
<path d="M32.9135 2.66811C32.9135 1.26754 31.793 0.147091 30.3924 0.147091C28.9919 0.147091 27.8714 1.26754 27.8714 2.66811C27.8714 4.06869 28.9919 5.18915 30.3924 5.18915C31.793 5.18915 32.9135 4.06869 32.9135 2.66811Z" fill="#E4E4E4"/>
<path d="M5.04211 2.66811C5.04211 1.26754 3.92165 0.147091 2.52108 0.147091C1.12051 0.147091 4.6596e-05 1.26754 4.64736e-05 2.66811C4.63512e-05 4.06869 1.12051 5.18915 2.52108 5.18915C3.92165 5.18915 5.04211 4.06869 5.04211 2.66811Z" fill="#E4E4E4"/>
</svg>
