<svg width="94" height="68" viewBox="0 0 94 68" fill="none" xmlns="http://www.w3.org/2000/svg">
<path opacity="0.5" d="M33.6748 3.51455C33.8084 3.27287 33.7208 2.96865 33.4791 2.83507L29.5407 0.65815C29.299 0.524562 28.9948 0.61219 28.8612 0.853871C28.7276 1.09555 28.8152 1.39976 29.0569 1.53335L32.5577 3.46839L30.6227 6.96919C30.4891 7.21087 30.5767 7.51509 30.8184 7.64867C31.0601 7.78226 31.3643 7.69463 31.4979 7.45295L33.6748 3.51455ZM93.6602 66.006C71.9164 66.0051 53.2575 63.2213 38.5126 58.7639C23.7566 54.3033 12.9633 48.1798 6.90195 41.5331C3.87462 38.2135 2.04446 34.7822 1.46693 31.3776C0.890901 27.9818 1.5538 24.5729 3.58131 21.2687C7.65433 14.6309 17.2515 8.39759 33.3756 3.75313L33.0988 2.7922C16.9036 7.45715 7.00182 13.7823 2.72897 20.7457C0.583551 24.2421 -0.138194 27.8945 0.481019 31.5449C1.09874 35.1865 3.04373 38.7864 6.16305 42.207C12.395 49.0408 23.3811 55.2345 38.2233 59.7212C53.0766 64.2112 71.8349 67.0051 93.6601 67.006L93.6602 66.006Z" fill="#828282"/>
</svg>
