<svg width="94" height="68" viewBox="0 0 94 68" fill="none" xmlns="http://www.w3.org/2000/svg">
<path opacity="0.5" d="M33.6767 3.51442C33.8103 3.27274 33.7227 2.96853 33.481 2.83495L29.5426 0.658028C29.3009 0.52444 28.9967 0.612068 28.8631 0.853749C28.7296 1.09543 28.8172 1.39964 29.0589 1.53323L32.5597 3.46827L30.6246 6.96907C30.491 7.21075 30.5787 7.51496 30.8204 7.64855C31.062 7.78214 31.3662 7.69451 31.4998 7.45283L33.6767 3.51442ZM93.6621 66.0059C71.9184 66.005 53.2595 63.2211 38.5146 58.7638C23.7585 54.3031 12.9652 48.1797 6.9039 41.533C3.87658 38.2133 2.04642 34.7821 1.46889 31.3775C0.892854 27.9817 1.55576 24.5728 3.58326 21.2686C7.65628 14.6308 17.2535 8.39746 33.3775 3.75301L33.1007 2.79208C16.9056 7.45703 7.00378 13.7821 2.73093 20.7456C0.585504 24.242 -0.136241 27.8944 0.482972 31.5447C1.1007 35.1863 3.04568 38.7863 6.165 42.2068C12.397 49.0407 23.383 55.2343 38.2252 59.721C53.0785 64.2111 71.8368 67.005 93.6621 67.0059L93.6621 66.0059Z" fill="white"/>
</svg>
