<svg width="160" height="160" viewBox="0 0 160 160" fill="none" xmlns="http://www.w3.org/2000/svg">
<path d="M149.183 143.04H10.7832V149.632H149.183V143.04Z" fill="#363535"/>
<path d="M10.7832 149.536C55.1032 149.344 104.863 149.344 149.183 149.536C104.863 149.728 55.1352 149.728 10.7832 149.536Z" fill="#263238"/>
<path d="M119.617 148.992C120.417 148.896 139.905 139.456 140.417 138.624C140.609 138.304 139.393 135.392 137.857 131.904C137.505 131.136 137.153 130.368 136.801 129.6C134.465 124.512 131.841 119.136 131.841 119.136L118.785 125.408L124.097 135.68L125.249 137.952C125.249 137.952 119.393 144.896 118.945 145.856C118.465 146.816 118.817 149.088 119.617 148.992Z" fill="#F7A9A0"/>
<path d="M119.617 148.992C120.417 148.896 139.905 139.456 140.417 138.624C140.641 138.24 138.817 134.016 136.801 129.6L124.097 135.68L125.249 137.952C125.249 137.952 119.393 144.896 118.945 145.856C118.465 146.816 118.817 149.088 119.617 148.992Z" fill="white"/>
<path d="M119.616 148.992C120.416 148.896 139.904 139.456 140.416 138.624C140.608 138.304 139.392 135.392 137.856 131.904L125.28 137.952C125.28 137.952 119.424 144.896 118.976 145.856C118.464 146.816 118.816 149.088 119.616 148.992Z" fill="#FFB50D"/>
<path d="M119.521 148.064C122.753 146.4 135.937 140 139.233 138.624C139.265 138.624 139.265 138.624 139.233 138.656C136.065 140.384 122.849 146.656 119.521 148.128C119.457 148.16 119.457 148.096 119.521 148.064Z" fill="#263238"/>
<path d="M119.873 144.544C120.641 144.128 121.569 144.128 122.209 144.384C122.817 144.64 123.489 145.088 123.777 145.76C123.777 145.792 123.745 145.792 123.745 145.792C122.945 144.608 121.249 144.032 119.905 144.576C119.841 144.608 119.841 144.576 119.873 144.544Z" fill="#263238"/>
<path d="M124.161 138.88C125.473 138.24 127.201 137.952 128.545 138.624C128.609 138.656 128.545 138.72 128.513 138.72C127.041 138.688 125.697 138.784 124.225 139.04C124.097 139.072 124.065 138.944 124.161 138.88Z" fill="#263238"/>
<path d="M123.329 139.776C124.641 139.136 126.369 138.848 127.713 139.52C127.777 139.552 127.713 139.616 127.681 139.616C126.209 139.584 124.865 139.68 123.393 139.936C123.297 139.968 123.233 139.808 123.329 139.776Z" fill="#263238"/>
<path d="M122.496 140.64C123.808 140 125.536 139.712 126.88 140.384C126.944 140.416 126.88 140.48 126.848 140.48C125.376 140.448 124.032 140.544 122.56 140.8C122.464 140.832 122.432 140.704 122.496 140.64Z" fill="#263238"/>
<path d="M121.696 141.536C123.008 140.896 124.736 140.608 126.08 141.28C126.144 141.312 126.08 141.376 126.048 141.376C124.576 141.344 123.232 141.44 121.76 141.696C121.632 141.728 121.6 141.568 121.696 141.536Z" fill="#263238"/>
<path d="M136.897 135.904C138.369 135.2 139.457 137.472 137.985 138.176C136.545 138.912 135.425 136.608 136.897 135.904Z" fill="#263238"/>
<path d="M122.081 137.952C123.233 138.528 124.577 138.56 125.825 138.752C125.953 138.784 126.017 138.624 126.017 138.528C126.049 138.528 126.049 138.496 126.049 138.464C125.441 137.376 124.353 136.288 123.233 135.68C122.561 135.296 121.441 135.168 121.057 136.032C120.673 136.896 121.409 137.6 122.081 137.952ZM121.505 136.896C120.961 135.424 122.753 135.872 123.265 136.192C123.585 136.384 123.873 136.608 124.161 136.832C124.769 137.312 125.281 137.888 125.825 138.4C125.217 138.272 124.609 138.176 124.001 138.08C123.265 137.952 121.793 137.696 121.505 136.896Z" fill="#263238"/>
<path d="M130.272 135.392C129.76 134.592 128.704 134.88 128.064 135.328C127.04 136.096 126.144 137.312 125.664 138.464C125.664 138.496 125.664 138.496 125.696 138.528C125.696 138.624 125.792 138.752 125.92 138.72C127.136 138.368 128.448 138.112 129.504 137.376C130.112 136.96 130.752 136.16 130.272 135.392ZM127.616 137.792C127.04 137.984 126.432 138.144 125.856 138.368C126.336 137.76 126.752 137.12 127.296 136.576C127.552 136.32 127.808 136.032 128.096 135.808C128.544 135.456 130.272 134.72 129.92 136.288C129.76 137.12 128.32 137.568 127.616 137.792Z" fill="#263238"/>
<path opacity="0.1" d="M140.417 138.624C140.001 139.264 128.065 145.152 122.465 147.744L138.401 133.12C139.681 136.064 140.577 138.336 140.417 138.624Z" fill="black"/>
<path d="M136.737 129.088L123.585 134.848C123.585 134.848 114.049 118.432 114.785 111.808C115.617 104.352 123.649 82.272 123.649 82.272H138.497C138.497 82.272 130.113 103.904 129.601 111.52C129.345 114.56 136.737 129.088 136.737 129.088Z" fill="#FFB50D"/>
<path opacity="0.6" d="M136.737 129.088L123.585 134.848C123.585 134.848 114.049 118.432 114.785 111.808C115.617 104.352 123.649 82.272 123.649 82.272H138.497C138.497 82.272 130.113 103.904 129.601 111.52C129.345 114.56 136.737 129.088 136.737 129.088Z" fill="black"/>
<path d="M134.848 127.232C132.832 127.936 130.816 128.768 128.864 129.6C127.872 130.016 126.912 130.432 125.92 130.88C124.928 131.328 123.968 131.808 122.976 132.256C122.944 132.288 122.976 132.32 123.008 132.32C124.032 131.936 125.056 131.584 126.048 131.2C127.04 130.816 128.032 130.4 128.992 129.984C130.976 129.152 132.96 128.288 134.88 127.36C134.944 127.296 134.912 127.2 134.848 127.232Z" fill="#263238"/>
<path d="M128.736 115.968C128.48 115.264 128.256 114.56 128 113.824C127.776 113.12 127.52 112.384 127.456 111.616C127.392 110.816 127.552 110.016 127.776 109.216C127.968 108.48 132.096 96.7359 133.024 93.7919C134.048 90.4959 135.168 87.1999 136.32 83.9359C136.352 83.8399 136.192 83.8079 136.16 83.9039C134.048 89.7279 127.936 107.616 127.744 108.384C127.552 109.12 127.36 109.856 127.264 110.592C127.072 112.096 127.648 113.504 128.128 114.88C128.608 116.32 131.424 123.488 132.928 126.592C132.928 126.624 132.992 126.592 132.992 126.56C131.808 123.776 129.248 117.408 128.736 115.968Z" fill="#263238"/>
<path d="M122.05 149.76C122.818 150.016 144.354 149.792 145.186 149.28C145.506 149.088 145.634 145.952 145.73 142.144C145.762 141.312 145.762 140.48 145.762 139.616C145.826 134.016 145.762 128.096 145.762 128.096L131.33 128.192L131.746 139.712L131.842 142.24C131.842 142.24 123.618 146.016 122.786 146.688C121.954 147.328 121.314 149.504 122.05 149.76Z" fill="#F7A9A0"/>
<path d="M122.05 149.76C122.818 150.016 144.354 149.792 145.186 149.28C145.57 149.024 145.698 144.448 145.762 139.616L131.746 139.712L131.842 142.24C131.842 142.24 123.618 146.016 122.786 146.688C121.954 147.328 121.314 149.504 122.05 149.76Z" fill="white"/>
<path d="M122.05 149.76C122.818 150.016 144.354 149.792 145.186 149.28C145.506 149.088 145.634 145.952 145.73 142.144L131.842 142.24C131.842 142.24 123.618 146.016 122.786 146.688C121.954 147.328 121.314 149.504 122.05 149.76Z" fill="#FFB50D"/>
<path d="M122.369 148.896C125.985 148.768 140.545 148.608 144.129 148.768C144.161 148.768 144.161 148.8 144.129 148.8C140.545 148.992 125.985 149.024 122.369 148.96C122.273 148.928 122.273 148.896 122.369 148.896Z" fill="#263238"/>
<path d="M124.162 145.856C125.026 145.824 125.858 146.208 126.338 146.72C126.786 147.2 127.17 147.904 127.17 148.64C127.17 148.672 127.138 148.672 127.138 148.64C126.914 147.232 125.634 145.984 124.194 145.888C124.13 145.92 124.13 145.856 124.162 145.856Z" fill="#263238"/>
<path d="M130.434 142.592C131.874 142.56 133.57 143.04 134.466 144.224C134.498 144.256 134.434 144.32 134.402 144.288C133.09 143.616 131.842 143.136 130.402 142.752C130.306 142.752 130.338 142.592 130.434 142.592Z" fill="#263238"/>
<path d="M129.313 143.04C130.753 143.008 132.449 143.488 133.345 144.672C133.377 144.704 133.313 144.768 133.281 144.736C131.969 144.064 130.721 143.584 129.281 143.2C129.185 143.168 129.217 143.04 129.313 143.04Z" fill="#263238"/>
<path d="M128.193 143.488C129.633 143.456 131.329 143.936 132.225 145.12C132.257 145.152 132.193 145.216 132.161 145.184C130.849 144.512 129.601 144.032 128.161 143.648C128.065 143.616 128.097 143.488 128.193 143.488Z" fill="#263238"/>
<path d="M127.104 143.936C128.544 143.904 130.24 144.384 131.136 145.568C131.168 145.6 131.104 145.664 131.072 145.632C129.76 144.96 128.512 144.48 127.072 144.096C126.976 144.064 126.976 143.936 127.104 143.936Z" fill="#263238"/>
<path d="M143.169 145.344C144.801 145.344 144.801 147.84 143.201 147.872C141.569 147.872 141.537 145.344 143.169 145.344Z" fill="#263238"/>
<path d="M128.961 140.864C129.761 141.856 130.945 142.496 131.969 143.2C132.065 143.264 132.193 143.2 132.225 143.072C132.257 143.072 132.257 143.072 132.257 143.04C132.161 141.792 131.649 140.384 130.913 139.36C130.465 138.72 129.537 138.144 128.801 138.752C128.129 139.328 128.513 140.288 128.961 140.864ZM128.897 139.648C129.025 138.08 130.465 139.264 130.785 139.744C130.977 140.064 131.169 140.384 131.329 140.704C131.681 141.408 131.905 142.112 132.161 142.848C131.681 142.464 131.169 142.144 130.657 141.792C130.049 141.376 128.801 140.544 128.897 139.648Z" fill="#263238"/>
<path d="M137.409 142.048C137.281 141.12 136.193 140.896 135.457 141.056C134.241 141.312 132.897 142.016 131.969 142.88C131.937 142.912 131.969 142.912 131.969 142.944C131.905 143.04 131.938 143.2 132.066 143.2C133.314 143.392 134.594 143.712 135.874 143.52C136.61 143.392 137.537 142.944 137.409 142.048ZM134.017 143.104C133.409 143.04 132.802 142.912 132.194 142.88C132.866 142.528 133.538 142.144 134.242 141.856C134.594 141.728 134.945 141.6 135.297 141.504C135.841 141.376 137.729 141.44 136.737 142.688C136.225 143.392 134.753 143.168 134.017 143.104Z" fill="#263238"/>
<path d="M146.369 138.944H131.393C131.393 138.944 130.977 123.296 130.433 117.664C129.857 111.648 129.793 92.832 129.793 92.832L128.097 92.2879C125.985 90.9439 123.841 84.16 123.617 82.304H143.201C143.201 82.304 146.049 90.4639 144.513 95.4879C144.513 95.4879 144.577 113.216 144.897 116.384C145.537 122.368 146.369 138.944 146.369 138.944Z" fill="#FFB50D"/>
<path opacity="0.6" d="M146.369 138.944H131.393C131.393 138.944 130.977 123.296 130.433 117.664C129.857 111.648 129.793 92.832 129.793 92.832L128.097 92.2879C125.985 90.9439 123.841 84.16 123.617 82.304H143.201C143.201 82.304 146.049 90.4639 144.513 95.4879C144.513 95.4879 144.577 113.216 144.897 116.384C145.537 122.368 146.369 138.944 146.369 138.944Z" fill="black"/>
<path d="M127.649 92.0319C129.217 92.4479 130.753 93.056 132.225 93.664C132.289 93.696 132.257 93.7599 132.193 93.7279C130.657 93.2159 129.089 92.7359 127.585 92.1599C127.457 92.1279 127.521 91.9999 127.649 92.0319Z" fill="#263238"/>
<path d="M127.17 83.9039C127.17 83.8719 127.266 83.8399 127.266 83.9039C127.266 85.3119 127.362 86.5599 127.522 87.8719C127.586 88.4799 128.226 91.8399 129.602 91.6159C129.826 91.5839 129.954 91.3919 129.986 91.1359C130.018 90.8159 129.858 90.4319 129.794 90.1119C129.634 89.4079 129.506 88.7039 129.442 87.9999C129.282 86.6559 129.282 85.3439 129.506 83.9999C129.506 83.9679 129.602 83.9679 129.602 83.9999C129.602 85.8559 129.666 87.6799 130.018 89.5039C130.178 90.3679 130.754 91.7119 129.57 91.8399C128.354 91.9679 127.586 89.7599 127.426 89.1519C127.01 87.4239 126.978 85.5999 127.17 83.9039Z" fill="#263238"/>
<path d="M129.57 91.6799C129.698 91.9039 129.794 92.1279 129.89 92.3839C129.954 92.5759 130.05 92.7679 130.018 92.9599C130.018 92.9919 129.954 92.9919 129.922 92.9599C129.762 92.7999 129.698 92.5759 129.602 92.4159C129.506 92.1919 129.378 91.9999 129.282 91.7759C129.218 91.6159 129.474 91.5199 129.57 91.6799Z" fill="#263238"/>
<path d="M145.315 136.192C143.171 136.064 141.027 136.032 138.883 136.032C137.827 136.032 136.739 136.032 135.683 136.064C134.595 136.064 133.507 136.16 132.419 136.192C132.387 136.192 132.387 136.256 132.419 136.256C133.507 136.32 134.595 136.384 135.651 136.384C136.707 136.416 137.795 136.416 138.851 136.416C140.995 136.416 143.139 136.416 145.283 136.288C145.379 136.288 145.379 136.192 145.315 136.192Z" fill="#263238"/>
<path d="M129.825 92.768C129.825 92.704 129.729 92.704 129.729 92.768C129.633 97.696 130.689 127.456 131.009 130.432C131.009 130.464 131.073 130.464 131.073 130.432C131.041 127.776 130.049 94.24 129.825 92.768Z" fill="#263238"/>
<path d="M141.506 89.312C140.13 89.12 138.69 88.96 137.762 87.808C137.346 87.296 137.058 86.656 136.866 86.016C136.642 85.28 136.578 84.512 136.354 83.776C136.354 83.744 136.29 83.744 136.29 83.776C136.226 84.576 136.354 85.472 136.578 86.24C136.77 86.912 137.09 87.552 137.538 88.064C138.53 89.216 140.066 89.376 141.506 89.376C141.538 89.376 141.57 89.312 141.506 89.312Z" fill="#263238"/>
<path d="M142.753 99.8399C142.657 98.0799 142.529 96.3199 142.977 94.5599C143.201 93.6319 143.425 92.7359 143.457 91.7759C143.489 90.7839 143.457 89.7919 143.329 88.8319C143.105 86.9119 142.753 85.0559 142.145 83.2319C142.113 83.1679 142.017 83.1999 142.049 83.2639C142.529 84.9599 142.881 86.6879 143.073 88.4159C143.265 90.1759 143.361 91.9999 142.945 93.7279C142.753 94.5599 142.529 95.3279 142.433 96.1919C142.369 97.0239 142.369 97.8559 142.433 98.6879C142.529 100.48 143.521 131.296 143.937 135.36C143.937 135.392 144.001 135.392 144.001 135.36C143.873 131.712 142.849 101.664 142.753 99.8399Z" fill="#263238"/>
<path d="M131.808 65.824C129.312 72.576 123.2 81.568 120.384 81.856C119.04 81.984 116.672 82.528 114.752 81.12C110.624 78.08 108.992 75.04 107.456 73.056C106.624 72 113.376 66.016 114.4 67.008C116.832 69.312 118.112 71.584 118.496 71.52C119.936 71.296 125.184 66.08 128.864 62.432C133.312 57.984 132.8 63.136 131.808 65.824Z" fill="#F7A9A0"/>
<path d="M113.12 64.288C111.904 63.392 110.592 62.272 109.088 61.824C107.584 61.376 105.696 62.976 105.536 63.552C105.344 64.128 104.832 67.84 106.336 68.32C107.84 68.8 107.776 65.76 107.936 65.472C108.096 65.184 108.256 64.8 108.544 64.896C108.832 65.024 113.056 68.928 113.056 68.928L113.12 64.288Z" fill="#F7A9A0"/>
<path d="M112.96 64.4481C112.864 64.4161 109.344 61.5681 107.808 61.1521C106.304 60.7041 104.416 62.3041 104.256 62.8801C104.064 63.4561 103.552 67.1681 105.056 67.6481C106.56 68.1281 106.496 65.0881 106.656 64.8001C106.816 64.5121 106.976 64.1281 107.264 64.2241C107.552 64.3521 111.776 68.2561 111.776 68.2561L112.96 64.4481Z" fill="#F7A9A0"/>
<path d="M105.6 67.6161C105.856 67.4241 106.016 67.0721 106.112 66.8161C106.24 66.4961 106.336 66.1761 106.368 65.8241C106.4 65.5361 106.368 65.2161 106.432 64.9281C106.496 64.6721 106.688 64.3841 106.88 64.1921C107.072 64.0321 107.264 64.1601 107.424 64.2881C107.68 64.4801 107.904 64.7041 108.128 64.9281C108.384 65.1521 108.608 65.4081 108.864 65.6321C109.12 65.8881 109.376 66.1121 109.6 66.4001C109.6 66.4321 109.6 66.4641 109.568 66.4321C109.344 66.2721 109.12 66.0481 108.896 65.8561C108.64 65.6321 108.416 65.4081 108.16 65.1841C107.936 64.9921 107.712 64.7681 107.456 64.5761C107.36 64.5121 107.2 64.3521 107.104 64.3201C106.976 64.3201 106.848 64.5761 106.784 64.6721C106.624 64.9281 106.592 65.1841 106.592 65.5041C106.592 65.7921 106.56 66.0801 106.496 66.3681C106.432 66.6241 106.336 66.9121 106.176 67.1361C106.016 67.3601 105.792 67.4881 105.6 67.6801C105.6 67.6801 105.568 67.6481 105.6 67.6161Z" fill="#263238"/>
<path d="M116.512 69.888C116.512 69.888 113.504 64.8 112.864 63.744C111.584 61.696 105.824 56.96 104.832 56.544C103.84 56.128 102.176 57.5361 106.496 61.28C108.768 63.232 108.768 64.896 108.448 65.728C108.128 66.56 106.848 67.8401 105.472 67.3921C104.096 66.9121 103.808 64.576 102.592 63.968C101.376 63.328 101.504 65.9841 101.984 67.6161C102.464 69.2481 103.776 70.912 104.832 71.744C105.92 72.576 109.152 75.3601 109.152 75.3601L116.512 69.888Z" fill="#F7A9A0"/>
<path d="M104.032 65.8561C104.448 66.4321 104.864 67.1361 105.568 67.3921C106.272 67.6481 106.88 67.3281 107.392 66.8481C107.904 66.3681 108.32 65.7601 108.352 65.0241C108.384 64.3841 108.192 63.7121 107.872 63.1361C107.488 62.4321 106.944 61.8241 106.368 61.2801C106.336 61.2481 106.368 61.2161 106.4 61.2481C106.944 61.7281 108.704 63.1681 108.576 65.0881C108.512 65.8561 108.096 66.4321 107.584 66.9441C107.104 67.3921 106.496 67.8081 105.792 67.6481C104.928 67.4561 104.448 66.5601 104 65.8881C103.968 65.8241 104 65.8241 104.032 65.8561Z" fill="#263238"/>
<path d="M115.521 67.2961L108.225 76.0001C108.225 76.0001 114.049 81.6321 116.129 82.0801C118.209 82.5281 119.777 82.2401 121.217 81.7921C122.657 81.3441 129.665 73.0241 131.905 66.2401C134.145 59.4561 131.649 59.1681 127.713 63.2961C123.777 67.4241 118.881 71.5201 118.625 71.2321C118.369 70.9761 115.521 67.2961 115.521 67.2961Z" fill="#FFB50D"/>
<path d="M116.896 69.7281C116.608 70.0161 114.144 72.8321 113.6 73.4721C113.056 74.1121 110.976 76.7041 110.464 77.3441C110.432 77.3761 110.496 77.4081 110.496 77.3761C110.784 77.0561 111.104 76.7681 111.36 76.4481C111.648 76.1281 113.28 74.2401 113.792 73.6001C114.304 72.9601 116.672 70.0801 116.896 69.7281C116.928 69.6961 116.96 69.7281 116.896 69.7281Z" fill="#263238"/>
<path opacity="0.1" d="M131.872 66.2721C129.632 73.0561 122.624 81.3761 121.152 81.8241C119.712 82.2401 118.144 82.5601 116.064 82.1121C115.328 81.9521 114.112 81.1201 112.832 80.1281L131.136 60.7041C132.8 60.2241 133.344 61.8881 131.872 66.2721Z" fill="black"/>
<path d="M144.319 83.6159C144.319 83.5839 123.167 82.9759 123.167 82.9759C123.167 82.9439 122.367 81.9199 122.751 80.3839C123.711 76.3199 126.623 67.8719 128.799 62.7839C130.111 59.7119 133.343 59.4239 135.487 61.1199C139.743 64.5119 143.679 75.5839 144.671 80.4799C144.959 82.3039 144.319 83.6159 144.319 83.6159Z" fill="#FFB50D"/>
<path d="M134.047 60.928C133.951 61.312 131.999 63.68 130.271 63.52C129.695 63.456 129.887 60.384 129.887 60.384L129.855 60.16L129.311 56.928L133.759 54.4C133.695 54.368 134.079 60.768 134.047 60.928Z" fill="#F7A9A0"/>
<path d="M129.279 56.8959L129.823 60.1279L129.855 60.3519C129.855 60.3519 129.823 60.9279 129.823 61.5679C132.223 61.3439 133.375 59.6159 133.919 58.3999C133.823 56.5439 133.695 54.3679 133.695 54.3679L129.279 56.8959Z" fill="#263238"/>
<path d="M124.031 49.5039C121.343 56.5759 125.279 58.9759 126.815 59.5519C128.191 60.0639 132.991 61.6959 136.383 54.9439C139.775 48.1919 137.343 44.7039 134.239 43.3279C131.135 41.9519 126.719 42.3999 124.031 49.5039Z" fill="#F7A9A0"/>
<path d="M125.6 54.88C125.6 54.88 125.792 55.392 126.208 55.68C126.368 55.776 126.528 55.84 126.72 55.84C127.136 55.84 127.232 55.488 127.232 55.2C127.232 54.944 127.2 54.688 127.2 54.688C127.2 54.688 126.496 55.072 125.6 54.88Z" fill="white"/>
<path d="M127.231 55.2319C127.231 55.2639 127.231 55.2959 127.231 55.3279C127.071 55.3919 126.943 55.3919 126.783 55.4239C126.911 55.3599 127.071 55.2959 127.231 55.2319Z" fill="#DBDBDB"/>
<path d="M126.431 55.4559C126.271 55.4879 126.111 55.4879 125.951 55.4559C125.919 55.4239 125.887 55.3919 125.887 55.3599C126.047 55.3919 126.239 55.3919 126.431 55.4559Z" fill="#DBDBDB"/>
<path d="M125.439 50.6558C124.639 50.3998 124.159 51.9998 124.927 52.2558C125.631 52.4798 126.111 50.8798 125.439 50.6558Z" fill="#263238"/>
<path d="M129.087 51.9039C129.887 52.1279 129.375 53.7279 128.607 53.5039C127.903 53.2799 128.415 51.7119 129.087 51.9039Z" fill="#263238"/>
<path d="M125.086 49.8239C125.214 49.9199 125.374 50.0159 125.534 50.1119C125.694 50.2079 125.822 50.3039 126.046 50.3039C126.174 50.3039 126.27 50.1759 126.27 50.0799C126.27 49.8239 126.11 49.6319 125.918 49.5039C125.694 49.3439 125.502 49.3119 125.246 49.3439C124.958 49.3439 124.894 49.6959 125.086 49.8239Z" fill="#263238"/>
<path d="M129.63 51.6479C129.438 51.6479 129.278 51.6159 129.118 51.6159C128.926 51.5839 128.766 51.6159 128.606 51.4559C128.51 51.3919 128.51 51.2319 128.574 51.1359C128.702 50.9119 128.958 50.8799 129.214 50.9119C129.47 50.9119 129.662 51.0079 129.854 51.1679C130.014 51.3279 129.854 51.6479 129.63 51.6479Z" fill="#263238"/>
<path d="M127.391 56.3199C127.231 56.4159 127.071 56.5439 126.911 56.5119C126.719 56.4799 126.559 56.3519 126.399 56.2559C126.399 56.2559 126.367 56.2559 126.367 56.2879C126.463 56.5119 126.687 56.7039 126.943 56.7039C127.167 56.7039 127.327 56.5439 127.455 56.3519C127.455 56.3199 127.423 56.3199 127.391 56.3199Z" fill="#263238"/>
<path d="M125.631 53.7278C125.631 53.7278 125.311 54.4318 125.215 54.7838C125.215 54.8158 125.279 54.8478 125.407 54.9118C125.983 55.1998 126.687 55.1678 127.199 54.7838C127.231 54.7518 127.199 54.7198 127.167 54.7198C126.623 54.9118 126.079 54.8478 125.535 54.6878C125.535 54.5918 126.143 53.4718 126.079 53.4718C125.823 53.4398 125.407 53.4078 125.247 53.4078C125.439 52.9278 126.079 51.6478 126.431 50.8158C126.463 50.7518 126.367 50.7198 126.335 50.7518C125.599 51.9678 125.247 52.6078 124.799 53.5998C124.735 53.6638 125.471 53.7598 125.631 53.7278Z" fill="#263238"/>
<path d="M135.711 55.648C134.303 55.2 134.911 51.488 134.911 51.488C134.911 51.488 133.215 50.496 133.247 47.04C133.247 47.04 131.423 50.112 125.503 48.32C125.503 48.32 125.407 46.816 126.495 45.248C126.495 45.248 125.567 46.304 124.383 48.224C124.383 48.224 123.839 42.944 128.415 41.92C130.239 41.504 132.799 42.112 136.415 44.768C136.415 44.768 137.599 42.528 137.983 42.944C138.367 43.328 137.119 45.376 137.119 45.376C137.119 45.376 138.943 45.152 139.167 45.568C139.359 45.92 137.631 46.08 137.631 46.08C137.631 46.08 140.127 47.392 139.135 50.368C138.271 53.12 136.415 55.872 135.711 55.648Z" fill="#263238"/>
<path d="M137.183 45.9519C138.751 46.1759 139.967 47.5519 139.903 49.1519C139.871 50.0479 139.487 50.9439 139.071 51.7119C138.623 52.5439 138.015 53.2479 137.343 53.9519C137.311 53.9839 137.247 53.9199 137.279 53.8879C137.887 53.2799 138.335 52.5119 138.719 51.7439C139.071 51.0079 139.423 50.2079 139.519 49.4079C139.743 47.8079 138.655 46.3999 137.119 46.0479C137.119 46.0479 137.119 45.9519 137.183 45.9519Z" fill="#263238"/>
<path d="M132.03 41.728C133.022 42.112 133.95 42.688 134.782 43.328C135.582 43.936 136.382 44.608 136.926 45.472C136.958 45.504 136.894 45.568 136.862 45.536C135.55 44.128 133.822 43.072 132.094 42.208C130.462 41.408 128.446 41.056 126.91 42.208C126.878 42.24 126.846 42.176 126.878 42.176C128.35 40.96 130.398 41.088 132.03 41.728Z" fill="#263238"/>
<path d="M134.239 54.112C134.239 54.112 136.479 52.288 137.343 53.152C138.207 54.016 136.095 56.96 134.751 57.088C133.407 57.184 133.279 55.968 133.279 55.968L134.239 54.112Z" fill="#F7A9A0"/>
<path d="M136.703 53.984C136.735 53.984 136.735 54.016 136.703 54.016C135.743 54.112 135.071 54.784 134.527 55.52C134.879 55.264 135.263 55.2 135.583 55.616C135.615 55.648 135.583 55.68 135.551 55.648C135.231 55.488 134.943 55.456 134.655 55.68C134.431 55.84 134.239 56.032 134.079 56.256C134.015 56.32 133.887 56.256 133.951 56.16C133.951 56.16 133.951 56.16 133.951 56.128C134.239 55.04 135.519 53.76 136.703 53.984Z" fill="#263238"/>
<path d="M143.393 77.6319C143.201 77.3439 134.049 68.6719 133.601 63.6479C133.313 60.3199 137.601 63.4879 137.601 63.4879L137.857 62.4959C137.857 62.4959 134.657 60.7999 133.345 61.2799C129.345 62.7519 139.201 75.8399 143.777 79.6479L143.393 77.6319Z" fill="#263238"/>
<path d="M143.937 84.032C143.009 83.264 143.745 78.72 142.049 73.856C140.321 68.992 136.481 63.008 136.769 62.624C137.185 62.048 140.769 61.856 142.145 62.848C143.905 64.096 147.009 68.512 147.009 68.512C147.009 68.512 148.801 69.44 149.313 70.304C149.441 70.528 149.761 71.328 150.145 72.352C150.241 72.64 151.393 73.344 151.489 73.664C152.161 75.52 152.865 77.248 153.345 78.72C153.633 79.584 152.897 80.352 152.865 80.448C152.769 80.8 152.193 84.256 151.681 84.672C151.201 85.152 147.713 87.104 143.937 84.032Z" fill="#37474F"/>
<g opacity="0.8">
<path d="M145.089 82.0481C144.929 81.3121 144.993 81.5361 144.833 80.8001C144.673 80.0961 144.481 79.3601 144.353 78.6561C144.353 78.5601 144.321 78.4961 144.417 78.4641C144.577 78.3681 144.833 78.3681 145.025 78.3361C145.537 78.2401 146.017 78.1761 146.529 78.1121C147.553 77.9521 148.737 77.8241 149.793 77.7601C149.889 77.7601 149.921 77.8881 149.825 77.8881C148.193 78.0161 146.465 78.2401 144.897 78.5281C144.801 78.5601 144.609 78.5601 144.545 78.6241C144.545 78.6561 144.577 78.7841 144.577 78.7841C144.609 78.9441 144.641 79.1041 144.673 79.2641C144.737 79.5841 144.801 79.9041 144.897 80.2241C145.025 80.8641 144.961 80.5441 145.121 81.1841C145.185 81.4721 145.249 81.7601 145.313 82.0481C145.345 82.2081 145.377 82.3681 145.409 82.5281C145.441 82.5921 145.441 82.6881 145.473 82.7521C145.537 82.9121 145.569 82.9761 145.761 83.0401C146.081 83.1361 146.465 83.2001 146.785 83.2961C147.169 83.3921 147.553 83.4881 147.937 83.5521C148.129 83.5841 148.353 83.6801 148.545 83.6801C148.769 83.6801 148.961 83.4561 149.089 83.3281L150.369 82.3041C150.465 82.2081 150.625 82.0481 150.689 81.9201C150.785 81.7601 150.017 78.4321 149.729 77.7601C149.729 77.7281 149.825 77.6961 149.825 77.7281C150.081 78.3681 150.977 81.5361 150.977 81.8561C150.977 82.1441 150.721 82.3041 150.497 82.4641C150.177 82.7201 149.857 82.9761 149.537 83.2321C149.377 83.3601 149.217 83.4881 149.025 83.6161C148.897 83.7121 148.801 83.8081 148.609 83.8081C148.449 83.8081 148.289 83.7761 148.161 83.7441C147.937 83.6801 147.713 83.6481 147.489 83.5841L146.209 83.2641C145.921 83.2001 145.473 83.1681 145.313 82.9121C145.249 82.8161 145.217 82.6561 145.217 82.5601C145.185 82.4321 145.121 82.2401 145.089 82.0481Z" fill="#263238"/>
<path d="M144.577 78.848C145.505 79.168 146.433 79.488 147.393 79.744C147.521 79.776 147.649 79.808 147.777 79.84C148.033 79.904 148.129 79.872 148.289 79.712C148.449 79.584 148.609 79.424 148.769 79.296C149.153 78.976 149.505 78.688 149.889 78.368C149.921 78.336 149.953 78.368 149.953 78.4C149.569 78.784 149.185 79.136 148.801 79.52C148.545 79.776 148.289 80.128 147.809 80C147.265 79.872 146.753 79.68 146.241 79.488C145.665 79.328 145.121 79.104 144.577 78.848C144.545 78.88 144.577 78.848 144.577 78.848Z" fill="#263238"/>
<path d="M147.682 79.4562C147.682 79.3922 147.714 79.3282 147.778 79.2962C147.842 79.2642 147.97 79.2642 148.034 79.2962C148.066 79.2962 148.034 79.3602 148.002 79.3282C147.97 79.3282 147.938 79.2962 147.906 79.2962C147.874 79.2962 147.874 79.2962 147.874 79.2962C147.874 79.2962 147.842 79.2962 147.842 79.3282C147.842 79.3282 147.842 79.3602 147.81 79.3602C147.81 79.3602 147.81 79.3602 147.81 79.3922C147.81 79.4242 147.81 79.4562 147.81 79.4882C147.81 79.5522 147.842 79.5842 147.906 79.6162C147.938 79.6162 147.97 79.6162 148.002 79.5842C148.034 79.5522 148.034 79.5202 148.034 79.4882H148.066C148.066 79.5522 148.066 79.6162 148.002 79.6482C147.938 79.6802 147.842 79.6482 147.778 79.6162C147.714 79.5842 147.682 79.5202 147.682 79.4562Z" fill="#263238"/>
</g>
<g opacity="0.8">
<path d="M140.737 68.9919C140.481 68.4799 140.577 68.6399 140.321 68.1279C140.065 67.6159 139.809 67.1039 139.585 66.5919C139.553 66.5279 139.553 66.4959 139.617 66.4319C139.713 66.3359 139.905 66.2719 140.033 66.2079C140.385 66.0479 140.737 65.8879 141.121 65.7279C141.857 65.4079 142.721 65.0559 143.489 64.7999C143.553 64.7679 143.585 64.8639 143.521 64.8959C142.337 65.3119 141.057 65.8559 139.937 66.3999C139.873 66.4319 139.713 66.4959 139.713 66.5599C139.713 66.5599 139.777 66.6559 139.777 66.6879C139.841 66.8159 139.873 66.9119 139.937 67.0399C140.033 67.2639 140.161 67.4879 140.257 67.7119C140.481 68.1599 140.385 67.9359 140.577 68.3839C140.673 68.6079 140.769 68.7999 140.865 69.0239C140.929 69.1519 140.961 69.2479 141.025 69.3759C141.057 69.4399 141.089 69.5039 141.121 69.5359C141.185 69.6319 141.249 69.6959 141.409 69.6959C141.665 69.6959 141.953 69.6639 142.241 69.6639C142.529 69.6639 142.849 69.6319 143.137 69.6319C143.297 69.6319 143.489 69.6319 143.617 69.5999C143.777 69.5679 143.873 69.3439 143.969 69.2159L144.769 68.1599C144.833 68.0639 144.929 67.9039 144.961 67.8079C144.993 67.6799 143.841 65.3119 143.521 64.8639C143.521 64.8319 143.585 64.7999 143.585 64.8319C143.905 65.2479 145.089 67.4559 145.153 67.7119C145.217 67.9359 145.025 68.0959 144.897 68.2879C144.705 68.5439 144.513 68.7999 144.289 69.0559C144.193 69.1839 144.097 69.3119 143.969 69.4719C143.905 69.5679 143.809 69.6639 143.681 69.6959C143.585 69.7279 143.457 69.7279 143.329 69.7279C143.137 69.7279 142.977 69.7279 142.785 69.7599L141.761 69.7919C141.537 69.7919 141.185 69.8559 141.025 69.7279C140.961 69.6639 140.929 69.5679 140.865 69.4719C140.865 69.2479 140.801 69.1199 140.737 68.9919Z" fill="#263238"/>
<path d="M139.809 66.6559C140.545 66.7199 141.313 66.7519 142.049 66.7519C142.145 66.7519 142.241 66.7519 142.337 66.7519C142.529 66.7519 142.593 66.6879 142.689 66.5599C142.785 66.4319 142.881 66.2719 142.977 66.1439C143.201 65.8239 143.425 65.5039 143.649 65.2159C143.681 65.1839 143.713 65.2159 143.681 65.2159C143.457 65.5679 143.233 65.9519 143.009 66.3039C142.849 66.5599 142.721 66.8799 142.369 66.8799C141.953 66.8799 141.537 66.8479 141.121 66.8159C140.673 66.7839 140.225 66.7519 139.809 66.6559C139.777 66.6879 139.777 66.6559 139.809 66.6559Z" fill="#263238"/>
<path d="M142.209 66.464C142.209 66.432 142.209 66.368 142.241 66.304C142.305 66.24 142.369 66.24 142.433 66.24C142.465 66.24 142.465 66.272 142.433 66.272C142.401 66.272 142.369 66.272 142.337 66.272C142.337 66.272 142.305 66.272 142.305 66.304C142.305 66.304 142.305 66.304 142.305 66.336V66.368C142.305 66.368 142.305 66.368 142.305 66.4C142.305 66.432 142.305 66.464 142.305 66.464C142.305 66.496 142.369 66.528 142.401 66.528C142.433 66.528 142.465 66.528 142.465 66.496C142.465 66.464 142.465 66.432 142.465 66.432C142.465 66.464 142.497 66.528 142.433 66.56C142.401 66.592 142.305 66.592 142.273 66.592C142.273 66.56 142.209 66.528 142.209 66.464Z" fill="#263238"/>
</g>
<path d="M150.178 72.5439C150.178 72.5439 151.074 75.6159 151.106 75.9039C151.138 76.2239 152.098 79.6159 152.354 79.8079C152.61 79.9999 152.738 80.1919 152.738 80.1919" fill="#263238"/>
<path d="M146.977 68.5439C146.977 68.5439 148.609 72.4159 148.737 72.7039C148.865 72.9599 150.241 76.5759 150.433 76.8959C150.625 77.2159 151.137 77.8559 151.265 77.9519" fill="#263238"/>
<path d="M104.928 58.2401L107.104 69.1201C107.2 69.4401 107.136 69.6961 106.976 69.6961L104.256 69.8241C104.096 69.8241 103.904 69.5681 103.84 69.2481L101.664 58.3681C101.568 58.0481 101.632 57.7921 101.792 57.7921L104.512 57.6641C104.672 57.6961 104.864 57.9201 104.928 58.2401Z" fill="#37474F"/>
<path d="M104.608 58.272L106.784 69.152C106.88 69.472 106.816 69.728 106.656 69.728L103.936 69.856C103.776 69.856 103.584 69.6 103.52 69.28L101.344 58.4C101.248 58.08 101.312 57.824 101.472 57.824L104.192 57.696C104.352 57.696 104.544 57.952 104.608 58.272Z" fill="#455A64"/>
<path d="M101.984 58.464C102.016 58.656 101.984 58.848 101.856 58.88C101.76 58.912 101.632 58.752 101.568 58.56C101.536 58.368 101.568 58.176 101.696 58.144C101.824 58.112 101.952 58.24 101.984 58.464Z" fill="#263238"/>
<path d="M101.983 59.232C102.015 59.296 101.983 59.392 101.951 59.392C101.919 59.392 101.855 59.36 101.855 59.264C101.823 59.2 101.855 59.104 101.887 59.104C101.919 59.104 101.983 59.168 101.983 59.232Z" fill="white"/>
<path d="M132.799 62.4642C131.231 63.8722 122.399 74.9122 122.271 76.2562C122.047 78.3682 122.303 84.0002 127.167 82.7842C130.559 81.9522 134.527 70.5282 135.839 65.3442C136.671 62.1122 135.551 59.9362 132.799 62.4642Z" fill="#F7A9A0"/>
<path d="M117.28 71.1363C116.096 71.0083 110.24 77.7283 111.712 78.6563C118.656 83.0723 124.928 83.2323 126.528 82.9123C128.608 82.4963 129.504 79.9683 129.024 78.6563C128.352 76.7683 118.432 71.2643 117.28 71.1363Z" fill="#F7A9A0"/>
<path d="M117.952 71.3603C117.952 71.3603 115.264 68.5123 113.472 66.6243C112.448 65.5683 110.56 63.9043 109.472 63.4883C107.84 62.8483 100.576 61.1523 100.128 62.9123C99.7117 64.5123 106.144 65.1523 106.144 65.1523C106.144 65.1523 99.7117 63.9043 99.5837 65.9203C99.4557 67.9363 106.816 67.7123 106.816 67.7123C106.816 67.7123 100.192 66.5923 100.352 68.6723C100.48 70.2403 107.168 70.4323 107.168 70.4323C107.168 70.4323 101.472 69.5043 101.536 71.1363C101.632 72.9283 107.776 73.4723 107.776 73.4723C108.672 77.5683 111.232 78.9123 113.408 79.7123C113.856 79.8403 117.952 71.3603 117.952 71.3603Z" fill="#F7A9A0"/>
<path d="M108.383 65.4404C107.647 65.2804 106.879 65.0884 106.111 64.9924C105.343 64.8964 104.575 64.8004 103.807 64.7684C101.919 64.6724 100.735 64.9284 100.799 64.9284C102.591 64.7684 105.311 65.0884 106.079 65.2164C106.879 65.2804 107.615 65.3444 108.383 65.4404C108.415 65.4724 108.415 65.4404 108.383 65.4404Z" fill="#263238"/>
<path d="M108.063 68.1923C107.103 68.0003 106.143 67.8083 105.151 67.6483C104.191 67.5203 103.263 67.4563 102.271 67.3923C102.207 67.3923 102.207 67.4243 102.303 67.4243C103.263 67.5203 104.159 67.7123 105.151 67.8403C106.111 67.9683 107.103 68.0643 108.063 68.1923C108.063 68.2243 108.095 68.1923 108.063 68.1923Z" fill="#263238"/>
<path d="M108.224 70.6243C106.752 70.2723 105.248 70.2083 103.744 70.1443C103.68 70.1443 103.712 70.2083 103.776 70.2083C105.28 70.3363 106.432 70.4323 108.224 70.6883C108.224 70.6563 108.224 70.6243 108.224 70.6243Z" fill="#263238"/>
<path d="M105.408 62.4644C106.816 62.6884 108.224 62.8804 109.536 63.3924C111.68 64.4484 113.312 66.2404 114.816 68.0324C113.152 66.4324 111.52 64.6724 109.44 63.5844C108.16 63.0724 106.752 62.8164 105.408 62.4644Z" fill="#263238"/>
<path d="M117.792 71.1362L112.672 80.7362C112.672 80.7362 124.48 85.0242 127.808 82.7842C131.104 80.5442 134.816 71.1682 136.032 65.8242C137.248 60.4802 134.4 60.0642 131.776 63.3922C129.152 66.7202 123.2 73.7602 123.2 73.7602L117.792 71.1362Z" fill="#FFB50D"/>
<path d="M115.52 80.832C116.992 77.056 119.136 73.312 119.456 72.608C119.456 72.576 119.52 72.608 119.52 72.64C119.168 73.28 117.216 77.856 115.584 80.864C115.552 80.896 115.52 80.864 115.52 80.832Z" fill="#263238"/>
<path d="M115.36 81.6001C122.464 83.4241 124.704 83.7441 126.88 83.1361C128.544 82.6881 130.656 79.0401 131.456 77.6001C132.256 76.1601 132.992 74.6561 133.664 73.1521C134.336 71.6161 135.008 70.1121 135.648 68.5761C135.712 68.3841 135.808 68.1921 135.872 68.0001C135.872 67.9681 135.936 68.0001 135.904 68.0321C135.488 69.1201 135.072 70.2081 134.656 71.3281C135.008 70.7521 135.392 70.1761 135.712 69.6001C135.712 69.5681 135.776 69.6001 135.744 69.6321C135.36 70.3361 134.976 71.0401 134.528 71.6801C134.368 72.0641 134.24 72.4161 134.08 72.8001C133.408 74.3681 132.704 75.9041 131.872 77.3761C131.072 78.8481 129.568 82.1441 127.328 83.2961C124.64 84.6401 118.496 82.8161 115.36 81.6001C115.328 81.6321 115.328 81.6001 115.36 81.6001Z" fill="#263238"/>
<path d="M117.791 71.1362C118.687 71.5522 120.479 72.3522 121.343 72.7682C121.951 73.0242 122.527 73.3442 123.103 73.5362C123.135 73.5362 123.167 73.5362 123.103 73.5682C123.167 73.5042 123.263 73.4402 123.327 73.3442C125.407 71.0402 127.295 68.5762 129.343 66.2722C128.703 67.2002 127.679 68.5122 126.975 69.4082C125.855 70.8162 124.767 72.2562 123.519 73.5682C123.391 73.6642 123.295 73.8242 123.135 73.8562C122.527 73.6962 121.759 73.2482 121.183 72.9922C120.095 72.4162 118.943 71.8082 117.791 71.1362Z" fill="#263238"/>
<path d="M128.639 66.5603C128.415 67.0723 128.063 67.7443 127.903 68.2563C127.871 67.6163 128.191 67.0083 128.639 66.5603Z" fill="#263238"/>
<path d="M9.9203 149.76C10.6563 149.984 32.0003 149.728 32.8003 149.184C33.1203 148.992 33.2483 145.888 33.3123 142.112C33.3123 141.312 33.3443 140.448 33.3443 139.616L34.2403 128.288L20.3843 128.384L19.4563 139.776L19.5523 142.272C19.5523 142.272 11.4243 146.048 10.6243 146.72C9.7923 147.36 9.1843 149.536 9.9203 149.76Z" fill="#EB9481"/>
<path d="M9.9203 149.76C10.6563 149.984 32.0003 149.728 32.8003 149.184C33.1843 148.928 33.3123 144.416 33.3443 139.616L19.4563 139.776L19.5523 142.272C19.5523 142.272 11.4243 146.048 10.6243 146.72C9.7923 147.36 9.1843 149.536 9.9203 149.76Z" fill="white"/>
<path d="M9.9203 149.76C10.6563 149.984 32.0003 149.728 32.8003 149.184C33.1203 148.992 33.2483 145.888 33.3123 142.112L19.5523 142.24C19.5523 142.24 11.4243 146.016 10.6243 146.688C9.7923 147.36 9.1843 149.536 9.9203 149.76Z" fill="#FFB50D"/>
<path d="M27.168 149.632C30.24 149.504 32.544 149.376 32.8 149.216C33.088 149.024 33.216 146.272 33.312 142.816C31.808 144.576 28.864 147.776 27.168 149.632Z" fill="#263238"/>
<path d="M10.2087 148.896C13.7927 148.768 28.2247 148.544 31.7767 148.704C31.8087 148.704 31.8087 148.736 31.7767 148.736C28.2247 148.96 13.7927 149.024 10.2407 148.992C10.1447 148.96 10.1447 148.896 10.2087 148.896Z" fill="#263238"/>
<path d="M12.0006 145.92C12.8326 145.888 13.6966 146.272 14.1446 146.752C14.5926 147.232 14.9766 147.904 14.9766 148.64C14.9766 148.672 14.9446 148.672 14.9446 148.64C14.7206 147.232 13.4406 146.016 12.0006 145.952C11.9686 145.952 11.9686 145.92 12.0006 145.92Z" fill="#263238"/>
<path d="M18.1759 142.656C19.6159 142.624 21.2799 143.104 22.1759 144.256C22.2079 144.288 22.1439 144.352 22.1119 144.32C20.7999 143.68 19.5839 143.2 18.1439 142.816C18.0479 142.784 18.0799 142.656 18.1759 142.656Z" fill="#263238"/>
<path d="M17.088 143.104C18.528 143.072 20.192 143.552 21.088 144.704C21.12 144.736 21.056 144.8 21.024 144.768C19.712 144.128 18.496 143.648 17.056 143.264C16.96 143.232 16.992 143.104 17.088 143.104Z" fill="#263238"/>
<path d="M16.0008 143.52C17.4408 143.488 19.1048 143.968 20.0008 145.12C20.0328 145.152 19.9688 145.216 19.9368 145.184C18.6248 144.544 17.4088 144.064 15.9688 143.68C15.8728 143.68 15.8728 143.552 16.0008 143.52Z" fill="#263238"/>
<path d="M14.881 143.968C16.321 143.936 17.985 144.416 18.881 145.568C18.913 145.6 18.849 145.664 18.817 145.632C17.505 144.992 16.289 144.512 14.849 144.128C14.753 144.128 14.785 143.968 14.881 143.968Z" fill="#263238"/>
<path d="M30.8169 145.312C32.4169 145.28 32.4489 147.776 30.8489 147.808C29.2489 147.84 29.2169 145.344 30.8169 145.312Z" fill="#263238"/>
<path d="M16.7363 140.928C17.5363 141.92 18.7203 142.528 19.7443 143.232C19.8403 143.296 19.9683 143.2 20.0003 143.104C20.0323 143.104 20.0323 143.104 20.0323 143.072C19.9363 141.824 19.4243 140.416 18.6883 139.424C18.2403 138.816 17.3123 138.24 16.6083 138.848C15.9043 139.424 16.2563 140.352 16.7363 140.928ZM16.6403 139.744C16.7683 138.176 18.1763 139.36 18.4963 139.84C18.6883 140.128 18.8803 140.48 19.0403 140.8C19.3923 141.472 19.6163 142.208 19.8723 142.912C19.3923 142.528 18.8803 142.208 18.3683 141.856C17.7923 141.44 16.5763 140.608 16.6403 139.744Z" fill="#263238"/>
<path d="M25.0891 142.08C24.9611 141.152 23.9051 140.96 23.1371 141.12C21.9211 141.376 20.6091 142.08 19.7131 142.912C19.6811 142.944 19.7131 142.944 19.7131 142.976C19.6811 143.072 19.6811 143.232 19.8091 143.232C21.0251 143.392 22.3371 143.744 23.5851 143.52C24.3211 143.424 25.2171 142.976 25.0891 142.08ZM21.7611 143.136C21.1531 143.072 20.5451 142.976 19.9371 142.912C20.6091 142.56 21.2491 142.176 21.9851 141.888C22.3371 141.76 22.6571 141.632 23.0091 141.536C23.5531 141.408 25.4091 141.472 24.4491 142.72C23.9371 143.424 22.4651 143.232 21.7611 143.136Z" fill="#263238"/>
<path d="M33.5677 137.28H19.6797C19.6797 137.28 21.4717 112.384 22.3997 108.224C24.0957 100.672 28.3837 78.72 28.3837 78.72H43.7437C43.7437 78.72 36.5437 105.824 35.8717 110.176C35.2957 114.048 33.5677 137.28 33.5677 137.28Z" fill="#EB9481"/>
<path opacity="0.1" d="M43.7435 78.752C43.7435 78.752 36.5435 105.856 35.8715 110.208C35.6795 111.424 35.5515 114.688 35.4235 118.496L31.5195 78.752H43.7435Z" fill="black"/>
<path d="M28.705 149.728C29.441 149.952 50.785 149.696 51.585 149.152C51.905 148.96 52.033 145.856 52.097 142.08C52.097 141.28 52.129 140.416 52.129 139.584C52.161 134.048 51.649 128.192 51.649 128.192L37.313 128.352L38.273 139.744L38.369 142.24C38.369 142.24 30.241 146.016 29.441 146.688C28.577 147.36 27.937 149.504 28.705 149.728Z" fill="#EB9481"/>
<path d="M28.704 149.728C29.44 149.952 50.784 149.696 51.584 149.152C51.968 148.896 52.096 144.384 52.128 139.584L38.24 139.744L38.336 142.24C38.336 142.24 30.208 146.016 29.408 146.688C28.576 147.36 27.936 149.504 28.704 149.728Z" fill="white"/>
<path d="M28.704 149.728C29.44 149.952 50.784 149.696 51.584 149.152C51.904 148.96 52.032 145.856 52.096 142.08L38.336 142.208C38.336 142.208 30.208 145.984 29.408 146.656C28.576 147.36 27.936 149.504 28.704 149.728Z" fill="#FFB50D"/>
<path d="M28.9914 148.896C32.5754 148.768 47.0074 148.544 50.5594 148.704C50.5914 148.704 50.5914 148.736 50.5594 148.736C47.0074 148.96 32.5754 149.024 28.9914 148.992C28.9274 148.928 28.9274 148.896 28.9914 148.896Z" fill="#263238"/>
<path d="M30.7506 145.888C31.5826 145.856 32.4466 146.24 32.8946 146.72C33.3426 147.2 33.7266 147.872 33.7266 148.608C33.7266 148.64 33.6946 148.64 33.6946 148.608C33.4706 147.2 32.1906 145.984 30.7506 145.92C30.7186 145.952 30.7186 145.888 30.7506 145.888Z" fill="#263238"/>
<path d="M36.9591 142.624C38.3991 142.592 40.0631 143.072 40.9591 144.224C40.9911 144.256 40.9271 144.32 40.8951 144.288C39.5831 143.648 38.3671 143.168 36.9271 142.784C36.8311 142.784 36.8631 142.624 36.9591 142.624Z" fill="#263238"/>
<path d="M35.8719 143.072C37.3119 143.04 38.9759 143.52 39.8719 144.672C39.9039 144.704 39.8399 144.768 39.8079 144.736C38.4959 144.096 37.2799 143.616 35.8399 143.232C35.7439 143.232 35.7439 143.072 35.8719 143.072Z" fill="#263238"/>
<path d="M34.7521 143.52C36.1921 143.488 37.8561 143.968 38.7521 145.12C38.7841 145.152 38.7201 145.216 38.6881 145.184C37.3761 144.544 36.1601 144.064 34.7201 143.68C34.6241 143.648 34.6561 143.52 34.7521 143.52Z" fill="#263238"/>
<path d="M33.6642 143.968C35.1042 143.936 36.7682 144.416 37.6642 145.568C37.6962 145.6 37.6322 145.664 37.6002 145.632C36.2882 144.992 35.0722 144.512 33.6322 144.128C33.5362 144.096 33.5682 143.968 33.6642 143.968Z" fill="#263238"/>
<path d="M49.5987 145.28C51.1987 145.248 51.2307 147.744 49.6307 147.776C47.9987 147.808 47.9667 145.312 49.5987 145.28Z" fill="#263238"/>
<path d="M35.4866 140.928C36.2866 141.92 37.4706 142.528 38.4946 143.232C38.5906 143.296 38.7186 143.232 38.7506 143.104C38.7826 143.104 38.7826 143.104 38.7826 143.072C38.6866 141.824 38.1746 140.416 37.4386 139.424C36.9906 138.816 36.0626 138.24 35.3586 138.848C34.6866 139.392 35.0386 140.352 35.4866 140.928ZM35.4226 139.744C35.5506 138.176 36.9586 139.36 37.2786 139.84C37.4706 140.128 37.6626 140.48 37.8226 140.8C38.1746 141.472 38.3986 142.208 38.6546 142.912C38.1746 142.528 37.6626 142.208 37.1506 141.856C36.5746 141.408 35.3586 140.608 35.4226 139.744Z" fill="#263238"/>
<path d="M43.8723 142.08C43.7443 141.152 42.6883 140.96 41.9203 141.12C40.7043 141.376 39.3923 142.08 38.4963 142.912C38.4643 142.944 38.4963 142.944 38.4963 142.976C38.4643 143.072 38.4643 143.232 38.5923 143.232C39.8083 143.392 41.1203 143.744 42.3683 143.52C43.1043 143.424 44.0003 142.944 43.8723 142.08ZM40.5123 143.104C39.9043 143.04 39.2963 142.944 38.6883 142.88C39.3603 142.528 40.0003 142.144 40.7363 141.856C41.0883 141.728 41.4083 141.6 41.7603 141.504C42.3043 141.376 44.1603 141.44 43.2003 142.688C42.6883 143.392 41.2483 143.2 40.5123 143.104Z" fill="#263238"/>
<path d="M52.128 137.28H37.984L34.336 89.76L32.384 89.0879C30.208 87.7119 28.672 80.672 28.416 78.752H47.008C47.008 78.752 49.984 85.5359 49.792 89.3759C49.728 90.5279 49.44 91.4559 49.152 92.448L52.128 137.28Z" fill="#EB9481"/>
<path d="M28.4166 78.752L22.9766 102.24C22.9766 102.24 28.1606 103.936 34.8806 104.096C41.6006 104.256 52.1286 103.52 52.1286 103.52C52.1286 103.52 51.7766 88.96 47.0086 78.752H28.4166Z" fill="#455A64"/>
<path d="M32.0964 88.384C33.6644 88.8 35.2004 89.408 36.6724 90.016C36.7364 90.048 36.7044 90.112 36.6404 90.08C35.1044 89.568 33.5364 89.088 32.0324 88.512C31.9044 88.48 32.0004 88.352 32.0964 88.384Z" fill="#FFB50D"/>
<path d="M31.6166 80.2559C31.6166 80.2239 31.7126 80.1919 31.7126 80.2559C31.7126 81.6639 31.8086 82.9119 31.9686 84.2239C32.0326 84.8319 32.6726 88.1919 34.0486 87.9679C34.2726 87.9359 34.4006 87.7439 34.4326 87.4879C34.4646 87.1679 34.3046 86.7839 34.2406 86.4639C34.0806 85.7599 33.9526 85.0559 33.8886 84.3519C33.7286 83.0079 33.7286 81.6959 33.9526 80.3519C33.9526 80.3199 34.0486 80.3199 34.0486 80.3519C34.0486 82.2079 34.1126 84.0319 34.4646 85.8559C34.6246 86.7199 35.2006 88.0639 34.0166 88.1919C32.8006 88.3199 32.0326 86.1119 31.8726 85.5039C31.4566 83.7759 31.4566 81.9519 31.6166 80.2559Z" fill="#FFB50D"/>
<path d="M34.016 88.0319C34.144 88.2559 34.24 88.4799 34.336 88.7359C34.4 88.9279 34.496 89.1199 34.464 89.3119C34.464 89.3439 34.4 89.3439 34.368 89.3119C34.208 89.1519 34.144 88.9279 34.048 88.7679C33.952 88.5439 33.824 88.3519 33.728 88.1279C33.664 87.9679 33.952 87.8719 34.016 88.0319Z" fill="#FFB50D"/>
<path d="M28.5762 80.3841C34.7522 80.1601 40.9602 80.1601 47.1042 80.3841C40.9602 80.5761 34.7522 80.5761 28.5762 80.3841Z" fill="#FFB50D"/>
<path d="M38.3376 40.8641C43.1056 43.0081 44.1296 49.7281 43.8096 59.2641C43.7776 60.7041 31.4896 63.2321 25.5376 58.7521C24.5776 58.0161 25.9536 46.3361 28.2896 42.9761C31.2016 38.8161 35.3616 39.5521 38.3376 40.8641Z" fill="#263238"/>
<path d="M38.465 40.9601C40.961 42.2401 42.561 44.7361 43.265 47.3921C43.777 49.3121 44.033 51.3921 44.257 53.3761C44.481 55.2641 44.609 57.2481 44.353 59.1361C44.353 59.2001 44.257 59.2001 44.257 59.1361C44.321 55.5201 43.873 51.9041 43.137 48.3841C42.529 45.4081 40.993 42.7521 38.369 41.1521C38.241 41.0881 38.337 40.8961 38.465 40.9601Z" fill="#263238"/>
<path d="M26.4655 46.2722C27.3295 43.2322 29.2815 41.0562 32.2255 40.0962C32.2575 40.0962 32.2575 40.1282 32.2255 40.1282C29.0575 41.3762 27.2655 43.9042 26.4335 47.2322C25.5375 50.8482 25.1855 54.5282 24.8975 58.2402C24.8975 58.3362 24.7695 58.3042 24.7695 58.2402C24.8655 54.2722 25.3775 50.0802 26.4655 46.2722Z" fill="#263238"/>
<path d="M35.2324 61.376C34.0804 65.28 29.7604 79.424 26.3684 80.16C22.9444 80.896 20.3844 79.616 20.4484 76.832C20.5124 73.792 29.0244 63.424 31.3924 60.96C33.6324 58.624 36.3524 57.536 35.2324 61.376Z" fill="#EB9481"/>
<path d="M32.9293 71.136L23.3613 68.864C23.3613 68.864 30.4653 60.736 33.2173 58.944C36.3213 56.928 36.6733 58.944 35.9693 62.4C35.2973 65.856 32.9293 71.136 32.9293 71.136Z" fill="#FFB50D"/>
<path opacity="0.1" d="M29.9856 64.7039C29.6976 65.1199 29.2176 65.4079 29.2176 65.4079C29.2176 65.4079 28.7376 65.1199 28.4496 64.7039C28.1616 64.2879 28.3536 63.8079 28.7056 63.7759C29.0576 63.7439 29.1856 63.9999 29.2176 64.0959C29.2816 63.9999 29.3776 63.7439 29.7296 63.7759C30.1136 63.8079 30.2736 64.2879 29.9856 64.7039ZM35.4576 63.7759C35.1056 63.7439 34.9776 63.9999 34.9456 64.0959C34.8816 63.9999 34.7536 63.7439 34.4016 63.7759C34.0496 63.8399 33.8576 64.2879 34.1456 64.7039C34.4336 65.1199 34.9136 65.4079 34.9136 65.4079C34.9136 65.4079 35.0416 65.3439 35.2016 65.2159C35.3616 64.7679 35.4896 64.2879 35.6176 63.8399C35.5856 63.8079 35.5536 63.7759 35.4576 63.7759ZM32.6096 59.8399C32.2576 59.8079 32.1296 60.0639 32.0976 60.1599C32.0656 60.1279 32.0336 60.0319 31.9376 59.9679C31.7136 60.1599 31.4576 60.3839 31.2336 60.6079C31.2656 60.6719 31.2976 60.7359 31.3296 60.7999C31.6176 61.2159 32.0976 61.5039 32.0976 61.5039C32.0976 61.5039 32.5776 61.2159 32.8656 60.7999C33.1536 60.3519 32.9616 59.8719 32.6096 59.8399ZM26.8816 68.0319C26.5296 67.9999 26.4016 68.2559 26.3696 68.3519C26.3056 68.2559 26.1776 67.9999 25.8256 68.0319C25.4736 68.0959 25.2816 68.5439 25.5696 68.9599C25.7296 69.1839 25.9536 69.3759 26.1456 69.5039L26.4656 69.5679C26.6256 69.4719 26.9136 69.2159 27.1376 68.9279C27.4256 68.5759 27.2336 68.0959 26.8816 68.0319ZM32.6096 68.0319C32.2576 67.9999 32.1296 68.2559 32.0976 68.3519C32.0336 68.2559 31.9376 67.9999 31.5856 68.0319C31.2336 68.0959 31.0416 68.5439 31.3296 68.9599C31.6176 69.3759 32.0976 69.6639 32.0976 69.6639C32.0976 69.6639 32.5776 69.3759 32.8656 68.9599C33.1536 68.5759 32.9616 68.0959 32.6096 68.0319Z" fill="black"/>
<path d="M25.1217 67.4241C25.4737 67.4561 28.4497 68.1281 29.0897 68.2881C29.7297 68.4481 32.3857 69.0561 33.0257 69.2801C33.0577 69.2801 33.0577 69.3441 33.0257 69.3121C32.3537 69.2161 29.6657 68.6081 29.0257 68.4481C28.3537 68.2881 25.4417 67.5841 25.1217 67.4561C25.0897 67.4561 25.0897 67.4241 25.1217 67.4241Z" fill="#263238"/>
<path opacity="0.1" d="M36.0016 62.4C35.2976 65.856 32.9296 71.136 32.9296 71.136L26.8496 69.664L35.8096 58.304C36.4496 58.848 36.4176 60.384 36.0016 62.4Z" fill="black"/>
<path d="M48.0963 79.008L27.8723 78.752C27.8083 78.688 30.3363 64.416 33.2163 59.648C33.9523 58.432 37.2163 56.672 39.5523 58.976C44.5123 63.872 48.1923 78.88 48.0963 79.008Z" fill="#FFB50D"/>
<path opacity="0.1" d="M35.7117 64.7039C35.4237 65.1199 34.9437 65.4079 34.9437 65.4079C34.9437 65.4079 34.4637 65.1199 34.1757 64.7039C33.8877 64.2879 34.0797 63.8079 34.4317 63.7759C34.7837 63.7439 34.9117 63.9999 34.9437 64.0959C35.0077 63.9999 35.1037 63.7439 35.4557 63.7759C35.8397 63.8079 35.9997 64.2879 35.7117 64.7039ZM41.2157 63.7759C40.8637 63.7439 40.7357 63.9999 40.7037 64.0959C40.6397 63.9999 40.5437 63.7439 40.1917 63.7759C39.8397 63.8399 39.6477 64.2879 39.9357 64.7039C40.2237 65.1199 40.7037 65.4079 40.7037 65.4079C40.7037 65.4079 41.1837 65.1199 41.4717 64.7039C41.7277 64.2879 41.5677 63.8079 41.2157 63.7759ZM32.9597 60.1279C32.7677 60.4479 32.6077 60.8319 32.4157 61.2479C32.5437 61.1199 32.7037 60.9599 32.8637 60.7999C33.0237 60.5439 33.0237 60.2879 32.9597 60.1279ZM38.3357 59.8399C37.9837 59.8079 37.8557 60.0639 37.8237 60.1599C37.7597 60.0639 37.6637 59.8079 37.3117 59.8399C36.9597 59.9039 36.7677 60.3519 37.0557 60.7679C37.3437 61.1839 37.8237 61.4719 37.8237 61.4719C37.8237 61.4719 38.3037 61.1839 38.5917 60.7679C38.8797 60.3519 38.6877 59.8719 38.3357 59.8399ZM29.7597 71.9679C29.4077 71.9359 29.2797 72.1919 29.2477 72.2879C29.2157 72.2559 29.2157 72.2239 29.1837 72.1919C29.0877 72.6079 28.9917 72.9919 28.9277 73.3759C29.1197 73.5359 29.2477 73.6319 29.2477 73.6319C29.2477 73.6319 29.7277 73.3439 30.0157 72.9279C30.2717 72.5119 30.1117 72.0319 29.7597 71.9679ZM35.4877 71.9679C35.1357 71.9359 35.0077 72.1919 34.9757 72.2879C34.9117 72.1919 34.8157 71.9359 34.4637 71.9679C34.1117 72.0319 33.9197 72.4799 34.2077 72.8959C34.4957 73.3119 34.9757 73.5999 34.9757 73.5999C34.9757 73.5999 35.4557 73.3119 35.7437 72.8959C35.9997 72.5119 35.8397 72.0319 35.4877 71.9679ZM41.2157 71.9679C40.8637 71.9359 40.7357 72.1919 40.7037 72.2879C40.6397 72.1919 40.5437 71.9359 40.1917 71.9679C39.8397 72.0319 39.6477 72.4799 39.9357 72.8959C40.2237 73.3119 40.7037 73.5999 40.7037 73.5999C40.7037 73.5999 41.1837 73.3119 41.4717 72.8959C41.7277 72.5119 41.5677 72.0319 41.2157 71.9679ZM46.1437 71.9999C46.0797 71.9679 45.9837 71.9679 45.8877 71.9679C45.5357 72.0319 45.3437 72.4799 45.6317 72.8959C45.9197 73.3119 46.3997 73.5999 46.3997 73.5999C46.3997 73.5999 46.4957 73.5359 46.5917 73.4719C46.4637 72.9919 46.3037 72.5119 46.1437 71.9999ZM32.6077 68.0319C32.2557 67.9999 32.1277 68.2559 32.0957 68.3519C32.0317 68.2559 31.9357 67.9999 31.5837 68.0319C31.2317 68.0959 31.0397 68.5439 31.3277 68.9599C31.6157 69.3759 32.0957 69.6639 32.0957 69.6639C32.0957 69.6639 32.5757 69.3759 32.8637 68.9599C33.1517 68.5759 32.9597 68.0959 32.6077 68.0319ZM38.3357 68.0319C37.9837 67.9999 37.8557 68.2559 37.8237 68.3519C37.7597 68.2559 37.6637 67.9999 37.3117 68.0319C36.9597 68.0959 36.7677 68.5439 37.0557 68.9599C37.3437 69.3759 37.8237 69.6639 37.8237 69.6639C37.8237 69.6639 38.3037 69.3759 38.5917 68.9599C38.8797 68.5759 38.6877 68.0959 38.3357 68.0319ZM44.0637 68.0319C43.7117 67.9999 43.5837 68.2559 43.5517 68.3519C43.4877 68.2559 43.3917 67.9999 43.0397 68.0319C42.6877 68.0959 42.4957 68.5439 42.7837 68.9599C43.0717 69.3759 43.5517 69.6639 43.5517 69.6639C43.5517 69.6639 44.0317 69.3759 44.3197 68.9599C44.6077 68.5759 44.4157 68.0959 44.0637 68.0319ZM32.6077 76.2559C32.2557 76.2239 32.1277 76.4799 32.0957 76.5759C32.0317 76.4799 31.9357 76.2239 31.5837 76.2559C31.2317 76.3199 31.0397 76.7679 31.3277 77.1839C31.6157 77.5999 32.0957 77.8879 32.0957 77.8879C32.0957 77.8879 32.5757 77.5999 32.8637 77.1839C33.1517 76.7679 32.9597 76.2879 32.6077 76.2559ZM38.3357 76.2559C37.9837 76.2239 37.8557 76.4799 37.8237 76.5759C37.7597 76.4799 37.6637 76.2239 37.3117 76.2559C36.9597 76.3199 36.7677 76.7679 37.0557 77.1839C37.3437 77.5999 37.8237 77.8879 37.8237 77.8879C37.8237 77.8879 38.3037 77.5999 38.5917 77.1839C38.8797 76.7679 38.6877 76.2879 38.3357 76.2559ZM44.0637 76.2559C43.7117 76.2239 43.5837 76.4799 43.5517 76.5759C43.4877 76.4799 43.3917 76.2239 43.0397 76.2559C42.6877 76.3199 42.4957 76.7679 42.7837 77.1839C43.0717 77.5999 43.5517 77.8879 43.5517 77.8879C43.5517 77.8879 44.0317 77.5999 44.3197 77.1839C44.6077 76.7679 44.4157 76.2879 44.0637 76.2559Z" fill="black"/>
<path d="M21.9527 75.2961C19.2967 76.1281 20.5767 79.3601 22.2407 80.4161C26.0807 82.8801 33.6967 85.5042 37.7607 85.7922C39.0727 85.8882 40.1607 76.7361 38.8487 76.1601C37.4727 75.5521 27.3287 73.6321 21.9527 75.2961Z" fill="#EB9481"/>
<path d="M50.2729 79.5201C50.4009 80.5761 49.4089 81.0241 49.4089 81.0241C49.4089 81.0241 49.9529 81.6641 49.9209 82.4961C49.8569 83.4241 48.3849 83.7441 48.3849 83.7441C48.3849 83.7441 48.8009 84.5121 48.6729 85.3761C48.5129 86.2721 47.0729 86.7841 47.0729 86.7841C47.0729 86.7841 47.0729 87.7121 46.4329 88.3521C45.3129 89.4721 42.9769 88.9281 41.4729 88.5761C39.9689 88.2561 35.6809 85.6641 34.8809 85.2801L37.2809 75.9361C37.2809 75.9361 44.3849 75.5201 46.0809 76.1601C47.5209 76.7361 50.1449 78.3361 50.2729 79.5201Z" fill="#EB9481"/>
<path d="M49.3764 80.9921C48.0004 80.0641 46.4004 79.5841 44.8324 79.0081C44.8004 79.0081 44.7684 79.0401 44.8004 79.0721C46.3684 79.6161 47.7764 80.4481 49.3124 81.0561C49.4084 81.0561 49.4404 80.9921 49.3764 80.9921Z" fill="#263238"/>
<path d="M48.3537 83.616C48.0337 83.424 47.6497 83.328 47.2977 83.2C46.9137 83.072 46.5297 82.976 46.1457 82.848C45.3777 82.624 44.5777 82.432 43.7777 82.272C43.7457 82.272 43.7137 82.304 43.7457 82.336C44.5137 82.56 45.2817 82.784 46.0497 83.008C46.4337 83.136 46.8177 83.264 47.2017 83.392C47.5537 83.52 47.9377 83.68 48.2897 83.712C48.3857 83.712 48.4177 83.648 48.3537 83.616Z" fill="#263238"/>
<path d="M47.0087 86.7841C46.7527 86.5921 46.3367 86.5601 46.0167 86.4641C45.6647 86.3681 45.3127 86.2721 44.9607 86.1761C44.2567 85.9841 43.5207 85.7921 42.8167 85.6001C42.7847 85.6001 42.7527 85.6321 42.7847 85.6641C43.4887 85.8881 44.2247 86.1121 44.9287 86.3361C45.2807 86.4321 45.6327 86.5281 45.9847 86.6561C46.2727 86.7521 46.6567 86.8801 46.9767 86.8481C47.0087 86.8161 47.0087 86.7841 47.0087 86.7841Z" fill="#263238"/>
<path d="M23.9375 74.8802C26.0815 74.4322 28.2895 74.4002 30.4335 74.7842C28.3215 74.7202 26.0815 74.7522 23.9375 74.8802Z" fill="#263238"/>
<path d="M41.4397 59.8402C44.3517 62.6562 54.8797 74.1442 53.8557 77.7922C52.8637 81.1842 49.6957 81.6322 47.6797 79.7122C44.7677 76.9282 40.3837 66.3362 39.2957 63.0722C38.2397 59.9682 38.5597 57.0882 41.4397 59.8402Z" fill="#EB9481"/>
<path d="M41.9524 71.1682L51.2964 68.1922C51.2964 68.1922 43.6164 60.6082 40.7364 59.0082C37.5044 57.2162 37.2804 59.2642 38.2404 62.6562C39.2004 66.0482 41.9524 71.1682 41.9524 71.1682Z" fill="#FFB50D"/>
<path d="M51.2964 68.1922L41.9524 71.1682C41.9524 71.1682 39.2004 66.0482 38.2404 62.6562C37.2804 59.2642 37.5044 57.2162 40.7364 59.0082C40.8964 59.1042 41.0884 59.2002 41.2804 59.3282C41.3444 59.3922 41.4404 59.4242 41.5044 59.4882C42.5604 60.2242 43.9684 61.4082 45.3764 62.6562C45.4084 62.6882 45.4404 62.6882 45.4404 62.7202C46.5604 63.7122 47.6484 64.7362 48.6084 65.6322C48.7364 65.7602 48.8644 65.8882 48.9924 66.0162C50.3684 67.2642 51.2964 68.1922 51.2964 68.1922Z" fill="#FFB50D"/>
<path d="M51.2964 68.1922L41.9524 71.1682C41.9524 71.1682 39.2004 66.0482 38.2404 62.6562C37.2804 59.2642 37.5044 57.2162 40.7364 59.0082C40.8964 59.1042 41.0884 59.2002 41.2804 59.3282C41.3444 59.3922 41.4404 59.4242 41.5044 59.4882C42.5604 60.2242 43.9684 61.4082 45.3764 62.6562C45.4084 62.6882 45.4404 62.6882 45.4404 62.7202C46.5604 63.7122 47.6484 64.7362 48.6084 65.6322C48.7364 65.7602 48.8644 65.8882 48.9924 66.0162C50.3684 67.2642 51.2964 68.1922 51.2964 68.1922Z" fill="#FFB50D"/>
<path opacity="0.1" d="M41.4398 64.7042C41.1518 65.1202 40.6718 65.4081 40.6718 65.4081C40.6718 65.4081 40.1918 65.1202 39.9038 64.7042C39.6158 64.2882 39.8078 63.8082 40.1598 63.7762C40.5118 63.7442 40.6398 64.0002 40.6718 64.0962C40.7358 64.0002 40.8318 63.7442 41.1838 63.7762C41.5678 63.8082 41.7278 64.2882 41.4398 64.7042ZM46.6878 63.8081C46.5278 63.8721 46.4318 64.0322 46.3998 64.0962C46.3358 64.0002 46.2398 63.7442 45.8878 63.7762C45.5358 63.8402 45.3438 64.2882 45.6318 64.7042C45.9198 65.1202 46.3998 65.4081 46.3998 65.4081C46.3998 65.4081 46.8798 65.1202 47.1678 64.7042C47.2638 64.5762 47.2958 64.4802 47.2958 64.3522C47.1038 64.1922 46.9118 64.0001 46.6878 63.8081ZM38.3358 59.8402C37.9838 59.8082 37.8558 60.0642 37.8238 60.1602C37.8238 60.1282 37.7918 60.0962 37.7598 60.0642C37.7598 60.4482 37.8238 60.8962 37.9198 61.3762C38.0798 61.2802 38.3678 61.0561 38.5598 60.7681C38.8798 60.3521 38.6878 59.8722 38.3358 59.8402ZM42.6238 60.2881C42.6238 60.4161 42.6558 60.6082 42.7518 60.7362C43.0398 61.1522 43.5198 61.4402 43.5198 61.4402C43.5198 61.4402 43.6478 61.3761 43.8078 61.2481C43.3918 60.9281 43.0078 60.6081 42.6238 60.2881ZM44.0638 68.0322C43.7118 68.0002 43.5838 68.2562 43.5518 68.3522C43.4878 68.2562 43.3918 68.0002 43.0398 68.0322C42.6878 68.0962 42.4958 68.5442 42.7838 68.9602C43.0718 69.3762 43.5518 69.6642 43.5518 69.6642C43.5518 69.6642 44.0318 69.3762 44.3198 68.9602C44.6078 68.5762 44.4158 68.0962 44.0638 68.0322ZM49.7918 68.0322C49.4398 68.0002 49.3118 68.2562 49.2798 68.3522C49.2158 68.2562 49.0878 68.0002 48.7678 68.0322C48.4158 68.0962 48.2238 68.5442 48.5118 68.9602C48.5438 68.9922 48.5438 69.0241 48.5758 69.0241L50.2078 68.5122C50.1758 68.2882 50.0158 68.0642 49.7918 68.0322Z" fill="black"/>
<path d="M49.4719 66.9441C49.1199 67.0081 46.2079 67.8721 45.5679 68.0961C44.9279 68.2881 42.3359 69.1201 41.6959 69.3761C41.6639 69.3761 41.6639 69.4401 41.6959 69.4081C42.3679 69.2801 44.9919 68.4481 45.6319 68.2561C46.2719 68.0641 49.1519 67.1361 49.4719 66.9761C49.5039 66.9761 49.4719 66.9441 49.4719 66.9441Z" fill="#263238"/>
<path d="M42.8803 70.8482C42.5603 70.9762 42.2403 71.0722 41.9523 71.2002L41.9203 71.1682C41.0883 69.6642 40.3523 68.1282 39.6803 66.5602C39.4563 66.0482 39.2323 65.5042 39.0723 64.9602C39.5523 65.9842 40.0323 67.0082 40.5443 68.0322L42.0163 71.1042L41.9523 71.0722C42.2403 71.0402 42.5603 70.9442 42.8803 70.8482Z" fill="#263238"/>
<path d="M38.9766 65.7922C39.2966 66.0802 39.5526 66.3682 39.7766 66.7522C39.4246 66.5282 39.1046 66.1762 38.9766 65.7922Z" fill="#263238"/>
<path d="M38.2079 58.7521C38.0479 59.1361 35.7759 61.4721 33.9519 61.1201C33.3439 60.9921 33.8239 57.7281 33.8239 57.7281L33.7919 57.4721L33.5039 53.9841L38.4639 51.7441C38.4959 51.7441 38.2719 58.5921 38.2079 58.7521Z" fill="#EB9481"/>
<path d="M38.2072 58.5923C36.0632 58.7523 34.5592 57.6643 33.7592 57.0563L33.5352 54.0163L38.4952 51.7763C38.4952 51.7443 38.3032 57.5683 38.2072 58.5923Z" fill="#263238"/>
<path d="M42.6555 47.584C44.7355 54.912 40.5755 56.96 39.0075 57.408C37.5675 57.824 32.6395 59.008 29.8235 51.936C27.0075 44.864 29.7595 41.6 32.9915 40.48C36.1915 39.424 40.5755 40.256 42.6555 47.584Z" fill="#EB9481"/>
<path d="M41.5361 47.488C41.3761 47.552 41.1841 47.584 41.0241 47.616C40.8321 47.648 40.6721 47.712 40.4801 47.648C40.3841 47.616 40.3201 47.456 40.3521 47.36C40.4161 47.104 40.6401 47.008 40.8961 46.944C41.1521 46.88 41.3761 46.88 41.6001 46.976C41.7921 47.072 41.7601 47.424 41.5361 47.488Z" fill="#263238"/>
<path d="M36.7366 49.2799C36.9286 49.2799 37.0886 49.2799 37.2486 49.2799C37.4406 49.2799 37.6006 49.2799 37.7926 49.1519C37.8886 49.0879 37.9206 48.9279 37.8566 48.8319C37.7286 48.6079 37.4726 48.5439 37.2486 48.5439C36.9926 48.5439 36.7686 48.6079 36.5766 48.7679C36.3526 48.9279 36.5126 49.2479 36.7366 49.2799Z" fill="#263238"/>
<path d="M37.5363 49.536C36.7043 49.632 36.9283 51.264 37.6963 51.2C38.4643 51.104 38.2083 49.472 37.5363 49.536Z" fill="#263238"/>
<path d="M37.2166 49.6641C37.0886 49.7921 36.9606 49.9521 36.8006 50.0161C36.6086 50.0801 36.4166 49.9201 36.2566 49.7601C36.2246 49.7601 36.2246 49.7601 36.2246 49.7921C36.2566 50.1121 36.4166 50.4321 36.7686 50.4321C37.0886 50.4321 37.2806 50.1121 37.3126 49.7921C37.3126 49.6961 37.2486 49.6321 37.2166 49.6641Z" fill="#263238"/>
<path d="M41.1852 48.8318C42.0172 48.6718 42.2732 50.3038 41.5372 50.4638C40.8012 50.6238 40.5132 48.9918 41.1852 48.8318Z" fill="#263238"/>
<path d="M41.5687 48.8959C41.7287 48.9599 41.8567 49.0879 42.0167 49.0879C42.2087 49.0559 42.3047 48.8639 42.4007 48.6719C42.4007 48.6399 42.4327 48.6719 42.4327 48.6719C42.4967 48.9919 42.4327 49.3439 42.1447 49.4399C41.8887 49.5359 41.6327 49.3119 41.5047 48.9919C41.4727 48.9599 41.5047 48.8639 41.5687 48.8959Z" fill="#263238"/>
<path d="M38.4331 54.0159C38.5611 54.1119 38.7211 54.2719 38.8811 54.2719C39.0731 54.2719 39.2651 54.1759 39.4251 54.0799C39.4251 54.0799 39.4571 54.0799 39.4571 54.1119C39.3291 54.3359 39.0731 54.4639 38.8171 54.4639C38.5931 54.4319 38.4331 54.2399 38.3691 54.0479C38.3691 54.0159 38.4011 53.9839 38.4331 54.0159Z" fill="#263238"/>
<path d="M40.2886 51.84C40.2886 51.84 40.5126 52.576 40.5766 52.96C40.5766 52.992 40.4806 53.024 40.3846 53.056C39.7766 53.248 39.0726 53.12 38.6246 52.672C38.5926 52.64 38.6246 52.608 38.6566 52.608C39.2006 52.896 39.7126 52.896 40.2886 52.832C40.2886 52.736 39.8726 51.552 39.9366 51.552C40.1926 51.552 40.6086 51.584 40.7686 51.616C40.6406 51.136 40.1926 49.76 39.9366 48.864C39.9366 48.8 40.0006 48.768 40.0326 48.832C40.6086 50.144 40.8646 50.816 41.1846 51.872C41.1846 51.904 40.4486 51.872 40.2886 51.84Z" fill="#263238"/>
<path d="M40.2885 52.7679C40.2885 52.7679 40.0645 53.3439 39.6485 53.6319C39.4885 53.7279 39.2965 53.8239 39.1045 53.8239C38.6565 53.8239 38.5605 53.4719 38.5605 53.1199C38.5605 52.8319 38.6245 52.5759 38.6245 52.5759C38.6245 52.5759 39.3285 52.9599 40.2885 52.7679Z" fill="#263238"/>
<path d="M39.6485 53.632C39.4885 53.728 39.2965 53.824 39.1045 53.824C38.6565 53.824 38.5605 53.472 38.5605 53.12C38.9765 53.024 39.4885 53.216 39.6485 53.632Z" fill="#FF99BA"/>
<path d="M30.4963 53.5361C31.9683 52.3841 31.6483 50.5601 31.6483 50.5601C33.5043 49.2161 34.2403 47.3281 34.3043 47.1361C34.3043 47.2961 34.1763 48.5441 34.1123 49.1521C38.6563 47.2321 39.2963 43.1681 39.2963 43.1681C41.2163 44.4161 41.7283 45.3761 42.0803 45.8241C42.0803 45.8241 41.4403 42.8161 39.4563 41.1201C37.0563 39.0401 34.6563 40.0641 34.6563 40.0641C34.6563 40.0641 30.6883 39.7121 28.5443 43.5521C26.2723 47.6801 30.4963 53.5361 30.4963 53.5361Z" fill="#263238"/>
<path d="M37.5681 47.584C36.8961 48.192 36.1281 48.672 35.3281 49.024C36.5761 48.352 37.6321 47.3601 38.3361 46.1121C38.6241 45.5681 38.8801 45.0241 39.0401 44.4161C39.2001 43.8081 39.3281 43.0721 39.2321 42.4001C39.2321 42.3361 39.2961 42.3361 39.2961 42.4001C39.3921 43.1041 39.4881 43.7121 39.3601 44.4161C39.2321 45.0561 39.0081 45.6961 38.6561 46.2721C38.3681 46.7521 37.9841 47.2 37.5681 47.584Z" fill="#263238"/>
<path d="M31.8411 51.9042C31.8411 51.9042 29.7611 49.8882 28.8011 50.6562C27.8411 51.4562 29.7291 54.5922 31.0731 54.8162C32.4171 55.0402 32.6411 53.8242 32.6411 53.8242L31.8411 51.9042Z" fill="#EB9481"/>
<path d="M29.3775 51.5523C29.3455 51.5523 29.3455 51.5843 29.3775 51.5843C30.3055 51.7763 30.9455 52.4803 31.4255 53.2803C31.1055 52.9923 30.7215 52.8963 30.3375 53.2803C30.3055 53.3123 30.3375 53.3443 30.3695 53.3123C30.7215 53.1523 30.9775 53.1843 31.2655 53.4083C31.4895 53.5683 31.6495 53.8243 31.8095 54.0163C31.8735 54.0803 32.0015 54.0163 31.9375 53.9203C31.9375 53.9203 31.9375 53.9203 31.9375 53.8883C31.7775 52.8003 30.5935 51.4243 29.3775 51.5523Z" fill="#263238"/>
<path d="M48.8976 79.8401C50.7216 81.9841 53.5696 79.4881 53.8896 77.5361C54.6256 72.9601 53.1216 64.0641 51.7456 60.1281C51.2976 58.8481 43.2656 61.9521 43.2656 63.3921C43.2656 64.8961 45.2176 75.4561 48.8976 79.8401Z" fill="#EB9481"/>
<path d="M52.0664 62.8481C52.0664 62.9121 52.3544 60.2881 52.5464 57.7601C52.6424 56.4161 52.2904 53.7281 51.9064 52.7361C51.3304 51.2321 48.0024 45.3121 46.5304 46.0801C45.2184 46.7841 48.7384 51.5201 48.7384 51.5201C48.7384 51.5201 45.6024 46.4321 44.1624 47.5841C42.7224 48.7361 47.4264 53.5361 47.4264 53.5361C47.4264 53.5361 44.0984 48.3841 42.8184 49.7921C41.8584 50.8481 45.8584 55.4561 45.8584 55.4561C45.8584 55.4561 42.9464 51.0401 41.9224 52.0961C40.7704 53.2481 44.1944 57.7281 44.1944 57.7281C41.9864 60.8641 41.9544 62.8481 43.5544 65.4401L52.0664 62.8481Z" fill="#EB9481"/>
<path d="M49.9521 53.1842C49.6001 52.5762 49.2481 51.9682 48.8641 51.3602C48.4801 50.7842 48.0321 50.2082 47.5841 49.6642C46.4641 48.3522 45.5681 47.6802 45.6321 47.7442C46.8481 48.8322 48.2881 50.8802 48.7041 51.4562C49.0881 52.0642 49.5041 52.6402 49.9521 53.1842C49.9201 53.2162 49.9521 53.2162 49.9521 53.1842Z" fill="#263238"/>
<path d="M47.8724 54.6882C47.3924 53.9202 46.9444 53.1522 46.4324 52.4162C45.9204 51.6802 45.3764 51.0402 44.8324 50.3362C44.8004 50.2722 44.7684 50.3362 44.8004 50.3682C45.3444 51.1042 45.7604 51.8082 46.2724 52.5122C46.8164 53.2482 47.3604 53.9522 47.8724 54.6882Z" fill="#263238"/>
<path d="M46.3369 56.2562C45.6649 55.0722 44.8009 53.8882 43.8729 52.8642C43.8409 52.8002 43.8089 52.8642 43.8729 52.9282C44.7049 54.0162 45.3769 54.9442 46.3049 56.2882C46.3049 56.3202 46.3689 56.2882 46.3369 56.2562Z" fill="#263238"/>
<path d="M44.1616 57.7281C43.2336 56.6081 40.7696 53.5041 41.6976 52.0641C42.3056 51.3921 43.2336 52.1601 43.7136 52.6081L43.5216 52.8001C43.0416 52.0321 42.0176 50.3681 42.9776 49.6641C42.1776 50.4641 43.2336 51.9361 43.7456 52.6401L44.5136 53.6641L43.5536 52.8001C42.7856 52.1281 41.6336 51.5521 41.8256 53.1201C42.2096 54.8161 43.2656 56.2881 44.1616 57.7281Z" fill="#263238"/>
<path d="M44.6406 70.3042C45.4086 72.4162 46.1126 74.6882 47.0086 76.7362C45.7926 74.7842 45.0886 72.5442 44.6406 70.3042Z" fill="#263238"/>
<path d="M44.8984 75.7441C45.8264 77.3761 47.5544 80.3201 49.5384 80.6401C50.9144 80.8961 52.3544 80.3521 53.1864 79.2001C52.9304 79.6161 52.6104 79.9681 52.2264 80.2561C51.0424 81.0881 49.3144 81.1841 48.1304 80.3201C46.6904 79.1361 45.6344 77.4721 44.8984 75.7441Z" fill="#263238"/>
<path d="M106.305 149.76C105.505 150.016 82.7848 149.76 81.9528 149.216C81.6328 148.992 81.4728 145.696 81.4088 141.696C81.3768 140.832 81.4088 127.68 81.4088 127.68L95.7768 127.84L96.0648 141.824C96.0648 141.824 104.705 145.824 105.601 146.528C106.433 147.2 107.105 149.504 106.305 149.76Z" fill="#AD6359"/>
<path d="M81.9527 149.184C82.8167 149.728 105.505 149.984 106.305 149.728C107.105 149.472 106.433 147.168 105.537 146.464C105.057 146.08 102.177 144.672 99.7447 143.52C102.337 144.8 104.673 146.976 93.2807 145.76C90.3367 145.44 86.4967 144.928 81.4727 144.064C81.5367 146.944 81.6967 149.024 81.9527 149.184Z" fill="#263238"/>
<path d="M99.7441 143.552C99.7441 143.552 95.776 142.432 93.248 145.792L99.7441 143.552Z" fill="#263238"/>
<path d="M80.5135 141.312H96.9615C96.9615 141.312 98.0495 139.648 97.8575 136.992C97.3135 129.312 95.2655 114.24 95.1375 113.472C93.9535 105.504 89.8895 79.6799 89.8895 79.6799L75.1055 79.7759C75.1055 79.7759 81.1215 111.232 81.1215 113.216C81.1215 118.528 79.9375 130.624 79.7455 137.12C79.6495 139.808 80.5135 141.312 80.5135 141.312Z" fill="#263238"/>
<path opacity="0.1" d="M81.0895 113.216C81.0895 113.824 81.0895 114.528 81.0895 115.296L89.5055 79.6799L75.1055 79.7759C75.1055 79.7759 81.0895 111.232 81.0895 113.216Z" fill="black"/>
<path d="M57.1846 148.384C56.5446 147.872 44.2246 128.768 44.2246 127.744C44.2246 127.36 46.8806 125.408 50.2086 123.136C50.9126 122.656 61.9206 115.424 61.9206 115.424L69.6966 127.488L58.1766 135.424C58.1766 135.424 59.6166 144.832 59.4886 145.952C59.3606 147.072 57.8246 148.896 57.1846 148.384Z" fill="#AD6359"/>
<path d="M44.2246 127.744C44.2246 128.768 56.5446 147.872 57.1846 148.384C57.8246 148.896 59.3606 147.072 59.4886 145.952C59.5526 145.344 59.1366 142.176 58.7526 139.488C59.1046 142.368 58.5926 145.504 53.3126 135.328C51.9366 132.704 50.2726 129.184 48.2246 124.544C45.8886 126.144 44.2246 127.424 44.2246 127.744Z" fill="#263238"/>
<path d="M58.7525 139.456C58.7525 139.456 57.5045 135.52 53.3125 135.296L58.7525 139.456Z" fill="#263238"/>
<path d="M50.625 121.856L59.873 136.416C59.873 136.416 62.785 136.608 65.089 134.816C70.497 130.592 78.401 121.568 79.553 117.952C81.633 111.328 84.257 90.784 84.257 90.784L86.785 90.304C87.649 89.44 89.025 79.6479 89.025 79.6479L71.425 79.744C71.425 79.744 68.225 87.2319 69.729 94.0159C69.729 94.0159 67.585 106.976 66.657 111.008C66.465 111.904 58.497 115.04 53.825 117.92C51.297 119.552 50.625 121.856 50.625 121.856Z" fill="#263238"/>
<path d="M80.5134 91.7439C81.7614 91.2319 83.0414 90.8159 84.3534 90.5279C85.7294 90.2399 87.1054 90.0799 88.4814 89.8879C88.5454 89.8879 88.5774 89.9839 88.5134 89.9839C87.1694 90.2399 85.8574 90.6239 84.5454 90.9439C83.2014 91.2639 81.8894 91.5519 80.5454 91.8399C80.4814 91.8399 80.4494 91.7439 80.5134 91.7439Z" fill="#455A64"/>
<path d="M84.8963 84.448C84.9923 83.04 85.0883 81.632 85.2483 80.256C85.2483 80.192 85.3443 80.192 85.3443 80.256C85.3763 81.504 85.3763 82.784 85.3443 84.032C85.3443 84.672 85.3123 85.28 85.2803 85.92C85.2483 86.336 85.1203 87.584 85.7923 87.584C86.4323 87.552 86.5603 86.752 86.6243 86.272C86.7523 85.632 86.8483 84.96 86.9123 84.32C87.0723 83.04 87.1363 81.76 87.2003 80.48C87.2003 80.416 87.2963 80.416 87.2963 80.48C87.4243 81.664 87.4243 82.848 87.3283 84.064C87.2643 84.672 87.2003 85.28 87.1363 85.856C87.0723 86.336 87.0083 86.88 86.8163 87.328C86.6243 87.68 86.2403 88 85.8563 88.064C85.8563 88.096 85.8563 88.096 85.8563 88.128C85.8563 88.224 85.8563 88.32 85.8563 88.416C85.8563 88.64 85.8563 88.864 85.8243 89.088C85.8243 89.312 85.7923 89.504 85.7603 89.728C85.7283 89.92 85.7283 90.176 85.6643 90.368C85.6323 90.432 85.5683 90.4 85.5683 90.368C85.5043 90.176 85.5043 89.952 85.5043 89.76C85.5043 89.536 85.4723 89.312 85.4723 89.088C85.4723 88.864 85.4723 88.672 85.4723 88.448C85.4723 88.352 85.4723 88.224 85.4723 88.128C85.4723 88.096 85.4723 88.096 85.4723 88.096C85.2803 88.064 85.0883 87.936 84.9603 87.712C84.7363 87.328 84.7363 86.784 84.7363 86.336C84.8003 85.632 84.8643 85.024 84.8963 84.448Z" fill="#455A64"/>
<path d="M72.2566 86.6881C72.6406 86.7521 72.9926 86.8801 73.3766 86.9121C73.7926 86.9441 74.1766 86.8801 74.5926 86.7841C75.4246 86.5921 76.1926 86.1761 76.8006 85.5681C77.4406 84.9281 77.9206 84.1601 78.2406 83.3281C78.4006 82.9121 78.5606 82.4961 78.6886 82.0801C78.8166 81.6001 78.9766 81.1201 79.1046 80.6401C79.1046 80.5761 79.2006 80.6081 79.2006 80.6721C79.1686 80.9601 79.1686 81.2801 79.1366 81.5681C79.1046 81.7921 79.0726 82.0481 79.0086 82.2721C78.9126 82.7841 78.7526 83.2641 78.5926 83.7441C78.2406 84.6401 77.7286 85.5041 77.0246 86.1761C76.3846 86.8161 75.5206 87.2321 74.6246 87.3601C73.8566 87.4881 72.8006 87.3921 72.2246 86.7841C72.2246 86.7201 72.2246 86.6561 72.2566 86.6881Z" fill="#455A64"/>
<path d="M88.9609 57.1201C88.4169 57.7281 87.9049 58.3041 88.0649 59.3921C88.1929 60.1601 88.9609 61.0881 88.9609 61.0881L90.2089 61.0561C90.2089 61.0561 90.9449 60.2241 91.0409 59.2321C91.1369 58.1761 90.2729 57.1521 90.2729 57.1521L88.9609 57.1201Z" fill="#263238"/>
<path d="M88.9929 60.9281C88.5449 61.6001 88.0969 62.2401 88.4169 63.2961C88.6409 64.0321 89.5369 64.8321 89.5369 64.8321L90.7529 64.6401C90.7529 64.6401 91.3609 63.7121 91.2969 62.7201C91.2649 61.6641 90.2409 60.7681 90.2409 60.7681L88.9929 60.9281Z" fill="#263238"/>
<path d="M89.568 64.7362C89.408 65.5362 89.216 66.2722 89.888 67.1682C90.368 67.7762 91.488 68.1922 91.488 68.1922L92.576 67.5842C92.576 67.5842 92.8 66.4962 92.384 65.6002C91.968 64.6082 90.72 64.1602 90.72 64.1602L89.568 64.7362Z" fill="#263238"/>
<path d="M91.4897 68.1922C91.4897 68.1922 91.0097 69.5042 91.9057 70.6242C92.8017 71.7442 95.6817 71.8722 95.6817 71.8722C95.6817 71.8722 94.8177 71.3282 94.6577 70.4642C94.4657 69.6002 94.2737 67.9362 92.6097 67.5842L91.4897 68.1922Z" fill="#263238"/>
<path d="M92.8735 67.1883L90.9219 68.3516L91.2987 68.9838L93.2503 67.8205L92.8735 67.1883Z" fill="#FFB50D"/>
<path d="M70.0488 83.328L90.9448 83.232C91.0088 83.168 87.5848 68.096 85.2488 63.584C84.6408 62.432 81.7288 60.832 79.3288 62.624C73.8568 66.624 70.0488 83.328 70.0488 83.328Z" fill="#455A64"/>
<path d="M70.1433 79.264C70.3673 78.976 80.0313 70.688 80.7673 65.184C81.2473 61.568 77.1513 64.032 77.1513 64.032L76.9273 62.944C76.9273 62.944 79.4553 61.728 80.8633 62.4C85.9833 64.928 74.8473 77.472 69.6953 81.408L70.1433 79.264Z" fill="#263238"/>
<path d="M69.2482 86.24C70.3042 85.44 69.6962 80.416 71.8082 75.2C73.9202 69.984 78.4002 63.616 78.1122 63.168C77.6962 62.528 73.7922 62.144 72.2242 63.168C70.2402 64.448 66.6242 69.12 66.6242 69.12C66.6242 69.12 64.6082 70.048 64.0322 70.976C63.8722 71.232 63.4882 72.064 63.0402 73.184C62.9122 73.504 61.6322 74.208 61.5042 74.56C60.6722 76.544 59.8402 78.4 59.2642 80C58.9122 80.928 59.6802 81.824 59.6802 81.92C59.7442 82.304 60.2562 86.112 60.7682 86.592C61.2482 87.136 64.9602 89.44 69.2482 86.24Z" fill="#FFB50D"/>
<g opacity="0.2">
<path d="M68.0641 84.0321C68.2881 83.2321 68.2241 83.4881 68.4161 82.6881C68.6081 81.9201 68.8641 81.1201 69.0241 80.3521C69.0561 80.2561 69.0561 80.1921 68.9601 80.1281C68.8001 80.0321 68.5121 80.0001 68.3201 79.9681C67.7761 79.8401 67.2321 79.7441 66.6881 79.6481C65.5681 79.4561 64.2881 79.2321 63.1361 79.1041C63.0401 79.1041 63.0081 79.2321 63.1041 79.2321C64.8641 79.4241 66.7521 79.7441 68.4801 80.1601C68.5761 80.1921 68.8001 80.2241 68.8321 80.2881C68.8321 80.3201 68.8001 80.4481 68.8001 80.4481C68.7681 80.6081 68.7041 80.8001 68.6721 80.9601C68.5761 81.3121 68.4801 81.6641 68.3841 81.9841C68.1921 82.6881 68.2881 82.3361 68.0961 83.0081C68.0001 83.3281 67.9361 83.6481 67.8401 83.9681C67.8081 84.1281 67.7441 84.3201 67.7121 84.4801C67.6801 84.5761 67.6801 84.6401 67.6481 84.7361C67.5841 84.8961 67.5201 84.9921 67.2961 85.0241C66.9441 85.1201 66.5281 85.1841 66.1441 85.2481C65.7281 85.3441 65.2801 85.4081 64.8641 85.5041C64.6721 85.5361 64.3841 85.6321 64.1921 85.6321C63.9681 85.6321 63.7441 85.3761 63.6161 85.2481L62.2401 84.0641C62.1121 83.9681 61.9521 83.7761 61.8881 83.6481C61.7921 83.4881 62.7841 79.8721 63.1361 79.1361C63.1361 79.1041 63.0401 79.0721 63.0401 79.1041C62.7201 79.8081 61.6001 83.2001 61.6001 83.5521C61.5681 83.8401 61.8561 84.0321 62.1121 84.2561C62.4641 84.5441 62.7841 84.8321 63.1361 85.1521C63.3281 85.3121 63.4881 85.4721 63.6801 85.6001C63.8081 85.6961 63.9361 85.8241 64.1281 85.8241C64.2881 85.8561 64.4481 85.7921 64.6081 85.7601C64.8641 85.6961 65.0881 85.6641 65.3441 85.6001L66.7841 85.3121C67.1041 85.2481 67.5841 85.2161 67.7761 84.9921C67.8721 84.8641 67.8721 84.7361 67.9041 84.6081C67.9681 84.4481 68.0001 84.2241 68.0641 84.0321Z" fill="black"/>
<path d="M68.7683 80.5442C67.7443 80.8322 66.7203 81.1522 65.6643 81.4082C65.5363 81.4402 65.4083 81.4722 65.2483 81.5042C64.9923 81.5682 64.8643 81.5042 64.7043 81.3442C64.5443 81.1842 64.3523 81.0242 64.1923 80.8642C63.8083 80.5122 63.3923 80.1602 63.0083 79.7762C62.9763 79.7442 62.9123 79.7762 62.9443 79.8082C63.3603 80.2242 63.7443 80.6722 64.1603 81.0882C64.4483 81.3762 64.7043 81.7602 65.2163 81.6642C65.7923 81.5362 66.4003 81.3442 66.9443 81.1842C67.5843 81.0242 68.1923 80.8002 68.7683 80.5442C68.8003 80.5762 68.8003 80.5442 68.7683 80.5442Z" fill="black"/>
<path d="M65.3445 81.0561C65.3445 80.9921 65.3125 80.9281 65.2485 80.8641C65.1525 80.8001 65.0565 80.8321 64.9605 80.8641C64.9285 80.8641 64.9285 80.9281 64.9925 80.9281C65.0245 80.9281 65.0565 80.8961 65.1205 80.8961C65.1525 80.8961 65.1525 80.8961 65.1845 80.9281L65.2165 80.9601C65.2165 80.9601 65.2165 80.9921 65.2485 80.9921C65.2485 80.9921 65.2485 80.9921 65.2485 81.0241C65.2485 81.0561 65.2485 81.0881 65.2485 81.1201C65.2485 81.1841 65.1845 81.2161 65.1205 81.2481C65.0885 81.2481 65.0565 81.2481 65.0245 81.2161C64.9925 81.1841 64.9925 81.1521 64.9925 81.1201H64.9605C64.9605 81.1841 64.9605 81.2481 65.0245 81.2801C65.0885 81.3121 65.1845 81.2801 65.2485 81.2481C65.3125 81.2161 65.3765 81.1201 65.3445 81.0561Z" fill="black"/>
</g>
<g opacity="0.2">
<path d="M73.4411 69.9519C73.7291 69.4079 73.6331 69.5679 73.9531 69.0239C74.2411 68.4799 74.5611 67.9359 74.8171 67.3919C74.8491 67.3279 74.8811 67.2639 74.8171 67.1999C74.7211 67.1039 74.4971 67.0079 74.3691 66.9439C73.9851 66.7519 73.6011 66.5599 73.2171 66.3679C72.4171 65.9839 71.4891 65.5679 70.6571 65.2479C70.5931 65.2159 70.5291 65.3119 70.6251 65.3439C71.9051 65.8559 73.2491 66.4959 74.4651 67.1359C74.5291 67.1679 74.6891 67.2319 74.7211 67.2959C74.7211 67.3279 74.6571 67.4239 74.6571 67.4239C74.5931 67.5519 74.5291 67.6799 74.4651 67.7759C74.3371 68.0319 74.2091 68.2559 74.0811 68.5119C73.8251 68.9919 73.9531 68.7359 73.6971 69.2479C73.5691 69.4719 73.4731 69.6959 73.3451 69.9199C73.2811 70.0479 73.2171 70.1759 73.1531 70.2719C73.1211 70.3359 73.0891 70.3999 73.0571 70.4639C72.9931 70.5919 72.9291 70.6239 72.7371 70.6239C72.4491 70.6239 72.1291 70.5919 71.8411 70.5599C71.5211 70.5279 71.1691 70.4959 70.8491 70.4959C70.6891 70.4959 70.4651 70.4959 70.3051 70.4319C70.1451 70.3679 70.0171 70.1439 69.9211 70.0159L69.1211 68.8319C69.0571 68.7359 68.9611 68.5439 68.9291 68.4479C68.8971 68.2879 70.2731 65.7599 70.6571 65.2799C70.6891 65.2479 70.5931 65.2159 70.5931 65.2479C70.2411 65.6959 68.8011 68.0639 68.7371 68.3199C68.6731 68.5439 68.8331 68.7359 68.9931 68.9599C69.1851 69.2479 69.4091 69.5359 69.6011 69.8239C69.6971 69.9839 69.8251 70.1439 69.9211 70.2719C69.9851 70.3679 70.0811 70.4959 70.2091 70.5279C70.3371 70.5599 70.4651 70.5599 70.5931 70.5919C70.7851 70.5919 70.9771 70.6239 71.1691 70.6239L72.2891 70.7199C72.5451 70.7519 72.8971 70.8159 73.0891 70.6879C73.1851 70.6239 73.2171 70.4959 73.2491 70.4319C73.3131 70.2079 73.3771 70.0799 73.4411 69.9519Z" fill="black"/>
<path d="M74.5619 67.4559C73.7299 67.4879 72.9299 67.4879 72.0979 67.4559C72.0019 67.4559 71.8739 67.4559 71.7779 67.4559C71.5539 67.4559 71.4899 67.3919 71.3939 67.2319C71.2979 67.0719 71.2019 66.9119 71.1059 66.7519C70.8819 66.3999 70.6259 66.0479 70.4019 65.6959C70.3699 65.6639 70.3379 65.6639 70.3379 65.6959C70.5619 66.1119 70.7859 66.4959 71.0419 66.9119C71.2019 67.1999 71.3299 67.5519 71.7459 67.5519C72.1939 67.5839 72.6739 67.5519 73.1219 67.5519C73.6019 67.5519 74.1139 67.5199 74.5619 67.4559C74.5939 67.4559 74.5939 67.4559 74.5619 67.4559Z" fill="black"/>
<path d="M71.9374 67.1039C71.9374 67.0399 71.9374 66.9759 71.9054 66.9439C71.8414 66.8799 71.7774 66.8799 71.6814 66.8799C71.6494 66.8799 71.6494 66.9119 71.6814 66.9119C71.7134 66.9119 71.7454 66.9119 71.7774 66.9119C71.7774 66.9119 71.8094 66.9119 71.8094 66.9439V66.9759V67.0079C71.8094 67.0079 71.8094 67.0079 71.8094 67.0399C71.8094 67.0719 71.8094 67.1039 71.8094 67.1039C71.8094 67.1359 71.7454 67.1679 71.6814 67.1679C71.6494 67.1679 71.6174 67.1679 71.6174 67.1359C71.6174 67.1039 71.6174 67.0719 71.6174 67.0399C71.6174 67.0719 71.5854 67.1359 71.6494 67.1999C71.6814 67.2319 71.7774 67.2319 71.8414 67.2319C71.9054 67.2319 71.9374 67.1679 71.9374 67.1039Z" fill="black"/>
</g>
<path opacity="0.2" d="M62.9434 73.408C62.9434 73.408 61.8234 76.704 61.7594 77.056C61.6954 77.408 60.4794 81.056 60.1914 81.248C59.9034 81.44 59.7754 81.632 59.7754 81.632" fill="black"/>
<path opacity="0.2" d="M66.6239 69.1521C66.6239 69.1521 64.6719 73.3121 64.5119 73.6001C64.3519 73.8881 62.6879 77.7601 62.4639 78.1121C62.2399 78.4321 61.6639 79.1361 61.5039 79.2321" fill="black"/>
<path d="M84.708 84.5557L88.0371 66.5889L85.4569 66.1108L82.1278 84.0776L84.708 84.5557Z" fill="#FFB50D"/>
<path d="M87.2802 85.0464L90.6094 67.0796L88.0292 66.6015L84.7 84.5684L87.2802 85.0464Z" fill="#263238"/>
<path d="M85.0582 82.6445L85.3672 80.9768L82.787 80.4987L82.478 82.1664L85.0582 82.6445Z" fill="#FFB50D"/>
<path d="M85.5533 79.8788L85.6758 79.218L83.0956 78.7399L82.9732 79.4007L85.5533 79.8788Z" fill="#FFB50D"/>
<path d="M88.3908 85.3109L91.9648 66.0225L88.8812 65.4511L85.3072 84.7395L88.3908 85.3109Z" fill="#C7C7C7"/>
<path d="M91.3748 69.1028L91.7246 67.2148L88.641 66.6435L88.2912 68.5314L91.3748 69.1028Z" fill="#FFB50D"/>
<path d="M91.118 70.5906L91.2637 69.804L88.18 69.2329L88.0344 70.0195L91.118 70.5906Z" fill="#FFB50D"/>
<path d="M88.8242 82.9873L89.1738 81.0994L86.0902 80.5283L85.7406 82.4162L88.8242 82.9873Z" fill="#FFB50D"/>
<path d="M97.8038 67.1106L91.9512 66.0261L88.3713 85.346L94.2239 86.4305L97.8038 67.1106Z" fill="#EBEBEB"/>
<path d="M91.8191 85.6633L95.1191 67.8538L92.539 67.3757L89.239 85.1852L91.8191 85.6633Z" fill="#455A64"/>
<path d="M96.6901 86.5703L99.9883 68.7607L95.1426 67.8634L91.8444 85.6729L96.6901 86.5703Z" fill="#37474F"/>
<path d="M91.5359 85.6108L94.8359 67.8013L92.7907 67.4223L89.4907 85.2318L91.5359 85.6108Z" fill="white"/>
<path d="M94.2068 68.8643C93.3108 74.2403 92.2228 80.1603 91.1348 85.5043C92.0308 80.1283 93.1188 74.2403 94.2068 68.8643Z" fill="#DBDBDB"/>
<path d="M93.824 68.8C92.928 74.176 91.84 80.096 90.752 85.44C91.616 80.064 92.736 74.144 93.824 68.8Z" fill="#DBDBDB"/>
<path d="M93.4079 68.7361C92.5119 74.1121 91.4239 80.0321 90.3359 85.3761C91.2319 80.0001 92.3199 74.0801 93.4079 68.7361Z" fill="#DBDBDB"/>
<path d="M93.0232 68.6401C92.1272 74.0161 91.0392 79.9361 89.9512 85.2801C90.8152 79.9041 91.9352 74.0161 93.0232 68.6401Z" fill="#DBDBDB"/>
<path d="M77.0244 64.704C71.7764 73.024 67.9364 82.272 71.3284 84.64C73.5684 86.208 79.4564 78.208 79.5204 78.048C79.7764 77.504 80.6084 73.952 81.6644 67.104C82.6884 60.352 79.3604 60.992 77.0244 64.704Z" fill="#455A64"/>
<path d="M81.4093 69.8559C81.2813 70.2719 81.1533 70.6559 81.0573 71.0719C81.0573 70.9759 81.0893 70.8799 81.0893 70.7519C81.1853 69.9199 81.2813 69.0879 81.3773 68.2559C81.3773 68.2239 81.3453 68.2239 81.3453 68.2559C81.0893 69.7279 79.5533 77.1519 79.3613 78.2079C79.3613 78.2399 79.3933 78.2399 79.3933 78.2079C79.9053 77.3439 80.7693 72.9919 80.9293 71.9039C81.1533 71.2319 81.3133 70.5599 81.4413 69.8879C81.4733 69.8559 81.4413 69.8559 81.4093 69.8559Z" fill="#263238"/>
<path d="M70.4963 81.0559C70.3363 82.1439 71.2643 84.7359 73.0563 85.1839C77.4403 86.3359 84.6083 85.4399 89.6643 84.8319C91.0083 84.6719 88.8003 72.4799 87.3923 72.8319C79.2963 74.8159 71.1363 76.8959 70.4963 81.0559Z" fill="#AD6359"/>
<path d="M100.703 74.5919C100.479 75.8719 99.7113 75.5839 99.7113 75.5839C99.7113 75.5839 100.383 76.1919 100.447 77.0559C100.511 78.0479 98.9753 78.5919 98.9753 78.5919C98.9753 78.5919 99.5193 79.3599 99.4873 80.2559C99.4553 81.2159 97.9833 81.9839 97.9833 81.9839C97.9833 81.9839 98.1113 82.9759 97.5033 83.7439C96.4793 85.0559 88.5753 85.3119 86.4953 85.1519L86.1113 73.2799C86.1113 73.2799 93.6313 70.5279 95.5193 70.9439C97.1193 71.2959 101.055 72.6399 100.703 74.5919Z" fill="#AD6359"/>
<path d="M99.6796 75.5519C98.0796 74.7519 96.3196 74.3359 94.5916 73.9519C94.5596 73.9519 94.5276 74.0159 94.5916 74.0159C96.3196 74.3679 97.9516 75.1999 99.6476 75.6479C99.7116 75.6479 99.7436 75.5839 99.6796 75.5519Z" fill="#263238"/>
<path d="M98.9438 78.4638C98.5918 78.3038 98.1758 78.2398 97.7598 78.1758C97.3438 78.1118 96.9278 78.0478 96.4798 77.9838C95.6158 77.8558 94.7838 77.7598 93.9198 77.6958C93.8878 77.6958 93.8558 77.7598 93.9198 77.7598C94.7838 77.8878 95.6158 78.0158 96.4478 78.1758C96.8638 78.2398 97.2798 78.3358 97.6958 78.4318C98.0798 78.4958 98.4958 78.6238 98.8798 78.6238C98.9758 78.5598 99.0078 78.4638 98.9438 78.4638Z" fill="#263238"/>
<path d="M97.9508 81.952C97.6308 81.792 97.2148 81.792 96.8628 81.76C96.4788 81.728 96.0948 81.664 95.7108 81.632C94.9428 81.536 94.1428 81.44 93.3748 81.312C93.3428 81.312 93.3108 81.376 93.3748 81.376C94.1748 81.504 94.9428 81.664 95.7428 81.792C96.1268 81.856 96.5108 81.92 96.8948 81.984C97.2148 82.048 97.6308 82.144 97.9508 82.048C97.9828 82.016 97.9828 81.984 97.9508 81.952Z" fill="#263238"/>
<path d="M86.625 72.6721L86.977 85.9521C86.977 85.9521 78.113 86.8801 72.801 85.4721C70.401 84.8321 69.729 81.9201 70.241 80.6721C72.193 75.7761 86.625 72.6721 86.625 72.6721Z" fill="#455A64"/>
<path d="M83.8729 74.2399C83.6809 79.9679 83.9369 83.9999 84.0009 84.7679C84.0009 84.7999 84.0329 84.7999 84.0329 84.7679C84.2569 80.7679 84.0009 74.5919 83.9369 74.2399C83.9369 74.1759 83.8729 74.1759 83.8729 74.2399Z" fill="#263238"/>
<path d="M86.7521 73.024C86.7201 72.864 86.6881 72.448 86.6241 72.448C86.3681 72.512 86.0801 72.544 85.8241 72.608C85.5681 72.672 85.3121 72.736 85.0561 72.8C84.5441 72.928 84.0321 73.088 83.5201 73.216C82.4961 73.504 81.5041 73.824 80.5121 74.176C79.5201 74.528 78.5281 74.912 77.5681 75.328C76.6081 75.744 75.6481 76.16 74.6881 76.64C74.6241 76.672 74.5601 76.704 74.4961 76.736C74.1121 76.768 73.7601 76.8 73.3761 76.896C72.9601 76.992 72.5441 77.152 72.1281 77.28C72.0961 77.28 72.1281 77.312 72.1281 77.312C72.5441 77.184 72.9601 77.088 73.3761 77.024C73.6321 76.992 73.8881 76.928 74.1441 76.896C73.2481 77.344 72.3521 77.824 71.5201 78.368C71.4881 78.368 71.5201 78.4 71.5201 78.4C72.4801 77.92 73.4081 77.44 74.4001 76.992C75.3601 76.544 76.3201 76.128 77.3121 75.712C79.2641 74.912 81.2161 74.208 83.2321 73.6C83.8081 73.44 84.3521 73.28 84.9281 73.12C85.2161 73.056 85.5041 72.96 85.7921 72.896C86.0481 72.832 86.2401 72.768 86.4961 72.704C86.5281 72.832 86.5281 72.928 86.5601 73.024C86.6241 73.184 86.7841 73.184 86.7521 73.024Z" fill="#263238"/>
<path d="M81.215 62.336C81.311 62.976 82.335 66.336 84.191 66.624C84.799 66.72 85.439 63.488 85.439 63.488L85.535 63.264L86.975 60.096L83.071 56.32C83.039 56.288 81.087 61.632 81.215 62.336Z" fill="#AD6359"/>
<path d="M82.4316 57.9201C82.4636 58.3041 82.4956 58.7201 82.5596 59.1681C82.9756 61.9841 84.4156 63.0081 85.4396 63.3921L85.5036 63.2321L86.9436 60.0641L83.0396 56.2881C83.0396 56.2881 82.7836 56.9601 82.4316 57.9201Z" fill="#263238"/>
<path d="M81.3117 55.6799C80.6077 56.0959 79.9357 56.4479 79.7437 57.5679C79.6157 58.3359 80.0637 59.4559 80.0637 59.4559L81.2477 59.8399C81.2477 59.8399 82.2077 59.2639 82.5917 58.3679C83.0397 57.4079 82.5277 56.1599 82.5277 56.1599L81.3117 55.6799Z" fill="#263238"/>
<path d="M80.1914 59.2959C79.5514 59.8079 78.9434 60.2559 78.9114 61.3759C78.8794 62.1439 79.4874 63.1999 79.4874 63.1999L80.7034 63.3919C80.7034 63.3919 81.5674 62.6879 81.8234 61.7279C82.1114 60.7039 81.4394 59.5519 81.4394 59.5519L80.1914 59.2959Z" fill="#263238"/>
<path d="M79.5199 63.0719C79.1039 63.7759 78.6879 64.4159 79.0719 65.4719C79.3279 66.2079 80.2879 66.9439 80.2879 66.9439L81.5039 66.6879C81.5039 66.6879 82.0479 65.7279 81.9519 64.7359C81.8559 63.6799 80.7999 62.8479 80.7999 62.8479L79.5199 63.0719Z" fill="#263238"/>
<path d="M80.2557 66.976C80.2557 66.976 79.3917 68.064 79.8717 69.408C80.3517 70.752 83.0717 71.776 83.0717 71.776C83.0717 71.776 82.4317 70.976 82.5277 70.112C82.6237 69.248 82.9757 67.616 81.4717 66.72L80.2557 66.976Z" fill="#263238"/>
<path d="M81.8744 66.4558L79.6562 66.9473L79.8154 67.6658L82.0336 67.1744L81.8744 66.4558Z" fill="#FFB50D"/>
<path d="M95.264 54.944C94.944 62.528 90.368 63.2 88.704 63.136C87.232 63.072 82.176 62.656 81.696 55.072C81.248 47.488 84.864 45.248 88.288 45.216C91.712 45.152 95.584 47.328 95.264 54.944Z" fill="#AD6359"/>
<path d="M82.2396 55.392C83.0716 55.392 85.4396 53.248 85.7916 49.184C85.7916 49.184 85.2156 52.8 84.9276 53.312C84.6076 53.824 86.2396 52.096 86.5596 48.832C86.5596 48.832 88.1916 50.272 89.6316 50.976C90.9756 51.648 92.0636 51.872 92.1596 51.776C92.2876 51.68 90.2396 50.304 89.6956 49.568C89.6956 49.568 93.3756 52.512 95.2636 52.8C95.4876 52.832 95.6796 48.544 92.8956 46.432C90.1116 44.32 85.9836 45.088 84.6396 46.208C84.6396 46.208 83.1676 46.304 81.4076 48.352C79.6796 50.432 81.3436 55.392 82.2396 55.392Z" fill="#263238"/>
<path d="M86.6556 48.448C86.6556 48.352 86.4956 48.352 86.4956 48.448C86.5276 49.984 86.1756 51.328 85.5996 52.768C85.5996 52.8 85.6316 52.8 85.6316 52.768C86.3676 51.36 86.8476 50.016 86.6556 48.448Z" fill="#263238"/>
<path d="M91.6478 52C89.5038 51.424 87.7438 50.432 86.5278 48.512C86.4958 48.48 86.4318 48.512 86.4638 48.544C87.3918 50.592 89.5038 51.68 91.6158 52.064C91.6798 52.096 91.7118 52 91.6478 52Z" fill="#263238"/>
<path d="M93.6016 55.0081C93.4736 54.8801 93.3136 54.8161 93.1536 54.7201C92.9936 54.5921 92.8656 54.4961 92.6416 54.4961C92.5136 54.4961 92.4176 54.6241 92.4176 54.7201C92.3856 54.9761 92.5776 55.1681 92.7696 55.2961C92.9936 55.4561 93.1856 55.5201 93.4416 55.4881C93.7296 55.4881 93.7936 55.1681 93.6016 55.0081Z" fill="#263238"/>
<path d="M88.2891 54.432C88.4491 54.368 88.6091 54.304 88.7691 54.24C88.9611 54.176 89.0891 54.112 89.3131 54.144C89.4091 54.176 89.5051 54.304 89.4731 54.432C89.4411 54.688 89.2171 54.816 88.9931 54.912C88.7371 55.008 88.5451 55.008 88.2891 54.944C88.0651 54.88 88.0651 54.528 88.2891 54.432Z" fill="#263238"/>
<path d="M88.9605 55.648C88.1285 55.52 87.9365 57.152 88.6725 57.28C89.4405 57.44 89.6325 55.776 88.9605 55.648Z" fill="#263238"/>
<path d="M88.6087 55.7121C88.4487 55.7761 88.2887 55.9361 88.0967 55.9361C87.9047 55.9361 87.7767 55.7441 87.6487 55.5521C87.6487 55.5201 87.6167 55.5521 87.6167 55.5521C87.5847 55.8721 87.6487 56.2241 88.0007 56.2881C88.3207 56.3841 88.5767 56.1281 88.6727 55.8081C88.7047 55.7761 88.6727 55.6801 88.6087 55.7121Z" fill="#263238"/>
<path d="M92.8323 56.0639C93.6643 56.1279 93.5043 57.7919 92.7363 57.7279C92.0003 57.6959 92.1603 56.0319 92.8323 56.0639Z" fill="#263238"/>
<path d="M93.1839 56.2238C93.3119 56.3198 93.4079 56.5119 93.5679 56.5119C93.7599 56.5439 93.8879 56.3838 94.0479 56.2238C94.0479 56.1918 94.0799 56.2238 94.0799 56.2558C94.0479 56.5758 93.9199 56.8958 93.5999 56.9278C93.3119 56.9598 93.1519 56.6719 93.0879 56.3519C93.0879 56.2559 93.1199 56.1598 93.1839 56.2238Z" fill="#263238"/>
<path d="M88.9929 60.064C89.0889 60.192 89.1849 60.384 89.3769 60.448C89.5369 60.48 89.7609 60.448 89.9529 60.416C89.9849 60.416 89.9849 60.448 89.9849 60.448C89.8249 60.608 89.5049 60.704 89.2809 60.608C89.0569 60.512 88.9929 60.32 88.9609 60.096C88.9609 60.032 88.9929 60.032 88.9929 60.064Z" fill="#263238"/>
<path d="M91.2328 58.6241C91.2328 58.6241 91.2328 59.4881 91.2008 59.8721C91.2008 59.9041 90.4968 59.6481 89.2488 59.5841C89.2168 59.5841 89.1848 59.4881 89.3448 59.4561C89.5368 59.3921 90.1128 59.2001 90.9448 59.4881C90.9448 59.4881 90.8808 58.2081 90.9448 58.2081C91.1688 58.2721 91.5848 58.4321 91.7448 58.4961C91.7448 57.9841 91.6808 56.5441 91.6808 55.6161C91.6808 55.5521 91.7768 55.5521 91.7768 55.6161C91.9688 57.0241 92.0648 57.7601 92.0648 58.8481C92.0648 58.9441 91.3608 58.6881 91.2328 58.6241Z" fill="#263238"/>
<path d="M84.8959 56.96C84.8959 57.024 84.8319 57.056 84.7679 57.056C84.7039 57.056 84.6719 56.992 84.6719 56.928C84.6719 56.864 84.7359 56.832 84.7999 56.832C84.8959 56.864 84.9279 56.928 84.8959 56.96Z" fill="#AD6359"/>
<path d="M86.9115 57.1199C86.9115 57.1839 86.8475 57.2159 86.7835 57.2159C86.7195 57.2159 86.6875 57.1519 86.6875 57.0879C86.6875 57.0239 86.7515 56.9919 86.8155 56.9919C86.8795 56.9919 86.9115 57.0559 86.9115 57.1199Z" fill="#AD6359"/>
<path d="M88.224 57.3758C88.224 57.4398 88.16 57.4718 88.096 57.4718C88.032 57.4718 88 57.4078 88 57.3438C88 57.2798 88.064 57.2478 88.128 57.2478C88.192 57.2798 88.256 57.3438 88.224 57.3758Z" fill="#AD6359"/>
<path d="M88.5756 58.432C88.5756 58.496 88.5116 58.528 88.4476 58.528C88.3836 58.528 88.3516 58.464 88.3516 58.4C88.3516 58.336 88.4156 58.304 88.4796 58.304C88.5436 58.304 88.5756 58.368 88.5756 58.432Z" fill="#AD6359"/>
<path d="M85.6967 58.0159C85.6967 58.0799 85.6327 58.1119 85.5687 58.1119C85.5047 58.1119 85.4727 58.0479 85.4727 57.9839C85.4727 57.9199 85.5367 57.8879 85.6007 57.8879C85.6967 57.8879 85.7287 57.9519 85.6967 58.0159Z" fill="#AD6359"/>
<path d="M87.1674 58.4959C87.1674 58.5599 87.1034 58.5919 87.0394 58.5919C86.9754 58.5919 86.9434 58.5279 86.9434 58.4639C86.9434 58.3999 87.0074 58.3679 87.0714 58.3679C87.1354 58.3679 87.1674 58.4319 87.1674 58.4959Z" fill="#AD6359"/>
<path d="M85.9838 56.2879C85.9838 56.3519 85.9198 56.3839 85.8558 56.3839C85.7918 56.3839 85.7598 56.3199 85.7598 56.2559C85.7598 56.1919 85.8238 56.1599 85.8878 56.1599C85.9838 56.1599 86.0158 56.2239 85.9838 56.2879Z" fill="#AD6359"/>
<path d="M92.4486 58.2718C92.4486 58.3358 92.3846 58.3678 92.3206 58.3678C92.2566 58.3678 92.2246 58.3038 92.2246 58.2398C92.2246 58.1758 92.2886 58.1438 92.3526 58.1438C92.4166 58.1438 92.4806 58.2078 92.4486 58.2718Z" fill="#AD6359"/>
<path d="M94.2084 58.0799C94.2084 58.1439 94.1444 58.1759 94.0804 58.1759C94.0164 58.1759 93.9844 58.1119 93.9844 58.0479C93.9844 57.9839 94.0484 57.9519 94.1124 57.9519C94.2084 57.9519 94.2404 58.0159 94.2084 58.0799Z" fill="#AD6359"/>
<path d="M94.7846 57.5999C94.7846 57.6639 94.7205 57.6959 94.6565 57.6959C94.5925 57.6959 94.5605 57.6319 94.5605 57.5679C94.5605 57.5039 94.6245 57.4719 94.6885 57.4719C94.7845 57.4719 94.8166 57.5359 94.7846 57.5999Z" fill="#AD6359"/>
<path d="M93.5677 58.9119C93.5677 58.9759 93.5037 59.0079 93.4397 59.0079C93.3757 59.0079 93.3438 58.9439 93.3438 58.8799C93.3438 58.8159 93.4077 58.7839 93.4717 58.7839C93.5357 58.7839 93.5677 58.8479 93.5677 58.9119Z" fill="#AD6359"/>
<path d="M94.431 58.848C94.431 58.912 94.367 58.944 94.303 58.944C94.239 58.944 94.207 58.88 94.207 58.816C94.207 58.752 94.271 58.72 94.335 58.72C94.399 58.752 94.431 58.816 94.431 58.848Z" fill="#AD6359"/>
<path d="M93.1517 57.5999C93.1517 57.6639 93.0877 57.6959 93.0237 57.6959C92.9597 57.6959 92.9277 57.6319 92.9277 57.5679C92.9277 57.5039 92.9917 57.4719 93.0557 57.4719C93.1197 57.4719 93.1517 57.5359 93.1517 57.5999Z" fill="#AD6359"/>
<path d="M87.7111 58.6559C86.5271 58.4319 85.6311 57.4079 85.5671 56.1599C85.5031 54.6879 86.6231 53.4399 88.0951 53.3439C89.5671 53.2799 90.8151 54.3999 90.9111 55.8719C90.9751 57.3439 89.8551 58.5919 88.3831 58.6879C88.1271 58.7199 87.9031 58.6879 87.7111 58.6559ZM88.6711 53.7599C88.4791 53.7279 88.2871 53.6959 88.0951 53.7279C86.8151 53.7919 85.8231 54.8799 85.8871 56.1599C85.9511 57.4399 87.0391 58.4319 88.3191 58.3679C89.5991 58.3039 90.5911 57.2159 90.5271 55.9359C90.4951 54.8479 89.6951 53.9839 88.6711 53.7599Z" fill="#DBDBDB"/>
<path d="M93.5677 59.0719C92.5757 58.8799 91.8717 57.6639 91.9677 56.2559C92.0317 55.5519 92.2877 54.9119 92.6717 54.4319C93.0877 53.9519 93.6317 53.6959 94.1437 53.7599C94.6877 53.7919 95.1677 54.1439 95.4877 54.6879C95.8077 55.2319 95.9677 55.9039 95.9037 56.6079C95.7757 58.0799 94.7837 59.1999 93.6957 59.1039C93.6957 59.1039 93.6317 59.1039 93.5677 59.0719ZM94.3037 54.1439C94.2717 54.1439 94.2077 54.1439 94.1757 54.1119C93.7597 54.0799 93.3437 54.2719 92.9917 54.6879C92.6397 55.1039 92.4157 55.6799 92.3517 56.2879C92.2557 57.5679 92.8957 58.6559 93.7917 58.7199C94.6877 58.7839 95.4877 57.8239 95.6157 56.5439C95.6797 55.9039 95.5517 55.3279 95.2637 54.8479C95.0077 54.4959 94.6557 54.2399 94.3037 54.1439Z" fill="#DBDBDB"/>
<path d="M90.8162 56.192L90.6562 55.936C91.0082 55.68 91.8403 55.36 92.3523 56L92.1283 56.192C91.6163 55.616 90.8483 56.192 90.8162 56.192Z" fill="#DBDBDB"/>
<path d="M79.9357 55.9039L79.6797 55.7439C79.7437 55.6159 80.4157 54.5919 81.1197 54.5279C81.7597 54.4639 85.7597 55.1999 85.9197 55.2319L85.8557 55.5199C84.7037 55.3279 81.6317 54.7839 81.1517 54.8479C80.6717 54.8479 80.0957 55.6159 79.9357 55.9039Z" fill="#DBDBDB"/>
<path d="M82.88 55.68C82.88 55.68 81.536 53.12 80.384 53.568C79.232 54.016 80.032 57.6 81.216 58.208C82.4 58.848 83.008 57.76 83.008 57.76L82.88 55.68Z" fill="#AD6359"/>
<path d="M80.6724 54.592C80.6404 54.592 80.6404 54.624 80.6724 54.624C81.5044 55.104 81.8564 55.968 82.0804 56.864C81.8564 56.512 81.5364 56.288 81.0564 56.544C81.0244 56.544 81.0564 56.608 81.0884 56.608C81.4724 56.576 81.6964 56.672 81.9204 56.992C82.0804 57.216 82.1444 57.504 82.2404 57.728C82.2724 57.824 82.4324 57.792 82.4004 57.696C82.4004 57.696 82.4004 57.696 82.4004 57.664C82.5284 56.544 81.8564 54.848 80.6724 54.592Z" fill="#263238"/>
<path d="M41.2793 27.0078V38.8798H42.9433V41.7598L45.8233 38.8798H61.5993V27.0078H41.2793Z" fill="#4F4F4F"/>
<path d="M41.2796 27.0079L41.3756 38.8799L41.2796 38.7839H42.9436H43.0396V38.8799V41.7599L42.8476 41.6639L45.7276 38.7839C45.7916 38.6879 61.5036 38.7519 61.6316 38.7199L61.4716 38.8799L61.5036 27.0079L61.6316 27.1359C56.5436 27.1039 46.3356 27.0399 41.2796 27.0079ZM41.2796 27.0079C46.4316 26.9759 56.6076 26.8799 61.7596 26.8799V27.0079L61.7916 38.8799V39.0399H61.6316C61.6636 38.9759 45.4716 39.1039 45.9196 38.9759L43.0396 41.8559L42.8476 42.0479V41.7599V38.8799L42.9436 38.9759H41.2796H41.1836V38.8799L41.2796 27.0079Z" fill="#263238"/>
<path d="M55.2969 32.9278C55.2969 33.4718 55.7129 33.8878 56.2569 33.8878C56.8009 33.8878 57.2169 33.4718 57.2169 32.9278C57.2169 32.3838 56.8009 31.9678 56.2569 31.9678C55.7129 31.9678 55.2969 32.4158 55.2969 32.9278Z" fill="#263238"/>
<path d="M50.4961 32.9278C50.4961 33.4718 50.9121 33.8878 51.4561 33.8878C52.0001 33.8878 52.4161 33.4718 52.4161 32.9278C52.4161 32.3838 52.0001 31.9678 51.4561 31.9678C50.9121 31.9678 50.4961 32.4158 50.4961 32.9278Z" fill="#263238"/>
<path d="M45.6641 32.9278C45.6641 33.4718 46.0801 33.8878 46.6241 33.8878C47.1681 33.8878 47.5841 33.4718 47.5841 32.9278C47.5841 32.3838 47.1681 31.9678 46.6241 31.9678C46.1121 31.9678 45.6641 32.4158 45.6641 32.9278Z" fill="#263238"/>
<path d="M124.288 29.4077V41.2797H122.624V44.1597L119.744 41.2797H103.936V29.4077H124.288Z" fill="#4F4F4F"/>
<path d="M124.287 29.4078L124.383 41.2798V41.3758H124.287H122.623L122.719 41.2798V44.1598V44.4478L122.527 44.2558L119.647 41.3758C120.159 41.5038 103.839 41.4078 103.935 41.4398H103.775V41.2798L103.807 29.4078V29.2798H103.935C109.023 29.3118 119.231 29.3758 124.287 29.4078ZM124.287 29.4078C119.231 29.4718 109.023 29.5038 103.935 29.5358L104.063 29.4078L104.095 41.2798L103.935 41.1198L119.743 41.1518H119.807L119.839 41.1838L122.719 44.0638L122.527 44.1598V41.2798V41.1838H122.623H124.287L124.191 41.2798L124.287 29.4078Z" fill="#263238"/>
<path d="M110.272 35.3598C110.272 35.9038 109.856 36.3198 109.312 36.3198C108.768 36.3198 108.352 35.9038 108.352 35.3598C108.352 34.8158 108.768 34.3998 109.312 34.3998C109.856 34.3678 110.272 34.8158 110.272 35.3598Z" fill="#263238"/>
<path d="M115.072 35.3598C115.072 35.9038 114.656 36.3198 114.112 36.3198C113.568 36.3198 113.152 35.9038 113.152 35.3598C113.152 34.8158 113.568 34.3998 114.112 34.3998C114.656 34.3678 115.072 34.8158 115.072 35.3598Z" fill="#263238"/>
<path d="M119.904 35.3598C119.904 35.9038 119.488 36.3198 118.944 36.3198C118.4 36.3198 117.984 35.9038 117.984 35.3598C117.984 34.8158 118.4 34.3998 118.944 34.3998C119.456 34.3678 119.904 34.8158 119.904 35.3598Z" fill="#263238"/>
</svg>
