<svg width="160" height="160" viewBox="0 0 160 160" fill="none" xmlns="http://www.w3.org/2000/svg">
<path d="M43.9665 40.754C38.8569 48.4184 30.8543 66.227 29.4266 68.7443C28.4873 70.4725 36.9032 75.2816 37.3916 74.0042C37.9928 72.3887 46.2959 51.9877 47.2728 42.5198C47.7236 38.1616 45.5821 38.3119 43.9665 40.754Z" fill="#C95F50"/>
<path d="M38.029 71.7875C38.0666 70.6228 31.3414 67.1662 30.3646 67.8425C29.4629 68.4812 26.6075 69.7586 24.2405 69.9841C22.2492 70.1719 19.2811 70.1719 19.3187 71.2615C19.3939 72.8394 23.1509 73.2527 25.3301 73.3654C24.6913 74.3799 24.2405 75.2816 24.2029 75.9203C23.9775 78.0242 33.2575 80.1658 34.7603 78.6254C36.188 77.1601 37.9914 72.9522 38.029 71.7875Z" fill="#C95F50"/>
<path d="M15.7617 80.8483L13 98.1746L41.6051 102.734L44.3667 85.4077L15.7617 80.8483Z" fill="#FFB50D"/>
<path opacity="0.3" d="M15.7617 80.8483L13 98.1746L41.6051 102.734L44.3667 85.4077L15.7617 80.8483Z" fill="black"/>
<path opacity="0.1" d="M15.7639 80.8441L14.4629 89.0063L43.068 93.5658L44.369 85.4035L15.7639 80.8441Z" fill="black"/>
<path d="M14.198 86.2782L44.1758 91.0564L45.465 82.9683L15.4871 78.1901L14.198 86.2782Z" fill="#FFB50D"/>
<path opacity="0.3" d="M14.198 86.2782L44.1758 91.0564L45.465 82.9683L15.4871 78.1901L14.198 86.2782Z" fill="black"/>
<path d="M24.9174 74.9434L24.166 79.5646L26.3451 79.9403L26.7584 77.3103L35.024 78.6253L34.6107 81.2553L36.7898 81.5934L37.5413 76.9722L24.9174 74.9434Z" fill="#263238"/>
<path d="M37.7739 92.0403L39.7402 92.3538L40.3553 88.4952L38.3889 88.1818L37.7739 92.0403Z" fill="#263238"/>
<path d="M18.0063 88.8863L19.9727 89.2L20.5881 85.3414L18.6217 85.0278L18.0063 88.8863Z" fill="#263238"/>
<path d="M25.1436 72.727C26.1955 72.464 25.9325 73.8541 25.9325 73.8541C25.9325 73.8541 26.8343 71.938 28.0365 72.0507C29.2012 72.201 28.7879 73.8917 28.7504 74.0044C28.7879 73.8917 29.6896 72.1634 30.8919 72.4264C32.1317 72.6894 31.4179 74.3425 31.3803 74.4552C31.4555 74.3801 32.4699 73.3281 33.334 73.7038C34.7993 74.4176 32.282 77.1979 32.3947 78.5129C32.3947 78.5129 34.649 78.588 34.7241 78.588C34.7241 78.588 32.3572 81.2931 30.5538 81.3307C29.6145 81.3683 29.3891 80.4666 29.3891 80.4666C29.3891 80.4666 28.7128 81.4058 27.7735 81.2556C27.2851 81.1428 27.0221 80.3163 27.0221 80.3163C27.0221 80.3163 26.4585 81.0677 25.632 80.8423C24.9557 80.692 24.7678 79.8279 24.7678 79.8279C24.7678 79.8279 23.9037 80.2787 23.265 79.903C22.0252 79.1516 22.8893 73.3281 25.1436 72.727Z" fill="#C95F50"/>
<path d="M24.7298 79.7525C24.7298 79.7525 24.6922 79.7525 24.7298 79.7525C24.5044 77.7613 24.9177 75.5446 25.9321 73.8164C25.9696 73.7412 26.0824 73.7788 26.0448 73.8539C25.3309 75.8076 24.8801 77.6486 24.7298 79.7525Z" fill="#263238"/>
<path d="M27.0215 80.3911C27.0215 80.4287 26.9839 80.4287 26.9839 80.3911C26.7961 78.3247 27.3221 75.8451 28.7498 73.9665C28.7873 73.8914 28.9 73.8914 28.8625 73.9665C27.9983 75.2815 27.1342 78.475 27.0215 80.3911Z" fill="#263238"/>
<path d="M31.5292 74.3798C30.2518 76.2208 29.6882 78.2872 29.3876 80.4663C29.3876 80.5038 29.3501 80.5038 29.3501 80.4663C29.1998 79.3391 29.5003 77.9866 29.8761 76.9346C30.2142 75.9202 30.7026 75.0936 31.4916 74.3422C31.4916 74.3047 31.5667 74.3422 31.5292 74.3798Z" fill="#263238"/>
<path d="M25.9316 73.8539C25.9692 73.7788 26.0444 73.9291 26.0819 73.8539C26.2698 73.5909 27.472 71.9754 28.1483 72.2384C28.6743 72.4262 28.787 73.2904 28.7119 73.6285L28.4865 74.4926L29.0125 73.7412C29.2379 73.4031 29.5009 73.1025 29.839 72.8771C30.1396 72.6517 30.5153 72.5014 30.891 72.5765C31.2667 72.6517 31.4921 72.9147 31.5297 73.2904C31.5673 73.6661 31.4546 74.0418 31.3043 74.4175L30.8534 75.3943L31.6048 74.6429C31.7927 74.4175 32.0557 74.2296 32.2811 74.0794C32.5441 73.9291 32.8071 73.8164 33.0701 73.8539C33.3331 73.8539 33.5585 74.0418 33.6712 74.2672C33.784 74.4926 33.7464 74.8308 33.6712 75.0938C33.521 75.6949 33.258 76.2585 33.0325 76.822C32.9198 77.1226 32.8071 77.3856 32.6944 77.6862C32.5817 77.9867 32.469 78.2873 32.5065 78.5879C32.5065 78.2873 32.6568 77.9867 32.7695 77.6862C32.8823 77.3856 33.0325 77.1226 33.1828 76.8596C33.4834 76.296 33.7464 75.7325 33.9342 75.1313C34.0094 74.8308 34.0845 74.4926 33.9718 74.1169C33.8591 73.7412 33.4834 73.5158 33.1077 73.4782C32.732 73.4406 32.3938 73.5909 32.1308 73.7412C31.8303 73.9291 31.6048 74.1169 31.3418 74.3424L31.6424 74.5302C31.8303 74.1169 31.9806 73.7037 31.943 73.2152C31.943 72.9898 31.8303 72.7268 31.6424 72.5389C31.4546 72.3511 31.2291 72.2384 31.0037 72.2008C30.5153 72.0881 30.0269 72.3135 29.6887 72.5765C29.3506 72.8395 29.05 73.1777 28.787 73.5534L29.0876 73.6661C29.2003 73.2152 29.1627 72.2384 28.3737 71.8251C27.1715 71.487 26.0819 73.4782 25.9316 73.8539Z" fill="#263238"/>
<path d="M25.9324 73.854C25.9324 73.6286 25.8948 73.3656 25.8197 73.1778C25.7446 72.9899 25.6318 72.8396 25.444 72.8021C25.2937 72.7645 25.0683 72.8396 24.8804 72.9148C24.6926 72.9899 24.4672 73.1026 24.2793 73.2529C24.392 73.0651 24.5799 72.8772 24.7677 72.7269C24.9556 72.5766 25.2186 72.4639 25.5191 72.5391C25.6694 72.5766 25.7821 72.6518 25.8948 72.7645C26.0076 72.8772 26.0451 73.0275 26.0451 73.1402C26.1203 73.4032 26.0451 73.6662 25.9324 73.854Z" fill="#263238"/>
<path d="M29.4629 66.9787L39.3065 72.5767C39.3065 72.5767 46.0692 51.4619 47.1588 44.098C48.2859 36.7717 45.3178 38.2745 43.1763 41.6183C40.2082 46.202 29.4629 66.9787 29.4629 66.9787Z" fill="#FFB50D"/>
<path d="M39.4574 69.4957C38.1049 68.8194 32.7322 65.9264 31.6051 65.2126C31.53 65.175 31.53 65.0999 31.6427 65.1374C35.7003 67.016 38.2176 68.7067 39.495 69.4581C39.5326 69.4581 39.495 69.5332 39.4574 69.4957Z" fill="#263238"/>
<path opacity="0.1" d="M47.2333 43.6846C47.1957 43.8349 47.1957 43.9476 47.1581 44.0979C46.031 51.3866 39.3809 72.2385 39.2682 72.5766L31.2656 68.0305C33.6326 62.8457 40.2451 48.4561 44.0022 40.4535C46.031 38.0865 48.0598 37.7108 47.2333 43.6846Z" fill="black"/>
<path d="M49.075 125.326L50.127 140.129C50.127 143.022 50.0894 145.577 49.9767 146.892C49.9767 146.892 49.9767 146.892 49.9767 146.929C49.9391 147.418 49.864 147.756 49.7513 147.831C48.8871 148.432 25.7435 149.221 24.9545 148.958C24.1279 148.733 24.7666 146.366 25.6308 145.614C26.4949 144.863 35.2489 140.618 35.2489 140.618L34.3096 125.852L49.075 125.326Z" fill="#C95F50"/>
<path d="M50.1641 137.011C50.1641 137.011 50.1641 140.092 50.1641 140.129C50.1641 143.022 50.1265 145.577 50.0138 146.892C50.0138 146.892 50.0138 146.892 50.0138 146.929C49.9387 147.418 49.8635 147.756 49.7884 147.831C48.9242 148.432 25.7806 149.221 24.9916 148.958C24.165 148.733 24.8037 146.366 25.6679 145.614C26.532 144.863 35.286 140.618 35.286 140.618L35.2484 137.462L50.1641 137.011Z" fill="white"/>
<path d="M24.9545 148.958C25.781 149.221 48.9247 148.395 49.7513 147.831C50.0894 147.606 50.1646 144.224 50.127 140.167C50.127 140.129 50.127 140.092 50.127 140.054L35.2113 140.392V140.655C35.2113 140.655 26.4949 144.901 25.6308 145.652C24.7666 146.366 24.1279 148.733 24.9545 148.958Z" fill="#FFB50D"/>
<path d="M25.1794 148.057C29.0868 147.831 44.829 147.268 48.6988 147.343C48.7364 147.343 48.7364 147.38 48.6988 147.38C44.829 147.681 29.0868 148.132 25.1794 148.132C25.1043 148.132 25.1043 148.057 25.1794 148.057Z" fill="#263238"/>
<path d="M33.9713 140.693C35.5117 140.355 37.3902 140.543 38.5925 141.595C38.63 141.632 38.5925 141.707 38.5173 141.67C36.9769 141.256 35.5492 140.993 33.9713 140.881C33.8585 140.881 33.8585 140.73 33.9713 140.693Z" fill="#263238"/>
<path d="M32.8817 141.407C34.4221 141.069 36.3006 141.256 37.5029 142.308C37.5405 142.346 37.5029 142.421 37.4278 142.384C35.8874 141.97 34.4597 141.707 32.8817 141.595C32.8065 141.595 32.769 141.407 32.8817 141.407Z" fill="#263238"/>
<path d="M31.7918 142.121C33.3322 141.782 35.2108 141.97 36.4131 143.022C36.4506 143.06 36.4131 143.135 36.3379 143.097C34.7975 142.684 33.3698 142.421 31.7918 142.308C31.7167 142.308 31.6791 142.121 31.7918 142.121Z" fill="#263238"/>
<path d="M51.0296 140.768L34.8366 140.43C34.8366 140.43 32.8453 111.275 33.221 101.581C33.6343 91.024 38.1428 59.6147 38.1428 59.6147H51.8186C51.8186 59.6147 48.3245 91.1367 48.2494 101.694C48.2118 111.5 51.0296 140.768 51.0296 140.768Z" fill="#37474F"/>
<path d="M38.1797 59.6523L48.5868 94.5557C49.5637 81.1053 51.8555 59.6523 51.8555 59.6523H38.1797Z" fill="#263238"/>
<path d="M49.2636 61.1926L48.3995 70.5478L47.6105 79.9405C47.0845 86.1773 46.5961 92.4516 46.2204 98.7259C46.1452 100.304 46.0701 101.882 46.1076 103.46C46.1452 105.038 46.2204 106.616 46.2955 108.156C46.4458 111.275 46.6712 114.431 46.8966 117.549C47.1221 120.667 47.3851 123.823 47.6481 126.942L48.5122 136.297L47.7983 126.904C47.5729 123.786 47.3475 120.63 47.1221 117.511C46.9342 114.393 46.7088 111.237 46.5585 108.119C46.4834 106.541 46.4082 105 46.4082 103.422C46.4082 101.844 46.4458 100.304 46.5585 98.7259C46.8966 92.4516 47.3851 86.2148 47.8359 79.9405L49.2636 61.1926Z" fill="#263238"/>
<path d="M35.5126 137.762C38.0298 137.725 37.316 137.725 39.8332 137.725C41.073 137.725 49.1884 137.762 50.3531 137.95C50.3906 137.95 50.3906 137.988 50.3531 137.988C49.1884 138.175 41.073 137.988 39.8332 137.95C37.316 137.912 38.0298 137.875 35.5126 137.8C35.475 137.837 35.475 137.762 35.5126 137.762Z" fill="#263238"/>
<path d="M72.9697 117.399L80.7844 130.098C82.0618 132.69 83.1138 135.019 83.5647 136.259C83.5647 136.259 83.5647 136.259 83.5647 136.297C83.7149 136.748 83.7901 137.086 83.7525 137.199C83.7525 137.199 83.7525 137.199 83.7525 137.236C83.2265 138.138 62.7128 148.883 61.8862 149.033C61.0597 149.184 60.6088 146.779 61.0597 145.727C61.5105 144.675 67.5219 137.048 67.5219 137.048L59.8574 124.312L72.9697 117.399Z" fill="#C95F50"/>
<path d="M83.752 137.198C83.226 138.138 62.7123 148.883 61.8858 148.996C61.0592 149.146 60.6084 146.741 61.0592 145.689C61.5476 144.637 67.5214 137.011 67.5214 137.011L66.1688 134.719C69.5127 132.915 75.5991 129.797 79.3938 127.843C80.2204 129.196 80.7839 130.098 80.7839 130.098C82.0613 132.69 83.1133 135.019 83.5642 136.259C83.5642 136.259 83.5642 136.259 83.5642 136.297C83.752 136.748 83.8272 137.086 83.752 137.198Z" fill="white"/>
<path d="M61.8858 148.996C62.7123 148.845 83.226 138.1 83.752 137.198C83.9399 136.86 82.5498 133.78 80.7839 130.098C80.7463 130.06 80.7464 130.022 80.7088 129.985L67.4087 136.785L67.5214 137.011C67.5214 137.011 61.5101 144.638 61.0592 145.689C60.6084 146.741 61.0592 149.146 61.8858 148.996Z" fill="#FFB50D"/>
<path d="M61.6977 148.094C65.1166 146.216 79.0554 138.889 82.5495 137.274C82.5871 137.274 82.5871 137.274 82.5495 137.311C79.2057 139.265 65.1918 146.479 61.6977 148.169C61.6601 148.169 61.6225 148.132 61.6977 148.094Z" fill="#263238"/>
<path d="M66.4683 137.649C67.7082 136.673 69.474 136.034 71.0144 136.447C71.0895 136.447 71.052 136.56 71.0144 136.56C69.4364 136.823 68.0463 137.236 66.581 137.837C66.4308 137.837 66.3556 137.687 66.4683 137.649Z" fill="#263238"/>
<path d="M65.7926 138.739C67.0324 137.762 68.7982 137.123 70.3386 137.537C70.4138 137.537 70.3762 137.649 70.3386 137.649C68.7606 137.912 67.3705 138.326 65.9053 138.927C65.755 138.964 65.6798 138.814 65.7926 138.739Z" fill="#263238"/>
<path d="M65.117 139.829C66.3568 138.852 68.1227 138.213 69.6631 138.626C69.7382 138.626 69.7007 138.739 69.6631 138.739C68.0851 139.002 66.695 139.415 65.2297 140.016C65.117 140.054 65.0043 139.904 65.117 139.829Z" fill="#263238"/>
<path d="M38.1797 59.6147C38.2548 59.9153 39.1941 64.3487 40.2085 68.1433C40.9224 70.9236 41.6738 73.3657 42.0871 73.6287C42.5755 73.9292 44.9049 74.9436 45.6939 75.2818C45.6939 75.2818 49.3758 101.657 52.1561 109.809C54.7109 117.361 65.4562 137.199 65.4562 137.199L80.8978 129.384C80.8978 129.384 68.7624 109.246 67.485 105.564C65.5313 99.8531 59.5575 72.4264 59.5575 72.4264C59.5575 72.4264 59.7078 70.097 59.6702 69.2329C59.5951 67.6173 57.416 60.7418 56.89 59.5771H38.1797V59.6147Z" fill="#37474F"/>
<path d="M65.2686 134.155C67.4852 132.916 66.809 133.254 69.0632 132.051C70.1528 131.45 77.2912 127.581 78.4184 127.205C78.4559 127.205 78.4559 127.242 78.4559 127.242C77.5167 127.956 70.3031 131.713 69.2135 132.277C66.9593 133.442 67.598 133.066 65.3437 134.231C65.231 134.231 65.231 134.155 65.2686 134.155Z" fill="#263238"/>
<path d="M54.4103 68.9325C53.997 68.7447 50.7659 68.0684 49.9769 66.791C49.5636 66.1147 48.8122 62.3952 48.7747 62.1322C48.7747 62.0946 48.6995 62.0946 48.7371 62.1322C48.7747 62.32 48.7747 65.8517 49.7891 67.3545C50.5029 68.4065 53.9594 69.0452 54.3727 69.0452C54.4103 69.0828 54.4479 68.9701 54.4103 68.9325Z" fill="#263238"/>
<path d="M41.5985 73.2907C43.2892 73.8543 44.9047 74.6808 46.4451 75.5449C46.5203 75.5825 46.4827 75.6577 46.4075 75.6577C44.792 74.9438 43.1013 74.3051 41.5233 73.5161C41.373 73.4034 41.4482 73.2156 41.5985 73.2907Z" fill="#263238"/>
<path d="M41.1107 62.0947C41.1107 62.0571 41.2234 62.0195 41.2234 62.0947C41.2234 64.0483 41.3361 65.739 41.4864 67.5424C41.5615 68.369 42.2378 73.0278 43.7031 72.6896C43.9285 72.6145 44.0788 72.3891 44.1163 72.0134C44.1539 71.5625 44.0036 71.0365 43.9285 70.5857C43.7782 69.6088 43.6279 68.632 43.5528 67.6551C43.4025 65.8142 43.4025 63.9732 43.6279 62.1698C43.6279 62.0947 43.7406 62.1322 43.7031 62.1698C43.7031 64.7246 43.7782 67.2419 44.1539 69.7591C44.3418 70.9614 44.9429 72.8024 43.6655 72.9526C42.3881 73.1405 41.5615 70.0973 41.3737 69.2707C40.9228 66.9789 40.9228 64.4616 41.1107 62.0947Z" fill="#263238"/>
<path d="M43.6654 72.8024C43.8157 73.1029 43.8908 73.4411 44.0036 73.7792C44.0787 74.0422 44.1538 74.3052 44.1538 74.5682C44.1538 74.6058 44.0787 74.6058 44.0411 74.6058C43.8533 74.3803 43.8157 74.0798 43.703 73.8543C43.5903 73.5538 43.4776 73.2532 43.3649 72.9526C43.2897 72.7272 43.5527 72.6145 43.6654 72.8024Z" fill="#263238"/>
<path d="M76.127 126.378C73.9103 122.246 72.182 118.939 69.8902 114.844C68.7631 112.815 67.5984 110.824 66.5088 108.795C65.4568 106.766 64.743 104.662 64.0667 102.483C62.7141 98.0499 58.4686 74.7559 58.2056 73.6288C58.0554 72.9525 58.3559 69.0827 58.1681 67.9932C58.0178 66.9412 56.5525 61.3807 56.3647 60.8547C56.3271 60.7795 56.252 60.8171 56.252 60.8923C56.9282 63.0714 57.6796 66.8285 57.8675 67.9556C58.0554 69.0451 57.7924 73.2531 57.8675 73.7791C57.9802 74.3426 61.9252 96.6597 63.2777 101.131C63.9164 103.31 64.5551 105.489 65.4944 107.555C66.4337 109.622 67.5984 111.575 68.7255 113.567C71.0173 117.662 72.8207 120.931 75.1877 124.951C75.4883 125.477 75.7888 125.965 76.0894 126.491C76.0894 126.453 76.1645 126.416 76.127 126.378Z" fill="#263238"/>
<path d="M37.2402 68.2562C37.5408 68.2562 38.4049 67.6551 38.4801 67.5048C39.1939 66.4152 39.3818 62.9963 39.4193 62.0946C39.4193 62.057 39.4569 62.057 39.4569 62.0946C39.4569 63.109 39.4193 64.1234 39.3442 65.1003C39.2691 65.9268 39.1939 66.8661 38.9685 67.4297C38.7431 68.0308 37.5408 68.4816 37.2402 68.3314C37.2402 68.3314 37.2402 68.2562 37.2402 68.2562Z" fill="#263238"/>
<path d="M37.2792 64.7244C37.8052 65.1752 59.0703 65.8515 59.1455 65.7012C59.1831 65.6636 59.8969 64.3862 59.6339 62.658C58.8449 56.8721 55.7265 44.2482 51.0302 39.9276C49.2643 38.312 45.8078 38.2745 44.4928 40.0027C42.0507 43.1587 37.8428 55.8576 36.7157 61.5684C36.3775 63.1464 37.2041 64.6492 37.2792 64.7244Z" fill="#FFB50D"/>
<path d="M50.2035 43.3088C50.7671 47.0659 54.975 58.2245 57.1917 59.7649C59.5211 61.3804 66.7347 65.9265 68.5381 66.2646C70.041 66.5652 72.9715 57.8487 72.1449 57.5106C70.041 56.6089 63.0904 53.5281 61.9632 52.5888C61.3997 52.138 57.1917 46.5023 53.7352 42.1065C51.2931 38.8754 49.8654 40.9043 50.2035 43.3088Z" fill="#C95F50"/>
<path d="M68.5762 66.2646C69.5154 66.7906 74.4748 69.0449 75.8274 69.3454C77.1799 69.6084 81.1249 70.1344 81.463 69.12C81.7636 68.1056 80.6364 67.8802 80.6364 67.8802C80.6364 67.8802 82.3271 67.8426 82.5525 66.7906C82.778 65.7386 80.9746 65.4381 80.9746 65.4381C80.9746 65.4381 82.7028 65.2502 82.8531 64.1982C83.0034 63.1462 81.1249 63.1087 81.1249 63.1087C81.1249 63.1087 82.7404 63.0335 82.4774 62.0942C82.1768 60.9671 79.2463 61.4931 77.781 61.0798C77.4429 60.9671 71.131 58.6753 71.131 58.6753L68.5762 66.2646Z" fill="#C95F50"/>
<path d="M81.3136 63.0335C79.1345 63.4092 78.1577 63.1837 76.1664 62.3572C76.1288 62.3572 76.0913 62.3947 76.1288 62.4323C78.0074 63.4092 79.2472 63.86 81.3512 63.1462C81.4263 63.1086 81.4263 63.0335 81.3136 63.0335Z" fill="#263238"/>
<path d="M81.1621 65.3254C78.8702 65.5132 77.7807 65.2878 75.6391 64.574C75.6016 64.574 75.6016 64.6115 75.6016 64.6115C77.668 65.4757 78.8702 65.9265 81.1245 65.4381C81.2372 65.4381 81.2372 65.3254 81.1621 65.3254Z" fill="#263238"/>
<path d="M80.5239 67.8049C78.3072 67.8049 77.1049 67.617 75.1137 66.6777C75.0761 66.6401 75.0385 66.7153 75.0761 66.7529C77.0298 67.9176 78.5326 68.1806 80.5239 67.88C80.6366 67.8424 80.6366 67.7673 80.5239 67.8049Z" fill="#263238"/>
<path d="M70.4179 56.7591C70.4179 56.7591 73.3484 56.421 74.5507 56.6088C75.753 56.8342 80.036 59.2764 79.5476 60.2156C78.9465 61.4555 76.2038 60.5162 74.9264 59.8775C74.9264 59.8775 73.4987 62.6953 71.3947 62.4699C69.3283 62.2445 70.4179 56.7591 70.4179 56.7591Z" fill="#C95F50"/>
<path d="M79.2843 60.5163C77.9318 61.2301 76.2787 60.2909 75.0013 59.7649C74.8885 59.7273 74.851 59.8024 74.8134 59.8776C74.1371 61.0423 72.8597 62.47 71.4696 62.5451C71.432 62.5451 71.432 62.6203 71.4696 62.6203C72.9724 62.6954 74.3625 61.418 75.0388 60.103C76.3162 60.6666 78.0069 61.5307 79.2843 60.5163C79.3219 60.5163 79.2843 60.5163 79.2843 60.5163Z" fill="#263238"/>
<path d="M70.643 56.1581L68.0506 66.6404C68.0506 66.6404 60.1983 63.1839 57.0423 60.2158C55.5019 58.7881 50.9934 48.381 49.8663 43.7222C48.6264 38.5374 51.8575 39.5142 54.1494 42.2945C56.629 45.3377 61.9641 52.1005 62.3774 52.3635C62.6404 52.5138 70.643 56.1581 70.643 56.1581Z" fill="#FFB50D"/>
<path d="M67.0359 60.2533C67.2238 59.5019 67.4116 58.7504 67.5995 57.999C67.7873 57.2476 67.9752 56.4962 68.2006 55.7823C68.2006 55.7448 68.2757 55.7448 68.2382 55.7823C68.1255 56.5337 67.9376 57.2476 67.7873 57.9614C67.5995 58.7504 67.4492 59.5018 67.2613 60.2908C66.9232 61.8312 66.5099 63.3341 66.0591 64.7993C66.0591 64.8369 66.0215 64.7993 66.0215 64.7993C66.3221 63.2589 66.6602 61.7561 67.0359 60.2533Z" fill="#263238"/>
<path d="M59.671 62.1695C58.5814 61.4557 57.4167 60.7418 56.515 59.765C55.5006 58.3748 54.8619 56.7969 54.1105 55.2565C52.9082 52.5138 51.7435 49.7335 50.8418 46.8406C51.1424 47.5544 51.4054 48.2307 51.7059 48.907C52.5701 50.8982 53.5093 53.1149 54.411 55.0686C55.0122 56.4212 55.6509 57.8113 56.4023 59.0887C57.1913 60.4037 58.5814 61.2302 59.671 62.1695Z" fill="#263238"/>
<path d="M50.7676 47.7798C51.1809 48.3058 51.5566 48.8693 51.8571 49.4329C51.3311 49.0196 50.9179 48.4561 50.7676 47.7798Z" fill="#263238"/>
<path d="M45.695 42.6702C46.8973 43.0459 49.114 41.3927 50.0157 39.9275C50.0908 39.8148 49.9781 38.7252 49.9405 37.3727C49.903 36.5461 49.903 35.6444 49.9405 34.7803L44.6055 35.7571C44.6055 35.7571 45.0187 37.5229 44.906 38.9882C44.906 39.1009 44.8685 39.2136 44.8309 39.3263V39.3639C44.7182 40.0402 44.5303 42.332 45.695 42.6702Z" fill="#C95F50"/>
<path d="M50.0152 38.7252C47.0471 38.8379 45.3564 37.2975 44.7929 36.6588C44.7177 36.1328 44.6426 35.7571 44.6426 35.7571L49.9776 34.7803C49.9401 35.6068 49.9401 36.5461 49.9776 37.3727C49.9776 37.8611 49.9776 38.3495 50.0152 38.7252Z" fill="#263238"/>
<path d="M49.0775 25.6881C49.3781 25.613 51.1063 27.3788 51.3318 28.3556C51.5572 29.3325 51.6699 31.3613 51.4069 31.474C51.1439 31.5492 48.8897 25.7257 49.0775 25.6881Z" fill="#263238"/>
<path d="M42.2402 28.9191C41.9396 30.8352 43.743 36.02 45.2458 36.9969C47.425 38.4246 50.5433 38.124 51.6705 35.6067C52.76 33.1646 50.3179 26.477 48.6648 25.6129C46.2603 24.3731 42.6534 26.0637 42.2402 28.9191Z" fill="#C95F50"/>
<path opacity="0.3" d="M51.7821 32.4884C51.97 33.7282 51.97 34.8929 51.6694 35.6068C50.5423 38.124 47.4239 38.4246 45.2448 36.9969C44.6437 36.5836 43.9674 35.4941 43.4414 34.2167L44.3055 31.9624C44.3055 31.9624 45.1697 33.5404 45.9587 33.8409C47.0482 34.2918 49.0019 34.1039 49.4527 32.9017L50.0915 32.7514C50.0539 32.7514 51.2562 33.2398 51.7821 32.4884Z" fill="#263238"/>
<path d="M47.913 31.3987C47.913 31.3987 47.8755 31.4362 47.913 31.4362C48.0257 31.7744 48.1009 32.1877 47.8379 32.4131V32.4507C48.176 32.2628 48.0633 31.6992 47.913 31.3987Z" fill="#263238"/>
<path d="M47.4614 31.0981C46.8978 31.2108 47.1984 32.3755 47.7244 32.2628C48.2504 32.1501 47.9498 31.0229 47.4614 31.0981Z" fill="#263238"/>
<path d="M49.9395 30.8352C49.9395 30.8352 49.977 30.8728 49.9395 30.8352C50.0522 31.2109 50.2024 31.6242 50.5782 31.6618V31.6993C50.1649 31.7369 49.977 31.2109 49.9395 30.8352Z" fill="#263238"/>
<path d="M50.1657 30.3843C50.7293 30.1965 51.0674 31.3236 50.5414 31.5114C50.053 31.6993 49.6773 30.5346 50.1657 30.3843Z" fill="#263238"/>
<path d="M46.9725 30.7977C47.1228 30.7225 47.273 30.6474 47.3858 30.5722C47.536 30.4971 47.6863 30.422 47.7615 30.2341C47.799 30.159 47.7615 30.0087 47.6863 29.9335C47.4985 29.8208 47.273 29.8584 47.0476 29.9711C46.8222 30.0838 46.6719 30.2341 46.5968 30.4595C46.5216 30.685 46.7471 30.8728 46.9725 30.7977Z" fill="#263238"/>
<path d="M50.5042 29.708C50.3539 29.708 50.1661 29.708 50.0158 29.708C49.8279 29.708 49.6777 29.708 49.5274 29.6329C49.4522 29.5578 49.4147 29.4075 49.4522 29.3323C49.565 29.1069 49.7904 29.0693 50.0158 29.0693C50.2788 29.0693 50.4667 29.1069 50.6545 29.2572C50.8424 29.4075 50.6921 29.708 50.5042 29.708Z" fill="#263238"/>
<path d="M48.4383 34.7802C48.551 34.8554 48.6638 34.9305 48.7765 34.8929C48.8892 34.8554 49.0395 34.7802 49.1522 34.7051H49.1898C49.1146 34.8554 48.9643 35.0056 48.7765 35.0056C48.5886 35.0432 48.4759 34.9305 48.4383 34.7802C48.4008 34.7802 48.4008 34.7802 48.4383 34.7802Z" fill="#263238"/>
<path d="M48.5137 33.6153C48.7767 33.8783 49.1148 33.9534 49.4529 33.9534C49.6032 33.9534 49.7535 33.9159 49.9038 33.8407C49.9414 33.8407 49.9789 33.8031 49.9789 33.8031C50.0165 33.8031 50.0165 33.7656 50.0541 33.7656C50.0916 33.7656 50.0916 33.6904 50.0916 33.6529V33.6153V33.5777C50.0165 33.3147 49.9038 32.9014 49.9038 32.9014C50.0165 32.939 50.5801 33.0142 50.5425 32.8639C50.1668 31.6992 49.7159 30.3842 49.1148 29.3322C49.0772 29.2946 49.0397 29.3322 49.0397 29.3698C49.3778 30.4969 49.9038 31.5865 50.2419 32.7136C50.0541 32.676 49.7535 32.6384 49.6408 32.676C49.6032 32.7136 49.9038 33.465 49.9414 33.5777C49.4905 33.7656 49.1148 33.728 48.5888 33.5026C48.5137 33.5777 48.5137 33.5777 48.5137 33.6153Z" fill="#263238"/>
<path d="M49.7159 33.8034C49.7159 33.8034 49.5657 34.1791 49.2651 34.4045C49.1524 34.4796 49.0397 34.5172 48.8894 34.5172C48.5888 34.5172 48.5137 34.2542 48.5137 34.0288C48.5137 33.8409 48.5512 33.6531 48.5512 33.6531C48.5512 33.6531 49.0772 33.9161 49.7159 33.8034Z" fill="#263238"/>
<path d="M49.2651 34.4044C49.1524 34.4796 49.0397 34.5171 48.8894 34.5171C48.5888 34.5171 48.5137 34.2541 48.5137 34.0287C48.8142 33.9911 49.1899 34.1038 49.2651 34.4044Z" fill="#FF9CBD"/>
<path d="M43.4043 33.5404C44.3435 33.4277 44.569 32.3006 44.569 30.8353C44.569 29.9712 44.0054 28.3557 44.0054 28.3557C44.0054 28.3557 46.5602 28.9568 47.8752 28.5435C49.1902 28.1302 50.0543 26.7401 49.7913 25.7257C49.5659 24.8616 47.8001 23.9974 45.8088 24.3356C44.4187 24.561 42.3147 26.1766 41.6009 27.8672C41.6009 27.8672 40.0229 29.0695 40.5865 30.3093C41.1125 31.5868 42.3523 33.6532 43.4043 33.5404Z" fill="#263238"/>
<path d="M43.4407 33.3902C44.7181 33.3902 44.9435 31.4365 44.7932 30.4973C44.6054 29.5204 44.0418 28.5811 43.6661 27.6794C44.3048 28.769 45.0938 30.1216 44.9435 31.4365C44.8684 32.2631 44.5678 33.6532 43.4783 33.5029C43.4031 33.4654 43.4031 33.3902 43.4407 33.3902Z" fill="#263238"/>
<path d="M40.248 30.0087C40.248 29.1821 40.9995 28.1677 41.7133 27.8296C40.8492 28.3556 40.0226 29.6706 40.511 30.6474C40.9243 31.4364 41.563 32.4508 42.2393 32.9768C42.2393 32.9768 42.2393 33.0144 42.2017 33.0144C41.6757 32.6762 41.3376 32.1127 40.9995 31.5867C40.7365 31.0983 40.248 30.5723 40.248 30.0087Z" fill="#263238"/>
<path d="M41.4497 28.0175C42.2011 26.2141 44.1924 23.9223 46.2963 23.9974C44.0797 24.1101 42.5392 26.3644 41.5248 28.0551C41.4873 28.1302 41.4121 28.0926 41.4497 28.0175Z" fill="#263238"/>
<path d="M44.3053 32.9017C44.3053 32.9017 42.8025 31.3988 42.0887 31.9624C41.3748 32.526 42.7274 34.8553 43.7042 35.0432C44.681 35.2311 44.8689 34.3294 44.8689 34.3294L44.3053 32.9017Z" fill="#C95F50"/>
<path d="M42.5028 32.6011C42.4652 32.6011 42.4652 32.6387 42.5028 32.6011C43.1791 32.789 43.6299 33.315 43.9681 33.8785C43.7426 33.6907 43.4421 33.578 43.1791 33.8785C43.1791 33.8785 43.1791 33.9161 43.2166 33.9161C43.4796 33.8034 43.6675 33.8409 43.8929 33.9912C44.0432 34.1039 44.1559 34.2918 44.2686 34.4421C44.3062 34.4797 44.4189 34.4421 44.3813 34.3669C44.231 33.578 43.4045 32.5635 42.5028 32.6011Z" fill="#263238"/>
<path d="M44.9452 39.0634L46.1475 42.1818L50.0549 38.2744L51.1444 39.5518C51.1444 39.5518 47.3122 45.751 47.2746 45.488L46.0348 42.7829L44.1562 44.6239L44.3441 39.9651L44.9452 39.0634Z" fill="#EBEBEB"/>
<path d="M44.1186 42.3322C44.1937 41.5432 44.2313 40.7918 44.3064 40.0028C44.3064 39.9652 44.344 39.9652 44.344 40.0028C44.4943 40.7542 44.2689 43.6847 44.2689 44.3986C44.344 44.3234 45.9971 42.783 45.9971 42.783C46.2601 43.1963 47.1994 45.1876 47.237 45.3379C47.8381 44.361 50.4305 40.4536 51.1443 39.5519C51.1819 39.5144 51.2195 39.5519 51.1819 39.5895C50.6559 40.6415 47.3121 45.7511 47.2745 45.7511C47.237 45.7887 46.1098 43.3466 45.9595 42.8957C45.6965 43.2339 44.0059 44.9621 44.0059 44.8494C44.0059 44.098 44.0434 43.0836 44.1186 42.3322Z" fill="#263238"/>
<path d="M138.083 148.883C138.571 148.47 147.926 134.005 147.926 133.254C147.926 132.953 145.897 131.488 143.418 129.76C142.892 129.384 134.588 122.959 134.588 122.959L128.502 132.352L137.369 139.077C137.369 139.077 136.279 146.216 136.354 147.08C136.429 147.869 137.594 149.259 138.083 148.883Z" fill="#AD6359"/>
<path d="M138.044 148.921C138.533 148.507 148.001 134.005 148.001 133.216C148.001 132.84 144.995 130.699 141.801 128.52L135.715 137.8L137.33 139.077C137.33 139.077 136.203 146.178 136.278 147.042C136.354 147.906 137.518 149.296 138.044 148.921Z" fill="#FFB50D"/>
<path d="M137.631 148.319C139.134 145.84 145.521 135.996 147.211 133.667C147.211 133.629 147.249 133.667 147.211 133.667C145.746 136.147 139.321 145.953 137.668 148.319C137.631 148.395 137.593 148.395 137.631 148.319Z" fill="#263238"/>
<path d="M136.391 145.802C136.729 145.201 137.367 144.825 137.931 144.713C138.457 144.638 139.096 144.675 139.584 145.013C139.584 145.013 139.584 145.051 139.547 145.051C138.532 144.562 137.142 144.901 136.391 145.802C136.428 145.84 136.391 145.802 136.391 145.802Z" fill="#263238"/>
<path d="M97.2055 150.461C97.8067 150.649 115.014 150.311 115.69 149.898C115.953 149.747 116.029 147.23 116.066 144.187C116.066 143.548 116.93 133.028 116.93 133.028L106.41 133.216L104.983 144.375C104.983 144.375 98.4454 147.456 97.7691 147.982C97.0928 148.508 96.6044 150.273 97.2055 150.461Z" fill="#AD6359"/>
<path d="M97.1672 150.424C97.7684 150.612 115.089 150.349 115.765 149.935C116.065 149.748 116.328 146.066 116.366 142.158L105.283 142.308L105.02 144.337C105.02 144.337 98.4446 147.418 97.7684 147.944C97.0545 148.47 96.5661 150.236 97.1672 150.424Z" fill="#FFB50D"/>
<path d="M97.3934 149.747C100.286 149.635 112.008 149.409 114.901 149.485C114.939 149.485 114.939 149.485 114.901 149.485C112.046 149.672 100.324 149.823 97.3934 149.785C97.3558 149.823 97.3558 149.785 97.3934 149.747Z" fill="#263238"/>
<path d="M98.8203 147.343C99.4966 147.305 100.173 147.606 100.586 148.019C100.962 148.395 101.262 148.959 101.262 149.56H101.225C101.037 148.395 99.985 147.418 98.8203 147.343C98.8203 147.381 98.8203 147.343 98.8203 147.343Z" fill="#263238"/>
<path d="M116.328 143.623L105.057 143.774C105.057 143.774 106.86 122.321 107.01 121.494C107.95 115.145 112.984 94.5933 112.984 94.5933L125.382 94.6684C125.382 94.6684 119.108 115.595 118.394 122.095C117.718 128.031 116.328 143.623 116.328 143.623Z" fill="#455A64"/>
<path d="M122.977 96.7723C122.264 99.4023 121.662 102.032 120.986 104.662C120.347 107.292 119.709 109.885 119.07 112.515C118.431 115.144 117.793 117.774 117.229 120.404C116.666 122.959 116.478 125.552 116.327 128.182C116.14 131.187 115.313 136.898 115.275 139.904C115.275 139.941 115.351 139.941 115.351 139.904C115.576 137.236 116.327 131.901 116.515 129.234C116.703 126.566 116.778 123.861 117.304 121.231C117.793 118.639 118.506 116.084 119.145 113.491C119.784 110.861 120.385 108.231 121.024 105.639C121.362 104.174 121.7 102.709 122.038 101.243C122.376 99.7404 122.752 98.2752 123.053 96.7723C123.053 96.7347 123.015 96.7347 122.977 96.7723Z" fill="#263238"/>
<path d="M125.458 95.2696C125.458 95.2696 121.588 107.63 119.559 116.159C119.521 116.347 119.484 116.497 119.446 116.685C119.409 116.91 119.334 117.136 119.296 117.324L114.6 94.6309L125.458 95.2696Z" fill="#263238"/>
<path d="M143.566 129.459L136.878 138.626C136.878 138.626 122.827 129.158 121.549 125.063C119.896 119.766 117.792 103.46 117.792 103.46L115.801 103.084C115.125 102.37 114.035 94.5933 114.035 94.5933L128.538 94.6684C128.538 94.6684 130.566 100.605 129.364 106.015C129.364 106.015 131.205 116.309 131.806 119.54C132.144 121.456 143.566 129.459 143.566 129.459Z" fill="#455A64"/>
<path d="M120.762 104.174C119.748 103.76 118.771 103.422 117.681 103.197C116.592 102.971 115.502 102.821 114.413 102.671C114.375 102.671 114.337 102.746 114.375 102.746C115.427 102.934 116.479 103.234 117.531 103.497C118.583 103.76 119.635 103.986 120.724 104.211C120.762 104.249 120.8 104.174 120.762 104.174Z" fill="#263238"/>
<path d="M117.567 98.6508C117.492 97.5237 117.417 96.4341 117.266 95.307C117.266 95.2694 117.191 95.2694 117.191 95.307C117.154 96.3214 117.191 97.2982 117.191 98.3127C117.191 98.8011 117.229 99.3271 117.229 99.8155C117.229 100.154 117.379 101.13 116.816 101.13C116.327 101.13 116.215 100.454 116.139 100.078C116.027 99.5525 115.952 99.0265 115.914 98.5381C115.801 97.5237 115.764 96.5093 115.689 95.4948C115.689 95.4573 115.613 95.4197 115.613 95.4948C115.501 96.4341 115.501 97.3734 115.576 98.3502C115.613 98.8387 115.651 99.3271 115.726 99.7779C115.764 100.154 115.801 100.604 115.989 100.943C116.139 101.243 116.44 101.469 116.778 101.506V101.544C116.778 101.619 116.778 101.694 116.778 101.769C116.778 101.957 116.778 102.107 116.778 102.295C116.778 102.483 116.816 102.633 116.816 102.821C116.816 102.971 116.853 103.159 116.891 103.31C116.891 103.347 116.966 103.347 116.966 103.31C117.004 103.159 117.004 102.971 117.004 102.821C117.004 102.633 117.004 102.483 117.004 102.295C117.004 102.107 117.004 101.957 117.004 101.769C117.004 101.694 117.004 101.581 117.004 101.506V101.469C117.154 101.431 117.304 101.356 117.417 101.168C117.605 100.867 117.605 100.417 117.567 100.078C117.642 99.5901 117.605 99.1392 117.567 98.6508Z" fill="#263238"/>
<path d="M127.299 100.154C126.998 100.191 126.698 100.304 126.397 100.304C126.059 100.341 125.758 100.304 125.42 100.229C124.744 100.078 124.143 99.7404 123.654 99.2519C123.128 98.7635 122.79 98.1248 122.49 97.4485C122.339 97.1104 122.227 96.8098 122.152 96.4717C122.039 96.096 121.926 95.7203 121.813 95.307C121.813 95.2694 121.738 95.2694 121.738 95.307C121.776 95.5324 121.738 95.7954 121.776 96.0208C121.813 96.2087 121.851 96.3965 121.889 96.5844C121.964 96.9977 122.076 97.3734 122.227 97.7491C122.49 98.4629 122.903 99.1392 123.467 99.6652C123.993 100.154 124.669 100.529 125.383 100.604C125.984 100.68 126.848 100.642 127.299 100.154C127.336 100.116 127.336 100.154 127.299 100.154Z" fill="#263238"/>
<path d="M128.049 95.8706C128.462 97.5237 128.725 99.1769 128.913 100.868C128.988 101.694 129.026 102.558 128.988 103.385C128.951 104.211 128.875 105.075 128.575 105.902V105.864C128.951 108.307 129.289 110.749 129.664 113.153L130.266 116.798C130.378 117.399 130.453 118 130.566 118.601C130.641 118.902 130.679 119.202 130.754 119.503C130.829 119.803 130.867 120.104 130.979 120.367C131.092 120.592 131.318 120.855 131.505 121.081C131.731 121.306 131.919 121.532 132.144 121.719C132.595 122.133 133.046 122.546 133.497 122.959C134.436 123.786 135.375 124.537 136.314 125.326C138.231 126.867 140.184 128.407 142.1 129.91C140.109 128.482 138.118 127.017 136.202 125.476C135.225 124.725 134.286 123.936 133.346 123.147C132.895 122.734 132.407 122.321 131.956 121.907C131.731 121.682 131.505 121.494 131.28 121.231C131.055 121.006 130.867 120.78 130.679 120.48C130.529 120.179 130.491 119.878 130.416 119.578C130.341 119.277 130.303 118.977 130.228 118.676C130.115 118.075 130.003 117.474 129.89 116.873C129.664 115.67 129.477 114.431 129.326 113.228C128.951 110.786 128.612 108.344 128.274 105.902V105.864V105.827C128.575 105.038 128.65 104.211 128.725 103.385C128.763 102.558 128.763 101.694 128.688 100.868C128.612 100.041 128.537 99.1768 128.425 98.3503C128.349 97.5613 128.237 96.6972 128.049 95.8706Z" fill="#263238"/>
<path d="M112.232 98.2375C112.345 98.2751 112.458 98.3127 112.571 98.3502C112.683 98.3502 112.834 98.3127 112.946 98.2751C113.209 98.1624 113.435 97.937 113.623 97.5988C113.81 97.2607 113.961 96.8474 114.073 96.3965C114.111 96.1711 114.149 95.9457 114.186 95.7203C114.224 95.4573 114.261 95.1943 114.299 94.9689C114.299 94.9313 114.336 94.9313 114.336 94.9689C114.336 95.1191 114.336 95.2694 114.336 95.4197C114.336 95.5324 114.299 95.6827 114.299 95.7954C114.261 96.0584 114.224 96.3214 114.186 96.5844C114.073 97.0728 113.923 97.5237 113.735 97.8618C113.547 98.2 113.284 98.4254 112.984 98.5005C112.721 98.6132 112.42 98.5757 112.232 98.2375Z" fill="#263238"/>
<path d="M118.283 79.903C116.329 82.1197 108.777 89.2581 104.87 88.9951C101.263 88.7321 95.0638 85.4635 93.561 84.6369C92.1333 83.8479 96.9424 76.5592 98.2198 77.3106C101.113 79.0764 104.87 80.955 105.734 81.2931C106.523 81.5937 112.948 78.325 116.817 76.8597C120.274 75.4696 120.161 77.7614 118.283 79.903Z" fill="#AD6359"/>
<path d="M111.595 86.5529L108.326 80.2786C108.326 80.2786 107.5 80.7294 107.763 81.3306C107.988 81.9693 108.815 81.8565 108.815 81.8565C108.815 81.8565 108.251 82.3074 108.514 82.9085C108.777 83.5097 109.604 83.2467 109.604 83.2467C109.604 83.2467 108.965 83.8478 109.303 84.4489C109.604 85.0501 110.468 84.8246 110.468 84.8246C110.468 84.8246 109.791 85.2755 110.167 86.0269C110.543 86.9662 111.595 86.5529 111.595 86.5529Z" fill="white"/>
<path d="M111.369 86.8536L108.062 80.2786C108.062 80.2786 112.609 78.0244 116.629 76.6718C120.611 75.3569 120.386 77.4984 118.056 80.3162C115.727 83.134 111.369 86.8536 111.369 86.8536Z" fill="#FFB50D"/>
<path d="M109.641 79.978C110.693 81.7438 111.707 83.5096 112.609 85.3882C112.609 85.4257 112.572 85.4257 112.572 85.4257C111.482 83.6975 110.505 81.8565 109.603 80.0155C109.566 79.978 109.603 79.9404 109.641 79.978Z" fill="#263238"/>
<path opacity="0.1" d="M110.242 84.5991L111.369 86.8909C111.369 86.8909 115.728 83.1339 118.057 80.3536C119.71 78.3624 120.311 76.6717 119.071 76.3711L110.242 84.5991Z" fill="black"/>
<path d="M95.5142 85.5761C94.5749 85.2755 90.2167 83.5097 89.1271 82.7582C88.0375 82.0068 85.107 79.6023 85.5954 78.7006C86.0839 77.7989 87.0231 78.4376 87.0231 78.4376C87.0231 78.4376 85.9336 77.2353 86.5347 76.3712C87.0983 75.5446 88.526 76.5591 88.526 76.5591C88.526 76.5591 87.5116 75.2441 88.1503 74.4175C88.789 73.6285 90.0288 74.9059 90.0288 74.9059C90.0288 74.9059 89.052 73.7412 89.8409 73.2904C90.8178 72.7644 92.3958 75.1314 93.6356 75.8828C93.9362 76.0706 99.647 78.8885 99.647 78.8885L95.5142 85.5761Z" fill="#AD6359"/>
<path d="M89.8783 74.8684C91.043 76.5967 91.8696 77.1603 93.7481 77.9868C93.7857 77.9868 93.7857 78.062 93.7106 78.062C91.7945 77.4233 90.6673 76.8597 89.7656 74.9436C89.7656 74.8309 89.8408 74.7933 89.8783 74.8684Z" fill="#263238"/>
<path d="M88.4135 76.484C89.766 78.1747 90.6677 78.7758 92.5463 79.7902C92.5839 79.7902 92.5463 79.8654 92.5087 79.8278C90.555 79.0013 89.4655 78.4001 88.3008 76.5592C88.3008 76.484 88.3759 76.4089 88.4135 76.484Z" fill="#263238"/>
<path d="M87.1352 78.5502C88.5629 80.0906 89.5021 80.8045 91.4934 81.5559C91.531 81.5559 91.531 81.631 91.4558 81.631C89.3519 81.0675 88.1872 80.2034 87.0976 78.5878C87.0225 78.4751 87.06 78.4375 87.1352 78.5502Z" fill="#263238"/>
<path d="M100.85 79.4521C100.85 79.4521 99.798 77.0475 99.1217 76.1083C98.4454 75.169 94.5756 72.539 93.9369 73.328C93.1479 74.38 95.1016 76.3337 96.1536 77.1602C96.1536 77.1602 94.3126 79.5648 95.4022 81.2555C96.4917 82.9837 100.85 79.4521 100.85 79.4521Z" fill="#AD6359"/>
<path d="M93.824 73.7036C93.7865 75.1689 95.2517 76.1833 96.2661 77.0474C96.3413 77.1226 96.3037 77.1977 96.2661 77.2353C95.5523 78.2873 94.876 79.978 95.3644 81.2178C95.3644 81.2554 95.3269 81.2929 95.3269 81.2554C94.613 79.978 95.139 78.2873 96.0031 77.1601C94.9136 76.296 93.4859 75.2064 93.824 73.7036C93.7865 73.7036 93.824 73.7036 93.824 73.7036Z" fill="#263238"/>
<path d="M128.276 94.4429H113.21C113.135 94.4053 113.886 81.2179 115.953 77.2354C116.479 76.221 118.883 74.7933 121.025 76.3713C125.834 79.9405 128.276 94.4429 128.276 94.4429Z" fill="#FFB50D"/>
<path d="M128.501 94.6683C128.501 94.6683 127.862 89.4835 126.772 86.8535C126.772 86.8535 122.602 86.8911 121.362 85.8016C120.085 84.712 119.747 81.2179 119.747 81.2179L114.599 81.0676C114.599 81.0676 112.796 90.3101 113.021 94.6307L128.501 94.6683Z" fill="#455A64"/>
<path d="M116.629 88.1311C116.629 88.1311 115.315 86.3653 115.089 84.4492C114.976 83.2845 115.39 82.1949 115.84 82.3452C116.742 82.6458 116.705 84.9376 116.705 84.9376C116.705 84.9376 116.93 82.3452 118.02 82.3452C119.072 82.3452 119.072 84.2989 118.696 85.2758C117.869 87.1919 116.629 88.1311 116.629 88.1311Z" fill="#FFB50D"/>
<path d="M115.238 81.0302L114.6 80.9926C114.6 80.9926 115.351 78.2124 115.614 77.6112C115.877 77.0101 116.891 75.7703 116.891 75.7703H117.53C117.53 75.7703 116.403 77.198 116.14 77.7991C115.802 78.4002 115.238 81.0302 115.238 81.0302Z" fill="#455A64"/>
<path d="M123.88 78.6258C128.914 85.3886 135.639 98.9141 136.579 101.131C137.217 102.634 129.327 106.165 129.064 105.076C128.689 103.686 122.377 85.9521 120.874 79.4899C120.01 75.9207 122.565 76.86 123.88 78.6258Z" fill="#AD6359"/>
<path d="M131.131 108.758C132.822 110.674 133.573 110.937 134.137 113.304C134.512 114.882 135.677 115.295 136.09 113.679C136.766 111.012 135.076 108.044 134.212 107.18L131.131 108.758Z" fill="#AD6359"/>
<path d="M128.162 102.033C128.162 102.033 128.763 105.639 130.379 107.894C131.506 109.434 134.286 112.552 139.997 112.026C141.349 111.914 143.19 110.787 140.899 110.185C139.283 109.772 138.118 109.998 137.254 109.547C137.254 109.547 139.396 107.818 139.246 106.503C139.17 105.902 138.907 104.287 138.532 103.009C138.532 103.009 138.231 103.009 137.855 103.085C137.855 103.085 137.555 101.845 135.977 100.718L128.162 102.033Z" fill="#AD6359"/>
<path d="M131.693 109.171C132.67 109.396 134.737 109.847 136.578 109.622C138.606 109.359 142.439 108.344 142.251 106.842C142.1 105.752 140.598 106.015 140.598 106.015C140.598 106.015 142.1 105.264 141.762 104.287C141.462 103.423 140.297 103.686 140.297 103.686C140.297 103.686 141.124 103.084 140.673 102.296C140.109 101.356 138.456 102.784 137.066 102.333C136.69 102.22 131.693 109.171 131.693 109.171Z" fill="#AD6359"/>
<path d="M135.939 107.518C136.879 107.593 139.095 107.18 140.561 106.053C140.598 106.015 140.598 105.978 140.561 106.015C138.682 106.917 136.766 107.368 135.939 107.518Z" fill="#263238"/>
<path d="M135.752 105.489C136.579 105.451 138.833 104.925 140.26 103.761C140.298 103.723 140.298 103.686 140.26 103.723C138.344 104.7 136.579 105.263 135.752 105.489C135.752 105.451 135.752 105.489 135.752 105.489Z" fill="#263238"/>
<path d="M129.291 85.6138L122.641 88.0559C122.641 88.0559 122.979 88.92 123.617 88.7697C124.256 88.6194 124.294 87.7929 124.294 87.7929C124.294 87.7929 124.669 88.394 125.308 88.2437C125.947 88.0559 125.797 87.2293 125.797 87.2293C125.797 87.2293 126.323 87.9432 126.961 87.7177C127.6 87.4923 127.487 86.6282 127.487 86.6282C127.487 86.6282 127.863 87.3796 128.614 87.079C129.554 86.7033 129.291 85.6138 129.291 85.6138Z" fill="white"/>
<path d="M129.553 85.8768L122.603 88.2814C122.603 88.2814 120.95 83.4723 120.161 79.3395C119.372 75.2067 121.476 75.7327 123.955 78.4002C126.435 81.0678 129.553 85.8768 129.553 85.8768Z" fill="#FFB50D"/>
<path d="M122.49 86.7035C124.369 85.8769 126.285 85.088 128.239 84.4868C128.276 84.4868 128.276 84.5244 128.239 84.5244C126.36 85.3885 124.444 86.1024 122.49 86.7411V86.7035Z" fill="#263238"/>
<path d="M120.688 81.5939C120.838 82.458 121.063 83.3221 121.289 84.1862C121.176 83.9232 121.026 83.6227 120.913 83.3597C120.913 83.3221 120.838 83.3597 120.875 83.3973C120.988 83.6603 121.101 83.9233 121.213 84.1487C121.251 84.2614 121.326 84.4117 121.364 84.5244C121.364 84.562 121.401 84.562 121.401 84.5995C121.439 84.7122 121.476 84.8249 121.476 84.9377C121.476 84.9752 121.476 85.0128 121.514 85.0128C121.815 86.1024 122.115 87.2671 122.566 88.319C122.566 88.3566 122.641 88.319 122.641 88.2815C122.453 87.1544 122.04 86.0272 121.739 84.9001C121.401 83.8105 121.063 82.6834 120.688 81.5939C120.688 81.5563 120.688 81.5563 120.688 81.5939Z" fill="#263238"/>
<path d="M109.715 67.7677C109.978 68.1058 110.392 68.2561 110.805 68.1809C111.218 68.1058 111.519 67.7677 111.632 67.392C111.932 67.7301 112.345 67.8804 112.796 67.6925C113.247 67.5047 113.397 67.0162 113.285 66.5278C113.36 66.9411 113.21 67.4295 112.796 67.6174C112.458 67.7677 112.12 67.655 111.857 67.4295C112.158 67.5422 112.496 67.5422 112.796 67.392C113.134 67.2417 113.322 66.866 113.285 66.5278C113.698 66.4903 114.111 66.34 114.337 65.9643C114.525 65.6637 114.525 65.2504 114.337 64.9498C114.75 64.8371 115.051 64.499 115.088 64.0857C115.126 63.71 114.938 63.2967 114.637 63.1089C115.201 62.8834 115.389 62.132 114.938 61.7188C115.126 61.606 115.238 61.3806 115.201 61.1552C115.163 60.8922 115.013 60.7043 114.825 60.5165C114.938 60.3286 114.938 60.0656 114.825 59.8402C114.675 59.5772 114.337 59.4645 114.074 59.5772C113.961 59.1639 113.811 58.7507 113.473 58.5252C113.172 58.3374 112.796 58.2622 112.496 58.4877C112.233 57.8114 111.406 57.5108 110.767 57.8489C110.58 57.6235 110.279 57.5108 109.941 57.5484C109.64 57.586 109.452 57.6987 109.377 57.7738C109.189 57.586 108.889 57.5108 108.626 57.6235C108.363 57.7362 108.25 57.9617 108.175 58.1871C108.137 58.2247 108.062 58.2622 107.987 58.2998C107.611 58.4125 107.348 58.6755 107.198 59.0512C106.747 59.0136 106.372 59.4645 106.409 59.9153C105.958 60.0281 105.695 60.5541 105.808 60.9673C105.47 61.1176 105.207 61.3806 105.057 61.7188C104.982 61.9817 104.982 62.3199 105.207 62.5077C105.019 62.6205 104.982 62.8835 105.057 63.0713C105.094 63.1464 105.132 63.2216 105.169 63.2967C105.245 63.3719 105.32 63.447 105.357 63.5597C105.395 63.6724 105.32 63.7476 105.32 63.8603C105.32 63.9354 105.32 64.0106 105.32 64.0857C105.357 64.6117 105.771 65.0626 106.297 65.1377C106.221 65.5134 106.484 65.814 106.785 66.0018C106.898 66.077 106.973 66.1145 107.085 66.1521C107.198 66.1897 107.273 66.2273 107.348 66.34C107.386 66.3775 107.424 66.4527 107.461 66.5278C107.574 66.7157 107.799 66.7908 108.025 66.8284C107.837 67.8428 108.964 68.2937 109.715 67.7677ZM108.476 57.8114C108.739 57.6611 109.039 57.6611 109.265 57.8489L109.227 57.8865C109.227 57.8865 109.152 57.8489 109.077 57.8489C109.002 57.8114 108.926 57.8114 108.814 57.8114C108.626 57.8114 108.476 57.8865 108.325 57.9992C108.25 58.0368 108.213 58.1119 108.175 58.1495C108.175 58.1495 108.175 58.1495 108.137 58.1871C108.25 58.0368 108.325 57.8865 108.476 57.8114ZM114.675 60.1032C114.562 59.8402 114.299 59.6899 114.036 59.6899C114.036 59.6899 114.036 59.6899 114.036 59.6524C114.299 59.5772 114.6 59.6148 114.75 59.8778C114.863 60.0656 114.825 60.2911 114.75 60.4413C114.75 60.3662 114.75 60.2535 114.675 60.1032ZM107.987 66.866C108.1 67.5422 108.701 67.9555 109.302 67.8804C108.663 67.9931 107.987 67.7301 107.987 66.866Z" fill="#263238"/>
<path d="M112.759 67.655C112.759 67.655 110.993 62.8835 115.276 62.1697L112.759 67.655Z" fill="#FFB50D"/>
<path d="M120.459 76.5591C120.121 77.0099 117.979 79.2642 116.401 78.7382C115.913 78.5879 116.664 75.7701 116.664 75.7701V75.5447L116.815 72.4639L121.398 71.0737C121.398 71.0737 120.797 76.0707 120.459 76.5591Z" fill="#AD6359"/>
<path d="M121.399 71.0737C121.399 71.0737 121.023 74.2673 120.685 75.8077C118.581 75.695 117.417 74.7932 116.74 74.0418L116.815 72.5014L121.399 71.0737Z" fill="#263238"/>
<path d="M123.428 66.5653C125.72 71.8253 122.827 73.779 121.7 74.2674C120.685 74.7182 117.116 76.1084 114.298 71.1114C111.481 66.1145 113.209 63.4094 115.501 62.2447C117.792 61.1176 121.136 61.3054 123.428 66.5653Z" fill="#AD6359"/>
<path d="M122.488 66.6404C122.375 66.6029 122.225 66.5653 122.112 66.5277C121.962 66.4902 121.849 66.415 121.699 66.4902C121.624 66.5277 121.549 66.6404 121.586 66.7156C121.624 66.9034 121.774 67.0162 121.962 67.0537C122.15 67.1289 122.3 67.1289 122.488 67.0537C122.676 66.9786 122.676 66.7156 122.488 66.6404Z" fill="#263238"/>
<path d="M118.656 67.8802C118.731 67.7675 118.806 67.6923 118.919 67.5796C119.032 67.4669 119.069 67.3542 119.257 67.3166C119.332 67.2791 119.445 67.3542 119.483 67.4294C119.558 67.6172 119.483 67.7675 119.332 67.9178C119.22 68.0681 119.069 68.1432 118.881 68.2183C118.694 68.2559 118.543 68.0305 118.656 67.8802Z" fill="#263238"/>
<path d="M119.52 68.4064C118.919 68.5943 119.332 69.7965 119.896 69.6087C120.422 69.4208 120.008 68.2561 119.52 68.4064Z" fill="#263238"/>
<path d="M119.295 68.5191C119.219 68.6318 119.144 68.7821 119.032 68.8196C118.881 68.8948 118.731 68.7821 118.618 68.7069C118.618 68.7069 118.581 68.7069 118.618 68.7445C118.693 68.9699 118.844 69.1953 119.107 69.1202C119.332 69.0826 119.445 68.8196 119.407 68.5566C119.407 68.5566 119.332 68.4815 119.295 68.5191Z" fill="#263238"/>
<path d="M122.151 67.3542C122.714 67.1288 123.165 68.2935 122.639 68.5189C122.113 68.7444 121.662 67.5797 122.151 67.3542Z" fill="#263238"/>
<path d="M122.413 67.3543C122.526 67.3919 122.676 67.467 122.789 67.4295C122.939 67.3919 122.977 67.2416 123.014 67.0913C123.014 67.0913 123.014 67.0913 123.052 67.0913C123.127 67.3167 123.164 67.5797 122.939 67.6924C122.751 67.8052 122.526 67.6549 122.413 67.467C122.375 67.3919 122.375 67.3167 122.413 67.3543Z" fill="#263238"/>
<path d="M120.834 71.5998C120.947 71.6749 121.06 71.7501 121.21 71.7125C121.36 71.6749 121.473 71.5998 121.586 71.4871H121.623C121.586 71.6749 121.398 71.8252 121.21 71.8252C120.985 71.8628 120.872 71.7501 120.834 71.5998C120.759 71.5998 120.797 71.5622 120.834 71.5998Z" fill="#263238"/>
<path d="M121.887 69.7213C121.887 69.7213 122.15 70.2473 122.263 70.5102C122.263 70.5478 122.225 70.5854 122.112 70.5854C121.661 70.8108 121.173 70.8108 120.76 70.5478C120.722 70.5102 120.76 70.4727 120.797 70.5102C121.211 70.6605 121.624 70.5854 122.037 70.4351C122.037 70.36 121.549 69.5334 121.586 69.5334C121.774 69.4958 122.112 69.4583 122.225 69.4583C122.075 69.1201 121.549 68.1433 121.248 67.5421C121.211 67.5046 121.286 67.467 121.323 67.5046C121.924 68.4063 122.225 68.8571 122.601 69.6085C122.563 69.6461 122 69.7213 121.887 69.7213Z" fill="#263238"/>
<path d="M121.925 70.6605C121.925 70.6605 121.775 71.0362 121.474 71.2617C121.361 71.3368 121.249 71.3744 121.098 71.3744C120.798 71.3744 120.723 71.1114 120.723 70.886C120.723 70.6981 120.76 70.5103 120.76 70.5103C120.76 70.5103 121.249 70.8108 121.925 70.6605Z" fill="#263238"/>
<path d="M121.474 71.2616C121.361 71.3367 121.249 71.3743 121.098 71.3743C120.798 71.3743 120.723 71.1113 120.723 70.8859C121.023 70.8483 121.361 70.961 121.474 71.2616Z" fill="#FF9CBD"/>
<path d="M118.694 62.9961C118.694 62.9961 119.145 63.7851 119.032 64.4613C118.807 65.889 117.229 66.0017 116.853 66.6405C116.515 67.2416 116.966 68.1433 116.665 68.7444C116.252 69.571 115.35 69.5334 115.388 70.0218C115.425 70.4727 115.538 71.9379 115.05 72.2761C114.561 72.6142 109.113 63.7851 116.327 61.9817C116.327 61.9817 117.567 61.4181 119.333 61.7562C121.249 62.1319 122.639 64.9498 122.639 64.9498C122.639 64.9498 122.639 64.9498 122.338 64.7995C121.887 64.6116 121.7 64.3486 121.361 64.2359C120.873 64.0481 120.685 64.2359 120.197 64.0481C119.408 63.7099 118.694 62.9961 118.694 62.9961Z" fill="#263238"/>
<path d="M118.469 62.6204C118.695 62.9585 118.883 63.2966 118.995 63.6723C119.146 64.0481 119.221 64.4238 119.146 64.7995C119.07 65.1376 118.807 65.4758 118.507 65.6636C118.206 65.889 117.831 66.0393 117.53 66.3023C117.38 66.415 117.229 66.6029 117.154 66.7907C117.079 67.0162 117.079 67.204 117.117 67.3919C117.154 67.7676 117.192 68.1809 117.004 68.4814C116.854 68.8196 116.516 69.0826 116.177 69.1577C115.802 69.2704 115.388 69.2704 115.088 69.5334C115.426 69.308 115.802 69.308 116.215 69.2328C116.591 69.1577 116.966 68.8947 117.154 68.519C117.38 68.1433 117.342 67.73 117.305 67.3543C117.305 67.1664 117.305 66.9786 117.342 66.7907C117.38 66.6404 117.53 66.4902 117.68 66.3775C117.981 66.152 118.319 66.0017 118.657 65.7387C118.807 65.626 118.958 65.4758 119.07 65.3255C119.183 65.1752 119.296 64.9873 119.333 64.7619C119.409 64.3486 119.258 63.9353 119.108 63.5972C118.92 63.2591 118.695 62.9209 118.469 62.6204Z" fill="#263238"/>
<path d="M118.693 62.9209C118.844 63.259 119.069 63.522 119.332 63.8226C119.595 64.0856 119.896 64.311 120.271 64.4237C120.459 64.4613 120.647 64.4613 120.835 64.4613C120.985 64.4613 121.173 64.5364 121.286 64.6116C121.398 64.7243 121.549 64.8746 121.737 64.9497C121.887 65.0249 122.075 65.0624 122.263 65.1C122.075 65.0624 121.924 64.9873 121.774 64.8746C121.624 64.7619 121.511 64.6492 121.398 64.4989C121.248 64.3486 121.06 64.311 120.872 64.2735C120.685 64.2735 120.497 64.2735 120.346 64.2359C120.008 64.1607 119.708 63.9729 119.445 63.7099C119.182 63.4469 118.919 63.1839 118.693 62.9209Z" fill="#263238"/>
<path d="M115.312 71.1865C115.312 71.1865 113.546 69.8715 112.945 70.5854C112.306 71.2616 114.034 73.4408 115.049 73.4783C116.063 73.5159 116.101 72.5766 116.101 72.5766L115.312 71.1865Z" fill="#AD6359"/>
<path d="M113.433 71.1864C113.395 71.1864 113.433 71.1864 113.433 71.1864C114.147 71.2615 114.673 71.75 115.123 72.276C114.86 72.0881 114.56 72.0505 114.334 72.3887C114.334 72.3887 114.334 72.4262 114.372 72.4262C114.597 72.276 114.823 72.276 115.048 72.4262C115.236 72.5389 115.386 72.6892 115.499 72.8395C115.537 72.8771 115.649 72.8395 115.612 72.7644C115.311 71.8627 114.334 70.961 113.433 71.1864Z" fill="#263238"/>
<path d="M119.748 81.1805C119.748 81.1805 120.048 78.5881 120.198 78.1748C120.311 77.7991 121.138 76.2587 121.138 76.2587L120.499 75.8455C120.499 75.8455 119.898 77.1604 119.635 77.7616C119.372 78.3627 118.996 81.143 118.996 81.143L119.748 81.1805Z" fill="#455A64"/>
<path d="M82.8155 35.945C82.0641 35.5693 81.2751 35.2312 80.5237 34.8179C79.7723 34.4046 79.096 33.9162 78.4573 33.3526C78.307 33.2399 78.1943 33.0896 78.044 32.9769C77.3677 32.1879 76.6915 31.3989 75.9025 30.7978C74.2118 29.5204 72.2581 28.769 70.3044 29.8961C69.3652 30.4221 68.8016 31.2486 68.8392 31.2486C67.7496 32.1879 66.8855 33.5029 66.9982 35.0057C67.1109 36.208 67.712 37.26 68.1629 38.3495C68.6513 39.5518 68.9519 40.7917 69.29 42.0691C69.5154 42.9708 69.7033 43.8725 69.9663 44.7366C69.9663 44.8493 70.0039 44.9996 70.0039 45.1123C70.1166 46.014 70.2669 46.9533 70.605 47.8174C71.2061 49.5081 72.3708 50.9734 73.9488 51.8751C74.7754 52.3259 75.6771 52.5889 76.6163 52.7016C74.9632 52.5513 73.3852 51.6496 72.2581 50.4098C71.6194 49.696 71.131 48.8694 70.7553 47.9677C70.4547 47.1787 70.2668 46.3521 70.1541 45.5256C70.5298 46.6903 70.9807 47.8174 71.657 48.8694C72.7841 50.6728 74.5124 52.1005 76.6915 52.4011C78.7203 52.6641 80.937 52.1381 82.5525 50.9734C84.4686 49.5832 89.6159 45.5256 86.6478 40.5287C85.7461 38.9883 84.3935 37.8236 83.041 36.8843C83.4167 37.0721 83.7924 37.2976 84.1305 37.523C84.9195 38.049 85.5958 38.6877 86.1593 39.4015C86.798 40.2657 87.2113 41.2425 87.3992 42.2945C87.3992 42.3321 87.4367 42.3321 87.4367 42.2945C87.2865 40.4911 86.0842 38.9131 84.7316 37.8236C83.9802 37.2224 83.1912 36.8091 82.3647 36.3583C82.1768 36.2831 82.0265 36.1704 81.8763 36.0577C81.4254 35.7572 80.937 35.4566 80.5237 35.1936C80.2607 35.0057 80.0353 34.8555 79.7723 34.6676C79.5469 34.5173 79.3214 34.3295 79.1336 34.1792C78.9457 34.0289 78.7954 33.8786 78.6452 33.7283C78.6076 33.6532 78.5325 33.6156 78.4949 33.5405C78.9457 33.9538 79.4341 34.2919 79.9601 34.63C81.3878 35.5317 83.0034 36.0577 84.4686 36.9219C85.2952 37.4103 86.0466 38.049 86.6102 38.8755C86.6102 38.9131 86.6478 38.8755 86.6478 38.838C85.7461 37.4478 84.2432 36.6213 82.8155 35.945Z" fill="#263238"/>
<path d="M71.9944 44.5863C70.0031 42.1818 63.8415 33.9914 63.9166 33.4278C63.9542 33.1272 63.616 27.9049 63.0901 24.1854C62.9022 22.8704 53.0211 21.6681 53.1338 22.8328C53.3968 26.139 54.3736 34.7052 56.2897 37.523C57.8677 39.8148 67.2604 46.9909 70.3037 48.4561C73.3093 49.9214 75.263 48.5313 71.9944 44.5863Z" fill="#EB9481"/>
<path d="M53.133 23.2085C53.0203 22.119 52.8324 16.9342 53.133 15.5065C53.4336 14.0788 54.5231 10.0211 55.6503 10.1338C56.7774 10.2465 56.552 11.4488 56.552 11.4488C56.552 11.4488 57.3034 9.7957 58.3929 10.0211C59.5201 10.2465 59.0692 12.1251 59.0692 12.1251C59.0692 12.1251 59.9709 10.5095 61.0605 10.7725C62.15 11.0731 61.4362 12.8765 61.4362 12.8765C61.4362 12.8765 62.1876 11.3361 62.9766 11.9748C63.9534 12.7262 62.2627 15.3938 62.0749 16.9717C62.0373 17.3474 61.6992 24.4108 61.6992 24.4108L53.133 23.2085Z" fill="#EB9481"/>
<path d="M61.4741 12.6888C60.2343 14.6425 60.0464 15.732 60.0464 17.9863C60.0464 18.0239 59.9713 18.0239 59.9713 17.9863C59.7834 15.7696 59.821 14.3795 61.3614 12.6136C61.4741 12.5385 61.5493 12.6136 61.4741 12.6888Z" fill="#263238"/>
<path d="M59.1813 11.9372C58.0918 14.0787 57.8664 15.2434 57.6785 17.6479C57.6785 17.6855 57.6034 17.6855 57.6034 17.6479C57.5658 15.281 57.6785 13.9284 59.0311 11.8996C59.1438 11.8245 59.2565 11.862 59.1813 11.9372Z" fill="#263238"/>
<path d="M56.5146 11.5615C55.6129 13.7031 55.2747 14.9805 55.425 17.3099C55.425 17.3474 55.3499 17.385 55.3499 17.3099C54.9742 14.9429 55.3499 13.3649 56.477 11.5239C56.5521 11.4112 56.5897 11.4112 56.5146 11.5615Z" fill="#263238"/>
<path d="M61.7359 25.8761C61.7359 25.8761 63.6896 23.7345 64.3659 22.6074C65.0422 21.4803 65.9439 16.3706 64.8543 16.1077C63.4642 15.7695 62.3371 18.6249 61.9614 20.0902C61.9614 20.0902 58.6927 19.3012 57.4529 21.1797C56.213 23.0583 61.7359 25.8761 61.7359 25.8761Z" fill="#EB9481"/>
<path d="M64.4031 16.1453C62.9003 16.7464 62.5621 18.7001 62.0737 20.0902C62.0361 20.2029 61.9234 20.2029 61.8483 20.1653C60.4582 19.9399 58.4293 20.0151 57.3773 21.0671C57.3398 21.1046 57.3022 21.0671 57.3398 21.0295C58.3166 19.7521 60.2703 19.5266 61.7731 19.8648C62.2991 18.4371 62.7124 16.521 64.4031 16.1453C64.4407 16.1453 64.4407 16.1453 64.4031 16.1453Z" fill="#263238"/>
<path d="M52.6074 25.1622L63.6533 24.8992C63.6533 24.8992 64.1417 33.5029 64.4423 33.9162C64.8931 34.5549 71.8813 43.6846 73.4593 45.9013C75.0372 48.118 74.2858 50.5977 69.1762 48.0053C64.0665 45.3753 58.5061 39.8148 56.5899 38.1993C55.012 36.9594 52.6074 25.1622 52.6074 25.1622Z" fill="#C7C7C7"/>
<path d="M63.6905 26.1015L52.8325 26.402C52.8325 26.3645 52.7949 26.2893 52.7949 26.2517L63.6529 25.9512C63.6905 25.9887 63.6905 26.0639 63.6905 26.1015ZM63.8032 27.454L53.1706 27.7546C53.1706 27.7921 53.2082 27.8673 53.2082 27.9049L63.8032 27.6043C63.8032 27.5667 63.8032 27.5291 63.8032 27.454ZM63.8783 28.9944L53.5088 29.295C53.5088 29.3325 53.5463 29.4077 53.5463 29.4453L63.9159 29.1447C63.9159 29.0696 63.9159 29.032 63.8783 28.9944ZM64.0286 30.4972L53.8845 30.7978C53.8845 30.8354 53.922 30.9105 53.922 30.9481L64.0286 30.6475V30.4972ZM64.1413 32.0001L54.2602 32.3007C54.2602 32.3382 54.2978 32.4134 54.2978 32.4509L64.1413 32.1504C64.1413 32.1128 64.1413 32.0752 64.1413 32.0001ZM64.3292 33.5405L54.711 33.8035C54.711 33.8411 54.7486 33.9162 54.7486 33.9538L64.3668 33.6908C64.3292 33.6532 64.3292 33.5781 64.3292 33.5405ZM65.2309 35.0058L55.1619 35.3063C55.1995 35.3439 55.1995 35.419 55.1995 35.4566L65.3436 35.156C65.306 35.1185 65.2685 35.0809 65.2309 35.0058ZM66.358 36.5086L55.7255 36.8092C55.763 36.8467 55.763 36.9219 55.8006 36.9594L66.5083 36.6589C66.4332 36.6213 66.3956 36.5462 66.358 36.5086ZM67.4851 38.0114L56.6272 38.312C56.6647 38.3496 56.7399 38.4247 56.815 38.4623L67.5979 38.1617C67.5603 38.0866 67.5227 38.049 67.4851 38.0114ZM68.6123 39.4767L58.2803 39.7773C58.3554 39.8148 58.393 39.89 58.4681 39.9275L68.725 39.627C68.6874 39.5894 68.6498 39.5143 68.6123 39.4767ZM69.7394 40.9795L59.9334 41.2801C59.971 41.3177 60.0461 41.3928 60.1212 41.4304L69.8897 41.1298C69.8145 41.0922 69.777 41.0171 69.7394 40.9795ZM70.8665 42.4448L61.6241 42.7078C61.6992 42.7454 61.7368 42.8205 61.8119 42.8581L70.9792 42.5951C70.9417 42.5575 70.9041 42.5199 70.8665 42.4448ZM71.9561 43.9476L63.3899 44.2106C63.4651 44.2482 63.5402 44.3233 63.5778 44.3609L72.0688 44.1355C72.0312 44.0603 71.9936 43.9852 71.9561 43.9476ZM73.0832 45.4505L65.3436 45.6759C65.4187 45.7135 65.4939 45.7886 65.569 45.8262L73.1959 45.6007C73.1583 45.5256 73.1208 45.488 73.0832 45.4505ZM73.9849 46.9157L67.5227 47.1036C67.5979 47.1412 67.673 47.2163 67.7857 47.2539L74.06 47.066C74.0225 47.0284 73.9849 46.9909 73.9849 46.9157ZM70.2654 48.5688C70.4157 48.6064 70.5284 48.6816 70.6411 48.7191L73.9473 48.6064C73.9849 48.5688 74.0225 48.4937 74.0225 48.4561L70.2654 48.5688Z" fill="#A6A6A6"/>
<path opacity="0.1" d="M69.1392 48.0428C68.0121 47.4793 66.8474 46.7654 65.7578 45.9764L71.8067 43.7222C72.5206 44.699 73.1217 45.488 73.4598 45.9764C75.0003 48.1555 74.2488 50.6352 69.1392 48.0428Z" fill="black"/>
<path d="M53.7726 27.6044C54.1483 27.642 57.6424 27.5293 58.3938 27.4917C59.1452 27.4541 62.226 27.3038 63.015 27.1911C63.0526 27.1911 63.0526 27.1536 63.015 27.1536C62.226 27.116 59.1076 27.2287 58.3562 27.2663C57.5672 27.3038 54.1483 27.4917 53.7726 27.5668C53.735 27.5668 53.7726 27.6044 53.7726 27.6044Z" fill="#263238"/>
<path d="M84.6192 146.967C85.3706 146.704 102.503 133.066 102.803 132.127C102.916 131.788 89.7288 115.069 89.7288 115.069L79.209 123.635L87.7 134.832C87.7 134.832 83.4921 142.985 83.2291 144.036C83.0412 145.088 83.8678 147.23 84.6192 146.967Z" fill="#EB9481"/>
<path d="M86.0469 138.026C86.0847 137.988 86.0847 137.95 86.0847 137.912C86.0847 137.95 86.0847 137.988 86.0469 138.026Z" fill="#FFB50D"/>
<path d="M84.6188 146.967C85.3702 146.704 102.503 133.066 102.803 132.127C102.916 131.826 101.488 129.722 99.5345 127.092C96.8669 130.21 86.5349 142.196 85.3702 141.407C84.9194 141.106 85.4078 139.566 85.7835 138.664C84.6564 140.918 83.379 143.473 83.2663 144.037C83.0408 145.088 83.8674 147.23 84.6188 146.967Z" fill="#263238"/>
<path d="M95.2134 121.982L84.3554 130.661C84.3554 130.661 66.3965 109.471 65.7202 106.278C64.9688 102.671 62.9024 74.3049 62.94 72.9148C63.0151 71.1865 64.8936 63.6724 64.8936 63.6724H78.344C78.344 63.6724 80.2226 100.755 80.6359 101.882C81.0491 103.122 95.2134 121.982 95.2134 121.982Z" fill="#263238"/>
<path d="M83.3018 127.881C85.0301 126.19 91.7929 120.818 92.657 120.404L92.6946 120.442C92.0934 121.156 86.3075 125.89 83.377 127.956C83.3019 127.956 83.2643 127.918 83.3018 127.881Z" fill="#37474F"/>
<path d="M64.2543 69.2705C64.4422 69.1953 64.63 69.1953 64.8179 69.1577C65.0057 69.1202 65.1936 69.045 65.3814 68.9323C65.7196 68.7445 66.0953 68.519 66.4334 68.1809C66.7716 67.8428 66.997 67.3919 67.2224 66.9035C67.3351 66.6405 67.8987 65.1752 67.8987 65.1752C67.8987 65.1377 67.9738 65.1752 67.9363 65.2128C67.8987 65.4007 67.523 66.6405 67.4103 66.9786C67.1849 67.5798 66.9594 68.1058 66.5837 68.4815C66.2456 68.8572 65.8323 69.0826 65.419 69.2705C65.2312 69.3456 65.0057 69.4207 64.8179 69.4207C64.63 69.4583 64.4422 69.4583 64.2543 69.3832C64.1792 69.3456 64.2167 69.2705 64.2543 69.2705Z" fill="#37474F"/>
<path d="M76.127 64.3486L76.4275 71.7877L76.7657 79.2267L77.4795 94.1048C77.6298 96.5845 77.7425 99.0641 77.8928 101.544C77.8928 101.844 77.9304 102.183 77.9679 102.483C77.9679 102.521 77.9679 102.558 78.0055 102.633C78.0431 102.671 78.0431 102.709 78.0806 102.746C78.1182 102.821 78.1558 102.896 78.1934 102.972C78.2685 103.122 78.3812 103.235 78.4563 103.347C78.8321 103.873 79.2078 104.362 79.5835 104.85C80.3349 105.827 81.1239 106.804 81.8753 107.781C83.4157 109.734 84.9937 111.65 86.5717 113.567L91.3056 119.315L86.6844 113.491C85.144 111.538 83.6036 109.584 82.0632 107.63C81.3117 106.653 80.5603 105.677 79.8089 104.662C79.4332 104.174 79.0575 103.685 78.7193 103.159C78.6442 103.047 78.5315 102.896 78.4563 102.784C78.3812 102.671 78.2685 102.521 78.2685 102.408C78.2309 102.107 78.2309 101.807 78.1934 101.506C78.0431 99.0266 77.9304 96.5469 77.8176 94.0672L77.0287 79.1891L76.6154 71.7501L76.127 64.3486Z" fill="#37474F"/>
<path d="M65.457 104.324C65.5697 105.226 65.6449 105.902 65.72 106.315C66.0957 108.119 71.9192 115.558 76.9537 121.795L80.4102 100.079C79.8091 92.3766 78.3438 63.7476 78.3438 63.7476H71.6562L65.457 104.324Z" fill="#37474F"/>
<path d="M46.5965 146.516C47.3103 146.892 68.8385 150.762 69.7402 150.386C70.0783 150.236 73.9481 129.309 73.9481 129.309L60.5729 127.054L57.7551 140.805C57.7551 140.805 48.8508 143.022 47.8739 143.51C46.9346 144.112 45.8827 146.14 46.5965 146.516Z" fill="#EB9481"/>
<path d="M54.2227 141.707C54.2984 141.707 54.2984 141.707 54.3362 141.669C54.2984 141.669 54.2984 141.669 54.2227 141.707Z" fill="#FFB50D"/>
<path d="M46.5965 146.516C47.3103 146.892 68.8385 150.762 69.7402 150.386C70.0407 150.273 70.6794 147.794 71.3557 144.6C67.2605 144.675 51.4056 144.788 51.2553 143.398C51.1802 142.872 52.683 142.233 53.5847 141.895C51.105 142.534 48.3999 143.285 47.8739 143.548C46.9346 144.112 45.8827 146.141 46.5965 146.516Z" fill="#263238"/>
<path d="M67.5618 63.6724C67.5618 63.6724 67.9 69.4207 69.5155 73.5159C69.5155 73.5159 71.8073 74.9436 72.0328 75.1691L58.3945 136.597L72.3709 139.303C72.3709 139.303 77.8562 109.546 78.3447 107.518C79.0961 104.249 85.0323 76.4089 85.2953 74.8309C85.8588 71.5247 82.778 63.6724 82.778 63.6724H67.5618Z" fill="#263238"/>
<path d="M59.8598 133.554C63.692 134.118 71.0559 135.696 71.9576 136.071C71.9952 136.071 71.9576 136.109 71.9576 136.109C70.9808 136.109 62.0389 134.306 59.8598 133.629C59.7846 133.592 59.8222 133.517 59.8598 133.554Z" fill="#37474F"/>
<path d="M81.0869 69.2704C80.8239 69.1953 80.5234 69.2329 80.2228 69.1953C79.9222 69.1577 79.6217 69.1201 79.3211 69.045C78.7575 68.8947 78.2315 68.6693 77.7431 68.4063C77.2171 68.1057 76.879 67.6924 76.5784 67.1665C76.4281 66.9035 75.6767 65.4758 75.6767 65.4758C75.6391 65.4382 75.6016 65.4758 75.6016 65.5133C75.6391 65.7012 76.1276 66.941 76.2778 67.2416C76.5408 67.8052 76.9165 68.3312 77.4801 68.6693C78.0061 69.0074 78.6072 69.2329 79.2459 69.3456C79.5465 69.4207 79.8846 69.4583 80.2228 69.4583C80.5234 69.4583 80.8615 69.4583 81.1245 69.3831C81.1621 69.3456 81.1245 69.2704 81.0869 69.2704Z" fill="#37474F"/>
<path d="M69.1766 73.4032C70.454 73.8165 71.6938 74.4552 72.8585 75.0939C72.8961 75.1315 72.8585 75.2066 72.821 75.169C71.5811 74.643 70.3037 74.1546 69.1014 73.5535C69.0263 73.4784 69.1014 73.3656 69.1766 73.4032Z" fill="#37474F"/>
<path d="M68.7256 64.9122C68.7256 64.8746 68.8008 64.8746 68.8008 64.9122C68.8008 66.3775 68.9135 67.6549 69.0638 69.045C69.1389 69.6837 69.6649 73.1778 70.7544 72.9148C70.9423 72.8772 71.0174 72.6894 71.055 72.4264C71.0926 72.0883 70.9423 71.675 70.9047 71.3368C70.792 70.5854 70.6793 69.8716 70.6042 69.1202C70.4914 67.73 70.4539 66.3399 70.6042 64.9498C70.6042 64.9122 70.6793 64.9122 70.6793 64.9498C70.6793 66.8659 70.7544 68.782 71.055 70.6981C71.2053 71.5998 71.6937 72.99 70.7169 73.1402C69.74 73.2905 69.1013 70.9987 68.951 70.36C68.6129 68.5942 68.6129 66.678 68.7256 64.9122Z" fill="#37474F"/>
<path d="M70.7167 72.9898C70.8294 73.2153 70.9045 73.4783 70.9797 73.7037C71.0172 73.8915 71.0924 74.117 71.0924 74.3048C71.0924 74.3424 71.0548 74.3424 71.0172 74.3048C70.9045 74.1545 70.8294 73.9291 70.7542 73.7413C70.6791 73.5158 70.5664 73.2904 70.4912 73.065C70.4537 72.9523 70.6415 72.8771 70.7167 72.9898Z" fill="#37474F"/>
<path d="M81.6512 63.6724C82.0269 65.1376 82.4026 66.6029 82.7032 68.0682C83.0413 69.5334 83.3419 70.9987 83.5297 72.5015L83.5673 73.0651C83.5673 73.2529 83.5673 73.4408 83.5673 73.6287L83.417 74.7182L83.0037 76.9349L82.102 81.3682L78.4201 99.0641L74.7381 116.76L72.8972 125.627L71.0938 134.493L73.0474 125.664L74.9636 116.835L78.7206 99.1393C79.9605 93.2407 81.1628 87.342 82.3274 81.4058L83.1916 76.9725L83.6049 74.7558L83.7551 73.6287C83.7551 73.2529 83.7176 72.8772 83.68 72.5015C83.4546 70.9987 83.1164 69.5334 82.7783 68.0682C82.4402 66.6029 82.0645 65.1376 81.6512 63.6724Z" fill="#37474F"/>
<path d="M64.8926 63.6724L65.7191 57.9992C65.7191 57.9992 64.2163 55.0687 65.4561 52.4763C66.0573 51.1613 69.5138 45.0749 71.7681 43.4969C73.872 41.994 76.0887 43.5344 77.028 44.8494C79.8082 48.6817 81.1232 51.7249 83.7907 63.6724H64.8926Z" fill="#C7C7C7"/>
<path d="M76.5026 44.2482H70.9421C70.9796 44.2106 71.0548 44.1355 71.0923 44.0979H76.3147C76.3898 44.1355 76.4274 44.173 76.5026 44.2482ZM77.5545 45.6007H69.7774C69.7398 45.6383 69.7022 45.7134 69.6647 45.751H77.6672C77.6297 45.7134 77.5921 45.6383 77.5545 45.6007ZM78.5314 47.1036H68.6878C68.6502 47.1411 68.6127 47.2163 68.5751 47.2539H78.6441C78.569 47.2163 78.5689 47.1787 78.5314 47.1036ZM79.3579 48.644H67.6734C67.6358 48.6815 67.5983 48.7567 67.5607 48.7943H79.3955C79.3955 48.7567 79.3579 48.6815 79.3579 48.644ZM80.0342 50.1468H66.7717C66.7341 50.1844 66.6966 50.2595 66.659 50.2971H80.1094C80.0718 50.2595 80.0342 50.222 80.0342 50.1468ZM80.5978 51.6872H65.87C65.8324 51.7248 65.8324 51.7999 65.7949 51.8375H80.6354L80.5978 51.6872ZM81.1238 53.1901H65.2313C65.2313 53.2276 65.1937 53.3028 65.1937 53.3403H81.1989C81.1613 53.3028 81.1238 53.2276 81.1238 53.1901ZM81.5746 54.7305H65.0059C65.0059 54.768 65.0059 54.8432 65.0059 54.8807H81.6498C81.6122 54.8056 81.5746 54.768 81.5746 54.7305ZM81.9879 56.2333H65.1186C65.1186 56.2709 65.1561 56.346 65.1561 56.3836H82.0255C82.0255 56.346 82.0255 56.2709 81.9879 56.2333ZM82.4012 57.7361H65.6446C65.6821 57.8113 65.6821 57.8488 65.7197 57.8864H82.4388C82.4012 57.8488 82.4012 57.8113 82.4012 57.7361ZM82.7769 59.2765H65.5694L65.5319 59.4268H82.8145C82.7769 59.3892 82.7769 59.3141 82.7769 59.2765ZM83.115 60.7794H65.3064L65.2689 60.9297H83.115C83.1526 60.8921 83.1526 60.8545 83.115 60.7794ZM83.4907 62.3198H65.1186L65.081 62.4701H83.5283C83.4907 62.4325 83.4907 62.3574 83.4907 62.3198Z" fill="#A6A6A6"/>
<path d="M68.5376 57.3604C69.4768 57.4731 70.4161 57.6234 71.3178 57.8863C71.7687 57.9991 72.2195 58.1493 72.6328 58.2996C72.8582 58.3748 73.0836 58.4499 73.3091 58.5251C73.5345 58.6002 73.7975 58.6753 74.0229 58.6753C74.0605 58.6753 74.0605 58.7129 74.0229 58.7129C73.7975 58.7129 73.5721 58.7129 73.3466 58.6753C73.1212 58.6378 72.8958 58.6002 72.7079 58.5251C72.2571 58.4123 71.8062 58.2621 71.3554 58.1493C70.4537 57.8863 69.5144 57.6234 68.5751 57.4355C68.4624 57.4355 68.5 57.3604 68.5376 57.3604Z" fill="#263238"/>
<path d="M66.2083 58.1494C66.9597 58.0742 67.7487 58.0742 68.5377 58.0742C68.9134 58.0742 69.3267 58.1118 69.7024 58.1494C69.8902 58.1869 70.0781 58.1869 70.2659 58.2245C70.4538 58.2621 70.6792 58.2996 70.8671 58.3372C70.9046 58.3372 70.9046 58.3748 70.8671 58.3748C70.6792 58.3372 70.4914 58.3748 70.3035 58.3748C70.1156 58.3748 69.9278 58.3748 69.7399 58.3372C69.3642 58.3372 68.9509 58.2996 68.5752 58.2996C67.7863 58.2621 67.0348 58.2245 66.2458 58.2245C66.1707 58.2245 66.1707 58.1494 66.2083 58.1494Z" fill="#263238"/>
<path d="M75.7872 47.6299C77.2901 49.9969 82.4373 58.9012 82.5876 59.3896C82.7754 59.9156 85.7435 70.2101 86.0065 71.8632C86.1944 73.0279 94.3473 69.5714 94.1218 68.5569C93.5958 66.19 91.6421 59.5775 90.2896 56.8348C89.1625 54.5806 80.3333 46.0895 77.7785 44.3988C75.2612 42.7082 73.3451 43.685 75.7872 47.6299Z" fill="#EB9481"/>
<path d="M88.9365 75.6204C88.5232 75.2071 88.2978 75.395 88.4105 76.447C88.4857 77.499 89.7255 81.4815 88.2978 81.782C86.8701 82.0826 85.217 76.447 85.1794 74.7187C85.1419 72.9905 85.743 70.2102 85.743 70.2102C86.3066 71.2246 87.847 73.6292 88.9365 75.6204Z" fill="#EB9481"/>
<path d="M93.7838 67.0542C95.2115 70.0223 97.1652 73.6667 96.8647 77.3486C96.7895 78.0625 96.4138 78.4757 96.4138 78.4757C96.3011 80.1289 95.4745 80.5797 95.4745 80.5797C94.911 82.0826 94.0093 82.4583 94.0093 82.4583C94.0093 82.4583 93.859 84.4119 92.6567 84.5247C91.3042 84.6374 91.7926 81.8947 91.1163 80.204C89.5759 76.3342 86.3448 71.2997 85.7812 70.2102L93.7838 67.0542Z" fill="#EB9481"/>
<path d="M92.3184 74.9816C92.7316 76.1087 93.1825 77.2359 93.4831 78.4381C93.7836 79.7531 93.8588 81.0681 93.9339 82.3831C93.9339 82.4206 94.009 82.4206 94.009 82.3831C94.1969 79.941 93.5582 77.1231 92.3935 74.944C92.3559 74.9065 92.3184 74.944 92.3184 74.9816Z" fill="#263238"/>
<path d="M94.5343 73.7417C94.8724 74.8688 95.5111 76.8601 95.436 80.5796H95.4735C95.8493 78.1751 95.5111 75.9584 94.6094 73.7041C94.5343 73.6666 94.4967 73.6666 94.5343 73.7417Z" fill="#263238"/>
<path d="M95.6992 73.0654C96.2252 75.0191 96.3004 76.3341 96.3755 78.4381H96.4131C96.6009 76.0335 96.4131 75.1318 95.7744 73.0279C95.7744 72.9903 95.6992 72.9903 95.6992 73.0654Z" fill="#263238"/>
<path d="M94.0849 66.1525L85.2181 70.398C85.2181 70.398 82.6633 59.6528 82.25 59.1268C81.8368 58.5632 75.8254 48.4191 74.6983 46.24C73.5712 44.0608 74.548 41.9569 78.7935 44.925C83.039 47.8931 88.4868 54.1674 90.0272 55.8205C91.2295 57.1355 94.0849 66.1525 94.0849 66.1525Z" fill="#C7C7C7"/>
<path d="M75.9383 43.497L74.2852 44.3236C74.2852 44.2484 74.3227 44.1733 74.3603 44.0982L75.6753 43.4219C75.7504 43.4594 75.8256 43.4594 75.9383 43.497ZM77.5914 44.1733L74.4354 45.7888C74.473 45.8264 74.473 45.9016 74.5106 45.9391L77.7793 44.286C77.7041 44.2484 77.6665 44.2109 77.5914 44.1733ZM79.0942 45.1501L75.1869 47.1414C75.2244 47.179 75.2244 47.2165 75.262 47.2917L79.2445 45.2628C79.1694 45.1877 79.1318 45.1501 79.0942 45.1501ZM80.4092 46.1646L75.9007 48.4564C75.9383 48.4939 75.9383 48.5691 75.9758 48.6067L80.5219 46.3148C80.4844 46.2397 80.4468 46.2021 80.4092 46.1646ZM81.6491 47.2165L76.6521 49.7714C76.6897 49.8089 76.6897 49.8465 76.7273 49.9216L81.7618 47.3668C81.7242 47.2917 81.6866 47.2541 81.6491 47.2165ZM82.8513 48.3437L77.4411 51.0863C77.4787 51.1239 77.4787 51.1615 77.5163 51.2366L82.964 48.4564C82.9265 48.4188 82.8889 48.3812 82.8513 48.3437ZM84.016 49.4332L78.2301 52.3637C78.2677 52.4013 78.2677 52.4389 78.3052 52.514L84.1663 49.5459C84.0912 49.5084 84.0536 49.4708 84.016 49.4332ZM85.1431 50.5979L78.9815 53.7163C79.0191 53.7539 79.0191 53.7914 79.0567 53.8666L85.2559 50.7106C85.2183 50.6731 85.1807 50.6355 85.1431 50.5979ZM86.2327 51.725L79.7329 55.0313C79.7705 55.0688 79.7705 55.1064 79.8081 55.1816L86.3078 51.8753C86.3078 51.8002 86.2703 51.7626 86.2327 51.725ZM87.3223 52.8897L80.5219 56.3463C80.5595 56.3838 80.5595 56.459 80.5971 56.4965L87.3974 53.04C87.3974 52.9649 87.3598 52.9273 87.3223 52.8897ZM88.3742 54.0544L81.3109 57.6612C81.3485 57.6988 81.3861 57.7364 81.3861 57.8115L88.487 54.2047C88.4494 54.1296 88.4118 54.092 88.3742 54.0544ZM89.4262 55.2191L82.0999 58.9387C82.1375 59.0138 82.175 59.0514 82.175 59.0889L89.5389 55.3694C89.5014 55.2943 89.4638 55.2567 89.4262 55.2191ZM90.4031 56.4214L82.6635 60.3288C82.6635 60.3663 82.701 60.4415 82.701 60.4791L90.4782 56.5341C90.4406 56.4965 90.4406 56.459 90.4031 56.4214ZM91.0793 57.774L83.0767 61.8316C83.0767 61.8692 83.1143 61.9443 83.1143 61.9819L91.1169 57.9242C91.1169 57.8867 91.0793 57.8491 91.0793 57.774ZM91.6429 59.2016L83.4525 63.372C83.4525 63.4096 83.49 63.4847 83.49 63.5223L91.6805 59.3519C91.6805 59.3144 91.6805 59.2392 91.6429 59.2016ZM92.2065 60.6293L83.8657 64.8748C83.8657 64.9124 83.9033 64.9876 83.9033 65.0251L92.2816 60.7796C92.244 60.7421 92.2065 60.6669 92.2065 60.6293ZM92.7325 62.057L84.2414 66.3777C84.2414 66.4153 84.279 66.4904 84.279 66.528L92.77 62.2073C92.77 62.1698 92.7325 62.1322 92.7325 62.057ZM93.2209 63.5223L84.6172 67.9181C84.6172 67.9557 84.6547 68.0308 84.6547 68.0684L93.296 63.6726C93.2585 63.5974 93.2585 63.5599 93.2209 63.5223ZM93.7093 64.95L84.9929 69.4209C84.9929 69.4585 85.0304 69.5336 85.0304 69.5712L93.7844 65.1379C93.7469 65.0627 93.7469 65.0251 93.7093 64.95Z" fill="#A6A6A6"/>
<path d="M76.202 49.4708C76.4274 49.6963 76.6904 49.9593 76.8783 50.2222C76.9159 50.2598 76.9534 50.2974 76.991 50.335C76.7656 49.9217 76.5401 49.5084 76.3523 49.0951C76.3523 49.0576 76.3899 49.02 76.4274 49.0576C76.9159 49.7714 77.3291 50.5228 77.78 51.2742C78.1933 51.9881 82.3261 58.9011 82.5515 59.615C82.8145 60.404 85.3317 70.2851 85.2942 70.3978C85.2566 70.5481 85.1815 70.5857 85.0687 70.3602C85.0687 70.3602 82.5139 60.3288 82.2885 59.615C82.0631 58.9011 77.4418 51.0112 77.3667 50.8234C77.2164 50.6355 77.0286 50.4477 76.8783 50.2598C76.5777 50.0344 76.3523 49.7714 76.202 49.4708C76.1644 49.4708 76.1644 49.4333 76.202 49.4708Z" fill="#263238"/>
<path d="M92.7329 64.5369C92.3947 64.6496 89.5393 65.9646 88.9382 66.2651C88.3371 66.5657 85.8198 67.768 85.2187 68.1437C85.1811 68.1437 85.2187 68.2188 85.2563 68.1812C85.9325 67.9558 88.4498 66.7536 89.0885 66.453C89.7272 66.1524 92.5074 64.7999 92.808 64.612C92.808 64.5744 92.7704 64.5369 92.7329 64.5369Z" fill="#263238"/>
<path d="M75.2239 43.9102C75.1112 44.2483 73.2327 45.7511 71.6171 45.5633C71.0911 45.4881 71.3541 43.309 71.3541 43.309L71.3165 43.0836L70.8281 40.0404L74.4725 38.0115L74.9985 37.7485C74.9985 37.7485 75.0736 38.5751 75.1488 39.6271C75.1488 39.6647 75.1488 39.7398 75.1488 39.7774C75.1488 39.8525 75.1488 39.8901 75.1488 39.9652C75.1488 40.1155 75.1864 40.2658 75.1864 40.4536C75.1864 40.5664 75.1863 40.6791 75.2239 40.8293C75.2239 40.9421 75.2239 41.0923 75.2615 41.2051C75.2991 42.4449 75.2615 43.7599 75.2239 43.9102Z" fill="#EB9481"/>
<path d="M75.2619 43.309C74.1724 43.309 72.3314 42.9333 71.0164 41.4305L70.791 40.0404L74.473 38.0115L74.999 37.7485C74.999 37.7485 75.0741 38.5751 75.1492 39.6271C75.1492 39.6647 75.1492 39.7398 75.1492 39.7774C75.1492 39.8525 75.1492 39.8901 75.1492 39.9276C75.1492 40.0779 75.1868 40.2658 75.1868 40.4161C75.1868 40.5288 75.1868 40.6791 75.1868 40.7918C75.1868 40.9045 75.1868 41.0548 75.2244 41.1675C75.2995 41.994 75.2995 42.783 75.2619 43.309Z" fill="#263238"/>
<path d="M78.3435 34.5552C80.1469 39.6272 77.3291 41.2804 76.2396 41.6936C75.2627 42.0318 71.8062 43.1213 69.4768 38.2747C67.1474 33.428 68.9132 30.9484 71.1675 30.0467C73.3842 29.1074 76.5026 29.4831 78.3435 34.5552Z" fill="#EB9481"/>
<path d="M76.7639 33.9165C76.8767 33.9165 76.9894 33.9541 77.1397 33.9541C77.2899 33.9541 77.4026 33.9541 77.5154 34.0668C77.5905 34.1044 77.5905 34.2546 77.5529 34.2922C77.4402 34.4425 77.2524 34.4425 77.1021 34.4425C76.9142 34.4425 76.7639 34.3674 76.6512 34.2171C76.4634 34.1044 76.5761 33.9165 76.7639 33.9165Z" fill="#263238"/>
<path d="M73.684 35.3818C73.7592 35.2691 73.8343 35.1939 73.8719 35.0812C73.947 34.9685 74.0222 34.8558 74.1349 34.8182C74.21 34.7806 74.3228 34.8182 74.3603 34.8934C74.4355 35.0436 74.3979 35.2315 74.2852 35.3818C74.1725 35.5321 74.0598 35.6448 73.9095 35.6823C73.7592 35.7199 73.6089 35.5321 73.684 35.3818Z" fill="#263238"/>
<path d="M74.9228 36.0581C74.9228 36.0581 74.8852 36.0957 74.9228 36.0957C75.0355 36.4338 75.1107 36.8471 74.8477 37.0725C74.8477 37.0725 74.8477 37.1101 74.8477 37.0725C75.1858 36.9222 75.0731 36.3587 74.9228 36.0581Z" fill="#263238"/>
<path d="M74.5102 35.7574C73.9466 35.8701 74.2472 37.0348 74.7732 36.9221C75.2992 36.8094 74.9986 35.6447 74.5102 35.7574Z" fill="#263238"/>
<path d="M74.2848 35.9078C74.2096 35.983 74.1345 36.1332 74.0218 36.1708C73.8715 36.2084 73.7588 36.1332 73.6085 36.0205C73.6085 36.0205 73.5709 36.0205 73.6085 36.0205C73.6461 36.246 73.7963 36.4338 74.0593 36.3962C74.2848 36.3587 74.3975 36.1332 74.3975 35.9078C74.3599 35.9078 74.3223 35.8702 74.2848 35.9078Z" fill="#263238"/>
<path d="M76.8398 35.3442C76.8398 35.3442 76.8774 35.3442 76.8398 35.3442C76.9526 35.7199 77.1028 36.1332 77.441 36.1708V36.2084C77.0653 36.2459 76.8774 35.7199 76.8398 35.3442Z" fill="#263238"/>
<path d="M77.065 34.8933C77.6286 34.7055 77.9667 35.8326 77.4408 36.0205C76.9523 36.2083 76.6142 35.0436 77.065 34.8933Z" fill="#263238"/>
<path d="M77.329 34.8934C77.4417 34.9309 77.5544 35.0061 77.6671 34.9685C77.7798 34.9309 77.855 34.7807 77.8925 34.6304C77.8925 34.6304 77.8925 34.6304 77.9301 34.6304C78.0052 34.8558 78.0052 35.0812 77.8174 35.1939C77.6295 35.3066 77.4417 35.1564 77.329 34.9309C77.2914 34.9685 77.2914 34.8934 77.329 34.8934Z" fill="#263238"/>
<path d="M75.7118 39.0261C75.8245 39.1012 75.9372 39.1764 76.0499 39.1764C76.1626 39.1764 76.3129 39.0637 76.4256 38.9885H76.4632C76.388 39.1388 76.2378 39.2891 76.0499 39.2891C75.8621 39.3267 75.7493 39.214 75.7118 39.0261C75.6742 39.0637 75.6742 39.0261 75.7118 39.0261Z" fill="#263238"/>
<path d="M76.84 37.3354C76.84 37.3354 77.0654 37.8614 77.1405 38.0868C77.1405 38.1244 77.103 38.1244 76.9902 38.162C76.577 38.3498 76.0885 38.3122 75.7128 38.0492C75.6753 38.0117 75.7128 38.0117 75.7504 38.0117C76.1637 38.1619 76.5394 38.1244 76.9151 38.0117C76.9151 37.9365 76.5018 37.1475 76.5394 37.1475C76.6897 37.11 76.9527 37.11 77.1405 37.11C76.7272 36.0204 76.1261 35.0436 75.7128 33.954C75.7128 33.9164 75.7504 33.8789 75.788 33.9164C76.5018 34.9309 76.9902 36.1331 77.4787 37.2227C77.5162 37.4105 76.9527 37.373 76.84 37.3354Z" fill="#263238"/>
<path d="M76.9143 38.0869C76.9143 38.0869 76.8016 38.5002 76.501 38.7256C76.3883 38.8007 76.2756 38.8759 76.1253 38.8759C75.8247 38.9134 75.712 38.6505 75.712 38.425C75.6744 38.2372 75.712 38.0493 75.712 38.0493C75.712 38.0493 76.2756 38.2747 76.9143 38.0869Z" fill="#263238"/>
<path d="M76.5019 38.7255C76.3892 38.8007 76.2765 38.8758 76.1262 38.8758C75.8256 38.9134 75.7129 38.6504 75.7129 38.425C76.0135 38.3498 76.3892 38.4625 76.5019 38.7255Z" fill="#FF9CBD"/>
<path d="M69.5515 38.5751C70.6034 37.7861 70.4156 36.5463 70.4156 36.5463C71.7306 35.6446 72.2941 34.3296 72.3693 34.2169C72.3693 34.3296 72.2566 35.1562 72.1814 35.607C75.4125 34.292 75.9385 31.5118 75.9385 31.5118C77.2535 32.3759 77.5916 33.0522 77.817 33.3528C77.817 33.3528 77.4413 31.2864 76.0888 30.1217C74.4732 28.694 72.745 29.3703 72.745 29.3703C72.745 29.3703 69.9647 29.1073 68.3868 31.7372C66.6961 34.5175 69.5515 38.5751 69.5515 38.5751Z" fill="#263238"/>
<path d="M74.6234 34.5176C74.1349 34.9309 73.6089 35.2315 73.0078 35.4944C73.9095 35.0436 74.6609 34.3673 75.1869 33.5032C75.4124 33.1275 75.6002 32.7518 75.7129 32.3385C75.8256 31.9252 75.9383 31.3992 75.9008 30.9859C75.9008 30.9484 75.9383 30.9484 75.9383 30.9859C75.9759 31.4744 76.0511 31.8876 75.9383 32.3761C75.8256 32.8269 75.6753 33.2402 75.4123 33.6535C75.2245 33.954 74.9239 34.2546 74.6234 34.5176Z" fill="#263238"/>
<path d="M70.4165 37.8988C70.4165 37.8988 68.8385 36.5838 68.2374 37.1849C67.5987 37.7861 69.1015 39.9276 70.0408 40.0028C70.9801 40.1155 71.0928 39.2138 71.0928 39.2138L70.4165 37.8988Z" fill="#EB9481"/>
<path d="M68.6512 37.7486C68.6137 37.7486 68.6137 37.7862 68.6512 37.7486C69.3275 37.8613 69.7784 38.3497 70.1541 38.8757C69.9286 38.6879 69.6281 38.6503 69.4026 38.9509C69.4026 38.9509 69.4026 38.9884 69.4402 38.9884C69.6656 38.8757 69.8535 38.8757 70.0789 39.026C70.2292 39.1387 70.3795 39.289 70.4922 39.4393C70.5298 39.4769 70.6425 39.4393 70.6049 39.3642C70.3795 38.5376 69.4778 37.6359 68.6512 37.7486Z" fill="#263238"/>
<path d="M96.339 26.064C95.9258 29.9714 92.4317 32.8267 88.4867 32.4135C86.9088 32.2632 85.4811 31.5869 84.3915 30.5725L80.8223 31.0985L82.6257 28.0177C82.1748 26.9657 82.0245 25.801 82.1372 24.5987C82.5505 20.6913 86.0446 17.836 89.9896 18.2492C93.8969 18.6625 96.7523 22.1566 96.339 26.064Z" fill="#4F4F4F"/>
<path d="M96.3394 26.0639C96.1891 27.3789 95.7007 28.6563 94.9117 29.6707C94.7238 29.9337 94.4984 30.1591 94.273 30.4221C94.01 30.6475 93.7846 30.873 93.5216 31.0608C92.9956 31.4741 92.432 31.7747 91.7933 32.0001C91.1922 32.2631 90.5159 32.3758 89.8772 32.4509C89.5391 32.4509 89.2009 32.4885 88.9004 32.4885C88.5622 32.4885 88.2241 32.4509 87.9235 32.3758C86.6085 32.1504 85.3687 31.5117 84.3919 30.6475L84.467 30.6851L80.8978 31.2487L80.6348 31.2862L80.7475 31.0608L82.5133 27.98V28.0927C81.6492 26.0639 81.837 23.6218 82.9642 21.7432C83.5277 20.804 84.2791 19.9774 85.1808 19.3763C86.0825 18.7751 87.1345 18.3619 88.2241 18.2491C89.3136 18.0989 90.4032 18.2116 91.4552 18.5497C92.4696 18.8879 93.4464 19.489 94.1979 20.2404C95.7758 21.6681 96.5648 23.9224 96.3394 26.0639ZM96.3394 26.0639C96.5648 23.9224 95.7383 21.6681 94.1603 20.2028C93.3713 19.4514 92.432 18.8879 91.4176 18.5873C90.4032 18.2491 89.3136 18.174 88.2617 18.3619C87.2097 18.5121 86.1953 18.9254 85.3311 19.5266C84.467 20.1277 83.7156 20.9543 83.1896 21.856C82.6636 22.7577 82.363 23.8096 82.2879 24.8616C82.2127 25.9136 82.4006 27.0032 82.7763 27.98L82.8139 28.0551L82.7763 28.1303L80.9729 31.2111L80.8602 31.0233L84.4294 30.5348H84.467L84.5046 30.5724C85.4438 31.4741 86.6461 32.0752 87.9235 32.3382C88.2241 32.4134 88.5622 32.4509 88.9004 32.4509C89.2385 32.4885 89.5391 32.4509 89.8772 32.4509C90.5159 32.3758 91.1922 32.2631 91.7933 32.0377C92.3945 31.8122 92.9956 31.5117 93.5216 31.0984C93.7846 30.9105 94.01 30.6851 94.273 30.4597C94.4984 30.2343 94.7238 30.0088 94.9117 29.7083C95.7007 28.6563 96.1891 27.3789 96.3394 26.0639Z" fill="#263238"/>
</svg>
